<svg xmlns="http://www.w3.org/2000/svg" xmlns:xlink="http://www.w3.org/1999/xlink" width="480" zoomAndPan="magnify" viewBox="0 0 360 503.999982" height="672" preserveAspectRatio="xMidYMid meet" version="1.0"><defs><filter x="0%" y="0%" width="100%" height="100%" id="8610781205"><feColorMatrix values="0 0 0 0 1 0 0 0 0 1 0 0 0 0 1 0 0 0 1 0" color-interpolation-filters="sRGB"/></filter><g/><mask id="8b7c2c9468"><g filter="url(#8610781205)"><rect x="-36" width="432" fill="#000000" y="-50.399998" height="604.799979" fill-opacity="0.1373"/></g></mask><clipPath id="29da851ec4"><path d="M 0 0 L 1 0 L 1 432.847656 L 0 432.847656 Z M 0 0 " clip-rule="nonzero"/></clipPath><clipPath id="90f1d27889"><path d="M 0 0 L 18 0 L 18 432.847656 L 0 432.847656 Z M 0 0 " clip-rule="nonzero"/></clipPath><clipPath id="c231d14740"><path d="M 0 0 L 35 0 L 35 432.847656 L 0 432.847656 Z M 0 0 " clip-rule="nonzero"/></clipPath><clipPath id="1ea3091ba7"><path d="M 0 0 L 53 0 L 53 432.847656 L 0 432.847656 Z M 0 0 " clip-rule="nonzero"/></clipPath><clipPath id="80a1d6d998"><path d="M 0 0 L 70 0 L 70 432.847656 L 0 432.847656 Z M 0 0 " clip-rule="nonzero"/></clipPath><clipPath id="c084dce271"><path d="M 0 0 L 88 0 L 88 432.847656 L 0 432.847656 Z M 0 0 " clip-rule="nonzero"/></clipPath><clipPath id="da08657b8c"><path d="M 0 0 L 105 0 L 105 432.847656 L 0 432.847656 Z M 0 0 " clip-rule="nonzero"/></clipPath><clipPath id="d3ce3eedbc"><path d="M 0 0 L 122 0 L 122 432.847656 L 0 432.847656 Z M 0 0 " clip-rule="nonzero"/></clipPath><clipPath id="2f670e4c5a"><path d="M 0 0 L 140 0 L 140 432.847656 L 0 432.847656 Z M 0 0 " clip-rule="nonzero"/></clipPath><clipPath id="81264f3cbf"><path d="M 0 0 L 157 0 L 157 432.847656 L 0 432.847656 Z M 0 0 " clip-rule="nonzero"/></clipPath><clipPath id="98523800a0"><path d="M 0 0 L 175 0 L 175 432.847656 L 0 432.847656 Z M 0 0 " clip-rule="nonzero"/></clipPath><clipPath id="1461927aec"><path d="M 0 0 L 192 0 L 192 432.847656 L 0 432.847656 Z M 0 0 " clip-rule="nonzero"/></clipPath><clipPath id="77f52e05d7"><path d="M 0 0 L 208.722656 0 L 208.722656 432.847656 L 0 432.847656 Z M 0 0 " clip-rule="nonzero"/></clipPath><clipPath id="55f33cb38a"><rect x="0" width="209" y="0" height="434"/></clipPath><mask id="a3f95669fa"><g filter="url(#8610781205)"><rect x="-36" width="432" fill="#000000" y="-50.399998" height="604.799979" fill-opacity="0.1373"/></g></mask><clipPath id="651b61491d"><path d="M 0 1 L 197 1 L 197 501.648438 L 0 501.648438 Z M 0 1 " clip-rule="nonzero"/></clipPath><clipPath id="1131d39045"><path d="M 0 1 L 214 1 L 214 501.648438 L 0 501.648438 Z M 0 1 " clip-rule="nonzero"/></clipPath><clipPath id="71c8c0ecdc"><path d="M 12 1 L 232 1 L 232 501.648438 L 12 501.648438 Z M 12 1 " clip-rule="nonzero"/></clipPath><clipPath id="8c87779024"><path d="M 29 1 L 249 1 L 249 501.648438 L 29 501.648438 Z M 29 1 " clip-rule="nonzero"/></clipPath><clipPath id="416214dd9b"><path d="M 47 1 L 267 1 L 267 501.648438 L 47 501.648438 Z M 47 1 " clip-rule="nonzero"/></clipPath><clipPath id="14765ead73"><path d="M 64 1 L 284 1 L 284 501.648438 L 64 501.648438 Z M 64 1 " clip-rule="nonzero"/></clipPath><clipPath id="d2858978b1"><path d="M 81 1 L 301 1 L 301 501.648438 L 81 501.648438 Z M 81 1 " clip-rule="nonzero"/></clipPath><clipPath id="769de24d07"><path d="M 99 1 L 319 1 L 319 501.648438 L 99 501.648438 Z M 99 1 " clip-rule="nonzero"/></clipPath><clipPath id="3a8a1989f9"><path d="M 116 1 L 336 1 L 336 501.648438 L 116 501.648438 Z M 116 1 " clip-rule="nonzero"/></clipPath><clipPath id="85efcb5c8c"><path d="M 134 1 L 354 1 L 354 501.648438 L 134 501.648438 Z M 134 1 " clip-rule="nonzero"/></clipPath><clipPath id="94146f6069"><path d="M 151 1 L 360 1 L 360 501.648438 L 151 501.648438 Z M 151 1 " clip-rule="nonzero"/></clipPath><clipPath id="16c85648fd"><path d="M 168 1 L 360 1 L 360 501.648438 L 168 501.648438 Z M 168 1 " clip-rule="nonzero"/></clipPath><clipPath id="5ed0793965"><path d="M 186 1 L 360 1 L 360 501.648438 L 186 501.648438 Z M 186 1 " clip-rule="nonzero"/></clipPath><clipPath id="01da34093e"><path d="M 203 1 L 360 1 L 360 501.648438 L 203 501.648438 Z M 203 1 " clip-rule="nonzero"/></clipPath><clipPath id="7d931679ad"><path d="M 221 1 L 360 1 L 360 501.648438 L 221 501.648438 Z M 221 1 " clip-rule="nonzero"/></clipPath><clipPath id="5ffdf2a468"><rect x="0" width="360" y="0" height="502"/></clipPath><clipPath id="ce308cd0f5"><path d="M 28.015625 36 L 331.765625 36 L 331.765625 468 L 28.015625 468 Z M 28.015625 36 " clip-rule="nonzero"/></clipPath><mask id="cef5330f5d"><g filter="url(#8610781205)"><rect x="-36" width="432" fill="#000000" y="-50.399998" height="604.799979" fill-opacity="0.1373"/></g></mask><clipPath id="a720d9d3fd"><path d="M 0.222656 1 L 122 1 L 122 501.648438 L 0.222656 501.648438 Z M 0.222656 1 " clip-rule="nonzero"/></clipPath><clipPath id="6020b82285"><path d="M 17 1 L 122 1 L 122 501.648438 L 17 501.648438 Z M 17 1 " clip-rule="nonzero"/></clipPath><clipPath id="739424b674"><path d="M 35 1 L 122 1 L 122 501.648438 L 35 501.648438 Z M 35 1 " clip-rule="nonzero"/></clipPath><clipPath id="70d4570bd9"><path d="M 52 1 L 122 1 L 122 501.648438 L 52 501.648438 Z M 52 1 " clip-rule="nonzero"/></clipPath><clipPath id="e1b8abcc43"><path d="M 70 1 L 122 1 L 122 501.648438 L 70 501.648438 Z M 70 1 " clip-rule="nonzero"/></clipPath><clipPath id="7d477e0900"><path d="M 87 1 L 122 1 L 122 501.648438 L 87 501.648438 Z M 87 1 " clip-rule="nonzero"/></clipPath><clipPath id="ffc2b70195"><path d="M 104 1 L 122 1 L 122 501.648438 L 104 501.648438 Z M 104 1 " clip-rule="nonzero"/></clipPath><clipPath id="b5eb577d54"><rect x="0" width="122" y="0" height="502"/></clipPath><clipPath id="7ca7373bd7"><path d="M 222.839844 378.789062 L 275.65625 378.789062 L 275.65625 427.667969 L 222.839844 427.667969 Z M 222.839844 378.789062 " clip-rule="nonzero"/></clipPath><clipPath id="d38e6b9637"><path d="M 237 388 L 251 388 L 251 431 L 237 431 Z M 237 388 " clip-rule="nonzero"/></clipPath><clipPath id="348a580356"><path d="M 246.347656 431.453125 L 221.203125 414.464844 L 238.582031 388.742188 L 263.726562 405.730469 Z M 246.347656 431.453125 " clip-rule="nonzero"/></clipPath><clipPath id="4bb93f626c"><path d="M 246.347656 431.453125 L 217.941406 412.257812 L 238.429688 381.929688 L 266.839844 401.125 Z M 246.347656 431.453125 " clip-rule="nonzero"/></clipPath><clipPath id="95911343ad"><path d="M 222.839844 313.367188 L 275.65625 313.367188 L 275.65625 362.246094 L 222.839844 362.246094 Z M 222.839844 313.367188 " clip-rule="nonzero"/></clipPath><clipPath id="1304e2f793"><path d="M 237 323 L 251 323 L 251 366 L 237 366 Z M 237 323 " clip-rule="nonzero"/></clipPath><clipPath id="dc8f5c9bc6"><path d="M 246.347656 366.03125 L 221.203125 349.042969 L 238.582031 323.324219 L 263.726562 340.3125 Z M 246.347656 366.03125 " clip-rule="nonzero"/></clipPath><clipPath id="5525315224"><path d="M 246.347656 366.03125 L 217.941406 346.839844 L 238.429688 316.511719 L 266.839844 335.707031 Z M 246.347656 366.03125 " clip-rule="nonzero"/></clipPath><clipPath id="545ae3227c"><path d="M 222.839844 247.949219 L 275.65625 247.949219 L 275.65625 296.828125 L 222.839844 296.828125 Z M 222.839844 247.949219 " clip-rule="nonzero"/></clipPath><clipPath id="bff1b031b9"><path d="M 237 257 L 251 257 L 251 301 L 237 301 Z M 237 257 " clip-rule="nonzero"/></clipPath><clipPath id="4be5c34c2d"><path d="M 246.347656 300.613281 L 221.203125 283.625 L 238.582031 257.902344 L 263.726562 274.890625 Z M 246.347656 300.613281 " clip-rule="nonzero"/></clipPath><clipPath id="1e988d8e6c"><path d="M 246.347656 300.613281 L 217.941406 281.417969 L 238.429688 251.089844 L 266.839844 270.285156 Z M 246.347656 300.613281 " clip-rule="nonzero"/></clipPath><clipPath id="8ddf71c62d"><path d="M 222.839844 182.527344 L 275.65625 182.527344 L 275.65625 231.40625 L 222.839844 231.40625 Z M 222.839844 182.527344 " clip-rule="nonzero"/></clipPath><clipPath id="cb51e72b61"><path d="M 237 192 L 251 192 L 251 235 L 237 235 Z M 237 192 " clip-rule="nonzero"/></clipPath><clipPath id="8e2886a5a9"><path d="M 246.347656 235.191406 L 221.203125 218.203125 L 238.582031 192.484375 L 263.726562 209.472656 Z M 246.347656 235.191406 " clip-rule="nonzero"/></clipPath><clipPath id="92bd8737d9"><path d="M 246.347656 235.191406 L 217.941406 216 L 238.429688 185.671875 L 266.839844 204.867188 Z M 246.347656 235.191406 " clip-rule="nonzero"/></clipPath><clipPath id="6fd8ccd4d2"><path d="M 154.425781 116.976562 L 207.246094 116.976562 L 207.246094 165.855469 L 154.425781 165.855469 Z M 154.425781 116.976562 " clip-rule="nonzero"/></clipPath><clipPath id="62e00e240b"><path d="M 169 126 L 183 126 L 183 170 L 169 170 Z M 169 126 " clip-rule="nonzero"/></clipPath><clipPath id="2defae5f4e"><path d="M 177.9375 169.644531 L 152.792969 152.652344 L 170.171875 126.933594 L 195.316406 143.921875 Z M 177.9375 169.644531 " clip-rule="nonzero"/></clipPath><clipPath id="9d0f416303"><path d="M 177.9375 169.644531 L 149.527344 150.449219 L 170.019531 120.121094 L 198.429688 139.316406 Z M 177.9375 169.644531 " clip-rule="nonzero"/></clipPath><clipPath id="ca19010f19"><path d="M 87.839844 378.789062 L 140.65625 378.789062 L 140.65625 427.667969 L 87.839844 427.667969 Z M 87.839844 378.789062 " clip-rule="nonzero"/></clipPath><clipPath id="f66415fdb8"><path d="M 102 388 L 116 388 L 116 431 L 102 431 Z M 102 388 " clip-rule="nonzero"/></clipPath><clipPath id="c1f7dd1edc"><path d="M 111.347656 431.453125 L 86.203125 414.464844 L 103.582031 388.742188 L 128.726562 405.730469 Z M 111.347656 431.453125 " clip-rule="nonzero"/></clipPath><clipPath id="cf69bdd8cc"><path d="M 111.347656 431.453125 L 82.941406 412.257812 L 103.429688 381.929688 L 131.839844 401.125 Z M 111.347656 431.453125 " clip-rule="nonzero"/></clipPath><clipPath id="988abf01d4"><path d="M 87.839844 313.367188 L 140.65625 313.367188 L 140.65625 362.246094 L 87.839844 362.246094 Z M 87.839844 313.367188 " clip-rule="nonzero"/></clipPath><clipPath id="eecf8bbf6b"><path d="M 102 323 L 116 323 L 116 366 L 102 366 Z M 102 323 " clip-rule="nonzero"/></clipPath><clipPath id="84d3cd98fa"><path d="M 111.347656 366.03125 L 86.203125 349.042969 L 103.582031 323.324219 L 128.726562 340.3125 Z M 111.347656 366.03125 " clip-rule="nonzero"/></clipPath><clipPath id="71ca6323ed"><path d="M 111.347656 366.03125 L 82.941406 346.839844 L 103.429688 316.511719 L 131.839844 335.707031 Z M 111.347656 366.03125 " clip-rule="nonzero"/></clipPath><clipPath id="fa6735263a"><path d="M 87.839844 247.949219 L 140.65625 247.949219 L 140.65625 296.828125 L 87.839844 296.828125 Z M 87.839844 247.949219 " clip-rule="nonzero"/></clipPath><clipPath id="c5db6ed83b"><path d="M 102 257 L 116 257 L 116 301 L 102 301 Z M 102 257 " clip-rule="nonzero"/></clipPath><clipPath id="08bcbfa62d"><path d="M 111.347656 300.613281 L 86.203125 283.625 L 103.582031 257.902344 L 128.726562 274.890625 Z M 111.347656 300.613281 " clip-rule="nonzero"/></clipPath><clipPath id="ba9611c3a1"><path d="M 111.347656 300.613281 L 82.941406 281.417969 L 103.429688 251.089844 L 131.839844 270.285156 Z M 111.347656 300.613281 " clip-rule="nonzero"/></clipPath><clipPath id="647b05f012"><path d="M 87.839844 182.527344 L 140.65625 182.527344 L 140.65625 231.40625 L 87.839844 231.40625 Z M 87.839844 182.527344 " clip-rule="nonzero"/></clipPath><clipPath id="089e89c3fa"><path d="M 102 192 L 116 192 L 116 235 L 102 235 Z M 102 192 " clip-rule="nonzero"/></clipPath><clipPath id="c0e33bde40"><path d="M 111.347656 235.191406 L 86.203125 218.203125 L 103.582031 192.484375 L 128.726562 209.472656 Z M 111.347656 235.191406 " clip-rule="nonzero"/></clipPath><clipPath id="a534b27348"><path d="M 111.347656 235.191406 L 82.941406 216 L 103.429688 185.671875 L 131.839844 204.867188 Z M 111.347656 235.191406 " clip-rule="nonzero"/></clipPath></defs><rect x="-36" width="432" fill="#ffffff" y="-50.399998" height="604.799979" fill-opacity="1"/><rect x="-36" width="432" fill="#323232" y="-50.399998" height="604.799979" fill-opacity="1"/><g mask="url(#8b7c2c9468)"><g transform="matrix(1, 0, 0, 1, 0, 0)"><g clip-path="url(#55f33cb38a)"><g clip-path="url(#29da851ec4)"><path fill="#000000" d="M -217.589844 432.296875 L -219.066406 431.664062 L -1.417969 -67.574219 L 0.0507812 -66.9375 Z M -217.589844 432.296875 " fill-opacity="1" fill-rule="nonzero"/></g><g clip-path="url(#90f1d27889)"><path fill="#000000" d="M -200.175781 432.296875 L -201.652344 431.664062 L 15.992188 -67.574219 L 17.460938 -66.9375 Z M -200.175781 432.296875 " fill-opacity="1" fill-rule="nonzero"/></g><g clip-path="url(#c231d14740)"><path fill="#000000" d="M -182.765625 432.296875 L -184.242188 431.664062 L 33.40625 -67.574219 L 34.875 -66.9375 Z M -182.765625 432.296875 " fill-opacity="1" fill-rule="nonzero"/></g><g clip-path="url(#1ea3091ba7)"><path fill="#000000" d="M -165.359375 432.296875 L -166.828125 431.664062 L 50.816406 -67.574219 L 52.289062 -66.9375 Z M -165.359375 432.296875 " fill-opacity="1" fill-rule="nonzero"/></g><g clip-path="url(#80a1d6d998)"><path fill="#000000" d="M -147.945312 432.296875 L -149.421875 431.664062 L 68.222656 -67.574219 L 69.699219 -66.9375 Z M -147.945312 432.296875 " fill-opacity="1" fill-rule="nonzero"/></g><g clip-path="url(#c084dce271)"><path fill="#000000" d="M -130.535156 432.296875 L -132.011719 431.664062 L 85.636719 -67.574219 L 87.113281 -66.9375 Z M -130.535156 432.296875 " fill-opacity="1" fill-rule="nonzero"/></g><g clip-path="url(#da08657b8c)"><path fill="#000000" d="M -113.121094 432.296875 L -114.597656 431.664062 L 103.050781 -67.574219 L 104.523438 -66.9375 Z M -113.121094 432.296875 " fill-opacity="1" fill-rule="nonzero"/></g><g clip-path="url(#d3ce3eedbc)"><path fill="#000000" d="M -95.707031 432.296875 L -97.183594 431.664062 L 120.460938 -67.574219 L 121.929688 -66.9375 Z M -95.707031 432.296875 " fill-opacity="1" fill-rule="nonzero"/></g><g clip-path="url(#2f670e4c5a)"><path fill="#000000" d="M -78.304688 432.296875 L -79.773438 431.664062 L 137.875 -67.574219 L 139.34375 -66.9375 Z M -78.304688 432.296875 " fill-opacity="1" fill-rule="nonzero"/></g><g clip-path="url(#81264f3cbf)"><path fill="#000000" d="M -60.890625 432.296875 L -62.359375 431.664062 L 155.28125 -67.574219 L 156.757812 -66.9375 Z M -60.890625 432.296875 " fill-opacity="1" fill-rule="nonzero"/></g><g clip-path="url(#98523800a0)"><path fill="#000000" d="M -43.476562 432.296875 L -44.949219 431.664062 L 172.691406 -67.574219 L 174.167969 -66.9375 Z M -43.476562 432.296875 " fill-opacity="1" fill-rule="nonzero"/></g><g clip-path="url(#1461927aec)"><path fill="#000000" d="M -26.066406 432.296875 L -27.535156 431.664062 L 190.105469 -67.574219 L 191.582031 -66.9375 Z M -26.066406 432.296875 " fill-opacity="1" fill-rule="nonzero"/></g><g clip-path="url(#77f52e05d7)"><path fill="#000000" d="M -8.652344 432.296875 L -10.128906 431.664062 L 207.515625 -67.574219 L 208.992188 -66.9375 Z M -8.652344 432.296875 " fill-opacity="1" fill-rule="nonzero"/></g></g></g></g><g mask="url(#a3f95669fa)"><g transform="matrix(1, 0, 0, 1, 0, 2)"><g clip-path="url(#5ffdf2a468)"><g clip-path="url(#651b61491d)"><path fill="#000000" d="M -21.167969 501.097656 L -22.636719 500.460938 L 195.003906 1.226562 L 196.480469 1.859375 Z M -21.167969 501.097656 " fill-opacity="1" fill-rule="nonzero"/></g><g clip-path="url(#1131d39045)"><path fill="#000000" d="M -3.753906 501.097656 L -5.230469 500.460938 L 212.414062 1.226562 L 213.890625 1.859375 Z M -3.753906 501.097656 " fill-opacity="1" fill-rule="nonzero"/></g><g clip-path="url(#71c8c0ecdc)"><path fill="#000000" d="M 13.65625 501.097656 L 12.183594 500.460938 L 229.828125 1.226562 L 231.296875 1.859375 Z M 13.65625 501.097656 " fill-opacity="1" fill-rule="nonzero"/></g><g clip-path="url(#8c87779024)"><path fill="#000000" d="M 31.070312 501.097656 L 29.59375 500.460938 L 247.242188 1.226562 L 248.710938 1.859375 Z M 31.070312 501.097656 " fill-opacity="1" fill-rule="nonzero"/></g><g clip-path="url(#416214dd9b)"><path fill="#000000" d="M 48.484375 501.097656 L 47.007812 500.460938 L 264.652344 1.226562 L 266.125 1.859375 Z M 48.484375 501.097656 " fill-opacity="1" fill-rule="nonzero"/></g><g clip-path="url(#14765ead73)"><path fill="#000000" d="M 65.890625 501.097656 L 64.417969 500.460938 L 282.066406 1.226562 L 283.535156 1.859375 Z M 65.890625 501.097656 " fill-opacity="1" fill-rule="nonzero"/></g><g clip-path="url(#d2858978b1)"><path fill="#000000" d="M 83.300781 501.097656 L 81.824219 500.460938 L 299.472656 1.226562 L 300.949219 1.859375 Z M 83.300781 501.097656 " fill-opacity="1" fill-rule="nonzero"/></g><g clip-path="url(#769de24d07)"><path fill="#000000" d="M 100.714844 501.097656 L 99.238281 500.460938 L 316.882812 1.226562 L 318.359375 1.859375 Z M 100.714844 501.097656 " fill-opacity="1" fill-rule="nonzero"/></g><g clip-path="url(#3a8a1989f9)"><path fill="#000000" d="M 118.125 501.097656 L 116.652344 500.460938 L 334.296875 1.226562 L 335.773438 1.859375 Z M 118.125 501.097656 " fill-opacity="1" fill-rule="nonzero"/></g><g clip-path="url(#85efcb5c8c)"><path fill="#000000" d="M 135.539062 501.097656 L 134.0625 500.460938 L 351.710938 1.226562 L 353.179688 1.859375 Z M 135.539062 501.097656 " fill-opacity="1" fill-rule="nonzero"/></g><g clip-path="url(#94146f6069)"><path fill="#000000" d="M 152.945312 501.097656 L 151.476562 500.460938 L 369.121094 1.226562 L 370.589844 1.859375 Z M 152.945312 501.097656 " fill-opacity="1" fill-rule="nonzero"/></g><g clip-path="url(#16c85648fd)"><path fill="#000000" d="M 170.359375 501.097656 L 168.886719 500.460938 L 386.527344 1.226562 L 388.003906 1.859375 Z M 170.359375 501.097656 " fill-opacity="1" fill-rule="nonzero"/></g><g clip-path="url(#5ed0793965)"><path fill="#000000" d="M 187.769531 501.097656 L 186.300781 500.460938 L 403.941406 1.226562 L 405.417969 1.859375 Z M 187.769531 501.097656 " fill-opacity="1" fill-rule="nonzero"/></g><g clip-path="url(#01da34093e)"><path fill="#000000" d="M 205.183594 501.097656 L 203.710938 500.460938 L 421.351562 1.226562 L 422.828125 1.859375 Z M 205.183594 501.097656 " fill-opacity="1" fill-rule="nonzero"/></g><g clip-path="url(#7d931679ad)"><path fill="#000000" d="M 222.59375 501.097656 L 221.117188 500.460938 L 438.765625 1.226562 L 440.242188 1.859375 Z M 222.59375 501.097656 " fill-opacity="1" fill-rule="nonzero"/></g></g></g></g><g clip-path="url(#ce308cd0f5)"><path fill="#00bf63" d="M 331.601562 467.976562 L 28.1875 467.976562 L 28.1875 36 L 331.601562 36 Z M 29.066406 467.097656 L 330.722656 467.097656 L 330.722656 36.878906 L 29.066406 36.878906 Z M 29.066406 467.097656 " fill-opacity="1" fill-rule="nonzero"/></g><g fill="#00bf63" fill-opacity="1"><g transform="translate(44.874898, 95.039993)"><g><path d="M 16.828125 -43.71875 C 8.320312 -43.71875 2.421875 -37.320312 2.421875 -29.0625 C 2.421875 -20.988281 7.328125 -14.28125 16.207031 -14.28125 C 20.679688 -14.28125 24.46875 -16.144531 27.074219 -19.746094 L 28.628906 -22.976562 C 28.195312 -5.835938 22.292969 -1.179688 15.773438 -1.179688 C 10.183594 -1.179688 6.832031 -4.097656 5.589844 -10.246094 L 5.464844 -10.867188 L 3.042969 -10.867188 L 3.105469 -10.246094 C 4.347656 -3.414062 8.136719 0.871094 15.648438 0.871094 C 24.902344 0.871094 31.050781 -6.894531 31.050781 -24.09375 C 31.050781 -38.066406 25.585938 -43.71875 16.828125 -43.71875 Z M 16.519531 -16.332031 C 9.316406 -16.332031 5.03125 -21.921875 5.03125 -29.25 C 5.03125 -36.203125 9.625 -41.667969 16.828125 -41.667969 C 24.09375 -41.667969 28.195312 -35.769531 28.195312 -28.378906 C 28.195312 -21.238281 22.976562 -16.332031 16.519531 -16.332031 Z M 16.519531 -16.332031 "/></g></g></g><g mask="url(#cef5330f5d)"><g transform="matrix(1, 0, 0, 1, 238, 2)"><g clip-path="url(#b5eb577d54)"><g clip-path="url(#a720d9d3fd)"><path fill="#000000" d="M 1.832031 501.097656 L 0.363281 500.460938 L 218.003906 1.226562 L 219.480469 1.859375 Z M 1.832031 501.097656 " fill-opacity="1" fill-rule="nonzero"/></g><g clip-path="url(#6020b82285)"><path fill="#000000" d="M 19.246094 501.097656 L 17.769531 500.460938 L 235.414062 1.226562 L 236.890625 1.859375 Z M 19.246094 501.097656 " fill-opacity="1" fill-rule="nonzero"/></g><g clip-path="url(#739424b674)"><path fill="#000000" d="M 36.65625 501.097656 L 35.183594 500.460938 L 252.828125 1.226562 L 254.296875 1.859375 Z M 36.65625 501.097656 " fill-opacity="1" fill-rule="nonzero"/></g><g clip-path="url(#70d4570bd9)"><path fill="#000000" d="M 54.070312 501.097656 L 52.59375 500.460938 L 270.242188 1.226562 L 271.710938 1.859375 Z M 54.070312 501.097656 " fill-opacity="1" fill-rule="nonzero"/></g><g clip-path="url(#e1b8abcc43)"><path fill="#000000" d="M 71.484375 501.097656 L 70.007812 500.460938 L 287.652344 1.226562 L 289.125 1.859375 Z M 71.484375 501.097656 " fill-opacity="1" fill-rule="nonzero"/></g><g clip-path="url(#7d477e0900)"><path fill="#000000" d="M 88.890625 501.097656 L 87.417969 500.460938 L 305.066406 1.226562 L 306.535156 1.859375 Z M 88.890625 501.097656 " fill-opacity="1" fill-rule="nonzero"/></g><g clip-path="url(#ffc2b70195)"><path fill="#000000" d="M 106.300781 501.097656 L 104.824219 500.460938 L 322.472656 1.226562 L 323.949219 1.859375 Z M 106.300781 501.097656 " fill-opacity="1" fill-rule="nonzero"/></g></g></g></g><g clip-path="url(#7ca7373bd7)"><path fill="#00bf63" d="M 261.773438 427.660156 C 269.417969 427.660156 275.621094 421.453125 275.621094 413.804688 C 275.621094 398.242188 259.933594 394.164062 249.246094 378.78125 C 239.136719 394.070312 222.867188 398.742188 222.867188 413.804688 C 222.867188 421.453125 229.070312 427.660156 236.714844 427.660156 C 242.261719 427.660156 247.035156 424.382812 249.246094 419.671875 C 251.457031 424.382812 256.226562 427.660156 261.773438 427.660156 Z M 261.773438 427.660156 " fill-opacity="1" fill-rule="nonzero"/></g><g clip-path="url(#d38e6b9637)"><g clip-path="url(#348a580356)"><g clip-path="url(#4bb93f626c)"><path fill="#00bf63" d="M 238.773438 382.394531 C 238.796875 382.410156 238.816406 382.425781 238.835938 382.441406 C 250.914062 393.472656 254.335938 414.210938 246.796875 430.679688 C 246.730469 430.816406 246.628906 430.910156 246.492188 430.960938 C 246.351562 431.015625 246.214844 431.011719 246.078125 430.949219 C 245.941406 430.886719 245.847656 430.785156 245.796875 430.644531 C 245.742188 430.507812 245.75 430.367188 245.808594 430.230469 C 253.160156 414.171875 249.847656 393.972656 238.105469 383.246094 C 238 383.152344 237.941406 383.03125 237.929688 382.890625 C 237.917969 382.75 237.957031 382.621094 238.042969 382.507812 C 238.132812 382.398438 238.246094 382.332031 238.386719 382.308594 C 238.527344 382.285156 238.65625 382.316406 238.773438 382.394531 Z M 238.773438 382.394531 " fill-opacity="1" fill-rule="nonzero"/></g></g></g><g clip-path="url(#95911343ad)"><path fill="#00bf63" d="M 261.773438 362.242188 C 269.417969 362.242188 275.621094 356.03125 275.621094 348.382812 C 275.621094 332.824219 259.933594 328.742188 249.246094 313.359375 C 239.136719 328.648438 222.867188 333.320312 222.867188 348.382812 C 222.867188 356.03125 229.070312 362.242188 236.714844 362.242188 C 242.261719 362.242188 247.035156 358.964844 249.246094 354.25 C 251.457031 358.964844 256.226562 362.242188 261.773438 362.242188 Z M 261.773438 362.242188 " fill-opacity="1" fill-rule="nonzero"/></g><g clip-path="url(#1304e2f793)"><g clip-path="url(#dc8f5c9bc6)"><g clip-path="url(#5525315224)"><path fill="#00bf63" d="M 238.773438 316.972656 C 238.796875 316.988281 238.816406 317.003906 238.835938 317.023438 C 250.914062 328.054688 254.335938 348.789062 246.796875 365.261719 C 246.730469 365.398438 246.628906 365.492188 246.492188 365.542969 C 246.351562 365.59375 246.214844 365.589844 246.078125 365.527344 C 245.941406 365.464844 245.847656 365.367188 245.796875 365.226562 C 245.742188 365.085938 245.75 364.949219 245.808594 364.8125 C 253.160156 348.75 249.847656 328.550781 238.105469 317.828125 C 238 317.730469 237.941406 317.613281 237.929688 317.46875 C 237.917969 317.328125 237.957031 317.203125 238.042969 317.089844 C 238.132812 316.976562 238.246094 316.910156 238.386719 316.886719 C 238.527344 316.867188 238.65625 316.894531 238.773438 316.972656 Z M 238.773438 316.972656 " fill-opacity="1" fill-rule="nonzero"/></g></g></g><g clip-path="url(#545ae3227c)"><path fill="#00bf63" d="M 261.773438 296.820312 C 269.417969 296.820312 275.621094 290.613281 275.621094 282.964844 C 275.621094 267.402344 259.933594 263.324219 249.246094 247.941406 C 239.136719 263.230469 222.867188 267.902344 222.867188 282.964844 C 222.867188 290.613281 229.070312 296.820312 236.714844 296.820312 C 242.261719 296.820312 247.035156 293.542969 249.246094 288.832031 C 251.457031 293.542969 256.226562 296.820312 261.773438 296.820312 Z M 261.773438 296.820312 " fill-opacity="1" fill-rule="nonzero"/></g><g clip-path="url(#bff1b031b9)"><g clip-path="url(#4be5c34c2d)"><g clip-path="url(#1e988d8e6c)"><path fill="#00bf63" d="M 238.773438 251.554688 C 238.796875 251.570312 238.816406 251.585938 238.835938 251.601562 C 250.914062 262.632812 254.335938 283.371094 246.796875 299.839844 C 246.730469 299.976562 246.628906 300.070312 246.492188 300.125 C 246.351562 300.175781 246.214844 300.171875 246.078125 300.109375 C 245.941406 300.046875 245.847656 299.945312 245.796875 299.804688 C 245.742188 299.667969 245.75 299.527344 245.808594 299.390625 C 253.160156 283.332031 249.847656 263.132812 238.105469 252.40625 C 238 252.3125 237.941406 252.191406 237.929688 252.050781 C 237.917969 251.910156 237.957031 251.78125 238.042969 251.667969 C 238.132812 251.558594 238.246094 251.492188 238.386719 251.46875 C 238.527344 251.445312 238.65625 251.476562 238.773438 251.554688 Z M 238.773438 251.554688 " fill-opacity="1" fill-rule="nonzero"/></g></g></g><g clip-path="url(#8ddf71c62d)"><path fill="#00bf63" d="M 261.773438 231.402344 C 269.417969 231.402344 275.621094 225.191406 275.621094 217.542969 C 275.621094 201.984375 259.933594 197.902344 249.246094 182.519531 C 239.136719 197.808594 222.867188 202.480469 222.867188 217.542969 C 222.867188 225.191406 229.070312 231.402344 236.714844 231.402344 C 242.261719 231.402344 247.035156 228.125 249.246094 223.410156 C 251.457031 228.125 256.226562 231.402344 261.773438 231.402344 Z M 261.773438 231.402344 " fill-opacity="1" fill-rule="nonzero"/></g><g clip-path="url(#cb51e72b61)"><g clip-path="url(#8e2886a5a9)"><g clip-path="url(#92bd8737d9)"><path fill="#00bf63" d="M 238.773438 186.132812 C 238.796875 186.148438 238.816406 186.164062 238.835938 186.183594 C 250.914062 197.214844 254.335938 217.953125 246.796875 234.421875 C 246.730469 234.558594 246.628906 234.652344 246.492188 234.703125 C 246.351562 234.753906 246.214844 234.75 246.078125 234.6875 C 245.941406 234.625 245.847656 234.527344 245.796875 234.386719 C 245.742188 234.246094 245.75 234.109375 245.808594 233.972656 C 253.160156 217.914062 249.847656 197.714844 238.105469 186.988281 C 238 186.890625 237.941406 186.773438 237.929688 186.628906 C 237.917969 186.488281 237.957031 186.363281 238.042969 186.25 C 238.132812 186.136719 238.246094 186.070312 238.386719 186.046875 C 238.527344 186.027344 238.65625 186.054688 238.773438 186.132812 Z M 238.773438 186.132812 " fill-opacity="1" fill-rule="nonzero"/></g></g></g><g clip-path="url(#6fd8ccd4d2)"><path fill="#00bf63" d="M 193.359375 165.851562 C 201.007812 165.851562 207.210938 159.644531 207.210938 151.996094 C 207.210938 136.433594 191.523438 132.355469 180.832031 116.972656 C 170.726562 132.257812 154.453125 136.929688 154.453125 151.996094 C 154.453125 159.644531 160.660156 165.851562 168.304688 165.851562 C 173.847656 165.851562 178.621094 162.574219 180.832031 157.863281 C 183.042969 162.574219 187.816406 165.851562 193.359375 165.851562 Z M 193.359375 165.851562 " fill-opacity="1" fill-rule="nonzero"/></g><g clip-path="url(#62e00e240b)"><g clip-path="url(#2defae5f4e)"><g clip-path="url(#9d0f416303)"><path fill="#00bf63" d="M 170.363281 120.582031 C 170.382812 120.597656 170.40625 120.613281 170.425781 120.632812 C 182.5 131.664062 185.921875 152.402344 178.382812 168.871094 C 178.320312 169.007812 178.21875 169.101562 178.078125 169.152344 C 177.9375 169.203125 177.800781 169.199219 177.664062 169.136719 C 177.53125 169.078125 177.4375 168.976562 177.382812 168.835938 C 177.332031 168.695312 177.335938 168.558594 177.398438 168.421875 C 184.75 152.363281 181.4375 132.164062 169.691406 121.4375 C 169.585938 121.339844 169.53125 121.222656 169.519531 121.082031 C 169.507812 120.9375 169.542969 120.8125 169.632812 120.699219 C 169.722656 120.585938 169.835938 120.519531 169.976562 120.5 C 170.117188 120.476562 170.246094 120.503906 170.363281 120.582031 Z M 170.363281 120.582031 " fill-opacity="1" fill-rule="nonzero"/></g></g></g><g clip-path="url(#ca19010f19)"><path fill="#00bf63" d="M 126.773438 427.660156 C 134.417969 427.660156 140.621094 421.453125 140.621094 413.804688 C 140.621094 398.242188 124.933594 394.164062 114.246094 378.78125 C 104.136719 394.070312 87.867188 398.742188 87.867188 413.804688 C 87.867188 421.453125 94.070312 427.660156 101.714844 427.660156 C 107.261719 427.660156 112.035156 424.382812 114.246094 419.671875 C 116.457031 424.382812 121.226562 427.660156 126.773438 427.660156 Z M 126.773438 427.660156 " fill-opacity="1" fill-rule="nonzero"/></g><g clip-path="url(#f66415fdb8)"><g clip-path="url(#c1f7dd1edc)"><g clip-path="url(#cf69bdd8cc)"><path fill="#00bf63" d="M 103.773438 382.394531 C 103.796875 382.410156 103.816406 382.425781 103.835938 382.441406 C 115.914062 393.472656 119.335938 414.210938 111.796875 430.679688 C 111.730469 430.816406 111.628906 430.910156 111.492188 430.960938 C 111.351562 431.015625 111.214844 431.011719 111.078125 430.949219 C 110.941406 430.886719 110.847656 430.785156 110.796875 430.644531 C 110.742188 430.507812 110.75 430.367188 110.808594 430.230469 C 118.160156 414.171875 114.847656 393.972656 103.105469 383.246094 C 103 383.152344 102.941406 383.03125 102.929688 382.890625 C 102.917969 382.75 102.957031 382.621094 103.042969 382.507812 C 103.132812 382.398438 103.246094 382.332031 103.386719 382.308594 C 103.527344 382.285156 103.65625 382.316406 103.773438 382.394531 Z M 103.773438 382.394531 " fill-opacity="1" fill-rule="nonzero"/></g></g></g><g clip-path="url(#988abf01d4)"><path fill="#00bf63" d="M 126.773438 362.242188 C 134.417969 362.242188 140.621094 356.03125 140.621094 348.382812 C 140.621094 332.824219 124.933594 328.742188 114.246094 313.359375 C 104.136719 328.648438 87.867188 333.320312 87.867188 348.382812 C 87.867188 356.03125 94.070312 362.242188 101.714844 362.242188 C 107.261719 362.242188 112.035156 358.964844 114.246094 354.25 C 116.457031 358.964844 121.226562 362.242188 126.773438 362.242188 Z M 126.773438 362.242188 " fill-opacity="1" fill-rule="nonzero"/></g><g clip-path="url(#eecf8bbf6b)"><g clip-path="url(#84d3cd98fa)"><g clip-path="url(#71ca6323ed)"><path fill="#00bf63" d="M 103.773438 316.972656 C 103.796875 316.988281 103.816406 317.003906 103.835938 317.023438 C 115.914062 328.054688 119.335938 348.789062 111.796875 365.261719 C 111.730469 365.398438 111.628906 365.492188 111.492188 365.542969 C 111.351562 365.59375 111.214844 365.589844 111.078125 365.527344 C 110.941406 365.464844 110.847656 365.367188 110.796875 365.226562 C 110.742188 365.085938 110.75 364.949219 110.808594 364.8125 C 118.160156 348.75 114.847656 328.550781 103.105469 317.828125 C 103 317.730469 102.941406 317.613281 102.929688 317.46875 C 102.917969 317.328125 102.957031 317.203125 103.042969 317.089844 C 103.132812 316.976562 103.246094 316.910156 103.386719 316.886719 C 103.527344 316.867188 103.65625 316.894531 103.773438 316.972656 Z M 103.773438 316.972656 " fill-opacity="1" fill-rule="nonzero"/></g></g></g><g clip-path="url(#fa6735263a)"><path fill="#00bf63" d="M 126.773438 296.820312 C 134.417969 296.820312 140.621094 290.613281 140.621094 282.964844 C 140.621094 267.402344 124.933594 263.324219 114.246094 247.941406 C 104.136719 263.230469 87.867188 267.902344 87.867188 282.964844 C 87.867188 290.613281 94.070312 296.820312 101.714844 296.820312 C 107.261719 296.820312 112.035156 293.542969 114.246094 288.832031 C 116.457031 293.542969 121.226562 296.820312 126.773438 296.820312 Z M 126.773438 296.820312 " fill-opacity="1" fill-rule="nonzero"/></g><g clip-path="url(#c5db6ed83b)"><g clip-path="url(#08bcbfa62d)"><g clip-path="url(#ba9611c3a1)"><path fill="#00bf63" d="M 103.773438 251.554688 C 103.796875 251.570312 103.816406 251.585938 103.835938 251.601562 C 115.914062 262.632812 119.335938 283.371094 111.796875 299.839844 C 111.730469 299.976562 111.628906 300.070312 111.492188 300.125 C 111.351562 300.175781 111.214844 300.171875 111.078125 300.109375 C 110.941406 300.046875 110.847656 299.945312 110.796875 299.804688 C 110.742188 299.667969 110.75 299.527344 110.808594 299.390625 C 118.160156 283.332031 114.847656 263.132812 103.105469 252.40625 C 103 252.3125 102.941406 252.191406 102.929688 252.050781 C 102.917969 251.910156 102.957031 251.78125 103.042969 251.667969 C 103.132812 251.558594 103.246094 251.492188 103.386719 251.46875 C 103.527344 251.445312 103.65625 251.476562 103.773438 251.554688 Z M 103.773438 251.554688 " fill-opacity="1" fill-rule="nonzero"/></g></g></g><g clip-path="url(#647b05f012)"><path fill="#00bf63" d="M 126.773438 231.402344 C 134.417969 231.402344 140.621094 225.191406 140.621094 217.542969 C 140.621094 201.984375 124.933594 197.902344 114.246094 182.519531 C 104.136719 197.808594 87.867188 202.480469 87.867188 217.542969 C 87.867188 225.191406 94.070312 231.402344 101.714844 231.402344 C 107.261719 231.402344 112.035156 228.125 114.246094 223.410156 C 116.457031 228.125 121.226562 231.402344 126.773438 231.402344 Z M 126.773438 231.402344 " fill-opacity="1" fill-rule="nonzero"/></g><g clip-path="url(#089e89c3fa)"><g clip-path="url(#c0e33bde40)"><g clip-path="url(#a534b27348)"><path fill="#00bf63" d="M 103.773438 186.132812 C 103.796875 186.148438 103.816406 186.164062 103.835938 186.183594 C 115.914062 197.214844 119.335938 217.953125 111.796875 234.421875 C 111.730469 234.558594 111.628906 234.652344 111.492188 234.703125 C 111.351562 234.753906 111.214844 234.75 111.078125 234.6875 C 110.941406 234.625 110.847656 234.527344 110.796875 234.386719 C 110.742188 234.246094 110.75 234.109375 110.808594 233.972656 C 118.160156 217.914062 114.847656 197.714844 103.105469 186.988281 C 103 186.890625 102.941406 186.773438 102.929688 186.628906 C 102.917969 186.488281 102.957031 186.363281 103.042969 186.25 C 103.132812 186.136719 103.246094 186.070312 103.386719 186.046875 C 103.527344 186.027344 103.65625 186.054688 103.773438 186.132812 Z M 103.773438 186.132812 " fill-opacity="1" fill-rule="nonzero"/></g></g></g></svg>