<svg xmlns="http://www.w3.org/2000/svg" xmlns:xlink="http://www.w3.org/1999/xlink" width="480" zoomAndPan="magnify" viewBox="0 0 360 503.999982" height="672" preserveAspectRatio="xMidYMid meet" version="1.0"><defs><filter x="0%" y="0%" width="100%" height="100%" id="8fa9bf190b"><feColorMatrix values="0 0 0 0 1 0 0 0 0 1 0 0 0 0 1 0 0 0 1 0" color-interpolation-filters="sRGB"/></filter><g/><mask id="6363e22987"><g filter="url(#8fa9bf190b)"><rect x="-36" width="432" fill="#000000" y="-50.399998" height="604.799979" fill-opacity="0.1373"/></g></mask><clipPath id="80af83b15a"><path d="M 0 0 L 1 0 L 1 432.847656 L 0 432.847656 Z M 0 0 " clip-rule="nonzero"/></clipPath><clipPath id="62f53227e0"><path d="M 0 0 L 18 0 L 18 432.847656 L 0 432.847656 Z M 0 0 " clip-rule="nonzero"/></clipPath><clipPath id="d058861e25"><path d="M 0 0 L 35 0 L 35 432.847656 L 0 432.847656 Z M 0 0 " clip-rule="nonzero"/></clipPath><clipPath id="707eb80e50"><path d="M 0 0 L 53 0 L 53 432.847656 L 0 432.847656 Z M 0 0 " clip-rule="nonzero"/></clipPath><clipPath id="933e7d39d8"><path d="M 0 0 L 70 0 L 70 432.847656 L 0 432.847656 Z M 0 0 " clip-rule="nonzero"/></clipPath><clipPath id="c9c02894db"><path d="M 0 0 L 88 0 L 88 432.847656 L 0 432.847656 Z M 0 0 " clip-rule="nonzero"/></clipPath><clipPath id="2adc469cd3"><path d="M 0 0 L 105 0 L 105 432.847656 L 0 432.847656 Z M 0 0 " clip-rule="nonzero"/></clipPath><clipPath id="b59b94c441"><path d="M 0 0 L 122 0 L 122 432.847656 L 0 432.847656 Z M 0 0 " clip-rule="nonzero"/></clipPath><clipPath id="587a1639c3"><path d="M 0 0 L 140 0 L 140 432.847656 L 0 432.847656 Z M 0 0 " clip-rule="nonzero"/></clipPath><clipPath id="2fc79a5edd"><path d="M 0 0 L 157 0 L 157 432.847656 L 0 432.847656 Z M 0 0 " clip-rule="nonzero"/></clipPath><clipPath id="dfefba9079"><path d="M 0 0 L 175 0 L 175 432.847656 L 0 432.847656 Z M 0 0 " clip-rule="nonzero"/></clipPath><clipPath id="3870b5820f"><path d="M 0 0 L 192 0 L 192 432.847656 L 0 432.847656 Z M 0 0 " clip-rule="nonzero"/></clipPath><clipPath id="67528d17db"><path d="M 0 0 L 208.722656 0 L 208.722656 432.847656 L 0 432.847656 Z M 0 0 " clip-rule="nonzero"/></clipPath><clipPath id="a59750ef69"><rect x="0" width="209" y="0" height="434"/></clipPath><mask id="d3e481cd11"><g filter="url(#8fa9bf190b)"><rect x="-36" width="432" fill="#000000" y="-50.399998" height="604.799979" fill-opacity="0.1373"/></g></mask><clipPath id="89565473de"><path d="M 0.222656 1 L 122 1 L 122 501.648438 L 0.222656 501.648438 Z M 0.222656 1 " clip-rule="nonzero"/></clipPath><clipPath id="ac1ba0394b"><path d="M 17 1 L 122 1 L 122 501.648438 L 17 501.648438 Z M 17 1 " clip-rule="nonzero"/></clipPath><clipPath id="a2f0bd1be3"><path d="M 35 1 L 122 1 L 122 501.648438 L 35 501.648438 Z M 35 1 " clip-rule="nonzero"/></clipPath><clipPath id="377e2bc8db"><path d="M 52 1 L 122 1 L 122 501.648438 L 52 501.648438 Z M 52 1 " clip-rule="nonzero"/></clipPath><clipPath id="09405306ac"><path d="M 70 1 L 122 1 L 122 501.648438 L 70 501.648438 Z M 70 1 " clip-rule="nonzero"/></clipPath><clipPath id="56f7b34f90"><path d="M 87 1 L 122 1 L 122 501.648438 L 87 501.648438 Z M 87 1 " clip-rule="nonzero"/></clipPath><clipPath id="519742ea59"><path d="M 104 1 L 122 1 L 122 501.648438 L 104 501.648438 Z M 104 1 " clip-rule="nonzero"/></clipPath><clipPath id="330bc82816"><rect x="0" width="122" y="0" height="502"/></clipPath><mask id="451a1f4a69"><g filter="url(#8fa9bf190b)"><rect x="-36" width="432" fill="#000000" y="-50.399998" height="604.799979" fill-opacity="0.1373"/></g></mask><clipPath id="3321ca3239"><path d="M 0 1 L 197 1 L 197 501.648438 L 0 501.648438 Z M 0 1 " clip-rule="nonzero"/></clipPath><clipPath id="398357b753"><path d="M 0 1 L 214 1 L 214 501.648438 L 0 501.648438 Z M 0 1 " clip-rule="nonzero"/></clipPath><clipPath id="082468c217"><path d="M 12 1 L 232 1 L 232 501.648438 L 12 501.648438 Z M 12 1 " clip-rule="nonzero"/></clipPath><clipPath id="153aea4a24"><path d="M 29 1 L 249 1 L 249 501.648438 L 29 501.648438 Z M 29 1 " clip-rule="nonzero"/></clipPath><clipPath id="6d3bc7eef2"><path d="M 47 1 L 267 1 L 267 501.648438 L 47 501.648438 Z M 47 1 " clip-rule="nonzero"/></clipPath><clipPath id="c80f165a38"><path d="M 64 1 L 284 1 L 284 501.648438 L 64 501.648438 Z M 64 1 " clip-rule="nonzero"/></clipPath><clipPath id="3f024247d5"><path d="M 81 1 L 301 1 L 301 501.648438 L 81 501.648438 Z M 81 1 " clip-rule="nonzero"/></clipPath><clipPath id="fd786ab4de"><path d="M 99 1 L 319 1 L 319 501.648438 L 99 501.648438 Z M 99 1 " clip-rule="nonzero"/></clipPath><clipPath id="cb5f9a82e0"><path d="M 116 1 L 336 1 L 336 501.648438 L 116 501.648438 Z M 116 1 " clip-rule="nonzero"/></clipPath><clipPath id="35e71c7e22"><path d="M 134 1 L 354 1 L 354 501.648438 L 134 501.648438 Z M 134 1 " clip-rule="nonzero"/></clipPath><clipPath id="b91a28a570"><path d="M 151 1 L 360 1 L 360 501.648438 L 151 501.648438 Z M 151 1 " clip-rule="nonzero"/></clipPath><clipPath id="649224ce4a"><path d="M 168 1 L 360 1 L 360 501.648438 L 168 501.648438 Z M 168 1 " clip-rule="nonzero"/></clipPath><clipPath id="34f5221698"><path d="M 186 1 L 360 1 L 360 501.648438 L 186 501.648438 Z M 186 1 " clip-rule="nonzero"/></clipPath><clipPath id="c0c16ccbc2"><path d="M 203 1 L 360 1 L 360 501.648438 L 203 501.648438 Z M 203 1 " clip-rule="nonzero"/></clipPath><clipPath id="caadd88002"><path d="M 221 1 L 360 1 L 360 501.648438 L 221 501.648438 Z M 221 1 " clip-rule="nonzero"/></clipPath><clipPath id="d496611bce"><rect x="0" width="360" y="0" height="502"/></clipPath><clipPath id="f5fd98df69"><path d="M 28.015625 36 L 331.765625 36 L 331.765625 468 L 28.015625 468 Z M 28.015625 36 " clip-rule="nonzero"/></clipPath><clipPath id="cd0d6d595f"><path d="M 153.203125 116.976562 L 206 116.976562 L 206 165.855469 L 153.203125 165.855469 Z M 153.203125 116.976562 " clip-rule="nonzero"/></clipPath><clipPath id="b33e15b147"><path d="M 168 126 L 182 126 L 182 170 L 168 170 Z M 168 126 " clip-rule="nonzero"/></clipPath><clipPath id="f2e42d2e48"><path d="M 176.710938 169.644531 L 151.566406 152.652344 L 168.945312 126.933594 L 194.089844 143.921875 Z M 176.710938 169.644531 " clip-rule="nonzero"/></clipPath><clipPath id="ba5e44fa90"><path d="M 176.710938 169.644531 L 148.304688 150.449219 L 168.792969 120.121094 L 197.203125 139.316406 Z M 176.710938 169.644531 " clip-rule="nonzero"/></clipPath><clipPath id="d7cc28b395"><path d="M 221.613281 199.332031 L 274.429688 199.332031 L 274.429688 248.210938 L 221.613281 248.210938 Z M 221.613281 199.332031 " clip-rule="nonzero"/></clipPath><clipPath id="32af5feafc"><path d="M 236 209 L 250 209 L 250 252 L 236 252 Z M 236 209 " clip-rule="nonzero"/></clipPath><clipPath id="debaced516"><path d="M 245.121094 252 L 219.976562 235.007812 L 237.355469 209.289062 L 262.5 226.277344 Z M 245.121094 252 " clip-rule="nonzero"/></clipPath><clipPath id="1bda4b513b"><path d="M 245.121094 252 L 216.714844 232.804688 L 237.207031 202.476562 L 265.613281 221.671875 Z M 245.121094 252 " clip-rule="nonzero"/></clipPath><clipPath id="df81a27974"><path d="M 221.613281 290.171875 L 274.429688 290.171875 L 274.429688 339.050781 L 221.613281 339.050781 Z M 221.613281 290.171875 " clip-rule="nonzero"/></clipPath><clipPath id="83147175db"><path d="M 236 300 L 250 300 L 250 343 L 236 343 Z M 236 300 " clip-rule="nonzero"/></clipPath><clipPath id="478d6b4d72"><path d="M 245.121094 342.835938 L 219.976562 325.847656 L 237.355469 300.125 L 262.5 317.117188 Z M 245.121094 342.835938 " clip-rule="nonzero"/></clipPath><clipPath id="1b09306793"><path d="M 245.121094 342.835938 L 216.714844 323.640625 L 237.207031 293.316406 L 265.613281 312.507812 Z M 245.121094 342.835938 " clip-rule="nonzero"/></clipPath><clipPath id="312a0b7bca"><path d="M 222.839844 378.789062 L 275.65625 378.789062 L 275.65625 427.667969 L 222.839844 427.667969 Z M 222.839844 378.789062 " clip-rule="nonzero"/></clipPath><clipPath id="9738d66dc5"><path d="M 237 388 L 251 388 L 251 431 L 237 431 Z M 237 388 " clip-rule="nonzero"/></clipPath><clipPath id="7ffebff2a2"><path d="M 246.347656 431.453125 L 221.203125 414.464844 L 238.582031 388.742188 L 263.726562 405.730469 Z M 246.347656 431.453125 " clip-rule="nonzero"/></clipPath><clipPath id="9272a0fadf"><path d="M 246.347656 431.453125 L 217.941406 412.257812 L 238.429688 381.929688 L 266.839844 401.125 Z M 246.347656 431.453125 " clip-rule="nonzero"/></clipPath><clipPath id="30448f0b22"><path d="M 85.625 199.035156 L 138.441406 199.035156 L 138.441406 247.910156 L 85.625 247.910156 Z M 85.625 199.035156 " clip-rule="nonzero"/></clipPath><clipPath id="f0438e652b"><path d="M 100 208 L 114 208 L 114 252 L 100 252 Z M 100 208 " clip-rule="nonzero"/></clipPath><clipPath id="eb0a069cf1"><path d="M 109.132812 251.699219 L 83.988281 234.707031 L 101.367188 208.988281 L 126.511719 225.976562 Z M 109.132812 251.699219 " clip-rule="nonzero"/></clipPath><clipPath id="647f9026c8"><path d="M 109.132812 251.699219 L 80.726562 232.503906 L 101.214844 202.175781 L 129.625 221.371094 Z M 109.132812 251.699219 " clip-rule="nonzero"/></clipPath><clipPath id="6363e799f1"><path d="M 85.625 289.871094 L 138.441406 289.871094 L 138.441406 338.75 L 85.625 338.75 Z M 85.625 289.871094 " clip-rule="nonzero"/></clipPath><clipPath id="8761352304"><path d="M 100 299 L 114 299 L 114 343 L 100 343 Z M 100 299 " clip-rule="nonzero"/></clipPath><clipPath id="0df3411429"><path d="M 109.132812 342.535156 L 83.988281 325.546875 L 101.367188 299.824219 L 126.511719 316.816406 Z M 109.132812 342.535156 " clip-rule="nonzero"/></clipPath><clipPath id="6b69ef3ee2"><path d="M 109.132812 342.535156 L 80.726562 323.339844 L 101.214844 293.015625 L 129.625 312.207031 Z M 109.132812 342.535156 " clip-rule="nonzero"/></clipPath><clipPath id="474c723323"><path d="M 86.851562 378.488281 L 139.667969 378.488281 L 139.667969 427.367188 L 86.851562 427.367188 Z M 86.851562 378.488281 " clip-rule="nonzero"/></clipPath><clipPath id="a17a6906b1"><path d="M 101 388 L 115 388 L 115 431 L 101 431 Z M 101 388 " clip-rule="nonzero"/></clipPath><clipPath id="975640fd15"><path d="M 110.359375 431.152344 L 85.214844 414.164062 L 102.59375 388.441406 L 127.738281 405.429688 Z M 110.359375 431.152344 " clip-rule="nonzero"/></clipPath><clipPath id="ec9dfe4bf0"><path d="M 110.359375 431.152344 L 81.953125 411.957031 L 102.441406 381.628906 L 130.851562 400.824219 Z M 110.359375 431.152344 " clip-rule="nonzero"/></clipPath></defs><rect x="-36" width="432" fill="#ffffff" y="-50.399998" height="604.799979" fill-opacity="1"/><rect x="-36" width="432" fill="#ffffff" y="-50.399998" height="604.799979" fill-opacity="1"/><rect x="-36" width="432" fill="#323232" y="-50.399998" height="604.799979" fill-opacity="1"/><g mask="url(#6363e22987)"><g transform="matrix(1, 0, 0, 1, 0, 0)"><g clip-path="url(#a59750ef69)"><g clip-path="url(#80af83b15a)"><path fill="#000000" d="M -217.589844 432.296875 L -219.066406 431.664062 L -1.417969 -67.574219 L 0.0507812 -66.9375 Z M -217.589844 432.296875 " fill-opacity="1" fill-rule="nonzero"/></g><g clip-path="url(#62f53227e0)"><path fill="#000000" d="M -200.175781 432.296875 L -201.652344 431.664062 L 15.992188 -67.574219 L 17.460938 -66.9375 Z M -200.175781 432.296875 " fill-opacity="1" fill-rule="nonzero"/></g><g clip-path="url(#d058861e25)"><path fill="#000000" d="M -182.765625 432.296875 L -184.242188 431.664062 L 33.40625 -67.574219 L 34.875 -66.9375 Z M -182.765625 432.296875 " fill-opacity="1" fill-rule="nonzero"/></g><g clip-path="url(#707eb80e50)"><path fill="#000000" d="M -165.359375 432.296875 L -166.828125 431.664062 L 50.816406 -67.574219 L 52.289062 -66.9375 Z M -165.359375 432.296875 " fill-opacity="1" fill-rule="nonzero"/></g><g clip-path="url(#933e7d39d8)"><path fill="#000000" d="M -147.945312 432.296875 L -149.421875 431.664062 L 68.222656 -67.574219 L 69.699219 -66.9375 Z M -147.945312 432.296875 " fill-opacity="1" fill-rule="nonzero"/></g><g clip-path="url(#c9c02894db)"><path fill="#000000" d="M -130.535156 432.296875 L -132.011719 431.664062 L 85.636719 -67.574219 L 87.113281 -66.9375 Z M -130.535156 432.296875 " fill-opacity="1" fill-rule="nonzero"/></g><g clip-path="url(#2adc469cd3)"><path fill="#000000" d="M -113.121094 432.296875 L -114.597656 431.664062 L 103.050781 -67.574219 L 104.523438 -66.9375 Z M -113.121094 432.296875 " fill-opacity="1" fill-rule="nonzero"/></g><g clip-path="url(#b59b94c441)"><path fill="#000000" d="M -95.707031 432.296875 L -97.183594 431.664062 L 120.460938 -67.574219 L 121.929688 -66.9375 Z M -95.707031 432.296875 " fill-opacity="1" fill-rule="nonzero"/></g><g clip-path="url(#587a1639c3)"><path fill="#000000" d="M -78.304688 432.296875 L -79.773438 431.664062 L 137.875 -67.574219 L 139.34375 -66.9375 Z M -78.304688 432.296875 " fill-opacity="1" fill-rule="nonzero"/></g><g clip-path="url(#2fc79a5edd)"><path fill="#000000" d="M -60.890625 432.296875 L -62.359375 431.664062 L 155.28125 -67.574219 L 156.757812 -66.9375 Z M -60.890625 432.296875 " fill-opacity="1" fill-rule="nonzero"/></g><g clip-path="url(#dfefba9079)"><path fill="#000000" d="M -43.476562 432.296875 L -44.949219 431.664062 L 172.691406 -67.574219 L 174.167969 -66.9375 Z M -43.476562 432.296875 " fill-opacity="1" fill-rule="nonzero"/></g><g clip-path="url(#3870b5820f)"><path fill="#000000" d="M -26.066406 432.296875 L -27.535156 431.664062 L 190.105469 -67.574219 L 191.582031 -66.9375 Z M -26.066406 432.296875 " fill-opacity="1" fill-rule="nonzero"/></g><g clip-path="url(#67528d17db)"><path fill="#000000" d="M -8.652344 432.296875 L -10.128906 431.664062 L 207.515625 -67.574219 L 208.992188 -66.9375 Z M -8.652344 432.296875 " fill-opacity="1" fill-rule="nonzero"/></g></g></g></g><g mask="url(#d3e481cd11)"><g transform="matrix(1, 0, 0, 1, 238, 2)"><g clip-path="url(#330bc82816)"><g clip-path="url(#89565473de)"><path fill="#000000" d="M 1.832031 501.097656 L 0.363281 500.460938 L 218.003906 1.226562 L 219.480469 1.859375 Z M 1.832031 501.097656 " fill-opacity="1" fill-rule="nonzero"/></g><g clip-path="url(#ac1ba0394b)"><path fill="#000000" d="M 19.246094 501.097656 L 17.769531 500.460938 L 235.414062 1.226562 L 236.890625 1.859375 Z M 19.246094 501.097656 " fill-opacity="1" fill-rule="nonzero"/></g><g clip-path="url(#a2f0bd1be3)"><path fill="#000000" d="M 36.65625 501.097656 L 35.183594 500.460938 L 252.828125 1.226562 L 254.296875 1.859375 Z M 36.65625 501.097656 " fill-opacity="1" fill-rule="nonzero"/></g><g clip-path="url(#377e2bc8db)"><path fill="#000000" d="M 54.070312 501.097656 L 52.59375 500.460938 L 270.242188 1.226562 L 271.710938 1.859375 Z M 54.070312 501.097656 " fill-opacity="1" fill-rule="nonzero"/></g><g clip-path="url(#09405306ac)"><path fill="#000000" d="M 71.484375 501.097656 L 70.007812 500.460938 L 287.652344 1.226562 L 289.125 1.859375 Z M 71.484375 501.097656 " fill-opacity="1" fill-rule="nonzero"/></g><g clip-path="url(#56f7b34f90)"><path fill="#000000" d="M 88.890625 501.097656 L 87.417969 500.460938 L 305.066406 1.226562 L 306.535156 1.859375 Z M 88.890625 501.097656 " fill-opacity="1" fill-rule="nonzero"/></g><g clip-path="url(#519742ea59)"><path fill="#000000" d="M 106.300781 501.097656 L 104.824219 500.460938 L 322.472656 1.226562 L 323.949219 1.859375 Z M 106.300781 501.097656 " fill-opacity="1" fill-rule="nonzero"/></g></g></g></g><g mask="url(#451a1f4a69)"><g transform="matrix(1, 0, 0, 1, 0, 2)"><g clip-path="url(#d496611bce)"><g clip-path="url(#3321ca3239)"><path fill="#000000" d="M -21.167969 501.097656 L -22.636719 500.460938 L 195.003906 1.226562 L 196.480469 1.859375 Z M -21.167969 501.097656 " fill-opacity="1" fill-rule="nonzero"/></g><g clip-path="url(#398357b753)"><path fill="#000000" d="M -3.753906 501.097656 L -5.230469 500.460938 L 212.414062 1.226562 L 213.890625 1.859375 Z M -3.753906 501.097656 " fill-opacity="1" fill-rule="nonzero"/></g><g clip-path="url(#082468c217)"><path fill="#000000" d="M 13.65625 501.097656 L 12.183594 500.460938 L 229.828125 1.226562 L 231.296875 1.859375 Z M 13.65625 501.097656 " fill-opacity="1" fill-rule="nonzero"/></g><g clip-path="url(#153aea4a24)"><path fill="#000000" d="M 31.070312 501.097656 L 29.59375 500.460938 L 247.242188 1.226562 L 248.710938 1.859375 Z M 31.070312 501.097656 " fill-opacity="1" fill-rule="nonzero"/></g><g clip-path="url(#6d3bc7eef2)"><path fill="#000000" d="M 48.484375 501.097656 L 47.007812 500.460938 L 264.652344 1.226562 L 266.125 1.859375 Z M 48.484375 501.097656 " fill-opacity="1" fill-rule="nonzero"/></g><g clip-path="url(#c80f165a38)"><path fill="#000000" d="M 65.890625 501.097656 L 64.417969 500.460938 L 282.066406 1.226562 L 283.535156 1.859375 Z M 65.890625 501.097656 " fill-opacity="1" fill-rule="nonzero"/></g><g clip-path="url(#3f024247d5)"><path fill="#000000" d="M 83.300781 501.097656 L 81.824219 500.460938 L 299.472656 1.226562 L 300.949219 1.859375 Z M 83.300781 501.097656 " fill-opacity="1" fill-rule="nonzero"/></g><g clip-path="url(#fd786ab4de)"><path fill="#000000" d="M 100.714844 501.097656 L 99.238281 500.460938 L 316.882812 1.226562 L 318.359375 1.859375 Z M 100.714844 501.097656 " fill-opacity="1" fill-rule="nonzero"/></g><g clip-path="url(#cb5f9a82e0)"><path fill="#000000" d="M 118.125 501.097656 L 116.652344 500.460938 L 334.296875 1.226562 L 335.773438 1.859375 Z M 118.125 501.097656 " fill-opacity="1" fill-rule="nonzero"/></g><g clip-path="url(#35e71c7e22)"><path fill="#000000" d="M 135.539062 501.097656 L 134.0625 500.460938 L 351.710938 1.226562 L 353.179688 1.859375 Z M 135.539062 501.097656 " fill-opacity="1" fill-rule="nonzero"/></g><g clip-path="url(#b91a28a570)"><path fill="#000000" d="M 152.945312 501.097656 L 151.476562 500.460938 L 369.121094 1.226562 L 370.589844 1.859375 Z M 152.945312 501.097656 " fill-opacity="1" fill-rule="nonzero"/></g><g clip-path="url(#649224ce4a)"><path fill="#000000" d="M 170.359375 501.097656 L 168.886719 500.460938 L 386.527344 1.226562 L 388.003906 1.859375 Z M 170.359375 501.097656 " fill-opacity="1" fill-rule="nonzero"/></g><g clip-path="url(#34f5221698)"><path fill="#000000" d="M 187.769531 501.097656 L 186.300781 500.460938 L 403.941406 1.226562 L 405.417969 1.859375 Z M 187.769531 501.097656 " fill-opacity="1" fill-rule="nonzero"/></g><g clip-path="url(#c0c16ccbc2)"><path fill="#000000" d="M 205.183594 501.097656 L 203.710938 500.460938 L 421.351562 1.226562 L 422.828125 1.859375 Z M 205.183594 501.097656 " fill-opacity="1" fill-rule="nonzero"/></g><g clip-path="url(#caadd88002)"><path fill="#000000" d="M 222.59375 501.097656 L 221.117188 500.460938 L 438.765625 1.226562 L 440.242188 1.859375 Z M 222.59375 501.097656 " fill-opacity="1" fill-rule="nonzero"/></g></g></g></g><g clip-path="url(#f5fd98df69)"><path fill="#00bf63" d="M 331.601562 467.976562 L 28.1875 467.976562 L 28.1875 36 L 331.601562 36 Z M 29.066406 467.097656 L 330.722656 467.097656 L 330.722656 36.878906 L 29.066406 36.878906 Z M 29.066406 467.097656 " fill-opacity="1" fill-rule="nonzero"/></g><g fill="#00bf63" fill-opacity="1"><g transform="translate(44.874898, 95.039993)"><g><path d="M 31.484375 -42.847656 L 2.855469 -42.847656 L 2.855469 -40.800781 L 28.441406 -40.800781 L 6.582031 0 L 9.191406 0 L 31.484375 -41.730469 Z M 31.484375 -42.847656 "/></g></g></g><g clip-path="url(#cd0d6d595f)"><path fill="#00bf63" d="M 192.136719 165.851562 C 199.78125 165.851562 205.984375 159.644531 205.984375 151.996094 C 205.984375 136.433594 190.296875 132.355469 179.605469 116.972656 C 169.5 132.257812 153.230469 136.929688 153.230469 151.996094 C 153.230469 159.644531 159.433594 165.851562 167.078125 165.851562 C 172.625 165.851562 177.394531 162.574219 179.605469 157.863281 C 181.816406 162.574219 186.589844 165.851562 192.136719 165.851562 Z M 192.136719 165.851562 " fill-opacity="1" fill-rule="nonzero"/></g><g clip-path="url(#b33e15b147)"><g clip-path="url(#f2e42d2e48)"><g clip-path="url(#ba5e44fa90)"><path fill="#00bf63" d="M 169.136719 120.582031 C 169.160156 120.597656 169.179688 120.613281 169.199219 120.632812 C 181.277344 131.664062 184.695312 152.402344 177.15625 168.871094 C 177.09375 169.007812 176.992188 169.101562 176.851562 169.152344 C 176.714844 169.203125 176.574219 169.199219 176.441406 169.136719 C 176.304688 169.078125 176.210938 168.976562 176.160156 168.835938 C 176.105469 168.695312 176.109375 168.558594 176.171875 168.421875 C 183.523438 152.363281 180.210938 132.164062 168.464844 121.4375 C 168.363281 121.339844 168.304688 121.222656 168.292969 121.082031 C 168.28125 120.9375 168.320312 120.8125 168.40625 120.699219 C 168.496094 120.585938 168.609375 120.519531 168.75 120.5 C 168.890625 120.476562 169.019531 120.503906 169.136719 120.582031 Z M 169.136719 120.582031 " fill-opacity="1" fill-rule="nonzero"/></g></g></g><g clip-path="url(#d7cc28b395)"><path fill="#00bf63" d="M 260.546875 248.207031 C 268.191406 248.207031 274.394531 242 274.394531 234.351562 C 274.394531 218.789062 258.707031 214.710938 248.019531 199.328125 C 237.910156 214.613281 221.640625 219.285156 221.640625 234.351562 C 221.640625 242 227.84375 248.207031 235.488281 248.207031 C 241.035156 248.207031 245.808594 244.929688 248.019531 240.21875 C 250.230469 244.929688 255.003906 248.207031 260.546875 248.207031 Z M 260.546875 248.207031 " fill-opacity="1" fill-rule="nonzero"/></g><g clip-path="url(#32af5feafc)"><g clip-path="url(#debaced516)"><g clip-path="url(#1bda4b513b)"><path fill="#00bf63" d="M 237.546875 202.941406 C 237.570312 202.953125 237.589844 202.972656 237.609375 202.988281 C 249.6875 214.019531 253.109375 234.757812 245.570312 251.226562 C 245.507812 251.363281 245.40625 251.457031 245.265625 251.507812 C 245.125 251.5625 244.988281 251.554688 244.851562 251.492188 C 244.714844 251.433594 244.621094 251.332031 244.570312 251.191406 C 244.519531 251.050781 244.523438 250.914062 244.582031 250.777344 C 251.933594 234.71875 248.621094 214.519531 236.878906 203.792969 C 236.773438 203.695312 236.714844 203.578125 236.703125 203.4375 C 236.691406 203.292969 236.730469 203.167969 236.820312 203.054688 C 236.90625 202.945312 237.019531 202.875 237.160156 202.855469 C 237.300781 202.832031 237.429688 202.859375 237.546875 202.941406 Z M 237.546875 202.941406 " fill-opacity="1" fill-rule="nonzero"/></g></g></g><g clip-path="url(#df81a27974)"><path fill="#00bf63" d="M 260.546875 339.042969 C 268.191406 339.042969 274.394531 332.835938 274.394531 325.1875 C 274.394531 309.625 258.707031 305.546875 248.019531 290.164062 C 237.910156 305.453125 221.640625 310.125 221.640625 325.1875 C 221.640625 332.835938 227.84375 339.042969 235.488281 339.042969 C 241.035156 339.042969 245.808594 335.769531 248.019531 331.054688 C 250.230469 335.769531 255.003906 339.042969 260.546875 339.042969 Z M 260.546875 339.042969 " fill-opacity="1" fill-rule="nonzero"/></g><g clip-path="url(#83147175db)"><g clip-path="url(#478d6b4d72)"><g clip-path="url(#1b09306793)"><path fill="#00bf63" d="M 237.546875 293.777344 C 237.570312 293.792969 237.589844 293.808594 237.609375 293.828125 C 249.6875 304.855469 253.109375 325.59375 245.570312 342.066406 C 245.507812 342.199219 245.40625 342.292969 245.265625 342.347656 C 245.125 342.398438 244.988281 342.394531 244.851562 342.332031 C 244.714844 342.269531 244.621094 342.167969 244.570312 342.027344 C 244.519531 341.890625 244.523438 341.75 244.582031 341.613281 C 251.933594 325.554688 248.621094 305.355469 236.878906 294.628906 C 236.773438 294.535156 236.714844 294.414062 236.703125 294.273438 C 236.691406 294.132812 236.730469 294.003906 236.820312 293.894531 C 236.90625 293.78125 237.019531 293.714844 237.160156 293.691406 C 237.300781 293.667969 237.429688 293.699219 237.546875 293.777344 Z M 237.546875 293.777344 " fill-opacity="1" fill-rule="nonzero"/></g></g></g><g clip-path="url(#312a0b7bca)"><path fill="#00bf63" d="M 261.773438 427.660156 C 269.417969 427.660156 275.621094 421.453125 275.621094 413.804688 C 275.621094 398.242188 259.933594 394.164062 249.246094 378.78125 C 239.136719 394.070312 222.867188 398.742188 222.867188 413.804688 C 222.867188 421.453125 229.070312 427.660156 236.714844 427.660156 C 242.261719 427.660156 247.035156 424.382812 249.246094 419.671875 C 251.457031 424.382812 256.226562 427.660156 261.773438 427.660156 Z M 261.773438 427.660156 " fill-opacity="1" fill-rule="nonzero"/></g><g clip-path="url(#9738d66dc5)"><g clip-path="url(#7ffebff2a2)"><g clip-path="url(#9272a0fadf)"><path fill="#00bf63" d="M 238.773438 382.394531 C 238.796875 382.410156 238.816406 382.425781 238.835938 382.441406 C 250.914062 393.472656 254.335938 414.210938 246.796875 430.679688 C 246.730469 430.816406 246.628906 430.910156 246.492188 430.960938 C 246.351562 431.015625 246.214844 431.011719 246.078125 430.949219 C 245.941406 430.886719 245.847656 430.785156 245.796875 430.644531 C 245.742188 430.507812 245.75 430.367188 245.808594 430.230469 C 253.160156 414.171875 249.847656 393.972656 238.105469 383.246094 C 238 383.152344 237.941406 383.03125 237.929688 382.890625 C 237.917969 382.75 237.957031 382.621094 238.042969 382.507812 C 238.132812 382.398438 238.246094 382.332031 238.386719 382.308594 C 238.527344 382.285156 238.65625 382.3125 238.773438 382.394531 Z M 238.773438 382.394531 " fill-opacity="1" fill-rule="nonzero"/></g></g></g><g clip-path="url(#30448f0b22)"><path fill="#00bf63" d="M 124.558594 247.90625 C 132.203125 247.90625 138.40625 241.699219 138.40625 234.050781 C 138.40625 218.488281 122.71875 214.410156 112.03125 199.027344 C 101.921875 214.316406 85.652344 218.988281 85.652344 234.050781 C 85.652344 241.699219 91.855469 247.90625 99.5 247.90625 C 105.046875 247.90625 109.816406 244.628906 112.03125 239.917969 C 114.242188 244.628906 119.011719 247.90625 124.558594 247.90625 Z M 124.558594 247.90625 " fill-opacity="1" fill-rule="nonzero"/></g><g clip-path="url(#f0438e652b)"><g clip-path="url(#eb0a069cf1)"><g clip-path="url(#647f9026c8)"><path fill="#00bf63" d="M 101.558594 202.640625 C 101.582031 202.652344 101.601562 202.671875 101.621094 202.6875 C 113.699219 213.71875 117.121094 234.457031 109.582031 250.925781 C 109.515625 251.0625 109.414062 251.15625 109.277344 251.207031 C 109.136719 251.261719 109 251.253906 108.863281 251.195312 C 108.726562 251.132812 108.632812 251.03125 108.582031 250.890625 C 108.527344 250.75 108.535156 250.613281 108.59375 250.476562 C 115.945312 234.417969 112.632812 214.21875 100.890625 203.492188 C 100.785156 203.394531 100.726562 203.277344 100.714844 203.136719 C 100.703125 202.992188 100.742188 202.867188 100.828125 202.753906 C 100.917969 202.644531 101.03125 202.574219 101.171875 202.554688 C 101.3125 202.53125 101.441406 202.558594 101.558594 202.640625 Z M 101.558594 202.640625 " fill-opacity="1" fill-rule="nonzero"/></g></g></g><g clip-path="url(#6363e799f1)"><path fill="#00bf63" d="M 124.558594 338.742188 C 132.203125 338.742188 138.40625 332.535156 138.40625 324.886719 C 138.40625 309.328125 122.71875 305.246094 112.03125 289.863281 C 101.921875 305.152344 85.652344 309.824219 85.652344 324.886719 C 85.652344 332.535156 91.855469 338.742188 99.5 338.742188 C 105.046875 338.742188 109.816406 335.46875 112.03125 330.753906 C 114.242188 335.46875 119.011719 338.742188 124.558594 338.742188 Z M 124.558594 338.742188 " fill-opacity="1" fill-rule="nonzero"/></g><g clip-path="url(#8761352304)"><g clip-path="url(#0df3411429)"><g clip-path="url(#6b69ef3ee2)"><path fill="#00bf63" d="M 101.558594 293.476562 C 101.582031 293.492188 101.601562 293.507812 101.621094 293.527344 C 113.699219 304.554688 117.121094 325.292969 109.582031 341.765625 C 109.515625 341.898438 109.414062 341.992188 109.277344 342.046875 C 109.136719 342.097656 109 342.09375 108.863281 342.03125 C 108.726562 341.96875 108.632812 341.867188 108.582031 341.730469 C 108.527344 341.589844 108.535156 341.449219 108.59375 341.316406 C 115.945312 325.253906 112.632812 305.054688 100.890625 294.328125 C 100.785156 294.234375 100.726562 294.113281 100.714844 293.972656 C 100.703125 293.832031 100.742188 293.703125 100.828125 293.59375 C 100.917969 293.480469 101.03125 293.414062 101.171875 293.390625 C 101.3125 293.367188 101.441406 293.398438 101.558594 293.476562 Z M 101.558594 293.476562 " fill-opacity="1" fill-rule="nonzero"/></g></g></g><g clip-path="url(#474c723323)"><path fill="#00bf63" d="M 125.785156 427.359375 C 133.429688 427.359375 139.632812 421.152344 139.632812 413.503906 C 139.632812 397.941406 123.945312 393.863281 113.253906 378.480469 C 103.148438 393.769531 86.878906 398.441406 86.878906 413.503906 C 86.878906 421.152344 93.082031 427.359375 100.726562 427.359375 C 106.273438 427.359375 111.042969 424.085938 113.253906 419.371094 C 115.464844 424.085938 120.238281 427.359375 125.785156 427.359375 Z M 125.785156 427.359375 " fill-opacity="1" fill-rule="nonzero"/></g><g clip-path="url(#a17a6906b1)"><g clip-path="url(#975640fd15)"><g clip-path="url(#ec9dfe4bf0)"><path fill="#00bf63" d="M 102.785156 382.09375 C 102.808594 382.109375 102.828125 382.125 102.847656 382.140625 C 114.925781 393.171875 118.34375 413.910156 110.804688 430.382812 C 110.742188 430.515625 110.640625 430.609375 110.5 430.664062 C 110.363281 430.714844 110.222656 430.710938 110.089844 430.648438 C 109.953125 430.585938 109.859375 430.484375 109.804688 430.34375 C 109.753906 430.207031 109.757812 430.066406 109.820312 429.929688 C 117.171875 413.871094 113.859375 393.671875 102.113281 382.945312 C 102.011719 382.851562 101.953125 382.730469 101.941406 382.589844 C 101.929688 382.449219 101.96875 382.320312 102.054688 382.210938 C 102.144531 382.097656 102.257812 382.03125 102.398438 382.007812 C 102.539062 381.984375 102.667969 382.015625 102.785156 382.09375 Z M 102.785156 382.09375 " fill-opacity="1" fill-rule="nonzero"/></g></g></g></svg>