<svg xmlns="http://www.w3.org/2000/svg" xmlns:xlink="http://www.w3.org/1999/xlink" width="480" zoomAndPan="magnify" viewBox="0 0 360 503.999982" height="672" preserveAspectRatio="xMidYMid meet" version="1.0"><defs><filter x="0%" y="0%" width="100%" height="100%" id="4de160d4d3"><feColorMatrix values="0 0 0 0 1 0 0 0 0 1 0 0 0 0 1 0 0 0 1 0" color-interpolation-filters="sRGB"/></filter><mask id="216be8b9fa"><g filter="url(#4de160d4d3)"><rect x="-36" width="432" fill="#000000" y="-50.399998" height="604.799979" fill-opacity="0.1373"/></g></mask><clipPath id="6f27eb795d"><path d="M 0 0 L 1 0 L 1 432.847656 L 0 432.847656 Z M 0 0 " clip-rule="nonzero"/></clipPath><clipPath id="d5bb847dcc"><path d="M 0 0 L 18 0 L 18 432.847656 L 0 432.847656 Z M 0 0 " clip-rule="nonzero"/></clipPath><clipPath id="fe758c7f84"><path d="M 0 0 L 35 0 L 35 432.847656 L 0 432.847656 Z M 0 0 " clip-rule="nonzero"/></clipPath><clipPath id="d6acb219c8"><path d="M 0 0 L 53 0 L 53 432.847656 L 0 432.847656 Z M 0 0 " clip-rule="nonzero"/></clipPath><clipPath id="4921be7f24"><path d="M 0 0 L 70 0 L 70 432.847656 L 0 432.847656 Z M 0 0 " clip-rule="nonzero"/></clipPath><clipPath id="ea0b865cc3"><path d="M 0 0 L 88 0 L 88 432.847656 L 0 432.847656 Z M 0 0 " clip-rule="nonzero"/></clipPath><clipPath id="b03beac70a"><path d="M 0 0 L 105 0 L 105 432.847656 L 0 432.847656 Z M 0 0 " clip-rule="nonzero"/></clipPath><clipPath id="187ad9d6d0"><path d="M 0 0 L 122 0 L 122 432.847656 L 0 432.847656 Z M 0 0 " clip-rule="nonzero"/></clipPath><clipPath id="137a897a00"><path d="M 0 0 L 140 0 L 140 432.847656 L 0 432.847656 Z M 0 0 " clip-rule="nonzero"/></clipPath><clipPath id="00cb024945"><path d="M 0 0 L 157 0 L 157 432.847656 L 0 432.847656 Z M 0 0 " clip-rule="nonzero"/></clipPath><clipPath id="21e5a62ee6"><path d="M 0 0 L 175 0 L 175 432.847656 L 0 432.847656 Z M 0 0 " clip-rule="nonzero"/></clipPath><clipPath id="efa2b1d116"><path d="M 0 0 L 192 0 L 192 432.847656 L 0 432.847656 Z M 0 0 " clip-rule="nonzero"/></clipPath><clipPath id="fb71964122"><path d="M 0 0 L 208.722656 0 L 208.722656 432.847656 L 0 432.847656 Z M 0 0 " clip-rule="nonzero"/></clipPath><clipPath id="ab56d69cd8"><rect x="0" width="209" y="0" height="434"/></clipPath><mask id="ca83c9660c"><g filter="url(#4de160d4d3)"><rect x="-36" width="432" fill="#000000" y="-50.399998" height="604.799979" fill-opacity="0.1373"/></g></mask><clipPath id="d03efcd0e4"><path d="M 0 0.203125 L 197 0.203125 L 197 498 L 0 498 Z M 0 0.203125 " clip-rule="nonzero"/></clipPath><clipPath id="4acbded639"><path d="M 0 0.203125 L 214 0.203125 L 214 498 L 0 498 Z M 0 0.203125 " clip-rule="nonzero"/></clipPath><clipPath id="e5baaf3627"><path d="M 12 0.203125 L 232 0.203125 L 232 498 L 12 498 Z M 12 0.203125 " clip-rule="nonzero"/></clipPath><clipPath id="337a580221"><path d="M 29 0.203125 L 249 0.203125 L 249 498 L 29 498 Z M 29 0.203125 " clip-rule="nonzero"/></clipPath><clipPath id="0dfd9bf337"><path d="M 47 0.203125 L 267 0.203125 L 267 498 L 47 498 Z M 47 0.203125 " clip-rule="nonzero"/></clipPath><clipPath id="ccd78a892b"><path d="M 64 0.203125 L 284 0.203125 L 284 498 L 64 498 Z M 64 0.203125 " clip-rule="nonzero"/></clipPath><clipPath id="1543865761"><path d="M 81 0.203125 L 301 0.203125 L 301 498 L 81 498 Z M 81 0.203125 " clip-rule="nonzero"/></clipPath><clipPath id="07b5398d84"><path d="M 99 0.203125 L 319 0.203125 L 319 498 L 99 498 Z M 99 0.203125 " clip-rule="nonzero"/></clipPath><clipPath id="6a936aa78d"><path d="M 116 0.203125 L 336 0.203125 L 336 498 L 116 498 Z M 116 0.203125 " clip-rule="nonzero"/></clipPath><clipPath id="1129d2cfd3"><path d="M 134 0.203125 L 354 0.203125 L 354 498 L 134 498 Z M 134 0.203125 " clip-rule="nonzero"/></clipPath><clipPath id="36ecae7ae1"><path d="M 151 0.203125 L 360 0.203125 L 360 498 L 151 498 Z M 151 0.203125 " clip-rule="nonzero"/></clipPath><clipPath id="fb4b99ed85"><path d="M 168 0.203125 L 360 0.203125 L 360 498 L 168 498 Z M 168 0.203125 " clip-rule="nonzero"/></clipPath><clipPath id="d191770315"><path d="M 186 0.203125 L 360 0.203125 L 360 498 L 186 498 Z M 186 0.203125 " clip-rule="nonzero"/></clipPath><clipPath id="7a631cbf76"><path d="M 203 0.203125 L 360 0.203125 L 360 498 L 203 498 Z M 203 0.203125 " clip-rule="nonzero"/></clipPath><clipPath id="3c618d6087"><path d="M 221 0.203125 L 360 0.203125 L 360 498 L 221 498 Z M 221 0.203125 " clip-rule="nonzero"/></clipPath><clipPath id="0bca1dd1fe"><rect x="0" width="360" y="0" height="498"/></clipPath><mask id="efccf6d57f"><g filter="url(#4de160d4d3)"><rect x="-36" width="432" fill="#000000" y="-50.399998" height="604.799979" fill-opacity="0.1373"/></g></mask><clipPath id="cb40abbc2f"><path d="M 0.222656 1 L 122 1 L 122 501.648438 L 0.222656 501.648438 Z M 0.222656 1 " clip-rule="nonzero"/></clipPath><clipPath id="c44b5c7751"><path d="M 17 1 L 122 1 L 122 501.648438 L 17 501.648438 Z M 17 1 " clip-rule="nonzero"/></clipPath><clipPath id="239658ae9c"><path d="M 35 1 L 122 1 L 122 501.648438 L 35 501.648438 Z M 35 1 " clip-rule="nonzero"/></clipPath><clipPath id="5c80af629a"><path d="M 52 1 L 122 1 L 122 501.648438 L 52 501.648438 Z M 52 1 " clip-rule="nonzero"/></clipPath><clipPath id="65a546129a"><path d="M 70 1 L 122 1 L 122 501.648438 L 70 501.648438 Z M 70 1 " clip-rule="nonzero"/></clipPath><clipPath id="290d2f0919"><path d="M 87 1 L 122 1 L 122 501.648438 L 87 501.648438 Z M 87 1 " clip-rule="nonzero"/></clipPath><clipPath id="7c499319ce"><path d="M 104 1 L 122 1 L 122 501.648438 L 104 501.648438 Z M 104 1 " clip-rule="nonzero"/></clipPath><clipPath id="448b635df1"><rect x="0" width="122" y="0" height="502"/></clipPath><clipPath id="5be233753a"><path d="M 28.015625 36 L 331.765625 36 L 331.765625 468 L 28.015625 468 Z M 28.015625 36 " clip-rule="nonzero"/></clipPath><clipPath id="c6a1a09aa1"><path d="M 53.421875 104 L 101.285156 104 L 101.285156 109.089844 L 53.421875 109.089844 Z M 53.421875 104 " clip-rule="nonzero"/></clipPath><clipPath id="b9ab70d911"><path d="M 39.238281 65.40625 L 117.238281 65.40625 L 117.238281 105 L 39.238281 105 Z M 39.238281 65.40625 " clip-rule="nonzero"/></clipPath><clipPath id="a937f6816d"><path d="M 123.320312 198.515625 L 240.386719 198.515625 L 240.386719 306.855469 L 123.320312 306.855469 Z M 123.320312 198.515625 " clip-rule="nonzero"/></clipPath><clipPath id="ada1e2e4ca"><path d="M 156 220 L 186 220 L 186 315 L 156 315 Z M 156 220 " clip-rule="nonzero"/></clipPath><clipPath id="15f6978cc2"><path d="M 175.425781 315.246094 L 119.691406 277.589844 L 158.210938 220.578125 L 213.945312 258.238281 Z M 175.425781 315.246094 " clip-rule="nonzero"/></clipPath><clipPath id="7c8b42bf6a"><path d="M 175.425781 315.246094 L 112.460938 272.703125 L 157.878906 205.480469 L 220.84375 248.027344 Z M 175.425781 315.246094 " clip-rule="nonzero"/></clipPath></defs><rect x="-36" width="432" fill="#ffffff" y="-50.399998" height="604.799979" fill-opacity="1"/><rect x="-36" width="432" fill="#ffffff" y="-50.399998" height="604.799979" fill-opacity="1"/><rect x="-36" width="432" fill="#323232" y="-50.399998" height="604.799979" fill-opacity="1"/><g mask="url(#216be8b9fa)"><g transform="matrix(1, 0, 0, 1, 0, 0)"><g clip-path="url(#ab56d69cd8)"><g clip-path="url(#6f27eb795d)"><path fill="#000000" d="M -217.589844 432.296875 L -219.066406 431.664062 L -1.417969 -67.574219 L 0.0507812 -66.9375 Z M -217.589844 432.296875 " fill-opacity="1" fill-rule="nonzero"/></g><g clip-path="url(#d5bb847dcc)"><path fill="#000000" d="M -200.175781 432.296875 L -201.652344 431.664062 L 15.992188 -67.574219 L 17.460938 -66.9375 Z M -200.175781 432.296875 " fill-opacity="1" fill-rule="nonzero"/></g><g clip-path="url(#fe758c7f84)"><path fill="#000000" d="M -182.765625 432.296875 L -184.242188 431.664062 L 33.40625 -67.574219 L 34.875 -66.9375 Z M -182.765625 432.296875 " fill-opacity="1" fill-rule="nonzero"/></g><g clip-path="url(#d6acb219c8)"><path fill="#000000" d="M -165.359375 432.296875 L -166.828125 431.664062 L 50.816406 -67.574219 L 52.289062 -66.9375 Z M -165.359375 432.296875 " fill-opacity="1" fill-rule="nonzero"/></g><g clip-path="url(#4921be7f24)"><path fill="#000000" d="M -147.945312 432.296875 L -149.421875 431.664062 L 68.222656 -67.574219 L 69.699219 -66.9375 Z M -147.945312 432.296875 " fill-opacity="1" fill-rule="nonzero"/></g><g clip-path="url(#ea0b865cc3)"><path fill="#000000" d="M -130.535156 432.296875 L -132.011719 431.664062 L 85.636719 -67.574219 L 87.113281 -66.9375 Z M -130.535156 432.296875 " fill-opacity="1" fill-rule="nonzero"/></g><g clip-path="url(#b03beac70a)"><path fill="#000000" d="M -113.121094 432.296875 L -114.597656 431.664062 L 103.050781 -67.574219 L 104.523438 -66.9375 Z M -113.121094 432.296875 " fill-opacity="1" fill-rule="nonzero"/></g><g clip-path="url(#187ad9d6d0)"><path fill="#000000" d="M -95.707031 432.296875 L -97.183594 431.664062 L 120.460938 -67.574219 L 121.929688 -66.9375 Z M -95.707031 432.296875 " fill-opacity="1" fill-rule="nonzero"/></g><g clip-path="url(#137a897a00)"><path fill="#000000" d="M -78.304688 432.296875 L -79.773438 431.664062 L 137.875 -67.574219 L 139.34375 -66.9375 Z M -78.304688 432.296875 " fill-opacity="1" fill-rule="nonzero"/></g><g clip-path="url(#00cb024945)"><path fill="#000000" d="M -60.890625 432.296875 L -62.359375 431.664062 L 155.28125 -67.574219 L 156.757812 -66.9375 Z M -60.890625 432.296875 " fill-opacity="1" fill-rule="nonzero"/></g><g clip-path="url(#21e5a62ee6)"><path fill="#000000" d="M -43.476562 432.296875 L -44.949219 431.664062 L 172.691406 -67.574219 L 174.167969 -66.9375 Z M -43.476562 432.296875 " fill-opacity="1" fill-rule="nonzero"/></g><g clip-path="url(#efa2b1d116)"><path fill="#000000" d="M -26.066406 432.296875 L -27.535156 431.664062 L 190.105469 -67.574219 L 191.582031 -66.9375 Z M -26.066406 432.296875 " fill-opacity="1" fill-rule="nonzero"/></g><g clip-path="url(#fb71964122)"><path fill="#000000" d="M -8.652344 432.296875 L -10.128906 431.664062 L 207.515625 -67.574219 L 208.992188 -66.9375 Z M -8.652344 432.296875 " fill-opacity="1" fill-rule="nonzero"/></g></g></g></g><g mask="url(#ca83c9660c)"><g transform="matrix(1, 0, 0, 1, 0, 6)"><g clip-path="url(#0bca1dd1fe)"><g clip-path="url(#d03efcd0e4)"><path fill="#000000" d="M -21.167969 500.652344 L -22.636719 500.015625 L 195.003906 0.78125 L 196.480469 1.414062 Z M -21.167969 500.652344 " fill-opacity="1" fill-rule="nonzero"/></g><g clip-path="url(#4acbded639)"><path fill="#000000" d="M -3.753906 500.652344 L -5.230469 500.015625 L 212.414062 0.78125 L 213.890625 1.414062 Z M -3.753906 500.652344 " fill-opacity="1" fill-rule="nonzero"/></g><g clip-path="url(#e5baaf3627)"><path fill="#000000" d="M 13.65625 500.652344 L 12.183594 500.015625 L 229.828125 0.78125 L 231.296875 1.414062 Z M 13.65625 500.652344 " fill-opacity="1" fill-rule="nonzero"/></g><g clip-path="url(#337a580221)"><path fill="#000000" d="M 31.070312 500.652344 L 29.59375 500.015625 L 247.242188 0.78125 L 248.710938 1.414062 Z M 31.070312 500.652344 " fill-opacity="1" fill-rule="nonzero"/></g><g clip-path="url(#0dfd9bf337)"><path fill="#000000" d="M 48.484375 500.652344 L 47.007812 500.015625 L 264.652344 0.78125 L 266.125 1.414062 Z M 48.484375 500.652344 " fill-opacity="1" fill-rule="nonzero"/></g><g clip-path="url(#ccd78a892b)"><path fill="#000000" d="M 65.890625 500.652344 L 64.417969 500.015625 L 282.066406 0.78125 L 283.535156 1.414062 Z M 65.890625 500.652344 " fill-opacity="1" fill-rule="nonzero"/></g><g clip-path="url(#1543865761)"><path fill="#000000" d="M 83.300781 500.652344 L 81.824219 500.015625 L 299.472656 0.78125 L 300.949219 1.414062 Z M 83.300781 500.652344 " fill-opacity="1" fill-rule="nonzero"/></g><g clip-path="url(#07b5398d84)"><path fill="#000000" d="M 100.714844 500.652344 L 99.238281 500.015625 L 316.882812 0.78125 L 318.359375 1.414062 Z M 100.714844 500.652344 " fill-opacity="1" fill-rule="nonzero"/></g><g clip-path="url(#6a936aa78d)"><path fill="#000000" d="M 118.125 500.652344 L 116.652344 500.015625 L 334.296875 0.78125 L 335.773438 1.414062 Z M 118.125 500.652344 " fill-opacity="1" fill-rule="nonzero"/></g><g clip-path="url(#1129d2cfd3)"><path fill="#000000" d="M 135.539062 500.652344 L 134.0625 500.015625 L 351.710938 0.78125 L 353.179688 1.414062 Z M 135.539062 500.652344 " fill-opacity="1" fill-rule="nonzero"/></g><g clip-path="url(#36ecae7ae1)"><path fill="#000000" d="M 152.945312 500.652344 L 151.476562 500.015625 L 369.121094 0.78125 L 370.589844 1.414062 Z M 152.945312 500.652344 " fill-opacity="1" fill-rule="nonzero"/></g><g clip-path="url(#fb4b99ed85)"><path fill="#000000" d="M 170.359375 500.652344 L 168.886719 500.015625 L 386.527344 0.78125 L 388.003906 1.414062 Z M 170.359375 500.652344 " fill-opacity="1" fill-rule="nonzero"/></g><g clip-path="url(#d191770315)"><path fill="#000000" d="M 187.769531 500.652344 L 186.300781 500.015625 L 403.941406 0.78125 L 405.417969 1.414062 Z M 187.769531 500.652344 " fill-opacity="1" fill-rule="nonzero"/></g><g clip-path="url(#7a631cbf76)"><path fill="#000000" d="M 205.183594 500.652344 L 203.710938 500.015625 L 421.351562 0.78125 L 422.828125 1.414062 Z M 205.183594 500.652344 " fill-opacity="1" fill-rule="nonzero"/></g><g clip-path="url(#3c618d6087)"><path fill="#000000" d="M 222.59375 500.652344 L 221.117188 500.015625 L 438.765625 0.78125 L 440.242188 1.414062 Z M 222.59375 500.652344 " fill-opacity="1" fill-rule="nonzero"/></g></g></g></g><g mask="url(#efccf6d57f)"><g transform="matrix(1, 0, 0, 1, 238, 2)"><g clip-path="url(#448b635df1)"><g clip-path="url(#cb40abbc2f)"><path fill="#000000" d="M 1.832031 501.097656 L 0.363281 500.460938 L 218.003906 1.226562 L 219.480469 1.859375 Z M 1.832031 501.097656 " fill-opacity="1" fill-rule="nonzero"/></g><g clip-path="url(#c44b5c7751)"><path fill="#000000" d="M 19.246094 501.097656 L 17.769531 500.460938 L 235.414062 1.226562 L 236.890625 1.859375 Z M 19.246094 501.097656 " fill-opacity="1" fill-rule="nonzero"/></g><g clip-path="url(#239658ae9c)"><path fill="#000000" d="M 36.65625 501.097656 L 35.183594 500.460938 L 252.828125 1.226562 L 254.296875 1.859375 Z M 36.65625 501.097656 " fill-opacity="1" fill-rule="nonzero"/></g><g clip-path="url(#5c80af629a)"><path fill="#000000" d="M 54.070312 501.097656 L 52.59375 500.460938 L 270.242188 1.226562 L 271.710938 1.859375 Z M 54.070312 501.097656 " fill-opacity="1" fill-rule="nonzero"/></g><g clip-path="url(#65a546129a)"><path fill="#000000" d="M 71.484375 501.097656 L 70.007812 500.460938 L 287.652344 1.226562 L 289.125 1.859375 Z M 71.484375 501.097656 " fill-opacity="1" fill-rule="nonzero"/></g><g clip-path="url(#290d2f0919)"><path fill="#000000" d="M 88.890625 501.097656 L 87.417969 500.460938 L 305.066406 1.226562 L 306.535156 1.859375 Z M 88.890625 501.097656 " fill-opacity="1" fill-rule="nonzero"/></g><g clip-path="url(#7c499319ce)"><path fill="#000000" d="M 106.300781 501.097656 L 104.824219 500.460938 L 322.472656 1.226562 L 323.949219 1.859375 Z M 106.300781 501.097656 " fill-opacity="1" fill-rule="nonzero"/></g></g></g></g><g clip-path="url(#5be233753a)"><path fill="#00bf63" d="M 331.601562 467.976562 L 28.1875 467.976562 L 28.1875 36 L 331.601562 36 Z M 29.066406 467.097656 L 330.722656 467.097656 L 330.722656 36.878906 L 29.066406 36.878906 Z M 29.066406 467.097656 " fill-opacity="1" fill-rule="nonzero"/></g><g clip-path="url(#c6a1a09aa1)"><path fill="#00bf63" d="M 101.089844 107.011719 L 100.585938 109.089844 C 85.332031 105.34375 69.394531 105.34375 54.140625 109.089844 L 53.636719 107.011719 C 69.222656 103.179688 85.511719 103.179688 101.097656 107.011719 L 101.089844 107.011719 " fill-opacity="1" fill-rule="nonzero"/></g><g clip-path="url(#b9ab70d911)"><path fill="#00bf63" d="M 42.148438 78.082031 C 46.449219 83.925781 52.238281 88.515625 58.90625 91.375 C 57.984375 86.828125 57.527344 82.1875 57.542969 77.542969 C 56.488281 77.785156 55.4375 77.128906 55.195312 76.074219 C 54.953125 75.015625 55.601562 73.972656 56.660156 73.730469 C 57.714844 73.480469 58.765625 74.136719 59.007812 75.195312 C 59.222656 76.125 58.730469 77.078125 57.847656 77.4375 C 60.429688 81.828125 63.648438 85.808594 67.414062 89.234375 C 71.863281 83.96875 75.429688 78.019531 77.988281 71.617188 C 76.273438 71.472656 75.003906 69.960938 75.152344 68.253906 C 75.296875 66.535156 76.804688 65.269531 78.515625 65.414062 C 80.226562 65.558594 81.5 67.070312 81.355469 68.777344 C 81.222656 70.289062 80.027344 71.484375 78.515625 71.617188 C 81.070312 78.019531 84.644531 83.96875 89.089844 89.234375 C 92.851562 85.808594 96.078125 81.828125 98.652344 77.4375 C 97.65625 77.023438 97.191406 75.875 97.609375 74.878906 C 98.023438 73.882812 99.171875 73.417969 100.167969 73.832031 C 101.167969 74.246094 101.636719 75.398438 101.222656 76.394531 C 100.847656 77.28125 99.894531 77.765625 98.957031 77.542969 C 98.972656 82.1875 98.515625 86.828125 97.585938 91.375 C 104.261719 88.515625 110.042969 83.925781 114.351562 78.082031 C 113.402344 77.558594 113.0625 76.367188 113.582031 75.417969 C 114.109375 74.476562 115.300781 74.128906 116.25 74.65625 C 117.191406 75.183594 117.535156 76.375 117.011719 77.316406 C 116.527344 78.195312 115.460938 78.5625 114.539062 78.171875 L 102.910156 104.695312 C 86.707031 100.707031 69.785156 100.707031 53.585938 104.695312 L 41.960938 78.171875 C 40.964844 78.59375 39.8125 78.125 39.390625 77.128906 C 38.976562 76.132812 39.441406 74.988281 40.4375 74.566406 C 41.433594 74.144531 42.582031 74.613281 43 75.613281 C 43.394531 76.53125 43.019531 77.597656 42.148438 78.082031 " fill-opacity="1" fill-rule="nonzero"/></g><g clip-path="url(#a937f6816d)"><path fill="#00bf63" d="M 209.617188 306.84375 C 226.558594 306.84375 240.3125 293.082031 240.3125 276.128906 C 240.3125 241.636719 205.539062 232.59375 181.84375 198.5 C 159.445312 232.386719 123.378906 242.742188 123.378906 276.128906 C 123.378906 293.082031 137.132812 306.84375 154.074219 306.84375 C 166.367188 306.84375 176.945312 299.582031 181.84375 289.132812 C 186.746094 299.582031 197.324219 306.84375 209.617188 306.84375 Z M 209.617188 306.84375 " fill-opacity="1" fill-rule="nonzero"/></g><g clip-path="url(#ada1e2e4ca)"><g clip-path="url(#15f6978cc2)"><g clip-path="url(#7c8b42bf6a)"><path fill="#00bf63" d="M 158.636719 206.507812 C 158.6875 206.539062 158.734375 206.578125 158.777344 206.617188 C 185.542969 231.0625 193.128906 277.03125 176.417969 313.539062 C 176.351562 313.683594 176.257812 313.808594 176.140625 313.917969 C 176.023438 314.023438 175.890625 314.105469 175.742188 314.160156 C 175.59375 314.214844 175.4375 314.242188 175.28125 314.234375 C 175.121094 314.230469 174.96875 314.195312 174.824219 314.128906 C 174.683594 314.0625 174.554688 313.972656 174.449219 313.855469 C 174.339844 313.738281 174.257812 313.605469 174.203125 313.457031 C 174.144531 313.308594 174.121094 313.15625 174.125 312.996094 C 174.132812 312.835938 174.167969 312.6875 174.234375 312.539062 C 190.527344 276.945312 183.183594 232.171875 157.152344 208.394531 C 156.921875 208.183594 156.792969 207.921875 156.765625 207.605469 C 156.742188 207.292969 156.824219 207.011719 157.019531 206.765625 C 157.214844 206.515625 157.46875 206.367188 157.78125 206.316406 C 158.089844 206.269531 158.378906 206.332031 158.636719 206.507812 Z M 158.636719 206.507812 " fill-opacity="1" fill-rule="nonzero"/></g></g></g></svg>