<svg xmlns="http://www.w3.org/2000/svg" xmlns:xlink="http://www.w3.org/1999/xlink" width="480" zoomAndPan="magnify" viewBox="0 0 360 503.999982" height="672" preserveAspectRatio="xMidYMid meet" version="1.0"><defs><filter x="0%" y="0%" width="100%" height="100%" id="6ceea5e138"><feColorMatrix values="0 0 0 0 1 0 0 0 0 1 0 0 0 0 1 0 0 0 1 0" color-interpolation-filters="sRGB"/></filter><g/><mask id="e876bf002b"><g filter="url(#6ceea5e138)"><rect x="-36" width="432" fill="#000000" y="-50.399998" height="604.799979" fill-opacity="0.1373"/></g></mask><clipPath id="d90bb98c5f"><path d="M 0 0 L 1 0 L 1 432.847656 L 0 432.847656 Z M 0 0 " clip-rule="nonzero"/></clipPath><clipPath id="c1a3d41058"><path d="M 0 0 L 18 0 L 18 432.847656 L 0 432.847656 Z M 0 0 " clip-rule="nonzero"/></clipPath><clipPath id="06cf90fef1"><path d="M 0 0 L 35 0 L 35 432.847656 L 0 432.847656 Z M 0 0 " clip-rule="nonzero"/></clipPath><clipPath id="c0117be452"><path d="M 0 0 L 53 0 L 53 432.847656 L 0 432.847656 Z M 0 0 " clip-rule="nonzero"/></clipPath><clipPath id="6a8021bb3c"><path d="M 0 0 L 70 0 L 70 432.847656 L 0 432.847656 Z M 0 0 " clip-rule="nonzero"/></clipPath><clipPath id="672abc24c9"><path d="M 0 0 L 88 0 L 88 432.847656 L 0 432.847656 Z M 0 0 " clip-rule="nonzero"/></clipPath><clipPath id="fc537d5d85"><path d="M 0 0 L 105 0 L 105 432.847656 L 0 432.847656 Z M 0 0 " clip-rule="nonzero"/></clipPath><clipPath id="b15e783af2"><path d="M 0 0 L 122 0 L 122 432.847656 L 0 432.847656 Z M 0 0 " clip-rule="nonzero"/></clipPath><clipPath id="f162cf1590"><path d="M 0 0 L 140 0 L 140 432.847656 L 0 432.847656 Z M 0 0 " clip-rule="nonzero"/></clipPath><clipPath id="a1c6272c3a"><path d="M 0 0 L 157 0 L 157 432.847656 L 0 432.847656 Z M 0 0 " clip-rule="nonzero"/></clipPath><clipPath id="0d7c648b7f"><path d="M 0 0 L 175 0 L 175 432.847656 L 0 432.847656 Z M 0 0 " clip-rule="nonzero"/></clipPath><clipPath id="4307acf0d3"><path d="M 0 0 L 192 0 L 192 432.847656 L 0 432.847656 Z M 0 0 " clip-rule="nonzero"/></clipPath><clipPath id="10eaa0355e"><path d="M 0 0 L 208.722656 0 L 208.722656 432.847656 L 0 432.847656 Z M 0 0 " clip-rule="nonzero"/></clipPath><clipPath id="3d51851495"><rect x="0" width="209" y="0" height="434"/></clipPath><mask id="48d7b380ce"><g filter="url(#6ceea5e138)"><rect x="-36" width="432" fill="#000000" y="-50.399998" height="604.799979" fill-opacity="0.1373"/></g></mask><clipPath id="8208342d86"><path d="M 0.222656 1 L 122 1 L 122 501.648438 L 0.222656 501.648438 Z M 0.222656 1 " clip-rule="nonzero"/></clipPath><clipPath id="9f06f41f78"><path d="M 17 1 L 122 1 L 122 501.648438 L 17 501.648438 Z M 17 1 " clip-rule="nonzero"/></clipPath><clipPath id="0325625fa3"><path d="M 35 1 L 122 1 L 122 501.648438 L 35 501.648438 Z M 35 1 " clip-rule="nonzero"/></clipPath><clipPath id="506bd3d76e"><path d="M 52 1 L 122 1 L 122 501.648438 L 52 501.648438 Z M 52 1 " clip-rule="nonzero"/></clipPath><clipPath id="ace0c62ae3"><path d="M 70 1 L 122 1 L 122 501.648438 L 70 501.648438 Z M 70 1 " clip-rule="nonzero"/></clipPath><clipPath id="41a2220d83"><path d="M 87 1 L 122 1 L 122 501.648438 L 87 501.648438 Z M 87 1 " clip-rule="nonzero"/></clipPath><clipPath id="1784b67b84"><path d="M 104 1 L 122 1 L 122 501.648438 L 104 501.648438 Z M 104 1 " clip-rule="nonzero"/></clipPath><clipPath id="1a41fabb87"><rect x="0" width="122" y="0" height="502"/></clipPath><mask id="9b72af9da4"><g filter="url(#6ceea5e138)"><rect x="-36" width="432" fill="#000000" y="-50.399998" height="604.799979" fill-opacity="0.1373"/></g></mask><clipPath id="be18d7dded"><path d="M 0 1 L 197 1 L 197 501.648438 L 0 501.648438 Z M 0 1 " clip-rule="nonzero"/></clipPath><clipPath id="b852d249ea"><path d="M 0 1 L 214 1 L 214 501.648438 L 0 501.648438 Z M 0 1 " clip-rule="nonzero"/></clipPath><clipPath id="4afd8baa8d"><path d="M 12 1 L 232 1 L 232 501.648438 L 12 501.648438 Z M 12 1 " clip-rule="nonzero"/></clipPath><clipPath id="ca8a543a47"><path d="M 29 1 L 249 1 L 249 501.648438 L 29 501.648438 Z M 29 1 " clip-rule="nonzero"/></clipPath><clipPath id="7017d9b7bf"><path d="M 47 1 L 267 1 L 267 501.648438 L 47 501.648438 Z M 47 1 " clip-rule="nonzero"/></clipPath><clipPath id="048ca9ecee"><path d="M 64 1 L 284 1 L 284 501.648438 L 64 501.648438 Z M 64 1 " clip-rule="nonzero"/></clipPath><clipPath id="f79126e2d2"><path d="M 81 1 L 301 1 L 301 501.648438 L 81 501.648438 Z M 81 1 " clip-rule="nonzero"/></clipPath><clipPath id="551b61171b"><path d="M 99 1 L 319 1 L 319 501.648438 L 99 501.648438 Z M 99 1 " clip-rule="nonzero"/></clipPath><clipPath id="d654fd109b"><path d="M 116 1 L 336 1 L 336 501.648438 L 116 501.648438 Z M 116 1 " clip-rule="nonzero"/></clipPath><clipPath id="049d2d0350"><path d="M 134 1 L 354 1 L 354 501.648438 L 134 501.648438 Z M 134 1 " clip-rule="nonzero"/></clipPath><clipPath id="f60333465b"><path d="M 151 1 L 360 1 L 360 501.648438 L 151 501.648438 Z M 151 1 " clip-rule="nonzero"/></clipPath><clipPath id="b6b9bce1dc"><path d="M 168 1 L 360 1 L 360 501.648438 L 168 501.648438 Z M 168 1 " clip-rule="nonzero"/></clipPath><clipPath id="6ac75ec700"><path d="M 186 1 L 360 1 L 360 501.648438 L 186 501.648438 Z M 186 1 " clip-rule="nonzero"/></clipPath><clipPath id="964174fd55"><path d="M 203 1 L 360 1 L 360 501.648438 L 203 501.648438 Z M 203 1 " clip-rule="nonzero"/></clipPath><clipPath id="47564a9600"><path d="M 221 1 L 360 1 L 360 501.648438 L 221 501.648438 Z M 221 1 " clip-rule="nonzero"/></clipPath><clipPath id="21492918a4"><rect x="0" width="360" y="0" height="502"/></clipPath><clipPath id="0f2e3b5bb4"><path d="M 28.015625 36 L 331.765625 36 L 331.765625 468 L 28.015625 468 Z M 28.015625 36 " clip-rule="nonzero"/></clipPath><clipPath id="e5ecd845a9"><path d="M 222.839844 378.488281 L 275.65625 378.488281 L 275.65625 427.367188 L 222.839844 427.367188 Z M 222.839844 378.488281 " clip-rule="nonzero"/></clipPath><clipPath id="0071b18e72"><path d="M 237 388 L 251 388 L 251 431 L 237 431 Z M 237 388 " clip-rule="nonzero"/></clipPath><clipPath id="cad0f9cbc5"><path d="M 246.347656 431.152344 L 221.203125 414.164062 L 238.582031 388.441406 L 263.726562 405.429688 Z M 246.347656 431.152344 " clip-rule="nonzero"/></clipPath><clipPath id="40913a7b2a"><path d="M 246.347656 431.152344 L 217.941406 411.957031 L 238.429688 381.628906 L 266.839844 400.824219 Z M 246.347656 431.152344 " clip-rule="nonzero"/></clipPath><clipPath id="554eaf2e37"><path d="M 222.839844 290.472656 L 275.65625 290.472656 L 275.65625 339.351562 L 222.839844 339.351562 Z M 222.839844 290.472656 " clip-rule="nonzero"/></clipPath><clipPath id="62d0655d17"><path d="M 237 300 L 251 300 L 251 343 L 237 343 Z M 237 300 " clip-rule="nonzero"/></clipPath><clipPath id="0b7fa22675"><path d="M 246.347656 343.136719 L 221.203125 326.148438 L 238.582031 300.425781 L 263.726562 317.414062 Z M 246.347656 343.136719 " clip-rule="nonzero"/></clipPath><clipPath id="4dd81cb2bf"><path d="M 246.347656 343.136719 L 217.941406 323.941406 L 238.429688 293.613281 L 266.839844 312.808594 Z M 246.347656 343.136719 " clip-rule="nonzero"/></clipPath><clipPath id="6a523d0df7"><path d="M 222.839844 201.855469 L 275.65625 201.855469 L 275.65625 250.734375 L 222.839844 250.734375 Z M 222.839844 201.855469 " clip-rule="nonzero"/></clipPath><clipPath id="70adc49bd4"><path d="M 237 211 L 251 211 L 251 255 L 237 255 Z M 237 211 " clip-rule="nonzero"/></clipPath><clipPath id="8e957653f5"><path d="M 246.347656 254.519531 L 221.203125 237.53125 L 238.582031 211.808594 L 263.726562 228.800781 Z M 246.347656 254.519531 " clip-rule="nonzero"/></clipPath><clipPath id="959034cbe4"><path d="M 246.347656 254.519531 L 217.941406 235.324219 L 238.429688 205 L 266.839844 224.191406 Z M 246.347656 254.519531 " clip-rule="nonzero"/></clipPath><clipPath id="0a147ef6a2"><path d="M 222.839844 113.183594 L 275.65625 113.183594 L 275.65625 162.0625 L 222.839844 162.0625 Z M 222.839844 113.183594 " clip-rule="nonzero"/></clipPath><clipPath id="5c4c5b7b85"><path d="M 237 123 L 251 123 L 251 166 L 237 166 Z M 237 123 " clip-rule="nonzero"/></clipPath><clipPath id="1129b2cad0"><path d="M 246.347656 165.851562 L 221.203125 148.859375 L 238.582031 123.140625 L 263.726562 140.128906 Z M 246.347656 165.851562 " clip-rule="nonzero"/></clipPath><clipPath id="978ce945de"><path d="M 246.347656 165.851562 L 217.941406 146.65625 L 238.429688 116.328125 L 266.839844 135.523438 Z M 246.347656 165.851562 " clip-rule="nonzero"/></clipPath><clipPath id="b57414d5ac"><path d="M 86.238281 378.488281 L 139.054688 378.488281 L 139.054688 427.367188 L 86.238281 427.367188 Z M 86.238281 378.488281 " clip-rule="nonzero"/></clipPath><clipPath id="19a7516746"><path d="M 101 388 L 115 388 L 115 431 L 101 431 Z M 101 388 " clip-rule="nonzero"/></clipPath><clipPath id="29fcf656c2"><path d="M 109.746094 431.152344 L 84.601562 414.164062 L 101.980469 388.441406 L 127.125 405.429688 Z M 109.746094 431.152344 " clip-rule="nonzero"/></clipPath><clipPath id="399e3bf692"><path d="M 109.746094 431.152344 L 81.339844 411.957031 L 101.828125 381.628906 L 130.238281 400.824219 Z M 109.746094 431.152344 " clip-rule="nonzero"/></clipPath><clipPath id="023e2c3522"><path d="M 86.238281 290.472656 L 139.054688 290.472656 L 139.054688 339.351562 L 86.238281 339.351562 Z M 86.238281 290.472656 " clip-rule="nonzero"/></clipPath><clipPath id="72a851c797"><path d="M 101 300 L 115 300 L 115 343 L 101 343 Z M 101 300 " clip-rule="nonzero"/></clipPath><clipPath id="7957252203"><path d="M 109.746094 343.136719 L 84.601562 326.148438 L 101.980469 300.425781 L 127.125 317.414062 Z M 109.746094 343.136719 " clip-rule="nonzero"/></clipPath><clipPath id="16eaa955de"><path d="M 109.746094 343.136719 L 81.339844 323.941406 L 101.828125 293.613281 L 130.238281 312.808594 Z M 109.746094 343.136719 " clip-rule="nonzero"/></clipPath><clipPath id="ee6e5cc218"><path d="M 86.238281 201.855469 L 139.054688 201.855469 L 139.054688 250.734375 L 86.238281 250.734375 Z M 86.238281 201.855469 " clip-rule="nonzero"/></clipPath><clipPath id="3c3b7f3a37"><path d="M 101 211 L 115 211 L 115 255 L 101 255 Z M 101 211 " clip-rule="nonzero"/></clipPath><clipPath id="f3af55a0f0"><path d="M 109.746094 254.519531 L 84.601562 237.53125 L 101.980469 211.808594 L 127.125 228.800781 Z M 109.746094 254.519531 " clip-rule="nonzero"/></clipPath><clipPath id="3bcbc16145"><path d="M 109.746094 254.519531 L 81.339844 235.324219 L 101.828125 205 L 130.238281 224.191406 Z M 109.746094 254.519531 " clip-rule="nonzero"/></clipPath><clipPath id="dac9b953e3"><path d="M 86.238281 113.183594 L 139.054688 113.183594 L 139.054688 162.0625 L 86.238281 162.0625 Z M 86.238281 113.183594 " clip-rule="nonzero"/></clipPath><clipPath id="e55288482b"><path d="M 101 123 L 115 123 L 115 166 L 101 166 Z M 101 123 " clip-rule="nonzero"/></clipPath><clipPath id="b72a34bce5"><path d="M 109.746094 165.851562 L 84.601562 148.859375 L 101.980469 123.140625 L 127.125 140.128906 Z M 109.746094 165.851562 " clip-rule="nonzero"/></clipPath><clipPath id="c33a23b629"><path d="M 109.746094 165.851562 L 81.339844 146.65625 L 101.828125 116.328125 L 130.238281 135.523438 Z M 109.746094 165.851562 " clip-rule="nonzero"/></clipPath></defs><rect x="-36" width="432" fill="#ffffff" y="-50.399998" height="604.799979" fill-opacity="1"/><rect x="-36" width="432" fill="#323232" y="-50.399998" height="604.799979" fill-opacity="1"/><g mask="url(#e876bf002b)"><g transform="matrix(1, 0, 0, 1, 0, 0)"><g clip-path="url(#3d51851495)"><g clip-path="url(#d90bb98c5f)"><path fill="#000000" d="M -217.589844 432.296875 L -219.066406 431.664062 L -1.417969 -67.574219 L 0.0507812 -66.9375 Z M -217.589844 432.296875 " fill-opacity="1" fill-rule="nonzero"/></g><g clip-path="url(#c1a3d41058)"><path fill="#000000" d="M -200.175781 432.296875 L -201.652344 431.664062 L 15.992188 -67.574219 L 17.460938 -66.9375 Z M -200.175781 432.296875 " fill-opacity="1" fill-rule="nonzero"/></g><g clip-path="url(#06cf90fef1)"><path fill="#000000" d="M -182.765625 432.296875 L -184.242188 431.664062 L 33.40625 -67.574219 L 34.875 -66.9375 Z M -182.765625 432.296875 " fill-opacity="1" fill-rule="nonzero"/></g><g clip-path="url(#c0117be452)"><path fill="#000000" d="M -165.359375 432.296875 L -166.828125 431.664062 L 50.816406 -67.574219 L 52.289062 -66.9375 Z M -165.359375 432.296875 " fill-opacity="1" fill-rule="nonzero"/></g><g clip-path="url(#6a8021bb3c)"><path fill="#000000" d="M -147.945312 432.296875 L -149.421875 431.664062 L 68.222656 -67.574219 L 69.699219 -66.9375 Z M -147.945312 432.296875 " fill-opacity="1" fill-rule="nonzero"/></g><g clip-path="url(#672abc24c9)"><path fill="#000000" d="M -130.535156 432.296875 L -132.011719 431.664062 L 85.636719 -67.574219 L 87.113281 -66.9375 Z M -130.535156 432.296875 " fill-opacity="1" fill-rule="nonzero"/></g><g clip-path="url(#fc537d5d85)"><path fill="#000000" d="M -113.121094 432.296875 L -114.597656 431.664062 L 103.050781 -67.574219 L 104.523438 -66.9375 Z M -113.121094 432.296875 " fill-opacity="1" fill-rule="nonzero"/></g><g clip-path="url(#b15e783af2)"><path fill="#000000" d="M -95.707031 432.296875 L -97.183594 431.664062 L 120.460938 -67.574219 L 121.929688 -66.9375 Z M -95.707031 432.296875 " fill-opacity="1" fill-rule="nonzero"/></g><g clip-path="url(#f162cf1590)"><path fill="#000000" d="M -78.304688 432.296875 L -79.773438 431.664062 L 137.875 -67.574219 L 139.34375 -66.9375 Z M -78.304688 432.296875 " fill-opacity="1" fill-rule="nonzero"/></g><g clip-path="url(#a1c6272c3a)"><path fill="#000000" d="M -60.890625 432.296875 L -62.359375 431.664062 L 155.28125 -67.574219 L 156.757812 -66.9375 Z M -60.890625 432.296875 " fill-opacity="1" fill-rule="nonzero"/></g><g clip-path="url(#0d7c648b7f)"><path fill="#000000" d="M -43.476562 432.296875 L -44.949219 431.664062 L 172.691406 -67.574219 L 174.167969 -66.9375 Z M -43.476562 432.296875 " fill-opacity="1" fill-rule="nonzero"/></g><g clip-path="url(#4307acf0d3)"><path fill="#000000" d="M -26.066406 432.296875 L -27.535156 431.664062 L 190.105469 -67.574219 L 191.582031 -66.9375 Z M -26.066406 432.296875 " fill-opacity="1" fill-rule="nonzero"/></g><g clip-path="url(#10eaa0355e)"><path fill="#000000" d="M -8.652344 432.296875 L -10.128906 431.664062 L 207.515625 -67.574219 L 208.992188 -66.9375 Z M -8.652344 432.296875 " fill-opacity="1" fill-rule="nonzero"/></g></g></g></g><g mask="url(#48d7b380ce)"><g transform="matrix(1, 0, 0, 1, 238, 2)"><g clip-path="url(#1a41fabb87)"><g clip-path="url(#8208342d86)"><path fill="#000000" d="M 1.832031 501.097656 L 0.363281 500.460938 L 218.003906 1.226562 L 219.480469 1.859375 Z M 1.832031 501.097656 " fill-opacity="1" fill-rule="nonzero"/></g><g clip-path="url(#9f06f41f78)"><path fill="#000000" d="M 19.246094 501.097656 L 17.769531 500.460938 L 235.414062 1.226562 L 236.890625 1.859375 Z M 19.246094 501.097656 " fill-opacity="1" fill-rule="nonzero"/></g><g clip-path="url(#0325625fa3)"><path fill="#000000" d="M 36.65625 501.097656 L 35.183594 500.460938 L 252.828125 1.226562 L 254.296875 1.859375 Z M 36.65625 501.097656 " fill-opacity="1" fill-rule="nonzero"/></g><g clip-path="url(#506bd3d76e)"><path fill="#000000" d="M 54.070312 501.097656 L 52.59375 500.460938 L 270.242188 1.226562 L 271.710938 1.859375 Z M 54.070312 501.097656 " fill-opacity="1" fill-rule="nonzero"/></g><g clip-path="url(#ace0c62ae3)"><path fill="#000000" d="M 71.484375 501.097656 L 70.007812 500.460938 L 287.652344 1.226562 L 289.125 1.859375 Z M 71.484375 501.097656 " fill-opacity="1" fill-rule="nonzero"/></g><g clip-path="url(#41a2220d83)"><path fill="#000000" d="M 88.890625 501.097656 L 87.417969 500.460938 L 305.066406 1.226562 L 306.535156 1.859375 Z M 88.890625 501.097656 " fill-opacity="1" fill-rule="nonzero"/></g><g clip-path="url(#1784b67b84)"><path fill="#000000" d="M 106.300781 501.097656 L 104.824219 500.460938 L 322.472656 1.226562 L 323.949219 1.859375 Z M 106.300781 501.097656 " fill-opacity="1" fill-rule="nonzero"/></g></g></g></g><g mask="url(#9b72af9da4)"><g transform="matrix(1, 0, 0, 1, 0, 2)"><g clip-path="url(#21492918a4)"><g clip-path="url(#be18d7dded)"><path fill="#000000" d="M -21.167969 501.097656 L -22.636719 500.460938 L 195.003906 1.226562 L 196.480469 1.859375 Z M -21.167969 501.097656 " fill-opacity="1" fill-rule="nonzero"/></g><g clip-path="url(#b852d249ea)"><path fill="#000000" d="M -3.753906 501.097656 L -5.230469 500.460938 L 212.414062 1.226562 L 213.890625 1.859375 Z M -3.753906 501.097656 " fill-opacity="1" fill-rule="nonzero"/></g><g clip-path="url(#4afd8baa8d)"><path fill="#000000" d="M 13.65625 501.097656 L 12.183594 500.460938 L 229.828125 1.226562 L 231.296875 1.859375 Z M 13.65625 501.097656 " fill-opacity="1" fill-rule="nonzero"/></g><g clip-path="url(#ca8a543a47)"><path fill="#000000" d="M 31.070312 501.097656 L 29.59375 500.460938 L 247.242188 1.226562 L 248.710938 1.859375 Z M 31.070312 501.097656 " fill-opacity="1" fill-rule="nonzero"/></g><g clip-path="url(#7017d9b7bf)"><path fill="#000000" d="M 48.484375 501.097656 L 47.007812 500.460938 L 264.652344 1.226562 L 266.125 1.859375 Z M 48.484375 501.097656 " fill-opacity="1" fill-rule="nonzero"/></g><g clip-path="url(#048ca9ecee)"><path fill="#000000" d="M 65.890625 501.097656 L 64.417969 500.460938 L 282.066406 1.226562 L 283.535156 1.859375 Z M 65.890625 501.097656 " fill-opacity="1" fill-rule="nonzero"/></g><g clip-path="url(#f79126e2d2)"><path fill="#000000" d="M 83.300781 501.097656 L 81.824219 500.460938 L 299.472656 1.226562 L 300.949219 1.859375 Z M 83.300781 501.097656 " fill-opacity="1" fill-rule="nonzero"/></g><g clip-path="url(#551b61171b)"><path fill="#000000" d="M 100.714844 501.097656 L 99.238281 500.460938 L 316.882812 1.226562 L 318.359375 1.859375 Z M 100.714844 501.097656 " fill-opacity="1" fill-rule="nonzero"/></g><g clip-path="url(#d654fd109b)"><path fill="#000000" d="M 118.125 501.097656 L 116.652344 500.460938 L 334.296875 1.226562 L 335.773438 1.859375 Z M 118.125 501.097656 " fill-opacity="1" fill-rule="nonzero"/></g><g clip-path="url(#049d2d0350)"><path fill="#000000" d="M 135.539062 501.097656 L 134.0625 500.460938 L 351.710938 1.226562 L 353.179688 1.859375 Z M 135.539062 501.097656 " fill-opacity="1" fill-rule="nonzero"/></g><g clip-path="url(#f60333465b)"><path fill="#000000" d="M 152.945312 501.097656 L 151.476562 500.460938 L 369.121094 1.226562 L 370.589844 1.859375 Z M 152.945312 501.097656 " fill-opacity="1" fill-rule="nonzero"/></g><g clip-path="url(#b6b9bce1dc)"><path fill="#000000" d="M 170.359375 501.097656 L 168.886719 500.460938 L 386.527344 1.226562 L 388.003906 1.859375 Z M 170.359375 501.097656 " fill-opacity="1" fill-rule="nonzero"/></g><g clip-path="url(#6ac75ec700)"><path fill="#000000" d="M 187.769531 501.097656 L 186.300781 500.460938 L 403.941406 1.226562 L 405.417969 1.859375 Z M 187.769531 501.097656 " fill-opacity="1" fill-rule="nonzero"/></g><g clip-path="url(#964174fd55)"><path fill="#000000" d="M 205.183594 501.097656 L 203.710938 500.460938 L 421.351562 1.226562 L 422.828125 1.859375 Z M 205.183594 501.097656 " fill-opacity="1" fill-rule="nonzero"/></g><g clip-path="url(#47564a9600)"><path fill="#000000" d="M 222.59375 501.097656 L 221.117188 500.460938 L 438.765625 1.226562 L 440.242188 1.859375 Z M 222.59375 501.097656 " fill-opacity="1" fill-rule="nonzero"/></g></g></g></g><g clip-path="url(#0f2e3b5bb4)"><path fill="#00bf63" d="M 331.601562 467.976562 L 28.1875 467.976562 L 28.1875 36 L 331.601562 36 Z M 29.066406 467.097656 L 330.722656 467.097656 L 330.722656 36.878906 L 29.066406 36.878906 Z M 29.066406 467.097656 " fill-opacity="1" fill-rule="nonzero"/></g><g fill="#00bf63" fill-opacity="1"><g transform="translate(44.874898, 95.039993)"><g><path d="M 22.417969 -22.417969 C 27.011719 -23.660156 30.054688 -27.449219 30.054688 -32.476562 C 30.054688 -38.8125 25.710938 -43.71875 17.324219 -43.71875 C 9.191406 -43.71875 4.535156 -38.8125 4.535156 -32.476562 C 4.535156 -27.449219 7.328125 -23.722656 11.859375 -22.355469 C 6.210938 -20.925781 2.484375 -16.765625 2.484375 -11.179688 C 2.484375 -3.105469 8.816406 0.929688 16.828125 0.929688 C 24.34375 0.929688 31.175781 -3.105469 31.175781 -11.179688 C 31.175781 -16.765625 28.007812 -20.925781 22.417969 -22.417969 Z M 7.140625 -32.476562 C 7.140625 -38.003906 10.992188 -41.667969 17.324219 -41.667969 C 23.660156 -41.667969 27.511719 -38.003906 27.511719 -32.476562 C 27.511719 -26.269531 22.667969 -23.289062 17.324219 -23.289062 C 11.984375 -23.289062 7.140625 -26.269531 7.140625 -32.476562 Z M 16.953125 -1.117188 C 10.804688 -1.117188 5.09375 -4.347656 5.09375 -11.117188 C 5.09375 -16.890625 9.316406 -21.238281 17.078125 -21.238281 C 24.839844 -21.238281 28.566406 -16.890625 28.566406 -11.117188 C 28.566406 -4.347656 22.789062 -1.117188 16.953125 -1.117188 Z M 16.953125 -1.117188 "/></g></g></g><g clip-path="url(#e5ecd845a9)"><path fill="#00bf63" d="M 261.773438 427.359375 C 269.417969 427.359375 275.621094 421.152344 275.621094 413.503906 C 275.621094 397.941406 259.933594 393.863281 249.246094 378.480469 C 239.136719 393.769531 222.867188 398.441406 222.867188 413.503906 C 222.867188 421.152344 229.070312 427.359375 236.714844 427.359375 C 242.261719 427.359375 247.035156 424.085938 249.246094 419.371094 C 251.457031 424.085938 256.226562 427.359375 261.773438 427.359375 Z M 261.773438 427.359375 " fill-opacity="1" fill-rule="nonzero"/></g><g clip-path="url(#0071b18e72)"><g clip-path="url(#cad0f9cbc5)"><g clip-path="url(#40913a7b2a)"><path fill="#00bf63" d="M 238.773438 382.09375 C 238.796875 382.109375 238.816406 382.125 238.835938 382.140625 C 250.914062 393.171875 254.335938 413.910156 246.796875 430.382812 C 246.730469 430.515625 246.628906 430.609375 246.492188 430.664062 C 246.351562 430.714844 246.214844 430.710938 246.078125 430.648438 C 245.941406 430.585938 245.847656 430.484375 245.796875 430.34375 C 245.742188 430.207031 245.75 430.066406 245.808594 429.929688 C 253.160156 413.871094 249.847656 393.671875 238.105469 382.945312 C 238 382.851562 237.941406 382.730469 237.929688 382.589844 C 237.917969 382.449219 237.957031 382.320312 238.042969 382.210938 C 238.132812 382.097656 238.246094 382.03125 238.386719 382.007812 C 238.527344 381.984375 238.65625 382.015625 238.773438 382.09375 Z M 238.773438 382.09375 " fill-opacity="1" fill-rule="nonzero"/></g></g></g><g clip-path="url(#554eaf2e37)"><path fill="#00bf63" d="M 261.773438 339.34375 C 269.417969 339.34375 275.621094 333.136719 275.621094 325.488281 C 275.621094 309.925781 259.933594 305.847656 249.246094 290.464844 C 239.136719 305.753906 222.867188 310.425781 222.867188 325.488281 C 222.867188 333.136719 229.070312 339.34375 236.714844 339.34375 C 242.261719 339.34375 247.035156 336.070312 249.246094 331.355469 C 251.457031 336.070312 256.226562 339.34375 261.773438 339.34375 Z M 261.773438 339.34375 " fill-opacity="1" fill-rule="nonzero"/></g><g clip-path="url(#62d0655d17)"><g clip-path="url(#0b7fa22675)"><g clip-path="url(#4dd81cb2bf)"><path fill="#00bf63" d="M 238.773438 294.078125 C 238.796875 294.09375 238.816406 294.109375 238.835938 294.125 C 250.914062 305.15625 254.335938 325.894531 246.796875 342.367188 C 246.730469 342.5 246.628906 342.59375 246.492188 342.648438 C 246.351562 342.699219 246.214844 342.695312 246.078125 342.632812 C 245.941406 342.570312 245.847656 342.46875 245.796875 342.328125 C 245.742188 342.191406 245.75 342.050781 245.808594 341.914062 C 253.160156 325.855469 249.847656 305.65625 238.105469 294.929688 C 238 294.835938 237.941406 294.714844 237.929688 294.574219 C 237.917969 294.433594 237.957031 294.304688 238.042969 294.195312 C 238.132812 294.082031 238.246094 294.015625 238.386719 293.992188 C 238.527344 293.96875 238.65625 294 238.773438 294.078125 Z M 238.773438 294.078125 " fill-opacity="1" fill-rule="nonzero"/></g></g></g><g clip-path="url(#6a523d0df7)"><path fill="#00bf63" d="M 261.773438 250.726562 C 269.417969 250.726562 275.621094 244.519531 275.621094 236.871094 C 275.621094 221.3125 259.933594 217.230469 249.246094 201.847656 C 239.136719 217.136719 222.867188 221.808594 222.867188 236.871094 C 222.867188 244.519531 229.070312 250.726562 236.714844 250.726562 C 242.261719 250.726562 247.035156 247.453125 249.246094 242.738281 C 251.457031 247.453125 256.226562 250.726562 261.773438 250.726562 Z M 261.773438 250.726562 " fill-opacity="1" fill-rule="nonzero"/></g><g clip-path="url(#70adc49bd4)"><g clip-path="url(#8e957653f5)"><g clip-path="url(#959034cbe4)"><path fill="#00bf63" d="M 238.773438 205.460938 C 238.796875 205.476562 238.816406 205.492188 238.835938 205.511719 C 250.914062 216.539062 254.335938 237.277344 246.796875 253.75 C 246.730469 253.882812 246.628906 253.976562 246.492188 254.03125 C 246.351562 254.082031 246.214844 254.078125 246.078125 254.015625 C 245.941406 253.953125 245.847656 253.851562 245.796875 253.714844 C 245.742188 253.574219 245.75 253.433594 245.808594 253.300781 C 253.160156 237.238281 249.847656 217.039062 238.105469 206.3125 C 238 206.21875 237.941406 206.097656 237.929688 205.957031 C 237.917969 205.816406 237.957031 205.6875 238.042969 205.578125 C 238.132812 205.464844 238.246094 205.398438 238.386719 205.375 C 238.527344 205.351562 238.65625 205.382812 238.773438 205.460938 Z M 238.773438 205.460938 " fill-opacity="1" fill-rule="nonzero"/></g></g></g><g clip-path="url(#0a147ef6a2)"><path fill="#00bf63" d="M 261.773438 162.058594 C 269.417969 162.058594 275.621094 155.851562 275.621094 148.203125 C 275.621094 132.640625 259.933594 128.5625 249.246094 113.179688 C 239.136719 128.464844 222.867188 133.136719 222.867188 148.203125 C 222.867188 155.851562 229.070312 162.058594 236.714844 162.058594 C 242.261719 162.058594 247.035156 158.78125 249.246094 154.070312 C 251.457031 158.78125 256.226562 162.058594 261.773438 162.058594 Z M 261.773438 162.058594 " fill-opacity="1" fill-rule="nonzero"/></g><g clip-path="url(#5c4c5b7b85)"><g clip-path="url(#1129b2cad0)"><g clip-path="url(#978ce945de)"><path fill="#00bf63" d="M 238.773438 116.792969 C 238.796875 116.804688 238.816406 116.824219 238.835938 116.839844 C 250.914062 127.871094 254.335938 148.609375 246.796875 165.078125 C 246.730469 165.214844 246.628906 165.308594 246.492188 165.359375 C 246.351562 165.414062 246.214844 165.40625 246.078125 165.34375 C 245.941406 165.285156 245.847656 165.183594 245.796875 165.042969 C 245.742188 164.902344 245.75 164.765625 245.808594 164.628906 C 253.160156 148.570312 249.847656 128.371094 238.105469 117.644531 C 238 117.546875 237.941406 117.429688 237.929688 117.289062 C 237.917969 117.144531 237.957031 117.019531 238.042969 116.90625 C 238.132812 116.796875 238.246094 116.726562 238.386719 116.707031 C 238.527344 116.683594 238.65625 116.710938 238.773438 116.792969 Z M 238.773438 116.792969 " fill-opacity="1" fill-rule="nonzero"/></g></g></g><g clip-path="url(#b57414d5ac)"><path fill="#00bf63" d="M 125.171875 427.359375 C 132.816406 427.359375 139.019531 421.152344 139.019531 413.503906 C 139.019531 397.941406 123.332031 393.863281 112.640625 378.480469 C 102.535156 393.769531 86.265625 398.441406 86.265625 413.503906 C 86.265625 421.152344 92.46875 427.359375 100.113281 427.359375 C 105.660156 427.359375 110.429688 424.085938 112.640625 419.371094 C 114.855469 424.085938 119.625 427.359375 125.171875 427.359375 Z M 125.171875 427.359375 " fill-opacity="1" fill-rule="nonzero"/></g><g clip-path="url(#19a7516746)"><g clip-path="url(#29fcf656c2)"><g clip-path="url(#399e3bf692)"><path fill="#00bf63" d="M 102.171875 382.09375 C 102.195312 382.109375 102.214844 382.125 102.234375 382.140625 C 114.3125 393.171875 117.734375 413.910156 110.191406 430.382812 C 110.128906 430.515625 110.027344 430.609375 109.890625 430.664062 C 109.75 430.714844 109.609375 430.710938 109.476562 430.648438 C 109.339844 430.585938 109.246094 430.484375 109.195312 430.34375 C 109.140625 430.207031 109.144531 430.066406 109.207031 429.929688 C 116.558594 413.871094 113.246094 393.671875 101.5 382.945312 C 101.398438 382.851562 101.339844 382.730469 101.328125 382.589844 C 101.316406 382.449219 101.355469 382.320312 101.441406 382.210938 C 101.53125 382.097656 101.644531 382.03125 101.785156 382.007812 C 101.925781 381.984375 102.054688 382.015625 102.171875 382.09375 Z M 102.171875 382.09375 " fill-opacity="1" fill-rule="nonzero"/></g></g></g><g clip-path="url(#023e2c3522)"><path fill="#00bf63" d="M 125.171875 339.34375 C 132.816406 339.34375 139.019531 333.136719 139.019531 325.488281 C 139.019531 309.925781 123.332031 305.847656 112.640625 290.464844 C 102.535156 305.753906 86.265625 310.425781 86.265625 325.488281 C 86.265625 333.136719 92.46875 339.34375 100.113281 339.34375 C 105.660156 339.34375 110.429688 336.070312 112.640625 331.355469 C 114.855469 336.070312 119.625 339.34375 125.171875 339.34375 Z M 125.171875 339.34375 " fill-opacity="1" fill-rule="nonzero"/></g><g clip-path="url(#72a851c797)"><g clip-path="url(#7957252203)"><g clip-path="url(#16eaa955de)"><path fill="#00bf63" d="M 102.171875 294.078125 C 102.195312 294.09375 102.214844 294.109375 102.234375 294.125 C 114.3125 305.15625 117.734375 325.894531 110.191406 342.367188 C 110.128906 342.5 110.027344 342.59375 109.890625 342.648438 C 109.75 342.699219 109.609375 342.695312 109.476562 342.632812 C 109.339844 342.570312 109.246094 342.46875 109.195312 342.328125 C 109.140625 342.191406 109.144531 342.050781 109.207031 341.914062 C 116.558594 325.855469 113.246094 305.65625 101.5 294.929688 C 101.398438 294.835938 101.339844 294.714844 101.328125 294.574219 C 101.316406 294.433594 101.355469 294.304688 101.441406 294.195312 C 101.53125 294.082031 101.644531 294.015625 101.785156 293.992188 C 101.925781 293.96875 102.054688 294 102.171875 294.078125 Z M 102.171875 294.078125 " fill-opacity="1" fill-rule="nonzero"/></g></g></g><g clip-path="url(#ee6e5cc218)"><path fill="#00bf63" d="M 125.171875 250.726562 C 132.816406 250.726562 139.019531 244.519531 139.019531 236.871094 C 139.019531 221.3125 123.332031 217.230469 112.640625 201.847656 C 102.535156 217.136719 86.265625 221.808594 86.265625 236.871094 C 86.265625 244.519531 92.46875 250.726562 100.113281 250.726562 C 105.660156 250.726562 110.429688 247.453125 112.640625 242.738281 C 114.855469 247.453125 119.625 250.726562 125.171875 250.726562 Z M 125.171875 250.726562 " fill-opacity="1" fill-rule="nonzero"/></g><g clip-path="url(#3c3b7f3a37)"><g clip-path="url(#f3af55a0f0)"><g clip-path="url(#3bcbc16145)"><path fill="#00bf63" d="M 102.171875 205.460938 C 102.195312 205.476562 102.214844 205.492188 102.234375 205.511719 C 114.3125 216.539062 117.734375 237.277344 110.191406 253.75 C 110.128906 253.882812 110.027344 253.976562 109.890625 254.03125 C 109.75 254.082031 109.609375 254.078125 109.476562 254.015625 C 109.339844 253.953125 109.246094 253.851562 109.195312 253.714844 C 109.140625 253.574219 109.144531 253.433594 109.207031 253.300781 C 116.558594 237.238281 113.246094 217.039062 101.5 206.3125 C 101.398438 206.21875 101.339844 206.097656 101.328125 205.957031 C 101.316406 205.816406 101.355469 205.6875 101.441406 205.578125 C 101.53125 205.464844 101.644531 205.398438 101.785156 205.375 C 101.925781 205.351562 102.054688 205.382812 102.171875 205.460938 Z M 102.171875 205.460938 " fill-opacity="1" fill-rule="nonzero"/></g></g></g><g clip-path="url(#dac9b953e3)"><path fill="#00bf63" d="M 125.171875 162.058594 C 132.816406 162.058594 139.019531 155.851562 139.019531 148.203125 C 139.019531 132.640625 123.332031 128.5625 112.640625 113.179688 C 102.535156 128.464844 86.265625 133.136719 86.265625 148.203125 C 86.265625 155.851562 92.46875 162.058594 100.113281 162.058594 C 105.660156 162.058594 110.429688 158.78125 112.640625 154.070312 C 114.855469 158.78125 119.625 162.058594 125.171875 162.058594 Z M 125.171875 162.058594 " fill-opacity="1" fill-rule="nonzero"/></g><g clip-path="url(#e55288482b)"><g clip-path="url(#b72a34bce5)"><g clip-path="url(#c33a23b629)"><path fill="#00bf63" d="M 102.171875 116.792969 C 102.195312 116.804688 102.214844 116.824219 102.234375 116.839844 C 114.3125 127.871094 117.734375 148.609375 110.191406 165.078125 C 110.128906 165.214844 110.027344 165.308594 109.890625 165.359375 C 109.75 165.414062 109.609375 165.40625 109.476562 165.34375 C 109.339844 165.285156 109.246094 165.183594 109.195312 165.042969 C 109.140625 164.902344 109.144531 164.765625 109.207031 164.628906 C 116.558594 148.570312 113.246094 128.371094 101.5 117.644531 C 101.398438 117.546875 101.339844 117.429688 101.328125 117.289062 C 101.316406 117.144531 101.355469 117.019531 101.441406 116.90625 C 101.53125 116.796875 101.644531 116.726562 101.785156 116.707031 C 101.925781 116.683594 102.054688 116.710938 102.171875 116.792969 Z M 102.171875 116.792969 " fill-opacity="1" fill-rule="nonzero"/></g></g></g></svg>