<svg xmlns="http://www.w3.org/2000/svg" xmlns:xlink="http://www.w3.org/1999/xlink" width="480" zoomAndPan="magnify" viewBox="0 0 360 503.999982" height="672" preserveAspectRatio="xMidYMid meet" version="1.0"><defs><filter x="0%" y="0%" width="100%" height="100%" id="c398142b38"><feColorMatrix values="0 0 0 0 1 0 0 0 0 1 0 0 0 0 1 0 0 0 1 0" color-interpolation-filters="sRGB"/></filter><mask id="035acab2c7"><g filter="url(#c398142b38)"><rect x="-36" width="432" fill="#000000" y="-50.399998" height="604.799979" fill-opacity="0.1373"/></g></mask><clipPath id="65899af70e"><path d="M 0 0 L 1 0 L 1 432.847656 L 0 432.847656 Z M 0 0 " clip-rule="nonzero"/></clipPath><clipPath id="88d9cbb739"><path d="M 0 0 L 18 0 L 18 432.847656 L 0 432.847656 Z M 0 0 " clip-rule="nonzero"/></clipPath><clipPath id="6ce8d376c3"><path d="M 0 0 L 35 0 L 35 432.847656 L 0 432.847656 Z M 0 0 " clip-rule="nonzero"/></clipPath><clipPath id="56cdd98616"><path d="M 0 0 L 53 0 L 53 432.847656 L 0 432.847656 Z M 0 0 " clip-rule="nonzero"/></clipPath><clipPath id="556c5aa6fe"><path d="M 0 0 L 70 0 L 70 432.847656 L 0 432.847656 Z M 0 0 " clip-rule="nonzero"/></clipPath><clipPath id="407157de9b"><path d="M 0 0 L 88 0 L 88 432.847656 L 0 432.847656 Z M 0 0 " clip-rule="nonzero"/></clipPath><clipPath id="9008301205"><path d="M 0 0 L 105 0 L 105 432.847656 L 0 432.847656 Z M 0 0 " clip-rule="nonzero"/></clipPath><clipPath id="92945568d4"><path d="M 0 0 L 122 0 L 122 432.847656 L 0 432.847656 Z M 0 0 " clip-rule="nonzero"/></clipPath><clipPath id="ebc93b5503"><path d="M 0 0 L 140 0 L 140 432.847656 L 0 432.847656 Z M 0 0 " clip-rule="nonzero"/></clipPath><clipPath id="d2a78741a8"><path d="M 0 0 L 157 0 L 157 432.847656 L 0 432.847656 Z M 0 0 " clip-rule="nonzero"/></clipPath><clipPath id="24a51cb6b5"><path d="M 0 0 L 175 0 L 175 432.847656 L 0 432.847656 Z M 0 0 " clip-rule="nonzero"/></clipPath><clipPath id="6f30d5f622"><path d="M 0 0 L 192 0 L 192 432.847656 L 0 432.847656 Z M 0 0 " clip-rule="nonzero"/></clipPath><clipPath id="ecd5ee334e"><path d="M 0 0 L 208.722656 0 L 208.722656 432.847656 L 0 432.847656 Z M 0 0 " clip-rule="nonzero"/></clipPath><clipPath id="ac4d30b7f6"><rect x="0" width="209" y="0" height="434"/></clipPath><mask id="c60c771f97"><g filter="url(#c398142b38)"><rect x="-36" width="432" fill="#000000" y="-50.399998" height="604.799979" fill-opacity="0.1373"/></g></mask><clipPath id="7385a76063"><path d="M 0 0.203125 L 197 0.203125 L 197 498 L 0 498 Z M 0 0.203125 " clip-rule="nonzero"/></clipPath><clipPath id="f4b2a08e9a"><path d="M 0 0.203125 L 214 0.203125 L 214 498 L 0 498 Z M 0 0.203125 " clip-rule="nonzero"/></clipPath><clipPath id="0b773e6cbd"><path d="M 12 0.203125 L 232 0.203125 L 232 498 L 12 498 Z M 12 0.203125 " clip-rule="nonzero"/></clipPath><clipPath id="29b5a41ccb"><path d="M 29 0.203125 L 249 0.203125 L 249 498 L 29 498 Z M 29 0.203125 " clip-rule="nonzero"/></clipPath><clipPath id="efe14192f6"><path d="M 47 0.203125 L 267 0.203125 L 267 498 L 47 498 Z M 47 0.203125 " clip-rule="nonzero"/></clipPath><clipPath id="a9eb263fa4"><path d="M 64 0.203125 L 284 0.203125 L 284 498 L 64 498 Z M 64 0.203125 " clip-rule="nonzero"/></clipPath><clipPath id="0e556a39d4"><path d="M 81 0.203125 L 301 0.203125 L 301 498 L 81 498 Z M 81 0.203125 " clip-rule="nonzero"/></clipPath><clipPath id="6cb621fef0"><path d="M 99 0.203125 L 319 0.203125 L 319 498 L 99 498 Z M 99 0.203125 " clip-rule="nonzero"/></clipPath><clipPath id="10efeac294"><path d="M 116 0.203125 L 336 0.203125 L 336 498 L 116 498 Z M 116 0.203125 " clip-rule="nonzero"/></clipPath><clipPath id="926795358b"><path d="M 134 0.203125 L 354 0.203125 L 354 498 L 134 498 Z M 134 0.203125 " clip-rule="nonzero"/></clipPath><clipPath id="952b669081"><path d="M 151 0.203125 L 360 0.203125 L 360 498 L 151 498 Z M 151 0.203125 " clip-rule="nonzero"/></clipPath><clipPath id="86ee6c998e"><path d="M 168 0.203125 L 360 0.203125 L 360 498 L 168 498 Z M 168 0.203125 " clip-rule="nonzero"/></clipPath><clipPath id="6ae223ff78"><path d="M 186 0.203125 L 360 0.203125 L 360 498 L 186 498 Z M 186 0.203125 " clip-rule="nonzero"/></clipPath><clipPath id="344f1ceed3"><path d="M 203 0.203125 L 360 0.203125 L 360 498 L 203 498 Z M 203 0.203125 " clip-rule="nonzero"/></clipPath><clipPath id="d56d94bca7"><path d="M 221 0.203125 L 360 0.203125 L 360 498 L 221 498 Z M 221 0.203125 " clip-rule="nonzero"/></clipPath><clipPath id="e2ded205e9"><rect x="0" width="360" y="0" height="498"/></clipPath><mask id="9a810906c9"><g filter="url(#c398142b38)"><rect x="-36" width="432" fill="#000000" y="-50.399998" height="604.799979" fill-opacity="0.1373"/></g></mask><clipPath id="22a25b04b8"><path d="M 0.222656 1 L 122 1 L 122 501.648438 L 0.222656 501.648438 Z M 0.222656 1 " clip-rule="nonzero"/></clipPath><clipPath id="9aa01d0bf5"><path d="M 17 1 L 122 1 L 122 501.648438 L 17 501.648438 Z M 17 1 " clip-rule="nonzero"/></clipPath><clipPath id="d7f485cc50"><path d="M 35 1 L 122 1 L 122 501.648438 L 35 501.648438 Z M 35 1 " clip-rule="nonzero"/></clipPath><clipPath id="a96a0ad23e"><path d="M 52 1 L 122 1 L 122 501.648438 L 52 501.648438 Z M 52 1 " clip-rule="nonzero"/></clipPath><clipPath id="73967d1480"><path d="M 70 1 L 122 1 L 122 501.648438 L 70 501.648438 Z M 70 1 " clip-rule="nonzero"/></clipPath><clipPath id="a2b3e51c85"><path d="M 87 1 L 122 1 L 122 501.648438 L 87 501.648438 Z M 87 1 " clip-rule="nonzero"/></clipPath><clipPath id="e81da13469"><path d="M 104 1 L 122 1 L 122 501.648438 L 104 501.648438 Z M 104 1 " clip-rule="nonzero"/></clipPath><clipPath id="a72e654c02"><rect x="0" width="122" y="0" height="502"/></clipPath><clipPath id="eed89d892e"><path d="M 28.015625 36 L 331.765625 36 L 331.765625 468 L 28.015625 468 Z M 28.015625 36 " clip-rule="nonzero"/></clipPath><clipPath id="4eedc21ed9"><path d="M 103.15625 177.753906 L 261.871094 177.753906 L 261.871094 324.632812 L 103.15625 324.632812 Z M 103.15625 177.753906 " clip-rule="nonzero"/></clipPath><clipPath id="06841f721e"><path d="M 148 207 L 188 207 L 188 335 L 148 335 Z M 148 207 " clip-rule="nonzero"/></clipPath><clipPath id="f60a96b3aa"><path d="M 173.800781 336.011719 L 98.238281 284.957031 L 150.460938 207.667969 L 226.023438 258.71875 Z M 173.800781 336.011719 " clip-rule="nonzero"/></clipPath><clipPath id="ccdfe6a519"><path d="M 173.800781 336.011719 L 88.433594 278.332031 L 150.007812 187.199219 L 235.375 244.875 Z M 173.800781 336.011719 " clip-rule="nonzero"/></clipPath></defs><rect x="-36" width="432" fill="#ffffff" y="-50.399998" height="604.799979" fill-opacity="1"/><rect x="-36" width="432" fill="#323232" y="-50.399998" height="604.799979" fill-opacity="1"/><g mask="url(#035acab2c7)"><g transform="matrix(1, 0, 0, 1, 0, 0)"><g clip-path="url(#ac4d30b7f6)"><g clip-path="url(#65899af70e)"><path fill="#000000" d="M -217.589844 432.296875 L -219.066406 431.664062 L -1.417969 -67.574219 L 0.0507812 -66.9375 Z M -217.589844 432.296875 " fill-opacity="1" fill-rule="nonzero"/></g><g clip-path="url(#88d9cbb739)"><path fill="#000000" d="M -200.175781 432.296875 L -201.652344 431.664062 L 15.992188 -67.574219 L 17.460938 -66.9375 Z M -200.175781 432.296875 " fill-opacity="1" fill-rule="nonzero"/></g><g clip-path="url(#6ce8d376c3)"><path fill="#000000" d="M -182.765625 432.296875 L -184.242188 431.664062 L 33.40625 -67.574219 L 34.875 -66.9375 Z M -182.765625 432.296875 " fill-opacity="1" fill-rule="nonzero"/></g><g clip-path="url(#56cdd98616)"><path fill="#000000" d="M -165.359375 432.296875 L -166.828125 431.664062 L 50.816406 -67.574219 L 52.289062 -66.9375 Z M -165.359375 432.296875 " fill-opacity="1" fill-rule="nonzero"/></g><g clip-path="url(#556c5aa6fe)"><path fill="#000000" d="M -147.945312 432.296875 L -149.421875 431.664062 L 68.222656 -67.574219 L 69.699219 -66.9375 Z M -147.945312 432.296875 " fill-opacity="1" fill-rule="nonzero"/></g><g clip-path="url(#407157de9b)"><path fill="#000000" d="M -130.535156 432.296875 L -132.011719 431.664062 L 85.636719 -67.574219 L 87.113281 -66.9375 Z M -130.535156 432.296875 " fill-opacity="1" fill-rule="nonzero"/></g><g clip-path="url(#9008301205)"><path fill="#000000" d="M -113.121094 432.296875 L -114.597656 431.664062 L 103.050781 -67.574219 L 104.523438 -66.9375 Z M -113.121094 432.296875 " fill-opacity="1" fill-rule="nonzero"/></g><g clip-path="url(#92945568d4)"><path fill="#000000" d="M -95.707031 432.296875 L -97.183594 431.664062 L 120.460938 -67.574219 L 121.929688 -66.9375 Z M -95.707031 432.296875 " fill-opacity="1" fill-rule="nonzero"/></g><g clip-path="url(#ebc93b5503)"><path fill="#000000" d="M -78.304688 432.296875 L -79.773438 431.664062 L 137.875 -67.574219 L 139.34375 -66.9375 Z M -78.304688 432.296875 " fill-opacity="1" fill-rule="nonzero"/></g><g clip-path="url(#d2a78741a8)"><path fill="#000000" d="M -60.890625 432.296875 L -62.359375 431.664062 L 155.28125 -67.574219 L 156.757812 -66.9375 Z M -60.890625 432.296875 " fill-opacity="1" fill-rule="nonzero"/></g><g clip-path="url(#24a51cb6b5)"><path fill="#000000" d="M -43.476562 432.296875 L -44.949219 431.664062 L 172.691406 -67.574219 L 174.167969 -66.9375 Z M -43.476562 432.296875 " fill-opacity="1" fill-rule="nonzero"/></g><g clip-path="url(#6f30d5f622)"><path fill="#000000" d="M -26.066406 432.296875 L -27.535156 431.664062 L 190.105469 -67.574219 L 191.582031 -66.9375 Z M -26.066406 432.296875 " fill-opacity="1" fill-rule="nonzero"/></g><g clip-path="url(#ecd5ee334e)"><path fill="#000000" d="M -8.652344 432.296875 L -10.128906 431.664062 L 207.515625 -67.574219 L 208.992188 -66.9375 Z M -8.652344 432.296875 " fill-opacity="1" fill-rule="nonzero"/></g></g></g></g><g mask="url(#c60c771f97)"><g transform="matrix(1, 0, 0, 1, 0, 6)"><g clip-path="url(#e2ded205e9)"><g clip-path="url(#7385a76063)"><path fill="#000000" d="M -21.167969 500.652344 L -22.636719 500.015625 L 195.003906 0.78125 L 196.480469 1.414062 Z M -21.167969 500.652344 " fill-opacity="1" fill-rule="nonzero"/></g><g clip-path="url(#f4b2a08e9a)"><path fill="#000000" d="M -3.753906 500.652344 L -5.230469 500.015625 L 212.414062 0.78125 L 213.890625 1.414062 Z M -3.753906 500.652344 " fill-opacity="1" fill-rule="nonzero"/></g><g clip-path="url(#0b773e6cbd)"><path fill="#000000" d="M 13.65625 500.652344 L 12.183594 500.015625 L 229.828125 0.78125 L 231.296875 1.414062 Z M 13.65625 500.652344 " fill-opacity="1" fill-rule="nonzero"/></g><g clip-path="url(#29b5a41ccb)"><path fill="#000000" d="M 31.070312 500.652344 L 29.59375 500.015625 L 247.242188 0.78125 L 248.710938 1.414062 Z M 31.070312 500.652344 " fill-opacity="1" fill-rule="nonzero"/></g><g clip-path="url(#efe14192f6)"><path fill="#000000" d="M 48.484375 500.652344 L 47.007812 500.015625 L 264.652344 0.78125 L 266.125 1.414062 Z M 48.484375 500.652344 " fill-opacity="1" fill-rule="nonzero"/></g><g clip-path="url(#a9eb263fa4)"><path fill="#000000" d="M 65.890625 500.652344 L 64.417969 500.015625 L 282.066406 0.78125 L 283.535156 1.414062 Z M 65.890625 500.652344 " fill-opacity="1" fill-rule="nonzero"/></g><g clip-path="url(#0e556a39d4)"><path fill="#000000" d="M 83.300781 500.652344 L 81.824219 500.015625 L 299.472656 0.78125 L 300.949219 1.414062 Z M 83.300781 500.652344 " fill-opacity="1" fill-rule="nonzero"/></g><g clip-path="url(#6cb621fef0)"><path fill="#000000" d="M 100.714844 500.652344 L 99.238281 500.015625 L 316.882812 0.78125 L 318.359375 1.414062 Z M 100.714844 500.652344 " fill-opacity="1" fill-rule="nonzero"/></g><g clip-path="url(#10efeac294)"><path fill="#000000" d="M 118.125 500.652344 L 116.652344 500.015625 L 334.296875 0.78125 L 335.773438 1.414062 Z M 118.125 500.652344 " fill-opacity="1" fill-rule="nonzero"/></g><g clip-path="url(#926795358b)"><path fill="#000000" d="M 135.539062 500.652344 L 134.0625 500.015625 L 351.710938 0.78125 L 353.179688 1.414062 Z M 135.539062 500.652344 " fill-opacity="1" fill-rule="nonzero"/></g><g clip-path="url(#952b669081)"><path fill="#000000" d="M 152.945312 500.652344 L 151.476562 500.015625 L 369.121094 0.78125 L 370.589844 1.414062 Z M 152.945312 500.652344 " fill-opacity="1" fill-rule="nonzero"/></g><g clip-path="url(#86ee6c998e)"><path fill="#000000" d="M 170.359375 500.652344 L 168.886719 500.015625 L 386.527344 0.78125 L 388.003906 1.414062 Z M 170.359375 500.652344 " fill-opacity="1" fill-rule="nonzero"/></g><g clip-path="url(#6ae223ff78)"><path fill="#000000" d="M 187.769531 500.652344 L 186.300781 500.015625 L 403.941406 0.78125 L 405.417969 1.414062 Z M 187.769531 500.652344 " fill-opacity="1" fill-rule="nonzero"/></g><g clip-path="url(#344f1ceed3)"><path fill="#000000" d="M 205.183594 500.652344 L 203.710938 500.015625 L 421.351562 0.78125 L 422.828125 1.414062 Z M 205.183594 500.652344 " fill-opacity="1" fill-rule="nonzero"/></g><g clip-path="url(#d56d94bca7)"><path fill="#000000" d="M 222.59375 500.652344 L 221.117188 500.015625 L 438.765625 0.78125 L 440.242188 1.414062 Z M 222.59375 500.652344 " fill-opacity="1" fill-rule="nonzero"/></g></g></g></g><g mask="url(#9a810906c9)"><g transform="matrix(1, 0, 0, 1, 238, 2)"><g clip-path="url(#a72e654c02)"><g clip-path="url(#22a25b04b8)"><path fill="#000000" d="M 1.832031 501.097656 L 0.363281 500.460938 L 218.003906 1.226562 L 219.480469 1.859375 Z M 1.832031 501.097656 " fill-opacity="1" fill-rule="nonzero"/></g><g clip-path="url(#9aa01d0bf5)"><path fill="#000000" d="M 19.246094 501.097656 L 17.769531 500.460938 L 235.414062 1.226562 L 236.890625 1.859375 Z M 19.246094 501.097656 " fill-opacity="1" fill-rule="nonzero"/></g><g clip-path="url(#d7f485cc50)"><path fill="#000000" d="M 36.65625 501.097656 L 35.183594 500.460938 L 252.828125 1.226562 L 254.296875 1.859375 Z M 36.65625 501.097656 " fill-opacity="1" fill-rule="nonzero"/></g><g clip-path="url(#a96a0ad23e)"><path fill="#000000" d="M 54.070312 501.097656 L 52.59375 500.460938 L 270.242188 1.226562 L 271.710938 1.859375 Z M 54.070312 501.097656 " fill-opacity="1" fill-rule="nonzero"/></g><g clip-path="url(#73967d1480)"><path fill="#000000" d="M 71.484375 501.097656 L 70.007812 500.460938 L 287.652344 1.226562 L 289.125 1.859375 Z M 71.484375 501.097656 " fill-opacity="1" fill-rule="nonzero"/></g><g clip-path="url(#a2b3e51c85)"><path fill="#000000" d="M 88.890625 501.097656 L 87.417969 500.460938 L 305.066406 1.226562 L 306.535156 1.859375 Z M 88.890625 501.097656 " fill-opacity="1" fill-rule="nonzero"/></g><g clip-path="url(#e81da13469)"><path fill="#000000" d="M 106.300781 501.097656 L 104.824219 500.460938 L 322.472656 1.226562 L 323.949219 1.859375 Z M 106.300781 501.097656 " fill-opacity="1" fill-rule="nonzero"/></g></g></g></g><g clip-path="url(#eed89d892e)"><path fill="#00bf63" d="M 331.601562 467.976562 L 28.1875 467.976562 L 28.1875 36 L 331.601562 36 Z M 29.066406 467.097656 L 330.722656 467.097656 L 330.722656 36.878906 L 29.066406 36.878906 Z M 29.066406 467.097656 " fill-opacity="1" fill-rule="nonzero"/></g><g clip-path="url(#4eedc21ed9)"><path fill="#00bf63" d="M 220.152344 324.613281 C 243.121094 324.613281 261.765625 305.960938 261.765625 282.976562 C 261.765625 236.214844 214.625 223.957031 182.5 177.730469 C 152.132812 223.671875 103.238281 237.710938 103.238281 282.976562 C 103.238281 305.960938 121.882812 324.613281 144.851562 324.613281 C 161.515625 324.613281 175.859375 314.769531 182.5 300.609375 C 189.148438 314.769531 203.488281 324.613281 220.152344 324.613281 Z M 220.152344 324.613281 " fill-opacity="1" fill-rule="nonzero"/></g><g clip-path="url(#06841f721e)"><g clip-path="url(#f60a96b3aa)"><g clip-path="url(#ccdfe6a519)"><path fill="#00bf63" d="M 151.039062 188.589844 C 151.105469 188.632812 151.167969 188.683594 151.226562 188.738281 C 187.515625 221.882812 197.796875 284.199219 175.144531 333.691406 C 175.050781 333.886719 174.925781 334.058594 174.769531 334.207031 C 174.609375 334.351562 174.429688 334.464844 174.226562 334.539062 C 174.027344 334.613281 173.816406 334.648438 173.601562 334.640625 C 173.386719 334.632812 173.179688 334.582031 172.984375 334.496094 C 172.789062 334.40625 172.617188 334.28125 172.472656 334.125 C 172.324219 333.964844 172.214844 333.789062 172.140625 333.585938 C 172.0625 333.382812 172.03125 333.175781 172.035156 332.960938 C 172.042969 332.742188 172.09375 332.539062 172.179688 332.339844 C 194.273438 284.082031 184.316406 223.382812 149.027344 191.148438 C 148.875 191.011719 148.753906 190.851562 148.664062 190.664062 C 148.570312 190.480469 148.519531 190.285156 148.5 190.078125 C 148.484375 189.875 148.507812 189.671875 148.566406 189.476562 C 148.625 189.277344 148.71875 189.097656 148.847656 188.9375 C 148.972656 188.773438 149.125 188.640625 149.304688 188.535156 C 149.480469 188.433594 149.671875 188.363281 149.875 188.332031 C 150.078125 188.300781 150.28125 188.304688 150.480469 188.351562 C 150.683594 188.394531 150.867188 188.472656 151.039062 188.589844 Z M 151.039062 188.589844 " fill-opacity="1" fill-rule="nonzero"/></g></g></g></svg>