<svg xmlns="http://www.w3.org/2000/svg" xmlns:xlink="http://www.w3.org/1999/xlink" width="480" zoomAndPan="magnify" viewBox="0 0 360 503.999982" height="672" preserveAspectRatio="xMidYMid meet" version="1.0"><defs><filter x="0%" y="0%" width="100%" height="100%" id="514b1ab2c5"><feColorMatrix values="0 0 0 0 1 0 0 0 0 1 0 0 0 0 1 0 0 0 1 0" color-interpolation-filters="sRGB"/></filter><mask id="565533284c"><g filter="url(#514b1ab2c5)"><rect x="-36" width="432" fill="#000000" y="-50.399998" height="604.799979" fill-opacity="0.1373"/></g></mask><clipPath id="c71b38bc24"><path d="M 0 0 L 1 0 L 1 432.847656 L 0 432.847656 Z M 0 0 " clip-rule="nonzero"/></clipPath><clipPath id="b5f7962435"><path d="M 0 0 L 18 0 L 18 432.847656 L 0 432.847656 Z M 0 0 " clip-rule="nonzero"/></clipPath><clipPath id="0eaec720ec"><path d="M 0 0 L 35 0 L 35 432.847656 L 0 432.847656 Z M 0 0 " clip-rule="nonzero"/></clipPath><clipPath id="0288d9860b"><path d="M 0 0 L 53 0 L 53 432.847656 L 0 432.847656 Z M 0 0 " clip-rule="nonzero"/></clipPath><clipPath id="40a799aae9"><path d="M 0 0 L 70 0 L 70 432.847656 L 0 432.847656 Z M 0 0 " clip-rule="nonzero"/></clipPath><clipPath id="e3c9898394"><path d="M 0 0 L 88 0 L 88 432.847656 L 0 432.847656 Z M 0 0 " clip-rule="nonzero"/></clipPath><clipPath id="f553864fec"><path d="M 0 0 L 105 0 L 105 432.847656 L 0 432.847656 Z M 0 0 " clip-rule="nonzero"/></clipPath><clipPath id="3b8fed8c79"><path d="M 0 0 L 122 0 L 122 432.847656 L 0 432.847656 Z M 0 0 " clip-rule="nonzero"/></clipPath><clipPath id="7b5f42b3b9"><path d="M 0 0 L 140 0 L 140 432.847656 L 0 432.847656 Z M 0 0 " clip-rule="nonzero"/></clipPath><clipPath id="f50db8856a"><path d="M 0 0 L 157 0 L 157 432.847656 L 0 432.847656 Z M 0 0 " clip-rule="nonzero"/></clipPath><clipPath id="c7c7fe9f32"><path d="M 0 0 L 175 0 L 175 432.847656 L 0 432.847656 Z M 0 0 " clip-rule="nonzero"/></clipPath><clipPath id="17f2529774"><path d="M 0 0 L 192 0 L 192 432.847656 L 0 432.847656 Z M 0 0 " clip-rule="nonzero"/></clipPath><clipPath id="d58f45330d"><path d="M 0 0 L 208.722656 0 L 208.722656 432.847656 L 0 432.847656 Z M 0 0 " clip-rule="nonzero"/></clipPath><clipPath id="9b180e7f3c"><rect x="0" width="209" y="0" height="434"/></clipPath><mask id="2f48eacf9f"><g filter="url(#514b1ab2c5)"><rect x="-36" width="432" fill="#000000" y="-50.399998" height="604.799979" fill-opacity="0.1373"/></g></mask><clipPath id="7553743dfa"><path d="M 0 0.203125 L 197 0.203125 L 197 498 L 0 498 Z M 0 0.203125 " clip-rule="nonzero"/></clipPath><clipPath id="61dcd6aed1"><path d="M 0 0.203125 L 214 0.203125 L 214 498 L 0 498 Z M 0 0.203125 " clip-rule="nonzero"/></clipPath><clipPath id="cd5f3723fb"><path d="M 12 0.203125 L 232 0.203125 L 232 498 L 12 498 Z M 12 0.203125 " clip-rule="nonzero"/></clipPath><clipPath id="01a68091d9"><path d="M 29 0.203125 L 249 0.203125 L 249 498 L 29 498 Z M 29 0.203125 " clip-rule="nonzero"/></clipPath><clipPath id="40560aa47e"><path d="M 47 0.203125 L 267 0.203125 L 267 498 L 47 498 Z M 47 0.203125 " clip-rule="nonzero"/></clipPath><clipPath id="996f89e1ef"><path d="M 64 0.203125 L 284 0.203125 L 284 498 L 64 498 Z M 64 0.203125 " clip-rule="nonzero"/></clipPath><clipPath id="0779efa301"><path d="M 81 0.203125 L 301 0.203125 L 301 498 L 81 498 Z M 81 0.203125 " clip-rule="nonzero"/></clipPath><clipPath id="9869b40b93"><path d="M 99 0.203125 L 319 0.203125 L 319 498 L 99 498 Z M 99 0.203125 " clip-rule="nonzero"/></clipPath><clipPath id="dac49042b5"><path d="M 116 0.203125 L 336 0.203125 L 336 498 L 116 498 Z M 116 0.203125 " clip-rule="nonzero"/></clipPath><clipPath id="e4614748c4"><path d="M 134 0.203125 L 354 0.203125 L 354 498 L 134 498 Z M 134 0.203125 " clip-rule="nonzero"/></clipPath><clipPath id="9e9f3515cb"><path d="M 151 0.203125 L 360 0.203125 L 360 498 L 151 498 Z M 151 0.203125 " clip-rule="nonzero"/></clipPath><clipPath id="b932a87e44"><path d="M 168 0.203125 L 360 0.203125 L 360 498 L 168 498 Z M 168 0.203125 " clip-rule="nonzero"/></clipPath><clipPath id="0ad9253c9d"><path d="M 186 0.203125 L 360 0.203125 L 360 498 L 186 498 Z M 186 0.203125 " clip-rule="nonzero"/></clipPath><clipPath id="de47773424"><path d="M 203 0.203125 L 360 0.203125 L 360 498 L 203 498 Z M 203 0.203125 " clip-rule="nonzero"/></clipPath><clipPath id="dc5c87da43"><path d="M 221 0.203125 L 360 0.203125 L 360 498 L 221 498 Z M 221 0.203125 " clip-rule="nonzero"/></clipPath><clipPath id="15c238cccf"><rect x="0" width="360" y="0" height="498"/></clipPath><mask id="feee6f6ba7"><g filter="url(#514b1ab2c5)"><rect x="-36" width="432" fill="#000000" y="-50.399998" height="604.799979" fill-opacity="0.1373"/></g></mask><clipPath id="ba118fdd43"><path d="M 0.222656 1 L 122 1 L 122 501.648438 L 0.222656 501.648438 Z M 0.222656 1 " clip-rule="nonzero"/></clipPath><clipPath id="c708003477"><path d="M 17 1 L 122 1 L 122 501.648438 L 17 501.648438 Z M 17 1 " clip-rule="nonzero"/></clipPath><clipPath id="21f792a48f"><path d="M 35 1 L 122 1 L 122 501.648438 L 35 501.648438 Z M 35 1 " clip-rule="nonzero"/></clipPath><clipPath id="f594a746c3"><path d="M 52 1 L 122 1 L 122 501.648438 L 52 501.648438 Z M 52 1 " clip-rule="nonzero"/></clipPath><clipPath id="c7d32d1545"><path d="M 70 1 L 122 1 L 122 501.648438 L 70 501.648438 Z M 70 1 " clip-rule="nonzero"/></clipPath><clipPath id="159e5d6b93"><path d="M 87 1 L 122 1 L 122 501.648438 L 87 501.648438 Z M 87 1 " clip-rule="nonzero"/></clipPath><clipPath id="15ac034124"><path d="M 104 1 L 122 1 L 122 501.648438 L 104 501.648438 Z M 104 1 " clip-rule="nonzero"/></clipPath><clipPath id="34e0b55b8c"><rect x="0" width="122" y="0" height="502"/></clipPath><clipPath id="1145d2bf7d"><path d="M 28.015625 36 L 331.765625 36 L 331.765625 468 L 28.015625 468 Z M 28.015625 36 " clip-rule="nonzero"/></clipPath><clipPath id="41f95e2986"><path d="M 126.242188 249 L 229.792969 249 L 229.792969 260.570312 L 126.242188 260.570312 Z M 126.242188 249 " clip-rule="nonzero"/></clipPath><clipPath id="50ef51e1f5"><path d="M 95.558594 165.804688 L 264.308594 165.804688 L 264.308594 252 L 95.558594 252 Z M 95.558594 165.804688 " clip-rule="nonzero"/></clipPath><clipPath id="317e30967a"><path d="M 85.703125 87.394531 L 138.519531 87.394531 L 138.519531 136.273438 L 85.703125 136.273438 Z M 85.703125 87.394531 " clip-rule="nonzero"/></clipPath><clipPath id="4bdd952827"><path d="M 100 97 L 114 97 L 114 140 L 100 140 Z M 100 97 " clip-rule="nonzero"/></clipPath><clipPath id="4f07a007e6"><path d="M 109.210938 140.0625 L 84.066406 123.070312 L 101.445312 97.351562 L 126.589844 114.339844 Z M 109.210938 140.0625 " clip-rule="nonzero"/></clipPath><clipPath id="decf8e77c7"><path d="M 109.210938 140.0625 L 80.804688 120.867188 L 101.292969 90.539062 L 129.703125 109.734375 Z M 109.210938 140.0625 " clip-rule="nonzero"/></clipPath><clipPath id="722dec6e5e"><path d="M 221.925781 87.394531 L 274.746094 87.394531 L 274.746094 136.273438 L 221.925781 136.273438 Z M 221.925781 87.394531 " clip-rule="nonzero"/></clipPath><clipPath id="dabb5091d8"><path d="M 237 97 L 250 97 L 250 140 L 237 140 Z M 237 97 " clip-rule="nonzero"/></clipPath><clipPath id="d27e64a99d"><path d="M 245.4375 140.0625 L 220.292969 123.070312 L 237.671875 97.351562 L 262.816406 114.339844 Z M 245.4375 140.0625 " clip-rule="nonzero"/></clipPath><clipPath id="bc7a1b8c1c"><path d="M 245.4375 140.0625 L 217.027344 120.867188 L 237.519531 90.539062 L 265.929688 109.734375 Z M 245.4375 140.0625 " clip-rule="nonzero"/></clipPath><clipPath id="41a790b187"><path d="M 107.867188 274.328125 L 256.851562 274.328125 L 256.851562 412.203125 L 107.867188 412.203125 Z M 107.867188 274.328125 " clip-rule="nonzero"/></clipPath><clipPath id="c4ddc81e1d"><path d="M 150 302 L 187 302 L 187 422 L 150 422 Z M 150 302 " clip-rule="nonzero"/></clipPath><clipPath id="2c54ec051b"><path d="M 174.179688 422.882812 L 103.25 374.960938 L 152.273438 302.40625 L 223.199219 350.332031 Z M 174.179688 422.882812 " clip-rule="nonzero"/></clipPath><clipPath id="a07f844c29"><path d="M 174.179688 422.882812 L 94.046875 368.742188 L 151.847656 283.195312 L 231.980469 337.335938 Z M 174.179688 422.882812 " clip-rule="nonzero"/></clipPath></defs><rect x="-36" width="432" fill="#ffffff" y="-50.399998" height="604.799979" fill-opacity="1"/><rect x="-36" width="432" fill="#323232" y="-50.399998" height="604.799979" fill-opacity="1"/><g mask="url(#565533284c)"><g transform="matrix(1, 0, 0, 1, 0, 0)"><g clip-path="url(#9b180e7f3c)"><g clip-path="url(#c71b38bc24)"><path fill="#000000" d="M -217.589844 432.296875 L -219.066406 431.664062 L -1.417969 -67.574219 L 0.0507812 -66.9375 Z M -217.589844 432.296875 " fill-opacity="1" fill-rule="nonzero"/></g><g clip-path="url(#b5f7962435)"><path fill="#000000" d="M -200.175781 432.296875 L -201.652344 431.664062 L 15.992188 -67.574219 L 17.460938 -66.9375 Z M -200.175781 432.296875 " fill-opacity="1" fill-rule="nonzero"/></g><g clip-path="url(#0eaec720ec)"><path fill="#000000" d="M -182.765625 432.296875 L -184.242188 431.664062 L 33.40625 -67.574219 L 34.875 -66.9375 Z M -182.765625 432.296875 " fill-opacity="1" fill-rule="nonzero"/></g><g clip-path="url(#0288d9860b)"><path fill="#000000" d="M -165.359375 432.296875 L -166.828125 431.664062 L 50.816406 -67.574219 L 52.289062 -66.9375 Z M -165.359375 432.296875 " fill-opacity="1" fill-rule="nonzero"/></g><g clip-path="url(#40a799aae9)"><path fill="#000000" d="M -147.945312 432.296875 L -149.421875 431.664062 L 68.222656 -67.574219 L 69.699219 -66.9375 Z M -147.945312 432.296875 " fill-opacity="1" fill-rule="nonzero"/></g><g clip-path="url(#e3c9898394)"><path fill="#000000" d="M -130.535156 432.296875 L -132.011719 431.664062 L 85.636719 -67.574219 L 87.113281 -66.9375 Z M -130.535156 432.296875 " fill-opacity="1" fill-rule="nonzero"/></g><g clip-path="url(#f553864fec)"><path fill="#000000" d="M -113.121094 432.296875 L -114.597656 431.664062 L 103.050781 -67.574219 L 104.523438 -66.9375 Z M -113.121094 432.296875 " fill-opacity="1" fill-rule="nonzero"/></g><g clip-path="url(#3b8fed8c79)"><path fill="#000000" d="M -95.707031 432.296875 L -97.183594 431.664062 L 120.460938 -67.574219 L 121.929688 -66.9375 Z M -95.707031 432.296875 " fill-opacity="1" fill-rule="nonzero"/></g><g clip-path="url(#7b5f42b3b9)"><path fill="#000000" d="M -78.304688 432.296875 L -79.773438 431.664062 L 137.875 -67.574219 L 139.34375 -66.9375 Z M -78.304688 432.296875 " fill-opacity="1" fill-rule="nonzero"/></g><g clip-path="url(#f50db8856a)"><path fill="#000000" d="M -60.890625 432.296875 L -62.359375 431.664062 L 155.28125 -67.574219 L 156.757812 -66.9375 Z M -60.890625 432.296875 " fill-opacity="1" fill-rule="nonzero"/></g><g clip-path="url(#c7c7fe9f32)"><path fill="#000000" d="M -43.476562 432.296875 L -44.949219 431.664062 L 172.691406 -67.574219 L 174.167969 -66.9375 Z M -43.476562 432.296875 " fill-opacity="1" fill-rule="nonzero"/></g><g clip-path="url(#17f2529774)"><path fill="#000000" d="M -26.066406 432.296875 L -27.535156 431.664062 L 190.105469 -67.574219 L 191.582031 -66.9375 Z M -26.066406 432.296875 " fill-opacity="1" fill-rule="nonzero"/></g><g clip-path="url(#d58f45330d)"><path fill="#000000" d="M -8.652344 432.296875 L -10.128906 431.664062 L 207.515625 -67.574219 L 208.992188 -66.9375 Z M -8.652344 432.296875 " fill-opacity="1" fill-rule="nonzero"/></g></g></g></g><g mask="url(#2f48eacf9f)"><g transform="matrix(1, 0, 0, 1, 0, 6)"><g clip-path="url(#15c238cccf)"><g clip-path="url(#7553743dfa)"><path fill="#000000" d="M -21.167969 500.652344 L -22.636719 500.015625 L 195.003906 0.78125 L 196.480469 1.414062 Z M -21.167969 500.652344 " fill-opacity="1" fill-rule="nonzero"/></g><g clip-path="url(#61dcd6aed1)"><path fill="#000000" d="M -3.753906 500.652344 L -5.230469 500.015625 L 212.414062 0.78125 L 213.890625 1.414062 Z M -3.753906 500.652344 " fill-opacity="1" fill-rule="nonzero"/></g><g clip-path="url(#cd5f3723fb)"><path fill="#000000" d="M 13.65625 500.652344 L 12.183594 500.015625 L 229.828125 0.78125 L 231.296875 1.414062 Z M 13.65625 500.652344 " fill-opacity="1" fill-rule="nonzero"/></g><g clip-path="url(#01a68091d9)"><path fill="#000000" d="M 31.070312 500.652344 L 29.59375 500.015625 L 247.242188 0.78125 L 248.710938 1.414062 Z M 31.070312 500.652344 " fill-opacity="1" fill-rule="nonzero"/></g><g clip-path="url(#40560aa47e)"><path fill="#000000" d="M 48.484375 500.652344 L 47.007812 500.015625 L 264.652344 0.78125 L 266.125 1.414062 Z M 48.484375 500.652344 " fill-opacity="1" fill-rule="nonzero"/></g><g clip-path="url(#996f89e1ef)"><path fill="#000000" d="M 65.890625 500.652344 L 64.417969 500.015625 L 282.066406 0.78125 L 283.535156 1.414062 Z M 65.890625 500.652344 " fill-opacity="1" fill-rule="nonzero"/></g><g clip-path="url(#0779efa301)"><path fill="#000000" d="M 83.300781 500.652344 L 81.824219 500.015625 L 299.472656 0.78125 L 300.949219 1.414062 Z M 83.300781 500.652344 " fill-opacity="1" fill-rule="nonzero"/></g><g clip-path="url(#9869b40b93)"><path fill="#000000" d="M 100.714844 500.652344 L 99.238281 500.015625 L 316.882812 0.78125 L 318.359375 1.414062 Z M 100.714844 500.652344 " fill-opacity="1" fill-rule="nonzero"/></g><g clip-path="url(#dac49042b5)"><path fill="#000000" d="M 118.125 500.652344 L 116.652344 500.015625 L 334.296875 0.78125 L 335.773438 1.414062 Z M 118.125 500.652344 " fill-opacity="1" fill-rule="nonzero"/></g><g clip-path="url(#e4614748c4)"><path fill="#000000" d="M 135.539062 500.652344 L 134.0625 500.015625 L 351.710938 0.78125 L 353.179688 1.414062 Z M 135.539062 500.652344 " fill-opacity="1" fill-rule="nonzero"/></g><g clip-path="url(#9e9f3515cb)"><path fill="#000000" d="M 152.945312 500.652344 L 151.476562 500.015625 L 369.121094 0.78125 L 370.589844 1.414062 Z M 152.945312 500.652344 " fill-opacity="1" fill-rule="nonzero"/></g><g clip-path="url(#b932a87e44)"><path fill="#000000" d="M 170.359375 500.652344 L 168.886719 500.015625 L 386.527344 0.78125 L 388.003906 1.414062 Z M 170.359375 500.652344 " fill-opacity="1" fill-rule="nonzero"/></g><g clip-path="url(#0ad9253c9d)"><path fill="#000000" d="M 187.769531 500.652344 L 186.300781 500.015625 L 403.941406 0.78125 L 405.417969 1.414062 Z M 187.769531 500.652344 " fill-opacity="1" fill-rule="nonzero"/></g><g clip-path="url(#de47773424)"><path fill="#000000" d="M 205.183594 500.652344 L 203.710938 500.015625 L 421.351562 0.78125 L 422.828125 1.414062 Z M 205.183594 500.652344 " fill-opacity="1" fill-rule="nonzero"/></g><g clip-path="url(#dc5c87da43)"><path fill="#000000" d="M 222.59375 500.652344 L 221.117188 500.015625 L 438.765625 0.78125 L 440.242188 1.414062 Z M 222.59375 500.652344 " fill-opacity="1" fill-rule="nonzero"/></g></g></g></g><g mask="url(#feee6f6ba7)"><g transform="matrix(1, 0, 0, 1, 238, 2)"><g clip-path="url(#34e0b55b8c)"><g clip-path="url(#ba118fdd43)"><path fill="#000000" d="M 1.832031 501.097656 L 0.363281 500.460938 L 218.003906 1.226562 L 219.480469 1.859375 Z M 1.832031 501.097656 " fill-opacity="1" fill-rule="nonzero"/></g><g clip-path="url(#c708003477)"><path fill="#000000" d="M 19.246094 501.097656 L 17.769531 500.460938 L 235.414062 1.226562 L 236.890625 1.859375 Z M 19.246094 501.097656 " fill-opacity="1" fill-rule="nonzero"/></g><g clip-path="url(#21f792a48f)"><path fill="#000000" d="M 36.65625 501.097656 L 35.183594 500.460938 L 252.828125 1.226562 L 254.296875 1.859375 Z M 36.65625 501.097656 " fill-opacity="1" fill-rule="nonzero"/></g><g clip-path="url(#f594a746c3)"><path fill="#000000" d="M 54.070312 501.097656 L 52.59375 500.460938 L 270.242188 1.226562 L 271.710938 1.859375 Z M 54.070312 501.097656 " fill-opacity="1" fill-rule="nonzero"/></g><g clip-path="url(#c7d32d1545)"><path fill="#000000" d="M 71.484375 501.097656 L 70.007812 500.460938 L 287.652344 1.226562 L 289.125 1.859375 Z M 71.484375 501.097656 " fill-opacity="1" fill-rule="nonzero"/></g><g clip-path="url(#159e5d6b93)"><path fill="#000000" d="M 88.890625 501.097656 L 87.417969 500.460938 L 305.066406 1.226562 L 306.535156 1.859375 Z M 88.890625 501.097656 " fill-opacity="1" fill-rule="nonzero"/></g><g clip-path="url(#15ac034124)"><path fill="#000000" d="M 106.300781 501.097656 L 104.824219 500.460938 L 322.472656 1.226562 L 323.949219 1.859375 Z M 106.300781 501.097656 " fill-opacity="1" fill-rule="nonzero"/></g></g></g></g><g clip-path="url(#1145d2bf7d)"><path fill="#00bf63" d="M 331.601562 467.976562 L 28.1875 467.976562 L 28.1875 36 L 331.601562 36 Z M 29.066406 467.097656 L 330.722656 467.097656 L 330.722656 36.878906 L 29.066406 36.878906 Z M 29.066406 467.097656 " fill-opacity="1" fill-rule="nonzero"/></g><g clip-path="url(#41f95e2986)"><path fill="#00bf63" d="M 229.371094 256.066406 L 228.277344 260.570312 C 195.273438 252.445312 160.804688 252.445312 127.800781 260.570312 L 126.707031 256.066406 C 160.429688 247.746094 195.664062 247.746094 229.386719 256.066406 L 229.371094 256.066406 " fill-opacity="1" fill-rule="nonzero"/></g><g clip-path="url(#50ef51e1f5)"><path fill="#00bf63" d="M 101.851562 193.304688 C 111.15625 205.976562 123.679688 215.9375 138.105469 222.136719 C 136.113281 212.269531 135.125 202.207031 135.15625 192.132812 C 132.878906 192.65625 130.601562 191.230469 130.074219 188.949219 C 129.550781 186.648438 130.960938 184.382812 133.253906 183.855469 C 135.53125 183.316406 137.804688 184.742188 138.332031 187.039062 C 138.796875 189.050781 137.730469 191.125 135.8125 191.90625 C 141.402344 201.429688 148.367188 210.0625 156.519531 217.496094 C 166.136719 206.070312 173.851562 193.167969 179.394531 179.277344 C 175.679688 178.960938 172.9375 175.6875 173.253906 171.976562 C 173.566406 168.253906 176.832031 165.503906 180.535156 165.820312 C 184.234375 166.132812 186.992188 169.410156 186.675781 173.117188 C 186.390625 176.390625 183.800781 178.992188 180.535156 179.277344 C 186.0625 193.167969 193.792969 206.070312 203.410156 217.496094 C 211.542969 210.0625 218.527344 201.429688 224.097656 191.90625 C 221.941406 191.003906 220.9375 188.511719 221.835938 186.347656 C 222.734375 184.1875 225.222656 183.179688 227.378906 184.082031 C 229.539062 184.984375 230.554688 187.476562 229.65625 189.636719 C 228.847656 191.5625 226.78125 192.613281 224.757812 192.132812 C 224.789062 202.207031 223.800781 212.269531 221.792969 222.136719 C 236.234375 215.9375 248.742188 205.976562 258.0625 193.304688 C 256.007812 192.160156 255.273438 189.578125 256.398438 187.519531 C 257.539062 185.476562 260.113281 184.726562 262.167969 185.867188 C 264.203125 187.011719 264.953125 189.59375 263.816406 191.636719 C 262.765625 193.542969 260.457031 194.339844 258.464844 193.5 L 233.3125 251.035156 C 198.257812 242.382812 161.640625 242.382812 126.601562 251.035156 L 101.445312 193.5 C 99.289062 194.414062 96.800781 193.394531 95.886719 191.230469 C 94.988281 189.066406 95.992188 186.589844 98.152344 185.671875 C 100.308594 184.757812 102.796875 185.777344 103.695312 187.941406 C 104.546875 189.9375 103.738281 192.25 101.851562 193.304688 " fill-opacity="1" fill-rule="nonzero"/></g><g clip-path="url(#317e30967a)"><path fill="#00bf63" d="M 124.636719 136.269531 C 132.28125 136.269531 138.484375 130.0625 138.484375 122.414062 C 138.484375 106.851562 122.796875 102.773438 112.105469 87.390625 C 102 102.675781 85.730469 107.351562 85.730469 122.414062 C 85.730469 130.0625 91.933594 136.269531 99.578125 136.269531 C 105.125 136.269531 109.894531 132.992188 112.105469 128.28125 C 114.316406 132.992188 119.089844 136.269531 124.636719 136.269531 Z M 124.636719 136.269531 " fill-opacity="1" fill-rule="nonzero"/></g><g clip-path="url(#4bdd952827)"><g clip-path="url(#4f07a007e6)"><g clip-path="url(#decf8e77c7)"><path fill="#00bf63" d="M 101.636719 91.003906 C 101.660156 91.015625 101.679688 91.035156 101.699219 91.050781 C 113.777344 102.082031 117.195312 122.820312 109.65625 139.289062 C 109.59375 139.425781 109.492188 139.519531 109.351562 139.570312 C 109.214844 139.625 109.074219 139.617188 108.941406 139.558594 C 108.804688 139.496094 108.710938 139.394531 108.660156 139.253906 C 108.605469 139.113281 108.609375 138.976562 108.671875 138.839844 C 116.023438 122.78125 112.710938 102.582031 100.964844 91.855469 C 100.863281 91.757812 100.804688 91.640625 100.792969 91.5 C 100.78125 91.355469 100.820312 91.230469 100.90625 91.117188 C 100.996094 91.007812 101.109375 90.9375 101.25 90.917969 C 101.390625 90.894531 101.519531 90.921875 101.636719 91.003906 Z M 101.636719 91.003906 " fill-opacity="1" fill-rule="nonzero"/></g></g></g><g clip-path="url(#722dec6e5e)"><path fill="#00bf63" d="M 260.859375 136.269531 C 268.507812 136.269531 274.710938 130.0625 274.710938 122.414062 C 274.710938 106.851562 259.023438 102.773438 248.332031 87.390625 C 238.226562 102.675781 221.953125 107.351562 221.953125 122.414062 C 221.953125 130.0625 228.160156 136.269531 235.804688 136.269531 C 241.347656 136.269531 246.121094 132.992188 248.332031 128.28125 C 250.542969 132.992188 255.316406 136.269531 260.859375 136.269531 Z M 260.859375 136.269531 " fill-opacity="1" fill-rule="nonzero"/></g><g clip-path="url(#dabb5091d8)"><g clip-path="url(#d27e64a99d)"><g clip-path="url(#bc7a1b8c1c)"><path fill="#00bf63" d="M 237.863281 91.003906 C 237.882812 91.015625 237.90625 91.035156 237.925781 91.050781 C 250 102.082031 253.421875 122.820312 245.882812 139.289062 C 245.820312 139.425781 245.71875 139.519531 245.578125 139.570312 C 245.4375 139.625 245.300781 139.617188 245.164062 139.558594 C 245.03125 139.496094 244.9375 139.394531 244.882812 139.253906 C 244.832031 139.113281 244.835938 138.976562 244.898438 138.839844 C 252.25 122.78125 248.9375 102.582031 237.191406 91.855469 C 237.085938 91.757812 237.03125 91.640625 237.019531 91.5 C 237.007812 91.355469 237.042969 91.230469 237.132812 91.117188 C 237.222656 91.007812 237.335938 90.9375 237.476562 90.917969 C 237.617188 90.894531 237.746094 90.921875 237.863281 91.003906 Z M 237.863281 91.003906 " fill-opacity="1" fill-rule="nonzero"/></g></g></g><g clip-path="url(#41a790b187)"><path fill="#00bf63" d="M 217.6875 412.1875 C 239.253906 412.1875 256.753906 394.675781 256.753906 373.101562 C 256.753906 329.207031 212.503906 317.699219 182.347656 274.308594 C 153.839844 317.433594 107.941406 330.609375 107.941406 373.101562 C 107.941406 394.675781 125.445312 412.1875 147.007812 412.1875 C 162.648438 412.1875 176.113281 402.945312 182.347656 389.652344 C 188.585938 402.945312 202.046875 412.1875 217.6875 412.1875 Z M 217.6875 412.1875 " fill-opacity="1" fill-rule="nonzero"/></g><g clip-path="url(#c4ddc81e1d)"><g clip-path="url(#2c54ec051b)"><g clip-path="url(#a07f844c29)"><path fill="#00bf63" d="M 152.8125 284.5 C 152.875 284.539062 152.933594 284.585938 152.988281 284.636719 C 187.054688 315.75 196.707031 374.246094 175.441406 420.707031 C 175.355469 420.890625 175.238281 421.050781 175.089844 421.191406 C 174.941406 421.328125 174.769531 421.429688 174.582031 421.5 C 174.390625 421.570312 174.195312 421.605469 173.996094 421.597656 C 173.792969 421.589844 173.597656 421.542969 173.414062 421.460938 C 173.230469 421.375 173.070312 421.261719 172.933594 421.113281 C 172.796875 420.964844 172.691406 420.796875 172.621094 420.605469 C 172.550781 420.417969 172.519531 420.222656 172.523438 420.019531 C 172.53125 419.816406 172.578125 419.625 172.660156 419.4375 C 193.398438 374.136719 184.050781 317.160156 150.925781 286.902344 C 150.78125 286.773438 150.667969 286.621094 150.582031 286.449219 C 150.5 286.273438 150.449219 286.089844 150.433594 285.898438 C 150.417969 285.707031 150.4375 285.515625 150.492188 285.332031 C 150.550781 285.144531 150.636719 284.976562 150.757812 284.824219 C 150.875 284.671875 151.019531 284.546875 151.1875 284.449219 C 151.351562 284.351562 151.53125 284.289062 151.722656 284.257812 C 151.914062 284.226562 152.101562 284.234375 152.292969 284.273438 C 152.480469 284.316406 152.652344 284.390625 152.8125 284.5 Z M 152.8125 284.5 " fill-opacity="1" fill-rule="nonzero"/></g></g></g></svg>