<svg xmlns="http://www.w3.org/2000/svg" xmlns:xlink="http://www.w3.org/1999/xlink" width="480" zoomAndPan="magnify" viewBox="0 0 360 503.999982" height="672" preserveAspectRatio="xMidYMid meet" version="1.0"><defs><filter x="0%" y="0%" width="100%" height="100%" id="699dc99435"><feColorMatrix values="0 0 0 0 1 0 0 0 0 1 0 0 0 0 1 0 0 0 1 0" color-interpolation-filters="sRGB"/></filter><g/><mask id="34a8844f87"><g filter="url(#699dc99435)"><rect x="-36" width="432" fill="#000000" y="-50.399998" height="604.799979" fill-opacity="0.1373"/></g></mask><clipPath id="60a1e5b5c7"><path d="M 0 0 L 1 0 L 1 432.847656 L 0 432.847656 Z M 0 0 " clip-rule="nonzero"/></clipPath><clipPath id="32ff9c6edc"><path d="M 0 0 L 18 0 L 18 432.847656 L 0 432.847656 Z M 0 0 " clip-rule="nonzero"/></clipPath><clipPath id="2adce525cf"><path d="M 0 0 L 35 0 L 35 432.847656 L 0 432.847656 Z M 0 0 " clip-rule="nonzero"/></clipPath><clipPath id="a1f71d38a1"><path d="M 0 0 L 53 0 L 53 432.847656 L 0 432.847656 Z M 0 0 " clip-rule="nonzero"/></clipPath><clipPath id="c1cd6589cc"><path d="M 0 0 L 70 0 L 70 432.847656 L 0 432.847656 Z M 0 0 " clip-rule="nonzero"/></clipPath><clipPath id="567a075fb3"><path d="M 0 0 L 88 0 L 88 432.847656 L 0 432.847656 Z M 0 0 " clip-rule="nonzero"/></clipPath><clipPath id="d313390940"><path d="M 0 0 L 105 0 L 105 432.847656 L 0 432.847656 Z M 0 0 " clip-rule="nonzero"/></clipPath><clipPath id="e402a70ecc"><path d="M 0 0 L 122 0 L 122 432.847656 L 0 432.847656 Z M 0 0 " clip-rule="nonzero"/></clipPath><clipPath id="06b69f4d85"><path d="M 0 0 L 140 0 L 140 432.847656 L 0 432.847656 Z M 0 0 " clip-rule="nonzero"/></clipPath><clipPath id="276f3591d0"><path d="M 0 0 L 157 0 L 157 432.847656 L 0 432.847656 Z M 0 0 " clip-rule="nonzero"/></clipPath><clipPath id="521abb674a"><path d="M 0 0 L 175 0 L 175 432.847656 L 0 432.847656 Z M 0 0 " clip-rule="nonzero"/></clipPath><clipPath id="5e788f5f46"><path d="M 0 0 L 192 0 L 192 432.847656 L 0 432.847656 Z M 0 0 " clip-rule="nonzero"/></clipPath><clipPath id="4f104fc2e5"><path d="M 0 0 L 208.722656 0 L 208.722656 432.847656 L 0 432.847656 Z M 0 0 " clip-rule="nonzero"/></clipPath><clipPath id="54509d384d"><rect x="0" width="209" y="0" height="434"/></clipPath><mask id="b1561bd429"><g filter="url(#699dc99435)"><rect x="-36" width="432" fill="#000000" y="-50.399998" height="604.799979" fill-opacity="0.1373"/></g></mask><clipPath id="dc459599de"><path d="M 0 0.203125 L 197 0.203125 L 197 498 L 0 498 Z M 0 0.203125 " clip-rule="nonzero"/></clipPath><clipPath id="aaba3d072e"><path d="M 0 0.203125 L 214 0.203125 L 214 498 L 0 498 Z M 0 0.203125 " clip-rule="nonzero"/></clipPath><clipPath id="7b050f7c88"><path d="M 12 0.203125 L 232 0.203125 L 232 498 L 12 498 Z M 12 0.203125 " clip-rule="nonzero"/></clipPath><clipPath id="98b9771eb3"><path d="M 29 0.203125 L 249 0.203125 L 249 498 L 29 498 Z M 29 0.203125 " clip-rule="nonzero"/></clipPath><clipPath id="527fab0141"><path d="M 47 0.203125 L 267 0.203125 L 267 498 L 47 498 Z M 47 0.203125 " clip-rule="nonzero"/></clipPath><clipPath id="ec5acca3f9"><path d="M 64 0.203125 L 284 0.203125 L 284 498 L 64 498 Z M 64 0.203125 " clip-rule="nonzero"/></clipPath><clipPath id="6b91c5037b"><path d="M 81 0.203125 L 301 0.203125 L 301 498 L 81 498 Z M 81 0.203125 " clip-rule="nonzero"/></clipPath><clipPath id="09b4bc36f4"><path d="M 99 0.203125 L 319 0.203125 L 319 498 L 99 498 Z M 99 0.203125 " clip-rule="nonzero"/></clipPath><clipPath id="2ff2b6e6bc"><path d="M 116 0.203125 L 336 0.203125 L 336 498 L 116 498 Z M 116 0.203125 " clip-rule="nonzero"/></clipPath><clipPath id="175c6c3b60"><path d="M 134 0.203125 L 354 0.203125 L 354 498 L 134 498 Z M 134 0.203125 " clip-rule="nonzero"/></clipPath><clipPath id="da6c4e99af"><path d="M 151 0.203125 L 360 0.203125 L 360 498 L 151 498 Z M 151 0.203125 " clip-rule="nonzero"/></clipPath><clipPath id="959c6a3a94"><path d="M 168 0.203125 L 360 0.203125 L 360 498 L 168 498 Z M 168 0.203125 " clip-rule="nonzero"/></clipPath><clipPath id="5fa64fdb71"><path d="M 186 0.203125 L 360 0.203125 L 360 498 L 186 498 Z M 186 0.203125 " clip-rule="nonzero"/></clipPath><clipPath id="bf1f87ac72"><path d="M 203 0.203125 L 360 0.203125 L 360 498 L 203 498 Z M 203 0.203125 " clip-rule="nonzero"/></clipPath><clipPath id="dc8080050b"><path d="M 221 0.203125 L 360 0.203125 L 360 498 L 221 498 Z M 221 0.203125 " clip-rule="nonzero"/></clipPath><clipPath id="44e574d2f4"><rect x="0" width="360" y="0" height="498"/></clipPath><clipPath id="6d792bb7c4"><path d="M 28.015625 36 L 331.765625 36 L 331.765625 468 L 28.015625 468 Z M 28.015625 36 " clip-rule="nonzero"/></clipPath><mask id="9f7b756c3c"><g filter="url(#699dc99435)"><rect x="-36" width="432" fill="#000000" y="-50.399998" height="604.799979" fill-opacity="0.1373"/></g></mask><clipPath id="f2ba5a3c02"><path d="M 0.222656 1 L 122 1 L 122 501.648438 L 0.222656 501.648438 Z M 0.222656 1 " clip-rule="nonzero"/></clipPath><clipPath id="168cc41bb7"><path d="M 17 1 L 122 1 L 122 501.648438 L 17 501.648438 Z M 17 1 " clip-rule="nonzero"/></clipPath><clipPath id="6924514fcd"><path d="M 35 1 L 122 1 L 122 501.648438 L 35 501.648438 Z M 35 1 " clip-rule="nonzero"/></clipPath><clipPath id="b34e1fb81a"><path d="M 52 1 L 122 1 L 122 501.648438 L 52 501.648438 Z M 52 1 " clip-rule="nonzero"/></clipPath><clipPath id="25c13453cb"><path d="M 70 1 L 122 1 L 122 501.648438 L 70 501.648438 Z M 70 1 " clip-rule="nonzero"/></clipPath><clipPath id="1623bcc7ad"><path d="M 87 1 L 122 1 L 122 501.648438 L 87 501.648438 Z M 87 1 " clip-rule="nonzero"/></clipPath><clipPath id="66d03f4b8e"><path d="M 104 1 L 122 1 L 122 501.648438 L 104 501.648438 Z M 104 1 " clip-rule="nonzero"/></clipPath><clipPath id="cec8133a17"><rect x="0" width="122" y="0" height="502"/></clipPath><clipPath id="60e1fbe2cc"><path d="M 221.925781 378.789062 L 274.746094 378.789062 L 274.746094 427.667969 L 221.925781 427.667969 Z M 221.925781 378.789062 " clip-rule="nonzero"/></clipPath><clipPath id="219a3169ec"><path d="M 237 388 L 250 388 L 250 431 L 237 431 Z M 237 388 " clip-rule="nonzero"/></clipPath><clipPath id="65bb3990db"><path d="M 245.4375 431.453125 L 220.292969 414.464844 L 237.671875 388.742188 L 262.816406 405.730469 Z M 245.4375 431.453125 " clip-rule="nonzero"/></clipPath><clipPath id="6cc56c5595"><path d="M 245.4375 431.453125 L 217.027344 412.257812 L 237.519531 381.929688 L 265.929688 401.125 Z M 245.4375 431.453125 " clip-rule="nonzero"/></clipPath><clipPath id="fa870a4a46"><path d="M 221.925781 313.367188 L 274.746094 313.367188 L 274.746094 362.246094 L 221.925781 362.246094 Z M 221.925781 313.367188 " clip-rule="nonzero"/></clipPath><clipPath id="a44a46191d"><path d="M 237 323 L 250 323 L 250 366 L 237 366 Z M 237 323 " clip-rule="nonzero"/></clipPath><clipPath id="929ac0f627"><path d="M 245.4375 366.03125 L 220.292969 349.042969 L 237.671875 323.324219 L 262.816406 340.3125 Z M 245.4375 366.03125 " clip-rule="nonzero"/></clipPath><clipPath id="8168cd5ec5"><path d="M 245.4375 366.03125 L 217.027344 346.839844 L 237.519531 316.511719 L 265.929688 335.707031 Z M 245.4375 366.03125 " clip-rule="nonzero"/></clipPath><clipPath id="dc43d51c69"><path d="M 221.925781 247.949219 L 274.746094 247.949219 L 274.746094 296.828125 L 221.925781 296.828125 Z M 221.925781 247.949219 " clip-rule="nonzero"/></clipPath><clipPath id="cd67f2d1bf"><path d="M 237 257 L 250 257 L 250 301 L 237 301 Z M 237 257 " clip-rule="nonzero"/></clipPath><clipPath id="d4ed3ce907"><path d="M 245.4375 300.613281 L 220.292969 283.625 L 237.671875 257.902344 L 262.816406 274.890625 Z M 245.4375 300.613281 " clip-rule="nonzero"/></clipPath><clipPath id="48fdf75c1f"><path d="M 245.4375 300.613281 L 217.027344 281.417969 L 237.519531 251.089844 L 265.929688 270.285156 Z M 245.4375 300.613281 " clip-rule="nonzero"/></clipPath><clipPath id="8eb25c5675"><path d="M 221.925781 182.527344 L 274.746094 182.527344 L 274.746094 231.40625 L 221.925781 231.40625 Z M 221.925781 182.527344 " clip-rule="nonzero"/></clipPath><clipPath id="8fa7f687ab"><path d="M 237 192 L 250 192 L 250 235 L 237 235 Z M 237 192 " clip-rule="nonzero"/></clipPath><clipPath id="33694b0da3"><path d="M 245.4375 235.191406 L 220.292969 218.203125 L 237.671875 192.484375 L 262.816406 209.472656 Z M 245.4375 235.191406 " clip-rule="nonzero"/></clipPath><clipPath id="d08201c836"><path d="M 245.4375 235.191406 L 217.027344 216 L 237.519531 185.671875 L 265.929688 204.867188 Z M 245.4375 235.191406 " clip-rule="nonzero"/></clipPath><clipPath id="dd71a19476"><path d="M 86.925781 378.789062 L 139.746094 378.789062 L 139.746094 427.667969 L 86.925781 427.667969 Z M 86.925781 378.789062 " clip-rule="nonzero"/></clipPath><clipPath id="9fb9aa936a"><path d="M 102 388 L 115 388 L 115 431 L 102 431 Z M 102 388 " clip-rule="nonzero"/></clipPath><clipPath id="92ec474eb9"><path d="M 110.4375 431.453125 L 85.292969 414.464844 L 102.671875 388.742188 L 127.816406 405.730469 Z M 110.4375 431.453125 " clip-rule="nonzero"/></clipPath><clipPath id="9dcdb0680d"><path d="M 110.4375 431.453125 L 82.027344 412.257812 L 102.519531 381.929688 L 130.929688 401.125 Z M 110.4375 431.453125 " clip-rule="nonzero"/></clipPath><clipPath id="59def96405"><path d="M 86.925781 313.367188 L 139.746094 313.367188 L 139.746094 362.246094 L 86.925781 362.246094 Z M 86.925781 313.367188 " clip-rule="nonzero"/></clipPath><clipPath id="0a576f2069"><path d="M 102 323 L 115 323 L 115 366 L 102 366 Z M 102 323 " clip-rule="nonzero"/></clipPath><clipPath id="e3a67be0c1"><path d="M 110.4375 366.03125 L 85.292969 349.042969 L 102.671875 323.324219 L 127.816406 340.3125 Z M 110.4375 366.03125 " clip-rule="nonzero"/></clipPath><clipPath id="220dc20565"><path d="M 110.4375 366.03125 L 82.027344 346.839844 L 102.519531 316.511719 L 130.929688 335.707031 Z M 110.4375 366.03125 " clip-rule="nonzero"/></clipPath><clipPath id="18b512eda8"><path d="M 86.925781 247.949219 L 139.746094 247.949219 L 139.746094 296.828125 L 86.925781 296.828125 Z M 86.925781 247.949219 " clip-rule="nonzero"/></clipPath><clipPath id="378cabab55"><path d="M 102 257 L 115 257 L 115 301 L 102 301 Z M 102 257 " clip-rule="nonzero"/></clipPath><clipPath id="c4e5d3e7c4"><path d="M 110.4375 300.613281 L 85.292969 283.625 L 102.671875 257.902344 L 127.816406 274.890625 Z M 110.4375 300.613281 " clip-rule="nonzero"/></clipPath><clipPath id="fd35c6b415"><path d="M 110.4375 300.613281 L 82.027344 281.417969 L 102.519531 251.089844 L 130.929688 270.285156 Z M 110.4375 300.613281 " clip-rule="nonzero"/></clipPath><clipPath id="b6d0f848a6"><path d="M 86.925781 182.527344 L 139.746094 182.527344 L 139.746094 231.40625 L 86.925781 231.40625 Z M 86.925781 182.527344 " clip-rule="nonzero"/></clipPath><clipPath id="e2b29edda0"><path d="M 102 192 L 115 192 L 115 235 L 102 235 Z M 102 192 " clip-rule="nonzero"/></clipPath><clipPath id="da187274ee"><path d="M 110.4375 235.191406 L 85.292969 218.203125 L 102.671875 192.484375 L 127.816406 209.472656 Z M 110.4375 235.191406 " clip-rule="nonzero"/></clipPath><clipPath id="bb94cade16"><path d="M 110.4375 235.191406 L 82.027344 216 L 102.519531 185.671875 L 130.929688 204.867188 Z M 110.4375 235.191406 " clip-rule="nonzero"/></clipPath><clipPath id="931a7c6ece"><path d="M 86.925781 116.976562 L 139.746094 116.976562 L 139.746094 165.855469 L 86.925781 165.855469 Z M 86.925781 116.976562 " clip-rule="nonzero"/></clipPath><clipPath id="8fd236a2b5"><path d="M 102 126 L 115 126 L 115 170 L 102 170 Z M 102 126 " clip-rule="nonzero"/></clipPath><clipPath id="d1d54928f0"><path d="M 110.4375 169.644531 L 85.292969 152.652344 L 102.671875 126.933594 L 127.816406 143.921875 Z M 110.4375 169.644531 " clip-rule="nonzero"/></clipPath><clipPath id="748df3fdb0"><path d="M 110.4375 169.644531 L 82.027344 150.449219 L 102.519531 120.121094 L 130.929688 139.316406 Z M 110.4375 169.644531 " clip-rule="nonzero"/></clipPath><clipPath id="53ea2a80ed"><path d="M 221.613281 116.976562 L 274.429688 116.976562 L 274.429688 165.855469 L 221.613281 165.855469 Z M 221.613281 116.976562 " clip-rule="nonzero"/></clipPath><clipPath id="7cdc813c0f"><path d="M 236 126 L 250 126 L 250 170 L 236 170 Z M 236 126 " clip-rule="nonzero"/></clipPath><clipPath id="a4941add9c"><path d="M 245.121094 169.644531 L 219.976562 152.652344 L 237.355469 126.933594 L 262.5 143.921875 Z M 245.121094 169.644531 " clip-rule="nonzero"/></clipPath><clipPath id="478fbe97a4"><path d="M 245.121094 169.644531 L 216.714844 150.449219 L 237.207031 120.121094 L 265.613281 139.316406 Z M 245.121094 169.644531 " clip-rule="nonzero"/></clipPath></defs><rect x="-36" width="432" fill="#ffffff" y="-50.399998" height="604.799979" fill-opacity="1"/><rect x="-36" width="432" fill="#323232" y="-50.399998" height="604.799979" fill-opacity="1"/><g mask="url(#34a8844f87)"><g transform="matrix(1, 0, 0, 1, 0, 0)"><g clip-path="url(#54509d384d)"><g clip-path="url(#60a1e5b5c7)"><path fill="#000000" d="M -217.589844 432.296875 L -219.066406 431.664062 L -1.417969 -67.574219 L 0.0507812 -66.9375 Z M -217.589844 432.296875 " fill-opacity="1" fill-rule="nonzero"/></g><g clip-path="url(#32ff9c6edc)"><path fill="#000000" d="M -200.175781 432.296875 L -201.652344 431.664062 L 15.992188 -67.574219 L 17.460938 -66.9375 Z M -200.175781 432.296875 " fill-opacity="1" fill-rule="nonzero"/></g><g clip-path="url(#2adce525cf)"><path fill="#000000" d="M -182.765625 432.296875 L -184.242188 431.664062 L 33.40625 -67.574219 L 34.875 -66.9375 Z M -182.765625 432.296875 " fill-opacity="1" fill-rule="nonzero"/></g><g clip-path="url(#a1f71d38a1)"><path fill="#000000" d="M -165.359375 432.296875 L -166.828125 431.664062 L 50.816406 -67.574219 L 52.289062 -66.9375 Z M -165.359375 432.296875 " fill-opacity="1" fill-rule="nonzero"/></g><g clip-path="url(#c1cd6589cc)"><path fill="#000000" d="M -147.945312 432.296875 L -149.421875 431.664062 L 68.222656 -67.574219 L 69.699219 -66.9375 Z M -147.945312 432.296875 " fill-opacity="1" fill-rule="nonzero"/></g><g clip-path="url(#567a075fb3)"><path fill="#000000" d="M -130.535156 432.296875 L -132.011719 431.664062 L 85.636719 -67.574219 L 87.113281 -66.9375 Z M -130.535156 432.296875 " fill-opacity="1" fill-rule="nonzero"/></g><g clip-path="url(#d313390940)"><path fill="#000000" d="M -113.121094 432.296875 L -114.597656 431.664062 L 103.050781 -67.574219 L 104.523438 -66.9375 Z M -113.121094 432.296875 " fill-opacity="1" fill-rule="nonzero"/></g><g clip-path="url(#e402a70ecc)"><path fill="#000000" d="M -95.707031 432.296875 L -97.183594 431.664062 L 120.460938 -67.574219 L 121.929688 -66.9375 Z M -95.707031 432.296875 " fill-opacity="1" fill-rule="nonzero"/></g><g clip-path="url(#06b69f4d85)"><path fill="#000000" d="M -78.304688 432.296875 L -79.773438 431.664062 L 137.875 -67.574219 L 139.34375 -66.9375 Z M -78.304688 432.296875 " fill-opacity="1" fill-rule="nonzero"/></g><g clip-path="url(#276f3591d0)"><path fill="#000000" d="M -60.890625 432.296875 L -62.359375 431.664062 L 155.28125 -67.574219 L 156.757812 -66.9375 Z M -60.890625 432.296875 " fill-opacity="1" fill-rule="nonzero"/></g><g clip-path="url(#521abb674a)"><path fill="#000000" d="M -43.476562 432.296875 L -44.949219 431.664062 L 172.691406 -67.574219 L 174.167969 -66.9375 Z M -43.476562 432.296875 " fill-opacity="1" fill-rule="nonzero"/></g><g clip-path="url(#5e788f5f46)"><path fill="#000000" d="M -26.066406 432.296875 L -27.535156 431.664062 L 190.105469 -67.574219 L 191.582031 -66.9375 Z M -26.066406 432.296875 " fill-opacity="1" fill-rule="nonzero"/></g><g clip-path="url(#4f104fc2e5)"><path fill="#000000" d="M -8.652344 432.296875 L -10.128906 431.664062 L 207.515625 -67.574219 L 208.992188 -66.9375 Z M -8.652344 432.296875 " fill-opacity="1" fill-rule="nonzero"/></g></g></g></g><g mask="url(#b1561bd429)"><g transform="matrix(1, 0, 0, 1, 0, 6)"><g clip-path="url(#44e574d2f4)"><g clip-path="url(#dc459599de)"><path fill="#000000" d="M -21.167969 500.652344 L -22.636719 500.015625 L 195.003906 0.78125 L 196.480469 1.414062 Z M -21.167969 500.652344 " fill-opacity="1" fill-rule="nonzero"/></g><g clip-path="url(#aaba3d072e)"><path fill="#000000" d="M -3.753906 500.652344 L -5.230469 500.015625 L 212.414062 0.78125 L 213.890625 1.414062 Z M -3.753906 500.652344 " fill-opacity="1" fill-rule="nonzero"/></g><g clip-path="url(#7b050f7c88)"><path fill="#000000" d="M 13.65625 500.652344 L 12.183594 500.015625 L 229.828125 0.78125 L 231.296875 1.414062 Z M 13.65625 500.652344 " fill-opacity="1" fill-rule="nonzero"/></g><g clip-path="url(#98b9771eb3)"><path fill="#000000" d="M 31.070312 500.652344 L 29.59375 500.015625 L 247.242188 0.78125 L 248.710938 1.414062 Z M 31.070312 500.652344 " fill-opacity="1" fill-rule="nonzero"/></g><g clip-path="url(#527fab0141)"><path fill="#000000" d="M 48.484375 500.652344 L 47.007812 500.015625 L 264.652344 0.78125 L 266.125 1.414062 Z M 48.484375 500.652344 " fill-opacity="1" fill-rule="nonzero"/></g><g clip-path="url(#ec5acca3f9)"><path fill="#000000" d="M 65.890625 500.652344 L 64.417969 500.015625 L 282.066406 0.78125 L 283.535156 1.414062 Z M 65.890625 500.652344 " fill-opacity="1" fill-rule="nonzero"/></g><g clip-path="url(#6b91c5037b)"><path fill="#000000" d="M 83.300781 500.652344 L 81.824219 500.015625 L 299.472656 0.78125 L 300.949219 1.414062 Z M 83.300781 500.652344 " fill-opacity="1" fill-rule="nonzero"/></g><g clip-path="url(#09b4bc36f4)"><path fill="#000000" d="M 100.714844 500.652344 L 99.238281 500.015625 L 316.882812 0.78125 L 318.359375 1.414062 Z M 100.714844 500.652344 " fill-opacity="1" fill-rule="nonzero"/></g><g clip-path="url(#2ff2b6e6bc)"><path fill="#000000" d="M 118.125 500.652344 L 116.652344 500.015625 L 334.296875 0.78125 L 335.773438 1.414062 Z M 118.125 500.652344 " fill-opacity="1" fill-rule="nonzero"/></g><g clip-path="url(#175c6c3b60)"><path fill="#000000" d="M 135.539062 500.652344 L 134.0625 500.015625 L 351.710938 0.78125 L 353.179688 1.414062 Z M 135.539062 500.652344 " fill-opacity="1" fill-rule="nonzero"/></g><g clip-path="url(#da6c4e99af)"><path fill="#000000" d="M 152.945312 500.652344 L 151.476562 500.015625 L 369.121094 0.78125 L 370.589844 1.414062 Z M 152.945312 500.652344 " fill-opacity="1" fill-rule="nonzero"/></g><g clip-path="url(#959c6a3a94)"><path fill="#000000" d="M 170.359375 500.652344 L 168.886719 500.015625 L 386.527344 0.78125 L 388.003906 1.414062 Z M 170.359375 500.652344 " fill-opacity="1" fill-rule="nonzero"/></g><g clip-path="url(#5fa64fdb71)"><path fill="#000000" d="M 187.769531 500.652344 L 186.300781 500.015625 L 403.941406 0.78125 L 405.417969 1.414062 Z M 187.769531 500.652344 " fill-opacity="1" fill-rule="nonzero"/></g><g clip-path="url(#bf1f87ac72)"><path fill="#000000" d="M 205.183594 500.652344 L 203.710938 500.015625 L 421.351562 0.78125 L 422.828125 1.414062 Z M 205.183594 500.652344 " fill-opacity="1" fill-rule="nonzero"/></g><g clip-path="url(#dc8080050b)"><path fill="#000000" d="M 222.59375 500.652344 L 221.117188 500.015625 L 438.765625 0.78125 L 440.242188 1.414062 Z M 222.59375 500.652344 " fill-opacity="1" fill-rule="nonzero"/></g></g></g></g><g clip-path="url(#6d792bb7c4)"><path fill="#00bf63" d="M 331.601562 467.976562 L 28.1875 467.976562 L 28.1875 36 L 331.601562 36 Z M 29.066406 467.097656 L 330.722656 467.097656 L 330.722656 36.878906 L 29.066406 36.878906 Z M 29.066406 467.097656 " fill-opacity="1" fill-rule="nonzero"/></g><g fill="#00bf63" fill-opacity="1"><g transform="translate(28.014549, 95.039993)"><g><path d="M 22.542969 -42.847656 L 21.175781 -42.847656 C 20.308594 -42.847656 19.625 -42.664062 18.070312 -41.730469 L 8.382812 -35.644531 L 8.382812 -33.097656 L 20.183594 -40.304688 L 20.183594 0 L 22.542969 0 Z M 22.542969 -42.847656 "/></g></g></g><g fill="#00bf63" fill-opacity="1"><g transform="translate(61.733545, 95.039993)"><g><path d="M 16.828125 -43.71875 C 6.210938 -43.71875 2.296875 -34.402344 2.296875 -21.425781 C 2.296875 -8.570312 6.210938 0.871094 16.828125 0.871094 C 27.511719 0.871094 31.359375 -8.507812 31.359375 -21.425781 C 31.359375 -34.339844 27.511719 -43.71875 16.828125 -43.71875 Z M 16.828125 -1.179688 C 8.011719 -1.179688 4.90625 -9.8125 4.90625 -21.425781 C 4.90625 -33.160156 8.011719 -41.667969 16.828125 -41.667969 C 25.710938 -41.667969 28.753906 -33.097656 28.753906 -21.425781 C 28.753906 -9.75 25.710938 -1.179688 16.828125 -1.179688 Z M 16.828125 -1.179688 "/></g></g></g><g mask="url(#9f7b756c3c)"><g transform="matrix(1, 0, 0, 1, 238, 2)"><g clip-path="url(#cec8133a17)"><g clip-path="url(#f2ba5a3c02)"><path fill="#000000" d="M 1.832031 501.097656 L 0.363281 500.460938 L 218.003906 1.226562 L 219.480469 1.859375 Z M 1.832031 501.097656 " fill-opacity="1" fill-rule="nonzero"/></g><g clip-path="url(#168cc41bb7)"><path fill="#000000" d="M 19.246094 501.097656 L 17.769531 500.460938 L 235.414062 1.226562 L 236.890625 1.859375 Z M 19.246094 501.097656 " fill-opacity="1" fill-rule="nonzero"/></g><g clip-path="url(#6924514fcd)"><path fill="#000000" d="M 36.65625 501.097656 L 35.183594 500.460938 L 252.828125 1.226562 L 254.296875 1.859375 Z M 36.65625 501.097656 " fill-opacity="1" fill-rule="nonzero"/></g><g clip-path="url(#b34e1fb81a)"><path fill="#000000" d="M 54.070312 501.097656 L 52.59375 500.460938 L 270.242188 1.226562 L 271.710938 1.859375 Z M 54.070312 501.097656 " fill-opacity="1" fill-rule="nonzero"/></g><g clip-path="url(#25c13453cb)"><path fill="#000000" d="M 71.484375 501.097656 L 70.007812 500.460938 L 287.652344 1.226562 L 289.125 1.859375 Z M 71.484375 501.097656 " fill-opacity="1" fill-rule="nonzero"/></g><g clip-path="url(#1623bcc7ad)"><path fill="#000000" d="M 88.890625 501.097656 L 87.417969 500.460938 L 305.066406 1.226562 L 306.535156 1.859375 Z M 88.890625 501.097656 " fill-opacity="1" fill-rule="nonzero"/></g><g clip-path="url(#66d03f4b8e)"><path fill="#000000" d="M 106.300781 501.097656 L 104.824219 500.460938 L 322.472656 1.226562 L 323.949219 1.859375 Z M 106.300781 501.097656 " fill-opacity="1" fill-rule="nonzero"/></g></g></g></g><g clip-path="url(#60e1fbe2cc)"><path fill="#00bf63" d="M 260.859375 427.660156 C 268.507812 427.660156 274.710938 421.453125 274.710938 413.804688 C 274.710938 398.242188 259.023438 394.164062 248.332031 378.78125 C 238.226562 394.070312 221.953125 398.742188 221.953125 413.804688 C 221.953125 421.453125 228.160156 427.660156 235.804688 427.660156 C 241.347656 427.660156 246.121094 424.382812 248.332031 419.671875 C 250.542969 424.382812 255.316406 427.660156 260.859375 427.660156 Z M 260.859375 427.660156 " fill-opacity="1" fill-rule="nonzero"/></g><g clip-path="url(#219a3169ec)"><g clip-path="url(#65bb3990db)"><g clip-path="url(#6cc56c5595)"><path fill="#00bf63" d="M 237.863281 382.394531 C 237.882812 382.410156 237.90625 382.425781 237.925781 382.441406 C 250 393.472656 253.421875 414.210938 245.882812 430.679688 C 245.820312 430.816406 245.71875 430.910156 245.578125 430.960938 C 245.4375 431.015625 245.300781 431.011719 245.164062 430.949219 C 245.03125 430.886719 244.9375 430.785156 244.882812 430.644531 C 244.832031 430.507812 244.835938 430.367188 244.898438 430.230469 C 252.25 414.171875 248.9375 393.972656 237.191406 383.246094 C 237.085938 383.152344 237.03125 383.03125 237.019531 382.890625 C 237.007812 382.75 237.042969 382.621094 237.132812 382.507812 C 237.222656 382.398438 237.335938 382.332031 237.476562 382.308594 C 237.617188 382.285156 237.746094 382.316406 237.863281 382.394531 Z M 237.863281 382.394531 " fill-opacity="1" fill-rule="nonzero"/></g></g></g><g clip-path="url(#fa870a4a46)"><path fill="#00bf63" d="M 260.859375 362.242188 C 268.507812 362.242188 274.710938 356.03125 274.710938 348.382812 C 274.710938 332.824219 259.023438 328.742188 248.332031 313.359375 C 238.226562 328.648438 221.953125 333.320312 221.953125 348.382812 C 221.953125 356.03125 228.160156 362.242188 235.804688 362.242188 C 241.347656 362.242188 246.121094 358.964844 248.332031 354.25 C 250.542969 358.964844 255.316406 362.242188 260.859375 362.242188 Z M 260.859375 362.242188 " fill-opacity="1" fill-rule="nonzero"/></g><g clip-path="url(#a44a46191d)"><g clip-path="url(#929ac0f627)"><g clip-path="url(#8168cd5ec5)"><path fill="#00bf63" d="M 237.863281 316.972656 C 237.882812 316.988281 237.90625 317.003906 237.925781 317.023438 C 250 328.054688 253.421875 348.789062 245.882812 365.261719 C 245.820312 365.398438 245.71875 365.492188 245.578125 365.542969 C 245.4375 365.59375 245.300781 365.589844 245.164062 365.527344 C 245.03125 365.464844 244.9375 365.367188 244.882812 365.226562 C 244.832031 365.085938 244.835938 364.949219 244.898438 364.8125 C 252.25 348.753906 248.9375 328.550781 237.191406 317.828125 C 237.085938 317.730469 237.03125 317.613281 237.019531 317.46875 C 237.007812 317.328125 237.042969 317.203125 237.132812 317.089844 C 237.222656 316.976562 237.335938 316.910156 237.476562 316.886719 C 237.617188 316.867188 237.746094 316.894531 237.863281 316.972656 Z M 237.863281 316.972656 " fill-opacity="1" fill-rule="nonzero"/></g></g></g><g clip-path="url(#dc43d51c69)"><path fill="#00bf63" d="M 260.859375 296.820312 C 268.507812 296.820312 274.710938 290.613281 274.710938 282.964844 C 274.710938 267.402344 259.023438 263.324219 248.332031 247.941406 C 238.226562 263.230469 221.953125 267.902344 221.953125 282.964844 C 221.953125 290.613281 228.160156 296.820312 235.804688 296.820312 C 241.347656 296.820312 246.121094 293.542969 248.332031 288.832031 C 250.542969 293.542969 255.316406 296.820312 260.859375 296.820312 Z M 260.859375 296.820312 " fill-opacity="1" fill-rule="nonzero"/></g><g clip-path="url(#cd67f2d1bf)"><g clip-path="url(#d4ed3ce907)"><g clip-path="url(#48fdf75c1f)"><path fill="#00bf63" d="M 237.863281 251.554688 C 237.882812 251.570312 237.90625 251.585938 237.925781 251.601562 C 250 262.632812 253.421875 283.371094 245.882812 299.839844 C 245.820312 299.976562 245.71875 300.070312 245.578125 300.125 C 245.4375 300.175781 245.300781 300.171875 245.164062 300.109375 C 245.03125 300.046875 244.9375 299.945312 244.882812 299.804688 C 244.832031 299.667969 244.835938 299.527344 244.898438 299.390625 C 252.25 283.332031 248.9375 263.132812 237.191406 252.40625 C 237.085938 252.3125 237.03125 252.191406 237.019531 252.050781 C 237.007812 251.910156 237.042969 251.78125 237.132812 251.667969 C 237.222656 251.558594 237.335938 251.492188 237.476562 251.46875 C 237.617188 251.445312 237.746094 251.476562 237.863281 251.554688 Z M 237.863281 251.554688 " fill-opacity="1" fill-rule="nonzero"/></g></g></g><g clip-path="url(#8eb25c5675)"><path fill="#00bf63" d="M 260.859375 231.402344 C 268.507812 231.402344 274.710938 225.195312 274.710938 217.542969 C 274.710938 201.984375 259.023438 197.902344 248.332031 182.519531 C 238.226562 197.808594 221.953125 202.480469 221.953125 217.542969 C 221.953125 225.195312 228.160156 231.402344 235.804688 231.402344 C 241.347656 231.402344 246.121094 228.125 248.332031 223.410156 C 250.542969 228.125 255.316406 231.402344 260.859375 231.402344 Z M 260.859375 231.402344 " fill-opacity="1" fill-rule="nonzero"/></g><g clip-path="url(#8fa7f687ab)"><g clip-path="url(#33694b0da3)"><g clip-path="url(#d08201c836)"><path fill="#00bf63" d="M 237.863281 186.132812 C 237.882812 186.148438 237.90625 186.164062 237.925781 186.183594 C 250 197.214844 253.421875 217.953125 245.882812 234.421875 C 245.820312 234.558594 245.71875 234.652344 245.578125 234.703125 C 245.4375 234.753906 245.300781 234.75 245.164062 234.6875 C 245.03125 234.625 244.9375 234.527344 244.882812 234.386719 C 244.832031 234.246094 244.835938 234.109375 244.898438 233.972656 C 252.25 217.914062 248.9375 197.714844 237.191406 186.988281 C 237.085938 186.890625 237.03125 186.773438 237.019531 186.628906 C 237.007812 186.488281 237.042969 186.363281 237.132812 186.25 C 237.222656 186.136719 237.335938 186.070312 237.476562 186.050781 C 237.617188 186.027344 237.746094 186.054688 237.863281 186.132812 Z M 237.863281 186.132812 " fill-opacity="1" fill-rule="nonzero"/></g></g></g><g clip-path="url(#dd71a19476)"><path fill="#00bf63" d="M 125.859375 427.660156 C 133.507812 427.660156 139.710938 421.453125 139.710938 413.804688 C 139.710938 398.242188 124.023438 394.164062 113.332031 378.78125 C 103.226562 394.070312 86.953125 398.742188 86.953125 413.804688 C 86.953125 421.453125 93.160156 427.660156 100.804688 427.660156 C 106.347656 427.660156 111.121094 424.382812 113.332031 419.671875 C 115.542969 424.382812 120.316406 427.660156 125.859375 427.660156 Z M 125.859375 427.660156 " fill-opacity="1" fill-rule="nonzero"/></g><g clip-path="url(#9fb9aa936a)"><g clip-path="url(#92ec474eb9)"><g clip-path="url(#9dcdb0680d)"><path fill="#00bf63" d="M 102.863281 382.394531 C 102.882812 382.410156 102.90625 382.425781 102.925781 382.441406 C 115 393.472656 118.421875 414.210938 110.882812 430.679688 C 110.820312 430.816406 110.71875 430.910156 110.578125 430.960938 C 110.4375 431.015625 110.300781 431.011719 110.164062 430.949219 C 110.03125 430.886719 109.9375 430.785156 109.882812 430.644531 C 109.832031 430.507812 109.835938 430.367188 109.898438 430.230469 C 117.25 414.171875 113.9375 393.972656 102.191406 383.246094 C 102.085938 383.152344 102.03125 383.03125 102.019531 382.890625 C 102.007812 382.75 102.042969 382.621094 102.132812 382.507812 C 102.222656 382.398438 102.335938 382.332031 102.476562 382.308594 C 102.617188 382.285156 102.746094 382.316406 102.863281 382.394531 Z M 102.863281 382.394531 " fill-opacity="1" fill-rule="nonzero"/></g></g></g><g clip-path="url(#59def96405)"><path fill="#00bf63" d="M 125.859375 362.242188 C 133.507812 362.242188 139.710938 356.03125 139.710938 348.382812 C 139.710938 332.824219 124.023438 328.742188 113.332031 313.359375 C 103.226562 328.648438 86.953125 333.320312 86.953125 348.382812 C 86.953125 356.03125 93.160156 362.242188 100.804688 362.242188 C 106.347656 362.242188 111.121094 358.964844 113.332031 354.25 C 115.542969 358.964844 120.316406 362.242188 125.859375 362.242188 Z M 125.859375 362.242188 " fill-opacity="1" fill-rule="nonzero"/></g><g clip-path="url(#0a576f2069)"><g clip-path="url(#e3a67be0c1)"><g clip-path="url(#220dc20565)"><path fill="#00bf63" d="M 102.863281 316.972656 C 102.882812 316.988281 102.90625 317.003906 102.925781 317.023438 C 115 328.054688 118.421875 348.789062 110.882812 365.261719 C 110.820312 365.398438 110.71875 365.492188 110.578125 365.542969 C 110.4375 365.59375 110.300781 365.589844 110.164062 365.527344 C 110.03125 365.464844 109.9375 365.367188 109.882812 365.226562 C 109.832031 365.085938 109.835938 364.949219 109.898438 364.8125 C 117.25 348.753906 113.9375 328.550781 102.191406 317.828125 C 102.085938 317.730469 102.03125 317.613281 102.019531 317.46875 C 102.007812 317.328125 102.042969 317.203125 102.132812 317.089844 C 102.222656 316.976562 102.335938 316.910156 102.476562 316.886719 C 102.617188 316.867188 102.746094 316.894531 102.863281 316.972656 Z M 102.863281 316.972656 " fill-opacity="1" fill-rule="nonzero"/></g></g></g><g clip-path="url(#18b512eda8)"><path fill="#00bf63" d="M 125.859375 296.820312 C 133.507812 296.820312 139.710938 290.613281 139.710938 282.964844 C 139.710938 267.402344 124.023438 263.324219 113.332031 247.941406 C 103.226562 263.230469 86.953125 267.902344 86.953125 282.964844 C 86.953125 290.613281 93.160156 296.820312 100.804688 296.820312 C 106.347656 296.820312 111.121094 293.542969 113.332031 288.832031 C 115.542969 293.542969 120.316406 296.820312 125.859375 296.820312 Z M 125.859375 296.820312 " fill-opacity="1" fill-rule="nonzero"/></g><g clip-path="url(#378cabab55)"><g clip-path="url(#c4e5d3e7c4)"><g clip-path="url(#fd35c6b415)"><path fill="#00bf63" d="M 102.863281 251.554688 C 102.882812 251.570312 102.90625 251.585938 102.925781 251.601562 C 115 262.632812 118.421875 283.371094 110.882812 299.839844 C 110.820312 299.976562 110.71875 300.070312 110.578125 300.125 C 110.4375 300.175781 110.300781 300.171875 110.164062 300.109375 C 110.03125 300.046875 109.9375 299.945312 109.882812 299.804688 C 109.832031 299.667969 109.835938 299.527344 109.898438 299.390625 C 117.25 283.332031 113.9375 263.132812 102.191406 252.40625 C 102.085938 252.3125 102.03125 252.191406 102.019531 252.050781 C 102.007812 251.910156 102.042969 251.78125 102.132812 251.667969 C 102.222656 251.558594 102.335938 251.492188 102.476562 251.46875 C 102.617188 251.445312 102.746094 251.476562 102.863281 251.554688 Z M 102.863281 251.554688 " fill-opacity="1" fill-rule="nonzero"/></g></g></g><g clip-path="url(#b6d0f848a6)"><path fill="#00bf63" d="M 125.859375 231.402344 C 133.507812 231.402344 139.710938 225.195312 139.710938 217.542969 C 139.710938 201.984375 124.023438 197.902344 113.332031 182.519531 C 103.226562 197.808594 86.953125 202.480469 86.953125 217.542969 C 86.953125 225.195312 93.160156 231.402344 100.804688 231.402344 C 106.347656 231.402344 111.121094 228.125 113.332031 223.410156 C 115.542969 228.125 120.316406 231.402344 125.859375 231.402344 Z M 125.859375 231.402344 " fill-opacity="1" fill-rule="nonzero"/></g><g clip-path="url(#e2b29edda0)"><g clip-path="url(#da187274ee)"><g clip-path="url(#bb94cade16)"><path fill="#00bf63" d="M 102.863281 186.132812 C 102.882812 186.148438 102.90625 186.164062 102.925781 186.183594 C 115 197.214844 118.421875 217.953125 110.882812 234.421875 C 110.820312 234.558594 110.71875 234.652344 110.578125 234.703125 C 110.4375 234.753906 110.300781 234.75 110.164062 234.6875 C 110.03125 234.625 109.9375 234.527344 109.882812 234.386719 C 109.832031 234.246094 109.835938 234.109375 109.898438 233.972656 C 117.25 217.914062 113.9375 197.714844 102.191406 186.988281 C 102.085938 186.890625 102.03125 186.773438 102.019531 186.628906 C 102.007812 186.488281 102.042969 186.363281 102.132812 186.25 C 102.222656 186.136719 102.335938 186.070312 102.476562 186.050781 C 102.617188 186.027344 102.746094 186.054688 102.863281 186.132812 Z M 102.863281 186.132812 " fill-opacity="1" fill-rule="nonzero"/></g></g></g><g clip-path="url(#931a7c6ece)"><path fill="#00bf63" d="M 125.859375 165.851562 C 133.507812 165.851562 139.710938 159.644531 139.710938 151.996094 C 139.710938 136.433594 124.023438 132.355469 113.332031 116.972656 C 103.226562 132.257812 86.953125 136.929688 86.953125 151.996094 C 86.953125 159.644531 93.160156 165.851562 100.804688 165.851562 C 106.347656 165.851562 111.121094 162.574219 113.332031 157.863281 C 115.542969 162.574219 120.316406 165.851562 125.859375 165.851562 Z M 125.859375 165.851562 " fill-opacity="1" fill-rule="nonzero"/></g><g clip-path="url(#8fd236a2b5)"><g clip-path="url(#d1d54928f0)"><g clip-path="url(#748df3fdb0)"><path fill="#00bf63" d="M 102.863281 120.582031 C 102.882812 120.597656 102.90625 120.613281 102.925781 120.632812 C 115 131.664062 118.421875 152.402344 110.882812 168.871094 C 110.820312 169.007812 110.71875 169.101562 110.578125 169.152344 C 110.4375 169.203125 110.300781 169.199219 110.164062 169.136719 C 110.03125 169.078125 109.9375 168.976562 109.882812 168.835938 C 109.832031 168.695312 109.835938 168.558594 109.898438 168.421875 C 117.25 152.363281 113.9375 132.164062 102.191406 121.4375 C 102.085938 121.339844 102.03125 121.222656 102.019531 121.082031 C 102.007812 120.9375 102.042969 120.8125 102.132812 120.699219 C 102.222656 120.585938 102.335938 120.519531 102.476562 120.5 C 102.617188 120.476562 102.746094 120.503906 102.863281 120.582031 Z M 102.863281 120.582031 " fill-opacity="1" fill-rule="nonzero"/></g></g></g><g clip-path="url(#53ea2a80ed)"><path fill="#00bf63" d="M 260.546875 165.851562 C 268.191406 165.851562 274.394531 159.644531 274.394531 151.996094 C 274.394531 136.433594 258.707031 132.355469 248.019531 116.972656 C 237.910156 132.257812 221.640625 136.929688 221.640625 151.996094 C 221.640625 159.644531 227.84375 165.851562 235.488281 165.851562 C 241.035156 165.851562 245.808594 162.574219 248.019531 157.863281 C 250.230469 162.574219 255.003906 165.851562 260.546875 165.851562 Z M 260.546875 165.851562 " fill-opacity="1" fill-rule="nonzero"/></g><g clip-path="url(#7cdc813c0f)"><g clip-path="url(#a4941add9c)"><g clip-path="url(#478fbe97a4)"><path fill="#00bf63" d="M 237.546875 120.582031 C 237.570312 120.597656 237.589844 120.613281 237.609375 120.632812 C 249.6875 131.664062 253.109375 152.402344 245.570312 168.871094 C 245.507812 169.007812 245.40625 169.101562 245.265625 169.152344 C 245.125 169.203125 244.988281 169.199219 244.851562 169.136719 C 244.714844 169.078125 244.621094 168.976562 244.570312 168.835938 C 244.519531 168.695312 244.523438 168.558594 244.582031 168.421875 C 251.933594 152.363281 248.621094 132.164062 236.878906 121.4375 C 236.773438 121.339844 236.714844 121.222656 236.703125 121.082031 C 236.691406 120.9375 236.730469 120.8125 236.820312 120.699219 C 236.90625 120.585938 237.019531 120.519531 237.160156 120.5 C 237.300781 120.476562 237.429688 120.503906 237.546875 120.582031 Z M 237.546875 120.582031 " fill-opacity="1" fill-rule="nonzero"/></g></g></g></svg>