<svg xmlns="http://www.w3.org/2000/svg" xmlns:xlink="http://www.w3.org/1999/xlink" width="480" zoomAndPan="magnify" viewBox="0 0 360 503.999982" height="672" preserveAspectRatio="xMidYMid meet" version="1.0"><defs><filter x="0%" y="0%" width="100%" height="100%" id="bfbee0025d"><feColorMatrix values="0 0 0 0 1 0 0 0 0 1 0 0 0 0 1 0 0 0 1 0" color-interpolation-filters="sRGB"/></filter><mask id="4174de0631"><g filter="url(#bfbee0025d)"><rect x="-36" width="432" fill="#000000" y="-50.399998" height="604.799979" fill-opacity="0.1373"/></g></mask><clipPath id="9d28aaf0db"><path d="M 0 0 L 1 0 L 1 432.847656 L 0 432.847656 Z M 0 0 " clip-rule="nonzero"/></clipPath><clipPath id="51fe5af0ad"><path d="M 0 0 L 18 0 L 18 432.847656 L 0 432.847656 Z M 0 0 " clip-rule="nonzero"/></clipPath><clipPath id="e1bdf618bd"><path d="M 0 0 L 35 0 L 35 432.847656 L 0 432.847656 Z M 0 0 " clip-rule="nonzero"/></clipPath><clipPath id="077aad7838"><path d="M 0 0 L 53 0 L 53 432.847656 L 0 432.847656 Z M 0 0 " clip-rule="nonzero"/></clipPath><clipPath id="0acb3d1fb8"><path d="M 0 0 L 70 0 L 70 432.847656 L 0 432.847656 Z M 0 0 " clip-rule="nonzero"/></clipPath><clipPath id="7f60559e6b"><path d="M 0 0 L 88 0 L 88 432.847656 L 0 432.847656 Z M 0 0 " clip-rule="nonzero"/></clipPath><clipPath id="31c06cc537"><path d="M 0 0 L 105 0 L 105 432.847656 L 0 432.847656 Z M 0 0 " clip-rule="nonzero"/></clipPath><clipPath id="a7220a722b"><path d="M 0 0 L 122 0 L 122 432.847656 L 0 432.847656 Z M 0 0 " clip-rule="nonzero"/></clipPath><clipPath id="08641ed4dd"><path d="M 0 0 L 140 0 L 140 432.847656 L 0 432.847656 Z M 0 0 " clip-rule="nonzero"/></clipPath><clipPath id="dfdac42b6c"><path d="M 0 0 L 157 0 L 157 432.847656 L 0 432.847656 Z M 0 0 " clip-rule="nonzero"/></clipPath><clipPath id="9e1b307a27"><path d="M 0 0 L 175 0 L 175 432.847656 L 0 432.847656 Z M 0 0 " clip-rule="nonzero"/></clipPath><clipPath id="9008df94c9"><path d="M 0 0 L 192 0 L 192 432.847656 L 0 432.847656 Z M 0 0 " clip-rule="nonzero"/></clipPath><clipPath id="12cb530174"><path d="M 0 0 L 208.722656 0 L 208.722656 432.847656 L 0 432.847656 Z M 0 0 " clip-rule="nonzero"/></clipPath><clipPath id="2b451a8624"><rect x="0" width="209" y="0" height="434"/></clipPath><mask id="af7b4e6bbd"><g filter="url(#bfbee0025d)"><rect x="-36" width="432" fill="#000000" y="-50.399998" height="604.799979" fill-opacity="0.1373"/></g></mask><clipPath id="a5d6d5a28f"><path d="M 0 0.203125 L 197 0.203125 L 197 498 L 0 498 Z M 0 0.203125 " clip-rule="nonzero"/></clipPath><clipPath id="3d305f490c"><path d="M 0 0.203125 L 214 0.203125 L 214 498 L 0 498 Z M 0 0.203125 " clip-rule="nonzero"/></clipPath><clipPath id="eeb3ceebb6"><path d="M 12 0.203125 L 232 0.203125 L 232 498 L 12 498 Z M 12 0.203125 " clip-rule="nonzero"/></clipPath><clipPath id="c09794aded"><path d="M 29 0.203125 L 249 0.203125 L 249 498 L 29 498 Z M 29 0.203125 " clip-rule="nonzero"/></clipPath><clipPath id="5a58871608"><path d="M 47 0.203125 L 267 0.203125 L 267 498 L 47 498 Z M 47 0.203125 " clip-rule="nonzero"/></clipPath><clipPath id="ff2e89b8ad"><path d="M 64 0.203125 L 284 0.203125 L 284 498 L 64 498 Z M 64 0.203125 " clip-rule="nonzero"/></clipPath><clipPath id="17ae29f185"><path d="M 81 0.203125 L 301 0.203125 L 301 498 L 81 498 Z M 81 0.203125 " clip-rule="nonzero"/></clipPath><clipPath id="33e3242d7b"><path d="M 99 0.203125 L 319 0.203125 L 319 498 L 99 498 Z M 99 0.203125 " clip-rule="nonzero"/></clipPath><clipPath id="bc51105709"><path d="M 116 0.203125 L 336 0.203125 L 336 498 L 116 498 Z M 116 0.203125 " clip-rule="nonzero"/></clipPath><clipPath id="3a21283389"><path d="M 134 0.203125 L 354 0.203125 L 354 498 L 134 498 Z M 134 0.203125 " clip-rule="nonzero"/></clipPath><clipPath id="8332e490d4"><path d="M 151 0.203125 L 360 0.203125 L 360 498 L 151 498 Z M 151 0.203125 " clip-rule="nonzero"/></clipPath><clipPath id="c137f389fd"><path d="M 168 0.203125 L 360 0.203125 L 360 498 L 168 498 Z M 168 0.203125 " clip-rule="nonzero"/></clipPath><clipPath id="8a8b44a8fa"><path d="M 186 0.203125 L 360 0.203125 L 360 498 L 186 498 Z M 186 0.203125 " clip-rule="nonzero"/></clipPath><clipPath id="e6faf7e87b"><path d="M 203 0.203125 L 360 0.203125 L 360 498 L 203 498 Z M 203 0.203125 " clip-rule="nonzero"/></clipPath><clipPath id="1910035fb8"><path d="M 221 0.203125 L 360 0.203125 L 360 498 L 221 498 Z M 221 0.203125 " clip-rule="nonzero"/></clipPath><clipPath id="9c4cbb452e"><rect x="0" width="360" y="0" height="498"/></clipPath><mask id="887794c5d3"><g filter="url(#bfbee0025d)"><rect x="-36" width="432" fill="#000000" y="-50.399998" height="604.799979" fill-opacity="0.1373"/></g></mask><clipPath id="b6603171e1"><path d="M 0.222656 1 L 122 1 L 122 501.648438 L 0.222656 501.648438 Z M 0.222656 1 " clip-rule="nonzero"/></clipPath><clipPath id="924f5eb696"><path d="M 17 1 L 122 1 L 122 501.648438 L 17 501.648438 Z M 17 1 " clip-rule="nonzero"/></clipPath><clipPath id="63ebf47c26"><path d="M 35 1 L 122 1 L 122 501.648438 L 35 501.648438 Z M 35 1 " clip-rule="nonzero"/></clipPath><clipPath id="ba8760d41d"><path d="M 52 1 L 122 1 L 122 501.648438 L 52 501.648438 Z M 52 1 " clip-rule="nonzero"/></clipPath><clipPath id="66c27fcc50"><path d="M 70 1 L 122 1 L 122 501.648438 L 70 501.648438 Z M 70 1 " clip-rule="nonzero"/></clipPath><clipPath id="50e867cf5c"><path d="M 87 1 L 122 1 L 122 501.648438 L 87 501.648438 Z M 87 1 " clip-rule="nonzero"/></clipPath><clipPath id="4931b1d880"><path d="M 104 1 L 122 1 L 122 501.648438 L 104 501.648438 Z M 104 1 " clip-rule="nonzero"/></clipPath><clipPath id="1abde923e1"><rect x="0" width="122" y="0" height="502"/></clipPath><clipPath id="f3f724f760"><path d="M 28.015625 36 L 331.765625 36 L 331.765625 468 L 28.015625 468 Z M 28.015625 36 " clip-rule="nonzero"/></clipPath><clipPath id="377ef55f84"><path d="M 243.585938 435 L 291.449219 435 L 291.449219 440.121094 L 243.585938 440.121094 Z M 243.585938 435 " clip-rule="nonzero"/></clipPath><clipPath id="3dfbc58ca6"><path d="M 229.40625 396.4375 L 307.40625 396.4375 L 307.40625 436 L 229.40625 436 Z M 229.40625 396.4375 " clip-rule="nonzero"/></clipPath><clipPath id="d38abf1d83"><path d="M 123.320312 198.515625 L 240.386719 198.515625 L 240.386719 306.855469 L 123.320312 306.855469 Z M 123.320312 198.515625 " clip-rule="nonzero"/></clipPath><clipPath id="1479c773ea"><path d="M 156 220 L 186 220 L 186 315 L 156 315 Z M 156 220 " clip-rule="nonzero"/></clipPath><clipPath id="7ec761148e"><path d="M 175.425781 315.246094 L 119.691406 277.589844 L 158.210938 220.578125 L 213.945312 258.238281 Z M 175.425781 315.246094 " clip-rule="nonzero"/></clipPath><clipPath id="e55aff1004"><path d="M 175.425781 315.246094 L 112.460938 272.703125 L 157.878906 205.480469 L 220.84375 248.027344 Z M 175.425781 315.246094 " clip-rule="nonzero"/></clipPath></defs><rect x="-36" width="432" fill="#ffffff" y="-50.399998" height="604.799979" fill-opacity="1"/><rect x="-36" width="432" fill="#323232" y="-50.399998" height="604.799979" fill-opacity="1"/><g mask="url(#4174de0631)"><g transform="matrix(1, 0, 0, 1, 0, 0)"><g clip-path="url(#2b451a8624)"><g clip-path="url(#9d28aaf0db)"><path fill="#000000" d="M -217.589844 432.296875 L -219.066406 431.664062 L -1.417969 -67.574219 L 0.0507812 -66.9375 Z M -217.589844 432.296875 " fill-opacity="1" fill-rule="nonzero"/></g><g clip-path="url(#51fe5af0ad)"><path fill="#000000" d="M -200.175781 432.296875 L -201.652344 431.664062 L 15.992188 -67.574219 L 17.460938 -66.9375 Z M -200.175781 432.296875 " fill-opacity="1" fill-rule="nonzero"/></g><g clip-path="url(#e1bdf618bd)"><path fill="#000000" d="M -182.765625 432.296875 L -184.242188 431.664062 L 33.40625 -67.574219 L 34.875 -66.9375 Z M -182.765625 432.296875 " fill-opacity="1" fill-rule="nonzero"/></g><g clip-path="url(#077aad7838)"><path fill="#000000" d="M -165.359375 432.296875 L -166.828125 431.664062 L 50.816406 -67.574219 L 52.289062 -66.9375 Z M -165.359375 432.296875 " fill-opacity="1" fill-rule="nonzero"/></g><g clip-path="url(#0acb3d1fb8)"><path fill="#000000" d="M -147.945312 432.296875 L -149.421875 431.664062 L 68.222656 -67.574219 L 69.699219 -66.9375 Z M -147.945312 432.296875 " fill-opacity="1" fill-rule="nonzero"/></g><g clip-path="url(#7f60559e6b)"><path fill="#000000" d="M -130.535156 432.296875 L -132.011719 431.664062 L 85.636719 -67.574219 L 87.113281 -66.9375 Z M -130.535156 432.296875 " fill-opacity="1" fill-rule="nonzero"/></g><g clip-path="url(#31c06cc537)"><path fill="#000000" d="M -113.121094 432.296875 L -114.597656 431.664062 L 103.050781 -67.574219 L 104.523438 -66.9375 Z M -113.121094 432.296875 " fill-opacity="1" fill-rule="nonzero"/></g><g clip-path="url(#a7220a722b)"><path fill="#000000" d="M -95.707031 432.296875 L -97.183594 431.664062 L 120.460938 -67.574219 L 121.929688 -66.9375 Z M -95.707031 432.296875 " fill-opacity="1" fill-rule="nonzero"/></g><g clip-path="url(#08641ed4dd)"><path fill="#000000" d="M -78.304688 432.296875 L -79.773438 431.664062 L 137.875 -67.574219 L 139.34375 -66.9375 Z M -78.304688 432.296875 " fill-opacity="1" fill-rule="nonzero"/></g><g clip-path="url(#dfdac42b6c)"><path fill="#000000" d="M -60.890625 432.296875 L -62.359375 431.664062 L 155.28125 -67.574219 L 156.757812 -66.9375 Z M -60.890625 432.296875 " fill-opacity="1" fill-rule="nonzero"/></g><g clip-path="url(#9e1b307a27)"><path fill="#000000" d="M -43.476562 432.296875 L -44.949219 431.664062 L 172.691406 -67.574219 L 174.167969 -66.9375 Z M -43.476562 432.296875 " fill-opacity="1" fill-rule="nonzero"/></g><g clip-path="url(#9008df94c9)"><path fill="#000000" d="M -26.066406 432.296875 L -27.535156 431.664062 L 190.105469 -67.574219 L 191.582031 -66.9375 Z M -26.066406 432.296875 " fill-opacity="1" fill-rule="nonzero"/></g><g clip-path="url(#12cb530174)"><path fill="#000000" d="M -8.652344 432.296875 L -10.128906 431.664062 L 207.515625 -67.574219 L 208.992188 -66.9375 Z M -8.652344 432.296875 " fill-opacity="1" fill-rule="nonzero"/></g></g></g></g><g mask="url(#af7b4e6bbd)"><g transform="matrix(1, 0, 0, 1, 0, 6)"><g clip-path="url(#9c4cbb452e)"><g clip-path="url(#a5d6d5a28f)"><path fill="#000000" d="M -21.167969 500.652344 L -22.636719 500.015625 L 195.003906 0.78125 L 196.480469 1.414062 Z M -21.167969 500.652344 " fill-opacity="1" fill-rule="nonzero"/></g><g clip-path="url(#3d305f490c)"><path fill="#000000" d="M -3.753906 500.652344 L -5.230469 500.015625 L 212.414062 0.78125 L 213.890625 1.414062 Z M -3.753906 500.652344 " fill-opacity="1" fill-rule="nonzero"/></g><g clip-path="url(#eeb3ceebb6)"><path fill="#000000" d="M 13.65625 500.652344 L 12.183594 500.015625 L 229.828125 0.78125 L 231.296875 1.414062 Z M 13.65625 500.652344 " fill-opacity="1" fill-rule="nonzero"/></g><g clip-path="url(#c09794aded)"><path fill="#000000" d="M 31.070312 500.652344 L 29.59375 500.015625 L 247.242188 0.78125 L 248.710938 1.414062 Z M 31.070312 500.652344 " fill-opacity="1" fill-rule="nonzero"/></g><g clip-path="url(#5a58871608)"><path fill="#000000" d="M 48.484375 500.652344 L 47.007812 500.015625 L 264.652344 0.78125 L 266.125 1.414062 Z M 48.484375 500.652344 " fill-opacity="1" fill-rule="nonzero"/></g><g clip-path="url(#ff2e89b8ad)"><path fill="#000000" d="M 65.890625 500.652344 L 64.417969 500.015625 L 282.066406 0.78125 L 283.535156 1.414062 Z M 65.890625 500.652344 " fill-opacity="1" fill-rule="nonzero"/></g><g clip-path="url(#17ae29f185)"><path fill="#000000" d="M 83.300781 500.652344 L 81.824219 500.015625 L 299.472656 0.78125 L 300.949219 1.414062 Z M 83.300781 500.652344 " fill-opacity="1" fill-rule="nonzero"/></g><g clip-path="url(#33e3242d7b)"><path fill="#000000" d="M 100.714844 500.652344 L 99.238281 500.015625 L 316.882812 0.78125 L 318.359375 1.414062 Z M 100.714844 500.652344 " fill-opacity="1" fill-rule="nonzero"/></g><g clip-path="url(#bc51105709)"><path fill="#000000" d="M 118.125 500.652344 L 116.652344 500.015625 L 334.296875 0.78125 L 335.773438 1.414062 Z M 118.125 500.652344 " fill-opacity="1" fill-rule="nonzero"/></g><g clip-path="url(#3a21283389)"><path fill="#000000" d="M 135.539062 500.652344 L 134.0625 500.015625 L 351.710938 0.78125 L 353.179688 1.414062 Z M 135.539062 500.652344 " fill-opacity="1" fill-rule="nonzero"/></g><g clip-path="url(#8332e490d4)"><path fill="#000000" d="M 152.945312 500.652344 L 151.476562 500.015625 L 369.121094 0.78125 L 370.589844 1.414062 Z M 152.945312 500.652344 " fill-opacity="1" fill-rule="nonzero"/></g><g clip-path="url(#c137f389fd)"><path fill="#000000" d="M 170.359375 500.652344 L 168.886719 500.015625 L 386.527344 0.78125 L 388.003906 1.414062 Z M 170.359375 500.652344 " fill-opacity="1" fill-rule="nonzero"/></g><g clip-path="url(#8a8b44a8fa)"><path fill="#000000" d="M 187.769531 500.652344 L 186.300781 500.015625 L 403.941406 0.78125 L 405.417969 1.414062 Z M 187.769531 500.652344 " fill-opacity="1" fill-rule="nonzero"/></g><g clip-path="url(#e6faf7e87b)"><path fill="#000000" d="M 205.183594 500.652344 L 203.710938 500.015625 L 421.351562 0.78125 L 422.828125 1.414062 Z M 205.183594 500.652344 " fill-opacity="1" fill-rule="nonzero"/></g><g clip-path="url(#1910035fb8)"><path fill="#000000" d="M 222.59375 500.652344 L 221.117188 500.015625 L 438.765625 0.78125 L 440.242188 1.414062 Z M 222.59375 500.652344 " fill-opacity="1" fill-rule="nonzero"/></g></g></g></g><g mask="url(#887794c5d3)"><g transform="matrix(1, 0, 0, 1, 238, 2)"><g clip-path="url(#1abde923e1)"><g clip-path="url(#b6603171e1)"><path fill="#000000" d="M 1.832031 501.097656 L 0.363281 500.460938 L 218.003906 1.226562 L 219.480469 1.859375 Z M 1.832031 501.097656 " fill-opacity="1" fill-rule="nonzero"/></g><g clip-path="url(#924f5eb696)"><path fill="#000000" d="M 19.246094 501.097656 L 17.769531 500.460938 L 235.414062 1.226562 L 236.890625 1.859375 Z M 19.246094 501.097656 " fill-opacity="1" fill-rule="nonzero"/></g><g clip-path="url(#63ebf47c26)"><path fill="#000000" d="M 36.65625 501.097656 L 35.183594 500.460938 L 252.828125 1.226562 L 254.296875 1.859375 Z M 36.65625 501.097656 " fill-opacity="1" fill-rule="nonzero"/></g><g clip-path="url(#ba8760d41d)"><path fill="#000000" d="M 54.070312 501.097656 L 52.59375 500.460938 L 270.242188 1.226562 L 271.710938 1.859375 Z M 54.070312 501.097656 " fill-opacity="1" fill-rule="nonzero"/></g><g clip-path="url(#66c27fcc50)"><path fill="#000000" d="M 71.484375 501.097656 L 70.007812 500.460938 L 287.652344 1.226562 L 289.125 1.859375 Z M 71.484375 501.097656 " fill-opacity="1" fill-rule="nonzero"/></g><g clip-path="url(#50e867cf5c)"><path fill="#000000" d="M 88.890625 501.097656 L 87.417969 500.460938 L 305.066406 1.226562 L 306.535156 1.859375 Z M 88.890625 501.097656 " fill-opacity="1" fill-rule="nonzero"/></g><g clip-path="url(#4931b1d880)"><path fill="#000000" d="M 106.300781 501.097656 L 104.824219 500.460938 L 322.472656 1.226562 L 323.949219 1.859375 Z M 106.300781 501.097656 " fill-opacity="1" fill-rule="nonzero"/></g></g></g></g><g clip-path="url(#f3f724f760)"><path fill="#00bf63" d="M 331.601562 467.976562 L 28.1875 467.976562 L 28.1875 36 L 331.601562 36 Z M 29.066406 467.097656 L 330.722656 467.097656 L 330.722656 36.878906 L 29.066406 36.878906 Z M 29.066406 467.097656 " fill-opacity="1" fill-rule="nonzero"/></g><g clip-path="url(#377ef55f84)"><path fill="#00bf63" d="M 291.257812 438.042969 L 290.75 440.121094 C 275.496094 436.375 259.5625 436.375 244.308594 440.121094 L 243.800781 438.042969 C 259.390625 434.207031 275.675781 434.207031 291.261719 438.042969 L 291.257812 438.042969 " fill-opacity="1" fill-rule="nonzero"/></g><g clip-path="url(#3dfbc58ca6)"><path fill="#00bf63" d="M 232.3125 409.113281 C 236.613281 414.957031 242.402344 419.546875 249.070312 422.402344 C 248.148438 417.855469 247.691406 413.21875 247.707031 408.574219 C 246.65625 408.816406 245.601562 408.15625 245.359375 407.105469 C 245.117188 406.046875 245.769531 405 246.828125 404.757812 C 247.878906 404.507812 248.933594 405.167969 249.175781 406.226562 C 249.390625 407.152344 248.898438 408.109375 248.011719 408.46875 C 250.59375 412.859375 253.816406 416.839844 257.582031 420.265625 C 262.027344 414.996094 265.59375 409.050781 268.15625 402.648438 C 266.4375 402.5 265.171875 400.992188 265.316406 399.28125 C 265.460938 397.566406 266.972656 396.296875 268.683594 396.445312 C 270.390625 396.589844 271.667969 398.097656 271.519531 399.808594 C 271.390625 401.316406 270.191406 402.515625 268.683594 402.648438 C 271.238281 409.050781 274.808594 414.996094 279.257812 420.265625 C 283.015625 416.839844 286.242188 412.859375 288.820312 408.46875 C 287.820312 408.054688 287.359375 406.902344 287.773438 405.90625 C 288.1875 404.910156 289.339844 404.445312 290.335938 404.863281 C 291.332031 405.277344 291.804688 406.425781 291.386719 407.421875 C 291.015625 408.308594 290.058594 408.792969 289.125 408.574219 C 289.136719 413.21875 288.679688 417.855469 287.753906 422.402344 C 294.429688 419.546875 300.210938 414.957031 304.515625 409.113281 C 303.570312 408.585938 303.230469 407.394531 303.75 406.445312 C 304.273438 405.503906 305.464844 405.160156 306.414062 405.6875 C 307.355469 406.210938 307.703125 407.402344 307.175781 408.34375 C 306.691406 409.222656 305.625 409.589844 304.703125 409.203125 L 293.078125 435.722656 C 276.875 431.734375 259.949219 431.734375 243.753906 435.722656 L 232.125 409.203125 C 231.128906 409.625 229.980469 409.152344 229.558594 408.15625 C 229.140625 407.160156 229.605469 406.019531 230.601562 405.59375 C 231.601562 405.171875 232.75 405.644531 233.164062 406.640625 C 233.558594 407.5625 233.1875 408.628906 232.3125 409.113281 " fill-opacity="1" fill-rule="nonzero"/></g><g clip-path="url(#d38abf1d83)"><path fill="#00bf63" d="M 209.617188 306.84375 C 226.558594 306.84375 240.3125 293.082031 240.3125 276.128906 C 240.3125 241.636719 205.539062 232.59375 181.84375 198.5 C 159.445312 232.386719 123.378906 242.742188 123.378906 276.128906 C 123.378906 293.082031 137.132812 306.84375 154.074219 306.84375 C 166.367188 306.84375 176.945312 299.582031 181.84375 289.132812 C 186.746094 299.582031 197.324219 306.84375 209.617188 306.84375 Z M 209.617188 306.84375 " fill-opacity="1" fill-rule="nonzero"/></g><g clip-path="url(#1479c773ea)"><g clip-path="url(#7ec761148e)"><g clip-path="url(#e55aff1004)"><path fill="#00bf63" d="M 158.636719 206.507812 C 158.6875 206.539062 158.734375 206.578125 158.777344 206.617188 C 185.542969 231.0625 193.128906 277.03125 176.417969 313.539062 C 176.351562 313.683594 176.257812 313.808594 176.140625 313.917969 C 176.023438 314.023438 175.890625 314.105469 175.742188 314.160156 C 175.59375 314.21875 175.4375 314.242188 175.28125 314.234375 C 175.121094 314.230469 174.96875 314.195312 174.824219 314.128906 C 174.683594 314.0625 174.554688 313.972656 174.449219 313.855469 C 174.339844 313.738281 174.257812 313.605469 174.203125 313.457031 C 174.144531 313.308594 174.121094 313.15625 174.125 312.996094 C 174.132812 312.835938 174.167969 312.6875 174.234375 312.539062 C 190.527344 276.945312 183.183594 232.171875 157.152344 208.394531 C 156.921875 208.183594 156.792969 207.921875 156.765625 207.605469 C 156.742188 207.292969 156.824219 207.011719 157.019531 206.765625 C 157.214844 206.515625 157.46875 206.367188 157.78125 206.316406 C 158.089844 206.269531 158.378906 206.332031 158.636719 206.507812 Z M 158.636719 206.507812 " fill-opacity="1" fill-rule="nonzero"/></g></g></g></svg>