<svg xmlns="http://www.w3.org/2000/svg" xmlns:xlink="http://www.w3.org/1999/xlink" width="480" zoomAndPan="magnify" viewBox="0 0 360 503.999982" height="672" preserveAspectRatio="xMidYMid meet" version="1.0"><defs><filter x="0%" y="0%" width="100%" height="100%" id="65fc2a8c05"><feColorMatrix values="0 0 0 0 1 0 0 0 0 1 0 0 0 0 1 0 0 0 1 0" color-interpolation-filters="sRGB"/></filter><g/><mask id="257283d438"><g filter="url(#65fc2a8c05)"><rect x="-36" width="432" fill="#000000" y="-50.399998" height="604.799979" fill-opacity="0.1373"/></g></mask><clipPath id="0c2f195998"><path d="M 0 0 L 1 0 L 1 432.847656 L 0 432.847656 Z M 0 0 " clip-rule="nonzero"/></clipPath><clipPath id="14ff117945"><path d="M 0 0 L 18 0 L 18 432.847656 L 0 432.847656 Z M 0 0 " clip-rule="nonzero"/></clipPath><clipPath id="81417b1293"><path d="M 0 0 L 35 0 L 35 432.847656 L 0 432.847656 Z M 0 0 " clip-rule="nonzero"/></clipPath><clipPath id="60ab36a20c"><path d="M 0 0 L 53 0 L 53 432.847656 L 0 432.847656 Z M 0 0 " clip-rule="nonzero"/></clipPath><clipPath id="a774cb8940"><path d="M 0 0 L 70 0 L 70 432.847656 L 0 432.847656 Z M 0 0 " clip-rule="nonzero"/></clipPath><clipPath id="1026fd79b9"><path d="M 0 0 L 88 0 L 88 432.847656 L 0 432.847656 Z M 0 0 " clip-rule="nonzero"/></clipPath><clipPath id="9686057932"><path d="M 0 0 L 105 0 L 105 432.847656 L 0 432.847656 Z M 0 0 " clip-rule="nonzero"/></clipPath><clipPath id="2438cd366c"><path d="M 0 0 L 122 0 L 122 432.847656 L 0 432.847656 Z M 0 0 " clip-rule="nonzero"/></clipPath><clipPath id="0667437fa7"><path d="M 0 0 L 140 0 L 140 432.847656 L 0 432.847656 Z M 0 0 " clip-rule="nonzero"/></clipPath><clipPath id="dbddacae54"><path d="M 0 0 L 157 0 L 157 432.847656 L 0 432.847656 Z M 0 0 " clip-rule="nonzero"/></clipPath><clipPath id="69395bf602"><path d="M 0 0 L 175 0 L 175 432.847656 L 0 432.847656 Z M 0 0 " clip-rule="nonzero"/></clipPath><clipPath id="df6228e38b"><path d="M 0 0 L 192 0 L 192 432.847656 L 0 432.847656 Z M 0 0 " clip-rule="nonzero"/></clipPath><clipPath id="9fa250e7d2"><path d="M 0 0 L 208.722656 0 L 208.722656 432.847656 L 0 432.847656 Z M 0 0 " clip-rule="nonzero"/></clipPath><clipPath id="851ea2b5b5"><rect x="0" width="209" y="0" height="434"/></clipPath><mask id="40410ffba0"><g filter="url(#65fc2a8c05)"><rect x="-36" width="432" fill="#000000" y="-50.399998" height="604.799979" fill-opacity="0.1373"/></g></mask><clipPath id="9e6ee98ac9"><path d="M 0 1 L 197 1 L 197 501.648438 L 0 501.648438 Z M 0 1 " clip-rule="nonzero"/></clipPath><clipPath id="9ba347c0ed"><path d="M 0 1 L 214 1 L 214 501.648438 L 0 501.648438 Z M 0 1 " clip-rule="nonzero"/></clipPath><clipPath id="a4b5ab8701"><path d="M 12 1 L 232 1 L 232 501.648438 L 12 501.648438 Z M 12 1 " clip-rule="nonzero"/></clipPath><clipPath id="73c6da3380"><path d="M 29 1 L 249 1 L 249 501.648438 L 29 501.648438 Z M 29 1 " clip-rule="nonzero"/></clipPath><clipPath id="1e17209f74"><path d="M 47 1 L 267 1 L 267 501.648438 L 47 501.648438 Z M 47 1 " clip-rule="nonzero"/></clipPath><clipPath id="c142df04f6"><path d="M 64 1 L 284 1 L 284 501.648438 L 64 501.648438 Z M 64 1 " clip-rule="nonzero"/></clipPath><clipPath id="f7f0e42b33"><path d="M 81 1 L 301 1 L 301 501.648438 L 81 501.648438 Z M 81 1 " clip-rule="nonzero"/></clipPath><clipPath id="af70f2ab78"><path d="M 99 1 L 319 1 L 319 501.648438 L 99 501.648438 Z M 99 1 " clip-rule="nonzero"/></clipPath><clipPath id="61c9a81c25"><path d="M 116 1 L 336 1 L 336 501.648438 L 116 501.648438 Z M 116 1 " clip-rule="nonzero"/></clipPath><clipPath id="7b10692d66"><path d="M 134 1 L 354 1 L 354 501.648438 L 134 501.648438 Z M 134 1 " clip-rule="nonzero"/></clipPath><clipPath id="7cb857faa6"><path d="M 151 1 L 360 1 L 360 501.648438 L 151 501.648438 Z M 151 1 " clip-rule="nonzero"/></clipPath><clipPath id="08b35ca49e"><path d="M 168 1 L 360 1 L 360 501.648438 L 168 501.648438 Z M 168 1 " clip-rule="nonzero"/></clipPath><clipPath id="400c2b174d"><path d="M 186 1 L 360 1 L 360 501.648438 L 186 501.648438 Z M 186 1 " clip-rule="nonzero"/></clipPath><clipPath id="b4b9b6ab6d"><path d="M 203 1 L 360 1 L 360 501.648438 L 203 501.648438 Z M 203 1 " clip-rule="nonzero"/></clipPath><clipPath id="7d4fe15fac"><path d="M 221 1 L 360 1 L 360 501.648438 L 221 501.648438 Z M 221 1 " clip-rule="nonzero"/></clipPath><clipPath id="4e2be10dec"><rect x="0" width="360" y="0" height="502"/></clipPath><clipPath id="dd4292cd65"><path d="M 28.015625 36 L 331.765625 36 L 331.765625 468 L 28.015625 468 Z M 28.015625 36 " clip-rule="nonzero"/></clipPath><clipPath id="db86b315db"><path d="M 219.941406 313.363281 L 276.941406 313.363281 L 276.941406 365.863281 L 219.941406 365.863281 Z M 219.941406 313.363281 " clip-rule="nonzero"/></clipPath><clipPath id="7175e0f1de"><path d="M 219.941406 247.945312 L 276.941406 247.945312 L 276.941406 300.445312 L 219.941406 300.445312 Z M 219.941406 247.945312 " clip-rule="nonzero"/></clipPath><clipPath id="cefdbbf533"><path d="M 219.941406 182.523438 L 276.941406 182.523438 L 276.941406 235.023438 L 219.941406 235.023438 Z M 219.941406 182.523438 " clip-rule="nonzero"/></clipPath><mask id="423a61261e"><g filter="url(#65fc2a8c05)"><rect x="-36" width="432" fill="#000000" y="-50.399998" height="604.799979" fill-opacity="0.1373"/></g></mask><clipPath id="a381262e74"><path d="M 0.222656 1 L 122 1 L 122 501.648438 L 0.222656 501.648438 Z M 0.222656 1 " clip-rule="nonzero"/></clipPath><clipPath id="1dddf64c3d"><path d="M 17 1 L 122 1 L 122 501.648438 L 17 501.648438 Z M 17 1 " clip-rule="nonzero"/></clipPath><clipPath id="ce552de1e9"><path d="M 35 1 L 122 1 L 122 501.648438 L 35 501.648438 Z M 35 1 " clip-rule="nonzero"/></clipPath><clipPath id="75a8bcd7be"><path d="M 52 1 L 122 1 L 122 501.648438 L 52 501.648438 Z M 52 1 " clip-rule="nonzero"/></clipPath><clipPath id="c50b747a50"><path d="M 70 1 L 122 1 L 122 501.648438 L 70 501.648438 Z M 70 1 " clip-rule="nonzero"/></clipPath><clipPath id="3f33fda2cf"><path d="M 87 1 L 122 1 L 122 501.648438 L 87 501.648438 Z M 87 1 " clip-rule="nonzero"/></clipPath><clipPath id="43ba810a84"><path d="M 104 1 L 122 1 L 122 501.648438 L 104 501.648438 Z M 104 1 " clip-rule="nonzero"/></clipPath><clipPath id="2601f4802a"><rect x="0" width="122" y="0" height="502"/></clipPath><clipPath id="0e00ea5e7d"><path d="M 219.941406 378.785156 L 276.941406 378.785156 L 276.941406 431.285156 L 219.941406 431.285156 Z M 219.941406 378.785156 " clip-rule="nonzero"/></clipPath><clipPath id="cc6d06dc21"><path d="M 84.941406 313.363281 L 141.941406 313.363281 L 141.941406 365.863281 L 84.941406 365.863281 Z M 84.941406 313.363281 " clip-rule="nonzero"/></clipPath><clipPath id="093a60629c"><path d="M 84.941406 247.945312 L 141.941406 247.945312 L 141.941406 300.445312 L 84.941406 300.445312 Z M 84.941406 247.945312 " clip-rule="nonzero"/></clipPath><clipPath id="17821a5bd2"><path d="M 84.941406 182.523438 L 141.941406 182.523438 L 141.941406 235.023438 L 84.941406 235.023438 Z M 84.941406 182.523438 " clip-rule="nonzero"/></clipPath><clipPath id="c08facadde"><path d="M 84.941406 378.785156 L 141.941406 378.785156 L 141.941406 431.285156 L 84.941406 431.285156 Z M 84.941406 378.785156 " clip-rule="nonzero"/></clipPath><clipPath id="d04931b17a"><path d="M 151.53125 116.972656 L 208.53125 116.972656 L 208.53125 169.472656 L 151.53125 169.472656 Z M 151.53125 116.972656 " clip-rule="nonzero"/></clipPath></defs><rect x="-36" width="432" fill="#ffffff" y="-50.399998" height="604.799979" fill-opacity="1"/><rect x="-36" width="432" fill="#323232" y="-50.399998" height="604.799979" fill-opacity="1"/><g mask="url(#257283d438)"><g transform="matrix(1, 0, 0, 1, 0, 0)"><g clip-path="url(#851ea2b5b5)"><g clip-path="url(#0c2f195998)"><path fill="#000000" d="M -217.589844 432.296875 L -219.066406 431.664062 L -1.417969 -67.574219 L 0.0507812 -66.9375 Z M -217.589844 432.296875 " fill-opacity="1" fill-rule="nonzero"/></g><g clip-path="url(#14ff117945)"><path fill="#000000" d="M -200.175781 432.296875 L -201.652344 431.664062 L 15.992188 -67.574219 L 17.460938 -66.9375 Z M -200.175781 432.296875 " fill-opacity="1" fill-rule="nonzero"/></g><g clip-path="url(#81417b1293)"><path fill="#000000" d="M -182.765625 432.296875 L -184.242188 431.664062 L 33.40625 -67.574219 L 34.875 -66.9375 Z M -182.765625 432.296875 " fill-opacity="1" fill-rule="nonzero"/></g><g clip-path="url(#60ab36a20c)"><path fill="#000000" d="M -165.359375 432.296875 L -166.828125 431.664062 L 50.816406 -67.574219 L 52.289062 -66.9375 Z M -165.359375 432.296875 " fill-opacity="1" fill-rule="nonzero"/></g><g clip-path="url(#a774cb8940)"><path fill="#000000" d="M -147.945312 432.296875 L -149.421875 431.664062 L 68.222656 -67.574219 L 69.699219 -66.9375 Z M -147.945312 432.296875 " fill-opacity="1" fill-rule="nonzero"/></g><g clip-path="url(#1026fd79b9)"><path fill="#000000" d="M -130.535156 432.296875 L -132.011719 431.664062 L 85.636719 -67.574219 L 87.113281 -66.9375 Z M -130.535156 432.296875 " fill-opacity="1" fill-rule="nonzero"/></g><g clip-path="url(#9686057932)"><path fill="#000000" d="M -113.121094 432.296875 L -114.597656 431.664062 L 103.050781 -67.574219 L 104.523438 -66.9375 Z M -113.121094 432.296875 " fill-opacity="1" fill-rule="nonzero"/></g><g clip-path="url(#2438cd366c)"><path fill="#000000" d="M -95.707031 432.296875 L -97.183594 431.664062 L 120.460938 -67.574219 L 121.929688 -66.9375 Z M -95.707031 432.296875 " fill-opacity="1" fill-rule="nonzero"/></g><g clip-path="url(#0667437fa7)"><path fill="#000000" d="M -78.304688 432.296875 L -79.773438 431.664062 L 137.875 -67.574219 L 139.34375 -66.9375 Z M -78.304688 432.296875 " fill-opacity="1" fill-rule="nonzero"/></g><g clip-path="url(#dbddacae54)"><path fill="#000000" d="M -60.890625 432.296875 L -62.359375 431.664062 L 155.28125 -67.574219 L 156.757812 -66.9375 Z M -60.890625 432.296875 " fill-opacity="1" fill-rule="nonzero"/></g><g clip-path="url(#69395bf602)"><path fill="#000000" d="M -43.476562 432.296875 L -44.949219 431.664062 L 172.691406 -67.574219 L 174.167969 -66.9375 Z M -43.476562 432.296875 " fill-opacity="1" fill-rule="nonzero"/></g><g clip-path="url(#df6228e38b)"><path fill="#000000" d="M -26.066406 432.296875 L -27.535156 431.664062 L 190.105469 -67.574219 L 191.582031 -66.9375 Z M -26.066406 432.296875 " fill-opacity="1" fill-rule="nonzero"/></g><g clip-path="url(#9fa250e7d2)"><path fill="#000000" d="M -8.652344 432.296875 L -10.128906 431.664062 L 207.515625 -67.574219 L 208.992188 -66.9375 Z M -8.652344 432.296875 " fill-opacity="1" fill-rule="nonzero"/></g></g></g></g><g mask="url(#40410ffba0)"><g transform="matrix(1, 0, 0, 1, 0, 2)"><g clip-path="url(#4e2be10dec)"><g clip-path="url(#9e6ee98ac9)"><path fill="#000000" d="M -21.167969 501.097656 L -22.636719 500.460938 L 195.003906 1.226562 L 196.480469 1.859375 Z M -21.167969 501.097656 " fill-opacity="1" fill-rule="nonzero"/></g><g clip-path="url(#9ba347c0ed)"><path fill="#000000" d="M -3.753906 501.097656 L -5.230469 500.460938 L 212.414062 1.226562 L 213.890625 1.859375 Z M -3.753906 501.097656 " fill-opacity="1" fill-rule="nonzero"/></g><g clip-path="url(#a4b5ab8701)"><path fill="#000000" d="M 13.65625 501.097656 L 12.183594 500.460938 L 229.828125 1.226562 L 231.296875 1.859375 Z M 13.65625 501.097656 " fill-opacity="1" fill-rule="nonzero"/></g><g clip-path="url(#73c6da3380)"><path fill="#000000" d="M 31.070312 501.097656 L 29.59375 500.460938 L 247.242188 1.226562 L 248.710938 1.859375 Z M 31.070312 501.097656 " fill-opacity="1" fill-rule="nonzero"/></g><g clip-path="url(#1e17209f74)"><path fill="#000000" d="M 48.484375 501.097656 L 47.007812 500.460938 L 264.652344 1.226562 L 266.125 1.859375 Z M 48.484375 501.097656 " fill-opacity="1" fill-rule="nonzero"/></g><g clip-path="url(#c142df04f6)"><path fill="#000000" d="M 65.890625 501.097656 L 64.417969 500.460938 L 282.066406 1.226562 L 283.535156 1.859375 Z M 65.890625 501.097656 " fill-opacity="1" fill-rule="nonzero"/></g><g clip-path="url(#f7f0e42b33)"><path fill="#000000" d="M 83.300781 501.097656 L 81.824219 500.460938 L 299.472656 1.226562 L 300.949219 1.859375 Z M 83.300781 501.097656 " fill-opacity="1" fill-rule="nonzero"/></g><g clip-path="url(#af70f2ab78)"><path fill="#000000" d="M 100.714844 501.097656 L 99.238281 500.460938 L 316.882812 1.226562 L 318.359375 1.859375 Z M 100.714844 501.097656 " fill-opacity="1" fill-rule="nonzero"/></g><g clip-path="url(#61c9a81c25)"><path fill="#000000" d="M 118.125 501.097656 L 116.652344 500.460938 L 334.296875 1.226562 L 335.773438 1.859375 Z M 118.125 501.097656 " fill-opacity="1" fill-rule="nonzero"/></g><g clip-path="url(#7b10692d66)"><path fill="#000000" d="M 135.539062 501.097656 L 134.0625 500.460938 L 351.710938 1.226562 L 353.179688 1.859375 Z M 135.539062 501.097656 " fill-opacity="1" fill-rule="nonzero"/></g><g clip-path="url(#7cb857faa6)"><path fill="#000000" d="M 152.945312 501.097656 L 151.476562 500.460938 L 369.121094 1.226562 L 370.589844 1.859375 Z M 152.945312 501.097656 " fill-opacity="1" fill-rule="nonzero"/></g><g clip-path="url(#08b35ca49e)"><path fill="#000000" d="M 170.359375 501.097656 L 168.886719 500.460938 L 386.527344 1.226562 L 388.003906 1.859375 Z M 170.359375 501.097656 " fill-opacity="1" fill-rule="nonzero"/></g><g clip-path="url(#400c2b174d)"><path fill="#000000" d="M 187.769531 501.097656 L 186.300781 500.460938 L 403.941406 1.226562 L 405.417969 1.859375 Z M 187.769531 501.097656 " fill-opacity="1" fill-rule="nonzero"/></g><g clip-path="url(#b4b9b6ab6d)"><path fill="#000000" d="M 205.183594 501.097656 L 203.710938 500.460938 L 421.351562 1.226562 L 422.828125 1.859375 Z M 205.183594 501.097656 " fill-opacity="1" fill-rule="nonzero"/></g><g clip-path="url(#7d4fe15fac)"><path fill="#000000" d="M 222.59375 501.097656 L 221.117188 500.460938 L 438.765625 1.226562 L 440.242188 1.859375 Z M 222.59375 501.097656 " fill-opacity="1" fill-rule="nonzero"/></g></g></g></g><g clip-path="url(#dd4292cd65)"><path fill="#ff3131" d="M 331.601562 467.976562 L 28.1875 467.976562 L 28.1875 36 L 331.601562 36 Z M 29.066406 467.097656 L 330.722656 467.097656 L 330.722656 36.878906 L 29.066406 36.878906 Z M 29.066406 467.097656 " fill-opacity="1" fill-rule="nonzero"/></g><g clip-path="url(#db86b315db)"><path fill="#ff3131" d="M 234.921875 313.371094 C 226.671875 313.371094 219.972656 320.039062 219.972656 328.253906 C 219.972656 344.96875 236.90625 349.347656 248.445312 365.871094 C 259.355469 349.449219 276.917969 344.433594 276.917969 328.253906 C 276.917969 320.039062 270.21875 313.371094 261.96875 313.371094 C 255.984375 313.371094 250.832031 316.890625 248.445312 321.953125 C 246.058594 316.890625 240.90625 313.371094 234.921875 313.371094 Z M 234.921875 313.371094 " fill-opacity="1" fill-rule="nonzero"/></g><g clip-path="url(#7175e0f1de)"><path fill="#ff3131" d="M 234.921875 247.949219 C 226.671875 247.949219 219.972656 254.617188 219.972656 262.832031 C 219.972656 279.546875 236.90625 283.929688 248.445312 300.453125 C 259.355469 284.03125 276.917969 279.011719 276.917969 262.832031 C 276.917969 254.617188 270.21875 247.949219 261.96875 247.949219 C 255.984375 247.949219 250.832031 251.46875 248.445312 256.53125 C 246.058594 251.46875 240.90625 247.949219 234.921875 247.949219 Z M 234.921875 247.949219 " fill-opacity="1" fill-rule="nonzero"/></g><g clip-path="url(#cefdbbf533)"><path fill="#ff3131" d="M 234.921875 182.53125 C 226.671875 182.53125 219.972656 189.199219 219.972656 197.414062 C 219.972656 214.128906 236.90625 218.507812 248.445312 235.03125 C 259.355469 218.609375 276.917969 213.59375 276.917969 197.414062 C 276.917969 189.199219 270.21875 182.53125 261.96875 182.53125 C 255.984375 182.53125 250.832031 186.050781 248.445312 191.113281 C 246.058594 186.050781 240.90625 182.53125 234.921875 182.53125 Z M 234.921875 182.53125 " fill-opacity="1" fill-rule="nonzero"/></g><g fill="#ff3131" fill-opacity="1"><g transform="translate(44.874898, 95.039993)"><g><path d="M 16.828125 -43.71875 C 8.320312 -43.71875 2.421875 -37.320312 2.421875 -29.0625 C 2.421875 -20.988281 7.328125 -14.28125 16.207031 -14.28125 C 20.679688 -14.28125 24.46875 -16.144531 27.074219 -19.746094 L 28.628906 -22.976562 C 28.195312 -5.835938 22.292969 -1.179688 15.773438 -1.179688 C 10.183594 -1.179688 6.832031 -4.097656 5.589844 -10.246094 L 5.464844 -10.867188 L 3.042969 -10.867188 L 3.105469 -10.246094 C 4.347656 -3.414062 8.136719 0.871094 15.648438 0.871094 C 24.902344 0.871094 31.050781 -6.894531 31.050781 -24.09375 C 31.050781 -38.066406 25.585938 -43.71875 16.828125 -43.71875 Z M 16.519531 -16.332031 C 9.316406 -16.332031 5.03125 -21.921875 5.03125 -29.25 C 5.03125 -36.203125 9.625 -41.667969 16.828125 -41.667969 C 24.09375 -41.667969 28.195312 -35.769531 28.195312 -28.378906 C 28.195312 -21.238281 22.976562 -16.332031 16.519531 -16.332031 Z M 16.519531 -16.332031 "/></g></g></g><g mask="url(#423a61261e)"><g transform="matrix(1, 0, 0, 1, 238, 2)"><g clip-path="url(#2601f4802a)"><g clip-path="url(#a381262e74)"><path fill="#000000" d="M 1.832031 501.097656 L 0.363281 500.460938 L 218.003906 1.226562 L 219.480469 1.859375 Z M 1.832031 501.097656 " fill-opacity="1" fill-rule="nonzero"/></g><g clip-path="url(#1dddf64c3d)"><path fill="#000000" d="M 19.246094 501.097656 L 17.769531 500.460938 L 235.414062 1.226562 L 236.890625 1.859375 Z M 19.246094 501.097656 " fill-opacity="1" fill-rule="nonzero"/></g><g clip-path="url(#ce552de1e9)"><path fill="#000000" d="M 36.65625 501.097656 L 35.183594 500.460938 L 252.828125 1.226562 L 254.296875 1.859375 Z M 36.65625 501.097656 " fill-opacity="1" fill-rule="nonzero"/></g><g clip-path="url(#75a8bcd7be)"><path fill="#000000" d="M 54.070312 501.097656 L 52.59375 500.460938 L 270.242188 1.226562 L 271.710938 1.859375 Z M 54.070312 501.097656 " fill-opacity="1" fill-rule="nonzero"/></g><g clip-path="url(#c50b747a50)"><path fill="#000000" d="M 71.484375 501.097656 L 70.007812 500.460938 L 287.652344 1.226562 L 289.125 1.859375 Z M 71.484375 501.097656 " fill-opacity="1" fill-rule="nonzero"/></g><g clip-path="url(#3f33fda2cf)"><path fill="#000000" d="M 88.890625 501.097656 L 87.417969 500.460938 L 305.066406 1.226562 L 306.535156 1.859375 Z M 88.890625 501.097656 " fill-opacity="1" fill-rule="nonzero"/></g><g clip-path="url(#43ba810a84)"><path fill="#000000" d="M 106.300781 501.097656 L 104.824219 500.460938 L 322.472656 1.226562 L 323.949219 1.859375 Z M 106.300781 501.097656 " fill-opacity="1" fill-rule="nonzero"/></g></g></g></g><g clip-path="url(#0e00ea5e7d)"><path fill="#ff3131" d="M 234.921875 378.789062 C 226.671875 378.789062 219.972656 385.457031 219.972656 393.671875 C 219.972656 410.386719 236.90625 414.769531 248.445312 431.292969 C 259.355469 414.871094 276.917969 409.851562 276.917969 393.671875 C 276.917969 385.457031 270.21875 378.789062 261.96875 378.789062 C 255.984375 378.789062 250.832031 382.308594 248.445312 387.371094 C 246.058594 382.308594 240.90625 378.789062 234.921875 378.789062 Z M 234.921875 378.789062 " fill-opacity="1" fill-rule="nonzero"/></g><g clip-path="url(#cc6d06dc21)"><path fill="#ff3131" d="M 99.921875 313.371094 C 91.671875 313.371094 84.972656 320.039062 84.972656 328.253906 C 84.972656 344.96875 101.90625 349.347656 113.445312 365.871094 C 124.355469 349.449219 141.917969 344.433594 141.917969 328.253906 C 141.917969 320.039062 135.21875 313.371094 126.96875 313.371094 C 120.984375 313.371094 115.832031 316.890625 113.445312 321.953125 C 111.058594 316.890625 105.90625 313.371094 99.921875 313.371094 Z M 99.921875 313.371094 " fill-opacity="1" fill-rule="nonzero"/></g><g clip-path="url(#093a60629c)"><path fill="#ff3131" d="M 99.921875 247.949219 C 91.671875 247.949219 84.972656 254.617188 84.972656 262.832031 C 84.972656 279.546875 101.90625 283.929688 113.445312 300.453125 C 124.355469 284.03125 141.917969 279.011719 141.917969 262.832031 C 141.917969 254.617188 135.21875 247.949219 126.96875 247.949219 C 120.984375 247.949219 115.832031 251.46875 113.445312 256.53125 C 111.058594 251.46875 105.90625 247.949219 99.921875 247.949219 Z M 99.921875 247.949219 " fill-opacity="1" fill-rule="nonzero"/></g><g clip-path="url(#17821a5bd2)"><path fill="#ff3131" d="M 99.921875 182.53125 C 91.671875 182.53125 84.972656 189.199219 84.972656 197.414062 C 84.972656 214.128906 101.90625 218.507812 113.445312 235.03125 C 124.355469 218.609375 141.917969 213.59375 141.917969 197.414062 C 141.917969 189.199219 135.21875 182.53125 126.96875 182.53125 C 120.984375 182.53125 115.832031 186.050781 113.445312 191.113281 C 111.058594 186.050781 105.90625 182.53125 99.921875 182.53125 Z M 99.921875 182.53125 " fill-opacity="1" fill-rule="nonzero"/></g><g clip-path="url(#c08facadde)"><path fill="#ff3131" d="M 99.921875 378.789062 C 91.671875 378.789062 84.972656 385.457031 84.972656 393.671875 C 84.972656 410.386719 101.90625 414.769531 113.445312 431.292969 C 124.355469 414.871094 141.917969 409.851562 141.917969 393.671875 C 141.917969 385.457031 135.21875 378.789062 126.96875 378.789062 C 120.984375 378.789062 115.832031 382.308594 113.445312 387.371094 C 111.058594 382.308594 105.90625 378.789062 99.921875 378.789062 Z M 99.921875 378.789062 " fill-opacity="1" fill-rule="nonzero"/></g><g clip-path="url(#d04931b17a)"><path fill="#ff3131" d="M 166.511719 116.980469 C 158.257812 116.980469 151.5625 123.648438 151.5625 131.863281 C 151.5625 148.578125 168.496094 152.957031 180.035156 169.480469 C 190.941406 153.0625 208.503906 148.042969 208.503906 131.863281 C 208.503906 123.648438 201.808594 116.980469 193.554688 116.980469 C 187.570312 116.980469 182.421875 120.5 180.035156 125.5625 C 177.648438 120.5 172.496094 116.980469 166.511719 116.980469 Z M 166.511719 116.980469 " fill-opacity="1" fill-rule="nonzero"/></g></svg>