<svg xmlns="http://www.w3.org/2000/svg" xmlns:xlink="http://www.w3.org/1999/xlink" width="480" zoomAndPan="magnify" viewBox="0 0 360 503.999982" height="672" preserveAspectRatio="xMidYMid meet" version="1.0"><defs><filter x="0%" y="0%" width="100%" height="100%" id="2f39d50510"><feColorMatrix values="0 0 0 0 1 0 0 0 0 1 0 0 0 0 1 0 0 0 1 0" color-interpolation-filters="sRGB"/></filter><g/><mask id="5033b18b4f"><g filter="url(#2f39d50510)"><rect x="-36" width="432" fill="#000000" y="-50.399998" height="604.799979" fill-opacity="0.1373"/></g></mask><clipPath id="836738cf8d"><path d="M 0 0 L 1 0 L 1 432.847656 L 0 432.847656 Z M 0 0 " clip-rule="nonzero"/></clipPath><clipPath id="e43a0573fd"><path d="M 0 0 L 18 0 L 18 432.847656 L 0 432.847656 Z M 0 0 " clip-rule="nonzero"/></clipPath><clipPath id="cd4ad41e87"><path d="M 0 0 L 35 0 L 35 432.847656 L 0 432.847656 Z M 0 0 " clip-rule="nonzero"/></clipPath><clipPath id="39e6899f33"><path d="M 0 0 L 53 0 L 53 432.847656 L 0 432.847656 Z M 0 0 " clip-rule="nonzero"/></clipPath><clipPath id="4c269c731b"><path d="M 0 0 L 70 0 L 70 432.847656 L 0 432.847656 Z M 0 0 " clip-rule="nonzero"/></clipPath><clipPath id="d3355a532b"><path d="M 0 0 L 88 0 L 88 432.847656 L 0 432.847656 Z M 0 0 " clip-rule="nonzero"/></clipPath><clipPath id="23df982069"><path d="M 0 0 L 105 0 L 105 432.847656 L 0 432.847656 Z M 0 0 " clip-rule="nonzero"/></clipPath><clipPath id="6766687a5a"><path d="M 0 0 L 122 0 L 122 432.847656 L 0 432.847656 Z M 0 0 " clip-rule="nonzero"/></clipPath><clipPath id="79c005307f"><path d="M 0 0 L 140 0 L 140 432.847656 L 0 432.847656 Z M 0 0 " clip-rule="nonzero"/></clipPath><clipPath id="2d280f2eb0"><path d="M 0 0 L 157 0 L 157 432.847656 L 0 432.847656 Z M 0 0 " clip-rule="nonzero"/></clipPath><clipPath id="063e472f0a"><path d="M 0 0 L 175 0 L 175 432.847656 L 0 432.847656 Z M 0 0 " clip-rule="nonzero"/></clipPath><clipPath id="806795bb85"><path d="M 0 0 L 192 0 L 192 432.847656 L 0 432.847656 Z M 0 0 " clip-rule="nonzero"/></clipPath><clipPath id="e348987b4f"><path d="M 0 0 L 208.722656 0 L 208.722656 432.847656 L 0 432.847656 Z M 0 0 " clip-rule="nonzero"/></clipPath><clipPath id="4f4a0c7dfc"><rect x="0" width="209" y="0" height="434"/></clipPath><mask id="33823c0d08"><g filter="url(#2f39d50510)"><rect x="-36" width="432" fill="#000000" y="-50.399998" height="604.799979" fill-opacity="0.1373"/></g></mask><clipPath id="dad63cd76e"><path d="M 0.222656 1 L 122 1 L 122 501.648438 L 0.222656 501.648438 Z M 0.222656 1 " clip-rule="nonzero"/></clipPath><clipPath id="1b0c2be041"><path d="M 17 1 L 122 1 L 122 501.648438 L 17 501.648438 Z M 17 1 " clip-rule="nonzero"/></clipPath><clipPath id="90be035f9f"><path d="M 35 1 L 122 1 L 122 501.648438 L 35 501.648438 Z M 35 1 " clip-rule="nonzero"/></clipPath><clipPath id="4f9438ca1d"><path d="M 52 1 L 122 1 L 122 501.648438 L 52 501.648438 Z M 52 1 " clip-rule="nonzero"/></clipPath><clipPath id="e2853e9626"><path d="M 70 1 L 122 1 L 122 501.648438 L 70 501.648438 Z M 70 1 " clip-rule="nonzero"/></clipPath><clipPath id="e91e991f48"><path d="M 87 1 L 122 1 L 122 501.648438 L 87 501.648438 Z M 87 1 " clip-rule="nonzero"/></clipPath><clipPath id="cc5eb3f6bb"><path d="M 104 1 L 122 1 L 122 501.648438 L 104 501.648438 Z M 104 1 " clip-rule="nonzero"/></clipPath><clipPath id="9251d589af"><rect x="0" width="122" y="0" height="502"/></clipPath><mask id="9c0314e02b"><g filter="url(#2f39d50510)"><rect x="-36" width="432" fill="#000000" y="-50.399998" height="604.799979" fill-opacity="0.1373"/></g></mask><clipPath id="f5d6e7fe8c"><path d="M 0 1 L 197 1 L 197 501.648438 L 0 501.648438 Z M 0 1 " clip-rule="nonzero"/></clipPath><clipPath id="4772fe42ec"><path d="M 0 1 L 214 1 L 214 501.648438 L 0 501.648438 Z M 0 1 " clip-rule="nonzero"/></clipPath><clipPath id="959f0cc843"><path d="M 12 1 L 232 1 L 232 501.648438 L 12 501.648438 Z M 12 1 " clip-rule="nonzero"/></clipPath><clipPath id="ba4202c3dd"><path d="M 29 1 L 249 1 L 249 501.648438 L 29 501.648438 Z M 29 1 " clip-rule="nonzero"/></clipPath><clipPath id="1d335b4c32"><path d="M 47 1 L 267 1 L 267 501.648438 L 47 501.648438 Z M 47 1 " clip-rule="nonzero"/></clipPath><clipPath id="0e2e0661ce"><path d="M 64 1 L 284 1 L 284 501.648438 L 64 501.648438 Z M 64 1 " clip-rule="nonzero"/></clipPath><clipPath id="1c1495343e"><path d="M 81 1 L 301 1 L 301 501.648438 L 81 501.648438 Z M 81 1 " clip-rule="nonzero"/></clipPath><clipPath id="d6c8cbcd1b"><path d="M 99 1 L 319 1 L 319 501.648438 L 99 501.648438 Z M 99 1 " clip-rule="nonzero"/></clipPath><clipPath id="b6d99794b2"><path d="M 116 1 L 336 1 L 336 501.648438 L 116 501.648438 Z M 116 1 " clip-rule="nonzero"/></clipPath><clipPath id="5f42edf1ca"><path d="M 134 1 L 354 1 L 354 501.648438 L 134 501.648438 Z M 134 1 " clip-rule="nonzero"/></clipPath><clipPath id="ae1bb87cc4"><path d="M 151 1 L 360 1 L 360 501.648438 L 151 501.648438 Z M 151 1 " clip-rule="nonzero"/></clipPath><clipPath id="cfebbef839"><path d="M 168 1 L 360 1 L 360 501.648438 L 168 501.648438 Z M 168 1 " clip-rule="nonzero"/></clipPath><clipPath id="26b51f86ab"><path d="M 186 1 L 360 1 L 360 501.648438 L 186 501.648438 Z M 186 1 " clip-rule="nonzero"/></clipPath><clipPath id="a3b2848be0"><path d="M 203 1 L 360 1 L 360 501.648438 L 203 501.648438 Z M 203 1 " clip-rule="nonzero"/></clipPath><clipPath id="5f68dcbbfe"><path d="M 221 1 L 360 1 L 360 501.648438 L 221 501.648438 Z M 221 1 " clip-rule="nonzero"/></clipPath><clipPath id="b01b2a24ac"><rect x="0" width="360" y="0" height="502"/></clipPath><clipPath id="73bd1a5db2"><path d="M 28.015625 36 L 331.765625 36 L 331.765625 468 L 28.015625 468 Z M 28.015625 36 " clip-rule="nonzero"/></clipPath><clipPath id="80509a43c8"><path d="M 219.941406 290.46875 L 276.941406 290.46875 L 276.941406 342.96875 L 219.941406 342.96875 Z M 219.941406 290.46875 " clip-rule="nonzero"/></clipPath><clipPath id="5243a57e74"><path d="M 219.941406 202.152344 L 276.941406 202.152344 L 276.941406 254.652344 L 219.941406 254.652344 Z M 219.941406 202.152344 " clip-rule="nonzero"/></clipPath><clipPath id="3a45c110e1"><path d="M 219.941406 117.273438 L 276.941406 117.273438 L 276.941406 169.773438 L 219.941406 169.773438 Z M 219.941406 117.273438 " clip-rule="nonzero"/></clipPath><clipPath id="5a3525930f"><path d="M 219.941406 378.785156 L 276.941406 378.785156 L 276.941406 431.285156 L 219.941406 431.285156 Z M 219.941406 378.785156 " clip-rule="nonzero"/></clipPath><clipPath id="51f29cd4f1"><path d="M 83.339844 290.167969 L 140.339844 290.167969 L 140.339844 342.667969 L 83.339844 342.667969 Z M 83.339844 290.167969 " clip-rule="nonzero"/></clipPath><clipPath id="d9c060206c"><path d="M 83.339844 201.851562 L 140.339844 201.851562 L 140.339844 254.351562 L 83.339844 254.351562 Z M 83.339844 201.851562 " clip-rule="nonzero"/></clipPath><clipPath id="86095cee4d"><path d="M 83.339844 116.972656 L 140.339844 116.972656 L 140.339844 169.472656 L 83.339844 169.472656 Z M 83.339844 116.972656 " clip-rule="nonzero"/></clipPath><clipPath id="6ebbc18072"><path d="M 83.339844 378.484375 L 140.339844 378.484375 L 140.339844 430.984375 L 83.339844 430.984375 Z M 83.339844 378.484375 " clip-rule="nonzero"/></clipPath></defs><rect x="-36" width="432" fill="#ffffff" y="-50.399998" height="604.799979" fill-opacity="1"/><rect x="-36" width="432" fill="#323232" y="-50.399998" height="604.799979" fill-opacity="1"/><g mask="url(#5033b18b4f)"><g transform="matrix(1, 0, 0, 1, 0, 0)"><g clip-path="url(#4f4a0c7dfc)"><g clip-path="url(#836738cf8d)"><path fill="#000000" d="M -217.589844 432.296875 L -219.066406 431.664062 L -1.417969 -67.574219 L 0.0507812 -66.9375 Z M -217.589844 432.296875 " fill-opacity="1" fill-rule="nonzero"/></g><g clip-path="url(#e43a0573fd)"><path fill="#000000" d="M -200.175781 432.296875 L -201.652344 431.664062 L 15.992188 -67.574219 L 17.460938 -66.9375 Z M -200.175781 432.296875 " fill-opacity="1" fill-rule="nonzero"/></g><g clip-path="url(#cd4ad41e87)"><path fill="#000000" d="M -182.765625 432.296875 L -184.242188 431.664062 L 33.40625 -67.574219 L 34.875 -66.9375 Z M -182.765625 432.296875 " fill-opacity="1" fill-rule="nonzero"/></g><g clip-path="url(#39e6899f33)"><path fill="#000000" d="M -165.359375 432.296875 L -166.828125 431.664062 L 50.816406 -67.574219 L 52.289062 -66.9375 Z M -165.359375 432.296875 " fill-opacity="1" fill-rule="nonzero"/></g><g clip-path="url(#4c269c731b)"><path fill="#000000" d="M -147.945312 432.296875 L -149.421875 431.664062 L 68.222656 -67.574219 L 69.699219 -66.9375 Z M -147.945312 432.296875 " fill-opacity="1" fill-rule="nonzero"/></g><g clip-path="url(#d3355a532b)"><path fill="#000000" d="M -130.535156 432.296875 L -132.011719 431.664062 L 85.636719 -67.574219 L 87.113281 -66.9375 Z M -130.535156 432.296875 " fill-opacity="1" fill-rule="nonzero"/></g><g clip-path="url(#23df982069)"><path fill="#000000" d="M -113.121094 432.296875 L -114.597656 431.664062 L 103.050781 -67.574219 L 104.523438 -66.9375 Z M -113.121094 432.296875 " fill-opacity="1" fill-rule="nonzero"/></g><g clip-path="url(#6766687a5a)"><path fill="#000000" d="M -95.707031 432.296875 L -97.183594 431.664062 L 120.460938 -67.574219 L 121.929688 -66.9375 Z M -95.707031 432.296875 " fill-opacity="1" fill-rule="nonzero"/></g><g clip-path="url(#79c005307f)"><path fill="#000000" d="M -78.304688 432.296875 L -79.773438 431.664062 L 137.875 -67.574219 L 139.34375 -66.9375 Z M -78.304688 432.296875 " fill-opacity="1" fill-rule="nonzero"/></g><g clip-path="url(#2d280f2eb0)"><path fill="#000000" d="M -60.890625 432.296875 L -62.359375 431.664062 L 155.28125 -67.574219 L 156.757812 -66.9375 Z M -60.890625 432.296875 " fill-opacity="1" fill-rule="nonzero"/></g><g clip-path="url(#063e472f0a)"><path fill="#000000" d="M -43.476562 432.296875 L -44.949219 431.664062 L 172.691406 -67.574219 L 174.167969 -66.9375 Z M -43.476562 432.296875 " fill-opacity="1" fill-rule="nonzero"/></g><g clip-path="url(#806795bb85)"><path fill="#000000" d="M -26.066406 432.296875 L -27.535156 431.664062 L 190.105469 -67.574219 L 191.582031 -66.9375 Z M -26.066406 432.296875 " fill-opacity="1" fill-rule="nonzero"/></g><g clip-path="url(#e348987b4f)"><path fill="#000000" d="M -8.652344 432.296875 L -10.128906 431.664062 L 207.515625 -67.574219 L 208.992188 -66.9375 Z M -8.652344 432.296875 " fill-opacity="1" fill-rule="nonzero"/></g></g></g></g><g mask="url(#33823c0d08)"><g transform="matrix(1, 0, 0, 1, 238, 2)"><g clip-path="url(#9251d589af)"><g clip-path="url(#dad63cd76e)"><path fill="#000000" d="M 1.832031 501.097656 L 0.363281 500.460938 L 218.003906 1.226562 L 219.480469 1.859375 Z M 1.832031 501.097656 " fill-opacity="1" fill-rule="nonzero"/></g><g clip-path="url(#1b0c2be041)"><path fill="#000000" d="M 19.246094 501.097656 L 17.769531 500.460938 L 235.414062 1.226562 L 236.890625 1.859375 Z M 19.246094 501.097656 " fill-opacity="1" fill-rule="nonzero"/></g><g clip-path="url(#90be035f9f)"><path fill="#000000" d="M 36.65625 501.097656 L 35.183594 500.460938 L 252.828125 1.226562 L 254.296875 1.859375 Z M 36.65625 501.097656 " fill-opacity="1" fill-rule="nonzero"/></g><g clip-path="url(#4f9438ca1d)"><path fill="#000000" d="M 54.070312 501.097656 L 52.59375 500.460938 L 270.242188 1.226562 L 271.710938 1.859375 Z M 54.070312 501.097656 " fill-opacity="1" fill-rule="nonzero"/></g><g clip-path="url(#e2853e9626)"><path fill="#000000" d="M 71.484375 501.097656 L 70.007812 500.460938 L 287.652344 1.226562 L 289.125 1.859375 Z M 71.484375 501.097656 " fill-opacity="1" fill-rule="nonzero"/></g><g clip-path="url(#e91e991f48)"><path fill="#000000" d="M 88.890625 501.097656 L 87.417969 500.460938 L 305.066406 1.226562 L 306.535156 1.859375 Z M 88.890625 501.097656 " fill-opacity="1" fill-rule="nonzero"/></g><g clip-path="url(#cc5eb3f6bb)"><path fill="#000000" d="M 106.300781 501.097656 L 104.824219 500.460938 L 322.472656 1.226562 L 323.949219 1.859375 Z M 106.300781 501.097656 " fill-opacity="1" fill-rule="nonzero"/></g></g></g></g><g mask="url(#9c0314e02b)"><g transform="matrix(1, 0, 0, 1, 0, 2)"><g clip-path="url(#b01b2a24ac)"><g clip-path="url(#f5d6e7fe8c)"><path fill="#000000" d="M -21.167969 501.097656 L -22.636719 500.460938 L 195.003906 1.226562 L 196.480469 1.859375 Z M -21.167969 501.097656 " fill-opacity="1" fill-rule="nonzero"/></g><g clip-path="url(#4772fe42ec)"><path fill="#000000" d="M -3.753906 501.097656 L -5.230469 500.460938 L 212.414062 1.226562 L 213.890625 1.859375 Z M -3.753906 501.097656 " fill-opacity="1" fill-rule="nonzero"/></g><g clip-path="url(#959f0cc843)"><path fill="#000000" d="M 13.65625 501.097656 L 12.183594 500.460938 L 229.828125 1.226562 L 231.296875 1.859375 Z M 13.65625 501.097656 " fill-opacity="1" fill-rule="nonzero"/></g><g clip-path="url(#ba4202c3dd)"><path fill="#000000" d="M 31.070312 501.097656 L 29.59375 500.460938 L 247.242188 1.226562 L 248.710938 1.859375 Z M 31.070312 501.097656 " fill-opacity="1" fill-rule="nonzero"/></g><g clip-path="url(#1d335b4c32)"><path fill="#000000" d="M 48.484375 501.097656 L 47.007812 500.460938 L 264.652344 1.226562 L 266.125 1.859375 Z M 48.484375 501.097656 " fill-opacity="1" fill-rule="nonzero"/></g><g clip-path="url(#0e2e0661ce)"><path fill="#000000" d="M 65.890625 501.097656 L 64.417969 500.460938 L 282.066406 1.226562 L 283.535156 1.859375 Z M 65.890625 501.097656 " fill-opacity="1" fill-rule="nonzero"/></g><g clip-path="url(#1c1495343e)"><path fill="#000000" d="M 83.300781 501.097656 L 81.824219 500.460938 L 299.472656 1.226562 L 300.949219 1.859375 Z M 83.300781 501.097656 " fill-opacity="1" fill-rule="nonzero"/></g><g clip-path="url(#d6c8cbcd1b)"><path fill="#000000" d="M 100.714844 501.097656 L 99.238281 500.460938 L 316.882812 1.226562 L 318.359375 1.859375 Z M 100.714844 501.097656 " fill-opacity="1" fill-rule="nonzero"/></g><g clip-path="url(#b6d99794b2)"><path fill="#000000" d="M 118.125 501.097656 L 116.652344 500.460938 L 334.296875 1.226562 L 335.773438 1.859375 Z M 118.125 501.097656 " fill-opacity="1" fill-rule="nonzero"/></g><g clip-path="url(#5f42edf1ca)"><path fill="#000000" d="M 135.539062 501.097656 L 134.0625 500.460938 L 351.710938 1.226562 L 353.179688 1.859375 Z M 135.539062 501.097656 " fill-opacity="1" fill-rule="nonzero"/></g><g clip-path="url(#ae1bb87cc4)"><path fill="#000000" d="M 152.945312 501.097656 L 151.476562 500.460938 L 369.121094 1.226562 L 370.589844 1.859375 Z M 152.945312 501.097656 " fill-opacity="1" fill-rule="nonzero"/></g><g clip-path="url(#cfebbef839)"><path fill="#000000" d="M 170.359375 501.097656 L 168.886719 500.460938 L 386.527344 1.226562 L 388.003906 1.859375 Z M 170.359375 501.097656 " fill-opacity="1" fill-rule="nonzero"/></g><g clip-path="url(#26b51f86ab)"><path fill="#000000" d="M 187.769531 501.097656 L 186.300781 500.460938 L 403.941406 1.226562 L 405.417969 1.859375 Z M 187.769531 501.097656 " fill-opacity="1" fill-rule="nonzero"/></g><g clip-path="url(#a3b2848be0)"><path fill="#000000" d="M 205.183594 501.097656 L 203.710938 500.460938 L 421.351562 1.226562 L 422.828125 1.859375 Z M 205.183594 501.097656 " fill-opacity="1" fill-rule="nonzero"/></g><g clip-path="url(#5f68dcbbfe)"><path fill="#000000" d="M 222.59375 501.097656 L 221.117188 500.460938 L 438.765625 1.226562 L 440.242188 1.859375 Z M 222.59375 501.097656 " fill-opacity="1" fill-rule="nonzero"/></g></g></g></g><g clip-path="url(#73bd1a5db2)"><path fill="#ff3131" d="M 331.601562 467.976562 L 28.1875 467.976562 L 28.1875 36 L 331.601562 36 Z M 29.066406 467.097656 L 330.722656 467.097656 L 330.722656 36.878906 L 29.066406 36.878906 Z M 29.066406 467.097656 " fill-opacity="1" fill-rule="nonzero"/></g><g clip-path="url(#80509a43c8)"><path fill="#ff3131" d="M 234.921875 290.472656 C 226.671875 290.472656 219.972656 297.140625 219.972656 305.355469 C 219.972656 322.070312 236.90625 326.453125 248.445312 342.976562 C 259.355469 326.554688 276.917969 321.535156 276.917969 305.355469 C 276.917969 297.140625 270.21875 290.472656 261.96875 290.472656 C 255.984375 290.472656 250.832031 293.992188 248.445312 299.054688 C 246.058594 293.992188 240.90625 290.472656 234.921875 290.472656 Z M 234.921875 290.472656 " fill-opacity="1" fill-rule="nonzero"/></g><g clip-path="url(#5243a57e74)"><path fill="#ff3131" d="M 234.921875 202.15625 C 226.671875 202.15625 219.972656 208.824219 219.972656 217.042969 C 219.972656 233.753906 236.90625 238.136719 248.445312 254.660156 C 259.355469 238.238281 276.917969 233.21875 276.917969 217.042969 C 276.917969 208.824219 270.21875 202.15625 261.96875 202.15625 C 255.984375 202.15625 250.832031 205.675781 248.445312 210.738281 C 246.058594 205.675781 240.90625 202.15625 234.921875 202.15625 Z M 234.921875 202.15625 " fill-opacity="1" fill-rule="nonzero"/></g><g clip-path="url(#3a45c110e1)"><path fill="#ff3131" d="M 234.921875 117.28125 C 226.671875 117.28125 219.972656 123.949219 219.972656 132.164062 C 219.972656 148.878906 236.90625 153.257812 248.445312 169.78125 C 259.355469 153.359375 276.917969 148.34375 276.917969 132.164062 C 276.917969 123.949219 270.21875 117.28125 261.96875 117.28125 C 255.984375 117.28125 250.832031 120.800781 248.445312 125.863281 C 246.058594 120.800781 240.90625 117.28125 234.921875 117.28125 Z M 234.921875 117.28125 " fill-opacity="1" fill-rule="nonzero"/></g><g fill="#ff3131" fill-opacity="1"><g transform="translate(44.874898, 95.039993)"><g><path d="M 22.417969 -22.417969 C 27.011719 -23.660156 30.054688 -27.449219 30.054688 -32.476562 C 30.054688 -38.8125 25.710938 -43.71875 17.324219 -43.71875 C 9.191406 -43.71875 4.535156 -38.8125 4.535156 -32.476562 C 4.535156 -27.449219 7.328125 -23.722656 11.859375 -22.355469 C 6.210938 -20.925781 2.484375 -16.765625 2.484375 -11.179688 C 2.484375 -3.105469 8.816406 0.929688 16.828125 0.929688 C 24.34375 0.929688 31.175781 -3.105469 31.175781 -11.179688 C 31.175781 -16.765625 28.007812 -20.925781 22.417969 -22.417969 Z M 7.140625 -32.476562 C 7.140625 -38.003906 10.992188 -41.667969 17.324219 -41.667969 C 23.660156 -41.667969 27.511719 -38.003906 27.511719 -32.476562 C 27.511719 -26.269531 22.667969 -23.289062 17.324219 -23.289062 C 11.984375 -23.289062 7.140625 -26.269531 7.140625 -32.476562 Z M 16.953125 -1.117188 C 10.804688 -1.117188 5.09375 -4.347656 5.09375 -11.117188 C 5.09375 -16.890625 9.316406 -21.238281 17.078125 -21.238281 C 24.839844 -21.238281 28.566406 -16.890625 28.566406 -11.117188 C 28.566406 -4.347656 22.789062 -1.117188 16.953125 -1.117188 Z M 16.953125 -1.117188 "/></g></g></g><g clip-path="url(#5a3525930f)"><path fill="#ff3131" d="M 234.921875 378.789062 C 226.671875 378.789062 219.972656 385.457031 219.972656 393.671875 C 219.972656 410.386719 236.90625 414.769531 248.445312 431.292969 C 259.355469 414.871094 276.917969 409.851562 276.917969 393.671875 C 276.917969 385.457031 270.21875 378.789062 261.96875 378.789062 C 255.984375 378.789062 250.832031 382.308594 248.445312 387.371094 C 246.058594 382.308594 240.90625 378.789062 234.921875 378.789062 Z M 234.921875 378.789062 " fill-opacity="1" fill-rule="nonzero"/></g><g clip-path="url(#51f29cd4f1)"><path fill="#ff3131" d="M 98.320312 290.175781 C 90.070312 290.175781 83.371094 296.839844 83.371094 305.058594 C 83.371094 321.769531 100.304688 326.152344 111.84375 342.675781 C 122.753906 326.253906 140.3125 321.234375 140.3125 305.058594 C 140.3125 296.839844 133.617188 290.175781 125.367188 290.175781 C 119.382812 290.175781 114.230469 293.691406 111.84375 298.753906 C 109.457031 293.691406 104.304688 290.175781 98.320312 290.175781 Z M 98.320312 290.175781 " fill-opacity="1" fill-rule="nonzero"/></g><g clip-path="url(#d9c060206c)"><path fill="#ff3131" d="M 98.320312 201.859375 C 90.070312 201.859375 83.371094 208.527344 83.371094 216.742188 C 83.371094 233.453125 100.304688 237.835938 111.84375 254.359375 C 122.753906 237.9375 140.3125 232.921875 140.3125 216.742188 C 140.3125 208.523438 133.617188 201.859375 125.367188 201.859375 C 119.382812 201.859375 114.230469 205.375 111.84375 210.4375 C 109.457031 205.375 104.304688 201.859375 98.320312 201.859375 Z M 98.320312 201.859375 " fill-opacity="1" fill-rule="nonzero"/></g><g clip-path="url(#86095cee4d)"><path fill="#ff3131" d="M 98.320312 116.980469 C 90.070312 116.980469 83.371094 123.648438 83.371094 131.863281 C 83.371094 148.578125 100.304688 152.957031 111.84375 169.480469 C 122.753906 153.0625 140.3125 148.042969 140.3125 131.863281 C 140.3125 123.648438 133.617188 116.980469 125.367188 116.980469 C 119.382812 116.980469 114.230469 120.5 111.84375 125.5625 C 109.457031 120.5 104.304688 116.980469 98.320312 116.980469 Z M 98.320312 116.980469 " fill-opacity="1" fill-rule="nonzero"/></g><g clip-path="url(#6ebbc18072)"><path fill="#ff3131" d="M 98.320312 378.488281 C 90.070312 378.488281 83.371094 385.15625 83.371094 393.371094 C 83.371094 410.085938 100.304688 414.46875 111.84375 430.992188 C 122.753906 414.570312 140.3125 409.550781 140.3125 393.371094 C 140.3125 385.15625 133.617188 378.488281 125.367188 378.488281 C 119.382812 378.488281 114.230469 382.007812 111.84375 387.070312 C 109.457031 382.007812 104.304688 378.488281 98.320312 378.488281 Z M 98.320312 378.488281 " fill-opacity="1" fill-rule="nonzero"/></g></svg>