<svg xmlns="http://www.w3.org/2000/svg" xmlns:xlink="http://www.w3.org/1999/xlink" width="480" zoomAndPan="magnify" viewBox="0 0 360 503.999982" height="672" preserveAspectRatio="xMidYMid meet" version="1.0"><defs><filter x="0%" y="0%" width="100%" height="100%" id="f7ff4f5ba9"><feColorMatrix values="0 0 0 0 1 0 0 0 0 1 0 0 0 0 1 0 0 0 1 0" color-interpolation-filters="sRGB"/></filter><mask id="8c75d693e1"><g filter="url(#f7ff4f5ba9)"><rect x="-36" width="432" fill="#000000" y="-50.399998" height="604.799979" fill-opacity="0.1373"/></g></mask><clipPath id="6b734c12ab"><path d="M 0 0 L 1 0 L 1 432.847656 L 0 432.847656 Z M 0 0 " clip-rule="nonzero"/></clipPath><clipPath id="940a64900a"><path d="M 0 0 L 18 0 L 18 432.847656 L 0 432.847656 Z M 0 0 " clip-rule="nonzero"/></clipPath><clipPath id="fde7940ac1"><path d="M 0 0 L 35 0 L 35 432.847656 L 0 432.847656 Z M 0 0 " clip-rule="nonzero"/></clipPath><clipPath id="1ccc37ad4d"><path d="M 0 0 L 53 0 L 53 432.847656 L 0 432.847656 Z M 0 0 " clip-rule="nonzero"/></clipPath><clipPath id="062ad99be1"><path d="M 0 0 L 70 0 L 70 432.847656 L 0 432.847656 Z M 0 0 " clip-rule="nonzero"/></clipPath><clipPath id="8f842557c8"><path d="M 0 0 L 88 0 L 88 432.847656 L 0 432.847656 Z M 0 0 " clip-rule="nonzero"/></clipPath><clipPath id="49329e802b"><path d="M 0 0 L 105 0 L 105 432.847656 L 0 432.847656 Z M 0 0 " clip-rule="nonzero"/></clipPath><clipPath id="c60e25d400"><path d="M 0 0 L 122 0 L 122 432.847656 L 0 432.847656 Z M 0 0 " clip-rule="nonzero"/></clipPath><clipPath id="ebae45fc11"><path d="M 0 0 L 140 0 L 140 432.847656 L 0 432.847656 Z M 0 0 " clip-rule="nonzero"/></clipPath><clipPath id="12504868e8"><path d="M 0 0 L 157 0 L 157 432.847656 L 0 432.847656 Z M 0 0 " clip-rule="nonzero"/></clipPath><clipPath id="eeb3540b79"><path d="M 0 0 L 175 0 L 175 432.847656 L 0 432.847656 Z M 0 0 " clip-rule="nonzero"/></clipPath><clipPath id="9707809f8f"><path d="M 0 0 L 192 0 L 192 432.847656 L 0 432.847656 Z M 0 0 " clip-rule="nonzero"/></clipPath><clipPath id="24adb1b8e0"><path d="M 0 0 L 208.722656 0 L 208.722656 432.847656 L 0 432.847656 Z M 0 0 " clip-rule="nonzero"/></clipPath><clipPath id="25b80ba202"><rect x="0" width="209" y="0" height="434"/></clipPath><mask id="edf75c9fa2"><g filter="url(#f7ff4f5ba9)"><rect x="-36" width="432" fill="#000000" y="-50.399998" height="604.799979" fill-opacity="0.1373"/></g></mask><clipPath id="b8c0f3a135"><path d="M 0 0.203125 L 197 0.203125 L 197 498 L 0 498 Z M 0 0.203125 " clip-rule="nonzero"/></clipPath><clipPath id="c80acfe8e6"><path d="M 0 0.203125 L 214 0.203125 L 214 498 L 0 498 Z M 0 0.203125 " clip-rule="nonzero"/></clipPath><clipPath id="1562636ccd"><path d="M 12 0.203125 L 232 0.203125 L 232 498 L 12 498 Z M 12 0.203125 " clip-rule="nonzero"/></clipPath><clipPath id="85375ac9ee"><path d="M 29 0.203125 L 249 0.203125 L 249 498 L 29 498 Z M 29 0.203125 " clip-rule="nonzero"/></clipPath><clipPath id="7c859fb58a"><path d="M 47 0.203125 L 267 0.203125 L 267 498 L 47 498 Z M 47 0.203125 " clip-rule="nonzero"/></clipPath><clipPath id="2abb19f833"><path d="M 64 0.203125 L 284 0.203125 L 284 498 L 64 498 Z M 64 0.203125 " clip-rule="nonzero"/></clipPath><clipPath id="a3a4ab3509"><path d="M 81 0.203125 L 301 0.203125 L 301 498 L 81 498 Z M 81 0.203125 " clip-rule="nonzero"/></clipPath><clipPath id="7e5fc7ca45"><path d="M 99 0.203125 L 319 0.203125 L 319 498 L 99 498 Z M 99 0.203125 " clip-rule="nonzero"/></clipPath><clipPath id="676e8b1eb3"><path d="M 116 0.203125 L 336 0.203125 L 336 498 L 116 498 Z M 116 0.203125 " clip-rule="nonzero"/></clipPath><clipPath id="1260c5e3ff"><path d="M 134 0.203125 L 354 0.203125 L 354 498 L 134 498 Z M 134 0.203125 " clip-rule="nonzero"/></clipPath><clipPath id="14e20406e9"><path d="M 151 0.203125 L 360 0.203125 L 360 498 L 151 498 Z M 151 0.203125 " clip-rule="nonzero"/></clipPath><clipPath id="53cfd83c42"><path d="M 168 0.203125 L 360 0.203125 L 360 498 L 168 498 Z M 168 0.203125 " clip-rule="nonzero"/></clipPath><clipPath id="84435aebad"><path d="M 186 0.203125 L 360 0.203125 L 360 498 L 186 498 Z M 186 0.203125 " clip-rule="nonzero"/></clipPath><clipPath id="1e38cb6b19"><path d="M 203 0.203125 L 360 0.203125 L 360 498 L 203 498 Z M 203 0.203125 " clip-rule="nonzero"/></clipPath><clipPath id="7fb97bc671"><path d="M 221 0.203125 L 360 0.203125 L 360 498 L 221 498 Z M 221 0.203125 " clip-rule="nonzero"/></clipPath><clipPath id="ad07b19a02"><rect x="0" width="360" y="0" height="498"/></clipPath><mask id="d21b773492"><g filter="url(#f7ff4f5ba9)"><rect x="-36" width="432" fill="#000000" y="-50.399998" height="604.799979" fill-opacity="0.1373"/></g></mask><clipPath id="98c0f7a946"><path d="M 0.222656 1 L 122 1 L 122 501.648438 L 0.222656 501.648438 Z M 0.222656 1 " clip-rule="nonzero"/></clipPath><clipPath id="7666fe200b"><path d="M 17 1 L 122 1 L 122 501.648438 L 17 501.648438 Z M 17 1 " clip-rule="nonzero"/></clipPath><clipPath id="fb64bc3a99"><path d="M 35 1 L 122 1 L 122 501.648438 L 35 501.648438 Z M 35 1 " clip-rule="nonzero"/></clipPath><clipPath id="f6d6583352"><path d="M 52 1 L 122 1 L 122 501.648438 L 52 501.648438 Z M 52 1 " clip-rule="nonzero"/></clipPath><clipPath id="7838123e6e"><path d="M 70 1 L 122 1 L 122 501.648438 L 70 501.648438 Z M 70 1 " clip-rule="nonzero"/></clipPath><clipPath id="86f0f37c3a"><path d="M 87 1 L 122 1 L 122 501.648438 L 87 501.648438 Z M 87 1 " clip-rule="nonzero"/></clipPath><clipPath id="6500f59adc"><path d="M 104 1 L 122 1 L 122 501.648438 L 104 501.648438 Z M 104 1 " clip-rule="nonzero"/></clipPath><clipPath id="efcd31327e"><rect x="0" width="122" y="0" height="502"/></clipPath><clipPath id="ba93b6e77b"><path d="M 28.015625 36 L 331.765625 36 L 331.765625 468 L 28.015625 468 Z M 28.015625 36 " clip-rule="nonzero"/></clipPath><clipPath id="728ee17563"><path d="M 126.242188 249 L 229.792969 249 L 229.792969 260.570312 L 126.242188 260.570312 Z M 126.242188 249 " clip-rule="nonzero"/></clipPath><clipPath id="172f53741a"><path d="M 95.558594 165.804688 L 264.308594 165.804688 L 264.308594 252 L 95.558594 252 Z M 95.558594 165.804688 " clip-rule="nonzero"/></clipPath><clipPath id="696165184d"><path d="M 219.03125 87.394531 L 276.03125 87.394531 L 276.03125 139.894531 L 219.03125 139.894531 Z M 219.03125 87.394531 " clip-rule="nonzero"/></clipPath><clipPath id="78e9219f3a"><path d="M 84.03125 87.394531 L 141.03125 87.394531 L 141.03125 139.894531 L 84.03125 139.894531 Z M 84.03125 87.394531 " clip-rule="nonzero"/></clipPath><clipPath id="4262961212"><path d="M 99.691406 274.316406 L 260.191406 274.316406 L 260.191406 422.816406 L 99.691406 422.816406 Z M 99.691406 274.316406 " clip-rule="nonzero"/></clipPath></defs><rect x="-36" width="432" fill="#ffffff" y="-50.399998" height="604.799979" fill-opacity="1"/><rect x="-36" width="432" fill="#323232" y="-50.399998" height="604.799979" fill-opacity="1"/><g mask="url(#8c75d693e1)"><g transform="matrix(1, 0, 0, 1, 0, 0)"><g clip-path="url(#25b80ba202)"><g clip-path="url(#6b734c12ab)"><path fill="#000000" d="M -217.589844 432.296875 L -219.066406 431.664062 L -1.417969 -67.574219 L 0.0507812 -66.9375 Z M -217.589844 432.296875 " fill-opacity="1" fill-rule="nonzero"/></g><g clip-path="url(#940a64900a)"><path fill="#000000" d="M -200.175781 432.296875 L -201.652344 431.664062 L 15.992188 -67.574219 L 17.460938 -66.9375 Z M -200.175781 432.296875 " fill-opacity="1" fill-rule="nonzero"/></g><g clip-path="url(#fde7940ac1)"><path fill="#000000" d="M -182.765625 432.296875 L -184.242188 431.664062 L 33.40625 -67.574219 L 34.875 -66.9375 Z M -182.765625 432.296875 " fill-opacity="1" fill-rule="nonzero"/></g><g clip-path="url(#1ccc37ad4d)"><path fill="#000000" d="M -165.359375 432.296875 L -166.828125 431.664062 L 50.816406 -67.574219 L 52.289062 -66.9375 Z M -165.359375 432.296875 " fill-opacity="1" fill-rule="nonzero"/></g><g clip-path="url(#062ad99be1)"><path fill="#000000" d="M -147.945312 432.296875 L -149.421875 431.664062 L 68.222656 -67.574219 L 69.699219 -66.9375 Z M -147.945312 432.296875 " fill-opacity="1" fill-rule="nonzero"/></g><g clip-path="url(#8f842557c8)"><path fill="#000000" d="M -130.535156 432.296875 L -132.011719 431.664062 L 85.636719 -67.574219 L 87.113281 -66.9375 Z M -130.535156 432.296875 " fill-opacity="1" fill-rule="nonzero"/></g><g clip-path="url(#49329e802b)"><path fill="#000000" d="M -113.121094 432.296875 L -114.597656 431.664062 L 103.050781 -67.574219 L 104.523438 -66.9375 Z M -113.121094 432.296875 " fill-opacity="1" fill-rule="nonzero"/></g><g clip-path="url(#c60e25d400)"><path fill="#000000" d="M -95.707031 432.296875 L -97.183594 431.664062 L 120.460938 -67.574219 L 121.929688 -66.9375 Z M -95.707031 432.296875 " fill-opacity="1" fill-rule="nonzero"/></g><g clip-path="url(#ebae45fc11)"><path fill="#000000" d="M -78.304688 432.296875 L -79.773438 431.664062 L 137.875 -67.574219 L 139.34375 -66.9375 Z M -78.304688 432.296875 " fill-opacity="1" fill-rule="nonzero"/></g><g clip-path="url(#12504868e8)"><path fill="#000000" d="M -60.890625 432.296875 L -62.359375 431.664062 L 155.28125 -67.574219 L 156.757812 -66.9375 Z M -60.890625 432.296875 " fill-opacity="1" fill-rule="nonzero"/></g><g clip-path="url(#eeb3540b79)"><path fill="#000000" d="M -43.476562 432.296875 L -44.949219 431.664062 L 172.691406 -67.574219 L 174.167969 -66.9375 Z M -43.476562 432.296875 " fill-opacity="1" fill-rule="nonzero"/></g><g clip-path="url(#9707809f8f)"><path fill="#000000" d="M -26.066406 432.296875 L -27.535156 431.664062 L 190.105469 -67.574219 L 191.582031 -66.9375 Z M -26.066406 432.296875 " fill-opacity="1" fill-rule="nonzero"/></g><g clip-path="url(#24adb1b8e0)"><path fill="#000000" d="M -8.652344 432.296875 L -10.128906 431.664062 L 207.515625 -67.574219 L 208.992188 -66.9375 Z M -8.652344 432.296875 " fill-opacity="1" fill-rule="nonzero"/></g></g></g></g><g mask="url(#edf75c9fa2)"><g transform="matrix(1, 0, 0, 1, 0, 6)"><g clip-path="url(#ad07b19a02)"><g clip-path="url(#b8c0f3a135)"><path fill="#000000" d="M -21.167969 500.652344 L -22.636719 500.015625 L 195.003906 0.78125 L 196.480469 1.414062 Z M -21.167969 500.652344 " fill-opacity="1" fill-rule="nonzero"/></g><g clip-path="url(#c80acfe8e6)"><path fill="#000000" d="M -3.753906 500.652344 L -5.230469 500.015625 L 212.414062 0.78125 L 213.890625 1.414062 Z M -3.753906 500.652344 " fill-opacity="1" fill-rule="nonzero"/></g><g clip-path="url(#1562636ccd)"><path fill="#000000" d="M 13.65625 500.652344 L 12.183594 500.015625 L 229.828125 0.78125 L 231.296875 1.414062 Z M 13.65625 500.652344 " fill-opacity="1" fill-rule="nonzero"/></g><g clip-path="url(#85375ac9ee)"><path fill="#000000" d="M 31.070312 500.652344 L 29.59375 500.015625 L 247.242188 0.78125 L 248.710938 1.414062 Z M 31.070312 500.652344 " fill-opacity="1" fill-rule="nonzero"/></g><g clip-path="url(#7c859fb58a)"><path fill="#000000" d="M 48.484375 500.652344 L 47.007812 500.015625 L 264.652344 0.78125 L 266.125 1.414062 Z M 48.484375 500.652344 " fill-opacity="1" fill-rule="nonzero"/></g><g clip-path="url(#2abb19f833)"><path fill="#000000" d="M 65.890625 500.652344 L 64.417969 500.015625 L 282.066406 0.78125 L 283.535156 1.414062 Z M 65.890625 500.652344 " fill-opacity="1" fill-rule="nonzero"/></g><g clip-path="url(#a3a4ab3509)"><path fill="#000000" d="M 83.300781 500.652344 L 81.824219 500.015625 L 299.472656 0.78125 L 300.949219 1.414062 Z M 83.300781 500.652344 " fill-opacity="1" fill-rule="nonzero"/></g><g clip-path="url(#7e5fc7ca45)"><path fill="#000000" d="M 100.714844 500.652344 L 99.238281 500.015625 L 316.882812 0.78125 L 318.359375 1.414062 Z M 100.714844 500.652344 " fill-opacity="1" fill-rule="nonzero"/></g><g clip-path="url(#676e8b1eb3)"><path fill="#000000" d="M 118.125 500.652344 L 116.652344 500.015625 L 334.296875 0.78125 L 335.773438 1.414062 Z M 118.125 500.652344 " fill-opacity="1" fill-rule="nonzero"/></g><g clip-path="url(#1260c5e3ff)"><path fill="#000000" d="M 135.539062 500.652344 L 134.0625 500.015625 L 351.710938 0.78125 L 353.179688 1.414062 Z M 135.539062 500.652344 " fill-opacity="1" fill-rule="nonzero"/></g><g clip-path="url(#14e20406e9)"><path fill="#000000" d="M 152.945312 500.652344 L 151.476562 500.015625 L 369.121094 0.78125 L 370.589844 1.414062 Z M 152.945312 500.652344 " fill-opacity="1" fill-rule="nonzero"/></g><g clip-path="url(#53cfd83c42)"><path fill="#000000" d="M 170.359375 500.652344 L 168.886719 500.015625 L 386.527344 0.78125 L 388.003906 1.414062 Z M 170.359375 500.652344 " fill-opacity="1" fill-rule="nonzero"/></g><g clip-path="url(#84435aebad)"><path fill="#000000" d="M 187.769531 500.652344 L 186.300781 500.015625 L 403.941406 0.78125 L 405.417969 1.414062 Z M 187.769531 500.652344 " fill-opacity="1" fill-rule="nonzero"/></g><g clip-path="url(#1e38cb6b19)"><path fill="#000000" d="M 205.183594 500.652344 L 203.710938 500.015625 L 421.351562 0.78125 L 422.828125 1.414062 Z M 205.183594 500.652344 " fill-opacity="1" fill-rule="nonzero"/></g><g clip-path="url(#7fb97bc671)"><path fill="#000000" d="M 222.59375 500.652344 L 221.117188 500.015625 L 438.765625 0.78125 L 440.242188 1.414062 Z M 222.59375 500.652344 " fill-opacity="1" fill-rule="nonzero"/></g></g></g></g><g mask="url(#d21b773492)"><g transform="matrix(1, 0, 0, 1, 238, 2)"><g clip-path="url(#efcd31327e)"><g clip-path="url(#98c0f7a946)"><path fill="#000000" d="M 1.832031 501.097656 L 0.363281 500.460938 L 218.003906 1.226562 L 219.480469 1.859375 Z M 1.832031 501.097656 " fill-opacity="1" fill-rule="nonzero"/></g><g clip-path="url(#7666fe200b)"><path fill="#000000" d="M 19.246094 501.097656 L 17.769531 500.460938 L 235.414062 1.226562 L 236.890625 1.859375 Z M 19.246094 501.097656 " fill-opacity="1" fill-rule="nonzero"/></g><g clip-path="url(#fb64bc3a99)"><path fill="#000000" d="M 36.65625 501.097656 L 35.183594 500.460938 L 252.828125 1.226562 L 254.296875 1.859375 Z M 36.65625 501.097656 " fill-opacity="1" fill-rule="nonzero"/></g><g clip-path="url(#f6d6583352)"><path fill="#000000" d="M 54.070312 501.097656 L 52.59375 500.460938 L 270.242188 1.226562 L 271.710938 1.859375 Z M 54.070312 501.097656 " fill-opacity="1" fill-rule="nonzero"/></g><g clip-path="url(#7838123e6e)"><path fill="#000000" d="M 71.484375 501.097656 L 70.007812 500.460938 L 287.652344 1.226562 L 289.125 1.859375 Z M 71.484375 501.097656 " fill-opacity="1" fill-rule="nonzero"/></g><g clip-path="url(#86f0f37c3a)"><path fill="#000000" d="M 88.890625 501.097656 L 87.417969 500.460938 L 305.066406 1.226562 L 306.535156 1.859375 Z M 88.890625 501.097656 " fill-opacity="1" fill-rule="nonzero"/></g><g clip-path="url(#6500f59adc)"><path fill="#000000" d="M 106.300781 501.097656 L 104.824219 500.460938 L 322.472656 1.226562 L 323.949219 1.859375 Z M 106.300781 501.097656 " fill-opacity="1" fill-rule="nonzero"/></g></g></g></g><g clip-path="url(#ba93b6e77b)"><path fill="#ff3131" d="M 331.601562 467.976562 L 28.1875 467.976562 L 28.1875 36 L 331.601562 36 Z M 29.066406 467.097656 L 330.722656 467.097656 L 330.722656 36.878906 L 29.066406 36.878906 Z M 29.066406 467.097656 " fill-opacity="1" fill-rule="nonzero"/></g><g clip-path="url(#728ee17563)"><path fill="#ff3131" d="M 229.371094 256.066406 L 228.277344 260.570312 C 195.273438 252.445312 160.804688 252.445312 127.800781 260.570312 L 126.707031 256.066406 C 160.429688 247.746094 195.664062 247.746094 229.386719 256.066406 L 229.371094 256.066406 " fill-opacity="1" fill-rule="nonzero"/></g><g clip-path="url(#172f53741a)"><path fill="#ff3131" d="M 101.851562 193.304688 C 111.15625 205.976562 123.679688 215.9375 138.105469 222.136719 C 136.113281 212.269531 135.125 202.207031 135.15625 192.132812 C 132.878906 192.65625 130.601562 191.230469 130.074219 188.949219 C 129.550781 186.648438 130.960938 184.382812 133.253906 183.855469 C 135.53125 183.316406 137.804688 184.742188 138.332031 187.039062 C 138.796875 189.050781 137.730469 191.125 135.8125 191.90625 C 141.402344 201.429688 148.367188 210.0625 156.519531 217.496094 C 166.136719 206.070312 173.851562 193.167969 179.394531 179.277344 C 175.679688 178.960938 172.9375 175.6875 173.253906 171.976562 C 173.566406 168.253906 176.832031 165.503906 180.535156 165.820312 C 184.234375 166.132812 186.992188 169.410156 186.675781 173.117188 C 186.390625 176.390625 183.800781 178.992188 180.535156 179.277344 C 186.0625 193.167969 193.792969 206.070312 203.410156 217.496094 C 211.542969 210.0625 218.527344 201.429688 224.097656 191.90625 C 221.941406 191.003906 220.9375 188.511719 221.835938 186.347656 C 222.734375 184.1875 225.222656 183.179688 227.378906 184.082031 C 229.539062 184.984375 230.554688 187.476562 229.65625 189.636719 C 228.847656 191.5625 226.78125 192.613281 224.757812 192.132812 C 224.789062 202.207031 223.800781 212.269531 221.792969 222.136719 C 236.234375 215.9375 248.742188 205.976562 258.0625 193.304688 C 256.007812 192.160156 255.273438 189.578125 256.398438 187.519531 C 257.539062 185.476562 260.113281 184.726562 262.167969 185.867188 C 264.203125 187.011719 264.953125 189.59375 263.816406 191.636719 C 262.765625 193.542969 260.457031 194.339844 258.464844 193.5 L 233.3125 251.035156 C 198.257812 242.382812 161.640625 242.382812 126.601562 251.035156 L 101.445312 193.5 C 99.289062 194.414062 96.800781 193.394531 95.886719 191.230469 C 94.988281 189.066406 95.992188 186.589844 98.152344 185.671875 C 100.308594 184.757812 102.796875 185.777344 103.695312 187.941406 C 104.546875 189.9375 103.738281 192.25 101.851562 193.304688 " fill-opacity="1" fill-rule="nonzero"/></g><g clip-path="url(#696165184d)"><path fill="#ff3131" d="M 234.011719 87.398438 C 225.757812 87.398438 219.0625 94.066406 219.0625 102.28125 C 219.0625 118.996094 235.996094 123.378906 247.535156 139.898438 C 258.441406 123.480469 276.003906 118.460938 276.003906 102.28125 C 276.003906 94.066406 269.308594 87.398438 261.054688 87.398438 C 255.070312 87.398438 249.921875 90.917969 247.535156 95.980469 C 245.148438 90.917969 239.996094 87.398438 234.011719 87.398438 Z M 234.011719 87.398438 " fill-opacity="1" fill-rule="nonzero"/></g><g clip-path="url(#78e9219f3a)"><path fill="#ff3131" d="M 99.011719 87.398438 C 90.757812 87.398438 84.0625 94.066406 84.0625 102.28125 C 84.0625 118.996094 100.996094 123.378906 112.535156 139.898438 C 123.441406 123.480469 141.003906 118.460938 141.003906 102.28125 C 141.003906 94.066406 134.308594 87.398438 126.054688 87.398438 C 120.070312 87.398438 114.921875 90.917969 112.535156 95.980469 C 110.148438 90.917969 104.996094 87.398438 99.011719 87.398438 Z M 99.011719 87.398438 " fill-opacity="1" fill-rule="nonzero"/></g><g clip-path="url(#4262961212)"><path fill="#ff3131" d="M 141.878906 274.335938 C 118.644531 274.335938 99.792969 293.195312 99.792969 316.433594 C 99.792969 363.707031 147.464844 376.101562 179.953125 422.835938 C 210.667969 376.390625 260.113281 362.195312 260.113281 316.433594 C 260.113281 293.195312 241.257812 274.335938 218.027344 274.335938 C 201.175781 274.335938 186.671875 284.285156 179.953125 298.605469 C 173.230469 284.289062 158.730469 274.335938 141.878906 274.335938 Z M 141.878906 274.335938 " fill-opacity="1" fill-rule="nonzero"/></g></svg>