<svg xmlns="http://www.w3.org/2000/svg" xmlns:xlink="http://www.w3.org/1999/xlink" width="480" zoomAndPan="magnify" viewBox="0 0 360 503.999982" height="672" preserveAspectRatio="xMidYMid meet" version="1.0"><defs><filter x="0%" y="0%" width="100%" height="100%" id="542b194c43"><feColorMatrix values="0 0 0 0 1 0 0 0 0 1 0 0 0 0 1 0 0 0 1 0" color-interpolation-filters="sRGB"/></filter><g/><mask id="fb32ffdcec"><g filter="url(#542b194c43)"><rect x="-36" width="432" fill="#000000" y="-50.399998" height="604.799979" fill-opacity="0.1373"/></g></mask><clipPath id="d11c59e6b0"><path d="M 0 0 L 1 0 L 1 432.847656 L 0 432.847656 Z M 0 0 " clip-rule="nonzero"/></clipPath><clipPath id="c85f7afc33"><path d="M 0 0 L 18 0 L 18 432.847656 L 0 432.847656 Z M 0 0 " clip-rule="nonzero"/></clipPath><clipPath id="e79b5383fd"><path d="M 0 0 L 35 0 L 35 432.847656 L 0 432.847656 Z M 0 0 " clip-rule="nonzero"/></clipPath><clipPath id="ee8e80b14d"><path d="M 0 0 L 53 0 L 53 432.847656 L 0 432.847656 Z M 0 0 " clip-rule="nonzero"/></clipPath><clipPath id="72af0ad424"><path d="M 0 0 L 70 0 L 70 432.847656 L 0 432.847656 Z M 0 0 " clip-rule="nonzero"/></clipPath><clipPath id="58646d66e4"><path d="M 0 0 L 88 0 L 88 432.847656 L 0 432.847656 Z M 0 0 " clip-rule="nonzero"/></clipPath><clipPath id="55c77e5bad"><path d="M 0 0 L 105 0 L 105 432.847656 L 0 432.847656 Z M 0 0 " clip-rule="nonzero"/></clipPath><clipPath id="f04dc17e65"><path d="M 0 0 L 122 0 L 122 432.847656 L 0 432.847656 Z M 0 0 " clip-rule="nonzero"/></clipPath><clipPath id="594df0608e"><path d="M 0 0 L 140 0 L 140 432.847656 L 0 432.847656 Z M 0 0 " clip-rule="nonzero"/></clipPath><clipPath id="8df94962a2"><path d="M 0 0 L 157 0 L 157 432.847656 L 0 432.847656 Z M 0 0 " clip-rule="nonzero"/></clipPath><clipPath id="4da0bce744"><path d="M 0 0 L 175 0 L 175 432.847656 L 0 432.847656 Z M 0 0 " clip-rule="nonzero"/></clipPath><clipPath id="72952aa3ee"><path d="M 0 0 L 192 0 L 192 432.847656 L 0 432.847656 Z M 0 0 " clip-rule="nonzero"/></clipPath><clipPath id="f75572c8f2"><path d="M 0 0 L 208.722656 0 L 208.722656 432.847656 L 0 432.847656 Z M 0 0 " clip-rule="nonzero"/></clipPath><clipPath id="1605c29f93"><rect x="0" width="209" y="0" height="434"/></clipPath><mask id="8496bf0f3f"><g filter="url(#542b194c43)"><rect x="-36" width="432" fill="#000000" y="-50.399998" height="604.799979" fill-opacity="0.1373"/></g></mask><clipPath id="f90f62d7c6"><path d="M 0.222656 1 L 122 1 L 122 501.648438 L 0.222656 501.648438 Z M 0.222656 1 " clip-rule="nonzero"/></clipPath><clipPath id="1eaf59007e"><path d="M 17 1 L 122 1 L 122 501.648438 L 17 501.648438 Z M 17 1 " clip-rule="nonzero"/></clipPath><clipPath id="64bb281f7d"><path d="M 35 1 L 122 1 L 122 501.648438 L 35 501.648438 Z M 35 1 " clip-rule="nonzero"/></clipPath><clipPath id="c11b925f24"><path d="M 52 1 L 122 1 L 122 501.648438 L 52 501.648438 Z M 52 1 " clip-rule="nonzero"/></clipPath><clipPath id="699fc659af"><path d="M 70 1 L 122 1 L 122 501.648438 L 70 501.648438 Z M 70 1 " clip-rule="nonzero"/></clipPath><clipPath id="654af10e87"><path d="M 87 1 L 122 1 L 122 501.648438 L 87 501.648438 Z M 87 1 " clip-rule="nonzero"/></clipPath><clipPath id="845cdeea10"><path d="M 104 1 L 122 1 L 122 501.648438 L 104 501.648438 Z M 104 1 " clip-rule="nonzero"/></clipPath><clipPath id="f2159fbe19"><rect x="0" width="122" y="0" height="502"/></clipPath><mask id="497e99dc9f"><g filter="url(#542b194c43)"><rect x="-36" width="432" fill="#000000" y="-50.399998" height="604.799979" fill-opacity="0.1373"/></g></mask><clipPath id="9eda1dd860"><path d="M 0 1 L 197 1 L 197 501.648438 L 0 501.648438 Z M 0 1 " clip-rule="nonzero"/></clipPath><clipPath id="92365e2a8e"><path d="M 0 1 L 214 1 L 214 501.648438 L 0 501.648438 Z M 0 1 " clip-rule="nonzero"/></clipPath><clipPath id="f3c9ac0b78"><path d="M 12 1 L 232 1 L 232 501.648438 L 12 501.648438 Z M 12 1 " clip-rule="nonzero"/></clipPath><clipPath id="e864970f99"><path d="M 29 1 L 249 1 L 249 501.648438 L 29 501.648438 Z M 29 1 " clip-rule="nonzero"/></clipPath><clipPath id="61ee5e163e"><path d="M 47 1 L 267 1 L 267 501.648438 L 47 501.648438 Z M 47 1 " clip-rule="nonzero"/></clipPath><clipPath id="32d009747c"><path d="M 64 1 L 284 1 L 284 501.648438 L 64 501.648438 Z M 64 1 " clip-rule="nonzero"/></clipPath><clipPath id="6a2890a5a3"><path d="M 81 1 L 301 1 L 301 501.648438 L 81 501.648438 Z M 81 1 " clip-rule="nonzero"/></clipPath><clipPath id="905d270c3b"><path d="M 99 1 L 319 1 L 319 501.648438 L 99 501.648438 Z M 99 1 " clip-rule="nonzero"/></clipPath><clipPath id="335a74a225"><path d="M 116 1 L 336 1 L 336 501.648438 L 116 501.648438 Z M 116 1 " clip-rule="nonzero"/></clipPath><clipPath id="ab4a5f0aba"><path d="M 134 1 L 354 1 L 354 501.648438 L 134 501.648438 Z M 134 1 " clip-rule="nonzero"/></clipPath><clipPath id="69ab252a0a"><path d="M 151 1 L 360 1 L 360 501.648438 L 151 501.648438 Z M 151 1 " clip-rule="nonzero"/></clipPath><clipPath id="d18127cb66"><path d="M 168 1 L 360 1 L 360 501.648438 L 168 501.648438 Z M 168 1 " clip-rule="nonzero"/></clipPath><clipPath id="0ca44e540a"><path d="M 186 1 L 360 1 L 360 501.648438 L 186 501.648438 Z M 186 1 " clip-rule="nonzero"/></clipPath><clipPath id="c626468024"><path d="M 203 1 L 360 1 L 360 501.648438 L 203 501.648438 Z M 203 1 " clip-rule="nonzero"/></clipPath><clipPath id="3c7afd1d00"><path d="M 221 1 L 360 1 L 360 501.648438 L 221 501.648438 Z M 221 1 " clip-rule="nonzero"/></clipPath><clipPath id="5ead7cda45"><rect x="0" width="360" y="0" height="502"/></clipPath><clipPath id="2bc2b7efcb"><path d="M 28.015625 36 L 331.765625 36 L 331.765625 468 L 28.015625 468 Z M 28.015625 36 " clip-rule="nonzero"/></clipPath><clipPath id="3b14042f79"><path d="M 219.941406 290.46875 L 276.941406 290.46875 L 276.941406 342.96875 L 219.941406 342.96875 Z M 219.941406 290.46875 " clip-rule="nonzero"/></clipPath><clipPath id="7b5c99f928"><path d="M 219.941406 202.152344 L 276.941406 202.152344 L 276.941406 254.652344 L 219.941406 254.652344 Z M 219.941406 202.152344 " clip-rule="nonzero"/></clipPath><clipPath id="ea2d4ddebb"><path d="M 151.53125 116.972656 L 208.53125 116.972656 L 208.53125 169.472656 L 151.53125 169.472656 Z M 151.53125 116.972656 " clip-rule="nonzero"/></clipPath><clipPath id="d18d491f02"><path d="M 219.941406 378.785156 L 276.941406 378.785156 L 276.941406 431.285156 L 219.941406 431.285156 Z M 219.941406 378.785156 " clip-rule="nonzero"/></clipPath><clipPath id="ad4e60bc73"><path d="M 83.339844 290.167969 L 140.339844 290.167969 L 140.339844 342.667969 L 83.339844 342.667969 Z M 83.339844 290.167969 " clip-rule="nonzero"/></clipPath><clipPath id="7cb35b4423"><path d="M 83.339844 201.851562 L 140.339844 201.851562 L 140.339844 254.351562 L 83.339844 254.351562 Z M 83.339844 201.851562 " clip-rule="nonzero"/></clipPath><clipPath id="f56dd3563e"><path d="M 83.339844 378.484375 L 140.339844 378.484375 L 140.339844 430.984375 L 83.339844 430.984375 Z M 83.339844 378.484375 " clip-rule="nonzero"/></clipPath></defs><rect x="-36" width="432" fill="#ffffff" y="-50.399998" height="604.799979" fill-opacity="1"/><rect x="-36" width="432" fill="#ffffff" y="-50.399998" height="604.799979" fill-opacity="1"/><rect x="-36" width="432" fill="#323232" y="-50.399998" height="604.799979" fill-opacity="1"/><g mask="url(#fb32ffdcec)"><g transform="matrix(1, 0, 0, 1, 0, 0)"><g clip-path="url(#1605c29f93)"><g clip-path="url(#d11c59e6b0)"><path fill="#000000" d="M -217.589844 432.296875 L -219.066406 431.664062 L -1.417969 -67.574219 L 0.0507812 -66.9375 Z M -217.589844 432.296875 " fill-opacity="1" fill-rule="nonzero"/></g><g clip-path="url(#c85f7afc33)"><path fill="#000000" d="M -200.175781 432.296875 L -201.652344 431.664062 L 15.992188 -67.574219 L 17.460938 -66.9375 Z M -200.175781 432.296875 " fill-opacity="1" fill-rule="nonzero"/></g><g clip-path="url(#e79b5383fd)"><path fill="#000000" d="M -182.765625 432.296875 L -184.242188 431.664062 L 33.40625 -67.574219 L 34.875 -66.9375 Z M -182.765625 432.296875 " fill-opacity="1" fill-rule="nonzero"/></g><g clip-path="url(#ee8e80b14d)"><path fill="#000000" d="M -165.359375 432.296875 L -166.828125 431.664062 L 50.816406 -67.574219 L 52.289062 -66.9375 Z M -165.359375 432.296875 " fill-opacity="1" fill-rule="nonzero"/></g><g clip-path="url(#72af0ad424)"><path fill="#000000" d="M -147.945312 432.296875 L -149.421875 431.664062 L 68.222656 -67.574219 L 69.699219 -66.9375 Z M -147.945312 432.296875 " fill-opacity="1" fill-rule="nonzero"/></g><g clip-path="url(#58646d66e4)"><path fill="#000000" d="M -130.535156 432.296875 L -132.011719 431.664062 L 85.636719 -67.574219 L 87.113281 -66.9375 Z M -130.535156 432.296875 " fill-opacity="1" fill-rule="nonzero"/></g><g clip-path="url(#55c77e5bad)"><path fill="#000000" d="M -113.121094 432.296875 L -114.597656 431.664062 L 103.050781 -67.574219 L 104.523438 -66.9375 Z M -113.121094 432.296875 " fill-opacity="1" fill-rule="nonzero"/></g><g clip-path="url(#f04dc17e65)"><path fill="#000000" d="M -95.707031 432.296875 L -97.183594 431.664062 L 120.460938 -67.574219 L 121.929688 -66.9375 Z M -95.707031 432.296875 " fill-opacity="1" fill-rule="nonzero"/></g><g clip-path="url(#594df0608e)"><path fill="#000000" d="M -78.304688 432.296875 L -79.773438 431.664062 L 137.875 -67.574219 L 139.34375 -66.9375 Z M -78.304688 432.296875 " fill-opacity="1" fill-rule="nonzero"/></g><g clip-path="url(#8df94962a2)"><path fill="#000000" d="M -60.890625 432.296875 L -62.359375 431.664062 L 155.28125 -67.574219 L 156.757812 -66.9375 Z M -60.890625 432.296875 " fill-opacity="1" fill-rule="nonzero"/></g><g clip-path="url(#4da0bce744)"><path fill="#000000" d="M -43.476562 432.296875 L -44.949219 431.664062 L 172.691406 -67.574219 L 174.167969 -66.9375 Z M -43.476562 432.296875 " fill-opacity="1" fill-rule="nonzero"/></g><g clip-path="url(#72952aa3ee)"><path fill="#000000" d="M -26.066406 432.296875 L -27.535156 431.664062 L 190.105469 -67.574219 L 191.582031 -66.9375 Z M -26.066406 432.296875 " fill-opacity="1" fill-rule="nonzero"/></g><g clip-path="url(#f75572c8f2)"><path fill="#000000" d="M -8.652344 432.296875 L -10.128906 431.664062 L 207.515625 -67.574219 L 208.992188 -66.9375 Z M -8.652344 432.296875 " fill-opacity="1" fill-rule="nonzero"/></g></g></g></g><g mask="url(#8496bf0f3f)"><g transform="matrix(1, 0, 0, 1, 238, 2)"><g clip-path="url(#f2159fbe19)"><g clip-path="url(#f90f62d7c6)"><path fill="#000000" d="M 1.832031 501.097656 L 0.363281 500.460938 L 218.003906 1.226562 L 219.480469 1.859375 Z M 1.832031 501.097656 " fill-opacity="1" fill-rule="nonzero"/></g><g clip-path="url(#1eaf59007e)"><path fill="#000000" d="M 19.246094 501.097656 L 17.769531 500.460938 L 235.414062 1.226562 L 236.890625 1.859375 Z M 19.246094 501.097656 " fill-opacity="1" fill-rule="nonzero"/></g><g clip-path="url(#64bb281f7d)"><path fill="#000000" d="M 36.65625 501.097656 L 35.183594 500.460938 L 252.828125 1.226562 L 254.296875 1.859375 Z M 36.65625 501.097656 " fill-opacity="1" fill-rule="nonzero"/></g><g clip-path="url(#c11b925f24)"><path fill="#000000" d="M 54.070312 501.097656 L 52.59375 500.460938 L 270.242188 1.226562 L 271.710938 1.859375 Z M 54.070312 501.097656 " fill-opacity="1" fill-rule="nonzero"/></g><g clip-path="url(#699fc659af)"><path fill="#000000" d="M 71.484375 501.097656 L 70.007812 500.460938 L 287.652344 1.226562 L 289.125 1.859375 Z M 71.484375 501.097656 " fill-opacity="1" fill-rule="nonzero"/></g><g clip-path="url(#654af10e87)"><path fill="#000000" d="M 88.890625 501.097656 L 87.417969 500.460938 L 305.066406 1.226562 L 306.535156 1.859375 Z M 88.890625 501.097656 " fill-opacity="1" fill-rule="nonzero"/></g><g clip-path="url(#845cdeea10)"><path fill="#000000" d="M 106.300781 501.097656 L 104.824219 500.460938 L 322.472656 1.226562 L 323.949219 1.859375 Z M 106.300781 501.097656 " fill-opacity="1" fill-rule="nonzero"/></g></g></g></g><g mask="url(#497e99dc9f)"><g transform="matrix(1, 0, 0, 1, 0, 2)"><g clip-path="url(#5ead7cda45)"><g clip-path="url(#9eda1dd860)"><path fill="#000000" d="M -21.167969 501.097656 L -22.636719 500.460938 L 195.003906 1.226562 L 196.480469 1.859375 Z M -21.167969 501.097656 " fill-opacity="1" fill-rule="nonzero"/></g><g clip-path="url(#92365e2a8e)"><path fill="#000000" d="M -3.753906 501.097656 L -5.230469 500.460938 L 212.414062 1.226562 L 213.890625 1.859375 Z M -3.753906 501.097656 " fill-opacity="1" fill-rule="nonzero"/></g><g clip-path="url(#f3c9ac0b78)"><path fill="#000000" d="M 13.65625 501.097656 L 12.183594 500.460938 L 229.828125 1.226562 L 231.296875 1.859375 Z M 13.65625 501.097656 " fill-opacity="1" fill-rule="nonzero"/></g><g clip-path="url(#e864970f99)"><path fill="#000000" d="M 31.070312 501.097656 L 29.59375 500.460938 L 247.242188 1.226562 L 248.710938 1.859375 Z M 31.070312 501.097656 " fill-opacity="1" fill-rule="nonzero"/></g><g clip-path="url(#61ee5e163e)"><path fill="#000000" d="M 48.484375 501.097656 L 47.007812 500.460938 L 264.652344 1.226562 L 266.125 1.859375 Z M 48.484375 501.097656 " fill-opacity="1" fill-rule="nonzero"/></g><g clip-path="url(#32d009747c)"><path fill="#000000" d="M 65.890625 501.097656 L 64.417969 500.460938 L 282.066406 1.226562 L 283.535156 1.859375 Z M 65.890625 501.097656 " fill-opacity="1" fill-rule="nonzero"/></g><g clip-path="url(#6a2890a5a3)"><path fill="#000000" d="M 83.300781 501.097656 L 81.824219 500.460938 L 299.472656 1.226562 L 300.949219 1.859375 Z M 83.300781 501.097656 " fill-opacity="1" fill-rule="nonzero"/></g><g clip-path="url(#905d270c3b)"><path fill="#000000" d="M 100.714844 501.097656 L 99.238281 500.460938 L 316.882812 1.226562 L 318.359375 1.859375 Z M 100.714844 501.097656 " fill-opacity="1" fill-rule="nonzero"/></g><g clip-path="url(#335a74a225)"><path fill="#000000" d="M 118.125 501.097656 L 116.652344 500.460938 L 334.296875 1.226562 L 335.773438 1.859375 Z M 118.125 501.097656 " fill-opacity="1" fill-rule="nonzero"/></g><g clip-path="url(#ab4a5f0aba)"><path fill="#000000" d="M 135.539062 501.097656 L 134.0625 500.460938 L 351.710938 1.226562 L 353.179688 1.859375 Z M 135.539062 501.097656 " fill-opacity="1" fill-rule="nonzero"/></g><g clip-path="url(#69ab252a0a)"><path fill="#000000" d="M 152.945312 501.097656 L 151.476562 500.460938 L 369.121094 1.226562 L 370.589844 1.859375 Z M 152.945312 501.097656 " fill-opacity="1" fill-rule="nonzero"/></g><g clip-path="url(#d18127cb66)"><path fill="#000000" d="M 170.359375 501.097656 L 168.886719 500.460938 L 386.527344 1.226562 L 388.003906 1.859375 Z M 170.359375 501.097656 " fill-opacity="1" fill-rule="nonzero"/></g><g clip-path="url(#0ca44e540a)"><path fill="#000000" d="M 187.769531 501.097656 L 186.300781 500.460938 L 403.941406 1.226562 L 405.417969 1.859375 Z M 187.769531 501.097656 " fill-opacity="1" fill-rule="nonzero"/></g><g clip-path="url(#c626468024)"><path fill="#000000" d="M 205.183594 501.097656 L 203.710938 500.460938 L 421.351562 1.226562 L 422.828125 1.859375 Z M 205.183594 501.097656 " fill-opacity="1" fill-rule="nonzero"/></g><g clip-path="url(#3c7afd1d00)"><path fill="#000000" d="M 222.59375 501.097656 L 221.117188 500.460938 L 438.765625 1.226562 L 440.242188 1.859375 Z M 222.59375 501.097656 " fill-opacity="1" fill-rule="nonzero"/></g></g></g></g><g clip-path="url(#2bc2b7efcb)"><path fill="#ff3131" d="M 331.601562 467.976562 L 28.1875 467.976562 L 28.1875 36 L 331.601562 36 Z M 29.066406 467.097656 L 330.722656 467.097656 L 330.722656 36.878906 L 29.066406 36.878906 Z M 29.066406 467.097656 " fill-opacity="1" fill-rule="nonzero"/></g><g clip-path="url(#3b14042f79)"><path fill="#ff3131" d="M 234.921875 290.472656 C 226.671875 290.472656 219.972656 297.140625 219.972656 305.355469 C 219.972656 322.070312 236.90625 326.453125 248.445312 342.976562 C 259.355469 326.554688 276.917969 321.535156 276.917969 305.355469 C 276.917969 297.140625 270.21875 290.472656 261.96875 290.472656 C 255.984375 290.472656 250.832031 293.992188 248.445312 299.054688 C 246.058594 293.992188 240.90625 290.472656 234.921875 290.472656 Z M 234.921875 290.472656 " fill-opacity="1" fill-rule="nonzero"/></g><g clip-path="url(#7b5c99f928)"><path fill="#ff3131" d="M 234.921875 202.15625 C 226.671875 202.15625 219.972656 208.824219 219.972656 217.042969 C 219.972656 233.753906 236.90625 238.136719 248.445312 254.660156 C 259.355469 238.238281 276.917969 233.21875 276.917969 217.042969 C 276.917969 208.824219 270.21875 202.15625 261.96875 202.15625 C 255.984375 202.15625 250.832031 205.675781 248.445312 210.738281 C 246.058594 205.675781 240.90625 202.15625 234.921875 202.15625 Z M 234.921875 202.15625 " fill-opacity="1" fill-rule="nonzero"/></g><g clip-path="url(#ea2d4ddebb)"><path fill="#ff3131" d="M 166.511719 116.980469 C 158.257812 116.980469 151.5625 123.648438 151.5625 131.863281 C 151.5625 148.578125 168.496094 152.957031 180.035156 169.480469 C 190.941406 153.0625 208.503906 148.042969 208.503906 131.863281 C 208.503906 123.648438 201.808594 116.980469 193.554688 116.980469 C 187.570312 116.980469 182.421875 120.5 180.035156 125.5625 C 177.648438 120.5 172.496094 116.980469 166.511719 116.980469 Z M 166.511719 116.980469 " fill-opacity="1" fill-rule="nonzero"/></g><g fill="#ff3131" fill-opacity="1"><g transform="translate(44.874898, 95.039993)"><g><path d="M 31.484375 -42.847656 L 2.855469 -42.847656 L 2.855469 -40.800781 L 28.441406 -40.800781 L 6.582031 0 L 9.191406 0 L 31.484375 -41.730469 Z M 31.484375 -42.847656 "/></g></g></g><g clip-path="url(#d18d491f02)"><path fill="#ff3131" d="M 234.921875 378.789062 C 226.671875 378.789062 219.972656 385.457031 219.972656 393.671875 C 219.972656 410.386719 236.90625 414.769531 248.445312 431.292969 C 259.355469 414.871094 276.917969 409.851562 276.917969 393.671875 C 276.917969 385.457031 270.21875 378.789062 261.96875 378.789062 C 255.984375 378.789062 250.832031 382.308594 248.445312 387.371094 C 246.058594 382.308594 240.90625 378.789062 234.921875 378.789062 Z M 234.921875 378.789062 " fill-opacity="1" fill-rule="nonzero"/></g><g clip-path="url(#ad4e60bc73)"><path fill="#ff3131" d="M 98.320312 290.175781 C 90.070312 290.175781 83.371094 296.839844 83.371094 305.058594 C 83.371094 321.769531 100.304688 326.152344 111.84375 342.675781 C 122.753906 326.253906 140.3125 321.234375 140.3125 305.058594 C 140.3125 296.839844 133.617188 290.175781 125.367188 290.175781 C 119.382812 290.175781 114.230469 293.691406 111.84375 298.753906 C 109.457031 293.691406 104.304688 290.175781 98.320312 290.175781 Z M 98.320312 290.175781 " fill-opacity="1" fill-rule="nonzero"/></g><g clip-path="url(#7cb35b4423)"><path fill="#ff3131" d="M 98.320312 201.859375 C 90.070312 201.859375 83.371094 208.523438 83.371094 216.742188 C 83.371094 233.453125 100.304688 237.835938 111.84375 254.359375 C 122.753906 237.9375 140.3125 232.921875 140.3125 216.742188 C 140.3125 208.523438 133.617188 201.859375 125.367188 201.859375 C 119.382812 201.859375 114.230469 205.375 111.84375 210.4375 C 109.457031 205.375 104.304688 201.859375 98.320312 201.859375 Z M 98.320312 201.859375 " fill-opacity="1" fill-rule="nonzero"/></g><g clip-path="url(#f56dd3563e)"><path fill="#ff3131" d="M 98.320312 378.488281 C 90.070312 378.488281 83.371094 385.15625 83.371094 393.371094 C 83.371094 410.085938 100.304688 414.46875 111.84375 430.992188 C 122.753906 414.570312 140.3125 409.550781 140.3125 393.371094 C 140.3125 385.15625 133.617188 378.488281 125.367188 378.488281 C 119.382812 378.488281 114.230469 382.007812 111.84375 387.070312 C 109.457031 382.007812 104.304688 378.488281 98.320312 378.488281 Z M 98.320312 378.488281 " fill-opacity="1" fill-rule="nonzero"/></g></svg>