<svg xmlns="http://www.w3.org/2000/svg" xmlns:xlink="http://www.w3.org/1999/xlink" width="480" zoomAndPan="magnify" viewBox="0 0 360 503.999982" height="672" preserveAspectRatio="xMidYMid meet" version="1.0"><defs><filter x="0%" y="0%" width="100%" height="100%" id="177250018b"><feColorMatrix values="0 0 0 0 1 0 0 0 0 1 0 0 0 0 1 0 0 0 1 0" color-interpolation-filters="sRGB"/></filter><g/><mask id="998f40c010"><g filter="url(#177250018b)"><rect x="-36" width="432" fill="#000000" y="-50.399998" height="604.799979" fill-opacity="0.1373"/></g></mask><clipPath id="8dac6b847f"><path d="M 0 0 L 1 0 L 1 432.847656 L 0 432.847656 Z M 0 0 " clip-rule="nonzero"/></clipPath><clipPath id="1ea8315111"><path d="M 0 0 L 18 0 L 18 432.847656 L 0 432.847656 Z M 0 0 " clip-rule="nonzero"/></clipPath><clipPath id="7ee2175a6b"><path d="M 0 0 L 35 0 L 35 432.847656 L 0 432.847656 Z M 0 0 " clip-rule="nonzero"/></clipPath><clipPath id="09177df669"><path d="M 0 0 L 53 0 L 53 432.847656 L 0 432.847656 Z M 0 0 " clip-rule="nonzero"/></clipPath><clipPath id="5c6c875f44"><path d="M 0 0 L 70 0 L 70 432.847656 L 0 432.847656 Z M 0 0 " clip-rule="nonzero"/></clipPath><clipPath id="3010274d98"><path d="M 0 0 L 88 0 L 88 432.847656 L 0 432.847656 Z M 0 0 " clip-rule="nonzero"/></clipPath><clipPath id="da7a7544e9"><path d="M 0 0 L 105 0 L 105 432.847656 L 0 432.847656 Z M 0 0 " clip-rule="nonzero"/></clipPath><clipPath id="ef7648dd94"><path d="M 0 0 L 122 0 L 122 432.847656 L 0 432.847656 Z M 0 0 " clip-rule="nonzero"/></clipPath><clipPath id="285f82c06d"><path d="M 0 0 L 140 0 L 140 432.847656 L 0 432.847656 Z M 0 0 " clip-rule="nonzero"/></clipPath><clipPath id="30428a4c6f"><path d="M 0 0 L 157 0 L 157 432.847656 L 0 432.847656 Z M 0 0 " clip-rule="nonzero"/></clipPath><clipPath id="e95c359c44"><path d="M 0 0 L 175 0 L 175 432.847656 L 0 432.847656 Z M 0 0 " clip-rule="nonzero"/></clipPath><clipPath id="a74a1e1eaf"><path d="M 0 0 L 192 0 L 192 432.847656 L 0 432.847656 Z M 0 0 " clip-rule="nonzero"/></clipPath><clipPath id="0d140510b9"><path d="M 0 0 L 208.722656 0 L 208.722656 432.847656 L 0 432.847656 Z M 0 0 " clip-rule="nonzero"/></clipPath><clipPath id="04852ef3c2"><rect x="0" width="209" y="0" height="434"/></clipPath><mask id="a219e6ce2b"><g filter="url(#177250018b)"><rect x="-36" width="432" fill="#000000" y="-50.399998" height="604.799979" fill-opacity="0.1373"/></g></mask><clipPath id="f3188c5036"><path d="M 0 0.203125 L 197 0.203125 L 197 498 L 0 498 Z M 0 0.203125 " clip-rule="nonzero"/></clipPath><clipPath id="3b48da70b8"><path d="M 0 0.203125 L 214 0.203125 L 214 498 L 0 498 Z M 0 0.203125 " clip-rule="nonzero"/></clipPath><clipPath id="6c1e6cb1fb"><path d="M 12 0.203125 L 232 0.203125 L 232 498 L 12 498 Z M 12 0.203125 " clip-rule="nonzero"/></clipPath><clipPath id="265a9240a3"><path d="M 29 0.203125 L 249 0.203125 L 249 498 L 29 498 Z M 29 0.203125 " clip-rule="nonzero"/></clipPath><clipPath id="100ab745f2"><path d="M 47 0.203125 L 267 0.203125 L 267 498 L 47 498 Z M 47 0.203125 " clip-rule="nonzero"/></clipPath><clipPath id="c59e70a86b"><path d="M 64 0.203125 L 284 0.203125 L 284 498 L 64 498 Z M 64 0.203125 " clip-rule="nonzero"/></clipPath><clipPath id="d0b8cef133"><path d="M 81 0.203125 L 301 0.203125 L 301 498 L 81 498 Z M 81 0.203125 " clip-rule="nonzero"/></clipPath><clipPath id="167c5e429b"><path d="M 99 0.203125 L 319 0.203125 L 319 498 L 99 498 Z M 99 0.203125 " clip-rule="nonzero"/></clipPath><clipPath id="c92130148e"><path d="M 116 0.203125 L 336 0.203125 L 336 498 L 116 498 Z M 116 0.203125 " clip-rule="nonzero"/></clipPath><clipPath id="0b0ca5a498"><path d="M 134 0.203125 L 354 0.203125 L 354 498 L 134 498 Z M 134 0.203125 " clip-rule="nonzero"/></clipPath><clipPath id="4589835cb1"><path d="M 151 0.203125 L 360 0.203125 L 360 498 L 151 498 Z M 151 0.203125 " clip-rule="nonzero"/></clipPath><clipPath id="e44db028ad"><path d="M 168 0.203125 L 360 0.203125 L 360 498 L 168 498 Z M 168 0.203125 " clip-rule="nonzero"/></clipPath><clipPath id="e904d2c102"><path d="M 186 0.203125 L 360 0.203125 L 360 498 L 186 498 Z M 186 0.203125 " clip-rule="nonzero"/></clipPath><clipPath id="939983e807"><path d="M 203 0.203125 L 360 0.203125 L 360 498 L 203 498 Z M 203 0.203125 " clip-rule="nonzero"/></clipPath><clipPath id="017468385d"><path d="M 221 0.203125 L 360 0.203125 L 360 498 L 221 498 Z M 221 0.203125 " clip-rule="nonzero"/></clipPath><clipPath id="48b90391aa"><rect x="0" width="360" y="0" height="498"/></clipPath><clipPath id="d4941e2f14"><path d="M 28.015625 36 L 331.765625 36 L 331.765625 468 L 28.015625 468 Z M 28.015625 36 " clip-rule="nonzero"/></clipPath><clipPath id="ed828eec77"><path d="M 219.941406 313.363281 L 276.941406 313.363281 L 276.941406 365.863281 L 219.941406 365.863281 Z M 219.941406 313.363281 " clip-rule="nonzero"/></clipPath><clipPath id="59ceaabdc6"><path d="M 219.941406 247.945312 L 276.941406 247.945312 L 276.941406 300.445312 L 219.941406 300.445312 Z M 219.941406 247.945312 " clip-rule="nonzero"/></clipPath><clipPath id="f01e4cef32"><path d="M 219.941406 182.523438 L 276.941406 182.523438 L 276.941406 235.023438 L 219.941406 235.023438 Z M 219.941406 182.523438 " clip-rule="nonzero"/></clipPath><mask id="4b06799990"><g filter="url(#177250018b)"><rect x="-36" width="432" fill="#000000" y="-50.399998" height="604.799979" fill-opacity="0.1373"/></g></mask><clipPath id="1d0b648df5"><path d="M 0.222656 1 L 122 1 L 122 501.648438 L 0.222656 501.648438 Z M 0.222656 1 " clip-rule="nonzero"/></clipPath><clipPath id="2ed60ff1f8"><path d="M 17 1 L 122 1 L 122 501.648438 L 17 501.648438 Z M 17 1 " clip-rule="nonzero"/></clipPath><clipPath id="695fc2045f"><path d="M 35 1 L 122 1 L 122 501.648438 L 35 501.648438 Z M 35 1 " clip-rule="nonzero"/></clipPath><clipPath id="31805723c3"><path d="M 52 1 L 122 1 L 122 501.648438 L 52 501.648438 Z M 52 1 " clip-rule="nonzero"/></clipPath><clipPath id="6531dc17da"><path d="M 70 1 L 122 1 L 122 501.648438 L 70 501.648438 Z M 70 1 " clip-rule="nonzero"/></clipPath><clipPath id="518f7b305a"><path d="M 87 1 L 122 1 L 122 501.648438 L 87 501.648438 Z M 87 1 " clip-rule="nonzero"/></clipPath><clipPath id="cf6d8052f6"><path d="M 104 1 L 122 1 L 122 501.648438 L 104 501.648438 Z M 104 1 " clip-rule="nonzero"/></clipPath><clipPath id="b45648f0fb"><rect x="0" width="122" y="0" height="502"/></clipPath><clipPath id="fadea592dd"><path d="M 219.941406 378.785156 L 276.941406 378.785156 L 276.941406 431.285156 L 219.941406 431.285156 Z M 219.941406 378.785156 " clip-rule="nonzero"/></clipPath><clipPath id="95ec25aec2"><path d="M 219.941406 116.972656 L 276.941406 116.972656 L 276.941406 169.472656 L 219.941406 169.472656 Z M 219.941406 116.972656 " clip-rule="nonzero"/></clipPath><clipPath id="782d535fb7"><path d="M 84.941406 313.363281 L 141.941406 313.363281 L 141.941406 365.863281 L 84.941406 365.863281 Z M 84.941406 313.363281 " clip-rule="nonzero"/></clipPath><clipPath id="9ba7836118"><path d="M 84.941406 247.945312 L 141.941406 247.945312 L 141.941406 300.445312 L 84.941406 300.445312 Z M 84.941406 247.945312 " clip-rule="nonzero"/></clipPath><clipPath id="b204cfecbc"><path d="M 84.941406 182.523438 L 141.941406 182.523438 L 141.941406 235.023438 L 84.941406 235.023438 Z M 84.941406 182.523438 " clip-rule="nonzero"/></clipPath><clipPath id="905ef4aca9"><path d="M 84.941406 378.785156 L 141.941406 378.785156 L 141.941406 431.285156 L 84.941406 431.285156 Z M 84.941406 378.785156 " clip-rule="nonzero"/></clipPath><clipPath id="007236b512"><path d="M 84.941406 116.972656 L 141.941406 116.972656 L 141.941406 169.472656 L 84.941406 169.472656 Z M 84.941406 116.972656 " clip-rule="nonzero"/></clipPath></defs><rect x="-36" width="432" fill="#ffffff" y="-50.399998" height="604.799979" fill-opacity="1"/><rect x="-36" width="432" fill="#323232" y="-50.399998" height="604.799979" fill-opacity="1"/><g mask="url(#998f40c010)"><g transform="matrix(1, 0, 0, 1, 0, 0)"><g clip-path="url(#04852ef3c2)"><g clip-path="url(#8dac6b847f)"><path fill="#000000" d="M -217.589844 432.296875 L -219.066406 431.664062 L -1.417969 -67.574219 L 0.0507812 -66.9375 Z M -217.589844 432.296875 " fill-opacity="1" fill-rule="nonzero"/></g><g clip-path="url(#1ea8315111)"><path fill="#000000" d="M -200.175781 432.296875 L -201.652344 431.664062 L 15.992188 -67.574219 L 17.460938 -66.9375 Z M -200.175781 432.296875 " fill-opacity="1" fill-rule="nonzero"/></g><g clip-path="url(#7ee2175a6b)"><path fill="#000000" d="M -182.765625 432.296875 L -184.242188 431.664062 L 33.40625 -67.574219 L 34.875 -66.9375 Z M -182.765625 432.296875 " fill-opacity="1" fill-rule="nonzero"/></g><g clip-path="url(#09177df669)"><path fill="#000000" d="M -165.359375 432.296875 L -166.828125 431.664062 L 50.816406 -67.574219 L 52.289062 -66.9375 Z M -165.359375 432.296875 " fill-opacity="1" fill-rule="nonzero"/></g><g clip-path="url(#5c6c875f44)"><path fill="#000000" d="M -147.945312 432.296875 L -149.421875 431.664062 L 68.222656 -67.574219 L 69.699219 -66.9375 Z M -147.945312 432.296875 " fill-opacity="1" fill-rule="nonzero"/></g><g clip-path="url(#3010274d98)"><path fill="#000000" d="M -130.535156 432.296875 L -132.011719 431.664062 L 85.636719 -67.574219 L 87.113281 -66.9375 Z M -130.535156 432.296875 " fill-opacity="1" fill-rule="nonzero"/></g><g clip-path="url(#da7a7544e9)"><path fill="#000000" d="M -113.121094 432.296875 L -114.597656 431.664062 L 103.050781 -67.574219 L 104.523438 -66.9375 Z M -113.121094 432.296875 " fill-opacity="1" fill-rule="nonzero"/></g><g clip-path="url(#ef7648dd94)"><path fill="#000000" d="M -95.707031 432.296875 L -97.183594 431.664062 L 120.460938 -67.574219 L 121.929688 -66.9375 Z M -95.707031 432.296875 " fill-opacity="1" fill-rule="nonzero"/></g><g clip-path="url(#285f82c06d)"><path fill="#000000" d="M -78.304688 432.296875 L -79.773438 431.664062 L 137.875 -67.574219 L 139.34375 -66.9375 Z M -78.304688 432.296875 " fill-opacity="1" fill-rule="nonzero"/></g><g clip-path="url(#30428a4c6f)"><path fill="#000000" d="M -60.890625 432.296875 L -62.359375 431.664062 L 155.28125 -67.574219 L 156.757812 -66.9375 Z M -60.890625 432.296875 " fill-opacity="1" fill-rule="nonzero"/></g><g clip-path="url(#e95c359c44)"><path fill="#000000" d="M -43.476562 432.296875 L -44.949219 431.664062 L 172.691406 -67.574219 L 174.167969 -66.9375 Z M -43.476562 432.296875 " fill-opacity="1" fill-rule="nonzero"/></g><g clip-path="url(#a74a1e1eaf)"><path fill="#000000" d="M -26.066406 432.296875 L -27.535156 431.664062 L 190.105469 -67.574219 L 191.582031 -66.9375 Z M -26.066406 432.296875 " fill-opacity="1" fill-rule="nonzero"/></g><g clip-path="url(#0d140510b9)"><path fill="#000000" d="M -8.652344 432.296875 L -10.128906 431.664062 L 207.515625 -67.574219 L 208.992188 -66.9375 Z M -8.652344 432.296875 " fill-opacity="1" fill-rule="nonzero"/></g></g></g></g><g mask="url(#a219e6ce2b)"><g transform="matrix(1, 0, 0, 1, 0, 6)"><g clip-path="url(#48b90391aa)"><g clip-path="url(#f3188c5036)"><path fill="#000000" d="M -21.167969 500.652344 L -22.636719 500.015625 L 195.003906 0.78125 L 196.480469 1.414062 Z M -21.167969 500.652344 " fill-opacity="1" fill-rule="nonzero"/></g><g clip-path="url(#3b48da70b8)"><path fill="#000000" d="M -3.753906 500.652344 L -5.230469 500.015625 L 212.414062 0.78125 L 213.890625 1.414062 Z M -3.753906 500.652344 " fill-opacity="1" fill-rule="nonzero"/></g><g clip-path="url(#6c1e6cb1fb)"><path fill="#000000" d="M 13.65625 500.652344 L 12.183594 500.015625 L 229.828125 0.78125 L 231.296875 1.414062 Z M 13.65625 500.652344 " fill-opacity="1" fill-rule="nonzero"/></g><g clip-path="url(#265a9240a3)"><path fill="#000000" d="M 31.070312 500.652344 L 29.59375 500.015625 L 247.242188 0.78125 L 248.710938 1.414062 Z M 31.070312 500.652344 " fill-opacity="1" fill-rule="nonzero"/></g><g clip-path="url(#100ab745f2)"><path fill="#000000" d="M 48.484375 500.652344 L 47.007812 500.015625 L 264.652344 0.78125 L 266.125 1.414062 Z M 48.484375 500.652344 " fill-opacity="1" fill-rule="nonzero"/></g><g clip-path="url(#c59e70a86b)"><path fill="#000000" d="M 65.890625 500.652344 L 64.417969 500.015625 L 282.066406 0.78125 L 283.535156 1.414062 Z M 65.890625 500.652344 " fill-opacity="1" fill-rule="nonzero"/></g><g clip-path="url(#d0b8cef133)"><path fill="#000000" d="M 83.300781 500.652344 L 81.824219 500.015625 L 299.472656 0.78125 L 300.949219 1.414062 Z M 83.300781 500.652344 " fill-opacity="1" fill-rule="nonzero"/></g><g clip-path="url(#167c5e429b)"><path fill="#000000" d="M 100.714844 500.652344 L 99.238281 500.015625 L 316.882812 0.78125 L 318.359375 1.414062 Z M 100.714844 500.652344 " fill-opacity="1" fill-rule="nonzero"/></g><g clip-path="url(#c92130148e)"><path fill="#000000" d="M 118.125 500.652344 L 116.652344 500.015625 L 334.296875 0.78125 L 335.773438 1.414062 Z M 118.125 500.652344 " fill-opacity="1" fill-rule="nonzero"/></g><g clip-path="url(#0b0ca5a498)"><path fill="#000000" d="M 135.539062 500.652344 L 134.0625 500.015625 L 351.710938 0.78125 L 353.179688 1.414062 Z M 135.539062 500.652344 " fill-opacity="1" fill-rule="nonzero"/></g><g clip-path="url(#4589835cb1)"><path fill="#000000" d="M 152.945312 500.652344 L 151.476562 500.015625 L 369.121094 0.78125 L 370.589844 1.414062 Z M 152.945312 500.652344 " fill-opacity="1" fill-rule="nonzero"/></g><g clip-path="url(#e44db028ad)"><path fill="#000000" d="M 170.359375 500.652344 L 168.886719 500.015625 L 386.527344 0.78125 L 388.003906 1.414062 Z M 170.359375 500.652344 " fill-opacity="1" fill-rule="nonzero"/></g><g clip-path="url(#e904d2c102)"><path fill="#000000" d="M 187.769531 500.652344 L 186.300781 500.015625 L 403.941406 0.78125 L 405.417969 1.414062 Z M 187.769531 500.652344 " fill-opacity="1" fill-rule="nonzero"/></g><g clip-path="url(#939983e807)"><path fill="#000000" d="M 205.183594 500.652344 L 203.710938 500.015625 L 421.351562 0.78125 L 422.828125 1.414062 Z M 205.183594 500.652344 " fill-opacity="1" fill-rule="nonzero"/></g><g clip-path="url(#017468385d)"><path fill="#000000" d="M 222.59375 500.652344 L 221.117188 500.015625 L 438.765625 0.78125 L 440.242188 1.414062 Z M 222.59375 500.652344 " fill-opacity="1" fill-rule="nonzero"/></g></g></g></g><g clip-path="url(#d4941e2f14)"><path fill="#ff3131" d="M 331.601562 467.976562 L 28.1875 467.976562 L 28.1875 36 L 331.601562 36 Z M 29.066406 467.097656 L 330.722656 467.097656 L 330.722656 36.878906 L 29.066406 36.878906 Z M 29.066406 467.097656 " fill-opacity="1" fill-rule="nonzero"/></g><g clip-path="url(#ed828eec77)"><path fill="#ff3131" d="M 234.921875 313.371094 C 226.671875 313.371094 219.972656 320.039062 219.972656 328.253906 C 219.972656 344.96875 236.90625 349.347656 248.445312 365.871094 C 259.355469 349.449219 276.917969 344.433594 276.917969 328.253906 C 276.917969 320.039062 270.21875 313.371094 261.96875 313.371094 C 255.984375 313.371094 250.832031 316.890625 248.445312 321.953125 C 246.058594 316.890625 240.90625 313.371094 234.921875 313.371094 Z M 234.921875 313.371094 " fill-opacity="1" fill-rule="nonzero"/></g><g clip-path="url(#59ceaabdc6)"><path fill="#ff3131" d="M 234.921875 247.949219 C 226.671875 247.949219 219.972656 254.617188 219.972656 262.832031 C 219.972656 279.546875 236.90625 283.929688 248.445312 300.453125 C 259.355469 284.03125 276.917969 279.011719 276.917969 262.832031 C 276.917969 254.617188 270.21875 247.949219 261.96875 247.949219 C 255.984375 247.949219 250.832031 251.46875 248.445312 256.53125 C 246.058594 251.46875 240.90625 247.949219 234.921875 247.949219 Z M 234.921875 247.949219 " fill-opacity="1" fill-rule="nonzero"/></g><g clip-path="url(#f01e4cef32)"><path fill="#ff3131" d="M 234.921875 182.53125 C 226.671875 182.53125 219.972656 189.199219 219.972656 197.414062 C 219.972656 214.128906 236.90625 218.507812 248.445312 235.03125 C 259.355469 218.609375 276.917969 213.59375 276.917969 197.414062 C 276.917969 189.199219 270.21875 182.53125 261.96875 182.53125 C 255.984375 182.53125 250.832031 186.050781 248.445312 191.113281 C 246.058594 186.050781 240.90625 182.53125 234.921875 182.53125 Z M 234.921875 182.53125 " fill-opacity="1" fill-rule="nonzero"/></g><g fill="#ff3131" fill-opacity="1"><g transform="translate(28.014549, 95.039993)"><g><path d="M 22.542969 -42.847656 L 21.175781 -42.847656 C 20.308594 -42.847656 19.625 -42.664062 18.070312 -41.730469 L 8.382812 -35.644531 L 8.382812 -33.097656 L 20.183594 -40.304688 L 20.183594 0 L 22.542969 0 Z M 22.542969 -42.847656 "/></g></g></g><g fill="#ff3131" fill-opacity="1"><g transform="translate(61.733545, 95.039993)"><g><path d="M 16.828125 -43.71875 C 6.210938 -43.71875 2.296875 -34.402344 2.296875 -21.425781 C 2.296875 -8.570312 6.210938 0.871094 16.828125 0.871094 C 27.511719 0.871094 31.359375 -8.507812 31.359375 -21.425781 C 31.359375 -34.339844 27.511719 -43.71875 16.828125 -43.71875 Z M 16.828125 -1.179688 C 8.011719 -1.179688 4.90625 -9.8125 4.90625 -21.425781 C 4.90625 -33.160156 8.011719 -41.667969 16.828125 -41.667969 C 25.710938 -41.667969 28.753906 -33.097656 28.753906 -21.425781 C 28.753906 -9.75 25.710938 -1.179688 16.828125 -1.179688 Z M 16.828125 -1.179688 "/></g></g></g><g mask="url(#4b06799990)"><g transform="matrix(1, 0, 0, 1, 238, 2)"><g clip-path="url(#b45648f0fb)"><g clip-path="url(#1d0b648df5)"><path fill="#000000" d="M 1.832031 501.097656 L 0.363281 500.460938 L 218.003906 1.226562 L 219.480469 1.859375 Z M 1.832031 501.097656 " fill-opacity="1" fill-rule="nonzero"/></g><g clip-path="url(#2ed60ff1f8)"><path fill="#000000" d="M 19.246094 501.097656 L 17.769531 500.460938 L 235.414062 1.226562 L 236.890625 1.859375 Z M 19.246094 501.097656 " fill-opacity="1" fill-rule="nonzero"/></g><g clip-path="url(#695fc2045f)"><path fill="#000000" d="M 36.65625 501.097656 L 35.183594 500.460938 L 252.828125 1.226562 L 254.296875 1.859375 Z M 36.65625 501.097656 " fill-opacity="1" fill-rule="nonzero"/></g><g clip-path="url(#31805723c3)"><path fill="#000000" d="M 54.070312 501.097656 L 52.59375 500.460938 L 270.242188 1.226562 L 271.710938 1.859375 Z M 54.070312 501.097656 " fill-opacity="1" fill-rule="nonzero"/></g><g clip-path="url(#6531dc17da)"><path fill="#000000" d="M 71.484375 501.097656 L 70.007812 500.460938 L 287.652344 1.226562 L 289.125 1.859375 Z M 71.484375 501.097656 " fill-opacity="1" fill-rule="nonzero"/></g><g clip-path="url(#518f7b305a)"><path fill="#000000" d="M 88.890625 501.097656 L 87.417969 500.460938 L 305.066406 1.226562 L 306.535156 1.859375 Z M 88.890625 501.097656 " fill-opacity="1" fill-rule="nonzero"/></g><g clip-path="url(#cf6d8052f6)"><path fill="#000000" d="M 106.300781 501.097656 L 104.824219 500.460938 L 322.472656 1.226562 L 323.949219 1.859375 Z M 106.300781 501.097656 " fill-opacity="1" fill-rule="nonzero"/></g></g></g></g><g clip-path="url(#fadea592dd)"><path fill="#ff3131" d="M 234.921875 378.789062 C 226.671875 378.789062 219.972656 385.457031 219.972656 393.671875 C 219.972656 410.386719 236.90625 414.769531 248.445312 431.292969 C 259.355469 414.871094 276.917969 409.851562 276.917969 393.671875 C 276.917969 385.457031 270.21875 378.789062 261.96875 378.789062 C 255.984375 378.789062 250.832031 382.308594 248.445312 387.371094 C 246.058594 382.308594 240.90625 378.789062 234.921875 378.789062 Z M 234.921875 378.789062 " fill-opacity="1" fill-rule="nonzero"/></g><g clip-path="url(#95ec25aec2)"><path fill="#ff3131" d="M 234.921875 116.980469 C 226.671875 116.980469 219.972656 123.648438 219.972656 131.863281 C 219.972656 148.578125 236.90625 152.957031 248.445312 169.480469 C 259.355469 153.0625 276.917969 148.042969 276.917969 131.863281 C 276.917969 123.648438 270.21875 116.980469 261.96875 116.980469 C 255.984375 116.980469 250.832031 120.5 248.445312 125.5625 C 246.058594 120.5 240.90625 116.980469 234.921875 116.980469 Z M 234.921875 116.980469 " fill-opacity="1" fill-rule="nonzero"/></g><g clip-path="url(#782d535fb7)"><path fill="#ff3131" d="M 99.921875 313.371094 C 91.671875 313.371094 84.972656 320.039062 84.972656 328.253906 C 84.972656 344.96875 101.90625 349.347656 113.445312 365.871094 C 124.355469 349.449219 141.917969 344.433594 141.917969 328.253906 C 141.917969 320.039062 135.21875 313.371094 126.96875 313.371094 C 120.984375 313.371094 115.832031 316.890625 113.445312 321.953125 C 111.058594 316.890625 105.90625 313.371094 99.921875 313.371094 Z M 99.921875 313.371094 " fill-opacity="1" fill-rule="nonzero"/></g><g clip-path="url(#9ba7836118)"><path fill="#ff3131" d="M 99.921875 247.949219 C 91.671875 247.949219 84.972656 254.617188 84.972656 262.832031 C 84.972656 279.546875 101.90625 283.929688 113.445312 300.453125 C 124.355469 284.03125 141.917969 279.011719 141.917969 262.832031 C 141.917969 254.617188 135.21875 247.949219 126.96875 247.949219 C 120.984375 247.949219 115.832031 251.46875 113.445312 256.53125 C 111.058594 251.46875 105.90625 247.949219 99.921875 247.949219 Z M 99.921875 247.949219 " fill-opacity="1" fill-rule="nonzero"/></g><g clip-path="url(#b204cfecbc)"><path fill="#ff3131" d="M 99.921875 182.53125 C 91.671875 182.53125 84.972656 189.199219 84.972656 197.414062 C 84.972656 214.128906 101.90625 218.507812 113.445312 235.03125 C 124.355469 218.609375 141.917969 213.59375 141.917969 197.414062 C 141.917969 189.199219 135.21875 182.53125 126.96875 182.53125 C 120.984375 182.53125 115.832031 186.050781 113.445312 191.113281 C 111.058594 186.050781 105.90625 182.53125 99.921875 182.53125 Z M 99.921875 182.53125 " fill-opacity="1" fill-rule="nonzero"/></g><g clip-path="url(#905ef4aca9)"><path fill="#ff3131" d="M 99.921875 378.789062 C 91.671875 378.789062 84.972656 385.457031 84.972656 393.671875 C 84.972656 410.386719 101.90625 414.769531 113.445312 431.292969 C 124.355469 414.871094 141.917969 409.851562 141.917969 393.671875 C 141.917969 385.457031 135.21875 378.789062 126.96875 378.789062 C 120.984375 378.789062 115.832031 382.308594 113.445312 387.371094 C 111.058594 382.308594 105.90625 378.789062 99.921875 378.789062 Z M 99.921875 378.789062 " fill-opacity="1" fill-rule="nonzero"/></g><g clip-path="url(#007236b512)"><path fill="#ff3131" d="M 99.921875 116.980469 C 91.671875 116.980469 84.972656 123.648438 84.972656 131.863281 C 84.972656 148.578125 101.90625 152.957031 113.445312 169.480469 C 124.355469 153.0625 141.917969 148.042969 141.917969 131.863281 C 141.917969 123.648438 135.21875 116.980469 126.96875 116.980469 C 120.984375 116.980469 115.832031 120.5 113.445312 125.5625 C 111.058594 120.5 105.90625 116.980469 99.921875 116.980469 Z M 99.921875 116.980469 " fill-opacity="1" fill-rule="nonzero"/></g></svg>