<svg xmlns="http://www.w3.org/2000/svg" xmlns:xlink="http://www.w3.org/1999/xlink" width="480" zoomAndPan="magnify" viewBox="0 0 360 503.999982" height="672" preserveAspectRatio="xMidYMid meet" version="1.0"><defs><filter x="0%" y="0%" width="100%" height="100%" id="75cf1fa3ce"><feColorMatrix values="0 0 0 0 1 0 0 0 0 1 0 0 0 0 1 0 0 0 1 0" color-interpolation-filters="sRGB"/></filter><mask id="17ee3f3e71"><g filter="url(#75cf1fa3ce)"><rect x="-36" width="432" fill="#000000" y="-50.399998" height="604.799979" fill-opacity="0.1373"/></g></mask><clipPath id="81281e921d"><path d="M 0 0 L 1 0 L 1 432.847656 L 0 432.847656 Z M 0 0 " clip-rule="nonzero"/></clipPath><clipPath id="79ce933062"><path d="M 0 0 L 18 0 L 18 432.847656 L 0 432.847656 Z M 0 0 " clip-rule="nonzero"/></clipPath><clipPath id="c33a62d57b"><path d="M 0 0 L 35 0 L 35 432.847656 L 0 432.847656 Z M 0 0 " clip-rule="nonzero"/></clipPath><clipPath id="7d4afe4d67"><path d="M 0 0 L 53 0 L 53 432.847656 L 0 432.847656 Z M 0 0 " clip-rule="nonzero"/></clipPath><clipPath id="34c22f0bfe"><path d="M 0 0 L 70 0 L 70 432.847656 L 0 432.847656 Z M 0 0 " clip-rule="nonzero"/></clipPath><clipPath id="4454df1177"><path d="M 0 0 L 88 0 L 88 432.847656 L 0 432.847656 Z M 0 0 " clip-rule="nonzero"/></clipPath><clipPath id="21345a0179"><path d="M 0 0 L 105 0 L 105 432.847656 L 0 432.847656 Z M 0 0 " clip-rule="nonzero"/></clipPath><clipPath id="2d7186fa8d"><path d="M 0 0 L 122 0 L 122 432.847656 L 0 432.847656 Z M 0 0 " clip-rule="nonzero"/></clipPath><clipPath id="3a28569775"><path d="M 0 0 L 140 0 L 140 432.847656 L 0 432.847656 Z M 0 0 " clip-rule="nonzero"/></clipPath><clipPath id="8072e6a723"><path d="M 0 0 L 157 0 L 157 432.847656 L 0 432.847656 Z M 0 0 " clip-rule="nonzero"/></clipPath><clipPath id="337d804eed"><path d="M 0 0 L 175 0 L 175 432.847656 L 0 432.847656 Z M 0 0 " clip-rule="nonzero"/></clipPath><clipPath id="74fca1acd3"><path d="M 0 0 L 192 0 L 192 432.847656 L 0 432.847656 Z M 0 0 " clip-rule="nonzero"/></clipPath><clipPath id="d928b7050d"><path d="M 0 0 L 208.722656 0 L 208.722656 432.847656 L 0 432.847656 Z M 0 0 " clip-rule="nonzero"/></clipPath><clipPath id="c996d84940"><rect x="0" width="209" y="0" height="434"/></clipPath><mask id="45c8a412f5"><g filter="url(#75cf1fa3ce)"><rect x="-36" width="432" fill="#000000" y="-50.399998" height="604.799979" fill-opacity="0.1373"/></g></mask><clipPath id="a3da35914a"><path d="M 0.222656 1 L 122 1 L 122 501.648438 L 0.222656 501.648438 Z M 0.222656 1 " clip-rule="nonzero"/></clipPath><clipPath id="54ef176589"><path d="M 17 1 L 122 1 L 122 501.648438 L 17 501.648438 Z M 17 1 " clip-rule="nonzero"/></clipPath><clipPath id="4dbc08ee12"><path d="M 35 1 L 122 1 L 122 501.648438 L 35 501.648438 Z M 35 1 " clip-rule="nonzero"/></clipPath><clipPath id="49901458bf"><path d="M 52 1 L 122 1 L 122 501.648438 L 52 501.648438 Z M 52 1 " clip-rule="nonzero"/></clipPath><clipPath id="e9755ea0a1"><path d="M 70 1 L 122 1 L 122 501.648438 L 70 501.648438 Z M 70 1 " clip-rule="nonzero"/></clipPath><clipPath id="997add0544"><path d="M 87 1 L 122 1 L 122 501.648438 L 87 501.648438 Z M 87 1 " clip-rule="nonzero"/></clipPath><clipPath id="2275aa3b60"><path d="M 104 1 L 122 1 L 122 501.648438 L 104 501.648438 Z M 104 1 " clip-rule="nonzero"/></clipPath><clipPath id="d845bc931e"><rect x="0" width="122" y="0" height="502"/></clipPath><mask id="fc7bbf564a"><g filter="url(#75cf1fa3ce)"><rect x="-36" width="432" fill="#000000" y="-50.399998" height="604.799979" fill-opacity="0.1373"/></g></mask><clipPath id="ee92c7a424"><path d="M 0 1 L 197 1 L 197 501.648438 L 0 501.648438 Z M 0 1 " clip-rule="nonzero"/></clipPath><clipPath id="0c22eabdd5"><path d="M 0 1 L 214 1 L 214 501.648438 L 0 501.648438 Z M 0 1 " clip-rule="nonzero"/></clipPath><clipPath id="62169dabf6"><path d="M 12 1 L 232 1 L 232 501.648438 L 12 501.648438 Z M 12 1 " clip-rule="nonzero"/></clipPath><clipPath id="5b23a9fdf3"><path d="M 29 1 L 249 1 L 249 501.648438 L 29 501.648438 Z M 29 1 " clip-rule="nonzero"/></clipPath><clipPath id="e45377388c"><path d="M 47 1 L 267 1 L 267 501.648438 L 47 501.648438 Z M 47 1 " clip-rule="nonzero"/></clipPath><clipPath id="614e1faace"><path d="M 64 1 L 284 1 L 284 501.648438 L 64 501.648438 Z M 64 1 " clip-rule="nonzero"/></clipPath><clipPath id="842072ced3"><path d="M 81 1 L 301 1 L 301 501.648438 L 81 501.648438 Z M 81 1 " clip-rule="nonzero"/></clipPath><clipPath id="811e50cd48"><path d="M 99 1 L 319 1 L 319 501.648438 L 99 501.648438 Z M 99 1 " clip-rule="nonzero"/></clipPath><clipPath id="eaf5d72d1d"><path d="M 116 1 L 336 1 L 336 501.648438 L 116 501.648438 Z M 116 1 " clip-rule="nonzero"/></clipPath><clipPath id="7fda6c0623"><path d="M 134 1 L 354 1 L 354 501.648438 L 134 501.648438 Z M 134 1 " clip-rule="nonzero"/></clipPath><clipPath id="c596c67871"><path d="M 151 1 L 360 1 L 360 501.648438 L 151 501.648438 Z M 151 1 " clip-rule="nonzero"/></clipPath><clipPath id="7cebea0e8f"><path d="M 168 1 L 360 1 L 360 501.648438 L 168 501.648438 Z M 168 1 " clip-rule="nonzero"/></clipPath><clipPath id="41ed81a976"><path d="M 186 1 L 360 1 L 360 501.648438 L 186 501.648438 Z M 186 1 " clip-rule="nonzero"/></clipPath><clipPath id="d2e4c3111f"><path d="M 203 1 L 360 1 L 360 501.648438 L 203 501.648438 Z M 203 1 " clip-rule="nonzero"/></clipPath><clipPath id="328b7d072d"><path d="M 221 1 L 360 1 L 360 501.648438 L 221 501.648438 Z M 221 1 " clip-rule="nonzero"/></clipPath><clipPath id="bab3bd8007"><rect x="0" width="360" y="0" height="502"/></clipPath><clipPath id="9c0a89451c"><path d="M 148.277344 165.292969 L 212 165.292969 L 212 223.792969 L 148.277344 223.792969 Z M 148.277344 165.292969 " clip-rule="nonzero"/></clipPath><clipPath id="b0e53ec4fe"><path d="M 213.585938 223.984375 L 272.4375 223.984375 L 272.4375 278.449219 L 213.585938 278.449219 Z M 213.585938 223.984375 " clip-rule="nonzero"/></clipPath><clipPath id="09b8e51d0b"><path d="M 230 235 L 245 235 L 245 283 L 230 283 Z M 230 235 " clip-rule="nonzero"/></clipPath><clipPath id="3164f4c883"><path d="M 239.78125 282.667969 L 211.761719 263.738281 L 231.128906 235.078125 L 259.144531 254.007812 Z M 239.78125 282.667969 " clip-rule="nonzero"/></clipPath><clipPath id="e9c53af351"><path d="M 239.78125 282.667969 L 208.128906 261.28125 L 230.960938 227.488281 L 262.613281 248.875 Z M 239.78125 282.667969 " clip-rule="nonzero"/></clipPath><clipPath id="7218a7acbc"><path d="M 163.644531 307.378906 L 196.4375 307.378906 L 196.4375 347.660156 L 163.644531 347.660156 Z M 163.644531 307.378906 " clip-rule="nonzero"/></clipPath><clipPath id="ffc73630d1"><path d="M 160 289.160156 L 200 289.160156 L 200 314 L 160 314 Z M 160 289.160156 " clip-rule="nonzero"/></clipPath><clipPath id="0289fb982f"><path d="M 89.589844 223.980469 L 148.089844 223.980469 L 148.089844 282.480469 L 89.589844 282.480469 Z M 89.589844 223.980469 " clip-rule="nonzero"/></clipPath><clipPath id="aec269a908"><path d="M 91 223.980469 L 146 223.980469 L 146 250 L 91 250 Z M 91 223.980469 " clip-rule="nonzero"/></clipPath><clipPath id="2ad4a1e1c2"><path d="M 95 242 L 148.089844 242 L 148.089844 282.480469 L 95 282.480469 Z M 95 242 " clip-rule="nonzero"/></clipPath></defs><rect x="-36" width="432" fill="#ffffff" y="-50.399998" height="604.799979" fill-opacity="1"/><rect x="-36" width="432" fill="#ffffff" y="-50.399998" height="604.799979" fill-opacity="1"/><rect x="-36" width="432" fill="#323232" y="-50.399998" height="604.799979" fill-opacity="1"/><g mask="url(#17ee3f3e71)"><g transform="matrix(1, 0, 0, 1, 0, 0)"><g clip-path="url(#c996d84940)"><g clip-path="url(#81281e921d)"><path fill="#000000" d="M -217.589844 432.296875 L -219.066406 431.664062 L -1.417969 -67.574219 L 0.0507812 -66.9375 Z M -217.589844 432.296875 " fill-opacity="1" fill-rule="nonzero"/></g><g clip-path="url(#79ce933062)"><path fill="#000000" d="M -200.175781 432.296875 L -201.652344 431.664062 L 15.992188 -67.574219 L 17.460938 -66.9375 Z M -200.175781 432.296875 " fill-opacity="1" fill-rule="nonzero"/></g><g clip-path="url(#c33a62d57b)"><path fill="#000000" d="M -182.765625 432.296875 L -184.242188 431.664062 L 33.40625 -67.574219 L 34.875 -66.9375 Z M -182.765625 432.296875 " fill-opacity="1" fill-rule="nonzero"/></g><g clip-path="url(#7d4afe4d67)"><path fill="#000000" d="M -165.359375 432.296875 L -166.828125 431.664062 L 50.816406 -67.574219 L 52.289062 -66.9375 Z M -165.359375 432.296875 " fill-opacity="1" fill-rule="nonzero"/></g><g clip-path="url(#34c22f0bfe)"><path fill="#000000" d="M -147.945312 432.296875 L -149.421875 431.664062 L 68.222656 -67.574219 L 69.699219 -66.9375 Z M -147.945312 432.296875 " fill-opacity="1" fill-rule="nonzero"/></g><g clip-path="url(#4454df1177)"><path fill="#000000" d="M -130.535156 432.296875 L -132.011719 431.664062 L 85.636719 -67.574219 L 87.113281 -66.9375 Z M -130.535156 432.296875 " fill-opacity="1" fill-rule="nonzero"/></g><g clip-path="url(#21345a0179)"><path fill="#000000" d="M -113.121094 432.296875 L -114.597656 431.664062 L 103.050781 -67.574219 L 104.523438 -66.9375 Z M -113.121094 432.296875 " fill-opacity="1" fill-rule="nonzero"/></g><g clip-path="url(#2d7186fa8d)"><path fill="#000000" d="M -95.707031 432.296875 L -97.183594 431.664062 L 120.460938 -67.574219 L 121.929688 -66.9375 Z M -95.707031 432.296875 " fill-opacity="1" fill-rule="nonzero"/></g><g clip-path="url(#3a28569775)"><path fill="#000000" d="M -78.304688 432.296875 L -79.773438 431.664062 L 137.875 -67.574219 L 139.34375 -66.9375 Z M -78.304688 432.296875 " fill-opacity="1" fill-rule="nonzero"/></g><g clip-path="url(#8072e6a723)"><path fill="#000000" d="M -60.890625 432.296875 L -62.359375 431.664062 L 155.28125 -67.574219 L 156.757812 -66.9375 Z M -60.890625 432.296875 " fill-opacity="1" fill-rule="nonzero"/></g><g clip-path="url(#337d804eed)"><path fill="#000000" d="M -43.476562 432.296875 L -44.949219 431.664062 L 172.691406 -67.574219 L 174.167969 -66.9375 Z M -43.476562 432.296875 " fill-opacity="1" fill-rule="nonzero"/></g><g clip-path="url(#74fca1acd3)"><path fill="#000000" d="M -26.066406 432.296875 L -27.535156 431.664062 L 190.105469 -67.574219 L 191.582031 -66.9375 Z M -26.066406 432.296875 " fill-opacity="1" fill-rule="nonzero"/></g><g clip-path="url(#d928b7050d)"><path fill="#000000" d="M -8.652344 432.296875 L -10.128906 431.664062 L 207.515625 -67.574219 L 208.992188 -66.9375 Z M -8.652344 432.296875 " fill-opacity="1" fill-rule="nonzero"/></g></g></g></g><g mask="url(#45c8a412f5)"><g transform="matrix(1, 0, 0, 1, 238, 2)"><g clip-path="url(#d845bc931e)"><g clip-path="url(#a3da35914a)"><path fill="#000000" d="M 1.832031 501.097656 L 0.363281 500.460938 L 218.003906 1.226562 L 219.480469 1.859375 Z M 1.832031 501.097656 " fill-opacity="1" fill-rule="nonzero"/></g><g clip-path="url(#54ef176589)"><path fill="#000000" d="M 19.246094 501.097656 L 17.769531 500.460938 L 235.414062 1.226562 L 236.890625 1.859375 Z M 19.246094 501.097656 " fill-opacity="1" fill-rule="nonzero"/></g><g clip-path="url(#4dbc08ee12)"><path fill="#000000" d="M 36.65625 501.097656 L 35.183594 500.460938 L 252.828125 1.226562 L 254.296875 1.859375 Z M 36.65625 501.097656 " fill-opacity="1" fill-rule="nonzero"/></g><g clip-path="url(#49901458bf)"><path fill="#000000" d="M 54.070312 501.097656 L 52.59375 500.460938 L 270.242188 1.226562 L 271.710938 1.859375 Z M 54.070312 501.097656 " fill-opacity="1" fill-rule="nonzero"/></g><g clip-path="url(#e9755ea0a1)"><path fill="#000000" d="M 71.484375 501.097656 L 70.007812 500.460938 L 287.652344 1.226562 L 289.125 1.859375 Z M 71.484375 501.097656 " fill-opacity="1" fill-rule="nonzero"/></g><g clip-path="url(#997add0544)"><path fill="#000000" d="M 88.890625 501.097656 L 87.417969 500.460938 L 305.066406 1.226562 L 306.535156 1.859375 Z M 88.890625 501.097656 " fill-opacity="1" fill-rule="nonzero"/></g><g clip-path="url(#2275aa3b60)"><path fill="#000000" d="M 106.300781 501.097656 L 104.824219 500.460938 L 322.472656 1.226562 L 323.949219 1.859375 Z M 106.300781 501.097656 " fill-opacity="1" fill-rule="nonzero"/></g></g></g></g><g mask="url(#fc7bbf564a)"><g transform="matrix(1, 0, 0, 1, 0, 2)"><g clip-path="url(#bab3bd8007)"><g clip-path="url(#ee92c7a424)"><path fill="#000000" d="M -21.167969 501.097656 L -22.636719 500.460938 L 195.003906 1.226562 L 196.480469 1.859375 Z M -21.167969 501.097656 " fill-opacity="1" fill-rule="nonzero"/></g><g clip-path="url(#0c22eabdd5)"><path fill="#000000" d="M -3.753906 501.097656 L -5.230469 500.460938 L 212.414062 1.226562 L 213.890625 1.859375 Z M -3.753906 501.097656 " fill-opacity="1" fill-rule="nonzero"/></g><g clip-path="url(#62169dabf6)"><path fill="#000000" d="M 13.65625 501.097656 L 12.183594 500.460938 L 229.828125 1.226562 L 231.296875 1.859375 Z M 13.65625 501.097656 " fill-opacity="1" fill-rule="nonzero"/></g><g clip-path="url(#5b23a9fdf3)"><path fill="#000000" d="M 31.070312 501.097656 L 29.59375 500.460938 L 247.242188 1.226562 L 248.710938 1.859375 Z M 31.070312 501.097656 " fill-opacity="1" fill-rule="nonzero"/></g><g clip-path="url(#e45377388c)"><path fill="#000000" d="M 48.484375 501.097656 L 47.007812 500.460938 L 264.652344 1.226562 L 266.125 1.859375 Z M 48.484375 501.097656 " fill-opacity="1" fill-rule="nonzero"/></g><g clip-path="url(#614e1faace)"><path fill="#000000" d="M 65.890625 501.097656 L 64.417969 500.460938 L 282.066406 1.226562 L 283.535156 1.859375 Z M 65.890625 501.097656 " fill-opacity="1" fill-rule="nonzero"/></g><g clip-path="url(#842072ced3)"><path fill="#000000" d="M 83.300781 501.097656 L 81.824219 500.460938 L 299.472656 1.226562 L 300.949219 1.859375 Z M 83.300781 501.097656 " fill-opacity="1" fill-rule="nonzero"/></g><g clip-path="url(#811e50cd48)"><path fill="#000000" d="M 100.714844 501.097656 L 99.238281 500.460938 L 316.882812 1.226562 L 318.359375 1.859375 Z M 100.714844 501.097656 " fill-opacity="1" fill-rule="nonzero"/></g><g clip-path="url(#eaf5d72d1d)"><path fill="#000000" d="M 118.125 501.097656 L 116.652344 500.460938 L 334.296875 1.226562 L 335.773438 1.859375 Z M 118.125 501.097656 " fill-opacity="1" fill-rule="nonzero"/></g><g clip-path="url(#7fda6c0623)"><path fill="#000000" d="M 135.539062 501.097656 L 134.0625 500.460938 L 351.710938 1.226562 L 353.179688 1.859375 Z M 135.539062 501.097656 " fill-opacity="1" fill-rule="nonzero"/></g><g clip-path="url(#c596c67871)"><path fill="#000000" d="M 152.945312 501.097656 L 151.476562 500.460938 L 369.121094 1.226562 L 370.589844 1.859375 Z M 152.945312 501.097656 " fill-opacity="1" fill-rule="nonzero"/></g><g clip-path="url(#7cebea0e8f)"><path fill="#000000" d="M 170.359375 501.097656 L 168.886719 500.460938 L 386.527344 1.226562 L 388.003906 1.859375 Z M 170.359375 501.097656 " fill-opacity="1" fill-rule="nonzero"/></g><g clip-path="url(#41ed81a976)"><path fill="#000000" d="M 187.769531 501.097656 L 186.300781 500.460938 L 403.941406 1.226562 L 405.417969 1.859375 Z M 187.769531 501.097656 " fill-opacity="1" fill-rule="nonzero"/></g><g clip-path="url(#d2e4c3111f)"><path fill="#000000" d="M 205.183594 501.097656 L 203.710938 500.460938 L 421.351562 1.226562 L 422.828125 1.859375 Z M 205.183594 501.097656 " fill-opacity="1" fill-rule="nonzero"/></g><g clip-path="url(#328b7d072d)"><path fill="#000000" d="M 222.59375 501.097656 L 221.117188 500.460938 L 438.765625 1.226562 L 440.242188 1.859375 Z M 222.59375 501.097656 " fill-opacity="1" fill-rule="nonzero"/></g></g></g></g><g clip-path="url(#9c0a89451c)"><path fill="#ff3131" d="M 165.03125 165.300781 C 155.804688 165.300781 148.316406 172.730469 148.316406 181.882812 C 148.316406 200.507812 167.25 205.390625 180.15625 223.800781 C 192.355469 205.503906 211.996094 199.910156 211.996094 181.882812 C 211.996094 172.730469 204.507812 165.300781 195.28125 165.300781 C 188.585938 165.300781 182.824219 169.21875 180.15625 174.863281 C 177.488281 169.21875 171.726562 165.300781 165.03125 165.300781 Z M 165.03125 165.300781 " fill-opacity="1" fill-rule="nonzero"/></g><g clip-path="url(#b0e53ec4fe)"><path fill="#00bf63" d="M 256.96875 278.441406 C 265.488281 278.441406 272.398438 271.523438 272.398438 263.003906 C 272.398438 245.664062 254.921875 241.117188 243.007812 223.976562 C 231.746094 241.011719 213.617188 246.21875 213.617188 263.003906 C 213.617188 271.523438 220.53125 278.441406 229.046875 278.441406 C 235.226562 278.441406 240.542969 274.792969 243.007812 269.539062 C 245.472656 274.792969 250.789062 278.441406 256.96875 278.441406 Z M 256.96875 278.441406 " fill-opacity="1" fill-rule="nonzero"/></g><g clip-path="url(#09b8e51d0b)"><g clip-path="url(#3164f4c883)"><g clip-path="url(#e9c53af351)"><path fill="#00bf63" d="M 231.339844 228.003906 C 231.367188 228.019531 231.390625 228.039062 231.410156 228.058594 C 244.867188 240.347656 248.679688 263.457031 240.28125 281.808594 C 240.210938 281.957031 240.097656 282.0625 239.941406 282.121094 C 239.785156 282.179688 239.628906 282.171875 239.480469 282.105469 C 239.328125 282.035156 239.222656 281.921875 239.164062 281.769531 C 239.109375 281.613281 239.113281 281.457031 239.179688 281.304688 C 247.371094 263.410156 243.679688 240.90625 230.59375 228.953125 C 230.476562 228.847656 230.414062 228.714844 230.402344 228.554688 C 230.386719 228.398438 230.429688 228.257812 230.527344 228.132812 C 230.625 228.007812 230.753906 227.933594 230.910156 227.90625 C 231.066406 227.882812 231.210938 227.914062 231.339844 228.003906 Z M 231.339844 228.003906 " fill-opacity="1" fill-rule="nonzero"/></g></g></g><g clip-path="url(#7218a7acbc)"><path fill="#ffcf00" d="M 166.363281 314.953125 C 166.105469 316.164062 166.027344 317.484375 166.019531 318.691406 C 166.003906 320.539062 166.15625 322.410156 166.414062 324.242188 C 166.507812 324.90625 166.617188 325.570312 166.742188 326.234375 C 167.535156 330.484375 168.992188 334.839844 171.78125 338.203125 C 172.605469 339.199219 173.566406 340.140625 174.632812 340.878906 C 172.183594 338.507812 170.652344 335.335938 169.699219 331.980469 C 168.015625 326.039062 167.871094 318.839844 168.769531 312.785156 C 167.71875 313.148438 166.609375 313.804688 166.363281 314.953125 Z M 181.445312 345.878906 C 181.695312 345.03125 181.851562 344.875 182.730469 344.65625 C 184.703125 344.171875 186.613281 343.144531 188.324219 341.582031 C 192.558594 337.710938 194.625 332.171875 195.652344 326.664062 C 196.519531 322.03125 196.742188 316.964844 195.828125 313.695312 C 194.867188 310.25 188.550781 307.5625 180.78125 307.402344 C 180.535156 307.394531 180.285156 307.394531 180.039062 307.394531 C 179.792969 307.394531 179.542969 307.394531 179.296875 307.402344 C 171.527344 307.5625 165.210938 310.25 164.25 313.695312 C 163.335938 316.964844 163.558594 322.03125 164.425781 326.664062 C 165.453125 332.171875 167.519531 337.710938 171.753906 341.582031 C 173.464844 343.144531 175.375 344.171875 177.347656 344.65625 C 178.226562 344.875 178.382812 345.03125 178.632812 345.878906 C 179.339844 348.257812 180.738281 348.257812 181.445312 345.878906 " fill-opacity="1" fill-rule="evenodd"/></g><g clip-path="url(#ffc73630d1)"><path fill="#ffcf00" d="M 178.632812 306.066406 C 178.246094 304.074219 177.355469 302.34375 176.09375 300.933594 C 175.011719 302.542969 174.367188 304.421875 174.285156 306.503906 C 175.738281 306.261719 177.207031 306.121094 178.632812 306.066406 Z M 168.273438 302.027344 C 167.367188 303.898438 167 306.007812 167.316406 308.25 C 167.335938 308.394531 167.359375 308.542969 167.386719 308.6875 C 167.824219 308.457031 168.265625 308.25 168.695312 308.070312 C 169.628906 307.679688 170.605469 307.351562 171.613281 307.082031 C 170.96875 305.015625 169.800781 303.320312 168.273438 302.027344 Z M 165.230469 310.085938 C 165.109375 309.714844 164.964844 309.339844 164.800781 308.96875 C 163.878906 306.902344 162.445312 305.304688 160.683594 304.199219 C 159.792969 307.21875 160.347656 311.621094 162.8125 313.835938 C 162.855469 313.664062 162.898438 313.5 162.945312 313.332031 C 163.304688 312.035156 164.171875 310.914062 165.230469 310.085938 Z M 161.417969 302.628906 C 163.09375 303.648438 164.464844 305.007812 165.484375 306.609375 C 165.496094 304.683594 165.949219 302.777344 166.855469 301.007812 C 165.917969 300.4375 164.890625 299.988281 163.796875 299.664062 C 162.839844 300.507812 162.039062 301.527344 161.417969 302.628906 Z M 170.847656 296.285156 C 169.585938 297.257812 168.550781 298.355469 167.738281 299.527344 C 167.027344 299.09375 166.257812 298.714844 165.433594 298.402344 C 166.8125 297.496094 169.378906 296.570312 170.847656 296.285156 Z M 172.6875 305.082031 C 172.96875 303.175781 173.683594 301.351562 174.828125 299.726562 C 173.898438 298.960938 172.832031 298.324219 171.667969 297.828125 C 170.683594 298.625 169.835938 299.527344 169.152344 300.519531 C 170.699219 301.769531 171.890625 303.328125 172.6875 305.082031 Z M 181.445312 306.066406 C 181.832031 304.074219 182.722656 302.34375 183.988281 300.933594 C 185.066406 302.542969 185.710938 304.421875 185.792969 306.503906 C 184.339844 306.261719 182.875 306.121094 181.445312 306.066406 Z M 191.804688 302.027344 C 192.710938 303.898438 193.078125 306.007812 192.761719 308.25 C 192.742188 308.394531 192.71875 308.542969 192.691406 308.6875 C 192.253906 308.457031 191.8125 308.25 191.386719 308.070312 C 190.453125 307.679688 189.472656 307.351562 188.464844 307.082031 C 189.109375 305.015625 190.277344 303.320312 191.804688 302.027344 Z M 194.847656 310.085938 C 194.96875 309.714844 195.113281 309.339844 195.277344 308.96875 C 196.199219 306.902344 197.632812 305.304688 199.394531 304.199219 C 200.285156 307.21875 199.730469 311.621094 197.265625 313.835938 C 197.222656 313.664062 197.179688 313.5 197.136719 313.332031 C 196.773438 312.035156 195.90625 310.914062 194.847656 310.085938 Z M 198.660156 302.628906 C 196.984375 303.648438 195.613281 305.007812 194.597656 306.609375 C 194.582031 304.683594 194.128906 302.777344 193.226562 301.007812 C 194.160156 300.4375 195.1875 299.988281 196.285156 299.664062 C 197.238281 300.507812 198.039062 301.527344 198.660156 302.628906 Z M 189.230469 296.285156 C 190.492188 297.257812 191.527344 298.355469 192.339844 299.527344 C 193.050781 299.09375 193.820312 298.714844 194.644531 298.402344 C 193.269531 297.496094 190.699219 296.570312 189.230469 296.285156 Z M 187.390625 305.082031 C 187.109375 303.175781 186.394531 301.351562 185.25 299.726562 C 186.179688 298.960938 187.246094 298.324219 188.410156 297.828125 C 189.394531 298.625 190.242188 299.527344 190.925781 300.519531 C 189.378906 301.769531 188.1875 303.328125 187.390625 305.082031 Z M 180.039062 297.246094 C 181.125 297.898438 182.089844 298.675781 182.90625 299.5625 C 181.546875 301.015625 180.582031 302.722656 180.039062 304.566406 C 179.496094 302.722656 178.53125 301.015625 177.171875 299.5625 C 177.988281 298.675781 178.953125 297.898438 180.039062 297.246094 Z M 178.722656 289.160156 L 181.359375 289.160156 C 181.457031 295.957031 183.035156 294.828125 188.058594 296.113281 C 186.574219 296.707031 185.273438 297.472656 184.164062 298.382812 C 182.988281 297.199219 181.558594 296.074219 180.039062 295.167969 C 178.519531 296.074219 177.089844 297.199219 175.914062 298.382812 C 174.804688 297.472656 173.503906 296.707031 172.019531 296.113281 C 177.042969 294.828125 178.621094 295.957031 178.722656 289.160156 " fill-opacity="1" fill-rule="evenodd"/></g><g clip-path="url(#0289fb982f)"><path fill="#ffffff" d="M 148.082031 253.226562 C 148.082031 254.183594 148.035156 255.140625 147.941406 256.09375 C 147.847656 257.046875 147.707031 257.992188 147.519531 258.933594 C 147.332031 259.871094 147.101562 260.800781 146.820312 261.714844 C 146.542969 262.632812 146.222656 263.535156 145.855469 264.417969 C 145.488281 265.304688 145.078125 266.167969 144.628906 267.011719 C 144.175781 267.859375 143.683594 268.679688 143.152344 269.476562 C 142.621094 270.273438 142.050781 271.039062 141.441406 271.78125 C 140.835938 272.519531 140.191406 273.230469 139.515625 273.90625 C 138.839844 274.585938 138.128906 275.226562 137.386719 275.835938 C 136.648438 276.441406 135.878906 277.011719 135.082031 277.542969 C 134.285156 278.078125 133.464844 278.566406 132.621094 279.019531 C 131.777344 279.472656 130.910156 279.878906 130.027344 280.246094 C 129.140625 280.613281 128.242188 280.9375 127.324219 281.214844 C 126.40625 281.492188 125.480469 281.722656 124.539062 281.910156 C 123.601562 282.097656 122.65625 282.238281 121.703125 282.332031 C 120.75 282.425781 119.792969 282.472656 118.835938 282.472656 C 117.878906 282.472656 116.921875 282.425781 115.96875 282.332031 C 115.015625 282.238281 114.070312 282.097656 113.128906 281.910156 C 112.191406 281.722656 111.261719 281.492188 110.34375 281.214844 C 109.429688 280.9375 108.527344 280.613281 107.644531 280.246094 C 106.757812 279.878906 105.894531 279.472656 105.046875 279.019531 C 104.203125 278.566406 103.382812 278.078125 102.585938 277.542969 C 101.789062 277.011719 101.023438 276.441406 100.28125 275.835938 C 99.542969 275.226562 98.832031 274.585938 98.15625 273.90625 C 97.476562 273.230469 96.835938 272.519531 96.226562 271.78125 C 95.621094 271.039062 95.050781 270.273438 94.519531 269.476562 C 93.984375 268.679688 93.492188 267.859375 93.042969 267.011719 C 92.589844 266.167969 92.183594 265.304688 91.816406 264.417969 C 91.449219 263.535156 91.125 262.632812 90.847656 261.714844 C 90.570312 260.800781 90.335938 259.871094 90.152344 258.933594 C 89.964844 257.992188 89.824219 257.046875 89.730469 256.09375 C 89.636719 255.140625 89.589844 254.183594 89.589844 253.226562 C 89.589844 252.269531 89.636719 251.3125 89.730469 250.359375 C 89.824219 249.40625 89.964844 248.460938 90.152344 247.519531 C 90.335938 246.582031 90.570312 245.652344 90.847656 244.738281 C 91.125 243.820312 91.449219 242.917969 91.816406 242.035156 C 92.183594 241.148438 92.589844 240.285156 93.042969 239.441406 C 93.492188 238.59375 93.984375 237.773438 94.519531 236.976562 C 95.050781 236.183594 95.621094 235.414062 96.226562 234.671875 C 96.835938 233.933594 97.476562 233.222656 98.15625 232.546875 C 98.832031 231.871094 99.542969 231.226562 100.28125 230.621094 C 101.023438 230.011719 101.789062 229.441406 102.585938 228.910156 C 103.382812 228.378906 104.203125 227.886719 105.046875 227.433594 C 105.894531 226.984375 106.757812 226.574219 107.644531 226.207031 C 108.527344 225.839844 109.429688 225.519531 110.34375 225.238281 C 111.261719 224.960938 112.191406 224.730469 113.128906 224.542969 C 114.070312 224.355469 115.015625 224.214844 115.96875 224.121094 C 116.921875 224.027344 117.878906 223.980469 118.835938 223.980469 C 119.792969 223.980469 120.75 224.027344 121.703125 224.121094 C 122.65625 224.214844 123.601562 224.355469 124.539062 224.542969 C 125.480469 224.730469 126.40625 224.960938 127.324219 225.238281 C 128.242188 225.519531 129.140625 225.839844 130.027344 226.207031 C 130.910156 226.574219 131.777344 226.984375 132.621094 227.433594 C 133.464844 227.886719 134.285156 228.378906 135.082031 228.910156 C 135.878906 229.441406 136.648438 230.011719 137.386719 230.621094 C 138.128906 231.226562 138.839844 231.871094 139.515625 232.546875 C 140.191406 233.222656 140.835938 233.933594 141.441406 234.671875 C 142.050781 235.414062 142.621094 236.183594 143.152344 236.976562 C 143.683594 237.773438 144.175781 238.59375 144.628906 239.441406 C 145.078125 240.285156 145.488281 241.148438 145.855469 242.035156 C 146.222656 242.917969 146.542969 243.820312 146.820312 244.738281 C 147.101562 245.652344 147.332031 246.582031 147.519531 247.519531 C 147.707031 248.460938 147.847656 249.40625 147.941406 250.359375 C 148.035156 251.3125 148.082031 252.269531 148.082031 253.226562 Z M 148.082031 253.226562 " fill-opacity="1" fill-rule="nonzero"/></g><g clip-path="url(#aec269a908)"><path fill="#38b6ff" d="M 107.085938 244.324219 C 113.386719 246.378906 119.566406 249.511719 126.191406 249.382812 C 131.996094 249.273438 137.523438 246.609375 142.054688 242.980469 C 143.105469 242.140625 144.109375 241.246094 145.078125 240.316406 C 144.480469 239.097656 143.796875 237.925781 143.035156 236.800781 C 142.269531 235.675781 141.433594 234.609375 140.519531 233.601562 C 139.609375 232.59375 138.632812 231.65625 137.589844 230.785156 C 136.546875 229.914062 135.449219 229.117188 134.292969 228.398438 C 133.140625 227.679688 131.941406 227.046875 130.699219 226.496094 C 129.457031 225.945312 128.183594 225.480469 126.875 225.109375 C 125.570312 224.734375 124.242188 224.453125 122.898438 224.265625 C 121.550781 224.074219 120.199219 223.980469 118.839844 223.980469 C 105.976562 223.980469 95.054688 232.28125 91.136719 243.8125 C 95.976562 241.804688 101.945312 242.644531 107.085938 244.324219 Z M 107.085938 244.324219 " fill-opacity="1" fill-rule="nonzero"/></g><g clip-path="url(#2ad4a1e1c2)"><path fill="#38b6ff" d="M 116.722656 253.972656 C 111.332031 253.746094 105.480469 252.480469 100.882812 255.289062 C 96.710938 257.828125 94.917969 263.15625 95.242188 268.027344 C 95.3125 269.050781 95.449219 270.0625 95.660156 271.066406 C 97.027344 272.84375 98.574219 274.441406 100.308594 275.859375 C 102.039062 277.28125 103.910156 278.484375 105.917969 279.472656 C 107.929688 280.460938 110.023438 281.210938 112.207031 281.714844 C 114.386719 282.222656 116.597656 282.476562 118.839844 282.472656 C 134.992188 282.472656 148.089844 269.378906 148.089844 253.222656 C 148.09375 249.390625 147.371094 245.699219 145.917969 242.152344 C 138.449219 249.984375 127.535156 254.421875 116.722656 253.972656 Z M 116.722656 253.972656 " fill-opacity="1" fill-rule="nonzero"/></g><path stroke-linecap="butt" transform="matrix(0.529693, -0.529693, 0.53033, 0.53033, 99.819615, 331.908726)" fill="none" stroke-linejoin="miter" d="M -0.000692375 1.497242 L 299.372844 1.500925 " stroke="#ffffff" stroke-width="3" stroke-opacity="1" stroke-miterlimit="4"/><path stroke-linecap="butt" transform="matrix(0.529693, 0.529693, -0.53033, 0.53033, 101.410604, 173.149439)" fill="none" stroke-linejoin="miter" d="M -0.00136786 1.50208 L 299.372169 1.498397 " stroke="#ffffff" stroke-width="3" stroke-opacity="1" stroke-miterlimit="4"/></svg>