<svg xmlns="http://www.w3.org/2000/svg" xmlns:xlink="http://www.w3.org/1999/xlink" width="480" zoomAndPan="magnify" viewBox="0 0 360 503.999982" height="672" preserveAspectRatio="xMidYMid meet" version="1.0"><defs><filter x="0%" y="0%" width="100%" height="100%" id="ade1825e46"><feColorMatrix values="0 0 0 0 1 0 0 0 0 1 0 0 0 0 1 0 0 0 1 0" color-interpolation-filters="sRGB"/></filter><mask id="0078ca5ef6"><g filter="url(#ade1825e46)"><rect x="-36" width="432" fill="#000000" y="-50.399998" height="604.799979" fill-opacity="0.1373"/></g></mask><clipPath id="511ec143a5"><path d="M 0 0 L 1 0 L 1 432.847656 L 0 432.847656 Z M 0 0 " clip-rule="nonzero"/></clipPath><clipPath id="49deaa3b05"><path d="M 0 0 L 18 0 L 18 432.847656 L 0 432.847656 Z M 0 0 " clip-rule="nonzero"/></clipPath><clipPath id="a875d584e9"><path d="M 0 0 L 35 0 L 35 432.847656 L 0 432.847656 Z M 0 0 " clip-rule="nonzero"/></clipPath><clipPath id="b8381f7c65"><path d="M 0 0 L 53 0 L 53 432.847656 L 0 432.847656 Z M 0 0 " clip-rule="nonzero"/></clipPath><clipPath id="173ef4bcc8"><path d="M 0 0 L 70 0 L 70 432.847656 L 0 432.847656 Z M 0 0 " clip-rule="nonzero"/></clipPath><clipPath id="752428c339"><path d="M 0 0 L 88 0 L 88 432.847656 L 0 432.847656 Z M 0 0 " clip-rule="nonzero"/></clipPath><clipPath id="0da3cb4168"><path d="M 0 0 L 105 0 L 105 432.847656 L 0 432.847656 Z M 0 0 " clip-rule="nonzero"/></clipPath><clipPath id="8292185f14"><path d="M 0 0 L 122 0 L 122 432.847656 L 0 432.847656 Z M 0 0 " clip-rule="nonzero"/></clipPath><clipPath id="4257579d2d"><path d="M 0 0 L 140 0 L 140 432.847656 L 0 432.847656 Z M 0 0 " clip-rule="nonzero"/></clipPath><clipPath id="52613dd230"><path d="M 0 0 L 157 0 L 157 432.847656 L 0 432.847656 Z M 0 0 " clip-rule="nonzero"/></clipPath><clipPath id="68ca15ebe5"><path d="M 0 0 L 175 0 L 175 432.847656 L 0 432.847656 Z M 0 0 " clip-rule="nonzero"/></clipPath><clipPath id="0f5ba91b8b"><path d="M 0 0 L 192 0 L 192 432.847656 L 0 432.847656 Z M 0 0 " clip-rule="nonzero"/></clipPath><clipPath id="8ed947365e"><path d="M 0 0 L 208.722656 0 L 208.722656 432.847656 L 0 432.847656 Z M 0 0 " clip-rule="nonzero"/></clipPath><clipPath id="d7f9a91712"><rect x="0" width="209" y="0" height="434"/></clipPath><mask id="543b18a722"><g filter="url(#ade1825e46)"><rect x="-36" width="432" fill="#000000" y="-50.399998" height="604.799979" fill-opacity="0.1373"/></g></mask><clipPath id="630a0b9a72"><path d="M 0 0.203125 L 197 0.203125 L 197 498 L 0 498 Z M 0 0.203125 " clip-rule="nonzero"/></clipPath><clipPath id="6f661648d0"><path d="M 0 0.203125 L 214 0.203125 L 214 498 L 0 498 Z M 0 0.203125 " clip-rule="nonzero"/></clipPath><clipPath id="0518073ca6"><path d="M 12 0.203125 L 232 0.203125 L 232 498 L 12 498 Z M 12 0.203125 " clip-rule="nonzero"/></clipPath><clipPath id="31b81eb00a"><path d="M 29 0.203125 L 249 0.203125 L 249 498 L 29 498 Z M 29 0.203125 " clip-rule="nonzero"/></clipPath><clipPath id="3c4b826495"><path d="M 47 0.203125 L 267 0.203125 L 267 498 L 47 498 Z M 47 0.203125 " clip-rule="nonzero"/></clipPath><clipPath id="1c76fd155c"><path d="M 64 0.203125 L 284 0.203125 L 284 498 L 64 498 Z M 64 0.203125 " clip-rule="nonzero"/></clipPath><clipPath id="727c9c4053"><path d="M 81 0.203125 L 301 0.203125 L 301 498 L 81 498 Z M 81 0.203125 " clip-rule="nonzero"/></clipPath><clipPath id="52ea757bb6"><path d="M 99 0.203125 L 319 0.203125 L 319 498 L 99 498 Z M 99 0.203125 " clip-rule="nonzero"/></clipPath><clipPath id="b744880b64"><path d="M 116 0.203125 L 336 0.203125 L 336 498 L 116 498 Z M 116 0.203125 " clip-rule="nonzero"/></clipPath><clipPath id="a992503bc1"><path d="M 134 0.203125 L 354 0.203125 L 354 498 L 134 498 Z M 134 0.203125 " clip-rule="nonzero"/></clipPath><clipPath id="fd807d41b4"><path d="M 151 0.203125 L 360 0.203125 L 360 498 L 151 498 Z M 151 0.203125 " clip-rule="nonzero"/></clipPath><clipPath id="18b4cef920"><path d="M 168 0.203125 L 360 0.203125 L 360 498 L 168 498 Z M 168 0.203125 " clip-rule="nonzero"/></clipPath><clipPath id="cdf8a29680"><path d="M 186 0.203125 L 360 0.203125 L 360 498 L 186 498 Z M 186 0.203125 " clip-rule="nonzero"/></clipPath><clipPath id="154353baf3"><path d="M 203 0.203125 L 360 0.203125 L 360 498 L 203 498 Z M 203 0.203125 " clip-rule="nonzero"/></clipPath><clipPath id="4f067737cc"><path d="M 221 0.203125 L 360 0.203125 L 360 498 L 221 498 Z M 221 0.203125 " clip-rule="nonzero"/></clipPath><clipPath id="9dc5bf7033"><rect x="0" width="360" y="0" height="498"/></clipPath><mask id="133ba4a476"><g filter="url(#ade1825e46)"><rect x="-36" width="432" fill="#000000" y="-50.399998" height="604.799979" fill-opacity="0.1373"/></g></mask><clipPath id="4df3c9a90b"><path d="M 0.222656 1 L 122 1 L 122 501.648438 L 0.222656 501.648438 Z M 0.222656 1 " clip-rule="nonzero"/></clipPath><clipPath id="c1d9f61cff"><path d="M 17 1 L 122 1 L 122 501.648438 L 17 501.648438 Z M 17 1 " clip-rule="nonzero"/></clipPath><clipPath id="fc2220c987"><path d="M 35 1 L 122 1 L 122 501.648438 L 35 501.648438 Z M 35 1 " clip-rule="nonzero"/></clipPath><clipPath id="db258e7e39"><path d="M 52 1 L 122 1 L 122 501.648438 L 52 501.648438 Z M 52 1 " clip-rule="nonzero"/></clipPath><clipPath id="e898335cb4"><path d="M 70 1 L 122 1 L 122 501.648438 L 70 501.648438 Z M 70 1 " clip-rule="nonzero"/></clipPath><clipPath id="858a0a45c8"><path d="M 87 1 L 122 1 L 122 501.648438 L 87 501.648438 Z M 87 1 " clip-rule="nonzero"/></clipPath><clipPath id="6e128d097f"><path d="M 104 1 L 122 1 L 122 501.648438 L 104 501.648438 Z M 104 1 " clip-rule="nonzero"/></clipPath><clipPath id="de6f1a049a"><rect x="0" width="122" y="0" height="502"/></clipPath><clipPath id="5b66b7f291"><path d="M 28.015625 36 L 331.765625 36 L 331.765625 468 L 28.015625 468 Z M 28.015625 36 " clip-rule="nonzero"/></clipPath><clipPath id="4a613bd2f6"><path d="M 143.09375 231.867188 L 216.578125 231.867188 L 216.578125 322.761719 L 143.09375 322.761719 Z M 143.09375 231.867188 " clip-rule="nonzero"/></clipPath><clipPath id="722d2a2b2d"><path d="M 135 190.761719 L 225 190.761719 L 225 247 L 135 247 Z M 135 190.761719 " clip-rule="nonzero"/></clipPath></defs><rect x="-36" width="432" fill="#ffffff" y="-50.399998" height="604.799979" fill-opacity="1"/><rect x="-36" width="432" fill="#323232" y="-50.399998" height="604.799979" fill-opacity="1"/><g mask="url(#0078ca5ef6)"><g transform="matrix(1, 0, 0, 1, 0, 0)"><g clip-path="url(#d7f9a91712)"><g clip-path="url(#511ec143a5)"><path fill="#000000" d="M -217.589844 432.296875 L -219.066406 431.664062 L -1.417969 -67.574219 L 0.0507812 -66.9375 Z M -217.589844 432.296875 " fill-opacity="1" fill-rule="nonzero"/></g><g clip-path="url(#49deaa3b05)"><path fill="#000000" d="M -200.175781 432.296875 L -201.652344 431.664062 L 15.992188 -67.574219 L 17.460938 -66.9375 Z M -200.175781 432.296875 " fill-opacity="1" fill-rule="nonzero"/></g><g clip-path="url(#a875d584e9)"><path fill="#000000" d="M -182.765625 432.296875 L -184.242188 431.664062 L 33.40625 -67.574219 L 34.875 -66.9375 Z M -182.765625 432.296875 " fill-opacity="1" fill-rule="nonzero"/></g><g clip-path="url(#b8381f7c65)"><path fill="#000000" d="M -165.359375 432.296875 L -166.828125 431.664062 L 50.816406 -67.574219 L 52.289062 -66.9375 Z M -165.359375 432.296875 " fill-opacity="1" fill-rule="nonzero"/></g><g clip-path="url(#173ef4bcc8)"><path fill="#000000" d="M -147.945312 432.296875 L -149.421875 431.664062 L 68.222656 -67.574219 L 69.699219 -66.9375 Z M -147.945312 432.296875 " fill-opacity="1" fill-rule="nonzero"/></g><g clip-path="url(#752428c339)"><path fill="#000000" d="M -130.535156 432.296875 L -132.011719 431.664062 L 85.636719 -67.574219 L 87.113281 -66.9375 Z M -130.535156 432.296875 " fill-opacity="1" fill-rule="nonzero"/></g><g clip-path="url(#0da3cb4168)"><path fill="#000000" d="M -113.121094 432.296875 L -114.597656 431.664062 L 103.050781 -67.574219 L 104.523438 -66.9375 Z M -113.121094 432.296875 " fill-opacity="1" fill-rule="nonzero"/></g><g clip-path="url(#8292185f14)"><path fill="#000000" d="M -95.707031 432.296875 L -97.183594 431.664062 L 120.460938 -67.574219 L 121.929688 -66.9375 Z M -95.707031 432.296875 " fill-opacity="1" fill-rule="nonzero"/></g><g clip-path="url(#4257579d2d)"><path fill="#000000" d="M -78.304688 432.296875 L -79.773438 431.664062 L 137.875 -67.574219 L 139.34375 -66.9375 Z M -78.304688 432.296875 " fill-opacity="1" fill-rule="nonzero"/></g><g clip-path="url(#52613dd230)"><path fill="#000000" d="M -60.890625 432.296875 L -62.359375 431.664062 L 155.28125 -67.574219 L 156.757812 -66.9375 Z M -60.890625 432.296875 " fill-opacity="1" fill-rule="nonzero"/></g><g clip-path="url(#68ca15ebe5)"><path fill="#000000" d="M -43.476562 432.296875 L -44.949219 431.664062 L 172.691406 -67.574219 L 174.167969 -66.9375 Z M -43.476562 432.296875 " fill-opacity="1" fill-rule="nonzero"/></g><g clip-path="url(#0f5ba91b8b)"><path fill="#000000" d="M -26.066406 432.296875 L -27.535156 431.664062 L 190.105469 -67.574219 L 191.582031 -66.9375 Z M -26.066406 432.296875 " fill-opacity="1" fill-rule="nonzero"/></g><g clip-path="url(#8ed947365e)"><path fill="#000000" d="M -8.652344 432.296875 L -10.128906 431.664062 L 207.515625 -67.574219 L 208.992188 -66.9375 Z M -8.652344 432.296875 " fill-opacity="1" fill-rule="nonzero"/></g></g></g></g><g mask="url(#543b18a722)"><g transform="matrix(1, 0, 0, 1, 0, 6)"><g clip-path="url(#9dc5bf7033)"><g clip-path="url(#630a0b9a72)"><path fill="#000000" d="M -21.167969 500.652344 L -22.636719 500.015625 L 195.003906 0.78125 L 196.480469 1.414062 Z M -21.167969 500.652344 " fill-opacity="1" fill-rule="nonzero"/></g><g clip-path="url(#6f661648d0)"><path fill="#000000" d="M -3.753906 500.652344 L -5.230469 500.015625 L 212.414062 0.78125 L 213.890625 1.414062 Z M -3.753906 500.652344 " fill-opacity="1" fill-rule="nonzero"/></g><g clip-path="url(#0518073ca6)"><path fill="#000000" d="M 13.65625 500.652344 L 12.183594 500.015625 L 229.828125 0.78125 L 231.296875 1.414062 Z M 13.65625 500.652344 " fill-opacity="1" fill-rule="nonzero"/></g><g clip-path="url(#31b81eb00a)"><path fill="#000000" d="M 31.070312 500.652344 L 29.59375 500.015625 L 247.242188 0.78125 L 248.710938 1.414062 Z M 31.070312 500.652344 " fill-opacity="1" fill-rule="nonzero"/></g><g clip-path="url(#3c4b826495)"><path fill="#000000" d="M 48.484375 500.652344 L 47.007812 500.015625 L 264.652344 0.78125 L 266.125 1.414062 Z M 48.484375 500.652344 " fill-opacity="1" fill-rule="nonzero"/></g><g clip-path="url(#1c76fd155c)"><path fill="#000000" d="M 65.890625 500.652344 L 64.417969 500.015625 L 282.066406 0.78125 L 283.535156 1.414062 Z M 65.890625 500.652344 " fill-opacity="1" fill-rule="nonzero"/></g><g clip-path="url(#727c9c4053)"><path fill="#000000" d="M 83.300781 500.652344 L 81.824219 500.015625 L 299.472656 0.78125 L 300.949219 1.414062 Z M 83.300781 500.652344 " fill-opacity="1" fill-rule="nonzero"/></g><g clip-path="url(#52ea757bb6)"><path fill="#000000" d="M 100.714844 500.652344 L 99.238281 500.015625 L 316.882812 0.78125 L 318.359375 1.414062 Z M 100.714844 500.652344 " fill-opacity="1" fill-rule="nonzero"/></g><g clip-path="url(#b744880b64)"><path fill="#000000" d="M 118.125 500.652344 L 116.652344 500.015625 L 334.296875 0.78125 L 335.773438 1.414062 Z M 118.125 500.652344 " fill-opacity="1" fill-rule="nonzero"/></g><g clip-path="url(#a992503bc1)"><path fill="#000000" d="M 135.539062 500.652344 L 134.0625 500.015625 L 351.710938 0.78125 L 353.179688 1.414062 Z M 135.539062 500.652344 " fill-opacity="1" fill-rule="nonzero"/></g><g clip-path="url(#fd807d41b4)"><path fill="#000000" d="M 152.945312 500.652344 L 151.476562 500.015625 L 369.121094 0.78125 L 370.589844 1.414062 Z M 152.945312 500.652344 " fill-opacity="1" fill-rule="nonzero"/></g><g clip-path="url(#18b4cef920)"><path fill="#000000" d="M 170.359375 500.652344 L 168.886719 500.015625 L 386.527344 0.78125 L 388.003906 1.414062 Z M 170.359375 500.652344 " fill-opacity="1" fill-rule="nonzero"/></g><g clip-path="url(#cdf8a29680)"><path fill="#000000" d="M 187.769531 500.652344 L 186.300781 500.015625 L 403.941406 0.78125 L 405.417969 1.414062 Z M 187.769531 500.652344 " fill-opacity="1" fill-rule="nonzero"/></g><g clip-path="url(#154353baf3)"><path fill="#000000" d="M 205.183594 500.652344 L 203.710938 500.015625 L 421.351562 0.78125 L 422.828125 1.414062 Z M 205.183594 500.652344 " fill-opacity="1" fill-rule="nonzero"/></g><g clip-path="url(#4f067737cc)"><path fill="#000000" d="M 222.59375 500.652344 L 221.117188 500.015625 L 438.765625 0.78125 L 440.242188 1.414062 Z M 222.59375 500.652344 " fill-opacity="1" fill-rule="nonzero"/></g></g></g></g><g mask="url(#133ba4a476)"><g transform="matrix(1, 0, 0, 1, 238, 2)"><g clip-path="url(#de6f1a049a)"><g clip-path="url(#4df3c9a90b)"><path fill="#000000" d="M 1.832031 501.097656 L 0.363281 500.460938 L 218.003906 1.226562 L 219.480469 1.859375 Z M 1.832031 501.097656 " fill-opacity="1" fill-rule="nonzero"/></g><g clip-path="url(#c1d9f61cff)"><path fill="#000000" d="M 19.246094 501.097656 L 17.769531 500.460938 L 235.414062 1.226562 L 236.890625 1.859375 Z M 19.246094 501.097656 " fill-opacity="1" fill-rule="nonzero"/></g><g clip-path="url(#fc2220c987)"><path fill="#000000" d="M 36.65625 501.097656 L 35.183594 500.460938 L 252.828125 1.226562 L 254.296875 1.859375 Z M 36.65625 501.097656 " fill-opacity="1" fill-rule="nonzero"/></g><g clip-path="url(#db258e7e39)"><path fill="#000000" d="M 54.070312 501.097656 L 52.59375 500.460938 L 270.242188 1.226562 L 271.710938 1.859375 Z M 54.070312 501.097656 " fill-opacity="1" fill-rule="nonzero"/></g><g clip-path="url(#e898335cb4)"><path fill="#000000" d="M 71.484375 501.097656 L 70.007812 500.460938 L 287.652344 1.226562 L 289.125 1.859375 Z M 71.484375 501.097656 " fill-opacity="1" fill-rule="nonzero"/></g><g clip-path="url(#858a0a45c8)"><path fill="#000000" d="M 88.890625 501.097656 L 87.417969 500.460938 L 305.066406 1.226562 L 306.535156 1.859375 Z M 88.890625 501.097656 " fill-opacity="1" fill-rule="nonzero"/></g><g clip-path="url(#6e128d097f)"><path fill="#000000" d="M 106.300781 501.097656 L 104.824219 500.460938 L 322.472656 1.226562 L 323.949219 1.859375 Z M 106.300781 501.097656 " fill-opacity="1" fill-rule="nonzero"/></g></g></g></g><g clip-path="url(#5b66b7f291)"><path fill="#ffcf00" d="M 331.601562 467.976562 L 28.1875 467.976562 L 28.1875 36 L 331.601562 36 Z M 29.066406 467.097656 L 330.722656 467.097656 L 330.722656 36.878906 L 29.066406 36.878906 Z M 29.066406 467.097656 " fill-opacity="1" fill-rule="nonzero"/></g><g clip-path="url(#4a613bd2f6)"><path fill="#ffcf00" d="M 149.195312 248.957031 C 148.613281 251.6875 148.4375 254.667969 148.417969 257.386719 C 148.382812 261.558594 148.730469 265.785156 149.304688 269.914062 C 149.519531 271.417969 149.761719 272.917969 150.039062 274.410156 C 151.816406 283.996094 155.082031 293.832031 161.332031 301.417969 C 163.179688 303.667969 165.332031 305.792969 167.71875 307.453125 C 162.230469 302.109375 158.800781 294.953125 156.667969 287.375 C 152.894531 273.972656 152.566406 257.730469 154.582031 244.066406 C 152.230469 244.882812 149.742188 246.367188 149.195312 248.957031 Z M 182.984375 318.738281 C 183.550781 316.824219 183.894531 316.472656 185.867188 315.980469 C 190.285156 314.886719 194.566406 312.570312 198.398438 309.042969 C 207.890625 300.304688 212.519531 287.804688 214.824219 275.378906 C 216.761719 264.929688 217.265625 253.496094 215.21875 246.125 C 213.0625 238.34375 198.910156 232.28125 181.503906 231.914062 C 180.945312 231.902344 180.390625 231.898438 179.835938 231.898438 C 179.28125 231.898438 178.726562 231.902344 178.171875 231.914062 C 160.761719 232.28125 146.613281 238.34375 144.453125 246.125 C 142.40625 253.496094 142.910156 264.929688 144.847656 275.378906 C 147.152344 287.804688 151.78125 300.304688 161.273438 309.042969 C 165.105469 312.570312 169.386719 314.886719 173.804688 315.980469 C 175.777344 316.472656 176.121094 316.824219 176.6875 318.738281 C 178.265625 324.101562 181.40625 324.101562 182.984375 318.738281 " fill-opacity="1" fill-rule="evenodd"/></g><g clip-path="url(#722d2a2b2d)"><path fill="#ffcf00" d="M 176.6875 228.90625 C 175.820312 224.410156 173.824219 220.507812 170.992188 217.320312 C 168.570312 220.953125 167.125 225.195312 166.9375 229.894531 C 170.195312 229.347656 173.488281 229.03125 176.6875 228.90625 Z M 153.46875 219.792969 C 151.441406 224.011719 150.617188 228.773438 151.324219 233.832031 C 151.371094 234.160156 151.421875 234.492188 151.480469 234.816406 C 152.464844 234.296875 153.453125 233.835938 154.414062 233.429688 C 156.503906 232.542969 158.699219 231.804688 160.953125 231.195312 C 159.511719 226.535156 156.898438 222.707031 153.46875 219.792969 Z M 146.652344 237.980469 C 146.378906 237.136719 146.0625 236.292969 145.691406 235.457031 C 143.621094 230.789062 140.40625 227.1875 136.460938 224.691406 C 134.46875 231.503906 135.714844 241.441406 141.234375 246.433594 C 141.328125 246.050781 141.421875 245.675781 141.527344 245.300781 C 142.339844 242.371094 144.28125 239.847656 146.652344 237.980469 Z M 138.113281 221.148438 C 141.863281 223.449219 144.933594 226.515625 147.21875 230.125 C 147.246094 225.78125 148.261719 221.484375 150.292969 217.492188 C 148.195312 216.203125 145.894531 215.1875 143.4375 214.460938 C 141.292969 216.363281 139.5 218.660156 138.113281 221.148438 Z M 159.238281 206.832031 C 156.414062 209.03125 154.097656 211.5 152.273438 214.152344 C 150.679688 213.175781 148.957031 212.320312 147.105469 211.609375 C 150.195312 209.566406 155.949219 207.476562 159.238281 206.832031 Z M 163.367188 226.679688 C 163.996094 222.382812 165.597656 218.269531 168.160156 214.597656 C 166.074219 212.871094 163.6875 211.433594 161.074219 210.320312 C 158.871094 212.113281 156.972656 214.152344 155.4375 216.390625 C 158.910156 219.210938 161.578125 222.726562 163.367188 226.679688 Z M 182.984375 228.90625 C 183.851562 224.410156 185.84375 220.507812 188.683594 217.320312 C 191.101562 220.953125 192.546875 225.195312 192.734375 229.894531 C 189.476562 229.347656 186.1875 229.03125 182.984375 228.90625 Z M 206.203125 219.792969 C 208.230469 224.011719 209.058594 228.773438 208.347656 233.832031 C 208.300781 234.160156 208.25 234.492188 208.191406 234.816406 C 207.207031 234.296875 206.21875 233.835938 205.257812 233.429688 C 203.167969 232.542969 200.972656 231.804688 198.71875 231.195312 C 200.160156 226.535156 202.773438 222.707031 206.203125 219.792969 Z M 213.019531 237.980469 C 213.289062 237.136719 213.613281 236.292969 213.984375 235.457031 C 216.050781 230.789062 219.265625 227.1875 223.210938 224.691406 C 225.207031 231.503906 223.957031 241.441406 218.4375 246.433594 C 218.34375 246.050781 218.25 245.675781 218.144531 245.300781 C 217.332031 242.371094 215.390625 239.847656 213.019531 237.980469 Z M 221.558594 221.148438 C 217.808594 223.449219 214.738281 226.515625 212.457031 230.125 C 212.425781 225.78125 211.410156 221.484375 209.382812 217.492188 C 211.476562 216.203125 213.777344 215.1875 216.238281 214.460938 C 218.378906 216.363281 220.167969 218.660156 221.558594 221.148438 Z M 200.433594 206.832031 C 203.261719 209.03125 205.578125 211.5 207.398438 214.152344 C 208.992188 213.175781 210.71875 212.320312 212.566406 211.609375 C 209.480469 209.566406 203.726562 207.476562 200.433594 206.832031 Z M 196.304688 226.679688 C 195.675781 222.382812 194.074219 218.269531 191.511719 214.597656 C 193.597656 212.871094 195.984375 211.433594 198.59375 210.320312 C 200.800781 212.113281 202.699219 214.152344 204.234375 216.390625 C 200.761719 219.210938 198.09375 222.726562 196.304688 226.679688 Z M 179.835938 209 C 182.265625 210.46875 184.429688 212.226562 186.261719 214.226562 C 183.210938 217.507812 181.054688 221.355469 179.835938 225.523438 C 178.613281 221.355469 176.460938 217.507812 173.414062 214.226562 C 175.242188 212.226562 177.402344 210.46875 179.835938 209 Z M 176.882812 190.757812 L 182.789062 190.757812 C 183.015625 206.089844 186.546875 203.550781 197.808594 206.445312 C 194.480469 207.78125 191.566406 209.519531 189.082031 211.566406 C 186.445312 208.898438 183.238281 206.355469 179.835938 204.3125 C 176.433594 206.355469 173.226562 208.898438 170.589844 211.566406 C 168.105469 209.519531 165.191406 207.78125 161.863281 206.445312 C 173.125 203.550781 176.65625 206.089844 176.882812 190.757812 " fill-opacity="1" fill-rule="evenodd"/></g></svg>