<svg xmlns="http://www.w3.org/2000/svg" xmlns:xlink="http://www.w3.org/1999/xlink" width="480" zoomAndPan="magnify" viewBox="0 0 360 503.999982" height="672" preserveAspectRatio="xMidYMid meet" version="1.0"><defs><filter x="0%" y="0%" width="100%" height="100%" id="1463ac4e6d"><feColorMatrix values="0 0 0 0 1 0 0 0 0 1 0 0 0 0 1 0 0 0 1 0" color-interpolation-filters="sRGB"/></filter><g/><mask id="39dac11850"><g filter="url(#1463ac4e6d)"><rect x="-36" width="432" fill="#000000" y="-50.399998" height="604.799979" fill-opacity="0.1373"/></g></mask><clipPath id="6a1607463d"><path d="M 0 0 L 1 0 L 1 432.847656 L 0 432.847656 Z M 0 0 " clip-rule="nonzero"/></clipPath><clipPath id="a2e8bf3f2d"><path d="M 0 0 L 18 0 L 18 432.847656 L 0 432.847656 Z M 0 0 " clip-rule="nonzero"/></clipPath><clipPath id="4889727773"><path d="M 0 0 L 35 0 L 35 432.847656 L 0 432.847656 Z M 0 0 " clip-rule="nonzero"/></clipPath><clipPath id="dc58a8cecc"><path d="M 0 0 L 53 0 L 53 432.847656 L 0 432.847656 Z M 0 0 " clip-rule="nonzero"/></clipPath><clipPath id="41edfcfac9"><path d="M 0 0 L 70 0 L 70 432.847656 L 0 432.847656 Z M 0 0 " clip-rule="nonzero"/></clipPath><clipPath id="4b00c422cd"><path d="M 0 0 L 88 0 L 88 432.847656 L 0 432.847656 Z M 0 0 " clip-rule="nonzero"/></clipPath><clipPath id="144f3f3b7b"><path d="M 0 0 L 105 0 L 105 432.847656 L 0 432.847656 Z M 0 0 " clip-rule="nonzero"/></clipPath><clipPath id="9597acd09e"><path d="M 0 0 L 122 0 L 122 432.847656 L 0 432.847656 Z M 0 0 " clip-rule="nonzero"/></clipPath><clipPath id="35376e0840"><path d="M 0 0 L 140 0 L 140 432.847656 L 0 432.847656 Z M 0 0 " clip-rule="nonzero"/></clipPath><clipPath id="c363f5a174"><path d="M 0 0 L 157 0 L 157 432.847656 L 0 432.847656 Z M 0 0 " clip-rule="nonzero"/></clipPath><clipPath id="78271ed1cc"><path d="M 0 0 L 175 0 L 175 432.847656 L 0 432.847656 Z M 0 0 " clip-rule="nonzero"/></clipPath><clipPath id="392ebb7656"><path d="M 0 0 L 192 0 L 192 432.847656 L 0 432.847656 Z M 0 0 " clip-rule="nonzero"/></clipPath><clipPath id="dbb9254916"><path d="M 0 0 L 208.722656 0 L 208.722656 432.847656 L 0 432.847656 Z M 0 0 " clip-rule="nonzero"/></clipPath><clipPath id="6933b6826e"><rect x="0" width="209" y="0" height="434"/></clipPath><mask id="0f6861501d"><g filter="url(#1463ac4e6d)"><rect x="-36" width="432" fill="#000000" y="-50.399998" height="604.799979" fill-opacity="0.1373"/></g></mask><clipPath id="6353f659d0"><path d="M 0.222656 1 L 122 1 L 122 501.648438 L 0.222656 501.648438 Z M 0.222656 1 " clip-rule="nonzero"/></clipPath><clipPath id="187f1f955e"><path d="M 17 1 L 122 1 L 122 501.648438 L 17 501.648438 Z M 17 1 " clip-rule="nonzero"/></clipPath><clipPath id="8b7973010c"><path d="M 35 1 L 122 1 L 122 501.648438 L 35 501.648438 Z M 35 1 " clip-rule="nonzero"/></clipPath><clipPath id="f2c04af8a4"><path d="M 52 1 L 122 1 L 122 501.648438 L 52 501.648438 Z M 52 1 " clip-rule="nonzero"/></clipPath><clipPath id="3ae08f1f7d"><path d="M 70 1 L 122 1 L 122 501.648438 L 70 501.648438 Z M 70 1 " clip-rule="nonzero"/></clipPath><clipPath id="270022e560"><path d="M 87 1 L 122 1 L 122 501.648438 L 87 501.648438 Z M 87 1 " clip-rule="nonzero"/></clipPath><clipPath id="a255e1b9f3"><path d="M 104 1 L 122 1 L 122 501.648438 L 104 501.648438 Z M 104 1 " clip-rule="nonzero"/></clipPath><clipPath id="1feb4dbfe1"><rect x="0" width="122" y="0" height="502"/></clipPath><mask id="0322ba6821"><g filter="url(#1463ac4e6d)"><rect x="-36" width="432" fill="#000000" y="-50.399998" height="604.799979" fill-opacity="0.1373"/></g></mask><clipPath id="7713fa08aa"><path d="M 0 1 L 197 1 L 197 501.648438 L 0 501.648438 Z M 0 1 " clip-rule="nonzero"/></clipPath><clipPath id="271d45b65a"><path d="M 0 1 L 214 1 L 214 501.648438 L 0 501.648438 Z M 0 1 " clip-rule="nonzero"/></clipPath><clipPath id="d84d20e505"><path d="M 12 1 L 232 1 L 232 501.648438 L 12 501.648438 Z M 12 1 " clip-rule="nonzero"/></clipPath><clipPath id="2b2d7dde38"><path d="M 29 1 L 249 1 L 249 501.648438 L 29 501.648438 Z M 29 1 " clip-rule="nonzero"/></clipPath><clipPath id="ac1159e639"><path d="M 47 1 L 267 1 L 267 501.648438 L 47 501.648438 Z M 47 1 " clip-rule="nonzero"/></clipPath><clipPath id="bfa04763df"><path d="M 64 1 L 284 1 L 284 501.648438 L 64 501.648438 Z M 64 1 " clip-rule="nonzero"/></clipPath><clipPath id="89f492edfc"><path d="M 81 1 L 301 1 L 301 501.648438 L 81 501.648438 Z M 81 1 " clip-rule="nonzero"/></clipPath><clipPath id="45098977e9"><path d="M 99 1 L 319 1 L 319 501.648438 L 99 501.648438 Z M 99 1 " clip-rule="nonzero"/></clipPath><clipPath id="95e8803771"><path d="M 116 1 L 336 1 L 336 501.648438 L 116 501.648438 Z M 116 1 " clip-rule="nonzero"/></clipPath><clipPath id="357abcda08"><path d="M 134 1 L 354 1 L 354 501.648438 L 134 501.648438 Z M 134 1 " clip-rule="nonzero"/></clipPath><clipPath id="5dfce827f3"><path d="M 151 1 L 360 1 L 360 501.648438 L 151 501.648438 Z M 151 1 " clip-rule="nonzero"/></clipPath><clipPath id="05cbf6027d"><path d="M 168 1 L 360 1 L 360 501.648438 L 168 501.648438 Z M 168 1 " clip-rule="nonzero"/></clipPath><clipPath id="5ea8c15b9e"><path d="M 186 1 L 360 1 L 360 501.648438 L 186 501.648438 Z M 186 1 " clip-rule="nonzero"/></clipPath><clipPath id="6e83899734"><path d="M 203 1 L 360 1 L 360 501.648438 L 203 501.648438 Z M 203 1 " clip-rule="nonzero"/></clipPath><clipPath id="dd2530caea"><path d="M 221 1 L 360 1 L 360 501.648438 L 221 501.648438 Z M 221 1 " clip-rule="nonzero"/></clipPath><clipPath id="88e54ac8ef"><rect x="0" width="360" y="0" height="502"/></clipPath><clipPath id="54c12e75e3"><path d="M 28.015625 36 L 331.765625 36 L 331.765625 468 L 28.015625 468 Z M 28.015625 36 " clip-rule="nonzero"/></clipPath><clipPath id="a08ddb6bde"><path d="M 163.050781 131.824219 L 197.066406 131.824219 L 197.066406 173.652344 L 163.050781 173.652344 Z M 163.050781 131.824219 " clip-rule="nonzero"/></clipPath><clipPath id="416a4957ab"><path d="M 159.058594 112.90625 L 201 112.90625 L 201 139 L 159.058594 139 Z M 159.058594 112.90625 " clip-rule="nonzero"/></clipPath><clipPath id="fbbb205424"><path d="M 231.464844 216.699219 L 265.476562 216.699219 L 265.476562 258.53125 L 231.464844 258.53125 Z M 231.464844 216.699219 " clip-rule="nonzero"/></clipPath><clipPath id="6b0e5eecbf"><path d="M 227.46875 197.78125 L 269 197.78125 L 269 224 L 227.46875 224 Z M 227.46875 197.78125 " clip-rule="nonzero"/></clipPath><clipPath id="d20012f5a2"><path d="M 231.464844 305.015625 L 265.476562 305.015625 L 265.476562 346.847656 L 231.464844 346.847656 Z M 231.464844 305.015625 " clip-rule="nonzero"/></clipPath><clipPath id="1a5c3f5a39"><path d="M 227.46875 286.097656 L 269 286.097656 L 269 312 L 227.46875 312 Z M 227.46875 286.097656 " clip-rule="nonzero"/></clipPath><clipPath id="918d8b3418"><path d="M 231.464844 397.324219 L 265.476562 397.324219 L 265.476562 439.15625 L 231.464844 439.15625 Z M 231.464844 397.324219 " clip-rule="nonzero"/></clipPath><clipPath id="01b3a8c5e6"><path d="M 227.46875 378.40625 L 269 378.40625 L 269 405 L 227.46875 405 Z M 227.46875 378.40625 " clip-rule="nonzero"/></clipPath><clipPath id="5b67a6845a"><path d="M 94.863281 216.699219 L 128.875 216.699219 L 128.875 258.53125 L 94.863281 258.53125 Z M 94.863281 216.699219 " clip-rule="nonzero"/></clipPath><clipPath id="c135b3eae3"><path d="M 91 197.78125 L 132.867188 197.78125 L 132.867188 224 L 91 224 Z M 91 197.78125 " clip-rule="nonzero"/></clipPath><clipPath id="f6f9819d38"><path d="M 94.863281 305.015625 L 128.875 305.015625 L 128.875 346.847656 L 94.863281 346.847656 Z M 94.863281 305.015625 " clip-rule="nonzero"/></clipPath><clipPath id="5d43e64cba"><path d="M 91 286.097656 L 132.867188 286.097656 L 132.867188 312 L 91 312 Z M 91 286.097656 " clip-rule="nonzero"/></clipPath><clipPath id="cb0ceceefb"><path d="M 94.863281 397.324219 L 128.875 397.324219 L 128.875 439.15625 L 94.863281 439.15625 Z M 94.863281 397.324219 " clip-rule="nonzero"/></clipPath><clipPath id="795041f550"><path d="M 91 378.40625 L 132.867188 378.40625 L 132.867188 405 L 91 405 Z M 91 378.40625 " clip-rule="nonzero"/></clipPath></defs><rect x="-36" width="432" fill="#ffffff" y="-50.399998" height="604.799979" fill-opacity="1"/><rect x="-36" width="432" fill="#ffffff" y="-50.399998" height="604.799979" fill-opacity="1"/><rect x="-36" width="432" fill="#323232" y="-50.399998" height="604.799979" fill-opacity="1"/><g mask="url(#39dac11850)"><g transform="matrix(1, 0, 0, 1, 0, 0)"><g clip-path="url(#6933b6826e)"><g clip-path="url(#6a1607463d)"><path fill="#000000" d="M -217.589844 432.296875 L -219.066406 431.664062 L -1.417969 -67.574219 L 0.0507812 -66.9375 Z M -217.589844 432.296875 " fill-opacity="1" fill-rule="nonzero"/></g><g clip-path="url(#a2e8bf3f2d)"><path fill="#000000" d="M -200.175781 432.296875 L -201.652344 431.664062 L 15.992188 -67.574219 L 17.460938 -66.9375 Z M -200.175781 432.296875 " fill-opacity="1" fill-rule="nonzero"/></g><g clip-path="url(#4889727773)"><path fill="#000000" d="M -182.765625 432.296875 L -184.242188 431.664062 L 33.40625 -67.574219 L 34.875 -66.9375 Z M -182.765625 432.296875 " fill-opacity="1" fill-rule="nonzero"/></g><g clip-path="url(#dc58a8cecc)"><path fill="#000000" d="M -165.359375 432.296875 L -166.828125 431.664062 L 50.816406 -67.574219 L 52.289062 -66.9375 Z M -165.359375 432.296875 " fill-opacity="1" fill-rule="nonzero"/></g><g clip-path="url(#41edfcfac9)"><path fill="#000000" d="M -147.945312 432.296875 L -149.421875 431.664062 L 68.222656 -67.574219 L 69.699219 -66.9375 Z M -147.945312 432.296875 " fill-opacity="1" fill-rule="nonzero"/></g><g clip-path="url(#4b00c422cd)"><path fill="#000000" d="M -130.535156 432.296875 L -132.011719 431.664062 L 85.636719 -67.574219 L 87.113281 -66.9375 Z M -130.535156 432.296875 " fill-opacity="1" fill-rule="nonzero"/></g><g clip-path="url(#144f3f3b7b)"><path fill="#000000" d="M -113.121094 432.296875 L -114.597656 431.664062 L 103.050781 -67.574219 L 104.523438 -66.9375 Z M -113.121094 432.296875 " fill-opacity="1" fill-rule="nonzero"/></g><g clip-path="url(#9597acd09e)"><path fill="#000000" d="M -95.707031 432.296875 L -97.183594 431.664062 L 120.460938 -67.574219 L 121.929688 -66.9375 Z M -95.707031 432.296875 " fill-opacity="1" fill-rule="nonzero"/></g><g clip-path="url(#35376e0840)"><path fill="#000000" d="M -78.304688 432.296875 L -79.773438 431.664062 L 137.875 -67.574219 L 139.34375 -66.9375 Z M -78.304688 432.296875 " fill-opacity="1" fill-rule="nonzero"/></g><g clip-path="url(#c363f5a174)"><path fill="#000000" d="M -60.890625 432.296875 L -62.359375 431.664062 L 155.28125 -67.574219 L 156.757812 -66.9375 Z M -60.890625 432.296875 " fill-opacity="1" fill-rule="nonzero"/></g><g clip-path="url(#78271ed1cc)"><path fill="#000000" d="M -43.476562 432.296875 L -44.949219 431.664062 L 172.691406 -67.574219 L 174.167969 -66.9375 Z M -43.476562 432.296875 " fill-opacity="1" fill-rule="nonzero"/></g><g clip-path="url(#392ebb7656)"><path fill="#000000" d="M -26.066406 432.296875 L -27.535156 431.664062 L 190.105469 -67.574219 L 191.582031 -66.9375 Z M -26.066406 432.296875 " fill-opacity="1" fill-rule="nonzero"/></g><g clip-path="url(#dbb9254916)"><path fill="#000000" d="M -8.652344 432.296875 L -10.128906 431.664062 L 207.515625 -67.574219 L 208.992188 -66.9375 Z M -8.652344 432.296875 " fill-opacity="1" fill-rule="nonzero"/></g></g></g></g><g mask="url(#0f6861501d)"><g transform="matrix(1, 0, 0, 1, 238, 2)"><g clip-path="url(#1feb4dbfe1)"><g clip-path="url(#6353f659d0)"><path fill="#000000" d="M 1.832031 501.097656 L 0.363281 500.460938 L 218.003906 1.226562 L 219.480469 1.859375 Z M 1.832031 501.097656 " fill-opacity="1" fill-rule="nonzero"/></g><g clip-path="url(#187f1f955e)"><path fill="#000000" d="M 19.246094 501.097656 L 17.769531 500.460938 L 235.414062 1.226562 L 236.890625 1.859375 Z M 19.246094 501.097656 " fill-opacity="1" fill-rule="nonzero"/></g><g clip-path="url(#8b7973010c)"><path fill="#000000" d="M 36.65625 501.097656 L 35.183594 500.460938 L 252.828125 1.226562 L 254.296875 1.859375 Z M 36.65625 501.097656 " fill-opacity="1" fill-rule="nonzero"/></g><g clip-path="url(#f2c04af8a4)"><path fill="#000000" d="M 54.070312 501.097656 L 52.59375 500.460938 L 270.242188 1.226562 L 271.710938 1.859375 Z M 54.070312 501.097656 " fill-opacity="1" fill-rule="nonzero"/></g><g clip-path="url(#3ae08f1f7d)"><path fill="#000000" d="M 71.484375 501.097656 L 70.007812 500.460938 L 287.652344 1.226562 L 289.125 1.859375 Z M 71.484375 501.097656 " fill-opacity="1" fill-rule="nonzero"/></g><g clip-path="url(#270022e560)"><path fill="#000000" d="M 88.890625 501.097656 L 87.417969 500.460938 L 305.066406 1.226562 L 306.535156 1.859375 Z M 88.890625 501.097656 " fill-opacity="1" fill-rule="nonzero"/></g><g clip-path="url(#a255e1b9f3)"><path fill="#000000" d="M 106.300781 501.097656 L 104.824219 500.460938 L 322.472656 1.226562 L 323.949219 1.859375 Z M 106.300781 501.097656 " fill-opacity="1" fill-rule="nonzero"/></g></g></g></g><g mask="url(#0322ba6821)"><g transform="matrix(1, 0, 0, 1, 0, 2)"><g clip-path="url(#88e54ac8ef)"><g clip-path="url(#7713fa08aa)"><path fill="#000000" d="M -21.167969 501.097656 L -22.636719 500.460938 L 195.003906 1.226562 L 196.480469 1.859375 Z M -21.167969 501.097656 " fill-opacity="1" fill-rule="nonzero"/></g><g clip-path="url(#271d45b65a)"><path fill="#000000" d="M -3.753906 501.097656 L -5.230469 500.460938 L 212.414062 1.226562 L 213.890625 1.859375 Z M -3.753906 501.097656 " fill-opacity="1" fill-rule="nonzero"/></g><g clip-path="url(#d84d20e505)"><path fill="#000000" d="M 13.65625 501.097656 L 12.183594 500.460938 L 229.828125 1.226562 L 231.296875 1.859375 Z M 13.65625 501.097656 " fill-opacity="1" fill-rule="nonzero"/></g><g clip-path="url(#2b2d7dde38)"><path fill="#000000" d="M 31.070312 501.097656 L 29.59375 500.460938 L 247.242188 1.226562 L 248.710938 1.859375 Z M 31.070312 501.097656 " fill-opacity="1" fill-rule="nonzero"/></g><g clip-path="url(#ac1159e639)"><path fill="#000000" d="M 48.484375 501.097656 L 47.007812 500.460938 L 264.652344 1.226562 L 266.125 1.859375 Z M 48.484375 501.097656 " fill-opacity="1" fill-rule="nonzero"/></g><g clip-path="url(#bfa04763df)"><path fill="#000000" d="M 65.890625 501.097656 L 64.417969 500.460938 L 282.066406 1.226562 L 283.535156 1.859375 Z M 65.890625 501.097656 " fill-opacity="1" fill-rule="nonzero"/></g><g clip-path="url(#89f492edfc)"><path fill="#000000" d="M 83.300781 501.097656 L 81.824219 500.460938 L 299.472656 1.226562 L 300.949219 1.859375 Z M 83.300781 501.097656 " fill-opacity="1" fill-rule="nonzero"/></g><g clip-path="url(#45098977e9)"><path fill="#000000" d="M 100.714844 501.097656 L 99.238281 500.460938 L 316.882812 1.226562 L 318.359375 1.859375 Z M 100.714844 501.097656 " fill-opacity="1" fill-rule="nonzero"/></g><g clip-path="url(#95e8803771)"><path fill="#000000" d="M 118.125 501.097656 L 116.652344 500.460938 L 334.296875 1.226562 L 335.773438 1.859375 Z M 118.125 501.097656 " fill-opacity="1" fill-rule="nonzero"/></g><g clip-path="url(#357abcda08)"><path fill="#000000" d="M 135.539062 501.097656 L 134.0625 500.460938 L 351.710938 1.226562 L 353.179688 1.859375 Z M 135.539062 501.097656 " fill-opacity="1" fill-rule="nonzero"/></g><g clip-path="url(#5dfce827f3)"><path fill="#000000" d="M 152.945312 501.097656 L 151.476562 500.460938 L 369.121094 1.226562 L 370.589844 1.859375 Z M 152.945312 501.097656 " fill-opacity="1" fill-rule="nonzero"/></g><g clip-path="url(#05cbf6027d)"><path fill="#000000" d="M 170.359375 501.097656 L 168.886719 500.460938 L 386.527344 1.226562 L 388.003906 1.859375 Z M 170.359375 501.097656 " fill-opacity="1" fill-rule="nonzero"/></g><g clip-path="url(#5ea8c15b9e)"><path fill="#000000" d="M 187.769531 501.097656 L 186.300781 500.460938 L 403.941406 1.226562 L 405.417969 1.859375 Z M 187.769531 501.097656 " fill-opacity="1" fill-rule="nonzero"/></g><g clip-path="url(#6e83899734)"><path fill="#000000" d="M 205.183594 501.097656 L 203.710938 500.460938 L 421.351562 1.226562 L 422.828125 1.859375 Z M 205.183594 501.097656 " fill-opacity="1" fill-rule="nonzero"/></g><g clip-path="url(#dd2530caea)"><path fill="#000000" d="M 222.59375 501.097656 L 221.117188 500.460938 L 438.765625 1.226562 L 440.242188 1.859375 Z M 222.59375 501.097656 " fill-opacity="1" fill-rule="nonzero"/></g></g></g></g><g clip-path="url(#54c12e75e3)"><path fill="#ffcf00" d="M 331.601562 467.976562 L 28.1875 467.976562 L 28.1875 36 L 331.601562 36 Z M 29.066406 467.097656 L 330.722656 467.097656 L 330.722656 36.878906 L 29.066406 36.878906 Z M 29.066406 467.097656 " fill-opacity="1" fill-rule="nonzero"/></g><g fill="#ffcf00" fill-opacity="1"><g transform="translate(44.874898, 95.039993)"><g><path d="M 31.484375 -42.847656 L 2.855469 -42.847656 L 2.855469 -40.800781 L 28.441406 -40.800781 L 6.582031 0 L 9.191406 0 L 31.484375 -41.730469 Z M 31.484375 -42.847656 "/></g></g></g><g clip-path="url(#a08ddb6bde)"><path fill="#ffcf00" d="M 165.875 139.6875 C 165.605469 140.945312 165.527344 142.316406 165.515625 143.566406 C 165.5 145.488281 165.660156 147.433594 165.925781 149.332031 C 166.027344 150.023438 166.136719 150.714844 166.265625 151.402344 C 167.089844 155.8125 168.601562 160.339844 171.492188 163.832031 C 172.347656 164.867188 173.34375 165.84375 174.449219 166.609375 C 171.910156 164.148438 170.324219 160.855469 169.335938 157.367188 C 167.589844 151.199219 167.4375 143.726562 168.367188 137.4375 C 167.28125 137.8125 166.128906 138.496094 165.875 139.6875 Z M 181.515625 171.804688 C 181.777344 170.921875 181.9375 170.761719 182.851562 170.535156 C 184.894531 170.03125 186.875 168.964844 188.652344 167.339844 C 193.042969 163.320312 195.1875 157.566406 196.253906 151.847656 C 197.152344 147.039062 197.382812 141.777344 196.4375 138.382812 C 195.4375 134.804688 188.886719 132.011719 180.828125 131.84375 C 180.574219 131.839844 180.316406 131.835938 180.058594 131.835938 C 179.800781 131.835938 179.542969 131.839844 179.289062 131.84375 C 171.230469 132.011719 164.679688 134.804688 163.679688 138.382812 C 162.734375 141.777344 162.964844 147.039062 163.863281 151.847656 C 164.929688 157.566406 167.074219 163.320312 171.46875 167.339844 C 173.242188 168.964844 175.222656 170.03125 177.265625 170.535156 C 178.179688 170.761719 178.339844 170.921875 178.601562 171.804688 C 179.332031 174.269531 180.785156 174.269531 181.515625 171.804688 " fill-opacity="1" fill-rule="evenodd"/></g><g clip-path="url(#416a4957ab)"><path fill="#ffcf00" d="M 178.601562 130.460938 C 178.199219 128.390625 177.277344 126.597656 175.964844 125.128906 C 174.84375 126.800781 174.175781 128.753906 174.089844 130.914062 C 175.597656 130.664062 177.121094 130.519531 178.601562 130.460938 Z M 167.855469 126.265625 C 166.914062 128.207031 166.535156 130.398438 166.863281 132.726562 C 166.882812 132.878906 166.90625 133.03125 166.933594 133.179688 C 167.390625 132.941406 167.847656 132.730469 168.289062 132.542969 C 169.257812 132.136719 170.277344 131.792969 171.316406 131.515625 C 170.648438 129.367188 169.441406 127.605469 167.855469 126.265625 Z M 164.699219 134.636719 C 164.574219 134.246094 164.425781 133.859375 164.253906 133.472656 C 163.296875 131.328125 161.808594 129.671875 159.980469 128.519531 C 159.058594 131.65625 159.636719 136.230469 162.191406 138.527344 C 162.234375 138.351562 162.277344 138.179688 162.328125 138.007812 C 162.703125 136.65625 163.601562 135.496094 164.699219 134.636719 Z M 160.746094 126.890625 C 162.484375 127.949219 163.902344 129.359375 164.960938 131.023438 C 164.972656 129.023438 165.441406 127.042969 166.382812 125.207031 C 165.414062 124.613281 164.347656 124.148438 163.210938 123.8125 C 162.21875 124.6875 161.390625 125.746094 160.746094 126.890625 Z M 170.523438 120.300781 C 169.21875 121.3125 168.144531 122.449219 167.300781 123.671875 C 166.5625 123.21875 165.765625 122.828125 164.910156 122.5 C 166.339844 121.558594 169 120.597656 170.523438 120.300781 Z M 172.433594 129.4375 C 172.726562 127.457031 173.46875 125.566406 174.65625 123.875 C 173.6875 123.082031 172.585938 122.421875 171.375 121.90625 C 170.355469 122.730469 169.476562 123.671875 168.765625 124.699219 C 170.371094 126 171.609375 127.617188 172.433594 129.4375 Z M 181.515625 130.460938 C 181.917969 128.390625 182.839844 126.597656 184.152344 125.128906 C 185.273438 126.800781 185.941406 128.753906 186.027344 130.914062 C 184.519531 130.664062 183 130.519531 181.515625 130.460938 Z M 192.261719 126.265625 C 193.203125 128.207031 193.585938 130.398438 193.253906 132.726562 C 193.234375 132.878906 193.210938 133.03125 193.183594 133.179688 C 192.726562 132.941406 192.269531 132.730469 191.828125 132.542969 C 190.859375 132.136719 189.84375 131.792969 188.800781 131.515625 C 189.464844 129.367188 190.675781 127.605469 192.261719 126.265625 Z M 195.417969 134.636719 C 195.542969 134.246094 195.691406 133.859375 195.863281 133.472656 C 196.820312 131.328125 198.308594 129.671875 200.136719 128.519531 C 201.058594 131.65625 200.480469 136.230469 197.925781 138.527344 C 197.882812 138.351562 197.839844 138.179688 197.789062 138.007812 C 197.414062 136.65625 196.515625 135.496094 195.417969 134.636719 Z M 199.371094 126.890625 C 197.632812 127.949219 196.214844 129.359375 195.15625 131.023438 C 195.144531 129.023438 194.671875 127.042969 193.734375 125.207031 C 194.703125 124.613281 195.769531 124.148438 196.90625 123.8125 C 197.898438 124.6875 198.726562 125.746094 199.371094 126.890625 Z M 189.59375 120.300781 C 190.902344 121.3125 191.972656 122.449219 192.816406 123.671875 C 193.554688 123.21875 194.351562 122.828125 195.207031 122.5 C 193.78125 121.558594 191.117188 120.597656 189.59375 120.300781 Z M 187.683594 129.4375 C 187.390625 127.457031 186.648438 125.566406 185.460938 123.875 C 186.429688 123.082031 187.53125 122.421875 188.742188 121.90625 C 189.761719 122.730469 190.640625 123.671875 191.351562 124.699219 C 189.746094 126 188.511719 127.617188 187.683594 129.4375 Z M 180.058594 121.300781 C 181.183594 121.976562 182.183594 122.785156 183.03125 123.703125 C 181.621094 125.214844 180.625 126.988281 180.058594 128.902344 C 179.492188 126.988281 178.496094 125.214844 177.085938 123.703125 C 177.929688 122.785156 178.933594 121.976562 180.058594 121.300781 Z M 178.691406 112.90625 L 181.425781 112.90625 C 181.53125 119.960938 183.164062 118.792969 188.378906 120.125 C 186.835938 120.738281 185.488281 121.539062 184.339844 122.480469 C 183.117188 121.253906 181.632812 120.082031 180.058594 119.144531 C 178.484375 120.082031 177 121.253906 175.777344 122.480469 C 174.628906 121.539062 173.28125 120.738281 171.738281 120.125 C 176.953125 118.792969 178.585938 119.960938 178.691406 112.90625 " fill-opacity="1" fill-rule="evenodd"/></g><g clip-path="url(#fbbb205424)"><path fill="#ffcf00" d="M 234.285156 224.566406 C 234.019531 225.824219 233.9375 227.195312 233.925781 228.445312 C 233.914062 230.363281 234.074219 232.308594 234.339844 234.210938 C 234.4375 234.902344 234.550781 235.59375 234.679688 236.28125 C 235.5 240.691406 237.011719 245.21875 239.90625 248.710938 C 240.761719 249.742188 241.757812 250.722656 242.863281 251.488281 C 240.320312 249.027344 238.734375 245.734375 237.746094 242.246094 C 236 236.078125 235.847656 228.601562 236.78125 222.316406 C 235.691406 222.691406 234.542969 223.375 234.285156 224.566406 Z M 249.929688 256.679688 C 250.191406 255.796875 250.347656 255.636719 251.261719 255.410156 C 253.308594 254.90625 255.289062 253.84375 257.0625 252.21875 C 261.457031 248.199219 263.597656 242.445312 264.664062 236.726562 C 265.5625 231.914062 265.796875 226.65625 264.847656 223.261719 C 263.851562 219.683594 257.296875 216.890625 249.242188 216.722656 C 248.984375 216.71875 248.726562 216.714844 248.472656 216.714844 C 248.214844 216.714844 247.957031 216.71875 247.699219 216.722656 C 239.640625 216.890625 233.09375 219.683594 232.09375 223.261719 C 231.144531 226.65625 231.378906 231.914062 232.273438 236.726562 C 233.34375 242.445312 235.484375 248.199219 239.878906 252.21875 C 241.652344 253.84375 243.632812 254.90625 245.679688 255.410156 C 246.589844 255.636719 246.75 255.796875 247.011719 256.679688 C 247.742188 259.148438 249.195312 259.148438 249.929688 256.679688 " fill-opacity="1" fill-rule="evenodd"/></g><g clip-path="url(#6b0e5eecbf)"><path fill="#ffcf00" d="M 247.011719 215.339844 C 246.613281 213.269531 245.6875 211.472656 244.375 210.003906 C 243.257812 211.679688 242.585938 213.628906 242.5 215.792969 C 244.007812 215.542969 245.53125 215.394531 247.011719 215.339844 Z M 236.265625 211.144531 C 235.328125 213.085938 234.945312 215.277344 235.273438 217.605469 C 235.292969 217.757812 235.320312 217.90625 235.34375 218.058594 C 235.800781 217.820312 236.257812 217.605469 236.703125 217.417969 C 237.671875 217.011719 238.6875 216.671875 239.730469 216.390625 C 239.0625 214.246094 237.851562 212.484375 236.265625 211.144531 Z M 233.109375 219.511719 C 232.984375 219.125 232.835938 218.738281 232.664062 218.351562 C 231.707031 216.203125 230.21875 214.546875 228.394531 213.398438 C 227.472656 216.535156 228.046875 221.105469 230.605469 223.40625 C 230.644531 223.226562 230.691406 223.054688 230.738281 222.882812 C 231.113281 221.535156 232.011719 220.375 233.109375 219.511719 Z M 229.15625 211.769531 C 230.894531 212.828125 232.316406 214.238281 233.371094 215.898438 C 233.386719 213.898438 233.855469 211.921875 234.796875 210.085938 C 233.824219 209.492188 232.757812 209.023438 231.621094 208.6875 C 230.628906 209.566406 229.800781 210.621094 229.15625 211.769531 Z M 238.9375 205.179688 C 237.628906 206.191406 236.554688 207.328125 235.710938 208.546875 C 234.976562 208.097656 234.175781 207.703125 233.320312 207.378906 C 234.75 206.4375 237.414062 205.476562 238.9375 205.179688 Z M 240.847656 214.3125 C 241.140625 212.335938 241.878906 210.441406 243.066406 208.753906 C 242.101562 207.957031 240.996094 207.296875 239.785156 206.785156 C 238.765625 207.609375 237.886719 208.546875 237.175781 209.578125 C 238.785156 210.875 240.019531 212.492188 240.847656 214.3125 Z M 249.929688 215.339844 C 250.328125 213.269531 251.25 211.472656 252.566406 210.003906 C 253.683594 211.679688 254.355469 213.628906 254.441406 215.792969 C 252.933594 215.542969 251.410156 215.394531 249.929688 215.339844 Z M 260.675781 211.144531 C 261.613281 213.085938 261.996094 215.277344 261.667969 217.605469 C 261.644531 217.757812 261.621094 217.90625 261.59375 218.058594 C 261.140625 217.820312 260.683594 217.605469 260.238281 217.417969 C 259.269531 217.011719 258.253906 216.671875 257.210938 216.390625 C 257.878906 214.246094 259.085938 212.484375 260.675781 211.144531 Z M 263.828125 219.511719 C 263.957031 219.125 264.105469 218.738281 264.277344 218.351562 C 265.234375 216.203125 266.71875 214.546875 268.546875 213.398438 C 269.472656 216.535156 268.890625 221.105469 266.335938 223.40625 C 266.292969 223.226562 266.25 223.054688 266.203125 222.882812 C 265.824219 221.535156 264.925781 220.375 263.828125 219.511719 Z M 267.78125 211.769531 C 266.046875 212.828125 264.625 214.238281 263.570312 215.898438 C 263.554688 213.898438 263.085938 211.921875 262.144531 210.085938 C 263.113281 209.492188 264.179688 209.023438 265.320312 208.6875 C 266.308594 209.566406 267.140625 210.621094 267.78125 211.769531 Z M 258.003906 205.179688 C 259.3125 206.191406 260.386719 207.328125 261.226562 208.546875 C 261.964844 208.097656 262.765625 207.703125 263.621094 207.378906 C 262.191406 206.4375 259.527344 205.476562 258.003906 205.179688 Z M 256.09375 214.3125 C 255.800781 212.335938 255.058594 210.441406 253.875 208.753906 C 254.839844 207.957031 255.945312 207.296875 257.152344 206.785156 C 258.175781 207.609375 259.054688 208.546875 259.761719 209.578125 C 258.15625 210.875 256.921875 212.492188 256.09375 214.3125 Z M 248.472656 206.175781 C 249.597656 206.855469 250.597656 207.660156 251.445312 208.582031 C 250.03125 210.09375 249.035156 211.863281 248.472656 213.78125 C 247.90625 211.863281 246.90625 210.09375 245.496094 208.582031 C 246.34375 207.660156 247.34375 206.855469 248.472656 206.175781 Z M 247.105469 197.78125 L 249.839844 197.78125 C 249.941406 204.835938 251.578125 203.667969 256.789062 205 C 255.25 205.617188 253.898438 206.414062 252.75 207.359375 C 251.53125 206.128906 250.042969 204.960938 248.472656 204.019531 C 246.894531 204.960938 245.410156 206.128906 244.191406 207.359375 C 243.039062 206.414062 241.691406 205.617188 240.152344 205 C 245.363281 203.667969 246.996094 204.835938 247.105469 197.78125 " fill-opacity="1" fill-rule="evenodd"/></g><g clip-path="url(#d20012f5a2)"><path fill="#ffcf00" d="M 234.285156 312.882812 C 234.019531 314.140625 233.9375 315.511719 233.925781 316.761719 C 233.914062 318.679688 234.074219 320.625 234.339844 322.527344 C 234.4375 323.21875 234.550781 323.910156 234.679688 324.59375 C 235.5 329.007812 237.011719 333.535156 239.90625 337.027344 C 240.761719 338.058594 241.757812 339.039062 242.863281 339.800781 C 240.320312 337.34375 238.734375 334.050781 237.746094 330.5625 C 236 324.394531 235.847656 316.917969 236.78125 310.632812 C 235.691406 311.007812 234.542969 311.6875 234.285156 312.882812 Z M 249.929688 344.996094 C 250.191406 344.113281 250.347656 343.953125 251.261719 343.726562 C 253.308594 343.222656 255.289062 342.15625 257.0625 340.535156 C 261.457031 336.511719 263.597656 330.761719 264.664062 325.042969 C 265.5625 320.230469 265.796875 314.972656 264.847656 311.578125 C 263.851562 308 257.296875 305.207031 249.242188 305.039062 C 248.984375 305.035156 248.726562 305.03125 248.472656 305.03125 C 248.214844 305.03125 247.957031 305.035156 247.699219 305.039062 C 239.640625 305.207031 233.09375 308 232.09375 311.578125 C 231.144531 314.972656 231.378906 320.230469 232.273438 325.042969 C 233.34375 330.761719 235.484375 336.511719 239.878906 340.535156 C 241.652344 342.15625 243.632812 343.222656 245.679688 343.726562 C 246.589844 343.953125 246.75 344.113281 247.011719 344.996094 C 247.742188 347.464844 249.195312 347.464844 249.929688 344.996094 " fill-opacity="1" fill-rule="evenodd"/></g><g clip-path="url(#1a5c3f5a39)"><path fill="#ffcf00" d="M 247.011719 303.65625 C 246.613281 301.585938 245.6875 299.789062 244.375 298.320312 C 243.257812 299.996094 242.585938 301.945312 242.5 304.109375 C 244.007812 303.855469 245.53125 303.710938 247.011719 303.65625 Z M 236.265625 299.460938 C 235.328125 301.402344 234.945312 303.59375 235.273438 305.921875 C 235.292969 306.074219 235.320312 306.222656 235.34375 306.375 C 235.800781 306.136719 236.257812 305.921875 236.703125 305.734375 C 237.671875 305.328125 238.6875 304.988281 239.730469 304.707031 C 239.0625 302.5625 237.851562 300.800781 236.265625 299.460938 Z M 233.109375 307.828125 C 232.984375 307.441406 232.835938 307.054688 232.664062 306.667969 C 231.707031 304.519531 230.21875 302.863281 228.394531 301.714844 C 227.472656 304.851562 228.046875 309.421875 230.605469 311.722656 C 230.644531 311.542969 230.691406 311.371094 230.738281 311.199219 C 231.113281 309.851562 232.011719 308.6875 233.109375 307.828125 Z M 229.15625 300.085938 C 230.894531 301.144531 232.316406 302.554688 233.371094 304.214844 C 233.386719 302.214844 233.855469 300.238281 234.796875 298.402344 C 233.824219 297.808594 232.757812 297.339844 231.621094 297.003906 C 230.628906 297.882812 229.800781 298.9375 229.15625 300.085938 Z M 238.9375 293.496094 C 237.628906 294.507812 236.554688 295.644531 235.710938 296.863281 C 234.976562 296.414062 234.175781 296.019531 233.320312 295.695312 C 234.75 294.753906 237.414062 293.792969 238.9375 293.496094 Z M 240.847656 302.628906 C 241.140625 300.652344 241.878906 298.757812 243.066406 297.070312 C 242.101562 296.273438 240.996094 295.613281 239.785156 295.101562 C 238.765625 295.925781 237.886719 296.863281 237.175781 297.894531 C 238.785156 299.191406 240.019531 300.808594 240.847656 302.628906 Z M 249.929688 303.65625 C 250.328125 301.585938 251.25 299.789062 252.566406 298.320312 C 253.683594 299.996094 254.355469 301.945312 254.441406 304.109375 C 252.933594 303.855469 251.410156 303.710938 249.929688 303.65625 Z M 260.675781 299.460938 C 261.613281 301.402344 261.996094 303.59375 261.667969 305.921875 C 261.644531 306.074219 261.621094 306.222656 261.59375 306.375 C 261.140625 306.136719 260.683594 305.921875 260.238281 305.734375 C 259.269531 305.328125 258.253906 304.988281 257.210938 304.707031 C 257.878906 302.5625 259.085938 300.800781 260.675781 299.460938 Z M 263.828125 307.828125 C 263.957031 307.441406 264.105469 307.054688 264.277344 306.667969 C 265.234375 304.519531 266.71875 302.863281 268.546875 301.714844 C 269.472656 304.851562 268.890625 309.421875 266.335938 311.722656 C 266.292969 311.542969 266.25 311.371094 266.203125 311.199219 C 265.824219 309.851562 264.925781 308.6875 263.828125 307.828125 Z M 267.78125 300.085938 C 266.046875 301.144531 264.625 302.554688 263.570312 304.214844 C 263.554688 302.214844 263.085938 300.238281 262.144531 298.402344 C 263.113281 297.808594 264.179688 297.339844 265.320312 297.003906 C 266.308594 297.882812 267.140625 298.9375 267.78125 300.085938 Z M 258.003906 293.496094 C 259.3125 294.507812 260.386719 295.644531 261.226562 296.863281 C 261.964844 296.414062 262.765625 296.019531 263.621094 295.695312 C 262.191406 294.753906 259.527344 293.792969 258.003906 293.496094 Z M 256.09375 302.628906 C 255.800781 300.652344 255.058594 298.757812 253.875 297.070312 C 254.839844 296.273438 255.945312 295.613281 257.152344 295.101562 C 258.175781 295.925781 259.054688 296.863281 259.761719 297.894531 C 258.15625 299.191406 256.921875 300.808594 256.09375 302.628906 Z M 248.472656 294.492188 C 249.597656 295.167969 250.597656 295.976562 251.445312 296.898438 C 250.03125 298.40625 249.035156 300.179688 248.472656 302.097656 C 247.90625 300.179688 246.90625 298.40625 245.496094 296.898438 C 246.34375 295.976562 247.34375 295.167969 248.472656 294.492188 Z M 247.105469 286.097656 L 249.839844 286.097656 C 249.941406 293.152344 251.578125 291.984375 256.789062 293.316406 C 255.25 293.933594 253.898438 294.730469 252.75 295.675781 C 251.53125 294.445312 250.042969 293.277344 248.472656 292.335938 C 246.894531 293.277344 245.410156 294.445312 244.191406 295.675781 C 243.039062 294.730469 241.691406 293.933594 240.152344 293.316406 C 245.363281 291.984375 246.996094 293.152344 247.105469 286.097656 " fill-opacity="1" fill-rule="evenodd"/></g><g clip-path="url(#918d8b3418)"><path fill="#ffcf00" d="M 234.285156 405.191406 C 234.019531 406.449219 233.9375 407.820312 233.925781 409.070312 C 233.914062 410.992188 234.074219 412.933594 234.339844 414.835938 C 234.4375 415.527344 234.550781 416.21875 234.679688 416.90625 C 235.5 421.316406 237.011719 425.84375 239.90625 429.335938 C 240.761719 430.371094 241.757812 431.347656 242.863281 432.113281 C 240.320312 429.652344 238.734375 426.359375 237.746094 422.871094 C 236 416.703125 235.847656 409.230469 236.78125 402.941406 C 235.691406 403.316406 234.542969 404 234.285156 405.191406 Z M 249.929688 437.304688 C 250.191406 436.421875 250.347656 436.261719 251.261719 436.035156 C 253.308594 435.535156 255.289062 434.46875 257.0625 432.84375 C 261.457031 428.824219 263.597656 423.070312 264.664062 417.351562 C 265.5625 412.542969 265.796875 407.28125 264.847656 403.886719 C 263.851562 400.308594 257.296875 397.515625 249.242188 397.347656 C 248.984375 397.34375 248.726562 397.339844 248.472656 397.339844 C 248.214844 397.339844 247.957031 397.34375 247.699219 397.347656 C 239.640625 397.515625 233.09375 400.308594 232.09375 403.886719 C 231.144531 407.28125 231.378906 412.542969 232.273438 417.351562 C 233.34375 423.070312 235.484375 428.824219 239.878906 432.84375 C 241.652344 434.46875 243.632812 435.535156 245.679688 436.035156 C 246.589844 436.261719 246.75 436.421875 247.011719 437.304688 C 247.742188 439.773438 249.195312 439.773438 249.929688 437.304688 " fill-opacity="1" fill-rule="evenodd"/></g><g clip-path="url(#01b3a8c5e6)"><path fill="#ffcf00" d="M 247.011719 395.964844 C 246.613281 393.894531 245.6875 392.097656 244.375 390.632812 C 243.257812 392.304688 242.585938 394.257812 242.5 396.417969 C 244.007812 396.167969 245.53125 396.023438 247.011719 395.964844 Z M 236.265625 391.769531 C 235.328125 393.710938 234.945312 395.902344 235.273438 398.230469 C 235.292969 398.382812 235.320312 398.535156 235.34375 398.683594 C 235.800781 398.445312 236.257812 398.230469 236.703125 398.042969 C 237.671875 397.636719 238.6875 397.296875 239.730469 397.015625 C 239.0625 394.871094 237.851562 393.109375 236.265625 391.769531 Z M 233.109375 400.136719 C 232.984375 399.75 232.835938 399.363281 232.664062 398.976562 C 231.707031 396.828125 230.21875 395.171875 228.394531 394.023438 C 227.472656 397.160156 228.046875 401.730469 230.605469 404.03125 C 230.644531 403.855469 230.691406 403.679688 230.738281 403.507812 C 231.113281 402.160156 232.011719 401 233.109375 400.136719 Z M 229.15625 392.394531 C 230.894531 393.453125 232.316406 394.863281 233.371094 396.523438 C 233.386719 394.527344 233.855469 392.546875 234.796875 390.710938 C 233.824219 390.117188 232.757812 389.652344 231.621094 389.316406 C 230.628906 390.191406 229.800781 391.246094 229.15625 392.394531 Z M 238.9375 385.804688 C 237.628906 386.816406 236.554688 387.953125 235.710938 389.171875 C 234.976562 388.722656 234.175781 388.328125 233.320312 388.003906 C 234.75 387.0625 237.414062 386.101562 238.9375 385.804688 Z M 240.847656 394.9375 C 241.140625 392.960938 241.878906 391.070312 243.066406 389.378906 C 242.101562 388.582031 240.996094 387.921875 239.785156 387.410156 C 238.765625 388.234375 237.886719 389.171875 237.175781 390.203125 C 238.785156 391.503906 240.019531 393.117188 240.847656 394.9375 Z M 249.929688 395.964844 C 250.328125 393.894531 251.25 392.097656 252.566406 390.632812 C 253.683594 392.304688 254.355469 394.257812 254.441406 396.417969 C 252.933594 396.167969 251.410156 396.023438 249.929688 395.964844 Z M 260.675781 391.769531 C 261.613281 393.710938 261.996094 395.902344 261.667969 398.230469 C 261.644531 398.382812 261.621094 398.535156 261.59375 398.683594 C 261.140625 398.445312 260.683594 398.230469 260.238281 398.042969 C 259.269531 397.636719 258.253906 397.296875 257.210938 397.015625 C 257.878906 394.871094 259.085938 393.109375 260.675781 391.769531 Z M 263.828125 400.136719 C 263.957031 399.75 264.105469 399.363281 264.277344 398.976562 C 265.234375 396.828125 266.71875 395.171875 268.546875 394.023438 C 269.472656 397.160156 268.890625 401.730469 266.335938 404.03125 C 266.292969 403.855469 266.25 403.679688 266.203125 403.507812 C 265.824219 402.160156 264.925781 401 263.828125 400.136719 Z M 267.78125 392.394531 C 266.046875 393.453125 264.625 394.863281 263.570312 396.523438 C 263.554688 394.527344 263.085938 392.546875 262.144531 390.710938 C 263.113281 390.117188 264.179688 389.652344 265.320312 389.316406 C 266.308594 390.191406 267.140625 391.246094 267.78125 392.394531 Z M 258.003906 385.804688 C 259.3125 386.816406 260.386719 387.953125 261.226562 389.171875 C 261.964844 388.722656 262.765625 388.328125 263.621094 388.003906 C 262.191406 387.0625 259.527344 386.101562 258.003906 385.804688 Z M 256.09375 394.9375 C 255.800781 392.960938 255.058594 391.070312 253.875 389.378906 C 254.839844 388.582031 255.945312 387.921875 257.152344 387.410156 C 258.175781 388.234375 259.054688 389.171875 259.761719 390.203125 C 258.15625 391.503906 256.921875 393.117188 256.09375 394.9375 Z M 248.472656 386.800781 C 249.597656 387.480469 250.597656 388.285156 251.445312 389.207031 C 250.03125 390.71875 249.035156 392.488281 248.472656 394.40625 C 247.90625 392.488281 246.90625 390.71875 245.496094 389.207031 C 246.34375 388.285156 247.34375 387.480469 248.472656 386.800781 Z M 247.105469 378.40625 L 249.839844 378.40625 C 249.941406 385.464844 251.578125 384.292969 256.789062 385.628906 C 255.25 386.242188 253.898438 387.039062 252.75 387.984375 C 251.53125 386.753906 250.042969 385.585938 248.472656 384.644531 C 246.894531 385.585938 245.410156 386.753906 244.191406 387.984375 C 243.039062 387.039062 241.691406 386.242188 240.152344 385.628906 C 245.363281 384.292969 246.996094 385.464844 247.105469 378.40625 " fill-opacity="1" fill-rule="evenodd"/></g><g clip-path="url(#5b67a6845a)"><path fill="#ffcf00" d="M 97.683594 224.566406 C 97.417969 225.824219 97.335938 227.195312 97.324219 228.445312 C 97.308594 230.363281 97.472656 232.308594 97.738281 234.210938 C 97.835938 234.902344 97.949219 235.59375 98.074219 236.28125 C 98.898438 240.691406 100.410156 245.21875 103.304688 248.710938 C 104.160156 249.742188 105.15625 250.722656 106.261719 251.488281 C 103.71875 249.027344 102.132812 245.734375 101.144531 242.246094 C 99.398438 236.078125 99.246094 228.601562 100.179688 222.316406 C 99.089844 222.691406 97.941406 223.375 97.683594 224.566406 Z M 113.328125 256.679688 C 113.585938 255.796875 113.746094 255.636719 114.660156 255.410156 C 116.703125 254.90625 118.6875 253.84375 120.460938 252.21875 C 124.855469 248.199219 126.996094 242.445312 128.0625 236.726562 C 128.960938 231.914062 129.191406 226.65625 128.246094 223.261719 C 127.246094 219.683594 120.695312 216.890625 112.640625 216.722656 C 112.382812 216.71875 112.125 216.714844 111.867188 216.714844 C 111.613281 216.714844 111.355469 216.71875 111.097656 216.722656 C 103.039062 216.890625 96.488281 219.683594 95.492188 223.261719 C 94.542969 226.65625 94.777344 231.914062 95.671875 236.726562 C 96.742188 242.445312 98.882812 248.199219 103.277344 252.21875 C 105.050781 253.84375 107.03125 254.90625 109.074219 255.410156 C 109.988281 255.636719 110.148438 255.796875 110.410156 256.679688 C 111.140625 259.148438 112.59375 259.148438 113.328125 256.679688 " fill-opacity="1" fill-rule="evenodd"/></g><g clip-path="url(#c135b3eae3)"><path fill="#ffcf00" d="M 110.410156 215.339844 C 110.011719 213.269531 109.085938 211.472656 107.773438 210.003906 C 106.652344 211.679688 105.984375 213.628906 105.898438 215.792969 C 107.40625 215.542969 108.929688 215.394531 110.410156 215.339844 Z M 99.664062 211.144531 C 98.722656 213.085938 98.34375 215.277344 98.671875 217.605469 C 98.691406 217.757812 98.71875 217.90625 98.742188 218.058594 C 99.199219 217.820312 99.65625 217.605469 100.101562 217.417969 C 101.070312 217.011719 102.085938 216.671875 103.128906 216.390625 C 102.460938 214.246094 101.25 212.484375 99.664062 211.144531 Z M 96.507812 219.511719 C 96.382812 219.125 96.234375 218.738281 96.0625 218.351562 C 95.105469 216.203125 93.617188 214.546875 91.792969 213.398438 C 90.867188 216.535156 91.445312 221.105469 94 223.40625 C 94.042969 223.226562 94.089844 223.054688 94.136719 222.882812 C 94.511719 221.535156 95.410156 220.375 96.507812 219.511719 Z M 92.554688 211.769531 C 94.292969 212.828125 95.710938 214.238281 96.769531 215.898438 C 96.785156 213.898438 97.253906 211.921875 98.191406 210.085938 C 97.222656 209.492188 96.15625 209.023438 95.019531 208.6875 C 94.027344 209.566406 93.199219 210.621094 92.554688 211.769531 Z M 102.332031 205.179688 C 101.027344 206.191406 99.953125 207.328125 99.109375 208.546875 C 98.371094 208.097656 97.574219 207.703125 96.71875 207.378906 C 98.148438 206.4375 100.8125 205.476562 102.332031 205.179688 Z M 104.246094 214.3125 C 104.535156 212.335938 105.277344 210.441406 106.464844 208.753906 C 105.5 207.957031 104.394531 207.296875 103.183594 206.785156 C 102.164062 207.609375 101.285156 208.546875 100.574219 209.578125 C 102.183594 210.875 103.417969 212.492188 104.246094 214.3125 Z M 113.328125 215.339844 C 113.726562 213.269531 114.648438 211.472656 115.964844 210.003906 C 117.082031 211.679688 117.753906 213.628906 117.835938 215.792969 C 116.332031 215.542969 114.808594 215.394531 113.328125 215.339844 Z M 124.074219 211.144531 C 125.011719 213.085938 125.394531 215.277344 125.066406 217.605469 C 125.042969 217.757812 125.019531 217.90625 124.992188 218.058594 C 124.539062 217.820312 124.082031 217.605469 123.636719 217.417969 C 122.667969 217.011719 121.652344 216.671875 120.609375 216.390625 C 121.277344 214.246094 122.484375 212.484375 124.074219 211.144531 Z M 127.226562 219.511719 C 127.351562 219.125 127.503906 218.738281 127.675781 218.351562 C 128.632812 216.203125 130.117188 214.546875 131.945312 213.398438 C 132.867188 216.535156 132.289062 221.105469 129.734375 223.40625 C 129.691406 223.226562 129.648438 223.054688 129.601562 222.882812 C 129.222656 221.535156 128.324219 220.375 127.226562 219.511719 Z M 131.179688 211.769531 C 129.445312 212.828125 128.023438 214.238281 126.96875 215.898438 C 126.953125 213.898438 126.484375 211.921875 125.542969 210.085938 C 126.511719 209.492188 127.578125 209.023438 128.714844 208.6875 C 129.707031 209.566406 130.539062 210.621094 131.179688 211.769531 Z M 121.402344 205.179688 C 122.710938 206.191406 123.785156 207.328125 124.625 208.546875 C 125.363281 208.097656 126.164062 207.703125 127.015625 207.378906 C 125.589844 206.4375 122.925781 205.476562 121.402344 205.179688 Z M 119.492188 214.3125 C 119.199219 212.335938 118.457031 210.441406 117.273438 208.753906 C 118.238281 207.957031 119.34375 207.296875 120.550781 206.785156 C 121.570312 207.609375 122.449219 208.546875 123.160156 209.578125 C 121.554688 210.875 120.320312 212.492188 119.492188 214.3125 Z M 111.867188 206.175781 C 112.992188 206.855469 113.996094 207.660156 114.84375 208.582031 C 113.429688 210.09375 112.433594 211.863281 111.867188 213.78125 C 111.304688 211.863281 110.304688 210.09375 108.894531 208.582031 C 109.742188 207.660156 110.742188 206.855469 111.867188 206.175781 Z M 110.5 197.78125 L 113.234375 197.78125 C 113.339844 204.835938 114.976562 203.667969 120.1875 205 C 118.648438 205.617188 117.296875 206.414062 116.148438 207.359375 C 114.929688 206.128906 113.441406 204.960938 111.867188 204.019531 C 110.292969 204.960938 108.808594 206.128906 107.589844 207.359375 C 106.4375 206.414062 105.089844 205.617188 103.550781 205 C 108.761719 203.667969 110.394531 204.835938 110.5 197.78125 " fill-opacity="1" fill-rule="evenodd"/></g><g clip-path="url(#f6f9819d38)"><path fill="#ffcf00" d="M 97.683594 312.882812 C 97.417969 314.140625 97.335938 315.511719 97.324219 316.761719 C 97.308594 318.679688 97.472656 320.625 97.738281 322.527344 C 97.835938 323.21875 97.949219 323.910156 98.074219 324.59375 C 98.898438 329.007812 100.410156 333.535156 103.304688 337.027344 C 104.160156 338.058594 105.15625 339.039062 106.261719 339.800781 C 103.71875 337.34375 102.132812 334.050781 101.144531 330.5625 C 99.398438 324.394531 99.246094 316.917969 100.179688 310.632812 C 99.089844 311.007812 97.941406 311.6875 97.683594 312.882812 Z M 113.328125 344.996094 C 113.585938 344.113281 113.746094 343.953125 114.660156 343.726562 C 116.703125 343.222656 118.6875 342.15625 120.460938 340.535156 C 124.855469 336.511719 126.996094 330.761719 128.0625 325.042969 C 128.960938 320.230469 129.191406 314.972656 128.246094 311.578125 C 127.246094 308 120.695312 305.207031 112.640625 305.039062 C 112.382812 305.035156 112.125 305.03125 111.867188 305.03125 C 111.613281 305.03125 111.355469 305.035156 111.097656 305.039062 C 103.039062 305.207031 96.488281 308 95.492188 311.578125 C 94.542969 314.972656 94.777344 320.230469 95.671875 325.042969 C 96.742188 330.761719 98.882812 336.511719 103.277344 340.535156 C 105.050781 342.15625 107.03125 343.222656 109.074219 343.726562 C 109.988281 343.953125 110.148438 344.113281 110.410156 344.996094 C 111.140625 347.464844 112.59375 347.464844 113.328125 344.996094 " fill-opacity="1" fill-rule="evenodd"/></g><g clip-path="url(#5d43e64cba)"><path fill="#ffcf00" d="M 110.410156 303.65625 C 110.011719 301.585938 109.085938 299.789062 107.773438 298.320312 C 106.652344 299.996094 105.984375 301.945312 105.898438 304.109375 C 107.40625 303.855469 108.929688 303.710938 110.410156 303.65625 Z M 99.664062 299.460938 C 98.722656 301.402344 98.34375 303.59375 98.671875 305.921875 C 98.691406 306.074219 98.71875 306.222656 98.742188 306.375 C 99.199219 306.136719 99.65625 305.921875 100.101562 305.734375 C 101.070312 305.328125 102.085938 304.988281 103.128906 304.707031 C 102.460938 302.5625 101.25 300.800781 99.664062 299.460938 Z M 96.507812 307.828125 C 96.382812 307.441406 96.234375 307.054688 96.0625 306.667969 C 95.105469 304.519531 93.617188 302.863281 91.792969 301.714844 C 90.867188 304.851562 91.445312 309.421875 94 311.722656 C 94.042969 311.542969 94.089844 311.371094 94.136719 311.199219 C 94.511719 309.851562 95.410156 308.6875 96.507812 307.828125 Z M 92.554688 300.085938 C 94.292969 301.144531 95.710938 302.554688 96.769531 304.214844 C 96.785156 302.214844 97.253906 300.238281 98.191406 298.402344 C 97.222656 297.808594 96.15625 297.339844 95.019531 297.003906 C 94.027344 297.882812 93.199219 298.9375 92.554688 300.085938 Z M 102.332031 293.496094 C 101.027344 294.507812 99.953125 295.644531 99.109375 296.863281 C 98.371094 296.414062 97.574219 296.019531 96.71875 295.695312 C 98.148438 294.753906 100.8125 293.792969 102.332031 293.496094 Z M 104.246094 302.628906 C 104.535156 300.652344 105.277344 298.757812 106.464844 297.070312 C 105.5 296.273438 104.394531 295.613281 103.183594 295.101562 C 102.164062 295.925781 101.285156 296.863281 100.574219 297.894531 C 102.183594 299.191406 103.417969 300.808594 104.246094 302.628906 Z M 113.328125 303.65625 C 113.726562 301.585938 114.648438 299.789062 115.964844 298.320312 C 117.082031 299.996094 117.753906 301.945312 117.835938 304.109375 C 116.332031 303.855469 114.808594 303.710938 113.328125 303.65625 Z M 124.074219 299.460938 C 125.011719 301.402344 125.394531 303.59375 125.066406 305.921875 C 125.042969 306.074219 125.019531 306.222656 124.992188 306.375 C 124.539062 306.136719 124.082031 305.921875 123.636719 305.734375 C 122.667969 305.328125 121.652344 304.988281 120.609375 304.707031 C 121.277344 302.5625 122.484375 300.800781 124.074219 299.460938 Z M 127.226562 307.828125 C 127.351562 307.441406 127.503906 307.054688 127.675781 306.667969 C 128.632812 304.519531 130.117188 302.863281 131.945312 301.714844 C 132.867188 304.851562 132.289062 309.421875 129.734375 311.722656 C 129.691406 311.542969 129.648438 311.371094 129.601562 311.199219 C 129.222656 309.851562 128.324219 308.6875 127.226562 307.828125 Z M 131.179688 300.085938 C 129.445312 301.144531 128.023438 302.554688 126.96875 304.214844 C 126.953125 302.214844 126.484375 300.238281 125.542969 298.402344 C 126.511719 297.808594 127.578125 297.339844 128.714844 297.003906 C 129.707031 297.882812 130.539062 298.9375 131.179688 300.085938 Z M 121.402344 293.496094 C 122.710938 294.507812 123.785156 295.644531 124.625 296.863281 C 125.363281 296.414062 126.164062 296.019531 127.015625 295.695312 C 125.589844 294.753906 122.925781 293.792969 121.402344 293.496094 Z M 119.492188 302.628906 C 119.199219 300.652344 118.457031 298.757812 117.273438 297.070312 C 118.238281 296.273438 119.34375 295.613281 120.550781 295.101562 C 121.570312 295.925781 122.449219 296.863281 123.160156 297.894531 C 121.554688 299.191406 120.320312 300.808594 119.492188 302.628906 Z M 111.867188 294.492188 C 112.992188 295.167969 113.996094 295.976562 114.84375 296.898438 C 113.429688 298.40625 112.433594 300.179688 111.867188 302.097656 C 111.304688 300.179688 110.304688 298.40625 108.894531 296.898438 C 109.742188 295.976562 110.742188 295.167969 111.867188 294.492188 Z M 110.5 286.097656 L 113.234375 286.097656 C 113.339844 293.152344 114.976562 291.984375 120.1875 293.316406 C 118.648438 293.933594 117.296875 294.730469 116.148438 295.675781 C 114.929688 294.445312 113.441406 293.277344 111.867188 292.335938 C 110.292969 293.277344 108.808594 294.445312 107.589844 295.675781 C 106.4375 294.730469 105.089844 293.933594 103.550781 293.316406 C 108.761719 291.984375 110.394531 293.152344 110.5 286.097656 " fill-opacity="1" fill-rule="evenodd"/></g><g clip-path="url(#cb0ceceefb)"><path fill="#ffcf00" d="M 97.683594 405.191406 C 97.417969 406.449219 97.335938 407.820312 97.324219 409.070312 C 97.308594 410.992188 97.472656 412.933594 97.738281 414.835938 C 97.835938 415.527344 97.949219 416.21875 98.074219 416.90625 C 98.898438 421.316406 100.410156 425.84375 103.304688 429.335938 C 104.160156 430.371094 105.15625 431.347656 106.261719 432.113281 C 103.71875 429.652344 102.132812 426.359375 101.144531 422.871094 C 99.398438 416.703125 99.246094 409.230469 100.179688 402.941406 C 99.089844 403.316406 97.941406 404 97.683594 405.191406 Z M 113.328125 437.304688 C 113.585938 436.421875 113.746094 436.261719 114.660156 436.035156 C 116.703125 435.535156 118.6875 434.46875 120.460938 432.84375 C 124.855469 428.824219 126.996094 423.070312 128.0625 417.351562 C 128.960938 412.542969 129.191406 407.28125 128.246094 403.886719 C 127.246094 400.308594 120.695312 397.515625 112.640625 397.347656 C 112.382812 397.34375 112.125 397.339844 111.867188 397.339844 C 111.613281 397.339844 111.355469 397.34375 111.097656 397.347656 C 103.039062 397.515625 96.488281 400.308594 95.492188 403.886719 C 94.542969 407.28125 94.777344 412.542969 95.671875 417.351562 C 96.742188 423.070312 98.882812 428.824219 103.277344 432.84375 C 105.050781 434.46875 107.03125 435.535156 109.074219 436.035156 C 109.988281 436.261719 110.148438 436.421875 110.410156 437.304688 C 111.140625 439.773438 112.59375 439.773438 113.328125 437.304688 " fill-opacity="1" fill-rule="evenodd"/></g><g clip-path="url(#795041f550)"><path fill="#ffcf00" d="M 110.410156 395.964844 C 110.011719 393.894531 109.085938 392.097656 107.773438 390.632812 C 106.652344 392.304688 105.984375 394.257812 105.898438 396.417969 C 107.40625 396.167969 108.929688 396.023438 110.410156 395.964844 Z M 99.664062 391.769531 C 98.722656 393.710938 98.34375 395.902344 98.671875 398.230469 C 98.691406 398.382812 98.71875 398.535156 98.742188 398.683594 C 99.199219 398.445312 99.65625 398.230469 100.101562 398.042969 C 101.070312 397.636719 102.085938 397.296875 103.128906 397.015625 C 102.460938 394.871094 101.25 393.109375 99.664062 391.769531 Z M 96.507812 400.136719 C 96.382812 399.75 96.234375 399.363281 96.0625 398.976562 C 95.105469 396.828125 93.617188 395.171875 91.792969 394.023438 C 90.867188 397.160156 91.445312 401.730469 94 404.03125 C 94.042969 403.855469 94.089844 403.679688 94.136719 403.507812 C 94.511719 402.160156 95.410156 401 96.507812 400.136719 Z M 92.554688 392.394531 C 94.292969 393.453125 95.710938 394.863281 96.769531 396.523438 C 96.785156 394.527344 97.253906 392.546875 98.191406 390.710938 C 97.222656 390.117188 96.15625 389.652344 95.019531 389.316406 C 94.027344 390.191406 93.199219 391.246094 92.554688 392.394531 Z M 102.332031 385.804688 C 101.027344 386.816406 99.953125 387.953125 99.109375 389.171875 C 98.371094 388.722656 97.574219 388.328125 96.71875 388.003906 C 98.148438 387.0625 100.8125 386.101562 102.332031 385.804688 Z M 104.246094 394.9375 C 104.535156 392.960938 105.277344 391.070312 106.464844 389.378906 C 105.5 388.582031 104.394531 387.921875 103.183594 387.410156 C 102.164062 388.234375 101.285156 389.171875 100.574219 390.203125 C 102.183594 391.503906 103.417969 393.117188 104.246094 394.9375 Z M 113.328125 395.964844 C 113.726562 393.894531 114.648438 392.097656 115.964844 390.632812 C 117.082031 392.304688 117.753906 394.257812 117.835938 396.417969 C 116.332031 396.167969 114.808594 396.023438 113.328125 395.964844 Z M 124.074219 391.769531 C 125.011719 393.710938 125.394531 395.902344 125.066406 398.230469 C 125.042969 398.382812 125.019531 398.535156 124.992188 398.683594 C 124.539062 398.445312 124.082031 398.230469 123.636719 398.042969 C 122.667969 397.636719 121.652344 397.296875 120.609375 397.015625 C 121.277344 394.871094 122.484375 393.109375 124.074219 391.769531 Z M 127.226562 400.136719 C 127.351562 399.75 127.503906 399.363281 127.675781 398.976562 C 128.632812 396.828125 130.117188 395.171875 131.945312 394.023438 C 132.867188 397.160156 132.289062 401.730469 129.734375 404.03125 C 129.691406 403.855469 129.648438 403.679688 129.601562 403.507812 C 129.222656 402.160156 128.324219 401 127.226562 400.136719 Z M 131.179688 392.394531 C 129.445312 393.453125 128.023438 394.863281 126.96875 396.523438 C 126.953125 394.527344 126.484375 392.546875 125.542969 390.710938 C 126.511719 390.117188 127.578125 389.652344 128.714844 389.316406 C 129.707031 390.191406 130.539062 391.246094 131.179688 392.394531 Z M 121.402344 385.804688 C 122.710938 386.816406 123.785156 387.953125 124.625 389.171875 C 125.363281 388.722656 126.164062 388.328125 127.015625 388.003906 C 125.589844 387.0625 122.925781 386.101562 121.402344 385.804688 Z M 119.492188 394.9375 C 119.199219 392.960938 118.457031 391.070312 117.273438 389.378906 C 118.238281 388.582031 119.34375 387.921875 120.550781 387.410156 C 121.570312 388.234375 122.449219 389.171875 123.160156 390.203125 C 121.554688 391.503906 120.320312 393.117188 119.492188 394.9375 Z M 111.867188 386.800781 C 112.992188 387.480469 113.996094 388.285156 114.84375 389.207031 C 113.429688 390.71875 112.433594 392.488281 111.867188 394.40625 C 111.304688 392.488281 110.304688 390.71875 108.894531 389.207031 C 109.742188 388.285156 110.742188 387.480469 111.867188 386.800781 Z M 110.5 378.40625 L 113.234375 378.40625 C 113.339844 385.464844 114.976562 384.292969 120.1875 385.628906 C 118.648438 386.242188 117.296875 387.039062 116.148438 387.984375 C 114.929688 386.753906 113.441406 385.585938 111.867188 384.644531 C 110.292969 385.585938 108.808594 386.753906 107.589844 387.984375 C 106.4375 387.039062 105.089844 386.242188 103.550781 385.628906 C 108.761719 384.292969 110.394531 385.464844 110.5 378.40625 " fill-opacity="1" fill-rule="evenodd"/></g></svg>