<svg xmlns="http://www.w3.org/2000/svg" xmlns:xlink="http://www.w3.org/1999/xlink" width="480" zoomAndPan="magnify" viewBox="0 0 360 503.999982" height="672" preserveAspectRatio="xMidYMid meet" version="1.0"><defs><filter x="0%" y="0%" width="100%" height="100%" id="ff03d36e92"><feColorMatrix values="0 0 0 0 1 0 0 0 0 1 0 0 0 0 1 0 0 0 1 0" color-interpolation-filters="sRGB"/></filter><g/><mask id="29cad7a373"><g filter="url(#ff03d36e92)"><rect x="-36" width="432" fill="#000000" y="-50.399998" height="604.799979" fill-opacity="0.1373"/></g></mask><clipPath id="5e751f26dd"><path d="M 0 0 L 1 0 L 1 432.847656 L 0 432.847656 Z M 0 0 " clip-rule="nonzero"/></clipPath><clipPath id="32cf7236a9"><path d="M 0 0 L 18 0 L 18 432.847656 L 0 432.847656 Z M 0 0 " clip-rule="nonzero"/></clipPath><clipPath id="180a4fc1f4"><path d="M 0 0 L 35 0 L 35 432.847656 L 0 432.847656 Z M 0 0 " clip-rule="nonzero"/></clipPath><clipPath id="82dae8ce6d"><path d="M 0 0 L 53 0 L 53 432.847656 L 0 432.847656 Z M 0 0 " clip-rule="nonzero"/></clipPath><clipPath id="5c2af8e7b1"><path d="M 0 0 L 70 0 L 70 432.847656 L 0 432.847656 Z M 0 0 " clip-rule="nonzero"/></clipPath><clipPath id="3b5482283b"><path d="M 0 0 L 88 0 L 88 432.847656 L 0 432.847656 Z M 0 0 " clip-rule="nonzero"/></clipPath><clipPath id="482f2156bb"><path d="M 0 0 L 105 0 L 105 432.847656 L 0 432.847656 Z M 0 0 " clip-rule="nonzero"/></clipPath><clipPath id="748513f501"><path d="M 0 0 L 122 0 L 122 432.847656 L 0 432.847656 Z M 0 0 " clip-rule="nonzero"/></clipPath><clipPath id="56d27341f3"><path d="M 0 0 L 140 0 L 140 432.847656 L 0 432.847656 Z M 0 0 " clip-rule="nonzero"/></clipPath><clipPath id="aec4c874bb"><path d="M 0 0 L 157 0 L 157 432.847656 L 0 432.847656 Z M 0 0 " clip-rule="nonzero"/></clipPath><clipPath id="a1e47250a8"><path d="M 0 0 L 175 0 L 175 432.847656 L 0 432.847656 Z M 0 0 " clip-rule="nonzero"/></clipPath><clipPath id="0a48e40c57"><path d="M 0 0 L 192 0 L 192 432.847656 L 0 432.847656 Z M 0 0 " clip-rule="nonzero"/></clipPath><clipPath id="fb1dc39c5f"><path d="M 0 0 L 208.722656 0 L 208.722656 432.847656 L 0 432.847656 Z M 0 0 " clip-rule="nonzero"/></clipPath><clipPath id="a929b37ce1"><rect x="0" width="209" y="0" height="434"/></clipPath><mask id="94abdc35b3"><g filter="url(#ff03d36e92)"><rect x="-36" width="432" fill="#000000" y="-50.399998" height="604.799979" fill-opacity="0.1373"/></g></mask><clipPath id="7b1928178d"><path d="M 0 0.203125 L 197 0.203125 L 197 498 L 0 498 Z M 0 0.203125 " clip-rule="nonzero"/></clipPath><clipPath id="0e64ce590e"><path d="M 0 0.203125 L 214 0.203125 L 214 498 L 0 498 Z M 0 0.203125 " clip-rule="nonzero"/></clipPath><clipPath id="ca31cd8c24"><path d="M 12 0.203125 L 232 0.203125 L 232 498 L 12 498 Z M 12 0.203125 " clip-rule="nonzero"/></clipPath><clipPath id="e79ebcd869"><path d="M 29 0.203125 L 249 0.203125 L 249 498 L 29 498 Z M 29 0.203125 " clip-rule="nonzero"/></clipPath><clipPath id="2de99bafb4"><path d="M 47 0.203125 L 267 0.203125 L 267 498 L 47 498 Z M 47 0.203125 " clip-rule="nonzero"/></clipPath><clipPath id="1a819eb099"><path d="M 64 0.203125 L 284 0.203125 L 284 498 L 64 498 Z M 64 0.203125 " clip-rule="nonzero"/></clipPath><clipPath id="4939967063"><path d="M 81 0.203125 L 301 0.203125 L 301 498 L 81 498 Z M 81 0.203125 " clip-rule="nonzero"/></clipPath><clipPath id="a29b01cae7"><path d="M 99 0.203125 L 319 0.203125 L 319 498 L 99 498 Z M 99 0.203125 " clip-rule="nonzero"/></clipPath><clipPath id="a5e0d97698"><path d="M 116 0.203125 L 336 0.203125 L 336 498 L 116 498 Z M 116 0.203125 " clip-rule="nonzero"/></clipPath><clipPath id="704bb2b2ac"><path d="M 134 0.203125 L 354 0.203125 L 354 498 L 134 498 Z M 134 0.203125 " clip-rule="nonzero"/></clipPath><clipPath id="e5ef2a3a0d"><path d="M 151 0.203125 L 360 0.203125 L 360 498 L 151 498 Z M 151 0.203125 " clip-rule="nonzero"/></clipPath><clipPath id="6cdeec67ae"><path d="M 168 0.203125 L 360 0.203125 L 360 498 L 168 498 Z M 168 0.203125 " clip-rule="nonzero"/></clipPath><clipPath id="66d318396b"><path d="M 186 0.203125 L 360 0.203125 L 360 498 L 186 498 Z M 186 0.203125 " clip-rule="nonzero"/></clipPath><clipPath id="b8501f2999"><path d="M 203 0.203125 L 360 0.203125 L 360 498 L 203 498 Z M 203 0.203125 " clip-rule="nonzero"/></clipPath><clipPath id="c33433290d"><path d="M 221 0.203125 L 360 0.203125 L 360 498 L 221 498 Z M 221 0.203125 " clip-rule="nonzero"/></clipPath><clipPath id="b2ffcb0caf"><rect x="0" width="360" y="0" height="498"/></clipPath><clipPath id="6b86bbae01"><path d="M 28.015625 36 L 331.765625 36 L 331.765625 468 L 28.015625 468 Z M 28.015625 36 " clip-rule="nonzero"/></clipPath><mask id="a6745f0a5f"><g filter="url(#ff03d36e92)"><rect x="-36" width="432" fill="#000000" y="-50.399998" height="604.799979" fill-opacity="0.1373"/></g></mask><clipPath id="e29c59cd85"><path d="M 0.222656 1 L 122 1 L 122 501.648438 L 0.222656 501.648438 Z M 0.222656 1 " clip-rule="nonzero"/></clipPath><clipPath id="88d29c8d67"><path d="M 17 1 L 122 1 L 122 501.648438 L 17 501.648438 Z M 17 1 " clip-rule="nonzero"/></clipPath><clipPath id="0e1db57450"><path d="M 35 1 L 122 1 L 122 501.648438 L 35 501.648438 Z M 35 1 " clip-rule="nonzero"/></clipPath><clipPath id="22c36eed45"><path d="M 52 1 L 122 1 L 122 501.648438 L 52 501.648438 Z M 52 1 " clip-rule="nonzero"/></clipPath><clipPath id="268acc7cd8"><path d="M 70 1 L 122 1 L 122 501.648438 L 70 501.648438 Z M 70 1 " clip-rule="nonzero"/></clipPath><clipPath id="63d83dd89b"><path d="M 87 1 L 122 1 L 122 501.648438 L 87 501.648438 Z M 87 1 " clip-rule="nonzero"/></clipPath><clipPath id="a98029f5bd"><path d="M 104 1 L 122 1 L 122 501.648438 L 104 501.648438 Z M 104 1 " clip-rule="nonzero"/></clipPath><clipPath id="b1ba26ca29"><rect x="0" width="122" y="0" height="502"/></clipPath><clipPath id="875233ee2c"><path d="M 96.464844 128.75 L 130.476562 128.75 L 130.476562 170.578125 L 96.464844 170.578125 Z M 96.464844 128.75 " clip-rule="nonzero"/></clipPath><clipPath id="e971c2ed68"><path d="M 92.46875 109.828125 L 134 109.828125 L 134 136 L 92.46875 136 Z M 92.46875 109.828125 " clip-rule="nonzero"/></clipPath><clipPath id="e629934d86"><path d="M 96.464844 197.804688 L 130.476562 197.804688 L 130.476562 239.636719 L 96.464844 239.636719 Z M 96.464844 197.804688 " clip-rule="nonzero"/></clipPath><clipPath id="392f273e0e"><path d="M 92.46875 178.886719 L 134 178.886719 L 134 205 L 92.46875 205 Z M 92.46875 178.886719 " clip-rule="nonzero"/></clipPath><clipPath id="5cd5d86428"><path d="M 96.464844 267.613281 L 130.476562 267.613281 L 130.476562 309.445312 L 96.464844 309.445312 Z M 96.464844 267.613281 " clip-rule="nonzero"/></clipPath><clipPath id="2ef0cac2b0"><path d="M 92.46875 248.695312 L 134 248.695312 L 134 275 L 92.46875 275 Z M 92.46875 248.695312 " clip-rule="nonzero"/></clipPath><clipPath id="cb7d7dda9b"><path d="M 96.464844 332.660156 L 130.476562 332.660156 L 130.476562 374.488281 L 96.464844 374.488281 Z M 96.464844 332.660156 " clip-rule="nonzero"/></clipPath><clipPath id="38d00a70db"><path d="M 92.46875 313.738281 L 134 313.738281 L 134 340 L 92.46875 340 Z M 92.46875 313.738281 " clip-rule="nonzero"/></clipPath><clipPath id="5cee252a36"><path d="M 96.464844 397.96875 L 130.476562 397.96875 L 130.476562 439.800781 L 96.464844 439.800781 Z M 96.464844 397.96875 " clip-rule="nonzero"/></clipPath><clipPath id="1dfaa9e3f0"><path d="M 92.46875 379.050781 L 134 379.050781 L 134 405 L 92.46875 405 Z M 92.46875 379.050781 " clip-rule="nonzero"/></clipPath><clipPath id="3584740b55"><path d="M 231.464844 128.75 L 265.476562 128.75 L 265.476562 170.578125 L 231.464844 170.578125 Z M 231.464844 128.75 " clip-rule="nonzero"/></clipPath><clipPath id="a0323848d7"><path d="M 227.46875 109.828125 L 269 109.828125 L 269 136 L 227.46875 136 Z M 227.46875 109.828125 " clip-rule="nonzero"/></clipPath><clipPath id="aad64553b2"><path d="M 231.464844 197.804688 L 265.476562 197.804688 L 265.476562 239.636719 L 231.464844 239.636719 Z M 231.464844 197.804688 " clip-rule="nonzero"/></clipPath><clipPath id="866533f8bd"><path d="M 227.46875 178.886719 L 269 178.886719 L 269 205 L 227.46875 205 Z M 227.46875 178.886719 " clip-rule="nonzero"/></clipPath><clipPath id="5e63c41375"><path d="M 231.464844 267.613281 L 265.476562 267.613281 L 265.476562 309.445312 L 231.464844 309.445312 Z M 231.464844 267.613281 " clip-rule="nonzero"/></clipPath><clipPath id="4ffcce6321"><path d="M 227.46875 248.695312 L 269 248.695312 L 269 275 L 227.46875 275 Z M 227.46875 248.695312 " clip-rule="nonzero"/></clipPath><clipPath id="06a4289d66"><path d="M 231.464844 332.660156 L 265.476562 332.660156 L 265.476562 374.488281 L 231.464844 374.488281 Z M 231.464844 332.660156 " clip-rule="nonzero"/></clipPath><clipPath id="443c12c0fb"><path d="M 227.46875 313.738281 L 269 313.738281 L 269 340 L 227.46875 340 Z M 227.46875 313.738281 " clip-rule="nonzero"/></clipPath><clipPath id="8324b11e8f"><path d="M 231.464844 397.96875 L 265.476562 397.96875 L 265.476562 439.800781 L 231.464844 439.800781 Z M 231.464844 397.96875 " clip-rule="nonzero"/></clipPath><clipPath id="26057879fe"><path d="M 227.46875 379.050781 L 269 379.050781 L 269 405 L 227.46875 405 Z M 227.46875 379.050781 " clip-rule="nonzero"/></clipPath></defs><rect x="-36" width="432" fill="#ffffff" y="-50.399998" height="604.799979" fill-opacity="1"/><rect x="-36" width="432" fill="#323232" y="-50.399998" height="604.799979" fill-opacity="1"/><g mask="url(#29cad7a373)"><g transform="matrix(1, 0, 0, 1, 0, 0)"><g clip-path="url(#a929b37ce1)"><g clip-path="url(#5e751f26dd)"><path fill="#000000" d="M -217.589844 432.296875 L -219.066406 431.664062 L -1.417969 -67.574219 L 0.0507812 -66.9375 Z M -217.589844 432.296875 " fill-opacity="1" fill-rule="nonzero"/></g><g clip-path="url(#32cf7236a9)"><path fill="#000000" d="M -200.175781 432.296875 L -201.652344 431.664062 L 15.992188 -67.574219 L 17.460938 -66.9375 Z M -200.175781 432.296875 " fill-opacity="1" fill-rule="nonzero"/></g><g clip-path="url(#180a4fc1f4)"><path fill="#000000" d="M -182.765625 432.296875 L -184.242188 431.664062 L 33.40625 -67.574219 L 34.875 -66.9375 Z M -182.765625 432.296875 " fill-opacity="1" fill-rule="nonzero"/></g><g clip-path="url(#82dae8ce6d)"><path fill="#000000" d="M -165.359375 432.296875 L -166.828125 431.664062 L 50.816406 -67.574219 L 52.289062 -66.9375 Z M -165.359375 432.296875 " fill-opacity="1" fill-rule="nonzero"/></g><g clip-path="url(#5c2af8e7b1)"><path fill="#000000" d="M -147.945312 432.296875 L -149.421875 431.664062 L 68.222656 -67.574219 L 69.699219 -66.9375 Z M -147.945312 432.296875 " fill-opacity="1" fill-rule="nonzero"/></g><g clip-path="url(#3b5482283b)"><path fill="#000000" d="M -130.535156 432.296875 L -132.011719 431.664062 L 85.636719 -67.574219 L 87.113281 -66.9375 Z M -130.535156 432.296875 " fill-opacity="1" fill-rule="nonzero"/></g><g clip-path="url(#482f2156bb)"><path fill="#000000" d="M -113.121094 432.296875 L -114.597656 431.664062 L 103.050781 -67.574219 L 104.523438 -66.9375 Z M -113.121094 432.296875 " fill-opacity="1" fill-rule="nonzero"/></g><g clip-path="url(#748513f501)"><path fill="#000000" d="M -95.707031 432.296875 L -97.183594 431.664062 L 120.460938 -67.574219 L 121.929688 -66.9375 Z M -95.707031 432.296875 " fill-opacity="1" fill-rule="nonzero"/></g><g clip-path="url(#56d27341f3)"><path fill="#000000" d="M -78.304688 432.296875 L -79.773438 431.664062 L 137.875 -67.574219 L 139.34375 -66.9375 Z M -78.304688 432.296875 " fill-opacity="1" fill-rule="nonzero"/></g><g clip-path="url(#aec4c874bb)"><path fill="#000000" d="M -60.890625 432.296875 L -62.359375 431.664062 L 155.28125 -67.574219 L 156.757812 -66.9375 Z M -60.890625 432.296875 " fill-opacity="1" fill-rule="nonzero"/></g><g clip-path="url(#a1e47250a8)"><path fill="#000000" d="M -43.476562 432.296875 L -44.949219 431.664062 L 172.691406 -67.574219 L 174.167969 -66.9375 Z M -43.476562 432.296875 " fill-opacity="1" fill-rule="nonzero"/></g><g clip-path="url(#0a48e40c57)"><path fill="#000000" d="M -26.066406 432.296875 L -27.535156 431.664062 L 190.105469 -67.574219 L 191.582031 -66.9375 Z M -26.066406 432.296875 " fill-opacity="1" fill-rule="nonzero"/></g><g clip-path="url(#fb1dc39c5f)"><path fill="#000000" d="M -8.652344 432.296875 L -10.128906 431.664062 L 207.515625 -67.574219 L 208.992188 -66.9375 Z M -8.652344 432.296875 " fill-opacity="1" fill-rule="nonzero"/></g></g></g></g><g mask="url(#94abdc35b3)"><g transform="matrix(1, 0, 0, 1, 0, 6)"><g clip-path="url(#b2ffcb0caf)"><g clip-path="url(#7b1928178d)"><path fill="#000000" d="M -21.167969 500.652344 L -22.636719 500.015625 L 195.003906 0.78125 L 196.480469 1.414062 Z M -21.167969 500.652344 " fill-opacity="1" fill-rule="nonzero"/></g><g clip-path="url(#0e64ce590e)"><path fill="#000000" d="M -3.753906 500.652344 L -5.230469 500.015625 L 212.414062 0.78125 L 213.890625 1.414062 Z M -3.753906 500.652344 " fill-opacity="1" fill-rule="nonzero"/></g><g clip-path="url(#ca31cd8c24)"><path fill="#000000" d="M 13.65625 500.652344 L 12.183594 500.015625 L 229.828125 0.78125 L 231.296875 1.414062 Z M 13.65625 500.652344 " fill-opacity="1" fill-rule="nonzero"/></g><g clip-path="url(#e79ebcd869)"><path fill="#000000" d="M 31.070312 500.652344 L 29.59375 500.015625 L 247.242188 0.78125 L 248.710938 1.414062 Z M 31.070312 500.652344 " fill-opacity="1" fill-rule="nonzero"/></g><g clip-path="url(#2de99bafb4)"><path fill="#000000" d="M 48.484375 500.652344 L 47.007812 500.015625 L 264.652344 0.78125 L 266.125 1.414062 Z M 48.484375 500.652344 " fill-opacity="1" fill-rule="nonzero"/></g><g clip-path="url(#1a819eb099)"><path fill="#000000" d="M 65.890625 500.652344 L 64.417969 500.015625 L 282.066406 0.78125 L 283.535156 1.414062 Z M 65.890625 500.652344 " fill-opacity="1" fill-rule="nonzero"/></g><g clip-path="url(#4939967063)"><path fill="#000000" d="M 83.300781 500.652344 L 81.824219 500.015625 L 299.472656 0.78125 L 300.949219 1.414062 Z M 83.300781 500.652344 " fill-opacity="1" fill-rule="nonzero"/></g><g clip-path="url(#a29b01cae7)"><path fill="#000000" d="M 100.714844 500.652344 L 99.238281 500.015625 L 316.882812 0.78125 L 318.359375 1.414062 Z M 100.714844 500.652344 " fill-opacity="1" fill-rule="nonzero"/></g><g clip-path="url(#a5e0d97698)"><path fill="#000000" d="M 118.125 500.652344 L 116.652344 500.015625 L 334.296875 0.78125 L 335.773438 1.414062 Z M 118.125 500.652344 " fill-opacity="1" fill-rule="nonzero"/></g><g clip-path="url(#704bb2b2ac)"><path fill="#000000" d="M 135.539062 500.652344 L 134.0625 500.015625 L 351.710938 0.78125 L 353.179688 1.414062 Z M 135.539062 500.652344 " fill-opacity="1" fill-rule="nonzero"/></g><g clip-path="url(#e5ef2a3a0d)"><path fill="#000000" d="M 152.945312 500.652344 L 151.476562 500.015625 L 369.121094 0.78125 L 370.589844 1.414062 Z M 152.945312 500.652344 " fill-opacity="1" fill-rule="nonzero"/></g><g clip-path="url(#6cdeec67ae)"><path fill="#000000" d="M 170.359375 500.652344 L 168.886719 500.015625 L 386.527344 0.78125 L 388.003906 1.414062 Z M 170.359375 500.652344 " fill-opacity="1" fill-rule="nonzero"/></g><g clip-path="url(#66d318396b)"><path fill="#000000" d="M 187.769531 500.652344 L 186.300781 500.015625 L 403.941406 0.78125 L 405.417969 1.414062 Z M 187.769531 500.652344 " fill-opacity="1" fill-rule="nonzero"/></g><g clip-path="url(#b8501f2999)"><path fill="#000000" d="M 205.183594 500.652344 L 203.710938 500.015625 L 421.351562 0.78125 L 422.828125 1.414062 Z M 205.183594 500.652344 " fill-opacity="1" fill-rule="nonzero"/></g><g clip-path="url(#c33433290d)"><path fill="#000000" d="M 222.59375 500.652344 L 221.117188 500.015625 L 438.765625 0.78125 L 440.242188 1.414062 Z M 222.59375 500.652344 " fill-opacity="1" fill-rule="nonzero"/></g></g></g></g><g clip-path="url(#6b86bbae01)"><path fill="#ffcf00" d="M 331.601562 467.976562 L 28.1875 467.976562 L 28.1875 36 L 331.601562 36 Z M 29.066406 467.097656 L 330.722656 467.097656 L 330.722656 36.878906 L 29.066406 36.878906 Z M 29.066406 467.097656 " fill-opacity="1" fill-rule="nonzero"/></g><g fill="#ffcf00" fill-opacity="1"><g transform="translate(28.014549, 95.039993)"><g><path d="M 22.542969 -42.847656 L 21.175781 -42.847656 C 20.308594 -42.847656 19.625 -42.664062 18.070312 -41.730469 L 8.382812 -35.644531 L 8.382812 -33.097656 L 20.183594 -40.304688 L 20.183594 0 L 22.542969 0 Z M 22.542969 -42.847656 "/></g></g></g><g fill="#ffcf00" fill-opacity="1"><g transform="translate(61.733545, 95.039993)"><g><path d="M 16.828125 -43.71875 C 6.210938 -43.71875 2.296875 -34.402344 2.296875 -21.425781 C 2.296875 -8.570312 6.210938 0.871094 16.828125 0.871094 C 27.511719 0.871094 31.359375 -8.507812 31.359375 -21.425781 C 31.359375 -34.339844 27.511719 -43.71875 16.828125 -43.71875 Z M 16.828125 -1.179688 C 8.011719 -1.179688 4.90625 -9.8125 4.90625 -21.425781 C 4.90625 -33.160156 8.011719 -41.667969 16.828125 -41.667969 C 25.710938 -41.667969 28.753906 -33.097656 28.753906 -21.425781 C 28.753906 -9.75 25.710938 -1.179688 16.828125 -1.179688 Z M 16.828125 -1.179688 "/></g></g></g><g mask="url(#a6745f0a5f)"><g transform="matrix(1, 0, 0, 1, 238, 2)"><g clip-path="url(#b1ba26ca29)"><g clip-path="url(#e29c59cd85)"><path fill="#000000" d="M 1.832031 501.097656 L 0.363281 500.460938 L 218.003906 1.226562 L 219.480469 1.859375 Z M 1.832031 501.097656 " fill-opacity="1" fill-rule="nonzero"/></g><g clip-path="url(#88d29c8d67)"><path fill="#000000" d="M 19.246094 501.097656 L 17.769531 500.460938 L 235.414062 1.226562 L 236.890625 1.859375 Z M 19.246094 501.097656 " fill-opacity="1" fill-rule="nonzero"/></g><g clip-path="url(#0e1db57450)"><path fill="#000000" d="M 36.65625 501.097656 L 35.183594 500.460938 L 252.828125 1.226562 L 254.296875 1.859375 Z M 36.65625 501.097656 " fill-opacity="1" fill-rule="nonzero"/></g><g clip-path="url(#22c36eed45)"><path fill="#000000" d="M 54.070312 501.097656 L 52.59375 500.460938 L 270.242188 1.226562 L 271.710938 1.859375 Z M 54.070312 501.097656 " fill-opacity="1" fill-rule="nonzero"/></g><g clip-path="url(#268acc7cd8)"><path fill="#000000" d="M 71.484375 501.097656 L 70.007812 500.460938 L 287.652344 1.226562 L 289.125 1.859375 Z M 71.484375 501.097656 " fill-opacity="1" fill-rule="nonzero"/></g><g clip-path="url(#63d83dd89b)"><path fill="#000000" d="M 88.890625 501.097656 L 87.417969 500.460938 L 305.066406 1.226562 L 306.535156 1.859375 Z M 88.890625 501.097656 " fill-opacity="1" fill-rule="nonzero"/></g><g clip-path="url(#a98029f5bd)"><path fill="#000000" d="M 106.300781 501.097656 L 104.824219 500.460938 L 322.472656 1.226562 L 323.949219 1.859375 Z M 106.300781 501.097656 " fill-opacity="1" fill-rule="nonzero"/></g></g></g></g><g clip-path="url(#875233ee2c)"><path fill="#ffcf00" d="M 99.285156 136.613281 C 99.019531 137.871094 98.9375 139.242188 98.925781 140.492188 C 98.914062 142.414062 99.074219 144.359375 99.339844 146.257812 C 99.4375 146.949219 99.550781 147.640625 99.679688 148.328125 C 100.5 152.738281 102.011719 157.265625 104.90625 160.757812 C 105.761719 161.792969 106.757812 162.769531 107.863281 163.535156 C 105.320312 161.074219 103.734375 157.78125 102.746094 154.292969 C 101 148.125 100.847656 140.652344 101.78125 134.363281 C 100.691406 134.738281 99.542969 135.421875 99.285156 136.613281 Z M 114.929688 168.730469 C 115.191406 167.847656 115.347656 167.6875 116.261719 167.460938 C 118.308594 166.957031 120.289062 165.890625 122.0625 164.265625 C 126.457031 160.246094 128.597656 154.492188 129.664062 148.773438 C 130.5625 143.964844 130.796875 138.703125 129.847656 135.308594 C 128.851562 131.730469 122.300781 128.9375 114.242188 128.769531 C 113.984375 128.765625 113.726562 128.761719 113.472656 128.761719 C 113.214844 128.761719 112.957031 128.765625 112.699219 128.769531 C 104.640625 128.9375 98.09375 131.730469 97.09375 135.308594 C 96.144531 138.703125 96.378906 143.964844 97.273438 148.773438 C 98.34375 154.492188 100.484375 160.246094 104.878906 164.265625 C 106.652344 165.890625 108.632812 166.957031 110.679688 167.460938 C 111.589844 167.6875 111.75 167.847656 112.011719 168.730469 C 112.742188 171.195312 114.195312 171.195312 114.929688 168.730469 " fill-opacity="1" fill-rule="evenodd"/></g><g clip-path="url(#e971c2ed68)"><path fill="#ffcf00" d="M 112.011719 127.386719 C 111.613281 125.316406 110.6875 123.523438 109.375 122.054688 C 108.257812 123.726562 107.585938 125.679688 107.5 127.839844 C 109.007812 127.589844 110.53125 127.445312 112.011719 127.386719 Z M 101.265625 123.191406 C 100.328125 125.132812 99.945312 127.324219 100.273438 129.652344 C 100.292969 129.804688 100.320312 129.957031 100.34375 130.105469 C 100.800781 129.867188 101.257812 129.65625 101.703125 129.46875 C 102.671875 129.0625 103.6875 128.71875 104.730469 128.441406 C 104.0625 126.292969 102.851562 124.53125 101.265625 123.191406 Z M 98.109375 131.5625 C 97.984375 131.171875 97.835938 130.785156 97.664062 130.398438 C 96.707031 128.25 95.21875 126.597656 93.394531 125.445312 C 92.472656 128.582031 93.046875 133.15625 95.605469 135.453125 C 95.644531 135.277344 95.691406 135.105469 95.738281 134.933594 C 96.113281 133.582031 97.011719 132.421875 98.109375 131.5625 Z M 94.15625 123.816406 C 95.894531 124.875 97.316406 126.285156 98.371094 127.949219 C 98.386719 125.949219 98.855469 123.96875 99.796875 122.132812 C 98.824219 121.539062 97.757812 121.074219 96.621094 120.738281 C 95.628906 121.613281 94.800781 122.671875 94.15625 123.816406 Z M 103.9375 117.226562 C 102.628906 118.238281 101.554688 119.375 100.710938 120.597656 C 99.976562 120.144531 99.175781 119.753906 98.320312 119.425781 C 99.75 118.484375 102.414062 117.523438 103.9375 117.226562 Z M 105.847656 126.363281 C 106.140625 124.382812 106.878906 122.492188 108.066406 120.800781 C 107.101562 120.007812 105.996094 119.347656 104.785156 118.832031 C 103.765625 119.65625 102.886719 120.597656 102.175781 121.625 C 103.785156 122.925781 105.019531 124.542969 105.847656 126.363281 Z M 114.929688 127.386719 C 115.328125 125.316406 116.25 123.523438 117.566406 122.054688 C 118.683594 123.726562 119.355469 125.679688 119.441406 127.839844 C 117.933594 127.589844 116.410156 127.445312 114.929688 127.386719 Z M 125.675781 123.191406 C 126.613281 125.132812 126.996094 127.324219 126.667969 129.652344 C 126.644531 129.804688 126.621094 129.957031 126.59375 130.105469 C 126.140625 129.867188 125.683594 129.65625 125.238281 129.46875 C 124.269531 129.0625 123.253906 128.71875 122.210938 128.441406 C 122.878906 126.292969 124.085938 124.53125 125.675781 123.191406 Z M 128.828125 131.5625 C 128.957031 131.171875 129.105469 130.785156 129.277344 130.398438 C 130.234375 128.25 131.71875 126.597656 133.546875 125.445312 C 134.472656 128.582031 133.890625 133.15625 131.335938 135.453125 C 131.292969 135.277344 131.25 135.105469 131.203125 134.933594 C 130.824219 133.582031 129.925781 132.421875 128.828125 131.5625 Z M 132.78125 123.816406 C 131.046875 124.875 129.625 126.285156 128.570312 127.949219 C 128.554688 125.949219 128.085938 123.96875 127.144531 122.132812 C 128.113281 121.539062 129.179688 121.074219 130.320312 120.738281 C 131.308594 121.613281 132.140625 122.671875 132.78125 123.816406 Z M 123.003906 117.226562 C 124.3125 118.238281 125.386719 119.375 126.226562 120.597656 C 126.964844 120.144531 127.765625 119.753906 128.621094 119.425781 C 127.191406 118.484375 124.527344 117.523438 123.003906 117.226562 Z M 121.09375 126.363281 C 120.800781 124.382812 120.058594 122.492188 118.875 120.800781 C 119.839844 120.007812 120.945312 119.347656 122.152344 118.832031 C 123.175781 119.65625 124.054688 120.597656 124.761719 121.625 C 123.15625 122.925781 121.921875 124.542969 121.09375 126.363281 Z M 113.472656 118.226562 C 114.597656 118.902344 115.597656 119.710938 116.445312 120.628906 C 115.03125 122.140625 114.035156 123.910156 113.472656 125.828125 C 112.90625 123.910156 111.90625 122.140625 110.496094 120.628906 C 111.34375 119.710938 112.34375 118.902344 113.472656 118.226562 Z M 112.105469 109.832031 L 114.839844 109.832031 C 114.941406 116.886719 116.578125 115.71875 121.789062 117.050781 C 120.25 117.664062 118.898438 118.464844 117.75 119.40625 C 116.53125 118.179688 115.042969 117.007812 113.472656 116.070312 C 111.894531 117.007812 110.410156 118.179688 109.191406 119.40625 C 108.039062 118.464844 106.691406 117.664062 105.152344 117.050781 C 110.363281 115.71875 111.996094 116.886719 112.105469 109.832031 " fill-opacity="1" fill-rule="evenodd"/></g><g clip-path="url(#e629934d86)"><path fill="#ffcf00" d="M 99.285156 205.671875 C 99.019531 206.929688 98.9375 208.300781 98.925781 209.550781 C 98.914062 211.46875 99.074219 213.414062 99.339844 215.316406 C 99.4375 216.007812 99.550781 216.699219 99.679688 217.386719 C 100.5 221.796875 102.011719 226.324219 104.90625 229.816406 C 105.761719 230.847656 106.757812 231.828125 107.863281 232.59375 C 105.320312 230.132812 103.734375 226.839844 102.746094 223.351562 C 101 217.183594 100.847656 209.707031 101.78125 203.421875 C 100.691406 203.796875 99.542969 204.480469 99.285156 205.671875 Z M 114.929688 237.785156 C 115.191406 236.902344 115.347656 236.742188 116.261719 236.515625 C 118.308594 236.011719 120.289062 234.949219 122.0625 233.324219 C 126.457031 229.304688 128.597656 223.550781 129.664062 217.832031 C 130.5625 213.019531 130.796875 207.761719 129.847656 204.367188 C 128.851562 200.789062 122.300781 197.996094 114.242188 197.828125 C 113.984375 197.824219 113.726562 197.820312 113.472656 197.820312 C 113.214844 197.820312 112.957031 197.824219 112.699219 197.828125 C 104.640625 197.996094 98.09375 200.789062 97.09375 204.367188 C 96.144531 207.761719 96.378906 213.019531 97.273438 217.832031 C 98.34375 223.550781 100.484375 229.304688 104.878906 233.324219 C 106.652344 234.949219 108.632812 236.011719 110.679688 236.515625 C 111.589844 236.742188 111.75 236.902344 112.011719 237.785156 C 112.742188 240.253906 114.195312 240.253906 114.929688 237.785156 " fill-opacity="1" fill-rule="evenodd"/></g><g clip-path="url(#392f273e0e)"><path fill="#ffcf00" d="M 112.011719 196.445312 C 111.613281 194.375 110.6875 192.578125 109.375 191.109375 C 108.257812 192.785156 107.585938 194.734375 107.5 196.898438 C 109.007812 196.648438 110.53125 196.5 112.011719 196.445312 Z M 101.265625 192.25 C 100.328125 194.191406 99.945312 196.382812 100.273438 198.710938 C 100.292969 198.863281 100.320312 199.011719 100.34375 199.164062 C 100.800781 198.925781 101.257812 198.710938 101.703125 198.523438 C 102.671875 198.117188 103.6875 197.777344 104.730469 197.496094 C 104.0625 195.351562 102.851562 193.589844 101.265625 192.25 Z M 98.109375 200.617188 C 97.984375 200.230469 97.835938 199.84375 97.664062 199.457031 C 96.707031 197.308594 95.21875 195.652344 93.394531 194.503906 C 92.472656 197.640625 93.046875 202.210938 95.605469 204.511719 C 95.644531 204.332031 95.691406 204.160156 95.738281 203.988281 C 96.113281 202.640625 97.011719 201.476562 98.109375 200.617188 Z M 94.15625 192.875 C 95.894531 193.933594 97.316406 195.34375 98.371094 197.003906 C 98.386719 195.003906 98.855469 193.027344 99.796875 191.191406 C 98.824219 190.597656 97.757812 190.128906 96.621094 189.792969 C 95.628906 190.671875 94.800781 191.726562 94.15625 192.875 Z M 103.9375 186.285156 C 102.628906 187.296875 101.554688 188.433594 100.710938 189.652344 C 99.976562 189.203125 99.175781 188.808594 98.320312 188.484375 C 99.75 187.542969 102.414062 186.582031 103.9375 186.285156 Z M 105.847656 195.417969 C 106.140625 193.441406 106.878906 191.546875 108.066406 189.859375 C 107.101562 189.0625 105.996094 188.402344 104.785156 187.890625 C 103.765625 188.714844 102.886719 189.652344 102.175781 190.683594 C 103.785156 191.980469 105.019531 193.597656 105.847656 195.417969 Z M 114.929688 196.445312 C 115.328125 194.375 116.25 192.578125 117.566406 191.109375 C 118.683594 192.785156 119.355469 194.734375 119.441406 196.898438 C 117.933594 196.648438 116.410156 196.5 114.929688 196.445312 Z M 125.675781 192.25 C 126.613281 194.191406 126.996094 196.382812 126.667969 198.710938 C 126.644531 198.863281 126.621094 199.011719 126.59375 199.164062 C 126.140625 198.925781 125.683594 198.710938 125.238281 198.523438 C 124.269531 198.117188 123.253906 197.777344 122.210938 197.496094 C 122.878906 195.351562 124.085938 193.589844 125.675781 192.25 Z M 128.828125 200.617188 C 128.957031 200.230469 129.105469 199.84375 129.277344 199.457031 C 130.234375 197.308594 131.71875 195.652344 133.546875 194.503906 C 134.472656 197.640625 133.890625 202.210938 131.335938 204.511719 C 131.292969 204.332031 131.25 204.160156 131.203125 203.988281 C 130.824219 202.640625 129.925781 201.476562 128.828125 200.617188 Z M 132.78125 192.875 C 131.046875 193.933594 129.625 195.34375 128.570312 197.003906 C 128.554688 195.003906 128.085938 193.027344 127.144531 191.191406 C 128.113281 190.597656 129.179688 190.128906 130.320312 189.792969 C 131.308594 190.671875 132.140625 191.726562 132.78125 192.875 Z M 123.003906 186.285156 C 124.3125 187.296875 125.386719 188.433594 126.226562 189.652344 C 126.964844 189.203125 127.765625 188.808594 128.621094 188.484375 C 127.191406 187.542969 124.527344 186.582031 123.003906 186.285156 Z M 121.09375 195.417969 C 120.800781 193.441406 120.058594 191.546875 118.875 189.859375 C 119.839844 189.0625 120.945312 188.402344 122.152344 187.890625 C 123.175781 188.714844 124.054688 189.652344 124.761719 190.683594 C 123.15625 191.980469 121.921875 193.597656 121.09375 195.417969 Z M 113.472656 187.28125 C 114.597656 187.960938 115.597656 188.765625 116.445312 189.6875 C 115.03125 191.199219 114.035156 192.96875 113.472656 194.886719 C 112.90625 192.96875 111.90625 191.199219 110.496094 189.6875 C 111.34375 188.765625 112.34375 187.960938 113.472656 187.28125 Z M 112.105469 178.886719 L 114.839844 178.886719 C 114.941406 185.941406 116.578125 184.773438 121.789062 186.105469 C 120.25 186.722656 118.898438 187.519531 117.75 188.464844 C 116.53125 187.234375 115.042969 186.066406 113.472656 185.125 C 111.894531 186.066406 110.410156 187.234375 109.191406 188.464844 C 108.039062 187.519531 106.691406 186.722656 105.152344 186.105469 C 110.363281 184.773438 111.996094 185.941406 112.105469 178.886719 " fill-opacity="1" fill-rule="evenodd"/></g><g clip-path="url(#5cd5d86428)"><path fill="#ffcf00" d="M 99.285156 275.480469 C 99.019531 276.738281 98.9375 278.109375 98.925781 279.359375 C 98.914062 281.28125 99.074219 283.222656 99.339844 285.125 C 99.4375 285.816406 99.550781 286.507812 99.679688 287.195312 C 100.5 291.605469 102.011719 296.132812 104.90625 299.625 C 105.761719 300.660156 106.757812 301.636719 107.863281 302.402344 C 105.320312 299.941406 103.734375 296.648438 102.746094 293.160156 C 101 286.992188 100.847656 279.519531 101.78125 273.230469 C 100.691406 273.605469 99.542969 274.289062 99.285156 275.480469 Z M 114.929688 307.59375 C 115.191406 306.710938 115.347656 306.550781 116.261719 306.324219 C 118.308594 305.824219 120.289062 304.757812 122.0625 303.132812 C 126.457031 299.113281 128.597656 293.359375 129.664062 287.640625 C 130.5625 282.832031 130.796875 277.570312 129.847656 274.175781 C 128.851562 270.597656 122.300781 267.804688 114.242188 267.636719 C 113.984375 267.632812 113.726562 267.628906 113.472656 267.628906 C 113.214844 267.628906 112.957031 267.632812 112.699219 267.636719 C 104.640625 267.804688 98.09375 270.597656 97.09375 274.175781 C 96.144531 277.570312 96.378906 282.832031 97.273438 287.640625 C 98.34375 293.359375 100.484375 299.113281 104.878906 303.132812 C 106.652344 304.757812 108.632812 305.824219 110.679688 306.324219 C 111.589844 306.550781 111.75 306.710938 112.011719 307.59375 C 112.742188 310.0625 114.195312 310.0625 114.929688 307.59375 " fill-opacity="1" fill-rule="evenodd"/></g><g clip-path="url(#2ef0cac2b0)"><path fill="#ffcf00" d="M 112.011719 266.253906 C 111.613281 264.183594 110.6875 262.386719 109.375 260.921875 C 108.257812 262.59375 107.585938 264.546875 107.5 266.707031 C 109.007812 266.457031 110.53125 266.3125 112.011719 266.253906 Z M 101.265625 262.058594 C 100.328125 264 99.945312 266.191406 100.273438 268.519531 C 100.292969 268.671875 100.320312 268.824219 100.34375 268.972656 C 100.800781 268.734375 101.257812 268.519531 101.703125 268.335938 C 102.671875 267.925781 103.6875 267.585938 104.730469 267.304688 C 104.0625 265.160156 102.851562 263.398438 101.265625 262.058594 Z M 98.109375 270.429688 C 97.984375 270.039062 97.835938 269.652344 97.664062 269.265625 C 96.707031 267.117188 95.21875 265.460938 93.394531 264.3125 C 92.472656 267.449219 93.046875 272.019531 95.605469 274.320312 C 95.644531 274.144531 95.691406 273.96875 95.738281 273.796875 C 96.113281 272.449219 97.011719 271.289062 98.109375 270.429688 Z M 94.15625 262.683594 C 95.894531 263.742188 97.316406 265.152344 98.371094 266.8125 C 98.386719 264.816406 98.855469 262.835938 99.796875 261 C 98.824219 260.40625 97.757812 259.941406 96.621094 259.605469 C 95.628906 260.480469 94.800781 261.535156 94.15625 262.683594 Z M 103.9375 256.09375 C 102.628906 257.105469 101.554688 258.242188 100.710938 259.460938 C 99.976562 259.011719 99.175781 258.617188 98.320312 258.292969 C 99.75 257.351562 102.414062 256.390625 103.9375 256.09375 Z M 105.847656 265.226562 C 106.140625 263.25 106.878906 261.359375 108.066406 259.667969 C 107.101562 258.871094 105.996094 258.210938 104.785156 257.699219 C 103.765625 258.523438 102.886719 259.460938 102.175781 260.492188 C 103.785156 261.792969 105.019531 263.410156 105.847656 265.226562 Z M 114.929688 266.253906 C 115.328125 264.183594 116.25 262.386719 117.566406 260.921875 C 118.683594 262.59375 119.355469 264.546875 119.441406 266.707031 C 117.933594 266.457031 116.410156 266.3125 114.929688 266.253906 Z M 125.675781 262.058594 C 126.613281 264 126.996094 266.191406 126.667969 268.519531 C 126.644531 268.671875 126.621094 268.824219 126.59375 268.972656 C 126.140625 268.734375 125.683594 268.519531 125.238281 268.335938 C 124.269531 267.925781 123.253906 267.585938 122.210938 267.304688 C 122.878906 265.160156 124.085938 263.398438 125.675781 262.058594 Z M 128.828125 270.429688 C 128.957031 270.039062 129.105469 269.652344 129.277344 269.265625 C 130.234375 267.117188 131.71875 265.460938 133.546875 264.3125 C 134.472656 267.449219 133.890625 272.019531 131.335938 274.320312 C 131.292969 274.144531 131.25 273.96875 131.203125 273.796875 C 130.824219 272.449219 129.925781 271.289062 128.828125 270.429688 Z M 132.78125 262.683594 C 131.046875 263.742188 129.625 265.152344 128.570312 266.8125 C 128.554688 264.816406 128.085938 262.835938 127.144531 261 C 128.113281 260.40625 129.179688 259.941406 130.320312 259.605469 C 131.308594 260.480469 132.140625 261.535156 132.78125 262.683594 Z M 123.003906 256.09375 C 124.3125 257.105469 125.386719 258.242188 126.226562 259.460938 C 126.964844 259.011719 127.765625 258.617188 128.621094 258.292969 C 127.191406 257.351562 124.527344 256.390625 123.003906 256.09375 Z M 121.09375 265.226562 C 120.800781 263.25 120.058594 261.359375 118.875 259.667969 C 119.839844 258.871094 120.945312 258.210938 122.152344 257.699219 C 123.175781 258.523438 124.054688 259.460938 124.761719 260.492188 C 123.15625 261.792969 121.921875 263.410156 121.09375 265.226562 Z M 113.472656 257.09375 C 114.597656 257.769531 115.597656 258.574219 116.445312 259.496094 C 115.03125 261.007812 114.035156 262.777344 113.472656 264.695312 C 112.90625 262.777344 111.90625 261.007812 110.496094 259.496094 C 111.34375 258.574219 112.34375 257.769531 113.472656 257.09375 Z M 112.105469 248.695312 L 114.839844 248.695312 C 114.941406 255.753906 116.578125 254.582031 121.789062 255.917969 C 120.25 256.53125 118.898438 257.328125 117.75 258.273438 C 116.53125 257.042969 115.042969 255.875 113.472656 254.933594 C 111.894531 255.875 110.410156 257.042969 109.191406 258.273438 C 108.039062 257.328125 106.691406 256.53125 105.152344 255.917969 C 110.363281 254.582031 111.996094 255.753906 112.105469 248.695312 " fill-opacity="1" fill-rule="evenodd"/></g><g clip-path="url(#cb7d7dda9b)"><path fill="#ffcf00" d="M 99.285156 340.523438 C 99.019531 341.78125 98.9375 343.152344 98.925781 344.402344 C 98.914062 346.324219 99.074219 348.269531 99.339844 350.167969 C 99.4375 350.859375 99.550781 351.550781 99.679688 352.238281 C 100.5 356.648438 102.011719 361.175781 104.90625 364.667969 C 105.761719 365.703125 106.757812 366.679688 107.863281 367.445312 C 105.320312 364.984375 103.734375 361.691406 102.746094 358.203125 C 101 352.035156 100.847656 344.5625 101.78125 338.273438 C 100.691406 338.648438 99.542969 339.332031 99.285156 340.523438 Z M 114.929688 372.640625 C 115.191406 371.757812 115.347656 371.597656 116.261719 371.371094 C 118.308594 370.867188 120.289062 369.800781 122.0625 368.175781 C 126.457031 364.15625 128.597656 358.402344 129.664062 352.683594 C 130.5625 347.875 130.796875 342.613281 129.847656 339.21875 C 128.851562 335.640625 122.300781 332.847656 114.242188 332.679688 C 113.984375 332.675781 113.726562 332.671875 113.472656 332.671875 C 113.214844 332.671875 112.957031 332.675781 112.699219 332.679688 C 104.640625 332.847656 98.09375 335.640625 97.09375 339.21875 C 96.144531 342.613281 96.378906 347.875 97.273438 352.683594 C 98.34375 358.402344 100.484375 364.15625 104.878906 368.175781 C 106.652344 369.800781 108.632812 370.867188 110.679688 371.371094 C 111.589844 371.597656 111.75 371.757812 112.011719 372.640625 C 112.742188 375.105469 114.195312 375.105469 114.929688 372.640625 " fill-opacity="1" fill-rule="evenodd"/></g><g clip-path="url(#38d00a70db)"><path fill="#ffcf00" d="M 112.011719 331.296875 C 111.613281 329.226562 110.6875 327.433594 109.375 325.964844 C 108.257812 327.636719 107.585938 329.589844 107.5 331.75 C 109.007812 331.5 110.53125 331.355469 112.011719 331.296875 Z M 101.265625 327.101562 C 100.328125 329.042969 99.945312 331.234375 100.273438 333.5625 C 100.292969 333.714844 100.320312 333.867188 100.34375 334.015625 C 100.800781 333.777344 101.257812 333.566406 101.703125 333.378906 C 102.671875 332.972656 103.6875 332.628906 104.730469 332.351562 C 104.0625 330.203125 102.851562 328.441406 101.265625 327.101562 Z M 98.109375 335.472656 C 97.984375 335.082031 97.835938 334.695312 97.664062 334.308594 C 96.707031 332.164062 95.21875 330.507812 93.394531 329.355469 C 92.472656 332.492188 93.046875 337.066406 95.605469 339.363281 C 95.644531 339.1875 95.691406 339.015625 95.738281 338.84375 C 96.113281 337.492188 97.011719 336.332031 98.109375 335.472656 Z M 94.15625 327.726562 C 95.894531 328.785156 97.316406 330.195312 98.371094 331.859375 C 98.386719 329.859375 98.855469 327.878906 99.796875 326.042969 C 98.824219 325.449219 97.757812 324.984375 96.621094 324.648438 C 95.628906 325.523438 94.800781 326.582031 94.15625 327.726562 Z M 103.9375 321.136719 C 102.628906 322.148438 101.554688 323.285156 100.710938 324.507812 C 99.976562 324.054688 99.175781 323.664062 98.320312 323.335938 C 99.75 322.394531 102.414062 321.433594 103.9375 321.136719 Z M 105.847656 330.273438 C 106.140625 328.292969 106.878906 326.402344 108.066406 324.710938 C 107.101562 323.917969 105.996094 323.257812 104.785156 322.742188 C 103.765625 323.566406 102.886719 324.507812 102.175781 325.535156 C 103.785156 326.835938 105.019531 328.453125 105.847656 330.273438 Z M 114.929688 331.296875 C 115.328125 329.226562 116.25 327.433594 117.566406 325.964844 C 118.683594 327.636719 119.355469 329.589844 119.441406 331.75 C 117.933594 331.5 116.410156 331.355469 114.929688 331.296875 Z M 125.675781 327.101562 C 126.613281 329.042969 126.996094 331.234375 126.667969 333.5625 C 126.644531 333.714844 126.621094 333.867188 126.59375 334.015625 C 126.140625 333.777344 125.683594 333.566406 125.238281 333.378906 C 124.269531 332.972656 123.253906 332.628906 122.210938 332.351562 C 122.878906 330.203125 124.085938 328.441406 125.675781 327.101562 Z M 128.828125 335.472656 C 128.957031 335.082031 129.105469 334.695312 129.277344 334.308594 C 130.234375 332.164062 131.71875 330.507812 133.546875 329.355469 C 134.472656 332.492188 133.890625 337.066406 131.335938 339.363281 C 131.292969 339.1875 131.25 339.015625 131.203125 338.84375 C 130.824219 337.492188 129.925781 336.332031 128.828125 335.472656 Z M 132.78125 327.726562 C 131.046875 328.785156 129.625 330.195312 128.570312 331.859375 C 128.554688 329.859375 128.085938 327.878906 127.144531 326.042969 C 128.113281 325.449219 129.179688 324.984375 130.320312 324.648438 C 131.308594 325.523438 132.140625 326.582031 132.78125 327.726562 Z M 123.003906 321.136719 C 124.3125 322.148438 125.386719 323.285156 126.226562 324.507812 C 126.964844 324.054688 127.765625 323.664062 128.621094 323.335938 C 127.191406 322.394531 124.527344 321.433594 123.003906 321.136719 Z M 121.09375 330.273438 C 120.800781 328.292969 120.058594 326.402344 118.875 324.710938 C 119.839844 323.917969 120.945312 323.257812 122.152344 322.742188 C 123.175781 323.566406 124.054688 324.507812 124.761719 325.535156 C 123.15625 326.835938 121.921875 328.453125 121.09375 330.273438 Z M 113.472656 322.136719 C 114.597656 322.8125 115.597656 323.621094 116.445312 324.539062 C 115.03125 326.050781 114.035156 327.820312 113.472656 329.738281 C 112.90625 327.820312 111.90625 326.050781 110.496094 324.539062 C 111.34375 323.621094 112.34375 322.8125 113.472656 322.136719 Z M 112.105469 313.742188 L 114.839844 313.742188 C 114.941406 320.796875 116.578125 319.628906 121.789062 320.960938 C 120.25 321.574219 118.898438 322.375 117.75 323.316406 C 116.53125 322.089844 115.042969 320.917969 113.472656 319.980469 C 111.894531 320.917969 110.410156 322.089844 109.191406 323.316406 C 108.039062 322.375 106.691406 321.574219 105.152344 320.960938 C 110.363281 319.628906 111.996094 320.796875 112.105469 313.742188 " fill-opacity="1" fill-rule="evenodd"/></g><g clip-path="url(#5cee252a36)"><path fill="#ffcf00" d="M 99.285156 405.835938 C 99.019531 407.089844 98.9375 408.460938 98.925781 409.714844 C 98.914062 411.632812 99.074219 413.578125 99.339844 415.476562 C 99.4375 416.167969 99.550781 416.859375 99.679688 417.546875 C 100.5 421.960938 102.011719 426.484375 104.90625 429.976562 C 105.761719 431.011719 106.757812 431.988281 107.863281 432.753906 C 105.320312 430.292969 103.734375 427 102.746094 423.515625 C 101 417.347656 100.847656 409.871094 101.78125 403.582031 C 100.691406 403.957031 99.542969 404.640625 99.285156 405.835938 Z M 114.929688 437.949219 C 115.191406 437.066406 115.347656 436.90625 116.261719 436.679688 C 118.308594 436.175781 120.289062 435.109375 122.0625 433.484375 C 126.457031 429.464844 128.597656 423.710938 129.664062 417.992188 C 130.5625 413.183594 130.796875 407.921875 129.847656 404.527344 C 128.851562 400.949219 122.300781 398.15625 114.242188 397.992188 C 113.984375 397.984375 113.726562 397.984375 113.472656 397.984375 C 113.214844 397.984375 112.957031 397.984375 112.699219 397.992188 C 104.640625 398.15625 98.09375 400.949219 97.09375 404.527344 C 96.144531 407.921875 96.378906 413.183594 97.273438 417.992188 C 98.34375 423.710938 100.484375 429.464844 104.878906 433.484375 C 106.652344 435.109375 108.632812 436.175781 110.679688 436.679688 C 111.589844 436.90625 111.75 437.066406 112.011719 437.949219 C 112.742188 440.417969 114.195312 440.417969 114.929688 437.949219 " fill-opacity="1" fill-rule="evenodd"/></g><g clip-path="url(#1dfaa9e3f0)"><path fill="#ffcf00" d="M 112.011719 396.605469 C 111.613281 394.535156 110.6875 392.742188 109.375 391.273438 C 108.257812 392.945312 107.585938 394.898438 107.5 397.058594 C 109.007812 396.808594 110.53125 396.664062 112.011719 396.605469 Z M 101.265625 392.410156 C 100.328125 394.355469 99.945312 396.542969 100.273438 398.875 C 100.292969 399.023438 100.320312 399.175781 100.34375 399.324219 C 100.800781 399.085938 101.257812 398.875 101.703125 398.6875 C 102.671875 398.28125 103.6875 397.941406 104.730469 397.660156 C 104.0625 395.515625 102.851562 393.753906 101.265625 392.410156 Z M 98.109375 400.78125 C 97.984375 400.394531 97.835938 400.003906 97.664062 399.621094 C 96.707031 397.472656 95.21875 395.816406 93.394531 394.664062 C 92.472656 397.800781 93.046875 402.375 95.605469 404.671875 C 95.644531 404.496094 95.691406 404.324219 95.738281 404.152344 C 96.113281 402.804688 97.011719 401.640625 98.109375 400.78125 Z M 94.15625 393.035156 C 95.894531 394.09375 97.316406 395.503906 98.371094 397.167969 C 98.386719 395.167969 98.855469 393.191406 99.796875 391.351562 C 98.824219 390.757812 97.757812 390.292969 96.621094 389.957031 C 95.628906 390.832031 94.800781 391.890625 94.15625 393.035156 Z M 103.9375 386.445312 C 102.628906 387.457031 101.554688 388.597656 100.710938 389.816406 C 99.976562 389.367188 99.175781 388.972656 98.320312 388.644531 C 99.75 387.703125 102.414062 386.742188 103.9375 386.445312 Z M 105.847656 395.582031 C 106.140625 393.601562 106.878906 391.710938 108.066406 390.019531 C 107.101562 389.226562 105.996094 388.566406 104.785156 388.050781 C 103.765625 388.878906 102.886719 389.816406 102.175781 390.847656 C 103.785156 392.144531 105.019531 393.761719 105.847656 395.582031 Z M 114.929688 396.605469 C 115.328125 394.535156 116.25 392.742188 117.566406 391.273438 C 118.683594 392.945312 119.355469 394.898438 119.441406 397.058594 C 117.933594 396.808594 116.410156 396.664062 114.929688 396.605469 Z M 125.675781 392.410156 C 126.613281 394.355469 126.996094 396.542969 126.667969 398.875 C 126.644531 399.023438 126.621094 399.175781 126.59375 399.324219 C 126.140625 399.085938 125.683594 398.875 125.238281 398.6875 C 124.269531 398.28125 123.253906 397.941406 122.210938 397.660156 C 122.878906 395.515625 124.085938 393.753906 125.675781 392.410156 Z M 128.828125 400.78125 C 128.957031 400.394531 129.105469 400.003906 129.277344 399.621094 C 130.234375 397.472656 131.71875 395.816406 133.546875 394.664062 C 134.472656 397.800781 133.890625 402.375 131.335938 404.671875 C 131.292969 404.496094 131.25 404.324219 131.203125 404.152344 C 130.824219 402.804688 129.925781 401.640625 128.828125 400.78125 Z M 132.78125 393.035156 C 131.046875 394.09375 129.625 395.503906 128.570312 397.167969 C 128.554688 395.167969 128.085938 393.191406 127.144531 391.351562 C 128.113281 390.757812 129.179688 390.292969 130.320312 389.957031 C 131.308594 390.832031 132.140625 391.890625 132.78125 393.035156 Z M 123.003906 386.445312 C 124.3125 387.457031 125.386719 388.597656 126.226562 389.816406 C 126.964844 389.367188 127.765625 388.972656 128.621094 388.644531 C 127.191406 387.703125 124.527344 386.742188 123.003906 386.445312 Z M 121.09375 395.582031 C 120.800781 393.601562 120.058594 391.710938 118.875 390.019531 C 119.839844 389.226562 120.945312 388.566406 122.152344 388.050781 C 123.175781 388.878906 124.054688 389.816406 124.761719 390.847656 C 123.15625 392.144531 121.921875 393.761719 121.09375 395.582031 Z M 113.472656 387.445312 C 114.597656 388.121094 115.597656 388.929688 116.445312 389.851562 C 115.03125 391.359375 114.035156 393.132812 113.472656 395.046875 C 112.90625 393.132812 111.90625 391.359375 110.496094 389.851562 C 111.34375 388.929688 112.34375 388.121094 113.472656 387.445312 Z M 112.105469 379.050781 L 114.839844 379.050781 C 114.941406 386.105469 116.578125 384.9375 121.789062 386.269531 C 120.25 386.882812 118.898438 387.683594 117.75 388.625 C 116.53125 387.398438 115.042969 386.226562 113.472656 385.289062 C 111.894531 386.226562 110.410156 387.398438 109.191406 388.625 C 108.039062 387.683594 106.691406 386.882812 105.152344 386.269531 C 110.363281 384.9375 111.996094 386.105469 112.105469 379.050781 " fill-opacity="1" fill-rule="evenodd"/></g><g clip-path="url(#3584740b55)"><path fill="#ffcf00" d="M 234.285156 136.613281 C 234.019531 137.871094 233.9375 139.242188 233.925781 140.492188 C 233.914062 142.414062 234.074219 144.359375 234.339844 146.257812 C 234.4375 146.949219 234.550781 147.640625 234.679688 148.328125 C 235.5 152.738281 237.011719 157.265625 239.90625 160.757812 C 240.761719 161.792969 241.757812 162.769531 242.863281 163.535156 C 240.320312 161.074219 238.734375 157.78125 237.746094 154.292969 C 236 148.125 235.847656 140.652344 236.78125 134.363281 C 235.691406 134.738281 234.542969 135.421875 234.285156 136.613281 Z M 249.929688 168.730469 C 250.191406 167.847656 250.347656 167.6875 251.261719 167.460938 C 253.308594 166.957031 255.289062 165.890625 257.0625 164.265625 C 261.457031 160.246094 263.597656 154.492188 264.664062 148.773438 C 265.5625 143.964844 265.796875 138.703125 264.847656 135.308594 C 263.851562 131.730469 257.296875 128.9375 249.242188 128.769531 C 248.984375 128.765625 248.726562 128.761719 248.472656 128.761719 C 248.214844 128.761719 247.957031 128.765625 247.699219 128.769531 C 239.640625 128.9375 233.09375 131.730469 232.09375 135.308594 C 231.144531 138.703125 231.378906 143.964844 232.273438 148.773438 C 233.34375 154.492188 235.484375 160.246094 239.878906 164.265625 C 241.652344 165.890625 243.632812 166.957031 245.679688 167.460938 C 246.589844 167.6875 246.75 167.847656 247.011719 168.730469 C 247.742188 171.195312 249.195312 171.195312 249.929688 168.730469 " fill-opacity="1" fill-rule="evenodd"/></g><g clip-path="url(#a0323848d7)"><path fill="#ffcf00" d="M 247.011719 127.386719 C 246.613281 125.316406 245.6875 123.523438 244.375 122.054688 C 243.257812 123.726562 242.585938 125.679688 242.5 127.839844 C 244.007812 127.589844 245.53125 127.445312 247.011719 127.386719 Z M 236.265625 123.191406 C 235.328125 125.132812 234.945312 127.324219 235.273438 129.652344 C 235.292969 129.804688 235.320312 129.957031 235.34375 130.105469 C 235.800781 129.867188 236.257812 129.65625 236.703125 129.46875 C 237.671875 129.0625 238.6875 128.71875 239.730469 128.441406 C 239.0625 126.292969 237.851562 124.53125 236.265625 123.191406 Z M 233.109375 131.5625 C 232.984375 131.171875 232.835938 130.785156 232.664062 130.398438 C 231.707031 128.25 230.21875 126.597656 228.394531 125.445312 C 227.472656 128.582031 228.046875 133.15625 230.605469 135.453125 C 230.644531 135.277344 230.691406 135.105469 230.738281 134.933594 C 231.113281 133.582031 232.011719 132.421875 233.109375 131.5625 Z M 229.15625 123.816406 C 230.894531 124.875 232.316406 126.285156 233.371094 127.949219 C 233.386719 125.949219 233.855469 123.96875 234.796875 122.132812 C 233.824219 121.539062 232.757812 121.074219 231.621094 120.738281 C 230.628906 121.613281 229.800781 122.671875 229.15625 123.816406 Z M 238.9375 117.226562 C 237.628906 118.238281 236.554688 119.375 235.710938 120.597656 C 234.976562 120.144531 234.175781 119.753906 233.320312 119.425781 C 234.75 118.484375 237.414062 117.523438 238.9375 117.226562 Z M 240.847656 126.363281 C 241.140625 124.382812 241.878906 122.492188 243.066406 120.800781 C 242.101562 120.007812 240.996094 119.347656 239.785156 118.832031 C 238.765625 119.65625 237.886719 120.597656 237.175781 121.625 C 238.785156 122.925781 240.019531 124.542969 240.847656 126.363281 Z M 249.929688 127.386719 C 250.328125 125.316406 251.25 123.523438 252.566406 122.054688 C 253.683594 123.726562 254.355469 125.679688 254.441406 127.839844 C 252.933594 127.589844 251.410156 127.445312 249.929688 127.386719 Z M 260.675781 123.191406 C 261.613281 125.132812 261.996094 127.324219 261.667969 129.652344 C 261.644531 129.804688 261.621094 129.957031 261.59375 130.105469 C 261.140625 129.867188 260.683594 129.65625 260.238281 129.46875 C 259.269531 129.0625 258.253906 128.71875 257.210938 128.441406 C 257.878906 126.292969 259.085938 124.53125 260.675781 123.191406 Z M 263.828125 131.5625 C 263.957031 131.171875 264.105469 130.785156 264.277344 130.398438 C 265.234375 128.25 266.71875 126.597656 268.546875 125.445312 C 269.472656 128.582031 268.890625 133.15625 266.335938 135.453125 C 266.292969 135.277344 266.25 135.105469 266.203125 134.933594 C 265.824219 133.582031 264.925781 132.421875 263.828125 131.5625 Z M 267.78125 123.816406 C 266.046875 124.875 264.625 126.285156 263.570312 127.949219 C 263.554688 125.949219 263.085938 123.96875 262.144531 122.132812 C 263.113281 121.539062 264.179688 121.074219 265.320312 120.738281 C 266.308594 121.613281 267.140625 122.671875 267.78125 123.816406 Z M 258.003906 117.226562 C 259.3125 118.238281 260.386719 119.375 261.226562 120.597656 C 261.964844 120.144531 262.765625 119.753906 263.621094 119.425781 C 262.191406 118.484375 259.527344 117.523438 258.003906 117.226562 Z M 256.09375 126.363281 C 255.800781 124.382812 255.058594 122.492188 253.875 120.800781 C 254.839844 120.007812 255.945312 119.347656 257.152344 118.832031 C 258.175781 119.65625 259.054688 120.597656 259.761719 121.625 C 258.15625 122.925781 256.921875 124.542969 256.09375 126.363281 Z M 248.472656 118.226562 C 249.597656 118.902344 250.597656 119.710938 251.445312 120.628906 C 250.03125 122.140625 249.035156 123.910156 248.472656 125.828125 C 247.90625 123.910156 246.90625 122.140625 245.496094 120.628906 C 246.34375 119.710938 247.34375 118.902344 248.472656 118.226562 Z M 247.105469 109.832031 L 249.839844 109.832031 C 249.941406 116.886719 251.578125 115.71875 256.789062 117.050781 C 255.25 117.664062 253.898438 118.464844 252.75 119.40625 C 251.53125 118.179688 250.042969 117.007812 248.472656 116.070312 C 246.894531 117.007812 245.410156 118.179688 244.191406 119.40625 C 243.039062 118.464844 241.691406 117.664062 240.152344 117.050781 C 245.363281 115.71875 246.996094 116.886719 247.105469 109.832031 " fill-opacity="1" fill-rule="evenodd"/></g><g clip-path="url(#aad64553b2)"><path fill="#ffcf00" d="M 234.285156 205.671875 C 234.019531 206.929688 233.9375 208.300781 233.925781 209.550781 C 233.914062 211.46875 234.074219 213.414062 234.339844 215.316406 C 234.4375 216.007812 234.550781 216.699219 234.679688 217.386719 C 235.5 221.796875 237.011719 226.324219 239.90625 229.816406 C 240.761719 230.847656 241.757812 231.828125 242.863281 232.59375 C 240.320312 230.132812 238.734375 226.839844 237.746094 223.351562 C 236 217.183594 235.847656 209.707031 236.78125 203.421875 C 235.691406 203.796875 234.542969 204.480469 234.285156 205.671875 Z M 249.929688 237.785156 C 250.191406 236.902344 250.347656 236.742188 251.261719 236.515625 C 253.308594 236.011719 255.289062 234.949219 257.0625 233.324219 C 261.457031 229.304688 263.597656 223.550781 264.664062 217.832031 C 265.5625 213.019531 265.796875 207.761719 264.847656 204.367188 C 263.851562 200.789062 257.296875 197.996094 249.242188 197.828125 C 248.984375 197.824219 248.726562 197.820312 248.472656 197.820312 C 248.214844 197.820312 247.957031 197.824219 247.699219 197.828125 C 239.640625 197.996094 233.09375 200.789062 232.09375 204.367188 C 231.144531 207.761719 231.378906 213.019531 232.273438 217.832031 C 233.34375 223.550781 235.484375 229.304688 239.878906 233.324219 C 241.652344 234.949219 243.632812 236.011719 245.679688 236.515625 C 246.589844 236.742188 246.75 236.902344 247.011719 237.785156 C 247.742188 240.253906 249.195312 240.253906 249.929688 237.785156 " fill-opacity="1" fill-rule="evenodd"/></g><g clip-path="url(#866533f8bd)"><path fill="#ffcf00" d="M 247.011719 196.445312 C 246.613281 194.375 245.6875 192.578125 244.375 191.109375 C 243.257812 192.785156 242.585938 194.734375 242.5 196.898438 C 244.007812 196.648438 245.53125 196.5 247.011719 196.445312 Z M 236.265625 192.25 C 235.328125 194.191406 234.945312 196.382812 235.273438 198.710938 C 235.292969 198.863281 235.320312 199.011719 235.34375 199.164062 C 235.800781 198.925781 236.257812 198.710938 236.703125 198.523438 C 237.671875 198.117188 238.6875 197.777344 239.730469 197.496094 C 239.0625 195.351562 237.851562 193.589844 236.265625 192.25 Z M 233.109375 200.617188 C 232.984375 200.230469 232.835938 199.84375 232.664062 199.457031 C 231.707031 197.308594 230.21875 195.652344 228.394531 194.503906 C 227.472656 197.640625 228.046875 202.210938 230.605469 204.511719 C 230.644531 204.332031 230.691406 204.160156 230.738281 203.988281 C 231.113281 202.640625 232.011719 201.476562 233.109375 200.617188 Z M 229.15625 192.875 C 230.894531 193.933594 232.316406 195.34375 233.371094 197.003906 C 233.386719 195.003906 233.855469 193.027344 234.796875 191.191406 C 233.824219 190.597656 232.757812 190.128906 231.621094 189.792969 C 230.628906 190.671875 229.800781 191.726562 229.15625 192.875 Z M 238.9375 186.285156 C 237.628906 187.296875 236.554688 188.433594 235.710938 189.652344 C 234.976562 189.203125 234.175781 188.808594 233.320312 188.484375 C 234.75 187.542969 237.414062 186.582031 238.9375 186.285156 Z M 240.847656 195.417969 C 241.140625 193.441406 241.878906 191.546875 243.066406 189.859375 C 242.101562 189.0625 240.996094 188.402344 239.785156 187.890625 C 238.765625 188.714844 237.886719 189.652344 237.175781 190.683594 C 238.785156 191.980469 240.019531 193.597656 240.847656 195.417969 Z M 249.929688 196.445312 C 250.328125 194.375 251.25 192.578125 252.566406 191.109375 C 253.683594 192.785156 254.355469 194.734375 254.441406 196.898438 C 252.933594 196.648438 251.410156 196.5 249.929688 196.445312 Z M 260.675781 192.25 C 261.613281 194.191406 261.996094 196.382812 261.667969 198.710938 C 261.644531 198.863281 261.621094 199.011719 261.59375 199.164062 C 261.140625 198.925781 260.683594 198.710938 260.238281 198.523438 C 259.269531 198.117188 258.253906 197.777344 257.210938 197.496094 C 257.878906 195.351562 259.085938 193.589844 260.675781 192.25 Z M 263.828125 200.617188 C 263.957031 200.230469 264.105469 199.84375 264.277344 199.457031 C 265.234375 197.308594 266.71875 195.652344 268.546875 194.503906 C 269.472656 197.640625 268.890625 202.210938 266.335938 204.511719 C 266.292969 204.332031 266.25 204.160156 266.203125 203.988281 C 265.824219 202.640625 264.925781 201.476562 263.828125 200.617188 Z M 267.78125 192.875 C 266.046875 193.933594 264.625 195.34375 263.570312 197.003906 C 263.554688 195.003906 263.085938 193.027344 262.144531 191.191406 C 263.113281 190.597656 264.179688 190.128906 265.320312 189.792969 C 266.308594 190.671875 267.140625 191.726562 267.78125 192.875 Z M 258.003906 186.285156 C 259.3125 187.296875 260.386719 188.433594 261.226562 189.652344 C 261.964844 189.203125 262.765625 188.808594 263.621094 188.484375 C 262.191406 187.542969 259.527344 186.582031 258.003906 186.285156 Z M 256.09375 195.417969 C 255.800781 193.441406 255.058594 191.546875 253.875 189.859375 C 254.839844 189.0625 255.945312 188.402344 257.152344 187.890625 C 258.175781 188.714844 259.054688 189.652344 259.761719 190.683594 C 258.15625 191.980469 256.921875 193.597656 256.09375 195.417969 Z M 248.472656 187.28125 C 249.597656 187.960938 250.597656 188.765625 251.445312 189.6875 C 250.03125 191.199219 249.035156 192.96875 248.472656 194.886719 C 247.90625 192.96875 246.90625 191.199219 245.496094 189.6875 C 246.34375 188.765625 247.34375 187.960938 248.472656 187.28125 Z M 247.105469 178.886719 L 249.839844 178.886719 C 249.941406 185.941406 251.578125 184.773438 256.789062 186.105469 C 255.25 186.722656 253.898438 187.519531 252.75 188.464844 C 251.53125 187.234375 250.042969 186.066406 248.472656 185.125 C 246.894531 186.066406 245.410156 187.234375 244.191406 188.464844 C 243.039062 187.519531 241.691406 186.722656 240.152344 186.105469 C 245.363281 184.773438 246.996094 185.941406 247.105469 178.886719 " fill-opacity="1" fill-rule="evenodd"/></g><g clip-path="url(#5e63c41375)"><path fill="#ffcf00" d="M 234.285156 275.480469 C 234.019531 276.738281 233.9375 278.109375 233.925781 279.359375 C 233.914062 281.28125 234.074219 283.222656 234.339844 285.125 C 234.4375 285.816406 234.550781 286.507812 234.679688 287.195312 C 235.5 291.605469 237.011719 296.132812 239.90625 299.625 C 240.761719 300.660156 241.757812 301.636719 242.863281 302.402344 C 240.320312 299.941406 238.734375 296.648438 237.746094 293.160156 C 236 286.992188 235.847656 279.519531 236.78125 273.230469 C 235.691406 273.605469 234.542969 274.289062 234.285156 275.480469 Z M 249.929688 307.59375 C 250.191406 306.710938 250.347656 306.550781 251.261719 306.324219 C 253.308594 305.824219 255.289062 304.757812 257.0625 303.132812 C 261.457031 299.113281 263.597656 293.359375 264.664062 287.640625 C 265.5625 282.832031 265.796875 277.570312 264.847656 274.175781 C 263.851562 270.597656 257.296875 267.804688 249.242188 267.636719 C 248.984375 267.632812 248.726562 267.628906 248.472656 267.628906 C 248.214844 267.628906 247.957031 267.632812 247.699219 267.636719 C 239.640625 267.804688 233.09375 270.597656 232.09375 274.175781 C 231.144531 277.570312 231.378906 282.832031 232.273438 287.640625 C 233.34375 293.359375 235.484375 299.113281 239.878906 303.132812 C 241.652344 304.757812 243.632812 305.824219 245.679688 306.324219 C 246.589844 306.550781 246.75 306.710938 247.011719 307.59375 C 247.742188 310.0625 249.195312 310.0625 249.929688 307.59375 " fill-opacity="1" fill-rule="evenodd"/></g><g clip-path="url(#4ffcce6321)"><path fill="#ffcf00" d="M 247.011719 266.253906 C 246.613281 264.183594 245.6875 262.386719 244.375 260.921875 C 243.257812 262.59375 242.585938 264.546875 242.5 266.707031 C 244.007812 266.457031 245.53125 266.3125 247.011719 266.253906 Z M 236.265625 262.058594 C 235.328125 264 234.945312 266.191406 235.273438 268.519531 C 235.292969 268.671875 235.320312 268.824219 235.34375 268.972656 C 235.800781 268.734375 236.257812 268.519531 236.703125 268.335938 C 237.671875 267.925781 238.6875 267.585938 239.730469 267.304688 C 239.0625 265.160156 237.851562 263.398438 236.265625 262.058594 Z M 233.109375 270.429688 C 232.984375 270.039062 232.835938 269.652344 232.664062 269.265625 C 231.707031 267.117188 230.21875 265.460938 228.394531 264.3125 C 227.472656 267.449219 228.046875 272.019531 230.605469 274.320312 C 230.644531 274.144531 230.691406 273.96875 230.738281 273.796875 C 231.113281 272.449219 232.011719 271.289062 233.109375 270.429688 Z M 229.15625 262.683594 C 230.894531 263.742188 232.316406 265.152344 233.371094 266.8125 C 233.386719 264.816406 233.855469 262.835938 234.796875 261 C 233.824219 260.40625 232.757812 259.941406 231.621094 259.605469 C 230.628906 260.480469 229.800781 261.535156 229.15625 262.683594 Z M 238.9375 256.09375 C 237.628906 257.105469 236.554688 258.242188 235.710938 259.460938 C 234.976562 259.011719 234.175781 258.617188 233.320312 258.292969 C 234.75 257.351562 237.414062 256.390625 238.9375 256.09375 Z M 240.847656 265.226562 C 241.140625 263.25 241.878906 261.359375 243.066406 259.667969 C 242.101562 258.871094 240.996094 258.210938 239.785156 257.699219 C 238.765625 258.523438 237.886719 259.460938 237.175781 260.492188 C 238.785156 261.792969 240.019531 263.410156 240.847656 265.226562 Z M 249.929688 266.253906 C 250.328125 264.183594 251.25 262.386719 252.566406 260.921875 C 253.683594 262.59375 254.355469 264.546875 254.441406 266.707031 C 252.933594 266.457031 251.410156 266.3125 249.929688 266.253906 Z M 260.675781 262.058594 C 261.613281 264 261.996094 266.191406 261.667969 268.519531 C 261.644531 268.671875 261.621094 268.824219 261.59375 268.972656 C 261.140625 268.734375 260.683594 268.519531 260.238281 268.335938 C 259.269531 267.925781 258.253906 267.585938 257.210938 267.304688 C 257.878906 265.160156 259.085938 263.398438 260.675781 262.058594 Z M 263.828125 270.429688 C 263.957031 270.039062 264.105469 269.652344 264.277344 269.265625 C 265.234375 267.117188 266.71875 265.460938 268.546875 264.3125 C 269.472656 267.449219 268.890625 272.019531 266.335938 274.320312 C 266.292969 274.144531 266.25 273.96875 266.203125 273.796875 C 265.824219 272.449219 264.925781 271.289062 263.828125 270.429688 Z M 267.78125 262.683594 C 266.046875 263.742188 264.625 265.152344 263.570312 266.8125 C 263.554688 264.816406 263.085938 262.835938 262.144531 261 C 263.113281 260.40625 264.179688 259.941406 265.320312 259.605469 C 266.308594 260.480469 267.140625 261.535156 267.78125 262.683594 Z M 258.003906 256.09375 C 259.3125 257.105469 260.386719 258.242188 261.226562 259.460938 C 261.964844 259.011719 262.765625 258.617188 263.621094 258.292969 C 262.191406 257.351562 259.527344 256.390625 258.003906 256.09375 Z M 256.09375 265.226562 C 255.800781 263.25 255.058594 261.359375 253.875 259.667969 C 254.839844 258.871094 255.945312 258.210938 257.152344 257.699219 C 258.175781 258.523438 259.054688 259.460938 259.761719 260.492188 C 258.15625 261.792969 256.921875 263.410156 256.09375 265.226562 Z M 248.472656 257.09375 C 249.597656 257.769531 250.597656 258.574219 251.445312 259.496094 C 250.03125 261.007812 249.035156 262.777344 248.472656 264.695312 C 247.90625 262.777344 246.90625 261.007812 245.496094 259.496094 C 246.34375 258.574219 247.34375 257.769531 248.472656 257.09375 Z M 247.105469 248.695312 L 249.839844 248.695312 C 249.941406 255.753906 251.578125 254.582031 256.789062 255.917969 C 255.25 256.53125 253.898438 257.328125 252.75 258.273438 C 251.53125 257.042969 250.042969 255.875 248.472656 254.933594 C 246.894531 255.875 245.410156 257.042969 244.191406 258.273438 C 243.039062 257.328125 241.691406 256.53125 240.152344 255.917969 C 245.363281 254.582031 246.996094 255.753906 247.105469 248.695312 " fill-opacity="1" fill-rule="evenodd"/></g><g clip-path="url(#06a4289d66)"><path fill="#ffcf00" d="M 234.285156 340.523438 C 234.019531 341.78125 233.9375 343.152344 233.925781 344.402344 C 233.914062 346.324219 234.074219 348.269531 234.339844 350.167969 C 234.4375 350.859375 234.550781 351.550781 234.679688 352.238281 C 235.5 356.648438 237.011719 361.175781 239.90625 364.667969 C 240.761719 365.703125 241.757812 366.679688 242.863281 367.445312 C 240.320312 364.984375 238.734375 361.691406 237.746094 358.203125 C 236 352.035156 235.847656 344.5625 236.78125 338.273438 C 235.691406 338.648438 234.542969 339.332031 234.285156 340.523438 Z M 249.929688 372.640625 C 250.191406 371.757812 250.347656 371.597656 251.261719 371.371094 C 253.308594 370.867188 255.289062 369.800781 257.0625 368.175781 C 261.457031 364.15625 263.597656 358.402344 264.664062 352.683594 C 265.5625 347.875 265.796875 342.613281 264.847656 339.21875 C 263.851562 335.640625 257.296875 332.847656 249.242188 332.679688 C 248.984375 332.675781 248.726562 332.671875 248.472656 332.671875 C 248.214844 332.671875 247.957031 332.675781 247.699219 332.679688 C 239.640625 332.847656 233.09375 335.640625 232.09375 339.21875 C 231.144531 342.613281 231.378906 347.875 232.273438 352.683594 C 233.34375 358.402344 235.484375 364.15625 239.878906 368.175781 C 241.652344 369.800781 243.632812 370.867188 245.679688 371.371094 C 246.589844 371.597656 246.75 371.757812 247.011719 372.640625 C 247.742188 375.105469 249.195312 375.105469 249.929688 372.640625 " fill-opacity="1" fill-rule="evenodd"/></g><g clip-path="url(#443c12c0fb)"><path fill="#ffcf00" d="M 247.011719 331.296875 C 246.613281 329.226562 245.6875 327.433594 244.375 325.964844 C 243.257812 327.636719 242.585938 329.589844 242.5 331.75 C 244.007812 331.5 245.53125 331.355469 247.011719 331.296875 Z M 236.265625 327.101562 C 235.328125 329.042969 234.945312 331.234375 235.273438 333.5625 C 235.292969 333.714844 235.320312 333.867188 235.34375 334.015625 C 235.800781 333.777344 236.257812 333.566406 236.703125 333.378906 C 237.671875 332.972656 238.6875 332.628906 239.730469 332.351562 C 239.0625 330.203125 237.851562 328.441406 236.265625 327.101562 Z M 233.109375 335.472656 C 232.984375 335.082031 232.835938 334.695312 232.664062 334.308594 C 231.707031 332.164062 230.21875 330.507812 228.394531 329.355469 C 227.472656 332.492188 228.046875 337.066406 230.605469 339.363281 C 230.644531 339.1875 230.691406 339.015625 230.738281 338.84375 C 231.113281 337.492188 232.011719 336.332031 233.109375 335.472656 Z M 229.15625 327.726562 C 230.894531 328.785156 232.316406 330.195312 233.371094 331.859375 C 233.386719 329.859375 233.855469 327.878906 234.796875 326.042969 C 233.824219 325.449219 232.757812 324.984375 231.621094 324.648438 C 230.628906 325.523438 229.800781 326.582031 229.15625 327.726562 Z M 238.9375 321.136719 C 237.628906 322.148438 236.554688 323.285156 235.710938 324.507812 C 234.976562 324.054688 234.175781 323.664062 233.320312 323.335938 C 234.75 322.394531 237.414062 321.433594 238.9375 321.136719 Z M 240.847656 330.273438 C 241.140625 328.292969 241.878906 326.402344 243.066406 324.710938 C 242.101562 323.917969 240.996094 323.257812 239.785156 322.742188 C 238.765625 323.566406 237.886719 324.507812 237.175781 325.535156 C 238.785156 326.835938 240.019531 328.453125 240.847656 330.273438 Z M 249.929688 331.296875 C 250.328125 329.226562 251.25 327.433594 252.566406 325.964844 C 253.683594 327.636719 254.355469 329.589844 254.441406 331.75 C 252.933594 331.5 251.410156 331.355469 249.929688 331.296875 Z M 260.675781 327.101562 C 261.613281 329.042969 261.996094 331.234375 261.667969 333.5625 C 261.644531 333.714844 261.621094 333.867188 261.59375 334.015625 C 261.140625 333.777344 260.683594 333.566406 260.238281 333.378906 C 259.269531 332.972656 258.253906 332.628906 257.210938 332.351562 C 257.878906 330.203125 259.085938 328.441406 260.675781 327.101562 Z M 263.828125 335.472656 C 263.957031 335.082031 264.105469 334.695312 264.277344 334.308594 C 265.234375 332.164062 266.71875 330.507812 268.546875 329.355469 C 269.472656 332.492188 268.890625 337.066406 266.335938 339.363281 C 266.292969 339.1875 266.25 339.015625 266.203125 338.84375 C 265.824219 337.492188 264.925781 336.332031 263.828125 335.472656 Z M 267.78125 327.726562 C 266.046875 328.785156 264.625 330.195312 263.570312 331.859375 C 263.554688 329.859375 263.085938 327.878906 262.144531 326.042969 C 263.113281 325.449219 264.179688 324.984375 265.320312 324.648438 C 266.308594 325.523438 267.140625 326.582031 267.78125 327.726562 Z M 258.003906 321.136719 C 259.3125 322.148438 260.386719 323.285156 261.226562 324.507812 C 261.964844 324.054688 262.765625 323.664062 263.621094 323.335938 C 262.191406 322.394531 259.527344 321.433594 258.003906 321.136719 Z M 256.09375 330.273438 C 255.800781 328.292969 255.058594 326.402344 253.875 324.710938 C 254.839844 323.917969 255.945312 323.257812 257.152344 322.742188 C 258.175781 323.566406 259.054688 324.507812 259.761719 325.535156 C 258.15625 326.835938 256.921875 328.453125 256.09375 330.273438 Z M 248.472656 322.136719 C 249.597656 322.8125 250.597656 323.621094 251.445312 324.539062 C 250.03125 326.050781 249.035156 327.820312 248.472656 329.738281 C 247.90625 327.820312 246.90625 326.050781 245.496094 324.539062 C 246.34375 323.621094 247.34375 322.8125 248.472656 322.136719 Z M 247.105469 313.742188 L 249.839844 313.742188 C 249.941406 320.796875 251.578125 319.628906 256.789062 320.960938 C 255.25 321.574219 253.898438 322.375 252.75 323.316406 C 251.53125 322.089844 250.042969 320.917969 248.472656 319.980469 C 246.894531 320.917969 245.410156 322.089844 244.191406 323.316406 C 243.039062 322.375 241.691406 321.574219 240.152344 320.960938 C 245.363281 319.628906 246.996094 320.796875 247.105469 313.742188 " fill-opacity="1" fill-rule="evenodd"/></g><g clip-path="url(#8324b11e8f)"><path fill="#ffcf00" d="M 234.285156 405.835938 C 234.019531 407.089844 233.9375 408.460938 233.925781 409.714844 C 233.914062 411.632812 234.074219 413.578125 234.339844 415.476562 C 234.4375 416.167969 234.550781 416.859375 234.679688 417.546875 C 235.5 421.960938 237.011719 426.484375 239.90625 429.976562 C 240.761719 431.011719 241.757812 431.988281 242.863281 432.753906 C 240.320312 430.292969 238.734375 427 237.746094 423.515625 C 236 417.347656 235.847656 409.871094 236.78125 403.582031 C 235.691406 403.957031 234.542969 404.640625 234.285156 405.835938 Z M 249.929688 437.949219 C 250.191406 437.066406 250.347656 436.90625 251.261719 436.679688 C 253.308594 436.175781 255.289062 435.109375 257.0625 433.484375 C 261.457031 429.464844 263.597656 423.710938 264.664062 417.992188 C 265.5625 413.183594 265.796875 407.921875 264.847656 404.527344 C 263.851562 400.949219 257.296875 398.15625 249.242188 397.992188 C 248.984375 397.984375 248.726562 397.984375 248.472656 397.984375 C 248.214844 397.984375 247.957031 397.984375 247.699219 397.992188 C 239.640625 398.15625 233.09375 400.949219 232.09375 404.527344 C 231.144531 407.921875 231.378906 413.183594 232.273438 417.992188 C 233.34375 423.710938 235.484375 429.464844 239.878906 433.484375 C 241.652344 435.109375 243.632812 436.175781 245.679688 436.679688 C 246.589844 436.90625 246.75 437.066406 247.011719 437.949219 C 247.742188 440.417969 249.195312 440.417969 249.929688 437.949219 " fill-opacity="1" fill-rule="evenodd"/></g><g clip-path="url(#26057879fe)"><path fill="#ffcf00" d="M 247.011719 396.605469 C 246.613281 394.535156 245.6875 392.742188 244.375 391.273438 C 243.257812 392.945312 242.585938 394.898438 242.5 397.058594 C 244.007812 396.808594 245.53125 396.664062 247.011719 396.605469 Z M 236.265625 392.410156 C 235.328125 394.355469 234.945312 396.542969 235.273438 398.875 C 235.292969 399.023438 235.320312 399.175781 235.34375 399.324219 C 235.800781 399.085938 236.257812 398.875 236.703125 398.6875 C 237.671875 398.28125 238.6875 397.941406 239.730469 397.660156 C 239.0625 395.515625 237.851562 393.753906 236.265625 392.410156 Z M 233.109375 400.78125 C 232.984375 400.394531 232.835938 400.003906 232.664062 399.621094 C 231.707031 397.472656 230.21875 395.816406 228.394531 394.664062 C 227.472656 397.800781 228.046875 402.375 230.605469 404.671875 C 230.644531 404.496094 230.691406 404.324219 230.738281 404.152344 C 231.113281 402.804688 232.011719 401.640625 233.109375 400.78125 Z M 229.15625 393.035156 C 230.894531 394.09375 232.316406 395.503906 233.371094 397.167969 C 233.386719 395.167969 233.855469 393.191406 234.796875 391.351562 C 233.824219 390.757812 232.757812 390.292969 231.621094 389.957031 C 230.628906 390.832031 229.800781 391.890625 229.15625 393.035156 Z M 238.9375 386.445312 C 237.628906 387.457031 236.554688 388.597656 235.710938 389.816406 C 234.976562 389.367188 234.175781 388.972656 233.320312 388.644531 C 234.75 387.703125 237.414062 386.742188 238.9375 386.445312 Z M 240.847656 395.582031 C 241.140625 393.601562 241.878906 391.710938 243.066406 390.019531 C 242.101562 389.226562 240.996094 388.566406 239.785156 388.050781 C 238.765625 388.878906 237.886719 389.816406 237.175781 390.847656 C 238.785156 392.144531 240.019531 393.761719 240.847656 395.582031 Z M 249.929688 396.605469 C 250.328125 394.535156 251.25 392.742188 252.566406 391.273438 C 253.683594 392.945312 254.355469 394.898438 254.441406 397.058594 C 252.933594 396.808594 251.410156 396.664062 249.929688 396.605469 Z M 260.675781 392.410156 C 261.613281 394.355469 261.996094 396.542969 261.667969 398.875 C 261.644531 399.023438 261.621094 399.175781 261.59375 399.324219 C 261.140625 399.085938 260.683594 398.875 260.238281 398.6875 C 259.269531 398.28125 258.253906 397.941406 257.210938 397.660156 C 257.878906 395.515625 259.085938 393.753906 260.675781 392.410156 Z M 263.828125 400.78125 C 263.957031 400.394531 264.105469 400.003906 264.277344 399.621094 C 265.234375 397.472656 266.71875 395.816406 268.546875 394.664062 C 269.472656 397.800781 268.890625 402.375 266.335938 404.671875 C 266.292969 404.496094 266.25 404.324219 266.203125 404.152344 C 265.824219 402.804688 264.925781 401.640625 263.828125 400.78125 Z M 267.78125 393.035156 C 266.046875 394.09375 264.625 395.503906 263.570312 397.167969 C 263.554688 395.167969 263.085938 393.191406 262.144531 391.351562 C 263.113281 390.757812 264.179688 390.292969 265.320312 389.957031 C 266.308594 390.832031 267.140625 391.890625 267.78125 393.035156 Z M 258.003906 386.445312 C 259.3125 387.457031 260.386719 388.597656 261.226562 389.816406 C 261.964844 389.367188 262.765625 388.972656 263.621094 388.644531 C 262.191406 387.703125 259.527344 386.742188 258.003906 386.445312 Z M 256.09375 395.582031 C 255.800781 393.601562 255.058594 391.710938 253.875 390.019531 C 254.839844 389.226562 255.945312 388.566406 257.152344 388.050781 C 258.175781 388.878906 259.054688 389.816406 259.761719 390.847656 C 258.15625 392.144531 256.921875 393.761719 256.09375 395.582031 Z M 248.472656 387.445312 C 249.597656 388.121094 250.597656 388.929688 251.445312 389.851562 C 250.03125 391.359375 249.035156 393.132812 248.472656 395.046875 C 247.90625 393.132812 246.90625 391.359375 245.496094 389.851562 C 246.34375 388.929688 247.34375 388.121094 248.472656 387.445312 Z M 247.105469 379.050781 L 249.839844 379.050781 C 249.941406 386.105469 251.578125 384.9375 256.789062 386.269531 C 255.25 386.882812 253.898438 387.683594 252.75 388.625 C 251.53125 387.398438 250.042969 386.226562 248.472656 385.289062 C 246.894531 386.226562 245.410156 387.398438 244.191406 388.625 C 243.039062 387.683594 241.691406 386.882812 240.152344 386.269531 C 245.363281 384.9375 246.996094 386.105469 247.105469 379.050781 " fill-opacity="1" fill-rule="evenodd"/></g></svg>