<svg xmlns="http://www.w3.org/2000/svg" xmlns:xlink="http://www.w3.org/1999/xlink" width="480" zoomAndPan="magnify" viewBox="0 0 360 503.999982" height="672" preserveAspectRatio="xMidYMid meet" version="1.0"><defs><filter x="0%" y="0%" width="100%" height="100%" id="af0aa9897f"><feColorMatrix values="0 0 0 0 1 0 0 0 0 1 0 0 0 0 1 0 0 0 1 0" color-interpolation-filters="sRGB"/></filter><g/><mask id="b1f93ffab2"><g filter="url(#af0aa9897f)"><rect x="-36" width="432" fill="#000000" y="-50.399998" height="604.799979" fill-opacity="0.1373"/></g></mask><clipPath id="c937b4982d"><path d="M 0 0 L 1 0 L 1 432.847656 L 0 432.847656 Z M 0 0 " clip-rule="nonzero"/></clipPath><clipPath id="5943e048e5"><path d="M 0 0 L 18 0 L 18 432.847656 L 0 432.847656 Z M 0 0 " clip-rule="nonzero"/></clipPath><clipPath id="8264f6519d"><path d="M 0 0 L 35 0 L 35 432.847656 L 0 432.847656 Z M 0 0 " clip-rule="nonzero"/></clipPath><clipPath id="b606163856"><path d="M 0 0 L 53 0 L 53 432.847656 L 0 432.847656 Z M 0 0 " clip-rule="nonzero"/></clipPath><clipPath id="8b98ea49a4"><path d="M 0 0 L 70 0 L 70 432.847656 L 0 432.847656 Z M 0 0 " clip-rule="nonzero"/></clipPath><clipPath id="426f025779"><path d="M 0 0 L 88 0 L 88 432.847656 L 0 432.847656 Z M 0 0 " clip-rule="nonzero"/></clipPath><clipPath id="9a4d0f3c95"><path d="M 0 0 L 105 0 L 105 432.847656 L 0 432.847656 Z M 0 0 " clip-rule="nonzero"/></clipPath><clipPath id="a58bf1663b"><path d="M 0 0 L 122 0 L 122 432.847656 L 0 432.847656 Z M 0 0 " clip-rule="nonzero"/></clipPath><clipPath id="5728fd38c1"><path d="M 0 0 L 140 0 L 140 432.847656 L 0 432.847656 Z M 0 0 " clip-rule="nonzero"/></clipPath><clipPath id="b727951146"><path d="M 0 0 L 157 0 L 157 432.847656 L 0 432.847656 Z M 0 0 " clip-rule="nonzero"/></clipPath><clipPath id="f4f3cd01d7"><path d="M 0 0 L 175 0 L 175 432.847656 L 0 432.847656 Z M 0 0 " clip-rule="nonzero"/></clipPath><clipPath id="e50ebcfedc"><path d="M 0 0 L 192 0 L 192 432.847656 L 0 432.847656 Z M 0 0 " clip-rule="nonzero"/></clipPath><clipPath id="29c1768981"><path d="M 0 0 L 208.722656 0 L 208.722656 432.847656 L 0 432.847656 Z M 0 0 " clip-rule="nonzero"/></clipPath><clipPath id="584a2d9a28"><rect x="0" width="209" y="0" height="434"/></clipPath><mask id="06f0af7a4b"><g filter="url(#af0aa9897f)"><rect x="-36" width="432" fill="#000000" y="-50.399998" height="604.799979" fill-opacity="0.1373"/></g></mask><clipPath id="340b6f08c6"><path d="M 0.222656 1 L 122 1 L 122 501.648438 L 0.222656 501.648438 Z M 0.222656 1 " clip-rule="nonzero"/></clipPath><clipPath id="4f338450ae"><path d="M 17 1 L 122 1 L 122 501.648438 L 17 501.648438 Z M 17 1 " clip-rule="nonzero"/></clipPath><clipPath id="7d80ce53d3"><path d="M 35 1 L 122 1 L 122 501.648438 L 35 501.648438 Z M 35 1 " clip-rule="nonzero"/></clipPath><clipPath id="a893acd8e2"><path d="M 52 1 L 122 1 L 122 501.648438 L 52 501.648438 Z M 52 1 " clip-rule="nonzero"/></clipPath><clipPath id="6fbf237b2d"><path d="M 70 1 L 122 1 L 122 501.648438 L 70 501.648438 Z M 70 1 " clip-rule="nonzero"/></clipPath><clipPath id="5815ced640"><path d="M 87 1 L 122 1 L 122 501.648438 L 87 501.648438 Z M 87 1 " clip-rule="nonzero"/></clipPath><clipPath id="26eff66d9b"><path d="M 104 1 L 122 1 L 122 501.648438 L 104 501.648438 Z M 104 1 " clip-rule="nonzero"/></clipPath><clipPath id="d24d9900e5"><rect x="0" width="122" y="0" height="502"/></clipPath><mask id="9826ed2694"><g filter="url(#af0aa9897f)"><rect x="-36" width="432" fill="#000000" y="-50.399998" height="604.799979" fill-opacity="0.1373"/></g></mask><clipPath id="011f9f5242"><path d="M 0 1 L 197 1 L 197 501.648438 L 0 501.648438 Z M 0 1 " clip-rule="nonzero"/></clipPath><clipPath id="da509f9be0"><path d="M 0 1 L 214 1 L 214 501.648438 L 0 501.648438 Z M 0 1 " clip-rule="nonzero"/></clipPath><clipPath id="df92ec9624"><path d="M 12 1 L 232 1 L 232 501.648438 L 12 501.648438 Z M 12 1 " clip-rule="nonzero"/></clipPath><clipPath id="bd8e95a960"><path d="M 29 1 L 249 1 L 249 501.648438 L 29 501.648438 Z M 29 1 " clip-rule="nonzero"/></clipPath><clipPath id="0cd040aa4a"><path d="M 47 1 L 267 1 L 267 501.648438 L 47 501.648438 Z M 47 1 " clip-rule="nonzero"/></clipPath><clipPath id="4e6105c805"><path d="M 64 1 L 284 1 L 284 501.648438 L 64 501.648438 Z M 64 1 " clip-rule="nonzero"/></clipPath><clipPath id="c7bdb744e8"><path d="M 81 1 L 301 1 L 301 501.648438 L 81 501.648438 Z M 81 1 " clip-rule="nonzero"/></clipPath><clipPath id="9054269a00"><path d="M 99 1 L 319 1 L 319 501.648438 L 99 501.648438 Z M 99 1 " clip-rule="nonzero"/></clipPath><clipPath id="f581493ee2"><path d="M 116 1 L 336 1 L 336 501.648438 L 116 501.648438 Z M 116 1 " clip-rule="nonzero"/></clipPath><clipPath id="a08c411cec"><path d="M 134 1 L 354 1 L 354 501.648438 L 134 501.648438 Z M 134 1 " clip-rule="nonzero"/></clipPath><clipPath id="0d8a1ab8fb"><path d="M 151 1 L 360 1 L 360 501.648438 L 151 501.648438 Z M 151 1 " clip-rule="nonzero"/></clipPath><clipPath id="1eecb95a0f"><path d="M 168 1 L 360 1 L 360 501.648438 L 168 501.648438 Z M 168 1 " clip-rule="nonzero"/></clipPath><clipPath id="03d7cf8fab"><path d="M 186 1 L 360 1 L 360 501.648438 L 186 501.648438 Z M 186 1 " clip-rule="nonzero"/></clipPath><clipPath id="0f8d16a7f8"><path d="M 203 1 L 360 1 L 360 501.648438 L 203 501.648438 Z M 203 1 " clip-rule="nonzero"/></clipPath><clipPath id="3b04de51d5"><path d="M 221 1 L 360 1 L 360 501.648438 L 221 501.648438 Z M 221 1 " clip-rule="nonzero"/></clipPath><clipPath id="6383451c5d"><rect x="0" width="360" y="0" height="502"/></clipPath><clipPath id="99c75fe911"><path d="M 28.015625 36 L 331.765625 36 L 331.765625 468 L 28.015625 468 Z M 28.015625 36 " clip-rule="nonzero"/></clipPath><clipPath id="291d1766bd"><path d="M 94.863281 136.191406 L 128.875 136.191406 L 128.875 178.023438 L 94.863281 178.023438 Z M 94.863281 136.191406 " clip-rule="nonzero"/></clipPath><clipPath id="45f045e263"><path d="M 91 117.273438 L 132.867188 117.273438 L 132.867188 143 L 91 143 Z M 91 117.273438 " clip-rule="nonzero"/></clipPath><clipPath id="fb121754bf"><path d="M 94.863281 221.070312 L 128.875 221.070312 L 128.875 262.902344 L 94.863281 262.902344 Z M 94.863281 221.070312 " clip-rule="nonzero"/></clipPath><clipPath id="75f6b612b4"><path d="M 91 202.152344 L 132.867188 202.152344 L 132.867188 228 L 91 228 Z M 91 202.152344 " clip-rule="nonzero"/></clipPath><clipPath id="efef7e0668"><path d="M 94.863281 309.386719 L 128.875 309.386719 L 128.875 351.21875 L 94.863281 351.21875 Z M 94.863281 309.386719 " clip-rule="nonzero"/></clipPath><clipPath id="88fc2c8a90"><path d="M 91 290.46875 L 132.867188 290.46875 L 132.867188 317 L 91 317 Z M 91 290.46875 " clip-rule="nonzero"/></clipPath><clipPath id="8831e5624c"><path d="M 94.863281 397.195312 L 128.875 397.195312 L 128.875 439.027344 L 94.863281 439.027344 Z M 94.863281 397.195312 " clip-rule="nonzero"/></clipPath><clipPath id="a2f6607f5c"><path d="M 91 378.277344 L 132.867188 378.277344 L 132.867188 404 L 91 404 Z M 91 378.277344 " clip-rule="nonzero"/></clipPath><clipPath id="d10388761f"><path d="M 231.464844 136.191406 L 265.476562 136.191406 L 265.476562 178.023438 L 231.464844 178.023438 Z M 231.464844 136.191406 " clip-rule="nonzero"/></clipPath><clipPath id="0ff9cd1aef"><path d="M 227.46875 117.273438 L 269 117.273438 L 269 143 L 227.46875 143 Z M 227.46875 117.273438 " clip-rule="nonzero"/></clipPath><clipPath id="39e1b862ef"><path d="M 231.464844 221.070312 L 265.476562 221.070312 L 265.476562 262.902344 L 231.464844 262.902344 Z M 231.464844 221.070312 " clip-rule="nonzero"/></clipPath><clipPath id="199be5ae50"><path d="M 227.46875 202.152344 L 269 202.152344 L 269 228 L 227.46875 228 Z M 227.46875 202.152344 " clip-rule="nonzero"/></clipPath><clipPath id="ca510c85b0"><path d="M 231.464844 309.386719 L 265.476562 309.386719 L 265.476562 351.21875 L 231.464844 351.21875 Z M 231.464844 309.386719 " clip-rule="nonzero"/></clipPath><clipPath id="22b4dc395d"><path d="M 227.46875 290.46875 L 269 290.46875 L 269 317 L 227.46875 317 Z M 227.46875 290.46875 " clip-rule="nonzero"/></clipPath><clipPath id="c5550a8396"><path d="M 231.464844 397.195312 L 265.476562 397.195312 L 265.476562 439.027344 L 231.464844 439.027344 Z M 231.464844 397.195312 " clip-rule="nonzero"/></clipPath><clipPath id="c42b70b881"><path d="M 227.46875 378.277344 L 269 378.277344 L 269 404 L 227.46875 404 Z M 227.46875 378.277344 " clip-rule="nonzero"/></clipPath></defs><rect x="-36" width="432" fill="#ffffff" y="-50.399998" height="604.799979" fill-opacity="1"/><rect x="-36" width="432" fill="#323232" y="-50.399998" height="604.799979" fill-opacity="1"/><g mask="url(#b1f93ffab2)"><g transform="matrix(1, 0, 0, 1, 0, 0)"><g clip-path="url(#584a2d9a28)"><g clip-path="url(#c937b4982d)"><path fill="#000000" d="M -217.589844 432.296875 L -219.066406 431.664062 L -1.417969 -67.574219 L 0.0507812 -66.9375 Z M -217.589844 432.296875 " fill-opacity="1" fill-rule="nonzero"/></g><g clip-path="url(#5943e048e5)"><path fill="#000000" d="M -200.175781 432.296875 L -201.652344 431.664062 L 15.992188 -67.574219 L 17.460938 -66.9375 Z M -200.175781 432.296875 " fill-opacity="1" fill-rule="nonzero"/></g><g clip-path="url(#8264f6519d)"><path fill="#000000" d="M -182.765625 432.296875 L -184.242188 431.664062 L 33.40625 -67.574219 L 34.875 -66.9375 Z M -182.765625 432.296875 " fill-opacity="1" fill-rule="nonzero"/></g><g clip-path="url(#b606163856)"><path fill="#000000" d="M -165.359375 432.296875 L -166.828125 431.664062 L 50.816406 -67.574219 L 52.289062 -66.9375 Z M -165.359375 432.296875 " fill-opacity="1" fill-rule="nonzero"/></g><g clip-path="url(#8b98ea49a4)"><path fill="#000000" d="M -147.945312 432.296875 L -149.421875 431.664062 L 68.222656 -67.574219 L 69.699219 -66.9375 Z M -147.945312 432.296875 " fill-opacity="1" fill-rule="nonzero"/></g><g clip-path="url(#426f025779)"><path fill="#000000" d="M -130.535156 432.296875 L -132.011719 431.664062 L 85.636719 -67.574219 L 87.113281 -66.9375 Z M -130.535156 432.296875 " fill-opacity="1" fill-rule="nonzero"/></g><g clip-path="url(#9a4d0f3c95)"><path fill="#000000" d="M -113.121094 432.296875 L -114.597656 431.664062 L 103.050781 -67.574219 L 104.523438 -66.9375 Z M -113.121094 432.296875 " fill-opacity="1" fill-rule="nonzero"/></g><g clip-path="url(#a58bf1663b)"><path fill="#000000" d="M -95.707031 432.296875 L -97.183594 431.664062 L 120.460938 -67.574219 L 121.929688 -66.9375 Z M -95.707031 432.296875 " fill-opacity="1" fill-rule="nonzero"/></g><g clip-path="url(#5728fd38c1)"><path fill="#000000" d="M -78.304688 432.296875 L -79.773438 431.664062 L 137.875 -67.574219 L 139.34375 -66.9375 Z M -78.304688 432.296875 " fill-opacity="1" fill-rule="nonzero"/></g><g clip-path="url(#b727951146)"><path fill="#000000" d="M -60.890625 432.296875 L -62.359375 431.664062 L 155.28125 -67.574219 L 156.757812 -66.9375 Z M -60.890625 432.296875 " fill-opacity="1" fill-rule="nonzero"/></g><g clip-path="url(#f4f3cd01d7)"><path fill="#000000" d="M -43.476562 432.296875 L -44.949219 431.664062 L 172.691406 -67.574219 L 174.167969 -66.9375 Z M -43.476562 432.296875 " fill-opacity="1" fill-rule="nonzero"/></g><g clip-path="url(#e50ebcfedc)"><path fill="#000000" d="M -26.066406 432.296875 L -27.535156 431.664062 L 190.105469 -67.574219 L 191.582031 -66.9375 Z M -26.066406 432.296875 " fill-opacity="1" fill-rule="nonzero"/></g><g clip-path="url(#29c1768981)"><path fill="#000000" d="M -8.652344 432.296875 L -10.128906 431.664062 L 207.515625 -67.574219 L 208.992188 -66.9375 Z M -8.652344 432.296875 " fill-opacity="1" fill-rule="nonzero"/></g></g></g></g><g mask="url(#06f0af7a4b)"><g transform="matrix(1, 0, 0, 1, 238, 2)"><g clip-path="url(#d24d9900e5)"><g clip-path="url(#340b6f08c6)"><path fill="#000000" d="M 1.832031 501.097656 L 0.363281 500.460938 L 218.003906 1.226562 L 219.480469 1.859375 Z M 1.832031 501.097656 " fill-opacity="1" fill-rule="nonzero"/></g><g clip-path="url(#4f338450ae)"><path fill="#000000" d="M 19.246094 501.097656 L 17.769531 500.460938 L 235.414062 1.226562 L 236.890625 1.859375 Z M 19.246094 501.097656 " fill-opacity="1" fill-rule="nonzero"/></g><g clip-path="url(#7d80ce53d3)"><path fill="#000000" d="M 36.65625 501.097656 L 35.183594 500.460938 L 252.828125 1.226562 L 254.296875 1.859375 Z M 36.65625 501.097656 " fill-opacity="1" fill-rule="nonzero"/></g><g clip-path="url(#a893acd8e2)"><path fill="#000000" d="M 54.070312 501.097656 L 52.59375 500.460938 L 270.242188 1.226562 L 271.710938 1.859375 Z M 54.070312 501.097656 " fill-opacity="1" fill-rule="nonzero"/></g><g clip-path="url(#6fbf237b2d)"><path fill="#000000" d="M 71.484375 501.097656 L 70.007812 500.460938 L 287.652344 1.226562 L 289.125 1.859375 Z M 71.484375 501.097656 " fill-opacity="1" fill-rule="nonzero"/></g><g clip-path="url(#5815ced640)"><path fill="#000000" d="M 88.890625 501.097656 L 87.417969 500.460938 L 305.066406 1.226562 L 306.535156 1.859375 Z M 88.890625 501.097656 " fill-opacity="1" fill-rule="nonzero"/></g><g clip-path="url(#26eff66d9b)"><path fill="#000000" d="M 106.300781 501.097656 L 104.824219 500.460938 L 322.472656 1.226562 L 323.949219 1.859375 Z M 106.300781 501.097656 " fill-opacity="1" fill-rule="nonzero"/></g></g></g></g><g mask="url(#9826ed2694)"><g transform="matrix(1, 0, 0, 1, 0, 2)"><g clip-path="url(#6383451c5d)"><g clip-path="url(#011f9f5242)"><path fill="#000000" d="M -21.167969 501.097656 L -22.636719 500.460938 L 195.003906 1.226562 L 196.480469 1.859375 Z M -21.167969 501.097656 " fill-opacity="1" fill-rule="nonzero"/></g><g clip-path="url(#da509f9be0)"><path fill="#000000" d="M -3.753906 501.097656 L -5.230469 500.460938 L 212.414062 1.226562 L 213.890625 1.859375 Z M -3.753906 501.097656 " fill-opacity="1" fill-rule="nonzero"/></g><g clip-path="url(#df92ec9624)"><path fill="#000000" d="M 13.65625 501.097656 L 12.183594 500.460938 L 229.828125 1.226562 L 231.296875 1.859375 Z M 13.65625 501.097656 " fill-opacity="1" fill-rule="nonzero"/></g><g clip-path="url(#bd8e95a960)"><path fill="#000000" d="M 31.070312 501.097656 L 29.59375 500.460938 L 247.242188 1.226562 L 248.710938 1.859375 Z M 31.070312 501.097656 " fill-opacity="1" fill-rule="nonzero"/></g><g clip-path="url(#0cd040aa4a)"><path fill="#000000" d="M 48.484375 501.097656 L 47.007812 500.460938 L 264.652344 1.226562 L 266.125 1.859375 Z M 48.484375 501.097656 " fill-opacity="1" fill-rule="nonzero"/></g><g clip-path="url(#4e6105c805)"><path fill="#000000" d="M 65.890625 501.097656 L 64.417969 500.460938 L 282.066406 1.226562 L 283.535156 1.859375 Z M 65.890625 501.097656 " fill-opacity="1" fill-rule="nonzero"/></g><g clip-path="url(#c7bdb744e8)"><path fill="#000000" d="M 83.300781 501.097656 L 81.824219 500.460938 L 299.472656 1.226562 L 300.949219 1.859375 Z M 83.300781 501.097656 " fill-opacity="1" fill-rule="nonzero"/></g><g clip-path="url(#9054269a00)"><path fill="#000000" d="M 100.714844 501.097656 L 99.238281 500.460938 L 316.882812 1.226562 L 318.359375 1.859375 Z M 100.714844 501.097656 " fill-opacity="1" fill-rule="nonzero"/></g><g clip-path="url(#f581493ee2)"><path fill="#000000" d="M 118.125 501.097656 L 116.652344 500.460938 L 334.296875 1.226562 L 335.773438 1.859375 Z M 118.125 501.097656 " fill-opacity="1" fill-rule="nonzero"/></g><g clip-path="url(#a08c411cec)"><path fill="#000000" d="M 135.539062 501.097656 L 134.0625 500.460938 L 351.710938 1.226562 L 353.179688 1.859375 Z M 135.539062 501.097656 " fill-opacity="1" fill-rule="nonzero"/></g><g clip-path="url(#0d8a1ab8fb)"><path fill="#000000" d="M 152.945312 501.097656 L 151.476562 500.460938 L 369.121094 1.226562 L 370.589844 1.859375 Z M 152.945312 501.097656 " fill-opacity="1" fill-rule="nonzero"/></g><g clip-path="url(#1eecb95a0f)"><path fill="#000000" d="M 170.359375 501.097656 L 168.886719 500.460938 L 386.527344 1.226562 L 388.003906 1.859375 Z M 170.359375 501.097656 " fill-opacity="1" fill-rule="nonzero"/></g><g clip-path="url(#03d7cf8fab)"><path fill="#000000" d="M 187.769531 501.097656 L 186.300781 500.460938 L 403.941406 1.226562 L 405.417969 1.859375 Z M 187.769531 501.097656 " fill-opacity="1" fill-rule="nonzero"/></g><g clip-path="url(#0f8d16a7f8)"><path fill="#000000" d="M 205.183594 501.097656 L 203.710938 500.460938 L 421.351562 1.226562 L 422.828125 1.859375 Z M 205.183594 501.097656 " fill-opacity="1" fill-rule="nonzero"/></g><g clip-path="url(#3b04de51d5)"><path fill="#000000" d="M 222.59375 501.097656 L 221.117188 500.460938 L 438.765625 1.226562 L 440.242188 1.859375 Z M 222.59375 501.097656 " fill-opacity="1" fill-rule="nonzero"/></g></g></g></g><g clip-path="url(#99c75fe911)"><path fill="#ffcf00" d="M 331.601562 467.976562 L 28.1875 467.976562 L 28.1875 36 L 331.601562 36 Z M 29.066406 467.097656 L 330.722656 467.097656 L 330.722656 36.878906 L 29.066406 36.878906 Z M 29.066406 467.097656 " fill-opacity="1" fill-rule="nonzero"/></g><g fill="#ffcf00" fill-opacity="1"><g transform="translate(44.874898, 95.039993)"><g><path d="M 22.417969 -22.417969 C 27.011719 -23.660156 30.054688 -27.449219 30.054688 -32.476562 C 30.054688 -38.8125 25.710938 -43.71875 17.324219 -43.71875 C 9.191406 -43.71875 4.535156 -38.8125 4.535156 -32.476562 C 4.535156 -27.449219 7.328125 -23.722656 11.859375 -22.355469 C 6.210938 -20.925781 2.484375 -16.765625 2.484375 -11.179688 C 2.484375 -3.105469 8.816406 0.929688 16.828125 0.929688 C 24.34375 0.929688 31.175781 -3.105469 31.175781 -11.179688 C 31.175781 -16.765625 28.007812 -20.925781 22.417969 -22.417969 Z M 7.140625 -32.476562 C 7.140625 -38.003906 10.992188 -41.667969 17.324219 -41.667969 C 23.660156 -41.667969 27.511719 -38.003906 27.511719 -32.476562 C 27.511719 -26.269531 22.667969 -23.289062 17.324219 -23.289062 C 11.984375 -23.289062 7.140625 -26.269531 7.140625 -32.476562 Z M 16.953125 -1.117188 C 10.804688 -1.117188 5.09375 -4.347656 5.09375 -11.117188 C 5.09375 -16.890625 9.316406 -21.238281 17.078125 -21.238281 C 24.839844 -21.238281 28.566406 -16.890625 28.566406 -11.117188 C 28.566406 -4.347656 22.789062 -1.117188 16.953125 -1.117188 Z M 16.953125 -1.117188 "/></g></g></g><g clip-path="url(#291d1766bd)"><path fill="#ffcf00" d="M 97.683594 144.058594 C 97.417969 145.316406 97.335938 146.6875 97.324219 147.9375 C 97.308594 149.859375 97.472656 151.800781 97.738281 153.703125 C 97.835938 154.394531 97.949219 155.085938 98.074219 155.773438 C 98.898438 160.183594 100.410156 164.710938 103.304688 168.203125 C 104.160156 169.238281 105.15625 170.214844 106.261719 170.980469 C 103.71875 168.519531 102.132812 165.226562 101.144531 161.738281 C 99.398438 155.570312 99.246094 148.097656 100.179688 141.808594 C 99.089844 142.183594 97.941406 142.867188 97.683594 144.058594 Z M 113.328125 176.171875 C 113.585938 175.289062 113.746094 175.128906 114.660156 174.902344 C 116.703125 174.402344 118.6875 173.335938 120.460938 171.710938 C 124.855469 167.691406 126.996094 161.9375 128.0625 156.21875 C 128.960938 151.410156 129.191406 146.148438 128.246094 142.753906 C 127.246094 139.175781 120.695312 136.382812 112.640625 136.214844 C 112.382812 136.210938 112.125 136.207031 111.867188 136.207031 C 111.613281 136.207031 111.355469 136.210938 111.097656 136.214844 C 103.039062 136.382812 96.488281 139.175781 95.492188 142.753906 C 94.542969 146.148438 94.777344 151.410156 95.671875 156.21875 C 96.742188 161.9375 98.882812 167.691406 103.277344 171.710938 C 105.050781 173.335938 107.03125 174.402344 109.074219 174.902344 C 109.988281 175.128906 110.148438 175.289062 110.410156 176.171875 C 111.140625 178.640625 112.59375 178.640625 113.328125 176.171875 " fill-opacity="1" fill-rule="evenodd"/></g><g clip-path="url(#45f045e263)"><path fill="#ffcf00" d="M 110.410156 134.832031 C 110.011719 132.761719 109.085938 130.964844 107.773438 129.5 C 106.652344 131.171875 105.984375 133.125 105.898438 135.285156 C 107.40625 135.035156 108.929688 134.890625 110.410156 134.832031 Z M 99.664062 130.636719 C 98.722656 132.578125 98.34375 134.769531 98.671875 137.097656 C 98.691406 137.25 98.71875 137.402344 98.742188 137.550781 C 99.199219 137.3125 99.65625 137.097656 100.101562 136.914062 C 101.070312 136.503906 102.085938 136.164062 103.128906 135.882812 C 102.460938 133.738281 101.25 131.976562 99.664062 130.636719 Z M 96.507812 139.007812 C 96.382812 138.617188 96.234375 138.230469 96.0625 137.84375 C 95.105469 135.695312 93.617188 134.039062 91.792969 132.890625 C 90.867188 136.027344 91.445312 140.601562 94 142.898438 C 94.042969 142.722656 94.089844 142.546875 94.136719 142.375 C 94.511719 141.027344 95.410156 139.867188 96.507812 139.007812 Z M 92.554688 131.261719 C 94.292969 132.320312 95.710938 133.730469 96.769531 135.390625 C 96.785156 133.394531 97.253906 131.414062 98.191406 129.578125 C 97.222656 128.984375 96.15625 128.519531 95.019531 128.183594 C 94.027344 129.058594 93.199219 130.113281 92.554688 131.261719 Z M 102.332031 124.671875 C 101.027344 125.683594 99.953125 126.820312 99.109375 128.039062 C 98.371094 127.589844 97.574219 127.199219 96.71875 126.871094 C 98.148438 125.929688 100.8125 124.96875 102.332031 124.671875 Z M 104.246094 133.804688 C 104.535156 131.828125 105.277344 129.9375 106.464844 128.246094 C 105.5 127.449219 104.394531 126.789062 103.183594 126.277344 C 102.164062 127.101562 101.285156 128.039062 100.574219 129.070312 C 102.183594 130.371094 103.417969 131.988281 104.246094 133.804688 Z M 113.328125 134.832031 C 113.726562 132.761719 114.648438 130.964844 115.964844 129.5 C 117.082031 131.171875 117.753906 133.125 117.835938 135.285156 C 116.332031 135.035156 114.808594 134.890625 113.328125 134.832031 Z M 124.074219 130.636719 C 125.011719 132.578125 125.394531 134.769531 125.066406 137.097656 C 125.042969 137.25 125.019531 137.402344 124.992188 137.550781 C 124.539062 137.3125 124.082031 137.097656 123.636719 136.914062 C 122.667969 136.503906 121.652344 136.164062 120.609375 135.882812 C 121.277344 133.738281 122.484375 131.976562 124.074219 130.636719 Z M 127.226562 139.007812 C 127.351562 138.617188 127.503906 138.230469 127.675781 137.84375 C 128.632812 135.695312 130.117188 134.039062 131.945312 132.890625 C 132.867188 136.027344 132.289062 140.601562 129.734375 142.898438 C 129.691406 142.722656 129.648438 142.546875 129.601562 142.375 C 129.222656 141.027344 128.324219 139.867188 127.226562 139.007812 Z M 131.179688 131.261719 C 129.445312 132.320312 128.023438 133.730469 126.96875 135.390625 C 126.953125 133.394531 126.484375 131.414062 125.542969 129.578125 C 126.511719 128.984375 127.578125 128.519531 128.714844 128.183594 C 129.707031 129.058594 130.539062 130.113281 131.179688 131.261719 Z M 121.402344 124.671875 C 122.710938 125.683594 123.785156 126.820312 124.625 128.039062 C 125.363281 127.589844 126.164062 127.199219 127.015625 126.871094 C 125.589844 125.929688 122.925781 124.96875 121.402344 124.671875 Z M 119.492188 133.804688 C 119.199219 131.828125 118.457031 129.9375 117.273438 128.246094 C 118.238281 127.449219 119.34375 126.789062 120.550781 126.277344 C 121.570312 127.101562 122.449219 128.039062 123.160156 129.070312 C 121.554688 130.371094 120.320312 131.988281 119.492188 133.804688 Z M 111.867188 125.671875 C 112.992188 126.347656 113.996094 127.152344 114.84375 128.074219 C 113.429688 129.585938 112.433594 131.355469 111.867188 133.273438 C 111.304688 131.355469 110.304688 129.585938 108.894531 128.074219 C 109.742188 127.152344 110.742188 126.347656 111.867188 125.671875 Z M 110.5 117.273438 L 113.234375 117.273438 C 113.339844 124.332031 114.976562 123.160156 120.1875 124.496094 C 118.648438 125.109375 117.296875 125.90625 116.148438 126.851562 C 114.929688 125.621094 113.441406 124.453125 111.867188 123.511719 C 110.292969 124.453125 108.808594 125.621094 107.589844 126.851562 C 106.4375 125.90625 105.089844 125.109375 103.550781 124.496094 C 108.761719 123.160156 110.394531 124.332031 110.5 117.273438 " fill-opacity="1" fill-rule="evenodd"/></g><g clip-path="url(#fb121754bf)"><path fill="#ffcf00" d="M 97.683594 228.9375 C 97.417969 230.191406 97.335938 231.5625 97.324219 232.816406 C 97.308594 234.734375 97.472656 236.679688 97.738281 238.582031 C 97.835938 239.273438 97.949219 239.960938 98.074219 240.648438 C 98.898438 245.0625 100.410156 249.585938 103.304688 253.078125 C 104.160156 254.113281 105.15625 255.09375 106.261719 255.855469 C 103.71875 253.398438 102.132812 250.105469 101.144531 246.617188 C 99.398438 240.449219 99.246094 232.972656 100.179688 226.683594 C 99.089844 227.058594 97.941406 227.742188 97.683594 228.9375 Z M 113.328125 261.050781 C 113.585938 260.167969 113.746094 260.007812 114.660156 259.78125 C 116.703125 259.277344 118.6875 258.210938 120.460938 256.585938 C 124.855469 252.566406 126.996094 246.8125 128.0625 241.097656 C 128.960938 236.285156 129.191406 231.023438 128.246094 227.632812 C 127.246094 224.050781 120.695312 221.261719 112.640625 221.09375 C 112.382812 221.085938 112.125 221.085938 111.867188 221.085938 C 111.613281 221.085938 111.355469 221.085938 111.097656 221.09375 C 103.039062 221.261719 96.488281 224.050781 95.492188 227.632812 C 94.542969 231.023438 94.777344 236.285156 95.671875 241.097656 C 96.742188 246.8125 98.882812 252.566406 103.277344 256.585938 C 105.050781 258.210938 107.03125 259.277344 109.074219 259.78125 C 109.988281 260.007812 110.148438 260.167969 110.410156 261.050781 C 111.140625 263.519531 112.59375 263.519531 113.328125 261.050781 " fill-opacity="1" fill-rule="evenodd"/></g><g clip-path="url(#75f6b612b4)"><path fill="#ffcf00" d="M 110.410156 219.707031 C 110.011719 217.636719 109.085938 215.84375 107.773438 214.375 C 106.652344 216.046875 105.984375 218 105.898438 220.164062 C 107.40625 219.910156 108.929688 219.765625 110.410156 219.707031 Z M 99.664062 215.515625 C 98.722656 217.457031 98.34375 219.648438 98.671875 221.976562 C 98.691406 222.125 98.71875 222.277344 98.742188 222.429688 C 99.199219 222.1875 99.65625 221.976562 100.101562 221.789062 C 101.070312 221.382812 102.085938 221.042969 103.128906 220.761719 C 102.460938 218.617188 101.25 216.855469 99.664062 215.515625 Z M 96.507812 223.882812 C 96.382812 223.496094 96.234375 223.109375 96.0625 222.722656 C 95.105469 220.574219 93.617188 218.917969 91.792969 217.769531 C 90.867188 220.90625 91.445312 225.476562 94 227.773438 C 94.042969 227.597656 94.089844 227.425781 94.136719 227.253906 C 94.511719 225.90625 95.410156 224.742188 96.507812 223.882812 Z M 92.554688 216.136719 C 94.292969 217.195312 95.710938 218.609375 96.769531 220.269531 C 96.785156 218.269531 97.253906 216.292969 98.191406 214.453125 C 97.222656 213.863281 96.15625 213.394531 95.019531 213.058594 C 94.027344 213.933594 93.199219 214.992188 92.554688 216.136719 Z M 102.332031 209.550781 C 101.027344 210.5625 99.953125 211.699219 99.109375 212.917969 C 98.371094 212.46875 97.574219 212.074219 96.71875 211.746094 C 98.148438 210.808594 100.8125 209.847656 102.332031 209.550781 Z M 104.246094 218.683594 C 104.535156 216.707031 105.277344 214.8125 106.464844 213.125 C 105.5 212.328125 104.394531 211.667969 103.183594 211.152344 C 102.164062 211.980469 101.285156 212.917969 100.574219 213.949219 C 102.183594 215.246094 103.417969 216.863281 104.246094 218.683594 Z M 113.328125 219.707031 C 113.726562 217.636719 114.648438 215.84375 115.964844 214.375 C 117.082031 216.046875 117.753906 218 117.835938 220.164062 C 116.332031 219.910156 114.808594 219.765625 113.328125 219.707031 Z M 124.074219 215.515625 C 125.011719 217.457031 125.394531 219.648438 125.066406 221.976562 C 125.042969 222.125 125.019531 222.277344 124.992188 222.429688 C 124.539062 222.1875 124.082031 221.976562 123.636719 221.789062 C 122.667969 221.382812 121.652344 221.042969 120.609375 220.761719 C 121.277344 218.617188 122.484375 216.855469 124.074219 215.515625 Z M 127.226562 223.882812 C 127.351562 223.496094 127.503906 223.109375 127.675781 222.722656 C 128.632812 220.574219 130.117188 218.917969 131.945312 217.769531 C 132.867188 220.90625 132.289062 225.476562 129.734375 227.773438 C 129.691406 227.597656 129.648438 227.425781 129.601562 227.253906 C 129.222656 225.90625 128.324219 224.742188 127.226562 223.882812 Z M 131.179688 216.136719 C 129.445312 217.195312 128.023438 218.609375 126.96875 220.269531 C 126.953125 218.269531 126.484375 216.292969 125.542969 214.453125 C 126.511719 213.863281 127.578125 213.394531 128.714844 213.058594 C 129.707031 213.933594 130.539062 214.992188 131.179688 216.136719 Z M 121.402344 209.550781 C 122.710938 210.5625 123.785156 211.699219 124.625 212.917969 C 125.363281 212.46875 126.164062 212.074219 127.015625 211.746094 C 125.589844 210.808594 122.925781 209.847656 121.402344 209.550781 Z M 119.492188 218.683594 C 119.199219 216.707031 118.457031 214.8125 117.273438 213.125 C 118.238281 212.328125 119.34375 211.667969 120.550781 211.152344 C 121.570312 211.980469 122.449219 212.917969 123.160156 213.949219 C 121.554688 215.246094 120.320312 216.863281 119.492188 218.683594 Z M 111.867188 210.546875 C 112.992188 211.222656 113.996094 212.03125 114.84375 212.953125 C 113.429688 214.460938 112.433594 216.234375 111.867188 218.152344 C 111.304688 216.234375 110.304688 214.460938 108.894531 212.953125 C 109.742188 212.03125 110.742188 211.222656 111.867188 210.546875 Z M 110.5 202.152344 L 113.234375 202.152344 C 113.339844 209.207031 114.976562 208.039062 120.1875 209.371094 C 118.648438 209.988281 117.296875 210.785156 116.148438 211.730469 C 114.929688 210.5 113.441406 209.332031 111.867188 208.390625 C 110.292969 209.332031 108.808594 210.5 107.589844 211.730469 C 106.4375 210.785156 105.089844 209.988281 103.550781 209.371094 C 108.761719 208.039062 110.394531 209.207031 110.5 202.152344 " fill-opacity="1" fill-rule="evenodd"/></g><g clip-path="url(#efef7e0668)"><path fill="#ffcf00" d="M 97.683594 317.253906 C 97.417969 318.507812 97.335938 319.878906 97.324219 321.132812 C 97.308594 323.050781 97.472656 324.996094 97.738281 326.894531 C 97.835938 327.589844 97.949219 328.277344 98.074219 328.964844 C 98.898438 333.378906 100.410156 337.902344 103.304688 341.394531 C 104.160156 342.429688 105.15625 343.40625 106.261719 344.171875 C 103.71875 341.710938 102.132812 338.417969 101.144531 334.933594 C 99.398438 328.765625 99.246094 321.289062 100.179688 315 C 99.089844 315.375 97.941406 316.058594 97.683594 317.253906 Z M 113.328125 349.367188 C 113.585938 348.484375 113.746094 348.324219 114.660156 348.097656 C 116.703125 347.59375 118.6875 346.527344 120.460938 344.902344 C 124.855469 340.882812 126.996094 335.128906 128.0625 329.414062 C 128.960938 324.601562 129.191406 319.339844 128.246094 315.949219 C 127.246094 312.367188 120.695312 309.578125 112.640625 309.410156 C 112.382812 309.402344 112.125 309.402344 111.867188 309.402344 C 111.613281 309.402344 111.355469 309.402344 111.097656 309.410156 C 103.039062 309.578125 96.488281 312.367188 95.492188 315.949219 C 94.542969 319.339844 94.777344 324.601562 95.671875 329.414062 C 96.742188 335.128906 98.882812 340.882812 103.277344 344.902344 C 105.050781 346.527344 107.03125 347.59375 109.074219 348.097656 C 109.988281 348.324219 110.148438 348.484375 110.410156 349.367188 C 111.140625 351.835938 112.59375 351.835938 113.328125 349.367188 " fill-opacity="1" fill-rule="evenodd"/></g><g clip-path="url(#88fc2c8a90)"><path fill="#ffcf00" d="M 110.410156 308.023438 C 110.011719 305.953125 109.085938 304.160156 107.773438 302.691406 C 106.652344 304.363281 105.984375 306.316406 105.898438 308.480469 C 107.40625 308.226562 108.929688 308.082031 110.410156 308.023438 Z M 99.664062 303.832031 C 98.722656 305.773438 98.34375 307.960938 98.671875 310.292969 C 98.691406 310.441406 98.71875 310.59375 98.742188 310.746094 C 99.199219 310.503906 99.65625 310.292969 100.101562 310.105469 C 101.070312 309.699219 102.085938 309.359375 103.128906 309.078125 C 102.460938 306.933594 101.25 305.171875 99.664062 303.832031 Z M 96.507812 312.199219 C 96.382812 311.8125 96.234375 311.421875 96.0625 311.039062 C 95.105469 308.890625 93.617188 307.234375 91.792969 306.085938 C 90.867188 309.21875 91.445312 313.792969 94 316.089844 C 94.042969 315.914062 94.089844 315.742188 94.136719 315.570312 C 94.511719 314.222656 95.410156 313.058594 96.507812 312.199219 Z M 92.554688 304.453125 C 94.292969 305.511719 95.710938 306.921875 96.769531 308.585938 C 96.785156 306.585938 97.253906 304.609375 98.191406 302.769531 C 97.222656 302.179688 96.15625 301.710938 95.019531 301.375 C 94.027344 302.25 93.199219 303.308594 92.554688 304.453125 Z M 102.332031 297.863281 C 101.027344 298.878906 99.953125 300.015625 99.109375 301.234375 C 98.371094 300.785156 97.574219 300.390625 96.71875 300.0625 C 98.148438 299.121094 100.8125 298.164062 102.332031 297.863281 Z M 104.246094 307 C 104.535156 305.023438 105.277344 303.128906 106.464844 301.4375 C 105.5 300.644531 104.394531 299.984375 103.183594 299.46875 C 102.164062 300.296875 101.285156 301.234375 100.574219 302.265625 C 102.183594 303.5625 103.417969 305.179688 104.246094 307 Z M 113.328125 308.023438 C 113.726562 305.953125 114.648438 304.160156 115.964844 302.691406 C 117.082031 304.363281 117.753906 306.316406 117.835938 308.480469 C 116.332031 308.226562 114.808594 308.082031 113.328125 308.023438 Z M 124.074219 303.832031 C 125.011719 305.773438 125.394531 307.960938 125.066406 310.292969 C 125.042969 310.441406 125.019531 310.59375 124.992188 310.746094 C 124.539062 310.503906 124.082031 310.292969 123.636719 310.105469 C 122.667969 309.699219 121.652344 309.359375 120.609375 309.078125 C 121.277344 306.933594 122.484375 305.171875 124.074219 303.832031 Z M 127.226562 312.199219 C 127.351562 311.8125 127.503906 311.421875 127.675781 311.039062 C 128.632812 308.890625 130.117188 307.234375 131.945312 306.085938 C 132.867188 309.21875 132.289062 313.792969 129.734375 316.089844 C 129.691406 315.914062 129.648438 315.742188 129.601562 315.570312 C 129.222656 314.222656 128.324219 313.058594 127.226562 312.199219 Z M 131.179688 304.453125 C 129.445312 305.511719 128.023438 306.921875 126.96875 308.585938 C 126.953125 306.585938 126.484375 304.609375 125.542969 302.769531 C 126.511719 302.179688 127.578125 301.710938 128.714844 301.375 C 129.707031 302.25 130.539062 303.308594 131.179688 304.453125 Z M 121.402344 297.863281 C 122.710938 298.878906 123.785156 300.015625 124.625 301.234375 C 125.363281 300.785156 126.164062 300.390625 127.015625 300.0625 C 125.589844 299.121094 122.925781 298.164062 121.402344 297.863281 Z M 119.492188 307 C 119.199219 305.023438 118.457031 303.128906 117.273438 301.4375 C 118.238281 300.644531 119.34375 299.984375 120.550781 299.46875 C 121.570312 300.296875 122.449219 301.234375 123.160156 302.265625 C 121.554688 303.5625 120.320312 305.179688 119.492188 307 Z M 111.867188 298.863281 C 112.992188 299.539062 113.996094 300.347656 114.84375 301.269531 C 113.429688 302.777344 112.433594 304.550781 111.867188 306.464844 C 111.304688 304.550781 110.304688 302.777344 108.894531 301.269531 C 109.742188 300.347656 110.742188 299.539062 111.867188 298.863281 Z M 110.5 290.46875 L 113.234375 290.46875 C 113.339844 297.523438 114.976562 296.355469 120.1875 297.6875 C 118.648438 298.300781 117.296875 299.101562 116.148438 300.046875 C 114.929688 298.816406 113.441406 297.644531 111.867188 296.707031 C 110.292969 297.644531 108.808594 298.816406 107.589844 300.046875 C 106.4375 299.101562 105.089844 298.300781 103.550781 297.6875 C 108.761719 296.355469 110.394531 297.523438 110.5 290.46875 " fill-opacity="1" fill-rule="evenodd"/></g><g clip-path="url(#8831e5624c)"><path fill="#ffcf00" d="M 97.683594 405.0625 C 97.417969 406.320312 97.335938 407.691406 97.324219 408.941406 C 97.308594 410.859375 97.472656 412.804688 97.738281 414.707031 C 97.835938 415.398438 97.949219 416.089844 98.074219 416.773438 C 98.898438 421.1875 100.410156 425.710938 103.304688 429.207031 C 104.160156 430.238281 105.15625 431.21875 106.261719 431.980469 C 103.71875 429.523438 102.132812 426.230469 101.144531 422.742188 C 99.398438 416.574219 99.246094 409.097656 100.179688 402.8125 C 99.089844 403.1875 97.941406 403.867188 97.683594 405.0625 Z M 113.328125 437.175781 C 113.585938 436.292969 113.746094 436.132812 114.660156 435.90625 C 116.703125 435.402344 118.6875 434.335938 120.460938 432.714844 C 124.855469 428.691406 126.996094 422.941406 128.0625 417.222656 C 128.960938 412.410156 129.191406 407.152344 128.246094 403.757812 C 127.246094 400.175781 120.695312 397.386719 112.640625 397.21875 C 112.382812 397.214844 112.125 397.210938 111.867188 397.210938 C 111.613281 397.210938 111.355469 397.214844 111.097656 397.21875 C 103.039062 397.386719 96.488281 400.175781 95.492188 403.757812 C 94.542969 407.152344 94.777344 412.410156 95.671875 417.222656 C 96.742188 422.941406 98.882812 428.691406 103.277344 432.714844 C 105.050781 434.335938 107.03125 435.402344 109.074219 435.90625 C 109.988281 436.132812 110.148438 436.292969 110.410156 437.175781 C 111.140625 439.644531 112.59375 439.644531 113.328125 437.175781 " fill-opacity="1" fill-rule="evenodd"/></g><g clip-path="url(#a2f6607f5c)"><path fill="#ffcf00" d="M 110.410156 395.835938 C 110.011719 393.761719 109.085938 391.96875 107.773438 390.5 C 106.652344 392.171875 105.984375 394.125 105.898438 396.289062 C 107.40625 396.035156 108.929688 395.890625 110.410156 395.835938 Z M 99.664062 391.640625 C 98.722656 393.582031 98.34375 395.773438 98.671875 398.101562 C 98.691406 398.253906 98.71875 398.402344 98.742188 398.554688 C 99.199219 398.316406 99.65625 398.101562 100.101562 397.914062 C 101.070312 397.507812 102.085938 397.167969 103.128906 396.886719 C 102.460938 394.742188 101.25 392.980469 99.664062 391.640625 Z M 96.507812 400.007812 C 96.382812 399.621094 96.234375 399.234375 96.0625 398.847656 C 95.105469 396.699219 93.617188 395.042969 91.792969 393.894531 C 90.867188 397.03125 91.445312 401.601562 94 403.902344 C 94.042969 403.722656 94.089844 403.550781 94.136719 403.378906 C 94.511719 402.03125 95.410156 400.867188 96.507812 400.007812 Z M 92.554688 392.265625 C 94.292969 393.324219 95.710938 394.734375 96.769531 396.394531 C 96.785156 394.394531 97.253906 392.417969 98.191406 390.582031 C 97.222656 389.988281 96.15625 389.519531 95.019531 389.183594 C 94.027344 390.0625 93.199219 391.117188 92.554688 392.265625 Z M 102.332031 385.675781 C 101.027344 386.6875 99.953125 387.824219 99.109375 389.042969 C 98.371094 388.59375 97.574219 388.199219 96.71875 387.875 C 98.148438 386.933594 100.8125 385.972656 102.332031 385.675781 Z M 104.246094 394.808594 C 104.535156 392.832031 105.277344 390.9375 106.464844 389.25 C 105.5 388.453125 104.394531 387.792969 103.183594 387.28125 C 102.164062 388.105469 101.285156 389.042969 100.574219 390.074219 C 102.183594 391.371094 103.417969 392.988281 104.246094 394.808594 Z M 113.328125 395.835938 C 113.726562 393.761719 114.648438 391.96875 115.964844 390.5 C 117.082031 392.171875 117.753906 394.125 117.835938 396.289062 C 116.332031 396.035156 114.808594 395.890625 113.328125 395.835938 Z M 124.074219 391.640625 C 125.011719 393.582031 125.394531 395.773438 125.066406 398.101562 C 125.042969 398.253906 125.019531 398.402344 124.992188 398.554688 C 124.539062 398.316406 124.082031 398.101562 123.636719 397.914062 C 122.667969 397.507812 121.652344 397.167969 120.609375 396.886719 C 121.277344 394.742188 122.484375 392.980469 124.074219 391.640625 Z M 127.226562 400.007812 C 127.351562 399.621094 127.503906 399.234375 127.675781 398.847656 C 128.632812 396.699219 130.117188 395.042969 131.945312 393.894531 C 132.867188 397.03125 132.289062 401.601562 129.734375 403.902344 C 129.691406 403.722656 129.648438 403.550781 129.601562 403.378906 C 129.222656 402.03125 128.324219 400.867188 127.226562 400.007812 Z M 131.179688 392.265625 C 129.445312 393.324219 128.023438 394.734375 126.96875 396.394531 C 126.953125 394.394531 126.484375 392.417969 125.542969 390.582031 C 126.511719 389.988281 127.578125 389.519531 128.714844 389.183594 C 129.707031 390.0625 130.539062 391.117188 131.179688 392.265625 Z M 121.402344 385.675781 C 122.710938 386.6875 123.785156 387.824219 124.625 389.042969 C 125.363281 388.59375 126.164062 388.199219 127.015625 387.875 C 125.589844 386.933594 122.925781 385.972656 121.402344 385.675781 Z M 119.492188 394.808594 C 119.199219 392.832031 118.457031 390.9375 117.273438 389.25 C 118.238281 388.453125 119.34375 387.792969 120.550781 387.28125 C 121.570312 388.105469 122.449219 389.042969 123.160156 390.074219 C 121.554688 391.371094 120.320312 392.988281 119.492188 394.808594 Z M 111.867188 386.671875 C 112.992188 387.347656 113.996094 388.15625 114.84375 389.078125 C 113.429688 390.585938 112.433594 392.359375 111.867188 394.277344 C 111.304688 392.359375 110.304688 390.585938 108.894531 389.078125 C 109.742188 388.15625 110.742188 387.347656 111.867188 386.671875 Z M 110.5 378.277344 L 113.234375 378.277344 C 113.339844 385.332031 114.976562 384.164062 120.1875 385.496094 C 118.648438 386.113281 117.296875 386.910156 116.148438 387.855469 C 114.929688 386.625 113.441406 385.457031 111.867188 384.515625 C 110.292969 385.457031 108.808594 386.625 107.589844 387.855469 C 106.4375 386.910156 105.089844 386.113281 103.550781 385.496094 C 108.761719 384.164062 110.394531 385.332031 110.5 378.277344 " fill-opacity="1" fill-rule="evenodd"/></g><g clip-path="url(#d10388761f)"><path fill="#ffcf00" d="M 234.285156 144.058594 C 234.019531 145.316406 233.9375 146.6875 233.925781 147.9375 C 233.914062 149.859375 234.074219 151.800781 234.339844 153.703125 C 234.4375 154.394531 234.550781 155.085938 234.679688 155.773438 C 235.5 160.183594 237.011719 164.710938 239.90625 168.203125 C 240.761719 169.238281 241.757812 170.214844 242.863281 170.980469 C 240.320312 168.519531 238.734375 165.226562 237.746094 161.738281 C 236 155.570312 235.847656 148.097656 236.78125 141.808594 C 235.691406 142.183594 234.542969 142.867188 234.285156 144.058594 Z M 249.929688 176.171875 C 250.191406 175.289062 250.347656 175.128906 251.261719 174.902344 C 253.308594 174.402344 255.289062 173.335938 257.0625 171.710938 C 261.457031 167.691406 263.597656 161.9375 264.664062 156.21875 C 265.5625 151.410156 265.796875 146.148438 264.847656 142.753906 C 263.851562 139.175781 257.296875 136.382812 249.242188 136.214844 C 248.984375 136.210938 248.726562 136.207031 248.472656 136.207031 C 248.214844 136.207031 247.957031 136.210938 247.699219 136.214844 C 239.640625 136.382812 233.09375 139.175781 232.09375 142.753906 C 231.144531 146.148438 231.378906 151.410156 232.273438 156.21875 C 233.34375 161.9375 235.484375 167.691406 239.878906 171.710938 C 241.652344 173.335938 243.632812 174.402344 245.679688 174.902344 C 246.589844 175.128906 246.75 175.289062 247.011719 176.171875 C 247.742188 178.640625 249.195312 178.640625 249.929688 176.171875 " fill-opacity="1" fill-rule="evenodd"/></g><g clip-path="url(#0ff9cd1aef)"><path fill="#ffcf00" d="M 247.011719 134.832031 C 246.613281 132.761719 245.6875 130.964844 244.375 129.5 C 243.257812 131.171875 242.585938 133.125 242.5 135.285156 C 244.007812 135.035156 245.53125 134.890625 247.011719 134.832031 Z M 236.265625 130.636719 C 235.328125 132.578125 234.945312 134.769531 235.273438 137.097656 C 235.292969 137.25 235.320312 137.402344 235.34375 137.550781 C 235.800781 137.3125 236.257812 137.097656 236.703125 136.914062 C 237.671875 136.503906 238.6875 136.164062 239.730469 135.882812 C 239.0625 133.738281 237.851562 131.976562 236.265625 130.636719 Z M 233.109375 139.007812 C 232.984375 138.617188 232.835938 138.230469 232.664062 137.84375 C 231.707031 135.695312 230.21875 134.039062 228.394531 132.890625 C 227.472656 136.027344 228.046875 140.601562 230.605469 142.898438 C 230.644531 142.722656 230.691406 142.546875 230.738281 142.375 C 231.113281 141.027344 232.011719 139.867188 233.109375 139.007812 Z M 229.15625 131.261719 C 230.894531 132.320312 232.316406 133.730469 233.371094 135.390625 C 233.386719 133.394531 233.855469 131.414062 234.796875 129.578125 C 233.824219 128.984375 232.757812 128.519531 231.621094 128.183594 C 230.628906 129.058594 229.800781 130.113281 229.15625 131.261719 Z M 238.9375 124.671875 C 237.628906 125.683594 236.554688 126.820312 235.710938 128.039062 C 234.976562 127.589844 234.175781 127.199219 233.320312 126.871094 C 234.75 125.929688 237.414062 124.96875 238.9375 124.671875 Z M 240.847656 133.804688 C 241.140625 131.828125 241.878906 129.9375 243.066406 128.246094 C 242.101562 127.449219 240.996094 126.789062 239.785156 126.277344 C 238.765625 127.101562 237.886719 128.039062 237.175781 129.070312 C 238.785156 130.371094 240.019531 131.988281 240.847656 133.804688 Z M 249.929688 134.832031 C 250.328125 132.761719 251.25 130.964844 252.566406 129.5 C 253.683594 131.171875 254.355469 133.125 254.441406 135.285156 C 252.933594 135.035156 251.410156 134.890625 249.929688 134.832031 Z M 260.675781 130.636719 C 261.613281 132.578125 261.996094 134.769531 261.667969 137.097656 C 261.644531 137.25 261.621094 137.402344 261.59375 137.550781 C 261.140625 137.3125 260.683594 137.097656 260.238281 136.914062 C 259.269531 136.503906 258.253906 136.164062 257.210938 135.882812 C 257.878906 133.738281 259.085938 131.976562 260.675781 130.636719 Z M 263.828125 139.007812 C 263.957031 138.617188 264.105469 138.230469 264.277344 137.84375 C 265.234375 135.695312 266.71875 134.039062 268.546875 132.890625 C 269.472656 136.027344 268.890625 140.601562 266.335938 142.898438 C 266.292969 142.722656 266.25 142.546875 266.203125 142.375 C 265.824219 141.027344 264.925781 139.867188 263.828125 139.007812 Z M 267.78125 131.261719 C 266.046875 132.320312 264.625 133.730469 263.570312 135.390625 C 263.554688 133.394531 263.085938 131.414062 262.144531 129.578125 C 263.113281 128.984375 264.179688 128.519531 265.320312 128.183594 C 266.308594 129.058594 267.140625 130.113281 267.78125 131.261719 Z M 258.003906 124.671875 C 259.3125 125.683594 260.386719 126.820312 261.226562 128.039062 C 261.964844 127.589844 262.765625 127.199219 263.621094 126.871094 C 262.191406 125.929688 259.527344 124.96875 258.003906 124.671875 Z M 256.09375 133.804688 C 255.800781 131.828125 255.058594 129.9375 253.875 128.246094 C 254.839844 127.449219 255.945312 126.789062 257.152344 126.277344 C 258.175781 127.101562 259.054688 128.039062 259.761719 129.070312 C 258.15625 130.371094 256.921875 131.988281 256.09375 133.804688 Z M 248.472656 125.671875 C 249.597656 126.347656 250.597656 127.152344 251.445312 128.074219 C 250.03125 129.585938 249.035156 131.355469 248.472656 133.273438 C 247.90625 131.355469 246.90625 129.585938 245.496094 128.074219 C 246.34375 127.152344 247.34375 126.347656 248.472656 125.671875 Z M 247.105469 117.273438 L 249.839844 117.273438 C 249.941406 124.332031 251.578125 123.160156 256.789062 124.496094 C 255.25 125.109375 253.898438 125.90625 252.75 126.851562 C 251.53125 125.621094 250.042969 124.453125 248.472656 123.511719 C 246.894531 124.453125 245.410156 125.621094 244.191406 126.851562 C 243.039062 125.90625 241.691406 125.109375 240.152344 124.496094 C 245.363281 123.160156 246.996094 124.332031 247.105469 117.273438 " fill-opacity="1" fill-rule="evenodd"/></g><g clip-path="url(#39e1b862ef)"><path fill="#ffcf00" d="M 234.285156 228.9375 C 234.019531 230.191406 233.9375 231.5625 233.925781 232.816406 C 233.914062 234.734375 234.074219 236.679688 234.339844 238.582031 C 234.4375 239.273438 234.550781 239.960938 234.679688 240.648438 C 235.5 245.0625 237.011719 249.585938 239.90625 253.078125 C 240.761719 254.113281 241.757812 255.09375 242.863281 255.855469 C 240.320312 253.398438 238.734375 250.105469 237.746094 246.617188 C 236 240.449219 235.847656 232.972656 236.78125 226.683594 C 235.691406 227.058594 234.542969 227.742188 234.285156 228.9375 Z M 249.929688 261.050781 C 250.191406 260.167969 250.347656 260.007812 251.261719 259.78125 C 253.308594 259.277344 255.289062 258.210938 257.0625 256.585938 C 261.457031 252.566406 263.597656 246.8125 264.664062 241.097656 C 265.5625 236.285156 265.796875 231.023438 264.847656 227.632812 C 263.851562 224.050781 257.296875 221.261719 249.242188 221.09375 C 248.984375 221.085938 248.726562 221.085938 248.472656 221.085938 C 248.214844 221.085938 247.957031 221.085938 247.699219 221.09375 C 239.640625 221.261719 233.09375 224.050781 232.09375 227.632812 C 231.144531 231.023438 231.378906 236.285156 232.273438 241.097656 C 233.34375 246.8125 235.484375 252.566406 239.878906 256.585938 C 241.652344 258.210938 243.632812 259.277344 245.679688 259.78125 C 246.589844 260.007812 246.75 260.167969 247.011719 261.050781 C 247.742188 263.519531 249.195312 263.519531 249.929688 261.050781 " fill-opacity="1" fill-rule="evenodd"/></g><g clip-path="url(#199be5ae50)"><path fill="#ffcf00" d="M 247.011719 219.707031 C 246.613281 217.636719 245.6875 215.84375 244.375 214.375 C 243.257812 216.046875 242.585938 218 242.5 220.164062 C 244.007812 219.910156 245.53125 219.765625 247.011719 219.707031 Z M 236.265625 215.515625 C 235.328125 217.457031 234.945312 219.648438 235.273438 221.976562 C 235.292969 222.125 235.320312 222.277344 235.34375 222.429688 C 235.800781 222.1875 236.257812 221.976562 236.703125 221.789062 C 237.671875 221.382812 238.6875 221.042969 239.730469 220.761719 C 239.0625 218.617188 237.851562 216.855469 236.265625 215.515625 Z M 233.109375 223.882812 C 232.984375 223.496094 232.835938 223.109375 232.664062 222.722656 C 231.707031 220.574219 230.21875 218.917969 228.394531 217.769531 C 227.472656 220.90625 228.046875 225.476562 230.605469 227.773438 C 230.644531 227.597656 230.691406 227.425781 230.738281 227.253906 C 231.113281 225.90625 232.011719 224.742188 233.109375 223.882812 Z M 229.15625 216.136719 C 230.894531 217.195312 232.316406 218.609375 233.371094 220.269531 C 233.386719 218.269531 233.855469 216.292969 234.796875 214.453125 C 233.824219 213.863281 232.757812 213.394531 231.621094 213.058594 C 230.628906 213.933594 229.800781 214.992188 229.15625 216.136719 Z M 238.9375 209.550781 C 237.628906 210.5625 236.554688 211.699219 235.710938 212.917969 C 234.976562 212.46875 234.175781 212.074219 233.320312 211.746094 C 234.75 210.808594 237.414062 209.847656 238.9375 209.550781 Z M 240.847656 218.683594 C 241.140625 216.707031 241.878906 214.8125 243.066406 213.125 C 242.101562 212.328125 240.996094 211.667969 239.785156 211.152344 C 238.765625 211.980469 237.886719 212.917969 237.175781 213.949219 C 238.785156 215.246094 240.019531 216.863281 240.847656 218.683594 Z M 249.929688 219.707031 C 250.328125 217.636719 251.25 215.84375 252.566406 214.375 C 253.683594 216.046875 254.355469 218 254.441406 220.164062 C 252.933594 219.910156 251.410156 219.765625 249.929688 219.707031 Z M 260.675781 215.515625 C 261.613281 217.457031 261.996094 219.648438 261.667969 221.976562 C 261.644531 222.125 261.621094 222.277344 261.59375 222.429688 C 261.140625 222.1875 260.683594 221.976562 260.238281 221.789062 C 259.269531 221.382812 258.253906 221.042969 257.210938 220.761719 C 257.878906 218.617188 259.085938 216.855469 260.675781 215.515625 Z M 263.828125 223.882812 C 263.957031 223.496094 264.105469 223.109375 264.277344 222.722656 C 265.234375 220.574219 266.71875 218.917969 268.546875 217.769531 C 269.472656 220.90625 268.890625 225.476562 266.335938 227.773438 C 266.292969 227.597656 266.25 227.425781 266.203125 227.253906 C 265.824219 225.90625 264.925781 224.742188 263.828125 223.882812 Z M 267.78125 216.136719 C 266.046875 217.195312 264.625 218.609375 263.570312 220.269531 C 263.554688 218.269531 263.085938 216.292969 262.144531 214.453125 C 263.113281 213.863281 264.179688 213.394531 265.320312 213.058594 C 266.308594 213.933594 267.140625 214.992188 267.78125 216.136719 Z M 258.003906 209.550781 C 259.3125 210.5625 260.386719 211.699219 261.226562 212.917969 C 261.964844 212.46875 262.765625 212.074219 263.621094 211.746094 C 262.191406 210.808594 259.527344 209.847656 258.003906 209.550781 Z M 256.09375 218.683594 C 255.800781 216.707031 255.058594 214.8125 253.875 213.125 C 254.839844 212.328125 255.945312 211.667969 257.152344 211.152344 C 258.175781 211.980469 259.054688 212.917969 259.761719 213.949219 C 258.15625 215.246094 256.921875 216.863281 256.09375 218.683594 Z M 248.472656 210.546875 C 249.597656 211.222656 250.597656 212.03125 251.445312 212.953125 C 250.03125 214.460938 249.035156 216.234375 248.472656 218.152344 C 247.90625 216.234375 246.90625 214.460938 245.496094 212.953125 C 246.34375 212.03125 247.34375 211.222656 248.472656 210.546875 Z M 247.105469 202.152344 L 249.839844 202.152344 C 249.941406 209.207031 251.578125 208.039062 256.789062 209.371094 C 255.25 209.988281 253.898438 210.785156 252.75 211.730469 C 251.53125 210.5 250.042969 209.332031 248.472656 208.390625 C 246.894531 209.332031 245.410156 210.5 244.191406 211.730469 C 243.039062 210.785156 241.691406 209.988281 240.152344 209.371094 C 245.363281 208.039062 246.996094 209.207031 247.105469 202.152344 " fill-opacity="1" fill-rule="evenodd"/></g><g clip-path="url(#ca510c85b0)"><path fill="#ffcf00" d="M 234.285156 317.253906 C 234.019531 318.507812 233.9375 319.878906 233.925781 321.132812 C 233.914062 323.050781 234.074219 324.996094 234.339844 326.894531 C 234.4375 327.589844 234.550781 328.277344 234.679688 328.964844 C 235.5 333.378906 237.011719 337.902344 239.90625 341.394531 C 240.761719 342.429688 241.757812 343.40625 242.863281 344.171875 C 240.320312 341.710938 238.734375 338.417969 237.746094 334.933594 C 236 328.765625 235.847656 321.289062 236.78125 315 C 235.691406 315.375 234.542969 316.058594 234.285156 317.253906 Z M 249.929688 349.367188 C 250.191406 348.484375 250.347656 348.324219 251.261719 348.097656 C 253.308594 347.59375 255.289062 346.527344 257.0625 344.902344 C 261.457031 340.882812 263.597656 335.128906 264.664062 329.414062 C 265.5625 324.601562 265.796875 319.339844 264.847656 315.949219 C 263.851562 312.367188 257.296875 309.578125 249.242188 309.410156 C 248.984375 309.402344 248.726562 309.402344 248.472656 309.402344 C 248.214844 309.402344 247.957031 309.402344 247.699219 309.410156 C 239.640625 309.578125 233.09375 312.367188 232.09375 315.949219 C 231.144531 319.339844 231.378906 324.601562 232.273438 329.414062 C 233.34375 335.128906 235.484375 340.882812 239.878906 344.902344 C 241.652344 346.527344 243.632812 347.59375 245.679688 348.097656 C 246.589844 348.324219 246.75 348.484375 247.011719 349.367188 C 247.742188 351.835938 249.195312 351.835938 249.929688 349.367188 " fill-opacity="1" fill-rule="evenodd"/></g><g clip-path="url(#22b4dc395d)"><path fill="#ffcf00" d="M 247.011719 308.023438 C 246.613281 305.953125 245.6875 304.160156 244.375 302.691406 C 243.257812 304.363281 242.585938 306.316406 242.5 308.480469 C 244.007812 308.226562 245.53125 308.082031 247.011719 308.023438 Z M 236.265625 303.832031 C 235.328125 305.773438 234.945312 307.960938 235.273438 310.292969 C 235.292969 310.441406 235.320312 310.59375 235.34375 310.746094 C 235.800781 310.503906 236.257812 310.292969 236.703125 310.105469 C 237.671875 309.699219 238.6875 309.359375 239.730469 309.078125 C 239.0625 306.933594 237.851562 305.171875 236.265625 303.832031 Z M 233.109375 312.199219 C 232.984375 311.8125 232.835938 311.421875 232.664062 311.039062 C 231.707031 308.890625 230.21875 307.234375 228.394531 306.085938 C 227.472656 309.21875 228.046875 313.792969 230.605469 316.089844 C 230.644531 315.914062 230.691406 315.742188 230.738281 315.570312 C 231.113281 314.222656 232.011719 313.058594 233.109375 312.199219 Z M 229.15625 304.453125 C 230.894531 305.511719 232.316406 306.921875 233.371094 308.585938 C 233.386719 306.585938 233.855469 304.609375 234.796875 302.769531 C 233.824219 302.179688 232.757812 301.710938 231.621094 301.375 C 230.628906 302.25 229.800781 303.308594 229.15625 304.453125 Z M 238.9375 297.863281 C 237.628906 298.878906 236.554688 300.015625 235.710938 301.234375 C 234.976562 300.785156 234.175781 300.390625 233.320312 300.0625 C 234.75 299.121094 237.414062 298.164062 238.9375 297.863281 Z M 240.847656 307 C 241.140625 305.023438 241.878906 303.128906 243.066406 301.4375 C 242.101562 300.644531 240.996094 299.984375 239.785156 299.46875 C 238.765625 300.296875 237.886719 301.234375 237.175781 302.265625 C 238.785156 303.5625 240.019531 305.179688 240.847656 307 Z M 249.929688 308.023438 C 250.328125 305.953125 251.25 304.160156 252.566406 302.691406 C 253.683594 304.363281 254.355469 306.316406 254.441406 308.480469 C 252.933594 308.226562 251.410156 308.082031 249.929688 308.023438 Z M 260.675781 303.832031 C 261.613281 305.773438 261.996094 307.960938 261.667969 310.292969 C 261.644531 310.441406 261.621094 310.59375 261.59375 310.746094 C 261.140625 310.503906 260.683594 310.292969 260.238281 310.105469 C 259.269531 309.699219 258.253906 309.359375 257.210938 309.078125 C 257.878906 306.933594 259.085938 305.171875 260.675781 303.832031 Z M 263.828125 312.199219 C 263.957031 311.8125 264.105469 311.421875 264.277344 311.039062 C 265.234375 308.890625 266.71875 307.234375 268.546875 306.085938 C 269.472656 309.21875 268.890625 313.792969 266.335938 316.089844 C 266.292969 315.914062 266.25 315.742188 266.203125 315.570312 C 265.824219 314.222656 264.925781 313.058594 263.828125 312.199219 Z M 267.78125 304.453125 C 266.046875 305.511719 264.625 306.921875 263.570312 308.585938 C 263.554688 306.585938 263.085938 304.609375 262.144531 302.769531 C 263.113281 302.179688 264.179688 301.710938 265.320312 301.375 C 266.308594 302.25 267.140625 303.308594 267.78125 304.453125 Z M 258.003906 297.863281 C 259.3125 298.878906 260.386719 300.015625 261.226562 301.234375 C 261.964844 300.785156 262.765625 300.390625 263.621094 300.0625 C 262.191406 299.121094 259.527344 298.164062 258.003906 297.863281 Z M 256.09375 307 C 255.800781 305.023438 255.058594 303.128906 253.875 301.4375 C 254.839844 300.644531 255.945312 299.984375 257.152344 299.46875 C 258.175781 300.296875 259.054688 301.234375 259.761719 302.265625 C 258.15625 303.5625 256.921875 305.179688 256.09375 307 Z M 248.472656 298.863281 C 249.597656 299.539062 250.597656 300.347656 251.445312 301.269531 C 250.03125 302.777344 249.035156 304.550781 248.472656 306.464844 C 247.90625 304.550781 246.90625 302.777344 245.496094 301.269531 C 246.34375 300.347656 247.34375 299.539062 248.472656 298.863281 Z M 247.105469 290.46875 L 249.839844 290.46875 C 249.941406 297.523438 251.578125 296.355469 256.789062 297.6875 C 255.25 298.300781 253.898438 299.101562 252.75 300.046875 C 251.53125 298.816406 250.042969 297.644531 248.472656 296.707031 C 246.894531 297.644531 245.410156 298.816406 244.191406 300.046875 C 243.039062 299.101562 241.691406 298.300781 240.152344 297.6875 C 245.363281 296.355469 246.996094 297.523438 247.105469 290.46875 " fill-opacity="1" fill-rule="evenodd"/></g><g clip-path="url(#c5550a8396)"><path fill="#ffcf00" d="M 234.285156 405.0625 C 234.019531 406.320312 233.9375 407.691406 233.925781 408.941406 C 233.914062 410.859375 234.074219 412.804688 234.339844 414.707031 C 234.4375 415.398438 234.550781 416.089844 234.679688 416.773438 C 235.5 421.1875 237.011719 425.710938 239.90625 429.207031 C 240.761719 430.238281 241.757812 431.21875 242.863281 431.980469 C 240.320312 429.523438 238.734375 426.230469 237.746094 422.742188 C 236 416.574219 235.847656 409.097656 236.78125 402.8125 C 235.691406 403.1875 234.542969 403.867188 234.285156 405.0625 Z M 249.929688 437.175781 C 250.191406 436.292969 250.347656 436.132812 251.261719 435.90625 C 253.308594 435.402344 255.289062 434.335938 257.0625 432.714844 C 261.457031 428.691406 263.597656 422.941406 264.664062 417.222656 C 265.5625 412.410156 265.796875 407.152344 264.847656 403.757812 C 263.851562 400.175781 257.296875 397.386719 249.242188 397.21875 C 248.984375 397.214844 248.726562 397.210938 248.472656 397.210938 C 248.214844 397.210938 247.957031 397.214844 247.699219 397.21875 C 239.640625 397.386719 233.09375 400.175781 232.09375 403.757812 C 231.144531 407.152344 231.378906 412.410156 232.273438 417.222656 C 233.34375 422.941406 235.484375 428.691406 239.878906 432.714844 C 241.652344 434.335938 243.632812 435.402344 245.679688 435.90625 C 246.589844 436.132812 246.75 436.292969 247.011719 437.175781 C 247.742188 439.644531 249.195312 439.644531 249.929688 437.175781 " fill-opacity="1" fill-rule="evenodd"/></g><g clip-path="url(#c42b70b881)"><path fill="#ffcf00" d="M 247.011719 395.835938 C 246.613281 393.761719 245.6875 391.96875 244.375 390.5 C 243.257812 392.171875 242.585938 394.125 242.5 396.289062 C 244.007812 396.035156 245.53125 395.890625 247.011719 395.835938 Z M 236.265625 391.640625 C 235.328125 393.582031 234.945312 395.773438 235.273438 398.101562 C 235.292969 398.253906 235.320312 398.402344 235.34375 398.554688 C 235.800781 398.316406 236.257812 398.101562 236.703125 397.914062 C 237.671875 397.507812 238.6875 397.167969 239.730469 396.886719 C 239.0625 394.742188 237.851562 392.980469 236.265625 391.640625 Z M 233.109375 400.007812 C 232.984375 399.621094 232.835938 399.234375 232.664062 398.847656 C 231.707031 396.699219 230.21875 395.042969 228.394531 393.894531 C 227.472656 397.03125 228.046875 401.601562 230.605469 403.902344 C 230.644531 403.722656 230.691406 403.550781 230.738281 403.378906 C 231.113281 402.03125 232.011719 400.867188 233.109375 400.007812 Z M 229.15625 392.265625 C 230.894531 393.324219 232.316406 394.734375 233.371094 396.394531 C 233.386719 394.394531 233.855469 392.417969 234.796875 390.582031 C 233.824219 389.988281 232.757812 389.519531 231.621094 389.183594 C 230.628906 390.0625 229.800781 391.117188 229.15625 392.265625 Z M 238.9375 385.675781 C 237.628906 386.6875 236.554688 387.824219 235.710938 389.042969 C 234.976562 388.59375 234.175781 388.199219 233.320312 387.875 C 234.75 386.933594 237.414062 385.972656 238.9375 385.675781 Z M 240.847656 394.808594 C 241.140625 392.832031 241.878906 390.9375 243.066406 389.25 C 242.101562 388.453125 240.996094 387.792969 239.785156 387.28125 C 238.765625 388.105469 237.886719 389.042969 237.175781 390.074219 C 238.785156 391.371094 240.019531 392.988281 240.847656 394.808594 Z M 249.929688 395.835938 C 250.328125 393.761719 251.25 391.96875 252.566406 390.5 C 253.683594 392.171875 254.355469 394.125 254.441406 396.289062 C 252.933594 396.035156 251.410156 395.890625 249.929688 395.835938 Z M 260.675781 391.640625 C 261.613281 393.582031 261.996094 395.773438 261.667969 398.101562 C 261.644531 398.253906 261.621094 398.402344 261.59375 398.554688 C 261.140625 398.316406 260.683594 398.101562 260.238281 397.914062 C 259.269531 397.507812 258.253906 397.167969 257.210938 396.886719 C 257.878906 394.742188 259.085938 392.980469 260.675781 391.640625 Z M 263.828125 400.007812 C 263.957031 399.621094 264.105469 399.234375 264.277344 398.847656 C 265.234375 396.699219 266.71875 395.042969 268.546875 393.894531 C 269.472656 397.03125 268.890625 401.601562 266.335938 403.902344 C 266.292969 403.722656 266.25 403.550781 266.203125 403.378906 C 265.824219 402.03125 264.925781 400.867188 263.828125 400.007812 Z M 267.78125 392.265625 C 266.046875 393.324219 264.625 394.734375 263.570312 396.394531 C 263.554688 394.394531 263.085938 392.417969 262.144531 390.582031 C 263.113281 389.988281 264.179688 389.519531 265.320312 389.183594 C 266.308594 390.0625 267.140625 391.117188 267.78125 392.265625 Z M 258.003906 385.675781 C 259.3125 386.6875 260.386719 387.824219 261.226562 389.042969 C 261.964844 388.59375 262.765625 388.199219 263.621094 387.875 C 262.191406 386.933594 259.527344 385.972656 258.003906 385.675781 Z M 256.09375 394.808594 C 255.800781 392.832031 255.058594 390.9375 253.875 389.25 C 254.839844 388.453125 255.945312 387.792969 257.152344 387.28125 C 258.175781 388.105469 259.054688 389.042969 259.761719 390.074219 C 258.15625 391.371094 256.921875 392.988281 256.09375 394.808594 Z M 248.472656 386.671875 C 249.597656 387.347656 250.597656 388.15625 251.445312 389.078125 C 250.03125 390.585938 249.035156 392.359375 248.472656 394.277344 C 247.90625 392.359375 246.90625 390.585938 245.496094 389.078125 C 246.34375 388.15625 247.34375 387.347656 248.472656 386.671875 Z M 247.105469 378.277344 L 249.839844 378.277344 C 249.941406 385.332031 251.578125 384.164062 256.789062 385.496094 C 255.25 386.113281 253.898438 386.910156 252.75 387.855469 C 251.53125 386.625 250.042969 385.457031 248.472656 384.515625 C 246.894531 385.457031 245.410156 386.625 244.191406 387.855469 C 243.039062 386.910156 241.691406 386.113281 240.152344 385.496094 C 245.363281 384.164062 246.996094 385.332031 247.105469 378.277344 " fill-opacity="1" fill-rule="evenodd"/></g></svg>