<svg xmlns="http://www.w3.org/2000/svg" xmlns:xlink="http://www.w3.org/1999/xlink" width="480" zoomAndPan="magnify" viewBox="0 0 360 503.999982" height="672" preserveAspectRatio="xMidYMid meet" version="1.0"><defs><filter x="0%" y="0%" width="100%" height="100%" id="052a39d27f"><feColorMatrix values="0 0 0 0 1 0 0 0 0 1 0 0 0 0 1 0 0 0 1 0" color-interpolation-filters="sRGB"/></filter><mask id="675f957696"><g filter="url(#052a39d27f)"><rect x="-36" width="432" fill="#000000" y="-50.399998" height="604.799979" fill-opacity="0.1373"/></g></mask><clipPath id="3797fc29fa"><path d="M 0 0 L 1 0 L 1 432.847656 L 0 432.847656 Z M 0 0 " clip-rule="nonzero"/></clipPath><clipPath id="b7576a82ae"><path d="M 0 0 L 18 0 L 18 432.847656 L 0 432.847656 Z M 0 0 " clip-rule="nonzero"/></clipPath><clipPath id="3d1721dc9f"><path d="M 0 0 L 35 0 L 35 432.847656 L 0 432.847656 Z M 0 0 " clip-rule="nonzero"/></clipPath><clipPath id="83efbaf631"><path d="M 0 0 L 53 0 L 53 432.847656 L 0 432.847656 Z M 0 0 " clip-rule="nonzero"/></clipPath><clipPath id="bca0bf92bc"><path d="M 0 0 L 70 0 L 70 432.847656 L 0 432.847656 Z M 0 0 " clip-rule="nonzero"/></clipPath><clipPath id="f54c58cf00"><path d="M 0 0 L 88 0 L 88 432.847656 L 0 432.847656 Z M 0 0 " clip-rule="nonzero"/></clipPath><clipPath id="c969b7df36"><path d="M 0 0 L 105 0 L 105 432.847656 L 0 432.847656 Z M 0 0 " clip-rule="nonzero"/></clipPath><clipPath id="77e2206f61"><path d="M 0 0 L 122 0 L 122 432.847656 L 0 432.847656 Z M 0 0 " clip-rule="nonzero"/></clipPath><clipPath id="f307c3733c"><path d="M 0 0 L 140 0 L 140 432.847656 L 0 432.847656 Z M 0 0 " clip-rule="nonzero"/></clipPath><clipPath id="f4560ae871"><path d="M 0 0 L 157 0 L 157 432.847656 L 0 432.847656 Z M 0 0 " clip-rule="nonzero"/></clipPath><clipPath id="98abd93698"><path d="M 0 0 L 175 0 L 175 432.847656 L 0 432.847656 Z M 0 0 " clip-rule="nonzero"/></clipPath><clipPath id="e333cee06b"><path d="M 0 0 L 192 0 L 192 432.847656 L 0 432.847656 Z M 0 0 " clip-rule="nonzero"/></clipPath><clipPath id="217f9f17d8"><path d="M 0 0 L 208.722656 0 L 208.722656 432.847656 L 0 432.847656 Z M 0 0 " clip-rule="nonzero"/></clipPath><clipPath id="6ea3f5dfa0"><rect x="0" width="209" y="0" height="434"/></clipPath><mask id="c5a04a3c98"><g filter="url(#052a39d27f)"><rect x="-36" width="432" fill="#000000" y="-50.399998" height="604.799979" fill-opacity="0.1373"/></g></mask><clipPath id="c6674c6295"><path d="M 0 0.203125 L 197 0.203125 L 197 498 L 0 498 Z M 0 0.203125 " clip-rule="nonzero"/></clipPath><clipPath id="929d73387f"><path d="M 0 0.203125 L 214 0.203125 L 214 498 L 0 498 Z M 0 0.203125 " clip-rule="nonzero"/></clipPath><clipPath id="f1ba5bf52b"><path d="M 12 0.203125 L 232 0.203125 L 232 498 L 12 498 Z M 12 0.203125 " clip-rule="nonzero"/></clipPath><clipPath id="9222c3ad2e"><path d="M 29 0.203125 L 249 0.203125 L 249 498 L 29 498 Z M 29 0.203125 " clip-rule="nonzero"/></clipPath><clipPath id="e4a2f44511"><path d="M 47 0.203125 L 267 0.203125 L 267 498 L 47 498 Z M 47 0.203125 " clip-rule="nonzero"/></clipPath><clipPath id="565cd28a69"><path d="M 64 0.203125 L 284 0.203125 L 284 498 L 64 498 Z M 64 0.203125 " clip-rule="nonzero"/></clipPath><clipPath id="6b3fdbd3be"><path d="M 81 0.203125 L 301 0.203125 L 301 498 L 81 498 Z M 81 0.203125 " clip-rule="nonzero"/></clipPath><clipPath id="294dcdf55c"><path d="M 99 0.203125 L 319 0.203125 L 319 498 L 99 498 Z M 99 0.203125 " clip-rule="nonzero"/></clipPath><clipPath id="639b778cc0"><path d="M 116 0.203125 L 336 0.203125 L 336 498 L 116 498 Z M 116 0.203125 " clip-rule="nonzero"/></clipPath><clipPath id="901302c42d"><path d="M 134 0.203125 L 354 0.203125 L 354 498 L 134 498 Z M 134 0.203125 " clip-rule="nonzero"/></clipPath><clipPath id="3702a14620"><path d="M 151 0.203125 L 360 0.203125 L 360 498 L 151 498 Z M 151 0.203125 " clip-rule="nonzero"/></clipPath><clipPath id="a9bc798c3b"><path d="M 168 0.203125 L 360 0.203125 L 360 498 L 168 498 Z M 168 0.203125 " clip-rule="nonzero"/></clipPath><clipPath id="733a1c71a4"><path d="M 186 0.203125 L 360 0.203125 L 360 498 L 186 498 Z M 186 0.203125 " clip-rule="nonzero"/></clipPath><clipPath id="06bc45d8be"><path d="M 203 0.203125 L 360 0.203125 L 360 498 L 203 498 Z M 203 0.203125 " clip-rule="nonzero"/></clipPath><clipPath id="7576fd769b"><path d="M 221 0.203125 L 360 0.203125 L 360 498 L 221 498 Z M 221 0.203125 " clip-rule="nonzero"/></clipPath><clipPath id="8224d778f7"><rect x="0" width="360" y="0" height="498"/></clipPath><mask id="1dce4357b6"><g filter="url(#052a39d27f)"><rect x="-36" width="432" fill="#000000" y="-50.399998" height="604.799979" fill-opacity="0.1373"/></g></mask><clipPath id="d9df167d06"><path d="M 0.222656 1 L 122 1 L 122 501.648438 L 0.222656 501.648438 Z M 0.222656 1 " clip-rule="nonzero"/></clipPath><clipPath id="0fd51a86eb"><path d="M 17 1 L 122 1 L 122 501.648438 L 17 501.648438 Z M 17 1 " clip-rule="nonzero"/></clipPath><clipPath id="59d7b6a2cc"><path d="M 35 1 L 122 1 L 122 501.648438 L 35 501.648438 Z M 35 1 " clip-rule="nonzero"/></clipPath><clipPath id="015fa08182"><path d="M 52 1 L 122 1 L 122 501.648438 L 52 501.648438 Z M 52 1 " clip-rule="nonzero"/></clipPath><clipPath id="91f31af0b2"><path d="M 70 1 L 122 1 L 122 501.648438 L 70 501.648438 Z M 70 1 " clip-rule="nonzero"/></clipPath><clipPath id="04c7aed1a4"><path d="M 87 1 L 122 1 L 122 501.648438 L 87 501.648438 Z M 87 1 " clip-rule="nonzero"/></clipPath><clipPath id="21985baf9a"><path d="M 104 1 L 122 1 L 122 501.648438 L 104 501.648438 Z M 104 1 " clip-rule="nonzero"/></clipPath><clipPath id="6a241edb6a"><rect x="0" width="122" y="0" height="502"/></clipPath><clipPath id="11dc70a989"><path d="M 28.015625 36 L 331.765625 36 L 331.765625 468 L 28.015625 468 Z M 28.015625 36 " clip-rule="nonzero"/></clipPath><clipPath id="56ab8803bd"><path d="M 53.421875 104 L 101.285156 104 L 101.285156 109.089844 L 53.421875 109.089844 Z M 53.421875 104 " clip-rule="nonzero"/></clipPath><clipPath id="eda1e2094c"><path d="M 39.238281 65.40625 L 117.238281 65.40625 L 117.238281 105 L 39.238281 105 Z M 39.238281 65.40625 " clip-rule="nonzero"/></clipPath><clipPath id="05ea531435"><path d="M 147.433594 234.941406 L 212.410156 234.941406 L 212.410156 315.507812 L 147.433594 315.507812 Z M 147.433594 234.941406 " clip-rule="nonzero"/></clipPath><clipPath id="333c877f4c"><path d="M 140 198.507812 L 220 198.507812 L 220 248 L 140 248 Z M 140 198.507812 " clip-rule="nonzero"/></clipPath></defs><rect x="-36" width="432" fill="#ffffff" y="-50.399998" height="604.799979" fill-opacity="1"/><rect x="-36" width="432" fill="#ffffff" y="-50.399998" height="604.799979" fill-opacity="1"/><rect x="-36" width="432" fill="#323232" y="-50.399998" height="604.799979" fill-opacity="1"/><g mask="url(#675f957696)"><g transform="matrix(1, 0, 0, 1, 0, 0)"><g clip-path="url(#6ea3f5dfa0)"><g clip-path="url(#3797fc29fa)"><path fill="#000000" d="M -217.589844 432.296875 L -219.066406 431.664062 L -1.417969 -67.574219 L 0.0507812 -66.9375 Z M -217.589844 432.296875 " fill-opacity="1" fill-rule="nonzero"/></g><g clip-path="url(#b7576a82ae)"><path fill="#000000" d="M -200.175781 432.296875 L -201.652344 431.664062 L 15.992188 -67.574219 L 17.460938 -66.9375 Z M -200.175781 432.296875 " fill-opacity="1" fill-rule="nonzero"/></g><g clip-path="url(#3d1721dc9f)"><path fill="#000000" d="M -182.765625 432.296875 L -184.242188 431.664062 L 33.40625 -67.574219 L 34.875 -66.9375 Z M -182.765625 432.296875 " fill-opacity="1" fill-rule="nonzero"/></g><g clip-path="url(#83efbaf631)"><path fill="#000000" d="M -165.359375 432.296875 L -166.828125 431.664062 L 50.816406 -67.574219 L 52.289062 -66.9375 Z M -165.359375 432.296875 " fill-opacity="1" fill-rule="nonzero"/></g><g clip-path="url(#bca0bf92bc)"><path fill="#000000" d="M -147.945312 432.296875 L -149.421875 431.664062 L 68.222656 -67.574219 L 69.699219 -66.9375 Z M -147.945312 432.296875 " fill-opacity="1" fill-rule="nonzero"/></g><g clip-path="url(#f54c58cf00)"><path fill="#000000" d="M -130.535156 432.296875 L -132.011719 431.664062 L 85.636719 -67.574219 L 87.113281 -66.9375 Z M -130.535156 432.296875 " fill-opacity="1" fill-rule="nonzero"/></g><g clip-path="url(#c969b7df36)"><path fill="#000000" d="M -113.121094 432.296875 L -114.597656 431.664062 L 103.050781 -67.574219 L 104.523438 -66.9375 Z M -113.121094 432.296875 " fill-opacity="1" fill-rule="nonzero"/></g><g clip-path="url(#77e2206f61)"><path fill="#000000" d="M -95.707031 432.296875 L -97.183594 431.664062 L 120.460938 -67.574219 L 121.929688 -66.9375 Z M -95.707031 432.296875 " fill-opacity="1" fill-rule="nonzero"/></g><g clip-path="url(#f307c3733c)"><path fill="#000000" d="M -78.304688 432.296875 L -79.773438 431.664062 L 137.875 -67.574219 L 139.34375 -66.9375 Z M -78.304688 432.296875 " fill-opacity="1" fill-rule="nonzero"/></g><g clip-path="url(#f4560ae871)"><path fill="#000000" d="M -60.890625 432.296875 L -62.359375 431.664062 L 155.28125 -67.574219 L 156.757812 -66.9375 Z M -60.890625 432.296875 " fill-opacity="1" fill-rule="nonzero"/></g><g clip-path="url(#98abd93698)"><path fill="#000000" d="M -43.476562 432.296875 L -44.949219 431.664062 L 172.691406 -67.574219 L 174.167969 -66.9375 Z M -43.476562 432.296875 " fill-opacity="1" fill-rule="nonzero"/></g><g clip-path="url(#e333cee06b)"><path fill="#000000" d="M -26.066406 432.296875 L -27.535156 431.664062 L 190.105469 -67.574219 L 191.582031 -66.9375 Z M -26.066406 432.296875 " fill-opacity="1" fill-rule="nonzero"/></g><g clip-path="url(#217f9f17d8)"><path fill="#000000" d="M -8.652344 432.296875 L -10.128906 431.664062 L 207.515625 -67.574219 L 208.992188 -66.9375 Z M -8.652344 432.296875 " fill-opacity="1" fill-rule="nonzero"/></g></g></g></g><g mask="url(#c5a04a3c98)"><g transform="matrix(1, 0, 0, 1, 0, 6)"><g clip-path="url(#8224d778f7)"><g clip-path="url(#c6674c6295)"><path fill="#000000" d="M -21.167969 500.652344 L -22.636719 500.015625 L 195.003906 0.78125 L 196.480469 1.414062 Z M -21.167969 500.652344 " fill-opacity="1" fill-rule="nonzero"/></g><g clip-path="url(#929d73387f)"><path fill="#000000" d="M -3.753906 500.652344 L -5.230469 500.015625 L 212.414062 0.78125 L 213.890625 1.414062 Z M -3.753906 500.652344 " fill-opacity="1" fill-rule="nonzero"/></g><g clip-path="url(#f1ba5bf52b)"><path fill="#000000" d="M 13.65625 500.652344 L 12.183594 500.015625 L 229.828125 0.78125 L 231.296875 1.414062 Z M 13.65625 500.652344 " fill-opacity="1" fill-rule="nonzero"/></g><g clip-path="url(#9222c3ad2e)"><path fill="#000000" d="M 31.070312 500.652344 L 29.59375 500.015625 L 247.242188 0.78125 L 248.710938 1.414062 Z M 31.070312 500.652344 " fill-opacity="1" fill-rule="nonzero"/></g><g clip-path="url(#e4a2f44511)"><path fill="#000000" d="M 48.484375 500.652344 L 47.007812 500.015625 L 264.652344 0.78125 L 266.125 1.414062 Z M 48.484375 500.652344 " fill-opacity="1" fill-rule="nonzero"/></g><g clip-path="url(#565cd28a69)"><path fill="#000000" d="M 65.890625 500.652344 L 64.417969 500.015625 L 282.066406 0.78125 L 283.535156 1.414062 Z M 65.890625 500.652344 " fill-opacity="1" fill-rule="nonzero"/></g><g clip-path="url(#6b3fdbd3be)"><path fill="#000000" d="M 83.300781 500.652344 L 81.824219 500.015625 L 299.472656 0.78125 L 300.949219 1.414062 Z M 83.300781 500.652344 " fill-opacity="1" fill-rule="nonzero"/></g><g clip-path="url(#294dcdf55c)"><path fill="#000000" d="M 100.714844 500.652344 L 99.238281 500.015625 L 316.882812 0.78125 L 318.359375 1.414062 Z M 100.714844 500.652344 " fill-opacity="1" fill-rule="nonzero"/></g><g clip-path="url(#639b778cc0)"><path fill="#000000" d="M 118.125 500.652344 L 116.652344 500.015625 L 334.296875 0.78125 L 335.773438 1.414062 Z M 118.125 500.652344 " fill-opacity="1" fill-rule="nonzero"/></g><g clip-path="url(#901302c42d)"><path fill="#000000" d="M 135.539062 500.652344 L 134.0625 500.015625 L 351.710938 0.78125 L 353.179688 1.414062 Z M 135.539062 500.652344 " fill-opacity="1" fill-rule="nonzero"/></g><g clip-path="url(#3702a14620)"><path fill="#000000" d="M 152.945312 500.652344 L 151.476562 500.015625 L 369.121094 0.78125 L 370.589844 1.414062 Z M 152.945312 500.652344 " fill-opacity="1" fill-rule="nonzero"/></g><g clip-path="url(#a9bc798c3b)"><path fill="#000000" d="M 170.359375 500.652344 L 168.886719 500.015625 L 386.527344 0.78125 L 388.003906 1.414062 Z M 170.359375 500.652344 " fill-opacity="1" fill-rule="nonzero"/></g><g clip-path="url(#733a1c71a4)"><path fill="#000000" d="M 187.769531 500.652344 L 186.300781 500.015625 L 403.941406 0.78125 L 405.417969 1.414062 Z M 187.769531 500.652344 " fill-opacity="1" fill-rule="nonzero"/></g><g clip-path="url(#06bc45d8be)"><path fill="#000000" d="M 205.183594 500.652344 L 203.710938 500.015625 L 421.351562 0.78125 L 422.828125 1.414062 Z M 205.183594 500.652344 " fill-opacity="1" fill-rule="nonzero"/></g><g clip-path="url(#7576fd769b)"><path fill="#000000" d="M 222.59375 500.652344 L 221.117188 500.015625 L 438.765625 0.78125 L 440.242188 1.414062 Z M 222.59375 500.652344 " fill-opacity="1" fill-rule="nonzero"/></g></g></g></g><g mask="url(#1dce4357b6)"><g transform="matrix(1, 0, 0, 1, 238, 2)"><g clip-path="url(#6a241edb6a)"><g clip-path="url(#d9df167d06)"><path fill="#000000" d="M 1.832031 501.097656 L 0.363281 500.460938 L 218.003906 1.226562 L 219.480469 1.859375 Z M 1.832031 501.097656 " fill-opacity="1" fill-rule="nonzero"/></g><g clip-path="url(#0fd51a86eb)"><path fill="#000000" d="M 19.246094 501.097656 L 17.769531 500.460938 L 235.414062 1.226562 L 236.890625 1.859375 Z M 19.246094 501.097656 " fill-opacity="1" fill-rule="nonzero"/></g><g clip-path="url(#59d7b6a2cc)"><path fill="#000000" d="M 36.65625 501.097656 L 35.183594 500.460938 L 252.828125 1.226562 L 254.296875 1.859375 Z M 36.65625 501.097656 " fill-opacity="1" fill-rule="nonzero"/></g><g clip-path="url(#015fa08182)"><path fill="#000000" d="M 54.070312 501.097656 L 52.59375 500.460938 L 270.242188 1.226562 L 271.710938 1.859375 Z M 54.070312 501.097656 " fill-opacity="1" fill-rule="nonzero"/></g><g clip-path="url(#91f31af0b2)"><path fill="#000000" d="M 71.484375 501.097656 L 70.007812 500.460938 L 287.652344 1.226562 L 289.125 1.859375 Z M 71.484375 501.097656 " fill-opacity="1" fill-rule="nonzero"/></g><g clip-path="url(#04c7aed1a4)"><path fill="#000000" d="M 88.890625 501.097656 L 87.417969 500.460938 L 305.066406 1.226562 L 306.535156 1.859375 Z M 88.890625 501.097656 " fill-opacity="1" fill-rule="nonzero"/></g><g clip-path="url(#21985baf9a)"><path fill="#000000" d="M 106.300781 501.097656 L 104.824219 500.460938 L 322.472656 1.226562 L 323.949219 1.859375 Z M 106.300781 501.097656 " fill-opacity="1" fill-rule="nonzero"/></g></g></g></g><g clip-path="url(#11dc70a989)"><path fill="#ffcf00" d="M 331.601562 467.976562 L 28.1875 467.976562 L 28.1875 36 L 331.601562 36 Z M 29.066406 467.097656 L 330.722656 467.097656 L 330.722656 36.878906 L 29.066406 36.878906 Z M 29.066406 467.097656 " fill-opacity="1" fill-rule="nonzero"/></g><g clip-path="url(#56ab8803bd)"><path fill="#ffcf00" d="M 101.089844 107.011719 L 100.585938 109.089844 C 85.332031 105.34375 69.394531 105.34375 54.140625 109.089844 L 53.636719 107.011719 C 69.222656 103.179688 85.511719 103.179688 101.097656 107.011719 L 101.089844 107.011719 " fill-opacity="1" fill-rule="nonzero"/></g><g clip-path="url(#eda1e2094c)"><path fill="#ffcf00" d="M 42.148438 78.082031 C 46.449219 83.925781 52.238281 88.515625 58.90625 91.375 C 57.984375 86.828125 57.527344 82.1875 57.542969 77.542969 C 56.488281 77.785156 55.4375 77.128906 55.195312 76.074219 C 54.953125 75.015625 55.601562 73.972656 56.660156 73.730469 C 57.714844 73.480469 58.765625 74.136719 59.007812 75.195312 C 59.222656 76.125 58.730469 77.078125 57.847656 77.4375 C 60.429688 81.828125 63.648438 85.808594 67.414062 89.234375 C 71.863281 83.96875 75.429688 78.019531 77.988281 71.617188 C 76.273438 71.472656 75.003906 69.960938 75.152344 68.253906 C 75.296875 66.535156 76.804688 65.269531 78.515625 65.414062 C 80.226562 65.558594 81.5 67.070312 81.355469 68.777344 C 81.222656 70.289062 80.027344 71.484375 78.515625 71.617188 C 81.070312 78.019531 84.644531 83.96875 89.089844 89.234375 C 92.851562 85.808594 96.078125 81.828125 98.652344 77.4375 C 97.65625 77.023438 97.191406 75.875 97.609375 74.878906 C 98.023438 73.882812 99.171875 73.417969 100.167969 73.832031 C 101.167969 74.246094 101.636719 75.398438 101.222656 76.394531 C 100.847656 77.28125 99.894531 77.765625 98.957031 77.542969 C 98.972656 82.1875 98.515625 86.828125 97.585938 91.375 C 104.261719 88.515625 110.042969 83.925781 114.351562 78.082031 C 113.402344 77.558594 113.0625 76.367188 113.582031 75.417969 C 114.109375 74.476562 115.300781 74.128906 116.25 74.65625 C 117.191406 75.183594 117.535156 76.375 117.011719 77.316406 C 116.527344 78.195312 115.460938 78.5625 114.539062 78.171875 L 102.910156 104.695312 C 86.707031 100.707031 69.785156 100.707031 53.585938 104.695312 L 41.960938 78.171875 C 40.964844 78.59375 39.8125 78.125 39.390625 77.128906 C 38.976562 76.132812 39.441406 74.988281 40.4375 74.566406 C 41.433594 74.144531 42.582031 74.613281 43 75.613281 C 43.394531 76.53125 43.019531 77.597656 42.148438 78.082031 " fill-opacity="1" fill-rule="nonzero"/></g><g clip-path="url(#05ea531435)"><path fill="#ffcf00" d="M 152.824219 250.089844 C 152.3125 252.511719 152.160156 255.152344 152.140625 257.5625 C 152.109375 261.257812 152.417969 265.003906 152.925781 268.664062 C 153.113281 269.996094 153.328125 271.328125 153.574219 272.648438 C 155.144531 281.148438 158.03125 289.863281 163.558594 296.589844 C 165.191406 298.582031 167.09375 300.464844 169.207031 301.9375 C 164.355469 297.199219 161.324219 290.859375 159.4375 284.140625 C 156.097656 272.261719 155.808594 257.867188 157.589844 245.753906 C 155.511719 246.476562 153.3125 247.792969 152.824219 250.089844 Z M 182.707031 311.941406 C 183.207031 310.242188 183.507812 309.933594 185.253906 309.5 C 189.160156 308.527344 192.945312 306.476562 196.335938 303.347656 C 204.726562 295.605469 208.820312 284.523438 210.859375 273.511719 C 212.574219 264.246094 213.019531 254.113281 211.210938 247.578125 C 209.300781 240.683594 196.785156 235.308594 181.394531 234.984375 C 180.902344 234.972656 180.410156 234.96875 179.921875 234.96875 C 179.429688 234.96875 178.9375 234.972656 178.449219 234.984375 C 163.054688 235.308594 150.542969 240.683594 148.632812 247.578125 C 146.824219 254.113281 147.269531 264.246094 148.984375 273.511719 C 151.023438 284.523438 155.113281 295.605469 163.507812 303.347656 C 166.894531 306.476562 170.679688 308.527344 174.585938 309.5 C 176.332031 309.933594 176.636719 310.242188 177.136719 311.941406 C 178.53125 316.695312 181.308594 316.695312 182.707031 311.941406 " fill-opacity="1" fill-rule="evenodd"/></g><g clip-path="url(#333c877f4c)"><path fill="#ffcf00" d="M 177.136719 232.320312 C 176.371094 228.332031 174.605469 224.875 172.101562 222.046875 C 169.960938 225.269531 168.679688 229.027344 168.515625 233.191406 C 171.394531 232.707031 174.308594 232.429688 177.136719 232.320312 Z M 156.605469 224.238281 C 154.8125 227.980469 154.082031 232.199219 154.710938 236.683594 C 154.75 236.976562 154.796875 237.265625 154.847656 237.554688 C 155.71875 237.097656 156.589844 236.6875 157.441406 236.328125 C 159.289062 235.542969 161.230469 234.886719 163.222656 234.347656 C 161.949219 230.214844 159.636719 226.820312 156.605469 224.238281 Z M 150.578125 240.359375 C 150.339844 239.613281 150.054688 238.863281 149.726562 238.121094 C 147.898438 233.984375 145.058594 230.796875 141.566406 228.582031 C 139.804688 234.621094 140.90625 243.429688 145.789062 247.855469 C 145.871094 247.515625 145.953125 247.179688 146.046875 246.851562 C 146.765625 244.253906 148.480469 242.015625 150.578125 240.359375 Z M 143.027344 225.441406 C 146.34375 227.480469 149.058594 230.199219 151.078125 233.398438 C 151.105469 229.546875 152 225.738281 153.796875 222.199219 C 151.945312 221.058594 149.90625 220.160156 147.734375 219.511719 C 145.839844 221.199219 144.257812 223.234375 143.027344 225.441406 Z M 161.707031 212.75 C 159.210938 214.699219 157.160156 216.890625 155.550781 219.238281 C 154.140625 218.371094 152.617188 217.617188 150.980469 216.984375 C 153.710938 215.171875 158.796875 213.324219 161.707031 212.75 Z M 165.359375 230.34375 C 165.914062 226.535156 167.332031 222.890625 169.597656 219.632812 C 167.753906 218.105469 165.640625 216.832031 163.332031 215.84375 C 161.382812 217.433594 159.703125 219.238281 158.347656 221.226562 C 161.417969 223.726562 163.777344 226.839844 165.359375 230.34375 Z M 182.707031 232.320312 C 183.46875 228.332031 185.234375 224.875 187.746094 222.046875 C 189.882812 225.269531 191.160156 229.027344 191.324219 233.191406 C 188.445312 232.707031 185.535156 232.429688 182.707031 232.320312 Z M 203.234375 224.238281 C 205.03125 227.980469 205.761719 232.199219 205.132812 236.683594 C 205.089844 236.976562 205.042969 237.265625 204.992188 237.554688 C 204.125 237.097656 203.25 236.6875 202.402344 236.328125 C 200.550781 235.542969 198.613281 234.886719 196.617188 234.347656 C 197.894531 230.214844 200.203125 226.820312 203.234375 224.238281 Z M 209.261719 240.359375 C 209.503906 239.613281 209.789062 238.863281 210.117188 238.121094 C 211.945312 233.984375 214.785156 230.796875 218.277344 228.582031 C 220.039062 234.621094 218.933594 243.429688 214.054688 247.855469 C 213.972656 247.515625 213.886719 247.179688 213.796875 246.851562 C 213.078125 244.253906 211.359375 242.015625 209.261719 240.359375 Z M 216.816406 225.441406 C 213.496094 227.480469 210.785156 230.199219 208.765625 233.398438 C 208.738281 229.546875 207.839844 225.738281 206.046875 222.199219 C 207.898438 221.058594 209.933594 220.160156 212.109375 219.511719 C 214 221.199219 215.585938 223.234375 216.816406 225.441406 Z M 198.132812 212.75 C 200.632812 214.699219 202.683594 216.890625 204.292969 219.238281 C 205.703125 218.371094 207.226562 217.617188 208.859375 216.984375 C 206.132812 215.171875 201.046875 213.324219 198.132812 212.75 Z M 194.484375 230.34375 C 193.925781 226.535156 192.511719 222.890625 190.246094 219.632812 C 192.089844 218.105469 194.199219 216.832031 196.507812 215.84375 C 198.457031 217.433594 200.136719 219.238281 201.492188 221.226562 C 198.425781 223.726562 196.066406 226.839844 194.484375 230.34375 Z M 179.921875 214.675781 C 182.070312 215.976562 183.984375 217.53125 185.601562 219.304688 C 182.90625 222.214844 181 225.625 179.921875 229.316406 C 178.839844 225.625 176.9375 222.214844 174.242188 219.304688 C 175.859375 217.53125 177.769531 215.976562 179.921875 214.675781 Z M 177.3125 198.503906 L 182.535156 198.503906 C 182.734375 212.09375 185.855469 209.84375 195.8125 212.410156 C 192.871094 213.59375 190.292969 215.132812 188.097656 216.949219 C 185.765625 214.582031 182.929688 212.328125 179.921875 210.519531 C 176.914062 212.328125 174.078125 214.582031 171.746094 216.949219 C 169.546875 215.132812 166.972656 213.59375 164.027344 212.410156 C 173.984375 209.84375 177.109375 212.09375 177.3125 198.503906 " fill-opacity="1" fill-rule="evenodd"/></g></svg>