<svg xmlns="http://www.w3.org/2000/svg" xmlns:xlink="http://www.w3.org/1999/xlink" width="480" zoomAndPan="magnify" viewBox="0 0 360 503.999982" height="672" preserveAspectRatio="xMidYMid meet" version="1.0"><defs><filter x="0%" y="0%" width="100%" height="100%" id="8a7e48a71b"><feColorMatrix values="0 0 0 0 1 0 0 0 0 1 0 0 0 0 1 0 0 0 1 0" color-interpolation-filters="sRGB"/></filter><mask id="dac9f7658e"><g filter="url(#8a7e48a71b)"><rect x="-36" width="432" fill="#000000" y="-50.399998" height="604.799979" fill-opacity="0.1373"/></g></mask><clipPath id="7e7e9a0557"><path d="M 0 0 L 1 0 L 1 432.847656 L 0 432.847656 Z M 0 0 " clip-rule="nonzero"/></clipPath><clipPath id="49b59e8061"><path d="M 0 0 L 18 0 L 18 432.847656 L 0 432.847656 Z M 0 0 " clip-rule="nonzero"/></clipPath><clipPath id="e3e0e787e5"><path d="M 0 0 L 35 0 L 35 432.847656 L 0 432.847656 Z M 0 0 " clip-rule="nonzero"/></clipPath><clipPath id="d7e2eb55d1"><path d="M 0 0 L 53 0 L 53 432.847656 L 0 432.847656 Z M 0 0 " clip-rule="nonzero"/></clipPath><clipPath id="4c9bd47649"><path d="M 0 0 L 70 0 L 70 432.847656 L 0 432.847656 Z M 0 0 " clip-rule="nonzero"/></clipPath><clipPath id="286507d2f0"><path d="M 0 0 L 88 0 L 88 432.847656 L 0 432.847656 Z M 0 0 " clip-rule="nonzero"/></clipPath><clipPath id="26b9a72f03"><path d="M 0 0 L 105 0 L 105 432.847656 L 0 432.847656 Z M 0 0 " clip-rule="nonzero"/></clipPath><clipPath id="75e36e653a"><path d="M 0 0 L 122 0 L 122 432.847656 L 0 432.847656 Z M 0 0 " clip-rule="nonzero"/></clipPath><clipPath id="62edaf0345"><path d="M 0 0 L 140 0 L 140 432.847656 L 0 432.847656 Z M 0 0 " clip-rule="nonzero"/></clipPath><clipPath id="abcfd02dab"><path d="M 0 0 L 157 0 L 157 432.847656 L 0 432.847656 Z M 0 0 " clip-rule="nonzero"/></clipPath><clipPath id="518abb61f1"><path d="M 0 0 L 175 0 L 175 432.847656 L 0 432.847656 Z M 0 0 " clip-rule="nonzero"/></clipPath><clipPath id="d2c214c01b"><path d="M 0 0 L 192 0 L 192 432.847656 L 0 432.847656 Z M 0 0 " clip-rule="nonzero"/></clipPath><clipPath id="ec163887b6"><path d="M 0 0 L 208.722656 0 L 208.722656 432.847656 L 0 432.847656 Z M 0 0 " clip-rule="nonzero"/></clipPath><clipPath id="c21a3aa94f"><rect x="0" width="209" y="0" height="434"/></clipPath><mask id="ebf7c06307"><g filter="url(#8a7e48a71b)"><rect x="-36" width="432" fill="#000000" y="-50.399998" height="604.799979" fill-opacity="0.1373"/></g></mask><clipPath id="5badfac7ff"><path d="M 0 0.203125 L 197 0.203125 L 197 498 L 0 498 Z M 0 0.203125 " clip-rule="nonzero"/></clipPath><clipPath id="8cc3106419"><path d="M 0 0.203125 L 214 0.203125 L 214 498 L 0 498 Z M 0 0.203125 " clip-rule="nonzero"/></clipPath><clipPath id="78670a9c38"><path d="M 12 0.203125 L 232 0.203125 L 232 498 L 12 498 Z M 12 0.203125 " clip-rule="nonzero"/></clipPath><clipPath id="5d2ed6f6e3"><path d="M 29 0.203125 L 249 0.203125 L 249 498 L 29 498 Z M 29 0.203125 " clip-rule="nonzero"/></clipPath><clipPath id="5ea23cdcc3"><path d="M 47 0.203125 L 267 0.203125 L 267 498 L 47 498 Z M 47 0.203125 " clip-rule="nonzero"/></clipPath><clipPath id="58e70511e9"><path d="M 64 0.203125 L 284 0.203125 L 284 498 L 64 498 Z M 64 0.203125 " clip-rule="nonzero"/></clipPath><clipPath id="4a189a1844"><path d="M 81 0.203125 L 301 0.203125 L 301 498 L 81 498 Z M 81 0.203125 " clip-rule="nonzero"/></clipPath><clipPath id="de9199f9e7"><path d="M 99 0.203125 L 319 0.203125 L 319 498 L 99 498 Z M 99 0.203125 " clip-rule="nonzero"/></clipPath><clipPath id="43196819dd"><path d="M 116 0.203125 L 336 0.203125 L 336 498 L 116 498 Z M 116 0.203125 " clip-rule="nonzero"/></clipPath><clipPath id="af41bc57ff"><path d="M 134 0.203125 L 354 0.203125 L 354 498 L 134 498 Z M 134 0.203125 " clip-rule="nonzero"/></clipPath><clipPath id="2a9f39c106"><path d="M 151 0.203125 L 360 0.203125 L 360 498 L 151 498 Z M 151 0.203125 " clip-rule="nonzero"/></clipPath><clipPath id="44646a19a7"><path d="M 168 0.203125 L 360 0.203125 L 360 498 L 168 498 Z M 168 0.203125 " clip-rule="nonzero"/></clipPath><clipPath id="efe527cf05"><path d="M 186 0.203125 L 360 0.203125 L 360 498 L 186 498 Z M 186 0.203125 " clip-rule="nonzero"/></clipPath><clipPath id="98f47a8938"><path d="M 203 0.203125 L 360 0.203125 L 360 498 L 203 498 Z M 203 0.203125 " clip-rule="nonzero"/></clipPath><clipPath id="57e3cadb4b"><path d="M 221 0.203125 L 360 0.203125 L 360 498 L 221 498 Z M 221 0.203125 " clip-rule="nonzero"/></clipPath><clipPath id="9e10d42e64"><rect x="0" width="360" y="0" height="498"/></clipPath><mask id="e6ec8784cd"><g filter="url(#8a7e48a71b)"><rect x="-36" width="432" fill="#000000" y="-50.399998" height="604.799979" fill-opacity="0.1373"/></g></mask><clipPath id="5f86273303"><path d="M 0.222656 1 L 122 1 L 122 501.648438 L 0.222656 501.648438 Z M 0.222656 1 " clip-rule="nonzero"/></clipPath><clipPath id="63e1e70d64"><path d="M 17 1 L 122 1 L 122 501.648438 L 17 501.648438 Z M 17 1 " clip-rule="nonzero"/></clipPath><clipPath id="97fe5a8f45"><path d="M 35 1 L 122 1 L 122 501.648438 L 35 501.648438 Z M 35 1 " clip-rule="nonzero"/></clipPath><clipPath id="3dc204e096"><path d="M 52 1 L 122 1 L 122 501.648438 L 52 501.648438 Z M 52 1 " clip-rule="nonzero"/></clipPath><clipPath id="d2ff055de4"><path d="M 70 1 L 122 1 L 122 501.648438 L 70 501.648438 Z M 70 1 " clip-rule="nonzero"/></clipPath><clipPath id="5d61bee8f1"><path d="M 87 1 L 122 1 L 122 501.648438 L 87 501.648438 Z M 87 1 " clip-rule="nonzero"/></clipPath><clipPath id="d6f2c5af27"><path d="M 104 1 L 122 1 L 122 501.648438 L 104 501.648438 Z M 104 1 " clip-rule="nonzero"/></clipPath><clipPath id="96dec11a75"><rect x="0" width="122" y="0" height="502"/></clipPath><clipPath id="fd1841dc59"><path d="M 28.015625 36 L 331.765625 36 L 331.765625 468 L 28.015625 468 Z M 28.015625 36 " clip-rule="nonzero"/></clipPath><clipPath id="64decfb58c"><path d="M 126.242188 249 L 229.792969 249 L 229.792969 260.570312 L 126.242188 260.570312 Z M 126.242188 249 " clip-rule="nonzero"/></clipPath><clipPath id="11a3ce4c5f"><path d="M 95.558594 165.804688 L 264.308594 165.804688 L 264.308594 252 L 95.558594 252 Z M 95.558594 165.804688 " clip-rule="nonzero"/></clipPath><clipPath id="038ccb2566"><path d="M 95.550781 106.3125 L 129.566406 106.3125 L 129.566406 148.140625 L 95.550781 148.140625 Z M 95.550781 106.3125 " clip-rule="nonzero"/></clipPath><clipPath id="c76f226fc0"><path d="M 92 87.394531 L 133.558594 87.394531 L 133.558594 114 L 92 114 Z M 92 87.394531 " clip-rule="nonzero"/></clipPath><clipPath id="69a425ba4b"><path d="M 230.550781 106.3125 L 264.566406 106.3125 L 264.566406 148.140625 L 230.550781 148.140625 Z M 230.550781 106.3125 " clip-rule="nonzero"/></clipPath><clipPath id="ef60e0d076"><path d="M 227 87.394531 L 268.558594 87.394531 L 268.558594 114 L 227 114 Z M 227 87.394531 " clip-rule="nonzero"/></clipPath><clipPath id="7bb83d9fed"><path d="M 138.542969 320.5625 L 221.128906 320.5625 L 221.128906 422.816406 L 138.542969 422.816406 Z M 138.542969 320.5625 " clip-rule="nonzero"/></clipPath><clipPath id="846e54f390"><path d="M 130 274.316406 L 230 274.316406 L 230 337 L 130 337 Z M 130 274.316406 " clip-rule="nonzero"/></clipPath></defs><rect x="-36" width="432" fill="#ffffff" y="-50.399998" height="604.799979" fill-opacity="1"/><rect x="-36" width="432" fill="#323232" y="-50.399998" height="604.799979" fill-opacity="1"/><g mask="url(#dac9f7658e)"><g transform="matrix(1, 0, 0, 1, 0, 0)"><g clip-path="url(#c21a3aa94f)"><g clip-path="url(#7e7e9a0557)"><path fill="#000000" d="M -217.589844 432.296875 L -219.066406 431.664062 L -1.417969 -67.574219 L 0.0507812 -66.9375 Z M -217.589844 432.296875 " fill-opacity="1" fill-rule="nonzero"/></g><g clip-path="url(#49b59e8061)"><path fill="#000000" d="M -200.175781 432.296875 L -201.652344 431.664062 L 15.992188 -67.574219 L 17.460938 -66.9375 Z M -200.175781 432.296875 " fill-opacity="1" fill-rule="nonzero"/></g><g clip-path="url(#e3e0e787e5)"><path fill="#000000" d="M -182.765625 432.296875 L -184.242188 431.664062 L 33.40625 -67.574219 L 34.875 -66.9375 Z M -182.765625 432.296875 " fill-opacity="1" fill-rule="nonzero"/></g><g clip-path="url(#d7e2eb55d1)"><path fill="#000000" d="M -165.359375 432.296875 L -166.828125 431.664062 L 50.816406 -67.574219 L 52.289062 -66.9375 Z M -165.359375 432.296875 " fill-opacity="1" fill-rule="nonzero"/></g><g clip-path="url(#4c9bd47649)"><path fill="#000000" d="M -147.945312 432.296875 L -149.421875 431.664062 L 68.222656 -67.574219 L 69.699219 -66.9375 Z M -147.945312 432.296875 " fill-opacity="1" fill-rule="nonzero"/></g><g clip-path="url(#286507d2f0)"><path fill="#000000" d="M -130.535156 432.296875 L -132.011719 431.664062 L 85.636719 -67.574219 L 87.113281 -66.9375 Z M -130.535156 432.296875 " fill-opacity="1" fill-rule="nonzero"/></g><g clip-path="url(#26b9a72f03)"><path fill="#000000" d="M -113.121094 432.296875 L -114.597656 431.664062 L 103.050781 -67.574219 L 104.523438 -66.9375 Z M -113.121094 432.296875 " fill-opacity="1" fill-rule="nonzero"/></g><g clip-path="url(#75e36e653a)"><path fill="#000000" d="M -95.707031 432.296875 L -97.183594 431.664062 L 120.460938 -67.574219 L 121.929688 -66.9375 Z M -95.707031 432.296875 " fill-opacity="1" fill-rule="nonzero"/></g><g clip-path="url(#62edaf0345)"><path fill="#000000" d="M -78.304688 432.296875 L -79.773438 431.664062 L 137.875 -67.574219 L 139.34375 -66.9375 Z M -78.304688 432.296875 " fill-opacity="1" fill-rule="nonzero"/></g><g clip-path="url(#abcfd02dab)"><path fill="#000000" d="M -60.890625 432.296875 L -62.359375 431.664062 L 155.28125 -67.574219 L 156.757812 -66.9375 Z M -60.890625 432.296875 " fill-opacity="1" fill-rule="nonzero"/></g><g clip-path="url(#518abb61f1)"><path fill="#000000" d="M -43.476562 432.296875 L -44.949219 431.664062 L 172.691406 -67.574219 L 174.167969 -66.9375 Z M -43.476562 432.296875 " fill-opacity="1" fill-rule="nonzero"/></g><g clip-path="url(#d2c214c01b)"><path fill="#000000" d="M -26.066406 432.296875 L -27.535156 431.664062 L 190.105469 -67.574219 L 191.582031 -66.9375 Z M -26.066406 432.296875 " fill-opacity="1" fill-rule="nonzero"/></g><g clip-path="url(#ec163887b6)"><path fill="#000000" d="M -8.652344 432.296875 L -10.128906 431.664062 L 207.515625 -67.574219 L 208.992188 -66.9375 Z M -8.652344 432.296875 " fill-opacity="1" fill-rule="nonzero"/></g></g></g></g><g mask="url(#ebf7c06307)"><g transform="matrix(1, 0, 0, 1, 0, 6)"><g clip-path="url(#9e10d42e64)"><g clip-path="url(#5badfac7ff)"><path fill="#000000" d="M -21.167969 500.652344 L -22.636719 500.015625 L 195.003906 0.78125 L 196.480469 1.414062 Z M -21.167969 500.652344 " fill-opacity="1" fill-rule="nonzero"/></g><g clip-path="url(#8cc3106419)"><path fill="#000000" d="M -3.753906 500.652344 L -5.230469 500.015625 L 212.414062 0.78125 L 213.890625 1.414062 Z M -3.753906 500.652344 " fill-opacity="1" fill-rule="nonzero"/></g><g clip-path="url(#78670a9c38)"><path fill="#000000" d="M 13.65625 500.652344 L 12.183594 500.015625 L 229.828125 0.78125 L 231.296875 1.414062 Z M 13.65625 500.652344 " fill-opacity="1" fill-rule="nonzero"/></g><g clip-path="url(#5d2ed6f6e3)"><path fill="#000000" d="M 31.070312 500.652344 L 29.59375 500.015625 L 247.242188 0.78125 L 248.710938 1.414062 Z M 31.070312 500.652344 " fill-opacity="1" fill-rule="nonzero"/></g><g clip-path="url(#5ea23cdcc3)"><path fill="#000000" d="M 48.484375 500.652344 L 47.007812 500.015625 L 264.652344 0.78125 L 266.125 1.414062 Z M 48.484375 500.652344 " fill-opacity="1" fill-rule="nonzero"/></g><g clip-path="url(#58e70511e9)"><path fill="#000000" d="M 65.890625 500.652344 L 64.417969 500.015625 L 282.066406 0.78125 L 283.535156 1.414062 Z M 65.890625 500.652344 " fill-opacity="1" fill-rule="nonzero"/></g><g clip-path="url(#4a189a1844)"><path fill="#000000" d="M 83.300781 500.652344 L 81.824219 500.015625 L 299.472656 0.78125 L 300.949219 1.414062 Z M 83.300781 500.652344 " fill-opacity="1" fill-rule="nonzero"/></g><g clip-path="url(#de9199f9e7)"><path fill="#000000" d="M 100.714844 500.652344 L 99.238281 500.015625 L 316.882812 0.78125 L 318.359375 1.414062 Z M 100.714844 500.652344 " fill-opacity="1" fill-rule="nonzero"/></g><g clip-path="url(#43196819dd)"><path fill="#000000" d="M 118.125 500.652344 L 116.652344 500.015625 L 334.296875 0.78125 L 335.773438 1.414062 Z M 118.125 500.652344 " fill-opacity="1" fill-rule="nonzero"/></g><g clip-path="url(#af41bc57ff)"><path fill="#000000" d="M 135.539062 500.652344 L 134.0625 500.015625 L 351.710938 0.78125 L 353.179688 1.414062 Z M 135.539062 500.652344 " fill-opacity="1" fill-rule="nonzero"/></g><g clip-path="url(#2a9f39c106)"><path fill="#000000" d="M 152.945312 500.652344 L 151.476562 500.015625 L 369.121094 0.78125 L 370.589844 1.414062 Z M 152.945312 500.652344 " fill-opacity="1" fill-rule="nonzero"/></g><g clip-path="url(#44646a19a7)"><path fill="#000000" d="M 170.359375 500.652344 L 168.886719 500.015625 L 386.527344 0.78125 L 388.003906 1.414062 Z M 170.359375 500.652344 " fill-opacity="1" fill-rule="nonzero"/></g><g clip-path="url(#efe527cf05)"><path fill="#000000" d="M 187.769531 500.652344 L 186.300781 500.015625 L 403.941406 0.78125 L 405.417969 1.414062 Z M 187.769531 500.652344 " fill-opacity="1" fill-rule="nonzero"/></g><g clip-path="url(#98f47a8938)"><path fill="#000000" d="M 205.183594 500.652344 L 203.710938 500.015625 L 421.351562 0.78125 L 422.828125 1.414062 Z M 205.183594 500.652344 " fill-opacity="1" fill-rule="nonzero"/></g><g clip-path="url(#57e3cadb4b)"><path fill="#000000" d="M 222.59375 500.652344 L 221.117188 500.015625 L 438.765625 0.78125 L 440.242188 1.414062 Z M 222.59375 500.652344 " fill-opacity="1" fill-rule="nonzero"/></g></g></g></g><g mask="url(#e6ec8784cd)"><g transform="matrix(1, 0, 0, 1, 238, 2)"><g clip-path="url(#96dec11a75)"><g clip-path="url(#5f86273303)"><path fill="#000000" d="M 1.832031 501.097656 L 0.363281 500.460938 L 218.003906 1.226562 L 219.480469 1.859375 Z M 1.832031 501.097656 " fill-opacity="1" fill-rule="nonzero"/></g><g clip-path="url(#63e1e70d64)"><path fill="#000000" d="M 19.246094 501.097656 L 17.769531 500.460938 L 235.414062 1.226562 L 236.890625 1.859375 Z M 19.246094 501.097656 " fill-opacity="1" fill-rule="nonzero"/></g><g clip-path="url(#97fe5a8f45)"><path fill="#000000" d="M 36.65625 501.097656 L 35.183594 500.460938 L 252.828125 1.226562 L 254.296875 1.859375 Z M 36.65625 501.097656 " fill-opacity="1" fill-rule="nonzero"/></g><g clip-path="url(#3dc204e096)"><path fill="#000000" d="M 54.070312 501.097656 L 52.59375 500.460938 L 270.242188 1.226562 L 271.710938 1.859375 Z M 54.070312 501.097656 " fill-opacity="1" fill-rule="nonzero"/></g><g clip-path="url(#d2ff055de4)"><path fill="#000000" d="M 71.484375 501.097656 L 70.007812 500.460938 L 287.652344 1.226562 L 289.125 1.859375 Z M 71.484375 501.097656 " fill-opacity="1" fill-rule="nonzero"/></g><g clip-path="url(#5d61bee8f1)"><path fill="#000000" d="M 88.890625 501.097656 L 87.417969 500.460938 L 305.066406 1.226562 L 306.535156 1.859375 Z M 88.890625 501.097656 " fill-opacity="1" fill-rule="nonzero"/></g><g clip-path="url(#d6f2c5af27)"><path fill="#000000" d="M 106.300781 501.097656 L 104.824219 500.460938 L 322.472656 1.226562 L 323.949219 1.859375 Z M 106.300781 501.097656 " fill-opacity="1" fill-rule="nonzero"/></g></g></g></g><g clip-path="url(#fd1841dc59)"><path fill="#ffcf00" d="M 331.601562 467.976562 L 28.1875 467.976562 L 28.1875 36 L 331.601562 36 Z M 29.066406 467.097656 L 330.722656 467.097656 L 330.722656 36.878906 L 29.066406 36.878906 Z M 29.066406 467.097656 " fill-opacity="1" fill-rule="nonzero"/></g><g clip-path="url(#64decfb58c)"><path fill="#ffcf00" d="M 229.371094 256.066406 L 228.277344 260.570312 C 195.273438 252.445312 160.804688 252.445312 127.800781 260.570312 L 126.707031 256.066406 C 160.429688 247.746094 195.664062 247.746094 229.386719 256.066406 L 229.371094 256.066406 " fill-opacity="1" fill-rule="nonzero"/></g><g clip-path="url(#11a3ce4c5f)"><path fill="#ffcf00" d="M 101.851562 193.304688 C 111.15625 205.976562 123.679688 215.9375 138.105469 222.136719 C 136.113281 212.269531 135.125 202.207031 135.15625 192.132812 C 132.878906 192.65625 130.601562 191.230469 130.074219 188.949219 C 129.550781 186.648438 130.960938 184.382812 133.253906 183.855469 C 135.53125 183.316406 137.804688 184.742188 138.332031 187.039062 C 138.796875 189.050781 137.730469 191.125 135.8125 191.90625 C 141.402344 201.429688 148.367188 210.0625 156.519531 217.496094 C 166.136719 206.070312 173.851562 193.167969 179.394531 179.277344 C 175.679688 178.960938 172.9375 175.6875 173.253906 171.976562 C 173.566406 168.253906 176.832031 165.503906 180.535156 165.820312 C 184.234375 166.132812 186.992188 169.410156 186.675781 173.117188 C 186.390625 176.390625 183.800781 178.992188 180.535156 179.277344 C 186.0625 193.167969 193.792969 206.070312 203.410156 217.496094 C 211.542969 210.0625 218.527344 201.429688 224.097656 191.90625 C 221.941406 191.003906 220.9375 188.511719 221.835938 186.347656 C 222.734375 184.1875 225.222656 183.179688 227.378906 184.082031 C 229.539062 184.984375 230.554688 187.476562 229.65625 189.636719 C 228.847656 191.5625 226.78125 192.613281 224.757812 192.132812 C 224.789062 202.207031 223.800781 212.269531 221.792969 222.136719 C 236.234375 215.9375 248.742188 205.976562 258.0625 193.304688 C 256.007812 192.160156 255.273438 189.578125 256.398438 187.519531 C 257.539062 185.476562 260.113281 184.726562 262.167969 185.867188 C 264.203125 187.011719 264.953125 189.59375 263.816406 191.636719 C 262.765625 193.542969 260.457031 194.339844 258.464844 193.5 L 233.3125 251.035156 C 198.257812 242.382812 161.640625 242.382812 126.601562 251.035156 L 101.445312 193.5 C 99.289062 194.414062 96.800781 193.394531 95.886719 191.230469 C 94.988281 189.066406 95.992188 186.589844 98.152344 185.671875 C 100.308594 184.757812 102.796875 185.777344 103.695312 187.941406 C 104.546875 189.9375 103.738281 192.25 101.851562 193.304688 " fill-opacity="1" fill-rule="nonzero"/></g><g clip-path="url(#038ccb2566)"><path fill="#ffcf00" d="M 98.375 114.175781 C 98.105469 115.433594 98.027344 116.804688 98.015625 118.058594 C 98 119.976562 98.160156 121.921875 98.425781 123.820312 C 98.527344 124.511719 98.636719 125.203125 98.765625 125.890625 C 99.589844 130.304688 101.101562 134.828125 103.992188 138.320312 C 104.847656 139.355469 105.84375 140.332031 106.949219 141.097656 C 104.410156 138.636719 102.824219 135.34375 101.835938 131.855469 C 100.089844 125.6875 99.9375 118.214844 100.867188 111.925781 C 99.78125 112.300781 98.628906 112.984375 98.375 114.175781 Z M 114.015625 146.292969 C 114.277344 145.410156 114.4375 145.25 115.351562 145.023438 C 117.394531 144.519531 119.375 143.453125 121.152344 141.828125 C 125.542969 137.808594 127.6875 132.054688 128.753906 126.335938 C 129.652344 121.527344 129.882812 116.265625 128.9375 112.871094 C 127.9375 109.292969 121.386719 106.5 113.328125 106.332031 C 113.074219 106.328125 112.816406 106.324219 112.558594 106.324219 C 112.300781 106.324219 112.042969 106.328125 111.789062 106.332031 C 103.730469 106.5 97.179688 109.292969 96.179688 112.871094 C 95.234375 116.265625 95.464844 121.527344 96.363281 126.335938 C 97.429688 132.054688 99.574219 137.808594 103.96875 141.828125 C 105.742188 143.453125 107.722656 144.519531 109.765625 145.023438 C 110.679688 145.25 110.839844 145.410156 111.101562 146.292969 C 111.832031 148.757812 113.285156 148.757812 114.015625 146.292969 " fill-opacity="1" fill-rule="evenodd"/></g><g clip-path="url(#c76f226fc0)"><path fill="#ffcf00" d="M 111.101562 104.949219 C 110.699219 102.878906 109.777344 101.085938 108.464844 99.617188 C 107.34375 101.289062 106.675781 103.242188 106.589844 105.402344 C 108.097656 105.152344 109.621094 105.007812 111.101562 104.949219 Z M 100.355469 100.753906 C 99.414062 102.695312 99.035156 104.886719 99.363281 107.214844 C 99.382812 107.367188 99.40625 107.519531 99.433594 107.667969 C 99.890625 107.429688 100.347656 107.21875 100.789062 107.03125 C 101.757812 106.625 102.777344 106.28125 103.816406 106.003906 C 103.148438 103.855469 101.941406 102.09375 100.355469 100.753906 Z M 97.199219 109.125 C 97.074219 108.734375 96.925781 108.347656 96.753906 107.964844 C 95.796875 105.816406 94.308594 104.160156 92.480469 103.007812 C 91.558594 106.144531 92.136719 110.71875 94.691406 113.015625 C 94.734375 112.839844 94.777344 112.667969 94.828125 112.496094 C 95.203125 111.144531 96.101562 109.984375 97.199219 109.125 Z M 93.246094 101.378906 C 94.984375 102.4375 96.402344 103.847656 97.460938 105.511719 C 97.472656 103.511719 97.941406 101.535156 98.882812 99.695312 C 97.914062 99.101562 96.847656 98.636719 95.710938 98.300781 C 94.71875 99.175781 93.890625 100.234375 93.246094 101.378906 Z M 103.023438 94.789062 C 101.71875 95.800781 100.644531 96.9375 99.800781 98.160156 C 99.0625 97.707031 98.265625 97.316406 97.410156 96.988281 C 98.839844 96.046875 101.5 95.085938 103.023438 94.789062 Z M 104.933594 103.925781 C 105.226562 101.945312 105.96875 100.054688 107.15625 98.363281 C 106.1875 97.570312 105.085938 96.910156 103.875 96.394531 C 102.855469 97.21875 101.976562 98.160156 101.265625 99.191406 C 102.871094 100.488281 104.109375 102.105469 104.933594 103.925781 Z M 114.015625 104.949219 C 114.417969 102.878906 115.339844 101.085938 116.652344 99.617188 C 117.773438 101.289062 118.441406 103.242188 118.527344 105.402344 C 117.019531 105.152344 115.5 105.007812 114.015625 104.949219 Z M 124.761719 100.753906 C 125.703125 102.695312 126.085938 104.886719 125.753906 107.214844 C 125.734375 107.367188 125.710938 107.519531 125.683594 107.667969 C 125.226562 107.429688 124.769531 107.21875 124.328125 107.03125 C 123.359375 106.625 122.34375 106.28125 121.300781 106.003906 C 121.964844 103.855469 123.175781 102.09375 124.761719 100.753906 Z M 127.917969 109.125 C 128.042969 108.734375 128.191406 108.347656 128.363281 107.964844 C 129.320312 105.816406 130.808594 104.160156 132.636719 103.007812 C 133.558594 106.144531 132.980469 110.71875 130.425781 113.015625 C 130.382812 112.839844 130.339844 112.667969 130.289062 112.496094 C 129.914062 111.144531 129.015625 109.984375 127.917969 109.125 Z M 131.871094 101.378906 C 130.132812 102.4375 128.714844 103.847656 127.65625 105.511719 C 127.644531 103.511719 127.171875 101.535156 126.234375 99.695312 C 127.203125 99.101562 128.269531 98.636719 129.40625 98.300781 C 130.398438 99.175781 131.226562 100.234375 131.871094 101.378906 Z M 122.09375 94.789062 C 123.402344 95.800781 124.472656 96.9375 125.316406 98.160156 C 126.054688 97.707031 126.851562 97.316406 127.707031 96.988281 C 126.28125 96.046875 123.617188 95.085938 122.09375 94.789062 Z M 120.183594 103.925781 C 119.890625 101.945312 119.148438 100.054688 117.960938 98.363281 C 118.929688 97.570312 120.03125 96.910156 121.242188 96.394531 C 122.261719 97.21875 123.140625 98.160156 123.851562 99.191406 C 122.246094 100.488281 121.011719 102.105469 120.183594 103.925781 Z M 112.558594 95.789062 C 113.683594 96.464844 114.683594 97.273438 115.53125 98.191406 C 114.121094 99.703125 113.125 101.476562 112.558594 103.390625 C 111.992188 101.476562 110.996094 99.703125 109.585938 98.191406 C 110.429688 97.273438 111.433594 96.464844 112.558594 95.789062 Z M 111.191406 87.394531 L 113.925781 87.394531 C 114.03125 94.449219 115.664062 93.28125 120.878906 94.613281 C 119.335938 95.226562 117.988281 96.027344 116.839844 96.96875 C 115.617188 95.742188 114.132812 94.570312 112.558594 93.632812 C 110.984375 94.570312 109.5 95.742188 108.277344 96.96875 C 107.128906 96.027344 105.78125 95.226562 104.238281 94.613281 C 109.453125 93.28125 111.085938 94.449219 111.191406 87.394531 " fill-opacity="1" fill-rule="evenodd"/></g><g clip-path="url(#69a425ba4b)"><path fill="#ffcf00" d="M 233.375 114.175781 C 233.105469 115.433594 233.027344 116.804688 233.015625 118.058594 C 233 119.976562 233.160156 121.921875 233.425781 123.820312 C 233.527344 124.511719 233.636719 125.203125 233.765625 125.890625 C 234.589844 130.304688 236.101562 134.828125 238.992188 138.320312 C 239.847656 139.355469 240.84375 140.332031 241.949219 141.097656 C 239.410156 138.636719 237.824219 135.34375 236.835938 131.855469 C 235.089844 125.6875 234.9375 118.214844 235.867188 111.925781 C 234.78125 112.300781 233.628906 112.984375 233.375 114.175781 Z M 249.015625 146.292969 C 249.277344 145.410156 249.4375 145.25 250.351562 145.023438 C 252.394531 144.519531 254.375 143.453125 256.152344 141.828125 C 260.542969 137.808594 262.6875 132.054688 263.753906 126.335938 C 264.652344 121.527344 264.882812 116.265625 263.9375 112.871094 C 262.9375 109.292969 256.386719 106.5 248.328125 106.332031 C 248.074219 106.328125 247.816406 106.324219 247.558594 106.324219 C 247.300781 106.324219 247.042969 106.328125 246.789062 106.332031 C 238.730469 106.5 232.179688 109.292969 231.179688 112.871094 C 230.234375 116.265625 230.464844 121.527344 231.363281 126.335938 C 232.429688 132.054688 234.574219 137.808594 238.96875 141.828125 C 240.742188 143.453125 242.722656 144.519531 244.765625 145.023438 C 245.679688 145.25 245.839844 145.410156 246.101562 146.292969 C 246.832031 148.757812 248.285156 148.757812 249.015625 146.292969 " fill-opacity="1" fill-rule="evenodd"/></g><g clip-path="url(#ef60e0d076)"><path fill="#ffcf00" d="M 246.101562 104.949219 C 245.699219 102.878906 244.777344 101.085938 243.464844 99.617188 C 242.34375 101.289062 241.675781 103.242188 241.589844 105.402344 C 243.097656 105.152344 244.621094 105.007812 246.101562 104.949219 Z M 235.355469 100.753906 C 234.414062 102.695312 234.035156 104.886719 234.363281 107.214844 C 234.382812 107.367188 234.40625 107.519531 234.433594 107.667969 C 234.890625 107.429688 235.347656 107.21875 235.789062 107.03125 C 236.757812 106.625 237.777344 106.28125 238.816406 106.003906 C 238.148438 103.855469 236.941406 102.09375 235.355469 100.753906 Z M 232.199219 109.125 C 232.074219 108.734375 231.925781 108.347656 231.753906 107.964844 C 230.796875 105.816406 229.308594 104.160156 227.480469 103.007812 C 226.558594 106.144531 227.136719 110.71875 229.691406 113.015625 C 229.734375 112.839844 229.777344 112.667969 229.828125 112.496094 C 230.203125 111.144531 231.101562 109.984375 232.199219 109.125 Z M 228.246094 101.378906 C 229.984375 102.4375 231.402344 103.847656 232.460938 105.511719 C 232.472656 103.511719 232.941406 101.535156 233.882812 99.695312 C 232.914062 99.101562 231.847656 98.636719 230.710938 98.300781 C 229.71875 99.175781 228.890625 100.234375 228.246094 101.378906 Z M 238.023438 94.789062 C 236.71875 95.800781 235.644531 96.9375 234.800781 98.160156 C 234.0625 97.707031 233.265625 97.316406 232.410156 96.988281 C 233.839844 96.046875 236.5 95.085938 238.023438 94.789062 Z M 239.933594 103.925781 C 240.226562 101.945312 240.96875 100.054688 242.15625 98.363281 C 241.1875 97.570312 240.085938 96.910156 238.875 96.394531 C 237.855469 97.21875 236.976562 98.160156 236.265625 99.191406 C 237.871094 100.488281 239.109375 102.105469 239.933594 103.925781 Z M 249.015625 104.949219 C 249.417969 102.878906 250.339844 101.085938 251.652344 99.617188 C 252.773438 101.289062 253.441406 103.242188 253.527344 105.402344 C 252.019531 105.152344 250.5 105.007812 249.015625 104.949219 Z M 259.761719 100.753906 C 260.703125 102.695312 261.085938 104.886719 260.753906 107.214844 C 260.734375 107.367188 260.710938 107.519531 260.683594 107.667969 C 260.226562 107.429688 259.769531 107.21875 259.328125 107.03125 C 258.359375 106.625 257.34375 106.28125 256.300781 106.003906 C 256.964844 103.855469 258.175781 102.09375 259.761719 100.753906 Z M 262.917969 109.125 C 263.042969 108.734375 263.191406 108.347656 263.363281 107.964844 C 264.320312 105.816406 265.808594 104.160156 267.636719 103.007812 C 268.558594 106.144531 267.980469 110.71875 265.425781 113.015625 C 265.382812 112.839844 265.339844 112.667969 265.289062 112.496094 C 264.914062 111.144531 264.015625 109.984375 262.917969 109.125 Z M 266.871094 101.378906 C 265.132812 102.4375 263.714844 103.847656 262.65625 105.511719 C 262.644531 103.511719 262.171875 101.535156 261.234375 99.695312 C 262.203125 99.101562 263.269531 98.636719 264.40625 98.300781 C 265.398438 99.175781 266.226562 100.234375 266.871094 101.378906 Z M 257.09375 94.789062 C 258.402344 95.800781 259.472656 96.9375 260.316406 98.160156 C 261.054688 97.707031 261.851562 97.316406 262.707031 96.988281 C 261.28125 96.046875 258.617188 95.085938 257.09375 94.789062 Z M 255.183594 103.925781 C 254.890625 101.945312 254.148438 100.054688 252.960938 98.363281 C 253.929688 97.570312 255.03125 96.910156 256.242188 96.394531 C 257.261719 97.21875 258.140625 98.160156 258.851562 99.191406 C 257.246094 100.488281 256.011719 102.105469 255.183594 103.925781 Z M 247.558594 95.789062 C 248.683594 96.464844 249.683594 97.273438 250.53125 98.191406 C 249.121094 99.703125 248.125 101.476562 247.558594 103.390625 C 246.992188 101.476562 245.996094 99.703125 244.585938 98.191406 C 245.429688 97.273438 246.433594 96.464844 247.558594 95.789062 Z M 246.191406 87.394531 L 248.925781 87.394531 C 249.03125 94.449219 250.664062 93.28125 255.878906 94.613281 C 254.335938 95.226562 252.988281 96.027344 251.839844 96.96875 C 250.617188 95.742188 249.132812 94.570312 247.558594 93.632812 C 245.984375 94.570312 244.5 95.742188 243.277344 96.96875 C 242.128906 96.027344 240.78125 95.226562 239.238281 94.613281 C 244.453125 93.28125 246.085938 94.449219 246.191406 87.394531 " fill-opacity="1" fill-rule="evenodd"/></g><g clip-path="url(#7bb83d9fed)"><path fill="#ffcf00" d="M 145.398438 339.789062 C 144.746094 342.863281 144.550781 346.214844 144.523438 349.273438 C 144.488281 353.964844 144.878906 358.71875 145.523438 363.363281 C 145.761719 365.054688 146.035156 366.742188 146.347656 368.421875 C 148.34375 379.207031 152.015625 390.269531 159.039062 398.808594 C 161.113281 401.335938 163.535156 403.726562 166.21875 405.597656 C 160.050781 399.582031 156.195312 391.535156 153.800781 383.007812 C 149.558594 367.929688 149.1875 349.660156 151.453125 334.285156 C 148.808594 335.203125 146.015625 336.875 145.398438 339.789062 Z M 183.375 418.292969 C 184.011719 416.136719 184.398438 415.746094 186.613281 415.191406 C 191.578125 413.960938 196.390625 411.355469 200.699219 407.382812 C 211.367188 397.554688 216.570312 383.492188 219.160156 369.515625 C 221.335938 357.753906 221.902344 344.894531 219.605469 336.601562 C 217.179688 327.851562 201.273438 321.027344 181.707031 320.617188 C 181.085938 320.601562 180.460938 320.597656 179.835938 320.597656 C 179.210938 320.597656 178.585938 320.601562 177.964844 320.617188 C 158.398438 321.027344 142.496094 327.851562 140.070312 336.601562 C 137.769531 344.894531 138.335938 357.753906 140.511719 369.515625 C 143.105469 383.492188 148.304688 397.554688 158.972656 407.382812 C 163.28125 411.355469 168.089844 413.960938 173.054688 415.191406 C 175.273438 415.746094 175.660156 416.136719 176.296875 418.292969 C 178.070312 424.324219 181.601562 424.324219 183.375 418.292969 " fill-opacity="1" fill-rule="evenodd"/></g><g clip-path="url(#846e54f390)"><path fill="#ffcf00" d="M 176.296875 317.234375 C 175.324219 312.171875 173.082031 307.785156 169.894531 304.195312 C 167.175781 308.285156 165.546875 313.058594 165.339844 318.34375 C 169 317.726562 172.699219 317.371094 176.296875 317.234375 Z M 150.203125 306.980469 C 147.921875 311.726562 146.996094 317.082031 147.792969 322.773438 C 147.84375 323.144531 147.902344 323.511719 147.96875 323.878906 C 149.070312 323.296875 150.183594 322.777344 151.261719 322.320312 C 153.613281 321.324219 156.082031 320.492188 158.613281 319.808594 C 156.992188 314.5625 154.054688 310.257812 150.203125 306.980469 Z M 142.542969 327.4375 C 142.234375 326.488281 141.875 325.539062 141.460938 324.597656 C 139.132812 319.347656 135.523438 315.296875 131.085938 312.488281 C 128.847656 320.15625 130.25 331.332031 136.453125 336.953125 C 136.554688 336.519531 136.664062 336.097656 136.78125 335.675781 C 137.695312 332.378906 139.875 329.539062 142.542969 327.4375 Z M 132.941406 308.503906 C 137.160156 311.09375 140.609375 314.539062 143.175781 318.605469 C 143.210938 313.714844 144.347656 308.882812 146.632812 304.390625 C 144.277344 302.9375 141.6875 301.796875 138.929688 300.976562 C 136.519531 303.121094 134.503906 305.703125 132.941406 308.503906 Z M 156.683594 292.398438 C 153.511719 294.871094 150.90625 297.652344 148.859375 300.632812 C 147.066406 299.53125 145.132812 298.570312 143.050781 297.773438 C 146.523438 295.472656 152.988281 293.125 156.683594 292.398438 Z M 161.324219 314.726562 C 162.035156 309.890625 163.835938 305.265625 166.714844 301.132812 C 164.371094 299.191406 161.6875 297.574219 158.753906 296.320312 C 156.273438 298.339844 154.140625 300.632812 152.417969 303.152344 C 156.316406 306.324219 159.316406 310.277344 161.324219 314.726562 Z M 183.375 317.234375 C 184.347656 312.171875 186.589844 307.785156 189.78125 304.195312 C 192.496094 308.285156 194.121094 313.058594 194.332031 318.34375 C 190.671875 317.726562 186.972656 317.371094 183.375 317.234375 Z M 209.46875 306.980469 C 211.75 311.726562 212.675781 317.082031 211.878906 322.773438 C 211.828125 323.144531 211.769531 323.511719 211.703125 323.878906 C 210.597656 323.296875 209.488281 322.777344 208.410156 322.320312 C 206.058594 321.324219 203.59375 320.492188 201.058594 319.808594 C 202.679688 314.5625 205.617188 310.257812 209.46875 306.980469 Z M 217.128906 327.4375 C 217.433594 326.488281 217.796875 325.539062 218.214844 324.597656 C 220.539062 319.347656 224.148438 315.296875 228.585938 312.488281 C 230.828125 320.15625 229.421875 331.332031 223.21875 336.953125 C 223.113281 336.519531 223.007812 336.097656 222.890625 335.675781 C 221.976562 332.378906 219.796875 329.539062 217.128906 327.4375 Z M 226.730469 308.503906 C 222.511719 311.09375 219.0625 314.539062 216.496094 318.605469 C 216.464844 313.714844 215.324219 308.882812 213.042969 304.390625 C 215.394531 302.9375 217.984375 301.796875 220.746094 300.976562 C 223.152344 303.121094 225.164062 305.703125 226.730469 308.503906 Z M 202.984375 292.398438 C 206.164062 294.871094 208.765625 297.652344 210.8125 300.632812 C 212.601562 299.53125 214.542969 298.570312 216.617188 297.773438 C 213.152344 295.472656 206.683594 293.125 202.984375 292.398438 Z M 198.34375 314.726562 C 197.636719 309.890625 195.835938 305.265625 192.957031 301.132812 C 195.304688 299.191406 197.984375 297.574219 200.917969 296.320312 C 203.398438 298.339844 205.53125 300.632812 207.253906 303.152344 C 203.355469 306.324219 200.355469 310.277344 198.34375 314.726562 Z M 179.835938 294.835938 C 182.570312 296.492188 185 298.464844 187.058594 300.714844 C 183.628906 304.40625 181.207031 308.738281 179.835938 313.421875 C 178.464844 308.738281 176.042969 304.40625 172.617188 300.714844 C 174.671875 298.464844 177.101562 296.492188 179.835938 294.835938 Z M 176.519531 274.316406 L 183.15625 274.316406 C 183.410156 291.5625 187.378906 288.707031 200.035156 291.964844 C 196.292969 293.464844 193.019531 295.417969 190.226562 297.726562 C 187.265625 294.722656 183.65625 291.863281 179.835938 289.5625 C 176.011719 291.863281 172.410156 294.722656 169.441406 297.726562 C 166.652344 295.417969 163.375 293.464844 159.636719 291.964844 C 172.292969 288.707031 176.261719 291.5625 176.519531 274.316406 " fill-opacity="1" fill-rule="evenodd"/></g></svg>