<svg xmlns="http://www.w3.org/2000/svg" xmlns:xlink="http://www.w3.org/1999/xlink" width="480" zoomAndPan="magnify" viewBox="0 0 360 503.999982" height="672" preserveAspectRatio="xMidYMid meet" version="1.0"><defs><filter x="0%" y="0%" width="100%" height="100%" id="13163b5581"><feColorMatrix values="0 0 0 0 1 0 0 0 0 1 0 0 0 0 1 0 0 0 1 0" color-interpolation-filters="sRGB"/></filter><g/><mask id="7972a4834d"><g filter="url(#13163b5581)"><rect x="-36" width="432" fill="#000000" y="-50.399998" height="604.799979" fill-opacity="0.1373"/></g></mask><clipPath id="0ad7af9dbe"><path d="M 0 0 L 1 0 L 1 432.847656 L 0 432.847656 Z M 0 0 " clip-rule="nonzero"/></clipPath><clipPath id="5dbfeeb22d"><path d="M 0 0 L 18 0 L 18 432.847656 L 0 432.847656 Z M 0 0 " clip-rule="nonzero"/></clipPath><clipPath id="9c1effde66"><path d="M 0 0 L 35 0 L 35 432.847656 L 0 432.847656 Z M 0 0 " clip-rule="nonzero"/></clipPath><clipPath id="e1e03e49b9"><path d="M 0 0 L 53 0 L 53 432.847656 L 0 432.847656 Z M 0 0 " clip-rule="nonzero"/></clipPath><clipPath id="5605aa6d3f"><path d="M 0 0 L 70 0 L 70 432.847656 L 0 432.847656 Z M 0 0 " clip-rule="nonzero"/></clipPath><clipPath id="5c96255c71"><path d="M 0 0 L 88 0 L 88 432.847656 L 0 432.847656 Z M 0 0 " clip-rule="nonzero"/></clipPath><clipPath id="56322437dc"><path d="M 0 0 L 105 0 L 105 432.847656 L 0 432.847656 Z M 0 0 " clip-rule="nonzero"/></clipPath><clipPath id="a2886806fd"><path d="M 0 0 L 122 0 L 122 432.847656 L 0 432.847656 Z M 0 0 " clip-rule="nonzero"/></clipPath><clipPath id="38d09c63ce"><path d="M 0 0 L 140 0 L 140 432.847656 L 0 432.847656 Z M 0 0 " clip-rule="nonzero"/></clipPath><clipPath id="e4add317ef"><path d="M 0 0 L 157 0 L 157 432.847656 L 0 432.847656 Z M 0 0 " clip-rule="nonzero"/></clipPath><clipPath id="1f5bf2687b"><path d="M 0 0 L 175 0 L 175 432.847656 L 0 432.847656 Z M 0 0 " clip-rule="nonzero"/></clipPath><clipPath id="94d5fab9da"><path d="M 0 0 L 192 0 L 192 432.847656 L 0 432.847656 Z M 0 0 " clip-rule="nonzero"/></clipPath><clipPath id="a4d1e1c18a"><path d="M 0 0 L 208.722656 0 L 208.722656 432.847656 L 0 432.847656 Z M 0 0 " clip-rule="nonzero"/></clipPath><clipPath id="16d6f988e0"><rect x="0" width="209" y="0" height="434"/></clipPath><mask id="5ffc4e4830"><g filter="url(#13163b5581)"><rect x="-36" width="432" fill="#000000" y="-50.399998" height="604.799979" fill-opacity="0.1373"/></g></mask><clipPath id="1bc6fef6f7"><path d="M 0 1 L 197 1 L 197 501.648438 L 0 501.648438 Z M 0 1 " clip-rule="nonzero"/></clipPath><clipPath id="981a6d424c"><path d="M 0 1 L 214 1 L 214 501.648438 L 0 501.648438 Z M 0 1 " clip-rule="nonzero"/></clipPath><clipPath id="9924524188"><path d="M 12 1 L 232 1 L 232 501.648438 L 12 501.648438 Z M 12 1 " clip-rule="nonzero"/></clipPath><clipPath id="28d35cb912"><path d="M 29 1 L 249 1 L 249 501.648438 L 29 501.648438 Z M 29 1 " clip-rule="nonzero"/></clipPath><clipPath id="6b8dd4c96e"><path d="M 47 1 L 267 1 L 267 501.648438 L 47 501.648438 Z M 47 1 " clip-rule="nonzero"/></clipPath><clipPath id="018ae9d9e5"><path d="M 64 1 L 284 1 L 284 501.648438 L 64 501.648438 Z M 64 1 " clip-rule="nonzero"/></clipPath><clipPath id="cbb2f5f6f7"><path d="M 81 1 L 301 1 L 301 501.648438 L 81 501.648438 Z M 81 1 " clip-rule="nonzero"/></clipPath><clipPath id="e4d09f079e"><path d="M 99 1 L 319 1 L 319 501.648438 L 99 501.648438 Z M 99 1 " clip-rule="nonzero"/></clipPath><clipPath id="ddfb29a145"><path d="M 116 1 L 336 1 L 336 501.648438 L 116 501.648438 Z M 116 1 " clip-rule="nonzero"/></clipPath><clipPath id="64a6d68e51"><path d="M 134 1 L 354 1 L 354 501.648438 L 134 501.648438 Z M 134 1 " clip-rule="nonzero"/></clipPath><clipPath id="f8a821a1eb"><path d="M 151 1 L 360 1 L 360 501.648438 L 151 501.648438 Z M 151 1 " clip-rule="nonzero"/></clipPath><clipPath id="2512cd15ea"><path d="M 168 1 L 360 1 L 360 501.648438 L 168 501.648438 Z M 168 1 " clip-rule="nonzero"/></clipPath><clipPath id="64ef38f18f"><path d="M 186 1 L 360 1 L 360 501.648438 L 186 501.648438 Z M 186 1 " clip-rule="nonzero"/></clipPath><clipPath id="07663f0fed"><path d="M 203 1 L 360 1 L 360 501.648438 L 203 501.648438 Z M 203 1 " clip-rule="nonzero"/></clipPath><clipPath id="7667d47b08"><path d="M 221 1 L 360 1 L 360 501.648438 L 221 501.648438 Z M 221 1 " clip-rule="nonzero"/></clipPath><clipPath id="ed9ef519d3"><rect x="0" width="360" y="0" height="502"/></clipPath><clipPath id="903d75ab0b"><path d="M 28.015625 36 L 331.765625 36 L 331.765625 468 L 28.015625 468 Z M 28.015625 36 " clip-rule="nonzero"/></clipPath><mask id="d82952182a"><g filter="url(#13163b5581)"><rect x="-36" width="432" fill="#000000" y="-50.399998" height="604.799979" fill-opacity="0.1373"/></g></mask><clipPath id="8a42f1604f"><path d="M 0.222656 1 L 122 1 L 122 501.648438 L 0.222656 501.648438 Z M 0.222656 1 " clip-rule="nonzero"/></clipPath><clipPath id="081622f2f6"><path d="M 17 1 L 122 1 L 122 501.648438 L 17 501.648438 Z M 17 1 " clip-rule="nonzero"/></clipPath><clipPath id="344f2392a7"><path d="M 35 1 L 122 1 L 122 501.648438 L 35 501.648438 Z M 35 1 " clip-rule="nonzero"/></clipPath><clipPath id="d4bb3bc77e"><path d="M 52 1 L 122 1 L 122 501.648438 L 52 501.648438 Z M 52 1 " clip-rule="nonzero"/></clipPath><clipPath id="ba2d206241"><path d="M 70 1 L 122 1 L 122 501.648438 L 70 501.648438 Z M 70 1 " clip-rule="nonzero"/></clipPath><clipPath id="df0919af43"><path d="M 87 1 L 122 1 L 122 501.648438 L 87 501.648438 Z M 87 1 " clip-rule="nonzero"/></clipPath><clipPath id="22f7142a1e"><path d="M 104 1 L 122 1 L 122 501.648438 L 104 501.648438 Z M 104 1 " clip-rule="nonzero"/></clipPath><clipPath id="331cade86e"><rect x="0" width="122" y="0" height="502"/></clipPath><clipPath id="bd4089e9bf"><path d="M 163.050781 131.824219 L 197.066406 131.824219 L 197.066406 173.652344 L 163.050781 173.652344 Z M 163.050781 131.824219 " clip-rule="nonzero"/></clipPath><clipPath id="0188aa56d1"><path d="M 159.058594 112.90625 L 201 112.90625 L 201 139 L 159.058594 139 Z M 159.058594 112.90625 " clip-rule="nonzero"/></clipPath><clipPath id="2e3d1a2e60"><path d="M 96.464844 201.441406 L 130.476562 201.441406 L 130.476562 243.273438 L 96.464844 243.273438 Z M 96.464844 201.441406 " clip-rule="nonzero"/></clipPath><clipPath id="83138c8e4b"><path d="M 92.46875 182.523438 L 134 182.523438 L 134 209 L 92.46875 209 Z M 92.46875 182.523438 " clip-rule="nonzero"/></clipPath><clipPath id="735aed4845"><path d="M 96.464844 266.863281 L 130.476562 266.863281 L 130.476562 308.695312 L 96.464844 308.695312 Z M 96.464844 266.863281 " clip-rule="nonzero"/></clipPath><clipPath id="989cf9e109"><path d="M 92.46875 247.945312 L 134 247.945312 L 134 274 L 92.46875 274 Z M 92.46875 247.945312 " clip-rule="nonzero"/></clipPath><clipPath id="d4abd926cd"><path d="M 96.464844 332.28125 L 130.476562 332.28125 L 130.476562 374.113281 L 96.464844 374.113281 Z M 96.464844 332.28125 " clip-rule="nonzero"/></clipPath><clipPath id="0ecdbf2f82"><path d="M 92.46875 313.363281 L 134 313.363281 L 134 339 L 92.46875 339 Z M 92.46875 313.363281 " clip-rule="nonzero"/></clipPath><clipPath id="9d882b4929"><path d="M 96.464844 397.703125 L 130.476562 397.703125 L 130.476562 439.535156 L 96.464844 439.535156 Z M 96.464844 397.703125 " clip-rule="nonzero"/></clipPath><clipPath id="fd9767d042"><path d="M 92.46875 378.785156 L 134 378.785156 L 134 405 L 92.46875 405 Z M 92.46875 378.785156 " clip-rule="nonzero"/></clipPath><clipPath id="ca5ae76c73"><path d="M 231.464844 201.441406 L 265.476562 201.441406 L 265.476562 243.273438 L 231.464844 243.273438 Z M 231.464844 201.441406 " clip-rule="nonzero"/></clipPath><clipPath id="2530be4d42"><path d="M 227.46875 182.523438 L 269 182.523438 L 269 209 L 227.46875 209 Z M 227.46875 182.523438 " clip-rule="nonzero"/></clipPath><clipPath id="14918a325e"><path d="M 231.464844 266.863281 L 265.476562 266.863281 L 265.476562 308.695312 L 231.464844 308.695312 Z M 231.464844 266.863281 " clip-rule="nonzero"/></clipPath><clipPath id="24f1455766"><path d="M 227.46875 247.945312 L 269 247.945312 L 269 274 L 227.46875 274 Z M 227.46875 247.945312 " clip-rule="nonzero"/></clipPath><clipPath id="205d94b5d9"><path d="M 231.464844 332.28125 L 265.476562 332.28125 L 265.476562 374.113281 L 231.464844 374.113281 Z M 231.464844 332.28125 " clip-rule="nonzero"/></clipPath><clipPath id="cab7393d52"><path d="M 227.46875 313.363281 L 269 313.363281 L 269 339 L 227.46875 339 Z M 227.46875 313.363281 " clip-rule="nonzero"/></clipPath><clipPath id="d396f79e0c"><path d="M 231.464844 397.703125 L 265.476562 397.703125 L 265.476562 439.535156 L 231.464844 439.535156 Z M 231.464844 397.703125 " clip-rule="nonzero"/></clipPath><clipPath id="6b584d8cde"><path d="M 227.46875 378.785156 L 269 378.785156 L 269 405 L 227.46875 405 Z M 227.46875 378.785156 " clip-rule="nonzero"/></clipPath></defs><rect x="-36" width="432" fill="#ffffff" y="-50.399998" height="604.799979" fill-opacity="1"/><rect x="-36" width="432" fill="#323232" y="-50.399998" height="604.799979" fill-opacity="1"/><g mask="url(#7972a4834d)"><g transform="matrix(1, 0, 0, 1, 0, 0)"><g clip-path="url(#16d6f988e0)"><g clip-path="url(#0ad7af9dbe)"><path fill="#000000" d="M -217.589844 432.296875 L -219.066406 431.664062 L -1.417969 -67.574219 L 0.0507812 -66.9375 Z M -217.589844 432.296875 " fill-opacity="1" fill-rule="nonzero"/></g><g clip-path="url(#5dbfeeb22d)"><path fill="#000000" d="M -200.175781 432.296875 L -201.652344 431.664062 L 15.992188 -67.574219 L 17.460938 -66.9375 Z M -200.175781 432.296875 " fill-opacity="1" fill-rule="nonzero"/></g><g clip-path="url(#9c1effde66)"><path fill="#000000" d="M -182.765625 432.296875 L -184.242188 431.664062 L 33.40625 -67.574219 L 34.875 -66.9375 Z M -182.765625 432.296875 " fill-opacity="1" fill-rule="nonzero"/></g><g clip-path="url(#e1e03e49b9)"><path fill="#000000" d="M -165.359375 432.296875 L -166.828125 431.664062 L 50.816406 -67.574219 L 52.289062 -66.9375 Z M -165.359375 432.296875 " fill-opacity="1" fill-rule="nonzero"/></g><g clip-path="url(#5605aa6d3f)"><path fill="#000000" d="M -147.945312 432.296875 L -149.421875 431.664062 L 68.222656 -67.574219 L 69.699219 -66.9375 Z M -147.945312 432.296875 " fill-opacity="1" fill-rule="nonzero"/></g><g clip-path="url(#5c96255c71)"><path fill="#000000" d="M -130.535156 432.296875 L -132.011719 431.664062 L 85.636719 -67.574219 L 87.113281 -66.9375 Z M -130.535156 432.296875 " fill-opacity="1" fill-rule="nonzero"/></g><g clip-path="url(#56322437dc)"><path fill="#000000" d="M -113.121094 432.296875 L -114.597656 431.664062 L 103.050781 -67.574219 L 104.523438 -66.9375 Z M -113.121094 432.296875 " fill-opacity="1" fill-rule="nonzero"/></g><g clip-path="url(#a2886806fd)"><path fill="#000000" d="M -95.707031 432.296875 L -97.183594 431.664062 L 120.460938 -67.574219 L 121.929688 -66.9375 Z M -95.707031 432.296875 " fill-opacity="1" fill-rule="nonzero"/></g><g clip-path="url(#38d09c63ce)"><path fill="#000000" d="M -78.304688 432.296875 L -79.773438 431.664062 L 137.875 -67.574219 L 139.34375 -66.9375 Z M -78.304688 432.296875 " fill-opacity="1" fill-rule="nonzero"/></g><g clip-path="url(#e4add317ef)"><path fill="#000000" d="M -60.890625 432.296875 L -62.359375 431.664062 L 155.28125 -67.574219 L 156.757812 -66.9375 Z M -60.890625 432.296875 " fill-opacity="1" fill-rule="nonzero"/></g><g clip-path="url(#1f5bf2687b)"><path fill="#000000" d="M -43.476562 432.296875 L -44.949219 431.664062 L 172.691406 -67.574219 L 174.167969 -66.9375 Z M -43.476562 432.296875 " fill-opacity="1" fill-rule="nonzero"/></g><g clip-path="url(#94d5fab9da)"><path fill="#000000" d="M -26.066406 432.296875 L -27.535156 431.664062 L 190.105469 -67.574219 L 191.582031 -66.9375 Z M -26.066406 432.296875 " fill-opacity="1" fill-rule="nonzero"/></g><g clip-path="url(#a4d1e1c18a)"><path fill="#000000" d="M -8.652344 432.296875 L -10.128906 431.664062 L 207.515625 -67.574219 L 208.992188 -66.9375 Z M -8.652344 432.296875 " fill-opacity="1" fill-rule="nonzero"/></g></g></g></g><g mask="url(#5ffc4e4830)"><g transform="matrix(1, 0, 0, 1, 0, 2)"><g clip-path="url(#ed9ef519d3)"><g clip-path="url(#1bc6fef6f7)"><path fill="#000000" d="M -21.167969 501.097656 L -22.636719 500.460938 L 195.003906 1.226562 L 196.480469 1.859375 Z M -21.167969 501.097656 " fill-opacity="1" fill-rule="nonzero"/></g><g clip-path="url(#981a6d424c)"><path fill="#000000" d="M -3.753906 501.097656 L -5.230469 500.460938 L 212.414062 1.226562 L 213.890625 1.859375 Z M -3.753906 501.097656 " fill-opacity="1" fill-rule="nonzero"/></g><g clip-path="url(#9924524188)"><path fill="#000000" d="M 13.65625 501.097656 L 12.183594 500.460938 L 229.828125 1.226562 L 231.296875 1.859375 Z M 13.65625 501.097656 " fill-opacity="1" fill-rule="nonzero"/></g><g clip-path="url(#28d35cb912)"><path fill="#000000" d="M 31.070312 501.097656 L 29.59375 500.460938 L 247.242188 1.226562 L 248.710938 1.859375 Z M 31.070312 501.097656 " fill-opacity="1" fill-rule="nonzero"/></g><g clip-path="url(#6b8dd4c96e)"><path fill="#000000" d="M 48.484375 501.097656 L 47.007812 500.460938 L 264.652344 1.226562 L 266.125 1.859375 Z M 48.484375 501.097656 " fill-opacity="1" fill-rule="nonzero"/></g><g clip-path="url(#018ae9d9e5)"><path fill="#000000" d="M 65.890625 501.097656 L 64.417969 500.460938 L 282.066406 1.226562 L 283.535156 1.859375 Z M 65.890625 501.097656 " fill-opacity="1" fill-rule="nonzero"/></g><g clip-path="url(#cbb2f5f6f7)"><path fill="#000000" d="M 83.300781 501.097656 L 81.824219 500.460938 L 299.472656 1.226562 L 300.949219 1.859375 Z M 83.300781 501.097656 " fill-opacity="1" fill-rule="nonzero"/></g><g clip-path="url(#e4d09f079e)"><path fill="#000000" d="M 100.714844 501.097656 L 99.238281 500.460938 L 316.882812 1.226562 L 318.359375 1.859375 Z M 100.714844 501.097656 " fill-opacity="1" fill-rule="nonzero"/></g><g clip-path="url(#ddfb29a145)"><path fill="#000000" d="M 118.125 501.097656 L 116.652344 500.460938 L 334.296875 1.226562 L 335.773438 1.859375 Z M 118.125 501.097656 " fill-opacity="1" fill-rule="nonzero"/></g><g clip-path="url(#64a6d68e51)"><path fill="#000000" d="M 135.539062 501.097656 L 134.0625 500.460938 L 351.710938 1.226562 L 353.179688 1.859375 Z M 135.539062 501.097656 " fill-opacity="1" fill-rule="nonzero"/></g><g clip-path="url(#f8a821a1eb)"><path fill="#000000" d="M 152.945312 501.097656 L 151.476562 500.460938 L 369.121094 1.226562 L 370.589844 1.859375 Z M 152.945312 501.097656 " fill-opacity="1" fill-rule="nonzero"/></g><g clip-path="url(#2512cd15ea)"><path fill="#000000" d="M 170.359375 501.097656 L 168.886719 500.460938 L 386.527344 1.226562 L 388.003906 1.859375 Z M 170.359375 501.097656 " fill-opacity="1" fill-rule="nonzero"/></g><g clip-path="url(#64ef38f18f)"><path fill="#000000" d="M 187.769531 501.097656 L 186.300781 500.460938 L 403.941406 1.226562 L 405.417969 1.859375 Z M 187.769531 501.097656 " fill-opacity="1" fill-rule="nonzero"/></g><g clip-path="url(#07663f0fed)"><path fill="#000000" d="M 205.183594 501.097656 L 203.710938 500.460938 L 421.351562 1.226562 L 422.828125 1.859375 Z M 205.183594 501.097656 " fill-opacity="1" fill-rule="nonzero"/></g><g clip-path="url(#7667d47b08)"><path fill="#000000" d="M 222.59375 501.097656 L 221.117188 500.460938 L 438.765625 1.226562 L 440.242188 1.859375 Z M 222.59375 501.097656 " fill-opacity="1" fill-rule="nonzero"/></g></g></g></g><g clip-path="url(#903d75ab0b)"><path fill="#ffcf00" d="M 331.601562 467.976562 L 28.1875 467.976562 L 28.1875 36 L 331.601562 36 Z M 29.066406 467.097656 L 330.722656 467.097656 L 330.722656 36.878906 L 29.066406 36.878906 Z M 29.066406 467.097656 " fill-opacity="1" fill-rule="nonzero"/></g><g fill="#ffcf00" fill-opacity="1"><g transform="translate(44.874898, 95.039993)"><g><path d="M 16.828125 -43.71875 C 8.320312 -43.71875 2.421875 -37.320312 2.421875 -29.0625 C 2.421875 -20.988281 7.328125 -14.28125 16.207031 -14.28125 C 20.679688 -14.28125 24.46875 -16.144531 27.074219 -19.746094 L 28.628906 -22.976562 C 28.195312 -5.835938 22.292969 -1.179688 15.773438 -1.179688 C 10.183594 -1.179688 6.832031 -4.097656 5.589844 -10.246094 L 5.464844 -10.867188 L 3.042969 -10.867188 L 3.105469 -10.246094 C 4.347656 -3.414062 8.136719 0.871094 15.648438 0.871094 C 24.902344 0.871094 31.050781 -6.894531 31.050781 -24.09375 C 31.050781 -38.066406 25.585938 -43.71875 16.828125 -43.71875 Z M 16.519531 -16.332031 C 9.316406 -16.332031 5.03125 -21.921875 5.03125 -29.25 C 5.03125 -36.203125 9.625 -41.667969 16.828125 -41.667969 C 24.09375 -41.667969 28.195312 -35.769531 28.195312 -28.378906 C 28.195312 -21.238281 22.976562 -16.332031 16.519531 -16.332031 Z M 16.519531 -16.332031 "/></g></g></g><g mask="url(#d82952182a)"><g transform="matrix(1, 0, 0, 1, 238, 2)"><g clip-path="url(#331cade86e)"><g clip-path="url(#8a42f1604f)"><path fill="#000000" d="M 1.832031 501.097656 L 0.363281 500.460938 L 218.003906 1.226562 L 219.480469 1.859375 Z M 1.832031 501.097656 " fill-opacity="1" fill-rule="nonzero"/></g><g clip-path="url(#081622f2f6)"><path fill="#000000" d="M 19.246094 501.097656 L 17.769531 500.460938 L 235.414062 1.226562 L 236.890625 1.859375 Z M 19.246094 501.097656 " fill-opacity="1" fill-rule="nonzero"/></g><g clip-path="url(#344f2392a7)"><path fill="#000000" d="M 36.65625 501.097656 L 35.183594 500.460938 L 252.828125 1.226562 L 254.296875 1.859375 Z M 36.65625 501.097656 " fill-opacity="1" fill-rule="nonzero"/></g><g clip-path="url(#d4bb3bc77e)"><path fill="#000000" d="M 54.070312 501.097656 L 52.59375 500.460938 L 270.242188 1.226562 L 271.710938 1.859375 Z M 54.070312 501.097656 " fill-opacity="1" fill-rule="nonzero"/></g><g clip-path="url(#ba2d206241)"><path fill="#000000" d="M 71.484375 501.097656 L 70.007812 500.460938 L 287.652344 1.226562 L 289.125 1.859375 Z M 71.484375 501.097656 " fill-opacity="1" fill-rule="nonzero"/></g><g clip-path="url(#df0919af43)"><path fill="#000000" d="M 88.890625 501.097656 L 87.417969 500.460938 L 305.066406 1.226562 L 306.535156 1.859375 Z M 88.890625 501.097656 " fill-opacity="1" fill-rule="nonzero"/></g><g clip-path="url(#22f7142a1e)"><path fill="#000000" d="M 106.300781 501.097656 L 104.824219 500.460938 L 322.472656 1.226562 L 323.949219 1.859375 Z M 106.300781 501.097656 " fill-opacity="1" fill-rule="nonzero"/></g></g></g></g><g clip-path="url(#bd4089e9bf)"><path fill="#ffcf00" d="M 165.875 139.6875 C 165.605469 140.945312 165.527344 142.316406 165.515625 143.570312 C 165.5 145.488281 165.660156 147.433594 165.925781 149.332031 C 166.027344 150.023438 166.136719 150.714844 166.265625 151.402344 C 167.089844 155.816406 168.601562 160.339844 171.492188 163.832031 C 172.347656 164.867188 173.34375 165.84375 174.449219 166.609375 C 171.910156 164.148438 170.324219 160.855469 169.335938 157.367188 C 167.589844 151.199219 167.4375 143.726562 168.367188 137.4375 C 167.28125 137.8125 166.128906 138.496094 165.875 139.6875 Z M 181.515625 171.804688 C 181.777344 170.921875 181.9375 170.761719 182.851562 170.535156 C 184.894531 170.03125 186.875 168.964844 188.652344 167.339844 C 193.042969 163.320312 195.1875 157.566406 196.253906 151.847656 C 197.152344 147.039062 197.382812 141.777344 196.4375 138.382812 C 195.4375 134.804688 188.886719 132.011719 180.828125 131.84375 C 180.574219 131.839844 180.316406 131.835938 180.058594 131.835938 C 179.800781 131.835938 179.542969 131.839844 179.289062 131.84375 C 171.230469 132.011719 164.679688 134.804688 163.679688 138.382812 C 162.734375 141.777344 162.964844 147.039062 163.863281 151.847656 C 164.929688 157.566406 167.074219 163.320312 171.46875 167.339844 C 173.242188 168.964844 175.222656 170.03125 177.265625 170.535156 C 178.179688 170.761719 178.339844 170.921875 178.601562 171.804688 C 179.332031 174.269531 180.785156 174.269531 181.515625 171.804688 " fill-opacity="1" fill-rule="evenodd"/></g><g clip-path="url(#0188aa56d1)"><path fill="#ffcf00" d="M 178.601562 130.460938 C 178.199219 128.390625 177.277344 126.597656 175.964844 125.128906 C 174.84375 126.800781 174.175781 128.753906 174.089844 130.914062 C 175.597656 130.664062 177.121094 130.519531 178.601562 130.460938 Z M 167.855469 126.265625 C 166.914062 128.207031 166.535156 130.398438 166.863281 132.726562 C 166.882812 132.878906 166.90625 133.03125 166.933594 133.179688 C 167.390625 132.941406 167.847656 132.730469 168.289062 132.542969 C 169.257812 132.136719 170.277344 131.792969 171.316406 131.515625 C 170.648438 129.367188 169.441406 127.605469 167.855469 126.265625 Z M 164.699219 134.636719 C 164.574219 134.246094 164.425781 133.859375 164.253906 133.472656 C 163.296875 131.328125 161.808594 129.671875 159.980469 128.519531 C 159.058594 131.65625 159.636719 136.230469 162.191406 138.527344 C 162.234375 138.351562 162.277344 138.179688 162.328125 138.007812 C 162.703125 136.65625 163.601562 135.496094 164.699219 134.636719 Z M 160.746094 126.890625 C 162.484375 127.949219 163.902344 129.359375 164.960938 131.023438 C 164.972656 129.023438 165.441406 127.046875 166.382812 125.207031 C 165.414062 124.613281 164.347656 124.148438 163.210938 123.8125 C 162.21875 124.6875 161.390625 125.746094 160.746094 126.890625 Z M 170.523438 120.300781 C 169.21875 121.3125 168.144531 122.449219 167.300781 123.671875 C 166.5625 123.21875 165.765625 122.828125 164.910156 122.5 C 166.339844 121.558594 169 120.597656 170.523438 120.300781 Z M 172.433594 129.4375 C 172.726562 127.457031 173.46875 125.566406 174.65625 123.875 C 173.6875 123.082031 172.585938 122.421875 171.375 121.90625 C 170.355469 122.730469 169.476562 123.671875 168.765625 124.703125 C 170.371094 126 171.609375 127.617188 172.433594 129.4375 Z M 181.515625 130.460938 C 181.917969 128.390625 182.839844 126.597656 184.152344 125.128906 C 185.273438 126.800781 185.941406 128.753906 186.027344 130.914062 C 184.519531 130.664062 183 130.519531 181.515625 130.460938 Z M 192.261719 126.265625 C 193.203125 128.207031 193.585938 130.398438 193.253906 132.726562 C 193.234375 132.878906 193.210938 133.03125 193.183594 133.179688 C 192.726562 132.941406 192.269531 132.730469 191.828125 132.542969 C 190.859375 132.136719 189.84375 131.792969 188.800781 131.515625 C 189.464844 129.367188 190.675781 127.605469 192.261719 126.265625 Z M 195.417969 134.636719 C 195.542969 134.246094 195.691406 133.859375 195.863281 133.472656 C 196.820312 131.328125 198.308594 129.671875 200.136719 128.519531 C 201.058594 131.65625 200.480469 136.230469 197.925781 138.527344 C 197.882812 138.351562 197.839844 138.179688 197.789062 138.007812 C 197.414062 136.65625 196.515625 135.496094 195.417969 134.636719 Z M 199.371094 126.890625 C 197.632812 127.949219 196.214844 129.359375 195.15625 131.023438 C 195.144531 129.023438 194.671875 127.046875 193.734375 125.207031 C 194.703125 124.613281 195.769531 124.148438 196.90625 123.8125 C 197.898438 124.6875 198.726562 125.746094 199.371094 126.890625 Z M 189.59375 120.300781 C 190.902344 121.3125 191.972656 122.449219 192.816406 123.671875 C 193.554688 123.21875 194.351562 122.828125 195.207031 122.5 C 193.78125 121.558594 191.117188 120.597656 189.59375 120.300781 Z M 187.683594 129.4375 C 187.390625 127.457031 186.648438 125.566406 185.460938 123.875 C 186.429688 123.082031 187.53125 122.421875 188.742188 121.90625 C 189.761719 122.730469 190.640625 123.671875 191.351562 124.703125 C 189.746094 126 188.511719 127.617188 187.683594 129.4375 Z M 180.058594 121.300781 C 181.183594 121.976562 182.183594 122.785156 183.03125 123.703125 C 181.621094 125.214844 180.625 126.988281 180.058594 128.902344 C 179.492188 126.988281 178.496094 125.214844 177.085938 123.703125 C 177.929688 122.785156 178.933594 121.976562 180.058594 121.300781 Z M 178.691406 112.90625 L 181.425781 112.90625 C 181.53125 119.960938 183.164062 118.792969 188.378906 120.125 C 186.835938 120.738281 185.488281 121.539062 184.339844 122.480469 C 183.117188 121.253906 181.632812 120.082031 180.058594 119.144531 C 178.484375 120.082031 177 121.253906 175.777344 122.480469 C 174.628906 121.539062 173.28125 120.738281 171.738281 120.125 C 176.953125 118.792969 178.585938 119.960938 178.691406 112.90625 " fill-opacity="1" fill-rule="evenodd"/></g><g clip-path="url(#2e3d1a2e60)"><path fill="#ffcf00" d="M 99.285156 209.308594 C 99.019531 210.566406 98.9375 211.9375 98.925781 213.1875 C 98.914062 215.109375 99.074219 217.050781 99.339844 218.953125 C 99.4375 219.644531 99.550781 220.335938 99.679688 221.023438 C 100.5 225.433594 102.011719 229.960938 104.90625 233.453125 C 105.761719 234.488281 106.757812 235.464844 107.863281 236.230469 C 105.320312 233.769531 103.734375 230.476562 102.746094 226.988281 C 101 220.820312 100.847656 213.347656 101.78125 207.058594 C 100.691406 207.433594 99.542969 208.117188 99.285156 209.308594 Z M 114.929688 241.421875 C 115.191406 240.539062 115.347656 240.378906 116.261719 240.152344 C 118.308594 239.652344 120.289062 238.585938 122.0625 236.960938 C 126.457031 232.941406 128.597656 227.1875 129.664062 221.46875 C 130.5625 216.660156 130.796875 211.398438 129.847656 208.003906 C 128.851562 204.425781 122.300781 201.632812 114.242188 201.464844 C 113.984375 201.460938 113.726562 201.457031 113.472656 201.457031 C 113.214844 201.457031 112.957031 201.460938 112.699219 201.464844 C 104.640625 201.632812 98.09375 204.425781 97.09375 208.003906 C 96.144531 211.398438 96.378906 216.660156 97.273438 221.46875 C 98.34375 227.1875 100.484375 232.941406 104.878906 236.960938 C 106.652344 238.585938 108.632812 239.652344 110.679688 240.152344 C 111.589844 240.378906 111.75 240.539062 112.011719 241.421875 C 112.742188 243.890625 114.195312 243.890625 114.929688 241.421875 " fill-opacity="1" fill-rule="evenodd"/></g><g clip-path="url(#83138c8e4b)"><path fill="#ffcf00" d="M 112.011719 200.082031 C 111.613281 198.011719 110.6875 196.214844 109.375 194.75 C 108.257812 196.421875 107.585938 198.375 107.5 200.535156 C 109.007812 200.285156 110.53125 200.140625 112.011719 200.082031 Z M 101.265625 195.886719 C 100.328125 197.828125 99.945312 200.019531 100.273438 202.347656 C 100.292969 202.5 100.320312 202.652344 100.34375 202.800781 C 100.800781 202.5625 101.257812 202.347656 101.703125 202.164062 C 102.671875 201.753906 103.6875 201.414062 104.730469 201.132812 C 104.0625 198.988281 102.851562 197.226562 101.265625 195.886719 Z M 98.109375 204.257812 C 97.984375 203.867188 97.835938 203.480469 97.664062 203.09375 C 96.707031 200.945312 95.21875 199.289062 93.394531 198.140625 C 92.472656 201.277344 93.046875 205.851562 95.605469 208.148438 C 95.644531 207.972656 95.691406 207.796875 95.738281 207.625 C 96.113281 206.277344 97.011719 205.117188 98.109375 204.257812 Z M 94.15625 196.511719 C 95.894531 197.570312 97.316406 198.980469 98.371094 200.640625 C 98.386719 198.644531 98.855469 196.664062 99.796875 194.828125 C 98.824219 194.234375 97.757812 193.769531 96.621094 193.433594 C 95.628906 194.308594 94.800781 195.363281 94.15625 196.511719 Z M 103.9375 189.921875 C 102.628906 190.933594 101.554688 192.070312 100.710938 193.289062 C 99.976562 192.839844 99.175781 192.449219 98.320312 192.121094 C 99.75 191.179688 102.414062 190.21875 103.9375 189.921875 Z M 105.847656 199.054688 C 106.140625 197.078125 106.878906 195.1875 108.066406 193.496094 C 107.101562 192.699219 105.996094 192.039062 104.785156 191.527344 C 103.765625 192.351562 102.886719 193.289062 102.175781 194.320312 C 103.785156 195.621094 105.019531 197.238281 105.847656 199.054688 Z M 114.929688 200.082031 C 115.328125 198.011719 116.25 196.214844 117.566406 194.75 C 118.683594 196.421875 119.355469 198.375 119.441406 200.535156 C 117.933594 200.285156 116.410156 200.140625 114.929688 200.082031 Z M 125.675781 195.886719 C 126.613281 197.828125 126.996094 200.019531 126.667969 202.347656 C 126.644531 202.5 126.621094 202.652344 126.59375 202.800781 C 126.140625 202.5625 125.683594 202.347656 125.238281 202.164062 C 124.269531 201.753906 123.253906 201.414062 122.210938 201.132812 C 122.878906 198.988281 124.085938 197.226562 125.675781 195.886719 Z M 128.828125 204.257812 C 128.957031 203.867188 129.105469 203.480469 129.277344 203.09375 C 130.234375 200.945312 131.71875 199.289062 133.546875 198.140625 C 134.472656 201.277344 133.890625 205.851562 131.335938 208.148438 C 131.292969 207.972656 131.25 207.796875 131.203125 207.625 C 130.824219 206.277344 129.925781 205.117188 128.828125 204.257812 Z M 132.78125 196.511719 C 131.046875 197.570312 129.625 198.980469 128.570312 200.640625 C 128.554688 198.644531 128.085938 196.664062 127.144531 194.828125 C 128.113281 194.234375 129.179688 193.769531 130.320312 193.433594 C 131.308594 194.308594 132.140625 195.363281 132.78125 196.511719 Z M 123.003906 189.921875 C 124.3125 190.933594 125.386719 192.070312 126.226562 193.289062 C 126.964844 192.839844 127.765625 192.449219 128.621094 192.121094 C 127.191406 191.179688 124.527344 190.21875 123.003906 189.921875 Z M 121.09375 199.054688 C 120.800781 197.078125 120.058594 195.1875 118.875 193.496094 C 119.839844 192.699219 120.945312 192.039062 122.152344 191.527344 C 123.175781 192.351562 124.054688 193.289062 124.761719 194.320312 C 123.15625 195.621094 121.921875 197.238281 121.09375 199.054688 Z M 113.472656 190.921875 C 114.597656 191.597656 115.597656 192.402344 116.445312 193.324219 C 115.03125 194.835938 114.035156 196.605469 113.472656 198.523438 C 112.90625 196.605469 111.90625 194.835938 110.496094 193.324219 C 111.34375 192.402344 112.34375 191.597656 113.472656 190.921875 Z M 112.105469 182.523438 L 114.839844 182.523438 C 114.941406 189.582031 116.578125 188.410156 121.789062 189.746094 C 120.25 190.359375 118.898438 191.15625 117.75 192.101562 C 116.53125 190.871094 115.042969 189.703125 113.472656 188.761719 C 111.894531 189.703125 110.410156 190.871094 109.191406 192.101562 C 108.039062 191.15625 106.691406 190.359375 105.152344 189.746094 C 110.363281 188.410156 111.996094 189.582031 112.105469 182.523438 " fill-opacity="1" fill-rule="evenodd"/></g><g clip-path="url(#735aed4845)"><path fill="#ffcf00" d="M 99.285156 274.730469 C 99.019531 275.984375 98.9375 277.355469 98.925781 278.609375 C 98.914062 280.527344 99.074219 282.472656 99.339844 284.371094 C 99.4375 285.066406 99.550781 285.753906 99.679688 286.441406 C 100.5 290.855469 102.011719 295.378906 104.90625 298.871094 C 105.761719 299.90625 106.757812 300.882812 107.863281 301.648438 C 105.320312 299.1875 103.734375 295.894531 102.746094 292.410156 C 101 286.242188 100.847656 278.765625 101.78125 272.476562 C 100.691406 272.851562 99.542969 273.535156 99.285156 274.730469 Z M 114.929688 306.84375 C 115.191406 305.960938 115.347656 305.800781 116.261719 305.574219 C 118.308594 305.070312 120.289062 304.003906 122.0625 302.378906 C 126.457031 298.359375 128.597656 292.605469 129.664062 286.886719 C 130.5625 282.078125 130.796875 276.816406 129.847656 273.425781 C 128.851562 269.84375 122.300781 267.054688 114.242188 266.886719 C 113.984375 266.878906 113.726562 266.878906 113.472656 266.878906 C 113.214844 266.878906 112.957031 266.878906 112.699219 266.886719 C 104.640625 267.054688 98.09375 269.84375 97.09375 273.425781 C 96.144531 276.816406 96.378906 282.078125 97.273438 286.886719 C 98.34375 292.605469 100.484375 298.359375 104.878906 302.378906 C 106.652344 304.003906 108.632812 305.070312 110.679688 305.574219 C 111.589844 305.800781 111.75 305.960938 112.011719 306.84375 C 112.742188 309.3125 114.195312 309.3125 114.929688 306.84375 " fill-opacity="1" fill-rule="evenodd"/></g><g clip-path="url(#989cf9e109)"><path fill="#ffcf00" d="M 112.011719 265.5 C 111.613281 263.429688 110.6875 261.636719 109.375 260.167969 C 108.257812 261.839844 107.585938 263.792969 107.5 265.957031 C 109.007812 265.703125 110.53125 265.558594 112.011719 265.5 Z M 101.265625 261.308594 C 100.328125 263.25 99.945312 265.4375 100.273438 267.769531 C 100.292969 267.917969 100.320312 268.070312 100.34375 268.222656 C 100.800781 267.980469 101.257812 267.769531 101.703125 267.582031 C 102.671875 267.175781 103.6875 266.835938 104.730469 266.554688 C 104.0625 264.410156 102.851562 262.648438 101.265625 261.308594 Z M 98.109375 269.675781 C 97.984375 269.289062 97.835938 268.898438 97.664062 268.515625 C 96.707031 266.367188 95.21875 264.710938 93.394531 263.558594 C 92.472656 266.695312 93.046875 271.269531 95.605469 273.566406 C 95.644531 273.390625 95.691406 273.21875 95.738281 273.046875 C 96.113281 271.699219 97.011719 270.535156 98.109375 269.675781 Z M 94.15625 261.929688 C 95.894531 262.988281 97.316406 264.398438 98.371094 266.0625 C 98.386719 264.0625 98.855469 262.085938 99.796875 260.246094 C 98.824219 259.652344 97.757812 259.1875 96.621094 258.851562 C 95.628906 259.726562 94.800781 260.785156 94.15625 261.929688 Z M 103.9375 255.339844 C 102.628906 256.355469 101.554688 257.492188 100.710938 258.710938 C 99.976562 258.261719 99.175781 257.867188 98.320312 257.539062 C 99.75 256.597656 102.414062 255.640625 103.9375 255.339844 Z M 105.847656 264.476562 C 106.140625 262.5 106.878906 260.605469 108.066406 258.914062 C 107.101562 258.121094 105.996094 257.460938 104.785156 256.945312 C 103.765625 257.773438 102.886719 258.710938 102.175781 259.742188 C 103.785156 261.039062 105.019531 262.65625 105.847656 264.476562 Z M 114.929688 265.5 C 115.328125 263.429688 116.25 261.636719 117.566406 260.167969 C 118.683594 261.839844 119.355469 263.792969 119.441406 265.957031 C 117.933594 265.703125 116.410156 265.558594 114.929688 265.5 Z M 125.675781 261.308594 C 126.613281 263.25 126.996094 265.4375 126.667969 267.769531 C 126.644531 267.917969 126.621094 268.070312 126.59375 268.222656 C 126.140625 267.980469 125.683594 267.769531 125.238281 267.582031 C 124.269531 267.175781 123.253906 266.835938 122.210938 266.554688 C 122.878906 264.410156 124.085938 262.648438 125.675781 261.308594 Z M 128.828125 269.675781 C 128.957031 269.289062 129.105469 268.898438 129.277344 268.515625 C 130.234375 266.367188 131.71875 264.710938 133.546875 263.558594 C 134.472656 266.695312 133.890625 271.269531 131.335938 273.566406 C 131.292969 273.390625 131.25 273.21875 131.203125 273.046875 C 130.824219 271.699219 129.925781 270.535156 128.828125 269.675781 Z M 132.78125 261.929688 C 131.046875 262.988281 129.625 264.398438 128.570312 266.0625 C 128.554688 264.0625 128.085938 262.085938 127.144531 260.246094 C 128.113281 259.652344 129.179688 259.1875 130.320312 258.851562 C 131.308594 259.726562 132.140625 260.785156 132.78125 261.929688 Z M 123.003906 255.339844 C 124.3125 256.355469 125.386719 257.492188 126.226562 258.710938 C 126.964844 258.261719 127.765625 257.867188 128.621094 257.539062 C 127.191406 256.597656 124.527344 255.640625 123.003906 255.339844 Z M 121.09375 264.476562 C 120.800781 262.5 120.058594 260.605469 118.875 258.914062 C 119.839844 258.121094 120.945312 257.460938 122.152344 256.945312 C 123.175781 257.773438 124.054688 258.710938 124.761719 259.742188 C 123.15625 261.039062 121.921875 262.65625 121.09375 264.476562 Z M 113.472656 256.339844 C 114.597656 257.015625 115.597656 257.824219 116.445312 258.746094 C 115.03125 260.253906 114.035156 262.027344 113.472656 263.941406 C 112.90625 262.027344 111.90625 260.253906 110.496094 258.746094 C 111.34375 257.824219 112.34375 257.015625 113.472656 256.339844 Z M 112.105469 247.945312 L 114.839844 247.945312 C 114.941406 255 116.578125 253.832031 121.789062 255.164062 C 120.25 255.777344 118.898438 256.578125 117.75 257.519531 C 116.53125 256.292969 115.042969 255.121094 113.472656 254.183594 C 111.894531 255.121094 110.410156 256.292969 109.191406 257.519531 C 108.039062 256.578125 106.691406 255.777344 105.152344 255.164062 C 110.363281 253.832031 111.996094 255 112.105469 247.945312 " fill-opacity="1" fill-rule="evenodd"/></g><g clip-path="url(#d4abd926cd)"><path fill="#ffcf00" d="M 99.285156 340.148438 C 99.019531 341.40625 98.9375 342.777344 98.925781 344.027344 C 98.914062 345.949219 99.074219 347.890625 99.339844 349.792969 C 99.4375 350.484375 99.550781 351.175781 99.679688 351.863281 C 100.5 356.273438 102.011719 360.800781 104.90625 364.292969 C 105.761719 365.328125 106.757812 366.304688 107.863281 367.070312 C 105.320312 364.609375 103.734375 361.316406 102.746094 357.828125 C 101 351.660156 100.847656 344.1875 101.78125 337.898438 C 100.691406 338.273438 99.542969 338.957031 99.285156 340.148438 Z M 114.929688 372.261719 C 115.191406 371.378906 115.347656 371.21875 116.261719 370.992188 C 118.308594 370.492188 120.289062 369.425781 122.0625 367.800781 C 126.457031 363.78125 128.597656 358.027344 129.664062 352.308594 C 130.5625 347.5 130.796875 342.238281 129.847656 338.84375 C 128.851562 335.265625 122.300781 332.472656 114.242188 332.304688 C 113.984375 332.300781 113.726562 332.296875 113.472656 332.296875 C 113.214844 332.296875 112.957031 332.300781 112.699219 332.304688 C 104.640625 332.472656 98.09375 335.265625 97.09375 338.84375 C 96.144531 342.238281 96.378906 347.5 97.273438 352.308594 C 98.34375 358.027344 100.484375 363.78125 104.878906 367.800781 C 106.652344 369.425781 108.632812 370.492188 110.679688 370.992188 C 111.589844 371.21875 111.75 371.378906 112.011719 372.261719 C 112.742188 374.730469 114.195312 374.730469 114.929688 372.261719 " fill-opacity="1" fill-rule="evenodd"/></g><g clip-path="url(#0ecdbf2f82)"><path fill="#ffcf00" d="M 112.011719 330.921875 C 111.613281 328.851562 110.6875 327.054688 109.375 325.589844 C 108.257812 327.261719 107.585938 329.214844 107.5 331.375 C 109.007812 331.125 110.53125 330.980469 112.011719 330.921875 Z M 101.265625 326.726562 C 100.328125 328.667969 99.945312 330.859375 100.273438 333.1875 C 100.292969 333.339844 100.320312 333.492188 100.34375 333.640625 C 100.800781 333.402344 101.257812 333.1875 101.703125 333 C 102.671875 332.59375 103.6875 332.253906 104.730469 331.972656 C 104.0625 329.828125 102.851562 328.066406 101.265625 326.726562 Z M 98.109375 335.09375 C 97.984375 334.707031 97.835938 334.320312 97.664062 333.933594 C 96.707031 331.785156 95.21875 330.128906 93.394531 328.980469 C 92.472656 332.117188 93.046875 336.6875 95.605469 338.988281 C 95.644531 338.8125 95.691406 338.636719 95.738281 338.464844 C 96.113281 337.117188 97.011719 335.957031 98.109375 335.09375 Z M 94.15625 327.351562 C 95.894531 328.410156 97.316406 329.820312 98.371094 331.480469 C 98.386719 329.484375 98.855469 327.503906 99.796875 325.667969 C 98.824219 325.074219 97.757812 324.609375 96.621094 324.273438 C 95.628906 325.148438 94.800781 326.203125 94.15625 327.351562 Z M 103.9375 320.761719 C 102.628906 321.773438 101.554688 322.910156 100.710938 324.128906 C 99.976562 323.679688 99.175781 323.285156 98.320312 322.960938 C 99.75 322.019531 102.414062 321.058594 103.9375 320.761719 Z M 105.847656 329.894531 C 106.140625 327.917969 106.878906 326.027344 108.066406 324.335938 C 107.101562 323.539062 105.996094 322.878906 104.785156 322.367188 C 103.765625 323.191406 102.886719 324.128906 102.175781 325.160156 C 103.785156 326.460938 105.019531 328.074219 105.847656 329.894531 Z M 114.929688 330.921875 C 115.328125 328.851562 116.25 327.054688 117.566406 325.589844 C 118.683594 327.261719 119.355469 329.214844 119.441406 331.375 C 117.933594 331.125 116.410156 330.980469 114.929688 330.921875 Z M 125.675781 326.726562 C 126.613281 328.667969 126.996094 330.859375 126.667969 333.1875 C 126.644531 333.339844 126.621094 333.492188 126.59375 333.640625 C 126.140625 333.402344 125.683594 333.1875 125.238281 333 C 124.269531 332.59375 123.253906 332.253906 122.210938 331.972656 C 122.878906 329.828125 124.085938 328.066406 125.675781 326.726562 Z M 128.828125 335.09375 C 128.957031 334.707031 129.105469 334.320312 129.277344 333.933594 C 130.234375 331.785156 131.71875 330.128906 133.546875 328.980469 C 134.472656 332.117188 133.890625 336.6875 131.335938 338.988281 C 131.292969 338.8125 131.25 338.636719 131.203125 338.464844 C 130.824219 337.117188 129.925781 335.957031 128.828125 335.09375 Z M 132.78125 327.351562 C 131.046875 328.410156 129.625 329.820312 128.570312 331.480469 C 128.554688 329.484375 128.085938 327.503906 127.144531 325.667969 C 128.113281 325.074219 129.179688 324.609375 130.320312 324.273438 C 131.308594 325.148438 132.140625 326.203125 132.78125 327.351562 Z M 123.003906 320.761719 C 124.3125 321.773438 125.386719 322.910156 126.226562 324.128906 C 126.964844 323.679688 127.765625 323.285156 128.621094 322.960938 C 127.191406 322.019531 124.527344 321.058594 123.003906 320.761719 Z M 121.09375 329.894531 C 120.800781 327.917969 120.058594 326.027344 118.875 324.335938 C 119.839844 323.539062 120.945312 322.878906 122.152344 322.367188 C 123.175781 323.191406 124.054688 324.128906 124.761719 325.160156 C 123.15625 326.460938 121.921875 328.074219 121.09375 329.894531 Z M 113.472656 321.761719 C 114.597656 322.4375 115.597656 323.242188 116.445312 324.164062 C 115.03125 325.675781 114.035156 327.445312 113.472656 329.363281 C 112.90625 327.445312 111.90625 325.675781 110.496094 324.164062 C 111.34375 323.242188 112.34375 322.4375 113.472656 321.761719 Z M 112.105469 313.363281 L 114.839844 313.363281 C 114.941406 320.421875 116.578125 319.25 121.789062 320.585938 C 120.25 321.199219 118.898438 321.996094 117.75 322.941406 C 116.53125 321.710938 115.042969 320.542969 113.472656 319.601562 C 111.894531 320.542969 110.410156 321.710938 109.191406 322.941406 C 108.039062 321.996094 106.691406 321.199219 105.152344 320.585938 C 110.363281 319.25 111.996094 320.421875 112.105469 313.363281 " fill-opacity="1" fill-rule="evenodd"/></g><g clip-path="url(#9d882b4929)"><path fill="#ffcf00" d="M 99.285156 405.570312 C 99.019531 406.824219 98.9375 408.195312 98.925781 409.449219 C 98.914062 411.367188 99.074219 413.3125 99.339844 415.210938 C 99.4375 415.902344 99.550781 416.59375 99.679688 417.28125 C 100.5 421.695312 102.011719 426.21875 104.90625 429.710938 C 105.761719 430.746094 106.757812 431.722656 107.863281 432.488281 C 105.320312 430.027344 103.734375 426.734375 102.746094 423.25 C 101 417.082031 100.847656 409.605469 101.78125 403.316406 C 100.691406 403.691406 99.542969 404.375 99.285156 405.570312 Z M 114.929688 437.683594 C 115.191406 436.800781 115.347656 436.640625 116.261719 436.414062 C 118.308594 435.910156 120.289062 434.84375 122.0625 433.21875 C 126.457031 429.199219 128.597656 423.445312 129.664062 417.726562 C 130.5625 412.917969 130.796875 407.65625 129.847656 404.265625 C 128.851562 400.683594 122.300781 397.894531 114.242188 397.726562 C 113.984375 397.71875 113.726562 397.71875 113.472656 397.71875 C 113.214844 397.71875 112.957031 397.71875 112.699219 397.726562 C 104.640625 397.894531 98.09375 400.683594 97.09375 404.265625 C 96.144531 407.65625 96.378906 412.917969 97.273438 417.726562 C 98.34375 423.445312 100.484375 429.199219 104.878906 433.21875 C 106.652344 434.84375 108.632812 435.910156 110.679688 436.414062 C 111.589844 436.640625 111.75 436.800781 112.011719 437.683594 C 112.742188 440.152344 114.195312 440.152344 114.929688 437.683594 " fill-opacity="1" fill-rule="evenodd"/></g><g clip-path="url(#fd9767d042)"><path fill="#ffcf00" d="M 112.011719 396.339844 C 111.613281 394.269531 110.6875 392.476562 109.375 391.007812 C 108.257812 392.679688 107.585938 394.632812 107.5 396.796875 C 109.007812 396.542969 110.53125 396.398438 112.011719 396.339844 Z M 101.265625 392.144531 C 100.328125 394.089844 99.945312 396.277344 100.273438 398.609375 C 100.292969 398.757812 100.320312 398.910156 100.34375 399.058594 C 100.800781 398.820312 101.257812 398.609375 101.703125 398.421875 C 102.671875 398.015625 103.6875 397.675781 104.730469 397.394531 C 104.0625 395.25 102.851562 393.488281 101.265625 392.144531 Z M 98.109375 400.515625 C 97.984375 400.128906 97.835938 399.738281 97.664062 399.355469 C 96.707031 397.207031 95.21875 395.550781 93.394531 394.398438 C 92.472656 397.535156 93.046875 402.109375 95.605469 404.40625 C 95.644531 404.230469 95.691406 404.058594 95.738281 403.886719 C 96.113281 402.539062 97.011719 401.375 98.109375 400.515625 Z M 94.15625 392.769531 C 95.894531 393.828125 97.316406 395.238281 98.371094 396.902344 C 98.386719 394.902344 98.855469 392.925781 99.796875 391.085938 C 98.824219 390.492188 97.757812 390.027344 96.621094 389.691406 C 95.628906 390.566406 94.800781 391.625 94.15625 392.769531 Z M 103.9375 386.179688 C 102.628906 387.195312 101.554688 388.332031 100.710938 389.550781 C 99.976562 389.101562 99.175781 388.707031 98.320312 388.378906 C 99.75 387.4375 102.414062 386.480469 103.9375 386.179688 Z M 105.847656 395.316406 C 106.140625 393.335938 106.878906 391.445312 108.066406 389.753906 C 107.101562 388.960938 105.996094 388.300781 104.785156 387.785156 C 103.765625 388.613281 102.886719 389.550781 102.175781 390.582031 C 103.785156 391.878906 105.019531 393.496094 105.847656 395.316406 Z M 114.929688 396.339844 C 115.328125 394.269531 116.25 392.476562 117.566406 391.007812 C 118.683594 392.679688 119.355469 394.632812 119.441406 396.796875 C 117.933594 396.542969 116.410156 396.398438 114.929688 396.339844 Z M 125.675781 392.144531 C 126.613281 394.089844 126.996094 396.277344 126.667969 398.609375 C 126.644531 398.757812 126.621094 398.910156 126.59375 399.058594 C 126.140625 398.820312 125.683594 398.609375 125.238281 398.421875 C 124.269531 398.015625 123.253906 397.675781 122.210938 397.394531 C 122.878906 395.25 124.085938 393.488281 125.675781 392.144531 Z M 128.828125 400.515625 C 128.957031 400.128906 129.105469 399.738281 129.277344 399.355469 C 130.234375 397.207031 131.71875 395.550781 133.546875 394.398438 C 134.472656 397.535156 133.890625 402.109375 131.335938 404.40625 C 131.292969 404.230469 131.25 404.058594 131.203125 403.886719 C 130.824219 402.539062 129.925781 401.375 128.828125 400.515625 Z M 132.78125 392.769531 C 131.046875 393.828125 129.625 395.238281 128.570312 396.902344 C 128.554688 394.902344 128.085938 392.925781 127.144531 391.085938 C 128.113281 390.492188 129.179688 390.027344 130.320312 389.691406 C 131.308594 390.566406 132.140625 391.625 132.78125 392.769531 Z M 123.003906 386.179688 C 124.3125 387.195312 125.386719 388.332031 126.226562 389.550781 C 126.964844 389.101562 127.765625 388.707031 128.621094 388.378906 C 127.191406 387.4375 124.527344 386.480469 123.003906 386.179688 Z M 121.09375 395.316406 C 120.800781 393.335938 120.058594 391.445312 118.875 389.753906 C 119.839844 388.960938 120.945312 388.300781 122.152344 387.785156 C 123.175781 388.613281 124.054688 389.550781 124.761719 390.582031 C 123.15625 391.878906 121.921875 393.496094 121.09375 395.316406 Z M 113.472656 387.179688 C 114.597656 387.855469 115.597656 388.664062 116.445312 389.585938 C 115.03125 391.09375 114.035156 392.867188 113.472656 394.78125 C 112.90625 392.867188 111.90625 391.09375 110.496094 389.585938 C 111.34375 388.664062 112.34375 387.855469 113.472656 387.179688 Z M 112.105469 378.785156 L 114.839844 378.785156 C 114.941406 385.839844 116.578125 384.671875 121.789062 386.003906 C 120.25 386.617188 118.898438 387.417969 117.75 388.359375 C 116.53125 387.132812 115.042969 385.960938 113.472656 385.023438 C 111.894531 385.960938 110.410156 387.132812 109.191406 388.359375 C 108.039062 387.417969 106.691406 386.617188 105.152344 386.003906 C 110.363281 384.671875 111.996094 385.839844 112.105469 378.785156 " fill-opacity="1" fill-rule="evenodd"/></g><g clip-path="url(#ca5ae76c73)"><path fill="#ffcf00" d="M 234.285156 209.308594 C 234.019531 210.566406 233.9375 211.9375 233.925781 213.1875 C 233.914062 215.109375 234.074219 217.050781 234.339844 218.953125 C 234.4375 219.644531 234.550781 220.335938 234.679688 221.023438 C 235.5 225.433594 237.011719 229.960938 239.90625 233.453125 C 240.761719 234.488281 241.757812 235.464844 242.863281 236.230469 C 240.320312 233.769531 238.734375 230.476562 237.746094 226.988281 C 236 220.820312 235.847656 213.347656 236.78125 207.058594 C 235.691406 207.433594 234.542969 208.117188 234.285156 209.308594 Z M 249.929688 241.421875 C 250.191406 240.539062 250.347656 240.378906 251.261719 240.152344 C 253.308594 239.652344 255.289062 238.585938 257.0625 236.960938 C 261.457031 232.941406 263.597656 227.1875 264.664062 221.46875 C 265.5625 216.660156 265.796875 211.398438 264.847656 208.003906 C 263.851562 204.425781 257.296875 201.632812 249.242188 201.464844 C 248.984375 201.460938 248.726562 201.457031 248.472656 201.457031 C 248.214844 201.457031 247.957031 201.460938 247.699219 201.464844 C 239.640625 201.632812 233.09375 204.425781 232.09375 208.003906 C 231.144531 211.398438 231.378906 216.660156 232.273438 221.46875 C 233.34375 227.1875 235.484375 232.941406 239.878906 236.960938 C 241.652344 238.585938 243.632812 239.652344 245.679688 240.152344 C 246.589844 240.378906 246.75 240.539062 247.011719 241.421875 C 247.742188 243.890625 249.195312 243.890625 249.929688 241.421875 " fill-opacity="1" fill-rule="evenodd"/></g><g clip-path="url(#2530be4d42)"><path fill="#ffcf00" d="M 247.011719 200.082031 C 246.613281 198.011719 245.6875 196.214844 244.375 194.75 C 243.257812 196.421875 242.585938 198.375 242.5 200.535156 C 244.007812 200.285156 245.53125 200.140625 247.011719 200.082031 Z M 236.265625 195.886719 C 235.328125 197.828125 234.945312 200.019531 235.273438 202.347656 C 235.292969 202.5 235.320312 202.652344 235.34375 202.800781 C 235.800781 202.5625 236.257812 202.347656 236.703125 202.164062 C 237.671875 201.753906 238.6875 201.414062 239.730469 201.132812 C 239.0625 198.988281 237.851562 197.226562 236.265625 195.886719 Z M 233.109375 204.257812 C 232.984375 203.867188 232.835938 203.480469 232.664062 203.09375 C 231.707031 200.945312 230.21875 199.289062 228.394531 198.140625 C 227.472656 201.277344 228.046875 205.851562 230.605469 208.148438 C 230.644531 207.972656 230.691406 207.796875 230.738281 207.625 C 231.113281 206.277344 232.011719 205.117188 233.109375 204.257812 Z M 229.15625 196.511719 C 230.894531 197.570312 232.316406 198.980469 233.371094 200.640625 C 233.386719 198.644531 233.855469 196.664062 234.796875 194.828125 C 233.824219 194.234375 232.757812 193.769531 231.621094 193.433594 C 230.628906 194.308594 229.800781 195.363281 229.15625 196.511719 Z M 238.9375 189.921875 C 237.628906 190.933594 236.554688 192.070312 235.710938 193.289062 C 234.976562 192.839844 234.175781 192.449219 233.320312 192.121094 C 234.75 191.179688 237.414062 190.21875 238.9375 189.921875 Z M 240.847656 199.054688 C 241.140625 197.078125 241.878906 195.1875 243.066406 193.496094 C 242.101562 192.699219 240.996094 192.039062 239.785156 191.527344 C 238.765625 192.351562 237.886719 193.289062 237.175781 194.320312 C 238.785156 195.621094 240.019531 197.238281 240.847656 199.054688 Z M 249.929688 200.082031 C 250.328125 198.011719 251.25 196.214844 252.566406 194.75 C 253.683594 196.421875 254.355469 198.375 254.441406 200.535156 C 252.933594 200.285156 251.410156 200.140625 249.929688 200.082031 Z M 260.675781 195.886719 C 261.613281 197.828125 261.996094 200.019531 261.667969 202.347656 C 261.644531 202.5 261.621094 202.652344 261.59375 202.800781 C 261.140625 202.5625 260.683594 202.347656 260.238281 202.164062 C 259.269531 201.753906 258.253906 201.414062 257.210938 201.132812 C 257.878906 198.988281 259.085938 197.226562 260.675781 195.886719 Z M 263.828125 204.257812 C 263.957031 203.867188 264.105469 203.480469 264.277344 203.09375 C 265.234375 200.945312 266.71875 199.289062 268.546875 198.140625 C 269.472656 201.277344 268.890625 205.851562 266.335938 208.148438 C 266.292969 207.972656 266.25 207.796875 266.203125 207.625 C 265.824219 206.277344 264.925781 205.117188 263.828125 204.257812 Z M 267.78125 196.511719 C 266.046875 197.570312 264.625 198.980469 263.570312 200.640625 C 263.554688 198.644531 263.085938 196.664062 262.144531 194.828125 C 263.113281 194.234375 264.179688 193.769531 265.320312 193.433594 C 266.308594 194.308594 267.140625 195.363281 267.78125 196.511719 Z M 258.003906 189.921875 C 259.3125 190.933594 260.386719 192.070312 261.226562 193.289062 C 261.964844 192.839844 262.765625 192.449219 263.621094 192.121094 C 262.191406 191.179688 259.527344 190.21875 258.003906 189.921875 Z M 256.09375 199.054688 C 255.800781 197.078125 255.058594 195.1875 253.875 193.496094 C 254.839844 192.699219 255.945312 192.039062 257.152344 191.527344 C 258.175781 192.351562 259.054688 193.289062 259.761719 194.320312 C 258.15625 195.621094 256.921875 197.238281 256.09375 199.054688 Z M 248.472656 190.921875 C 249.597656 191.597656 250.597656 192.402344 251.445312 193.324219 C 250.03125 194.835938 249.035156 196.605469 248.472656 198.523438 C 247.90625 196.605469 246.90625 194.835938 245.496094 193.324219 C 246.34375 192.402344 247.34375 191.597656 248.472656 190.921875 Z M 247.105469 182.523438 L 249.839844 182.523438 C 249.941406 189.582031 251.578125 188.410156 256.789062 189.746094 C 255.25 190.359375 253.898438 191.15625 252.75 192.101562 C 251.53125 190.871094 250.042969 189.703125 248.472656 188.761719 C 246.894531 189.703125 245.410156 190.871094 244.191406 192.101562 C 243.039062 191.15625 241.691406 190.359375 240.152344 189.746094 C 245.363281 188.410156 246.996094 189.582031 247.105469 182.523438 " fill-opacity="1" fill-rule="evenodd"/></g><g clip-path="url(#14918a325e)"><path fill="#ffcf00" d="M 234.285156 274.730469 C 234.019531 275.984375 233.9375 277.355469 233.925781 278.609375 C 233.914062 280.527344 234.074219 282.472656 234.339844 284.371094 C 234.4375 285.066406 234.550781 285.753906 234.679688 286.441406 C 235.5 290.855469 237.011719 295.378906 239.90625 298.871094 C 240.761719 299.90625 241.757812 300.882812 242.863281 301.648438 C 240.320312 299.1875 238.734375 295.894531 237.746094 292.410156 C 236 286.242188 235.847656 278.765625 236.78125 272.476562 C 235.691406 272.851562 234.542969 273.535156 234.285156 274.730469 Z M 249.929688 306.84375 C 250.191406 305.960938 250.347656 305.800781 251.261719 305.574219 C 253.308594 305.070312 255.289062 304.003906 257.0625 302.378906 C 261.457031 298.359375 263.597656 292.605469 264.664062 286.886719 C 265.5625 282.078125 265.796875 276.816406 264.847656 273.425781 C 263.851562 269.84375 257.296875 267.054688 249.242188 266.886719 C 248.984375 266.878906 248.726562 266.878906 248.472656 266.878906 C 248.214844 266.878906 247.957031 266.878906 247.699219 266.886719 C 239.640625 267.054688 233.09375 269.84375 232.09375 273.425781 C 231.144531 276.816406 231.378906 282.078125 232.273438 286.886719 C 233.34375 292.605469 235.484375 298.359375 239.878906 302.378906 C 241.652344 304.003906 243.632812 305.070312 245.679688 305.574219 C 246.589844 305.800781 246.75 305.960938 247.011719 306.84375 C 247.742188 309.3125 249.195312 309.3125 249.929688 306.84375 " fill-opacity="1" fill-rule="evenodd"/></g><g clip-path="url(#24f1455766)"><path fill="#ffcf00" d="M 247.011719 265.5 C 246.613281 263.429688 245.6875 261.636719 244.375 260.167969 C 243.257812 261.839844 242.585938 263.792969 242.5 265.957031 C 244.007812 265.703125 245.53125 265.558594 247.011719 265.5 Z M 236.265625 261.308594 C 235.328125 263.25 234.945312 265.4375 235.273438 267.769531 C 235.292969 267.917969 235.320312 268.070312 235.34375 268.222656 C 235.800781 267.980469 236.257812 267.769531 236.703125 267.582031 C 237.671875 267.175781 238.6875 266.835938 239.730469 266.554688 C 239.0625 264.410156 237.851562 262.648438 236.265625 261.308594 Z M 233.109375 269.675781 C 232.984375 269.289062 232.835938 268.898438 232.664062 268.515625 C 231.707031 266.367188 230.21875 264.710938 228.394531 263.558594 C 227.472656 266.695312 228.046875 271.269531 230.605469 273.566406 C 230.644531 273.390625 230.691406 273.21875 230.738281 273.046875 C 231.113281 271.699219 232.011719 270.535156 233.109375 269.675781 Z M 229.15625 261.929688 C 230.894531 262.988281 232.316406 264.398438 233.371094 266.0625 C 233.386719 264.0625 233.855469 262.085938 234.796875 260.246094 C 233.824219 259.652344 232.757812 259.1875 231.621094 258.851562 C 230.628906 259.726562 229.800781 260.785156 229.15625 261.929688 Z M 238.9375 255.339844 C 237.628906 256.355469 236.554688 257.492188 235.710938 258.710938 C 234.976562 258.261719 234.175781 257.867188 233.320312 257.539062 C 234.75 256.597656 237.414062 255.640625 238.9375 255.339844 Z M 240.847656 264.476562 C 241.140625 262.5 241.878906 260.605469 243.066406 258.914062 C 242.101562 258.121094 240.996094 257.460938 239.785156 256.945312 C 238.765625 257.773438 237.886719 258.710938 237.175781 259.742188 C 238.785156 261.039062 240.019531 262.65625 240.847656 264.476562 Z M 249.929688 265.5 C 250.328125 263.429688 251.25 261.636719 252.566406 260.167969 C 253.683594 261.839844 254.355469 263.792969 254.441406 265.957031 C 252.933594 265.703125 251.410156 265.558594 249.929688 265.5 Z M 260.675781 261.308594 C 261.613281 263.25 261.996094 265.4375 261.667969 267.769531 C 261.644531 267.917969 261.621094 268.070312 261.59375 268.222656 C 261.140625 267.980469 260.683594 267.769531 260.238281 267.582031 C 259.269531 267.175781 258.253906 266.835938 257.210938 266.554688 C 257.878906 264.410156 259.085938 262.648438 260.675781 261.308594 Z M 263.828125 269.675781 C 263.957031 269.289062 264.105469 268.898438 264.277344 268.515625 C 265.234375 266.367188 266.71875 264.710938 268.546875 263.558594 C 269.472656 266.695312 268.890625 271.269531 266.335938 273.566406 C 266.292969 273.390625 266.25 273.21875 266.203125 273.046875 C 265.824219 271.699219 264.925781 270.535156 263.828125 269.675781 Z M 267.78125 261.929688 C 266.046875 262.988281 264.625 264.398438 263.570312 266.0625 C 263.554688 264.0625 263.085938 262.085938 262.144531 260.246094 C 263.113281 259.652344 264.179688 259.1875 265.320312 258.851562 C 266.308594 259.726562 267.140625 260.785156 267.78125 261.929688 Z M 258.003906 255.339844 C 259.3125 256.355469 260.386719 257.492188 261.226562 258.710938 C 261.964844 258.261719 262.765625 257.867188 263.621094 257.539062 C 262.191406 256.597656 259.527344 255.640625 258.003906 255.339844 Z M 256.09375 264.476562 C 255.800781 262.5 255.058594 260.605469 253.875 258.914062 C 254.839844 258.121094 255.945312 257.460938 257.152344 256.945312 C 258.175781 257.773438 259.054688 258.710938 259.761719 259.742188 C 258.15625 261.039062 256.921875 262.65625 256.09375 264.476562 Z M 248.472656 256.339844 C 249.597656 257.015625 250.597656 257.824219 251.445312 258.746094 C 250.03125 260.253906 249.035156 262.027344 248.472656 263.941406 C 247.90625 262.027344 246.90625 260.253906 245.496094 258.746094 C 246.34375 257.824219 247.34375 257.015625 248.472656 256.339844 Z M 247.105469 247.945312 L 249.839844 247.945312 C 249.941406 255 251.578125 253.832031 256.789062 255.164062 C 255.25 255.777344 253.898438 256.578125 252.75 257.519531 C 251.53125 256.292969 250.042969 255.121094 248.472656 254.183594 C 246.894531 255.121094 245.410156 256.292969 244.191406 257.519531 C 243.039062 256.578125 241.691406 255.777344 240.152344 255.164062 C 245.363281 253.832031 246.996094 255 247.105469 247.945312 " fill-opacity="1" fill-rule="evenodd"/></g><g clip-path="url(#205d94b5d9)"><path fill="#ffcf00" d="M 234.285156 340.148438 C 234.019531 341.40625 233.9375 342.777344 233.925781 344.027344 C 233.914062 345.949219 234.074219 347.890625 234.339844 349.792969 C 234.4375 350.484375 234.550781 351.175781 234.679688 351.863281 C 235.5 356.273438 237.011719 360.800781 239.90625 364.292969 C 240.761719 365.328125 241.757812 366.304688 242.863281 367.070312 C 240.320312 364.609375 238.734375 361.316406 237.746094 357.828125 C 236 351.660156 235.847656 344.1875 236.78125 337.898438 C 235.691406 338.273438 234.542969 338.957031 234.285156 340.148438 Z M 249.929688 372.261719 C 250.191406 371.378906 250.347656 371.21875 251.261719 370.992188 C 253.308594 370.492188 255.289062 369.425781 257.0625 367.800781 C 261.457031 363.78125 263.597656 358.027344 264.664062 352.308594 C 265.5625 347.5 265.796875 342.238281 264.847656 338.84375 C 263.851562 335.265625 257.296875 332.472656 249.242188 332.304688 C 248.984375 332.300781 248.726562 332.296875 248.472656 332.296875 C 248.214844 332.296875 247.957031 332.300781 247.699219 332.304688 C 239.640625 332.472656 233.09375 335.265625 232.09375 338.84375 C 231.144531 342.238281 231.378906 347.5 232.273438 352.308594 C 233.34375 358.027344 235.484375 363.78125 239.878906 367.800781 C 241.652344 369.425781 243.632812 370.492188 245.679688 370.992188 C 246.589844 371.21875 246.75 371.378906 247.011719 372.261719 C 247.742188 374.730469 249.195312 374.730469 249.929688 372.261719 " fill-opacity="1" fill-rule="evenodd"/></g><g clip-path="url(#cab7393d52)"><path fill="#ffcf00" d="M 247.011719 330.921875 C 246.613281 328.851562 245.6875 327.054688 244.375 325.589844 C 243.257812 327.261719 242.585938 329.214844 242.5 331.375 C 244.007812 331.125 245.53125 330.980469 247.011719 330.921875 Z M 236.265625 326.726562 C 235.328125 328.667969 234.945312 330.859375 235.273438 333.1875 C 235.292969 333.339844 235.320312 333.492188 235.34375 333.640625 C 235.800781 333.402344 236.257812 333.1875 236.703125 333 C 237.671875 332.59375 238.6875 332.253906 239.730469 331.972656 C 239.0625 329.828125 237.851562 328.066406 236.265625 326.726562 Z M 233.109375 335.09375 C 232.984375 334.707031 232.835938 334.320312 232.664062 333.933594 C 231.707031 331.785156 230.21875 330.128906 228.394531 328.980469 C 227.472656 332.117188 228.046875 336.6875 230.605469 338.988281 C 230.644531 338.8125 230.691406 338.636719 230.738281 338.464844 C 231.113281 337.117188 232.011719 335.957031 233.109375 335.09375 Z M 229.15625 327.351562 C 230.894531 328.410156 232.316406 329.820312 233.371094 331.480469 C 233.386719 329.484375 233.855469 327.503906 234.796875 325.667969 C 233.824219 325.074219 232.757812 324.609375 231.621094 324.273438 C 230.628906 325.148438 229.800781 326.203125 229.15625 327.351562 Z M 238.9375 320.761719 C 237.628906 321.773438 236.554688 322.910156 235.710938 324.128906 C 234.976562 323.679688 234.175781 323.285156 233.320312 322.960938 C 234.75 322.019531 237.414062 321.058594 238.9375 320.761719 Z M 240.847656 329.894531 C 241.140625 327.917969 241.878906 326.027344 243.066406 324.335938 C 242.101562 323.539062 240.996094 322.878906 239.785156 322.367188 C 238.765625 323.191406 237.886719 324.128906 237.175781 325.160156 C 238.785156 326.460938 240.019531 328.074219 240.847656 329.894531 Z M 249.929688 330.921875 C 250.328125 328.851562 251.25 327.054688 252.566406 325.589844 C 253.683594 327.261719 254.355469 329.214844 254.441406 331.375 C 252.933594 331.125 251.410156 330.980469 249.929688 330.921875 Z M 260.675781 326.726562 C 261.613281 328.667969 261.996094 330.859375 261.667969 333.1875 C 261.644531 333.339844 261.621094 333.492188 261.59375 333.640625 C 261.140625 333.402344 260.683594 333.1875 260.238281 333 C 259.269531 332.59375 258.253906 332.253906 257.210938 331.972656 C 257.878906 329.828125 259.085938 328.066406 260.675781 326.726562 Z M 263.828125 335.09375 C 263.957031 334.707031 264.105469 334.320312 264.277344 333.933594 C 265.234375 331.785156 266.71875 330.128906 268.546875 328.980469 C 269.472656 332.117188 268.890625 336.6875 266.335938 338.988281 C 266.292969 338.8125 266.25 338.636719 266.203125 338.464844 C 265.824219 337.117188 264.925781 335.957031 263.828125 335.09375 Z M 267.78125 327.351562 C 266.046875 328.410156 264.625 329.820312 263.570312 331.480469 C 263.554688 329.484375 263.085938 327.503906 262.144531 325.667969 C 263.113281 325.074219 264.179688 324.609375 265.320312 324.273438 C 266.308594 325.148438 267.140625 326.203125 267.78125 327.351562 Z M 258.003906 320.761719 C 259.3125 321.773438 260.386719 322.910156 261.226562 324.128906 C 261.964844 323.679688 262.765625 323.285156 263.621094 322.960938 C 262.191406 322.019531 259.527344 321.058594 258.003906 320.761719 Z M 256.09375 329.894531 C 255.800781 327.917969 255.058594 326.027344 253.875 324.335938 C 254.839844 323.539062 255.945312 322.878906 257.152344 322.367188 C 258.175781 323.191406 259.054688 324.128906 259.761719 325.160156 C 258.15625 326.460938 256.921875 328.074219 256.09375 329.894531 Z M 248.472656 321.761719 C 249.597656 322.4375 250.597656 323.242188 251.445312 324.164062 C 250.03125 325.675781 249.035156 327.445312 248.472656 329.363281 C 247.90625 327.445312 246.90625 325.675781 245.496094 324.164062 C 246.34375 323.242188 247.34375 322.4375 248.472656 321.761719 Z M 247.105469 313.363281 L 249.839844 313.363281 C 249.941406 320.421875 251.578125 319.25 256.789062 320.585938 C 255.25 321.199219 253.898438 321.996094 252.75 322.941406 C 251.53125 321.710938 250.042969 320.542969 248.472656 319.601562 C 246.894531 320.542969 245.410156 321.710938 244.191406 322.941406 C 243.039062 321.996094 241.691406 321.199219 240.152344 320.585938 C 245.363281 319.25 246.996094 320.421875 247.105469 313.363281 " fill-opacity="1" fill-rule="evenodd"/></g><g clip-path="url(#d396f79e0c)"><path fill="#ffcf00" d="M 234.285156 405.570312 C 234.019531 406.824219 233.9375 408.195312 233.925781 409.449219 C 233.914062 411.367188 234.074219 413.3125 234.339844 415.210938 C 234.4375 415.902344 234.550781 416.59375 234.679688 417.28125 C 235.5 421.695312 237.011719 426.21875 239.90625 429.710938 C 240.761719 430.746094 241.757812 431.722656 242.863281 432.488281 C 240.320312 430.027344 238.734375 426.734375 237.746094 423.25 C 236 417.082031 235.847656 409.605469 236.78125 403.316406 C 235.691406 403.691406 234.542969 404.375 234.285156 405.570312 Z M 249.929688 437.683594 C 250.191406 436.800781 250.347656 436.640625 251.261719 436.414062 C 253.308594 435.910156 255.289062 434.84375 257.0625 433.21875 C 261.457031 429.199219 263.597656 423.445312 264.664062 417.726562 C 265.5625 412.917969 265.796875 407.65625 264.847656 404.265625 C 263.851562 400.683594 257.296875 397.894531 249.242188 397.726562 C 248.984375 397.71875 248.726562 397.71875 248.472656 397.71875 C 248.214844 397.71875 247.957031 397.71875 247.699219 397.726562 C 239.640625 397.894531 233.09375 400.683594 232.09375 404.265625 C 231.144531 407.65625 231.378906 412.917969 232.273438 417.726562 C 233.34375 423.445312 235.484375 429.199219 239.878906 433.21875 C 241.652344 434.84375 243.632812 435.910156 245.679688 436.414062 C 246.589844 436.640625 246.75 436.800781 247.011719 437.683594 C 247.742188 440.152344 249.195312 440.152344 249.929688 437.683594 " fill-opacity="1" fill-rule="evenodd"/></g><g clip-path="url(#6b584d8cde)"><path fill="#ffcf00" d="M 247.011719 396.339844 C 246.613281 394.269531 245.6875 392.476562 244.375 391.007812 C 243.257812 392.679688 242.585938 394.632812 242.5 396.796875 C 244.007812 396.542969 245.53125 396.398438 247.011719 396.339844 Z M 236.265625 392.144531 C 235.328125 394.089844 234.945312 396.277344 235.273438 398.609375 C 235.292969 398.757812 235.320312 398.910156 235.34375 399.058594 C 235.800781 398.820312 236.257812 398.609375 236.703125 398.421875 C 237.671875 398.015625 238.6875 397.675781 239.730469 397.394531 C 239.0625 395.25 237.851562 393.488281 236.265625 392.144531 Z M 233.109375 400.515625 C 232.984375 400.128906 232.835938 399.738281 232.664062 399.355469 C 231.707031 397.207031 230.21875 395.550781 228.394531 394.398438 C 227.472656 397.535156 228.046875 402.109375 230.605469 404.40625 C 230.644531 404.230469 230.691406 404.058594 230.738281 403.886719 C 231.113281 402.539062 232.011719 401.375 233.109375 400.515625 Z M 229.15625 392.769531 C 230.894531 393.828125 232.316406 395.238281 233.371094 396.902344 C 233.386719 394.902344 233.855469 392.925781 234.796875 391.085938 C 233.824219 390.492188 232.757812 390.027344 231.621094 389.691406 C 230.628906 390.566406 229.800781 391.625 229.15625 392.769531 Z M 238.9375 386.179688 C 237.628906 387.195312 236.554688 388.332031 235.710938 389.550781 C 234.976562 389.101562 234.175781 388.707031 233.320312 388.378906 C 234.75 387.4375 237.414062 386.480469 238.9375 386.179688 Z M 240.847656 395.316406 C 241.140625 393.335938 241.878906 391.445312 243.066406 389.753906 C 242.101562 388.960938 240.996094 388.300781 239.785156 387.785156 C 238.765625 388.613281 237.886719 389.550781 237.175781 390.582031 C 238.785156 391.878906 240.019531 393.496094 240.847656 395.316406 Z M 249.929688 396.339844 C 250.328125 394.269531 251.25 392.476562 252.566406 391.007812 C 253.683594 392.679688 254.355469 394.632812 254.441406 396.796875 C 252.933594 396.542969 251.410156 396.398438 249.929688 396.339844 Z M 260.675781 392.144531 C 261.613281 394.089844 261.996094 396.277344 261.667969 398.609375 C 261.644531 398.757812 261.621094 398.910156 261.59375 399.058594 C 261.140625 398.820312 260.683594 398.609375 260.238281 398.421875 C 259.269531 398.015625 258.253906 397.675781 257.210938 397.394531 C 257.878906 395.25 259.085938 393.488281 260.675781 392.144531 Z M 263.828125 400.515625 C 263.957031 400.128906 264.105469 399.738281 264.277344 399.355469 C 265.234375 397.207031 266.71875 395.550781 268.546875 394.398438 C 269.472656 397.535156 268.890625 402.109375 266.335938 404.40625 C 266.292969 404.230469 266.25 404.058594 266.203125 403.886719 C 265.824219 402.539062 264.925781 401.375 263.828125 400.515625 Z M 267.78125 392.769531 C 266.046875 393.828125 264.625 395.238281 263.570312 396.902344 C 263.554688 394.902344 263.085938 392.925781 262.144531 391.085938 C 263.113281 390.492188 264.179688 390.027344 265.320312 389.691406 C 266.308594 390.566406 267.140625 391.625 267.78125 392.769531 Z M 258.003906 386.179688 C 259.3125 387.195312 260.386719 388.332031 261.226562 389.550781 C 261.964844 389.101562 262.765625 388.707031 263.621094 388.378906 C 262.191406 387.4375 259.527344 386.480469 258.003906 386.179688 Z M 256.09375 395.316406 C 255.800781 393.335938 255.058594 391.445312 253.875 389.753906 C 254.839844 388.960938 255.945312 388.300781 257.152344 387.785156 C 258.175781 388.613281 259.054688 389.550781 259.761719 390.582031 C 258.15625 391.878906 256.921875 393.496094 256.09375 395.316406 Z M 248.472656 387.179688 C 249.597656 387.855469 250.597656 388.664062 251.445312 389.585938 C 250.03125 391.09375 249.035156 392.867188 248.472656 394.78125 C 247.90625 392.867188 246.90625 391.09375 245.496094 389.585938 C 246.34375 388.664062 247.34375 387.855469 248.472656 387.179688 Z M 247.105469 378.785156 L 249.839844 378.785156 C 249.941406 385.839844 251.578125 384.671875 256.789062 386.003906 C 255.25 386.617188 253.898438 387.417969 252.75 388.359375 C 251.53125 387.132812 250.042969 385.960938 248.472656 385.023438 C 246.894531 385.960938 245.410156 387.132812 244.191406 388.359375 C 243.039062 387.417969 241.691406 386.617188 240.152344 386.003906 C 245.363281 384.671875 246.996094 385.839844 247.105469 378.785156 " fill-opacity="1" fill-rule="evenodd"/></g></svg>