<svg xmlns="http://www.w3.org/2000/svg" xmlns:xlink="http://www.w3.org/1999/xlink" width="480" zoomAndPan="magnify" viewBox="0 0 360 503.999982" height="672" preserveAspectRatio="xMidYMid meet" version="1.0"><defs><filter x="0%" y="0%" width="100%" height="100%" id="2f2e0abb11"><feColorMatrix values="0 0 0 0 1 0 0 0 0 1 0 0 0 0 1 0 0 0 1 0" color-interpolation-filters="sRGB"/></filter><mask id="90b7241ec1"><g filter="url(#2f2e0abb11)"><rect x="-36" width="432" fill="#000000" y="-50.399998" height="604.799979" fill-opacity="0.1373"/></g></mask><clipPath id="93dabc990a"><path d="M 0 0 L 1 0 L 1 432.847656 L 0 432.847656 Z M 0 0 " clip-rule="nonzero"/></clipPath><clipPath id="8f4b6d05fb"><path d="M 0 0 L 18 0 L 18 432.847656 L 0 432.847656 Z M 0 0 " clip-rule="nonzero"/></clipPath><clipPath id="6ff92334d0"><path d="M 0 0 L 35 0 L 35 432.847656 L 0 432.847656 Z M 0 0 " clip-rule="nonzero"/></clipPath><clipPath id="0af8bbbf25"><path d="M 0 0 L 53 0 L 53 432.847656 L 0 432.847656 Z M 0 0 " clip-rule="nonzero"/></clipPath><clipPath id="f14907d654"><path d="M 0 0 L 70 0 L 70 432.847656 L 0 432.847656 Z M 0 0 " clip-rule="nonzero"/></clipPath><clipPath id="426ecca4d8"><path d="M 0 0 L 88 0 L 88 432.847656 L 0 432.847656 Z M 0 0 " clip-rule="nonzero"/></clipPath><clipPath id="e8c1d2b795"><path d="M 0 0 L 105 0 L 105 432.847656 L 0 432.847656 Z M 0 0 " clip-rule="nonzero"/></clipPath><clipPath id="8378fd08c5"><path d="M 0 0 L 122 0 L 122 432.847656 L 0 432.847656 Z M 0 0 " clip-rule="nonzero"/></clipPath><clipPath id="8e686150e0"><path d="M 0 0 L 140 0 L 140 432.847656 L 0 432.847656 Z M 0 0 " clip-rule="nonzero"/></clipPath><clipPath id="7a0e81cddc"><path d="M 0 0 L 157 0 L 157 432.847656 L 0 432.847656 Z M 0 0 " clip-rule="nonzero"/></clipPath><clipPath id="e74c87f029"><path d="M 0 0 L 175 0 L 175 432.847656 L 0 432.847656 Z M 0 0 " clip-rule="nonzero"/></clipPath><clipPath id="74260cfc78"><path d="M 0 0 L 192 0 L 192 432.847656 L 0 432.847656 Z M 0 0 " clip-rule="nonzero"/></clipPath><clipPath id="a2a17cd00a"><path d="M 0 0 L 208.722656 0 L 208.722656 432.847656 L 0 432.847656 Z M 0 0 " clip-rule="nonzero"/></clipPath><clipPath id="9f592e8370"><rect x="0" width="209" y="0" height="434"/></clipPath><mask id="ed4f93048f"><g filter="url(#2f2e0abb11)"><rect x="-36" width="432" fill="#000000" y="-50.399998" height="604.799979" fill-opacity="0.1373"/></g></mask><clipPath id="2066a539c0"><path d="M 0 0.203125 L 197 0.203125 L 197 498 L 0 498 Z M 0 0.203125 " clip-rule="nonzero"/></clipPath><clipPath id="1bd5a6bf74"><path d="M 0 0.203125 L 214 0.203125 L 214 498 L 0 498 Z M 0 0.203125 " clip-rule="nonzero"/></clipPath><clipPath id="8f89230492"><path d="M 12 0.203125 L 232 0.203125 L 232 498 L 12 498 Z M 12 0.203125 " clip-rule="nonzero"/></clipPath><clipPath id="19b5184643"><path d="M 29 0.203125 L 249 0.203125 L 249 498 L 29 498 Z M 29 0.203125 " clip-rule="nonzero"/></clipPath><clipPath id="8fb8a280ec"><path d="M 47 0.203125 L 267 0.203125 L 267 498 L 47 498 Z M 47 0.203125 " clip-rule="nonzero"/></clipPath><clipPath id="0b5910bde1"><path d="M 64 0.203125 L 284 0.203125 L 284 498 L 64 498 Z M 64 0.203125 " clip-rule="nonzero"/></clipPath><clipPath id="54d8723991"><path d="M 81 0.203125 L 301 0.203125 L 301 498 L 81 498 Z M 81 0.203125 " clip-rule="nonzero"/></clipPath><clipPath id="55aa371923"><path d="M 99 0.203125 L 319 0.203125 L 319 498 L 99 498 Z M 99 0.203125 " clip-rule="nonzero"/></clipPath><clipPath id="ebebe4c07a"><path d="M 116 0.203125 L 336 0.203125 L 336 498 L 116 498 Z M 116 0.203125 " clip-rule="nonzero"/></clipPath><clipPath id="68c9c263dc"><path d="M 134 0.203125 L 354 0.203125 L 354 498 L 134 498 Z M 134 0.203125 " clip-rule="nonzero"/></clipPath><clipPath id="35135a7272"><path d="M 151 0.203125 L 360 0.203125 L 360 498 L 151 498 Z M 151 0.203125 " clip-rule="nonzero"/></clipPath><clipPath id="0fcbb7c3d9"><path d="M 168 0.203125 L 360 0.203125 L 360 498 L 168 498 Z M 168 0.203125 " clip-rule="nonzero"/></clipPath><clipPath id="6bab839b55"><path d="M 186 0.203125 L 360 0.203125 L 360 498 L 186 498 Z M 186 0.203125 " clip-rule="nonzero"/></clipPath><clipPath id="9cbe604b7f"><path d="M 203 0.203125 L 360 0.203125 L 360 498 L 203 498 Z M 203 0.203125 " clip-rule="nonzero"/></clipPath><clipPath id="b312a5be8a"><path d="M 221 0.203125 L 360 0.203125 L 360 498 L 221 498 Z M 221 0.203125 " clip-rule="nonzero"/></clipPath><clipPath id="8be828ab6a"><rect x="0" width="360" y="0" height="498"/></clipPath><mask id="9e930f51d6"><g filter="url(#2f2e0abb11)"><rect x="-36" width="432" fill="#000000" y="-50.399998" height="604.799979" fill-opacity="0.1373"/></g></mask><clipPath id="88d6a95907"><path d="M 0.222656 1 L 122 1 L 122 501.648438 L 0.222656 501.648438 Z M 0.222656 1 " clip-rule="nonzero"/></clipPath><clipPath id="adf9484c80"><path d="M 17 1 L 122 1 L 122 501.648438 L 17 501.648438 Z M 17 1 " clip-rule="nonzero"/></clipPath><clipPath id="4686a4452c"><path d="M 35 1 L 122 1 L 122 501.648438 L 35 501.648438 Z M 35 1 " clip-rule="nonzero"/></clipPath><clipPath id="dd710127a5"><path d="M 52 1 L 122 1 L 122 501.648438 L 52 501.648438 Z M 52 1 " clip-rule="nonzero"/></clipPath><clipPath id="d8f3663905"><path d="M 70 1 L 122 1 L 122 501.648438 L 70 501.648438 Z M 70 1 " clip-rule="nonzero"/></clipPath><clipPath id="dcb137c83b"><path d="M 87 1 L 122 1 L 122 501.648438 L 87 501.648438 Z M 87 1 " clip-rule="nonzero"/></clipPath><clipPath id="999186b989"><path d="M 104 1 L 122 1 L 122 501.648438 L 104 501.648438 Z M 104 1 " clip-rule="nonzero"/></clipPath><clipPath id="d686e727a1"><rect x="0" width="122" y="0" height="502"/></clipPath><clipPath id="588e3185bd"><path d="M 28.015625 36 L 331.765625 36 L 331.765625 468 L 28.015625 468 Z M 28.015625 36 " clip-rule="nonzero"/></clipPath><clipPath id="fbcac2789d"><path d="M 243.585938 435 L 291.449219 435 L 291.449219 440.121094 L 243.585938 440.121094 Z M 243.585938 435 " clip-rule="nonzero"/></clipPath><clipPath id="6034907c00"><path d="M 229.40625 396.4375 L 307.40625 396.4375 L 307.40625 436 L 229.40625 436 Z M 229.40625 396.4375 " clip-rule="nonzero"/></clipPath><clipPath id="a9b58a5610"><path d="M 147.433594 234.941406 L 212.410156 234.941406 L 212.410156 315.507812 L 147.433594 315.507812 Z M 147.433594 234.941406 " clip-rule="nonzero"/></clipPath><clipPath id="0f0e83c46d"><path d="M 140 198.507812 L 220 198.507812 L 220 248 L 140 248 Z M 140 198.507812 " clip-rule="nonzero"/></clipPath></defs><rect x="-36" width="432" fill="#ffffff" y="-50.399998" height="604.799979" fill-opacity="1"/><rect x="-36" width="432" fill="#323232" y="-50.399998" height="604.799979" fill-opacity="1"/><g mask="url(#90b7241ec1)"><g transform="matrix(1, 0, 0, 1, 0, 0)"><g clip-path="url(#9f592e8370)"><g clip-path="url(#93dabc990a)"><path fill="#000000" d="M -217.589844 432.296875 L -219.066406 431.664062 L -1.417969 -67.574219 L 0.0507812 -66.9375 Z M -217.589844 432.296875 " fill-opacity="1" fill-rule="nonzero"/></g><g clip-path="url(#8f4b6d05fb)"><path fill="#000000" d="M -200.175781 432.296875 L -201.652344 431.664062 L 15.992188 -67.574219 L 17.460938 -66.9375 Z M -200.175781 432.296875 " fill-opacity="1" fill-rule="nonzero"/></g><g clip-path="url(#6ff92334d0)"><path fill="#000000" d="M -182.765625 432.296875 L -184.242188 431.664062 L 33.40625 -67.574219 L 34.875 -66.9375 Z M -182.765625 432.296875 " fill-opacity="1" fill-rule="nonzero"/></g><g clip-path="url(#0af8bbbf25)"><path fill="#000000" d="M -165.359375 432.296875 L -166.828125 431.664062 L 50.816406 -67.574219 L 52.289062 -66.9375 Z M -165.359375 432.296875 " fill-opacity="1" fill-rule="nonzero"/></g><g clip-path="url(#f14907d654)"><path fill="#000000" d="M -147.945312 432.296875 L -149.421875 431.664062 L 68.222656 -67.574219 L 69.699219 -66.9375 Z M -147.945312 432.296875 " fill-opacity="1" fill-rule="nonzero"/></g><g clip-path="url(#426ecca4d8)"><path fill="#000000" d="M -130.535156 432.296875 L -132.011719 431.664062 L 85.636719 -67.574219 L 87.113281 -66.9375 Z M -130.535156 432.296875 " fill-opacity="1" fill-rule="nonzero"/></g><g clip-path="url(#e8c1d2b795)"><path fill="#000000" d="M -113.121094 432.296875 L -114.597656 431.664062 L 103.050781 -67.574219 L 104.523438 -66.9375 Z M -113.121094 432.296875 " fill-opacity="1" fill-rule="nonzero"/></g><g clip-path="url(#8378fd08c5)"><path fill="#000000" d="M -95.707031 432.296875 L -97.183594 431.664062 L 120.460938 -67.574219 L 121.929688 -66.9375 Z M -95.707031 432.296875 " fill-opacity="1" fill-rule="nonzero"/></g><g clip-path="url(#8e686150e0)"><path fill="#000000" d="M -78.304688 432.296875 L -79.773438 431.664062 L 137.875 -67.574219 L 139.34375 -66.9375 Z M -78.304688 432.296875 " fill-opacity="1" fill-rule="nonzero"/></g><g clip-path="url(#7a0e81cddc)"><path fill="#000000" d="M -60.890625 432.296875 L -62.359375 431.664062 L 155.28125 -67.574219 L 156.757812 -66.9375 Z M -60.890625 432.296875 " fill-opacity="1" fill-rule="nonzero"/></g><g clip-path="url(#e74c87f029)"><path fill="#000000" d="M -43.476562 432.296875 L -44.949219 431.664062 L 172.691406 -67.574219 L 174.167969 -66.9375 Z M -43.476562 432.296875 " fill-opacity="1" fill-rule="nonzero"/></g><g clip-path="url(#74260cfc78)"><path fill="#000000" d="M -26.066406 432.296875 L -27.535156 431.664062 L 190.105469 -67.574219 L 191.582031 -66.9375 Z M -26.066406 432.296875 " fill-opacity="1" fill-rule="nonzero"/></g><g clip-path="url(#a2a17cd00a)"><path fill="#000000" d="M -8.652344 432.296875 L -10.128906 431.664062 L 207.515625 -67.574219 L 208.992188 -66.9375 Z M -8.652344 432.296875 " fill-opacity="1" fill-rule="nonzero"/></g></g></g></g><g mask="url(#ed4f93048f)"><g transform="matrix(1, 0, 0, 1, 0, 6)"><g clip-path="url(#8be828ab6a)"><g clip-path="url(#2066a539c0)"><path fill="#000000" d="M -21.167969 500.652344 L -22.636719 500.015625 L 195.003906 0.78125 L 196.480469 1.414062 Z M -21.167969 500.652344 " fill-opacity="1" fill-rule="nonzero"/></g><g clip-path="url(#1bd5a6bf74)"><path fill="#000000" d="M -3.753906 500.652344 L -5.230469 500.015625 L 212.414062 0.78125 L 213.890625 1.414062 Z M -3.753906 500.652344 " fill-opacity="1" fill-rule="nonzero"/></g><g clip-path="url(#8f89230492)"><path fill="#000000" d="M 13.65625 500.652344 L 12.183594 500.015625 L 229.828125 0.78125 L 231.296875 1.414062 Z M 13.65625 500.652344 " fill-opacity="1" fill-rule="nonzero"/></g><g clip-path="url(#19b5184643)"><path fill="#000000" d="M 31.070312 500.652344 L 29.59375 500.015625 L 247.242188 0.78125 L 248.710938 1.414062 Z M 31.070312 500.652344 " fill-opacity="1" fill-rule="nonzero"/></g><g clip-path="url(#8fb8a280ec)"><path fill="#000000" d="M 48.484375 500.652344 L 47.007812 500.015625 L 264.652344 0.78125 L 266.125 1.414062 Z M 48.484375 500.652344 " fill-opacity="1" fill-rule="nonzero"/></g><g clip-path="url(#0b5910bde1)"><path fill="#000000" d="M 65.890625 500.652344 L 64.417969 500.015625 L 282.066406 0.78125 L 283.535156 1.414062 Z M 65.890625 500.652344 " fill-opacity="1" fill-rule="nonzero"/></g><g clip-path="url(#54d8723991)"><path fill="#000000" d="M 83.300781 500.652344 L 81.824219 500.015625 L 299.472656 0.78125 L 300.949219 1.414062 Z M 83.300781 500.652344 " fill-opacity="1" fill-rule="nonzero"/></g><g clip-path="url(#55aa371923)"><path fill="#000000" d="M 100.714844 500.652344 L 99.238281 500.015625 L 316.882812 0.78125 L 318.359375 1.414062 Z M 100.714844 500.652344 " fill-opacity="1" fill-rule="nonzero"/></g><g clip-path="url(#ebebe4c07a)"><path fill="#000000" d="M 118.125 500.652344 L 116.652344 500.015625 L 334.296875 0.78125 L 335.773438 1.414062 Z M 118.125 500.652344 " fill-opacity="1" fill-rule="nonzero"/></g><g clip-path="url(#68c9c263dc)"><path fill="#000000" d="M 135.539062 500.652344 L 134.0625 500.015625 L 351.710938 0.78125 L 353.179688 1.414062 Z M 135.539062 500.652344 " fill-opacity="1" fill-rule="nonzero"/></g><g clip-path="url(#35135a7272)"><path fill="#000000" d="M 152.945312 500.652344 L 151.476562 500.015625 L 369.121094 0.78125 L 370.589844 1.414062 Z M 152.945312 500.652344 " fill-opacity="1" fill-rule="nonzero"/></g><g clip-path="url(#0fcbb7c3d9)"><path fill="#000000" d="M 170.359375 500.652344 L 168.886719 500.015625 L 386.527344 0.78125 L 388.003906 1.414062 Z M 170.359375 500.652344 " fill-opacity="1" fill-rule="nonzero"/></g><g clip-path="url(#6bab839b55)"><path fill="#000000" d="M 187.769531 500.652344 L 186.300781 500.015625 L 403.941406 0.78125 L 405.417969 1.414062 Z M 187.769531 500.652344 " fill-opacity="1" fill-rule="nonzero"/></g><g clip-path="url(#9cbe604b7f)"><path fill="#000000" d="M 205.183594 500.652344 L 203.710938 500.015625 L 421.351562 0.78125 L 422.828125 1.414062 Z M 205.183594 500.652344 " fill-opacity="1" fill-rule="nonzero"/></g><g clip-path="url(#b312a5be8a)"><path fill="#000000" d="M 222.59375 500.652344 L 221.117188 500.015625 L 438.765625 0.78125 L 440.242188 1.414062 Z M 222.59375 500.652344 " fill-opacity="1" fill-rule="nonzero"/></g></g></g></g><g mask="url(#9e930f51d6)"><g transform="matrix(1, 0, 0, 1, 238, 2)"><g clip-path="url(#d686e727a1)"><g clip-path="url(#88d6a95907)"><path fill="#000000" d="M 1.832031 501.097656 L 0.363281 500.460938 L 218.003906 1.226562 L 219.480469 1.859375 Z M 1.832031 501.097656 " fill-opacity="1" fill-rule="nonzero"/></g><g clip-path="url(#adf9484c80)"><path fill="#000000" d="M 19.246094 501.097656 L 17.769531 500.460938 L 235.414062 1.226562 L 236.890625 1.859375 Z M 19.246094 501.097656 " fill-opacity="1" fill-rule="nonzero"/></g><g clip-path="url(#4686a4452c)"><path fill="#000000" d="M 36.65625 501.097656 L 35.183594 500.460938 L 252.828125 1.226562 L 254.296875 1.859375 Z M 36.65625 501.097656 " fill-opacity="1" fill-rule="nonzero"/></g><g clip-path="url(#dd710127a5)"><path fill="#000000" d="M 54.070312 501.097656 L 52.59375 500.460938 L 270.242188 1.226562 L 271.710938 1.859375 Z M 54.070312 501.097656 " fill-opacity="1" fill-rule="nonzero"/></g><g clip-path="url(#d8f3663905)"><path fill="#000000" d="M 71.484375 501.097656 L 70.007812 500.460938 L 287.652344 1.226562 L 289.125 1.859375 Z M 71.484375 501.097656 " fill-opacity="1" fill-rule="nonzero"/></g><g clip-path="url(#dcb137c83b)"><path fill="#000000" d="M 88.890625 501.097656 L 87.417969 500.460938 L 305.066406 1.226562 L 306.535156 1.859375 Z M 88.890625 501.097656 " fill-opacity="1" fill-rule="nonzero"/></g><g clip-path="url(#999186b989)"><path fill="#000000" d="M 106.300781 501.097656 L 104.824219 500.460938 L 322.472656 1.226562 L 323.949219 1.859375 Z M 106.300781 501.097656 " fill-opacity="1" fill-rule="nonzero"/></g></g></g></g><g clip-path="url(#588e3185bd)"><path fill="#ffcf00" d="M 331.601562 467.976562 L 28.1875 467.976562 L 28.1875 36 L 331.601562 36 Z M 29.066406 467.097656 L 330.722656 467.097656 L 330.722656 36.878906 L 29.066406 36.878906 Z M 29.066406 467.097656 " fill-opacity="1" fill-rule="nonzero"/></g><g clip-path="url(#fbcac2789d)"><path fill="#ffcf00" d="M 291.257812 438.042969 L 290.75 440.121094 C 275.496094 436.375 259.5625 436.375 244.308594 440.121094 L 243.800781 438.042969 C 259.390625 434.207031 275.675781 434.207031 291.261719 438.042969 L 291.257812 438.042969 " fill-opacity="1" fill-rule="nonzero"/></g><g clip-path="url(#6034907c00)"><path fill="#ffcf00" d="M 232.3125 409.113281 C 236.613281 414.957031 242.402344 419.546875 249.070312 422.402344 C 248.148438 417.855469 247.691406 413.21875 247.707031 408.574219 C 246.65625 408.816406 245.601562 408.15625 245.359375 407.105469 C 245.117188 406.046875 245.769531 405 246.828125 404.757812 C 247.878906 404.507812 248.933594 405.167969 249.175781 406.226562 C 249.390625 407.152344 248.898438 408.109375 248.011719 408.46875 C 250.59375 412.859375 253.816406 416.839844 257.582031 420.265625 C 262.027344 414.996094 265.59375 409.050781 268.15625 402.648438 C 266.4375 402.5 265.171875 400.992188 265.316406 399.28125 C 265.460938 397.566406 266.972656 396.296875 268.683594 396.445312 C 270.390625 396.589844 271.667969 398.097656 271.519531 399.808594 C 271.390625 401.316406 270.191406 402.515625 268.683594 402.648438 C 271.238281 409.050781 274.808594 414.996094 279.257812 420.265625 C 283.015625 416.839844 286.242188 412.859375 288.820312 408.46875 C 287.820312 408.054688 287.359375 406.902344 287.773438 405.90625 C 288.1875 404.910156 289.339844 404.445312 290.335938 404.863281 C 291.332031 405.277344 291.804688 406.425781 291.386719 407.421875 C 291.015625 408.308594 290.058594 408.792969 289.125 408.574219 C 289.136719 413.21875 288.679688 417.855469 287.753906 422.402344 C 294.429688 419.546875 300.210938 414.957031 304.515625 409.113281 C 303.570312 408.585938 303.230469 407.394531 303.75 406.445312 C 304.273438 405.503906 305.464844 405.160156 306.414062 405.6875 C 307.355469 406.210938 307.703125 407.402344 307.175781 408.34375 C 306.691406 409.222656 305.625 409.589844 304.703125 409.203125 L 293.078125 435.722656 C 276.875 431.734375 259.949219 431.734375 243.753906 435.722656 L 232.125 409.203125 C 231.128906 409.625 229.980469 409.152344 229.558594 408.15625 C 229.140625 407.160156 229.605469 406.019531 230.601562 405.59375 C 231.601562 405.171875 232.75 405.644531 233.164062 406.640625 C 233.558594 407.5625 233.1875 408.628906 232.3125 409.113281 " fill-opacity="1" fill-rule="nonzero"/></g><g clip-path="url(#a9b58a5610)"><path fill="#ffcf00" d="M 152.824219 250.089844 C 152.3125 252.511719 152.160156 255.152344 152.140625 257.5625 C 152.109375 261.257812 152.417969 265.003906 152.925781 268.664062 C 153.113281 269.996094 153.328125 271.328125 153.574219 272.648438 C 155.144531 281.148438 158.03125 289.863281 163.558594 296.589844 C 165.191406 298.582031 167.09375 300.464844 169.207031 301.9375 C 164.355469 297.199219 161.324219 290.859375 159.4375 284.140625 C 156.097656 272.261719 155.808594 257.867188 157.589844 245.753906 C 155.511719 246.476562 153.3125 247.792969 152.824219 250.089844 Z M 182.707031 311.941406 C 183.207031 310.242188 183.507812 309.933594 185.253906 309.5 C 189.160156 308.527344 192.945312 306.476562 196.335938 303.347656 C 204.726562 295.605469 208.820312 284.523438 210.859375 273.511719 C 212.574219 264.246094 213.019531 254.113281 211.210938 247.578125 C 209.300781 240.683594 196.785156 235.308594 181.394531 234.984375 C 180.902344 234.972656 180.410156 234.96875 179.921875 234.96875 C 179.429688 234.96875 178.9375 234.972656 178.449219 234.984375 C 163.054688 235.308594 150.542969 240.683594 148.632812 247.578125 C 146.824219 254.113281 147.269531 264.246094 148.984375 273.511719 C 151.023438 284.523438 155.113281 295.605469 163.507812 303.347656 C 166.894531 306.476562 170.679688 308.527344 174.585938 309.5 C 176.332031 309.933594 176.636719 310.242188 177.136719 311.941406 C 178.53125 316.695312 181.308594 316.695312 182.707031 311.941406 " fill-opacity="1" fill-rule="evenodd"/></g><g clip-path="url(#0f0e83c46d)"><path fill="#ffcf00" d="M 177.136719 232.320312 C 176.371094 228.332031 174.605469 224.875 172.101562 222.046875 C 169.960938 225.269531 168.679688 229.027344 168.515625 233.191406 C 171.394531 232.707031 174.308594 232.429688 177.136719 232.320312 Z M 156.605469 224.238281 C 154.8125 227.980469 154.082031 232.199219 154.710938 236.683594 C 154.75 236.976562 154.796875 237.265625 154.847656 237.554688 C 155.71875 237.097656 156.589844 236.6875 157.441406 236.328125 C 159.289062 235.542969 161.230469 234.886719 163.222656 234.347656 C 161.949219 230.214844 159.636719 226.820312 156.605469 224.238281 Z M 150.578125 240.359375 C 150.339844 239.613281 150.054688 238.863281 149.726562 238.121094 C 147.898438 233.984375 145.058594 230.796875 141.566406 228.582031 C 139.804688 234.621094 140.90625 243.429688 145.789062 247.855469 C 145.871094 247.515625 145.953125 247.179688 146.046875 246.851562 C 146.765625 244.253906 148.480469 242.015625 150.578125 240.359375 Z M 143.027344 225.441406 C 146.34375 227.480469 149.058594 230.199219 151.078125 233.398438 C 151.105469 229.546875 152 225.738281 153.796875 222.199219 C 151.945312 221.058594 149.90625 220.160156 147.734375 219.511719 C 145.839844 221.199219 144.257812 223.234375 143.027344 225.441406 Z M 161.707031 212.75 C 159.210938 214.699219 157.160156 216.890625 155.550781 219.238281 C 154.140625 218.371094 152.617188 217.617188 150.980469 216.984375 C 153.710938 215.171875 158.796875 213.324219 161.707031 212.75 Z M 165.359375 230.34375 C 165.914062 226.535156 167.332031 222.890625 169.597656 219.632812 C 167.753906 218.105469 165.640625 216.832031 163.332031 215.84375 C 161.382812 217.433594 159.703125 219.238281 158.347656 221.226562 C 161.417969 223.726562 163.777344 226.839844 165.359375 230.34375 Z M 182.707031 232.320312 C 183.46875 228.332031 185.234375 224.875 187.746094 222.046875 C 189.882812 225.269531 191.160156 229.027344 191.324219 233.191406 C 188.445312 232.707031 185.535156 232.429688 182.707031 232.320312 Z M 203.234375 224.238281 C 205.03125 227.980469 205.761719 232.199219 205.132812 236.683594 C 205.089844 236.976562 205.042969 237.265625 204.992188 237.554688 C 204.125 237.097656 203.25 236.6875 202.402344 236.328125 C 200.550781 235.542969 198.613281 234.886719 196.617188 234.347656 C 197.894531 230.214844 200.203125 226.820312 203.234375 224.238281 Z M 209.261719 240.359375 C 209.503906 239.613281 209.789062 238.863281 210.117188 238.121094 C 211.945312 233.984375 214.785156 230.796875 218.277344 228.582031 C 220.039062 234.621094 218.933594 243.429688 214.054688 247.855469 C 213.972656 247.515625 213.886719 247.179688 213.796875 246.851562 C 213.078125 244.253906 211.359375 242.015625 209.261719 240.359375 Z M 216.816406 225.441406 C 213.496094 227.480469 210.785156 230.199219 208.765625 233.398438 C 208.738281 229.546875 207.839844 225.738281 206.046875 222.199219 C 207.898438 221.058594 209.933594 220.160156 212.109375 219.511719 C 214 221.199219 215.585938 223.234375 216.816406 225.441406 Z M 198.132812 212.75 C 200.632812 214.699219 202.683594 216.890625 204.292969 219.238281 C 205.703125 218.371094 207.226562 217.617188 208.859375 216.984375 C 206.132812 215.171875 201.046875 213.324219 198.132812 212.75 Z M 194.484375 230.34375 C 193.925781 226.535156 192.511719 222.890625 190.246094 219.632812 C 192.089844 218.105469 194.199219 216.832031 196.507812 215.84375 C 198.457031 217.433594 200.136719 219.238281 201.492188 221.226562 C 198.425781 223.726562 196.066406 226.839844 194.484375 230.34375 Z M 179.921875 214.675781 C 182.070312 215.976562 183.984375 217.53125 185.601562 219.304688 C 182.90625 222.214844 181 225.625 179.921875 229.316406 C 178.839844 225.625 176.9375 222.214844 174.242188 219.304688 C 175.859375 217.53125 177.769531 215.976562 179.921875 214.675781 Z M 177.3125 198.503906 L 182.535156 198.503906 C 182.734375 212.09375 185.855469 209.84375 195.8125 212.410156 C 192.871094 213.59375 190.292969 215.132812 188.097656 216.949219 C 185.765625 214.582031 182.929688 212.328125 179.921875 210.519531 C 176.914062 212.328125 174.078125 214.582031 171.746094 216.949219 C 169.546875 215.132812 166.972656 213.59375 164.027344 212.410156 C 173.984375 209.84375 177.109375 212.09375 177.3125 198.503906 " fill-opacity="1" fill-rule="evenodd"/></g></svg>