<svg xmlns="http://www.w3.org/2000/svg" xmlns:xlink="http://www.w3.org/1999/xlink" width="480" zoomAndPan="magnify" viewBox="0 0 360 503.999982" height="672" preserveAspectRatio="xMidYMid meet" version="1.0"><defs><filter x="0%" y="0%" width="100%" height="100%" id="d3085f2379"><feColorMatrix values="0 0 0 0 1 0 0 0 0 1 0 0 0 0 1 0 0 0 1 0" color-interpolation-filters="sRGB"/></filter><g/><mask id="603741378c"><g filter="url(#d3085f2379)"><rect x="-36" width="432" fill="#000000" y="-50.399998" height="604.799979" fill-opacity="0.1373"/></g></mask><clipPath id="d48cb4739c"><path d="M 0 0 L 1 0 L 1 432.847656 L 0 432.847656 Z M 0 0 " clip-rule="nonzero"/></clipPath><clipPath id="7eba218c5a"><path d="M 0 0 L 18 0 L 18 432.847656 L 0 432.847656 Z M 0 0 " clip-rule="nonzero"/></clipPath><clipPath id="1fcb714491"><path d="M 0 0 L 35 0 L 35 432.847656 L 0 432.847656 Z M 0 0 " clip-rule="nonzero"/></clipPath><clipPath id="312dce77a5"><path d="M 0 0 L 53 0 L 53 432.847656 L 0 432.847656 Z M 0 0 " clip-rule="nonzero"/></clipPath><clipPath id="490ffb3b67"><path d="M 0 0 L 70 0 L 70 432.847656 L 0 432.847656 Z M 0 0 " clip-rule="nonzero"/></clipPath><clipPath id="c8f64a4aa7"><path d="M 0 0 L 88 0 L 88 432.847656 L 0 432.847656 Z M 0 0 " clip-rule="nonzero"/></clipPath><clipPath id="80c2c60139"><path d="M 0 0 L 105 0 L 105 432.847656 L 0 432.847656 Z M 0 0 " clip-rule="nonzero"/></clipPath><clipPath id="b8423a12b1"><path d="M 0 0 L 122 0 L 122 432.847656 L 0 432.847656 Z M 0 0 " clip-rule="nonzero"/></clipPath><clipPath id="2fc2a7e3b1"><path d="M 0 0 L 140 0 L 140 432.847656 L 0 432.847656 Z M 0 0 " clip-rule="nonzero"/></clipPath><clipPath id="3b8505d2f6"><path d="M 0 0 L 157 0 L 157 432.847656 L 0 432.847656 Z M 0 0 " clip-rule="nonzero"/></clipPath><clipPath id="1454532302"><path d="M 0 0 L 175 0 L 175 432.847656 L 0 432.847656 Z M 0 0 " clip-rule="nonzero"/></clipPath><clipPath id="0205787c86"><path d="M 0 0 L 192 0 L 192 432.847656 L 0 432.847656 Z M 0 0 " clip-rule="nonzero"/></clipPath><clipPath id="069ffa68ed"><path d="M 0 0 L 208.722656 0 L 208.722656 432.847656 L 0 432.847656 Z M 0 0 " clip-rule="nonzero"/></clipPath><clipPath id="32f47c31ec"><rect x="0" width="209" y="0" height="434"/></clipPath><mask id="03a05c38be"><g filter="url(#d3085f2379)"><rect x="-36" width="432" fill="#000000" y="-50.399998" height="604.799979" fill-opacity="0.1373"/></g></mask><clipPath id="b5027b1b3e"><path d="M 0.222656 1 L 122 1 L 122 501.648438 L 0.222656 501.648438 Z M 0.222656 1 " clip-rule="nonzero"/></clipPath><clipPath id="9a75559034"><path d="M 17 1 L 122 1 L 122 501.648438 L 17 501.648438 Z M 17 1 " clip-rule="nonzero"/></clipPath><clipPath id="10b8ac6c4d"><path d="M 35 1 L 122 1 L 122 501.648438 L 35 501.648438 Z M 35 1 " clip-rule="nonzero"/></clipPath><clipPath id="b798e07fd1"><path d="M 52 1 L 122 1 L 122 501.648438 L 52 501.648438 Z M 52 1 " clip-rule="nonzero"/></clipPath><clipPath id="09b7d1f9df"><path d="M 70 1 L 122 1 L 122 501.648438 L 70 501.648438 Z M 70 1 " clip-rule="nonzero"/></clipPath><clipPath id="efd58a1004"><path d="M 87 1 L 122 1 L 122 501.648438 L 87 501.648438 Z M 87 1 " clip-rule="nonzero"/></clipPath><clipPath id="cdf42698bb"><path d="M 104 1 L 122 1 L 122 501.648438 L 104 501.648438 Z M 104 1 " clip-rule="nonzero"/></clipPath><clipPath id="88c4cc78fd"><rect x="0" width="122" y="0" height="502"/></clipPath><mask id="feb4a44c44"><g filter="url(#d3085f2379)"><rect x="-36" width="432" fill="#000000" y="-50.399998" height="604.799979" fill-opacity="0.1373"/></g></mask><clipPath id="864e538898"><path d="M 0 1 L 197 1 L 197 501.648438 L 0 501.648438 Z M 0 1 " clip-rule="nonzero"/></clipPath><clipPath id="578803390d"><path d="M 0 1 L 214 1 L 214 501.648438 L 0 501.648438 Z M 0 1 " clip-rule="nonzero"/></clipPath><clipPath id="d3efc38c14"><path d="M 12 1 L 232 1 L 232 501.648438 L 12 501.648438 Z M 12 1 " clip-rule="nonzero"/></clipPath><clipPath id="a50e4ca739"><path d="M 29 1 L 249 1 L 249 501.648438 L 29 501.648438 Z M 29 1 " clip-rule="nonzero"/></clipPath><clipPath id="0f4b6617de"><path d="M 47 1 L 267 1 L 267 501.648438 L 47 501.648438 Z M 47 1 " clip-rule="nonzero"/></clipPath><clipPath id="6824424024"><path d="M 64 1 L 284 1 L 284 501.648438 L 64 501.648438 Z M 64 1 " clip-rule="nonzero"/></clipPath><clipPath id="4b0cf450d0"><path d="M 81 1 L 301 1 L 301 501.648438 L 81 501.648438 Z M 81 1 " clip-rule="nonzero"/></clipPath><clipPath id="e0b43c14b6"><path d="M 99 1 L 319 1 L 319 501.648438 L 99 501.648438 Z M 99 1 " clip-rule="nonzero"/></clipPath><clipPath id="73e7176887"><path d="M 116 1 L 336 1 L 336 501.648438 L 116 501.648438 Z M 116 1 " clip-rule="nonzero"/></clipPath><clipPath id="58561e30a4"><path d="M 134 1 L 354 1 L 354 501.648438 L 134 501.648438 Z M 134 1 " clip-rule="nonzero"/></clipPath><clipPath id="1eb5e78094"><path d="M 151 1 L 360 1 L 360 501.648438 L 151 501.648438 Z M 151 1 " clip-rule="nonzero"/></clipPath><clipPath id="f0a4913e91"><path d="M 168 1 L 360 1 L 360 501.648438 L 168 501.648438 Z M 168 1 " clip-rule="nonzero"/></clipPath><clipPath id="96f63d055c"><path d="M 186 1 L 360 1 L 360 501.648438 L 186 501.648438 Z M 186 1 " clip-rule="nonzero"/></clipPath><clipPath id="28102d3cc5"><path d="M 203 1 L 360 1 L 360 501.648438 L 203 501.648438 Z M 203 1 " clip-rule="nonzero"/></clipPath><clipPath id="1ae5e9ac46"><path d="M 221 1 L 360 1 L 360 501.648438 L 221 501.648438 Z M 221 1 " clip-rule="nonzero"/></clipPath><clipPath id="600534438c"><rect x="0" width="360" y="0" height="502"/></clipPath><clipPath id="5e432ea511"><path d="M 28.015625 36 L 331.765625 36 L 331.765625 468 L 28.015625 468 Z M 28.015625 36 " clip-rule="nonzero"/></clipPath><clipPath id="ece1549138"><path d="M 222.078125 116.972656 L 274.578125 116.972656 L 274.578125 169.472656 L 222.078125 169.472656 Z M 222.078125 116.972656 " clip-rule="nonzero"/></clipPath><clipPath id="045c0e7c5f"><path d="M 223 116.972656 L 272 116.972656 L 272 140 L 223 140 Z M 223 116.972656 " clip-rule="nonzero"/></clipPath><clipPath id="802b63b41b"><path d="M 227 133 L 274.578125 133 L 274.578125 169.472656 L 227 169.472656 Z M 227 133 " clip-rule="nonzero"/></clipPath><clipPath id="dd113426cc"><path d="M 222.078125 200.65625 L 274.578125 200.65625 L 274.578125 253.15625 L 222.078125 253.15625 Z M 222.078125 200.65625 " clip-rule="nonzero"/></clipPath><clipPath id="1087b59671"><path d="M 223 200.65625 L 272 200.65625 L 272 224 L 223 224 Z M 223 200.65625 " clip-rule="nonzero"/></clipPath><clipPath id="af6698bf96"><path d="M 227 216 L 274.578125 216 L 274.578125 253.15625 L 227 253.15625 Z M 227 216 " clip-rule="nonzero"/></clipPath><clipPath id="7b222f9d6c"><path d="M 222.078125 290.46875 L 274.578125 290.46875 L 274.578125 342.96875 L 222.078125 342.96875 Z M 222.078125 290.46875 " clip-rule="nonzero"/></clipPath><clipPath id="2e40de8123"><path d="M 223 290.46875 L 272 290.46875 L 272 314 L 223 314 Z M 223 290.46875 " clip-rule="nonzero"/></clipPath><clipPath id="93640eaaca"><path d="M 227 306 L 274.578125 306 L 274.578125 342.96875 L 227 342.96875 Z M 227 306 " clip-rule="nonzero"/></clipPath><clipPath id="7f9663314d"><path d="M 222.078125 378.484375 L 274.578125 378.484375 L 274.578125 430.984375 L 222.078125 430.984375 Z M 222.078125 378.484375 " clip-rule="nonzero"/></clipPath><clipPath id="565eaefa06"><path d="M 223 378.484375 L 272 378.484375 L 272 402 L 223 402 Z M 223 378.484375 " clip-rule="nonzero"/></clipPath><clipPath id="7090d33094"><path d="M 227 394 L 274.578125 394 L 274.578125 430.984375 L 227 430.984375 Z M 227 394 " clip-rule="nonzero"/></clipPath><clipPath id="47e6ca5a3b"><path d="M 85.476562 116.972656 L 137.976562 116.972656 L 137.976562 169.472656 L 85.476562 169.472656 Z M 85.476562 116.972656 " clip-rule="nonzero"/></clipPath><clipPath id="1642f2bef2"><path d="M 86 116.972656 L 136 116.972656 L 136 140 L 86 140 Z M 86 116.972656 " clip-rule="nonzero"/></clipPath><clipPath id="d9846c7ecc"><path d="M 90 133 L 137.976562 133 L 137.976562 169.472656 L 90 169.472656 Z M 90 133 " clip-rule="nonzero"/></clipPath><clipPath id="3aa572dc36"><path d="M 85.476562 200.65625 L 137.976562 200.65625 L 137.976562 253.15625 L 85.476562 253.15625 Z M 85.476562 200.65625 " clip-rule="nonzero"/></clipPath><clipPath id="241cb4b5e1"><path d="M 86 200.65625 L 136 200.65625 L 136 224 L 86 224 Z M 86 200.65625 " clip-rule="nonzero"/></clipPath><clipPath id="68958b68ea"><path d="M 90 216 L 137.976562 216 L 137.976562 253.15625 L 90 253.15625 Z M 90 216 " clip-rule="nonzero"/></clipPath><clipPath id="ef8772bdb3"><path d="M 85.476562 290.46875 L 137.976562 290.46875 L 137.976562 342.96875 L 85.476562 342.96875 Z M 85.476562 290.46875 " clip-rule="nonzero"/></clipPath><clipPath id="2cd1c82a39"><path d="M 86 290.46875 L 136 290.46875 L 136 314 L 86 314 Z M 86 290.46875 " clip-rule="nonzero"/></clipPath><clipPath id="0c695fe02d"><path d="M 90 306 L 137.976562 306 L 137.976562 342.96875 L 90 342.96875 Z M 90 306 " clip-rule="nonzero"/></clipPath><clipPath id="a141d4a8cf"><path d="M 85.476562 378.484375 L 137.976562 378.484375 L 137.976562 430.984375 L 85.476562 430.984375 Z M 85.476562 378.484375 " clip-rule="nonzero"/></clipPath><clipPath id="254ff50edc"><path d="M 86 378.484375 L 136 378.484375 L 136 402 L 86 402 Z M 86 378.484375 " clip-rule="nonzero"/></clipPath><clipPath id="d545a9b3bd"><path d="M 90 394 L 137.976562 394 L 137.976562 430.984375 L 90 430.984375 Z M 90 394 " clip-rule="nonzero"/></clipPath></defs><rect x="-36" width="432" fill="#ffffff" y="-50.399998" height="604.799979" fill-opacity="1"/><rect x="-36" width="432" fill="#323232" y="-50.399998" height="604.799979" fill-opacity="1"/><g mask="url(#603741378c)"><g transform="matrix(1, 0, 0, 1, 0, 0)"><g clip-path="url(#32f47c31ec)"><g clip-path="url(#d48cb4739c)"><path fill="#000000" d="M -217.589844 432.296875 L -219.066406 431.664062 L -1.417969 -67.574219 L 0.0507812 -66.9375 Z M -217.589844 432.296875 " fill-opacity="1" fill-rule="nonzero"/></g><g clip-path="url(#7eba218c5a)"><path fill="#000000" d="M -200.175781 432.296875 L -201.652344 431.664062 L 15.992188 -67.574219 L 17.460938 -66.9375 Z M -200.175781 432.296875 " fill-opacity="1" fill-rule="nonzero"/></g><g clip-path="url(#1fcb714491)"><path fill="#000000" d="M -182.765625 432.296875 L -184.242188 431.664062 L 33.40625 -67.574219 L 34.875 -66.9375 Z M -182.765625 432.296875 " fill-opacity="1" fill-rule="nonzero"/></g><g clip-path="url(#312dce77a5)"><path fill="#000000" d="M -165.359375 432.296875 L -166.828125 431.664062 L 50.816406 -67.574219 L 52.289062 -66.9375 Z M -165.359375 432.296875 " fill-opacity="1" fill-rule="nonzero"/></g><g clip-path="url(#490ffb3b67)"><path fill="#000000" d="M -147.945312 432.296875 L -149.421875 431.664062 L 68.222656 -67.574219 L 69.699219 -66.9375 Z M -147.945312 432.296875 " fill-opacity="1" fill-rule="nonzero"/></g><g clip-path="url(#c8f64a4aa7)"><path fill="#000000" d="M -130.535156 432.296875 L -132.011719 431.664062 L 85.636719 -67.574219 L 87.113281 -66.9375 Z M -130.535156 432.296875 " fill-opacity="1" fill-rule="nonzero"/></g><g clip-path="url(#80c2c60139)"><path fill="#000000" d="M -113.121094 432.296875 L -114.597656 431.664062 L 103.050781 -67.574219 L 104.523438 -66.9375 Z M -113.121094 432.296875 " fill-opacity="1" fill-rule="nonzero"/></g><g clip-path="url(#b8423a12b1)"><path fill="#000000" d="M -95.707031 432.296875 L -97.183594 431.664062 L 120.460938 -67.574219 L 121.929688 -66.9375 Z M -95.707031 432.296875 " fill-opacity="1" fill-rule="nonzero"/></g><g clip-path="url(#2fc2a7e3b1)"><path fill="#000000" d="M -78.304688 432.296875 L -79.773438 431.664062 L 137.875 -67.574219 L 139.34375 -66.9375 Z M -78.304688 432.296875 " fill-opacity="1" fill-rule="nonzero"/></g><g clip-path="url(#3b8505d2f6)"><path fill="#000000" d="M -60.890625 432.296875 L -62.359375 431.664062 L 155.28125 -67.574219 L 156.757812 -66.9375 Z M -60.890625 432.296875 " fill-opacity="1" fill-rule="nonzero"/></g><g clip-path="url(#1454532302)"><path fill="#000000" d="M -43.476562 432.296875 L -44.949219 431.664062 L 172.691406 -67.574219 L 174.167969 -66.9375 Z M -43.476562 432.296875 " fill-opacity="1" fill-rule="nonzero"/></g><g clip-path="url(#0205787c86)"><path fill="#000000" d="M -26.066406 432.296875 L -27.535156 431.664062 L 190.105469 -67.574219 L 191.582031 -66.9375 Z M -26.066406 432.296875 " fill-opacity="1" fill-rule="nonzero"/></g><g clip-path="url(#069ffa68ed)"><path fill="#000000" d="M -8.652344 432.296875 L -10.128906 431.664062 L 207.515625 -67.574219 L 208.992188 -66.9375 Z M -8.652344 432.296875 " fill-opacity="1" fill-rule="nonzero"/></g></g></g></g><g mask="url(#03a05c38be)"><g transform="matrix(1, 0, 0, 1, 238, 2)"><g clip-path="url(#88c4cc78fd)"><g clip-path="url(#b5027b1b3e)"><path fill="#000000" d="M 1.832031 501.097656 L 0.363281 500.460938 L 218.003906 1.226562 L 219.480469 1.859375 Z M 1.832031 501.097656 " fill-opacity="1" fill-rule="nonzero"/></g><g clip-path="url(#9a75559034)"><path fill="#000000" d="M 19.246094 501.097656 L 17.769531 500.460938 L 235.414062 1.226562 L 236.890625 1.859375 Z M 19.246094 501.097656 " fill-opacity="1" fill-rule="nonzero"/></g><g clip-path="url(#10b8ac6c4d)"><path fill="#000000" d="M 36.65625 501.097656 L 35.183594 500.460938 L 252.828125 1.226562 L 254.296875 1.859375 Z M 36.65625 501.097656 " fill-opacity="1" fill-rule="nonzero"/></g><g clip-path="url(#b798e07fd1)"><path fill="#000000" d="M 54.070312 501.097656 L 52.59375 500.460938 L 270.242188 1.226562 L 271.710938 1.859375 Z M 54.070312 501.097656 " fill-opacity="1" fill-rule="nonzero"/></g><g clip-path="url(#09b7d1f9df)"><path fill="#000000" d="M 71.484375 501.097656 L 70.007812 500.460938 L 287.652344 1.226562 L 289.125 1.859375 Z M 71.484375 501.097656 " fill-opacity="1" fill-rule="nonzero"/></g><g clip-path="url(#efd58a1004)"><path fill="#000000" d="M 88.890625 501.097656 L 87.417969 500.460938 L 305.066406 1.226562 L 306.535156 1.859375 Z M 88.890625 501.097656 " fill-opacity="1" fill-rule="nonzero"/></g><g clip-path="url(#cdf42698bb)"><path fill="#000000" d="M 106.300781 501.097656 L 104.824219 500.460938 L 322.472656 1.226562 L 323.949219 1.859375 Z M 106.300781 501.097656 " fill-opacity="1" fill-rule="nonzero"/></g></g></g></g><g mask="url(#feb4a44c44)"><g transform="matrix(1, 0, 0, 1, 0, 2)"><g clip-path="url(#600534438c)"><g clip-path="url(#864e538898)"><path fill="#000000" d="M -21.167969 501.097656 L -22.636719 500.460938 L 195.003906 1.226562 L 196.480469 1.859375 Z M -21.167969 501.097656 " fill-opacity="1" fill-rule="nonzero"/></g><g clip-path="url(#578803390d)"><path fill="#000000" d="M -3.753906 501.097656 L -5.230469 500.460938 L 212.414062 1.226562 L 213.890625 1.859375 Z M -3.753906 501.097656 " fill-opacity="1" fill-rule="nonzero"/></g><g clip-path="url(#d3efc38c14)"><path fill="#000000" d="M 13.65625 501.097656 L 12.183594 500.460938 L 229.828125 1.226562 L 231.296875 1.859375 Z M 13.65625 501.097656 " fill-opacity="1" fill-rule="nonzero"/></g><g clip-path="url(#a50e4ca739)"><path fill="#000000" d="M 31.070312 501.097656 L 29.59375 500.460938 L 247.242188 1.226562 L 248.710938 1.859375 Z M 31.070312 501.097656 " fill-opacity="1" fill-rule="nonzero"/></g><g clip-path="url(#0f4b6617de)"><path fill="#000000" d="M 48.484375 501.097656 L 47.007812 500.460938 L 264.652344 1.226562 L 266.125 1.859375 Z M 48.484375 501.097656 " fill-opacity="1" fill-rule="nonzero"/></g><g clip-path="url(#6824424024)"><path fill="#000000" d="M 65.890625 501.097656 L 64.417969 500.460938 L 282.066406 1.226562 L 283.535156 1.859375 Z M 65.890625 501.097656 " fill-opacity="1" fill-rule="nonzero"/></g><g clip-path="url(#4b0cf450d0)"><path fill="#000000" d="M 83.300781 501.097656 L 81.824219 500.460938 L 299.472656 1.226562 L 300.949219 1.859375 Z M 83.300781 501.097656 " fill-opacity="1" fill-rule="nonzero"/></g><g clip-path="url(#e0b43c14b6)"><path fill="#000000" d="M 100.714844 501.097656 L 99.238281 500.460938 L 316.882812 1.226562 L 318.359375 1.859375 Z M 100.714844 501.097656 " fill-opacity="1" fill-rule="nonzero"/></g><g clip-path="url(#73e7176887)"><path fill="#000000" d="M 118.125 501.097656 L 116.652344 500.460938 L 334.296875 1.226562 L 335.773438 1.859375 Z M 118.125 501.097656 " fill-opacity="1" fill-rule="nonzero"/></g><g clip-path="url(#58561e30a4)"><path fill="#000000" d="M 135.539062 501.097656 L 134.0625 500.460938 L 351.710938 1.226562 L 353.179688 1.859375 Z M 135.539062 501.097656 " fill-opacity="1" fill-rule="nonzero"/></g><g clip-path="url(#1eb5e78094)"><path fill="#000000" d="M 152.945312 501.097656 L 151.476562 500.460938 L 369.121094 1.226562 L 370.589844 1.859375 Z M 152.945312 501.097656 " fill-opacity="1" fill-rule="nonzero"/></g><g clip-path="url(#f0a4913e91)"><path fill="#000000" d="M 170.359375 501.097656 L 168.886719 500.460938 L 386.527344 1.226562 L 388.003906 1.859375 Z M 170.359375 501.097656 " fill-opacity="1" fill-rule="nonzero"/></g><g clip-path="url(#96f63d055c)"><path fill="#000000" d="M 187.769531 501.097656 L 186.300781 500.460938 L 403.941406 1.226562 L 405.417969 1.859375 Z M 187.769531 501.097656 " fill-opacity="1" fill-rule="nonzero"/></g><g clip-path="url(#28102d3cc5)"><path fill="#000000" d="M 205.183594 501.097656 L 203.710938 500.460938 L 421.351562 1.226562 L 422.828125 1.859375 Z M 205.183594 501.097656 " fill-opacity="1" fill-rule="nonzero"/></g><g clip-path="url(#1ae5e9ac46)"><path fill="#000000" d="M 222.59375 501.097656 L 221.117188 500.460938 L 438.765625 1.226562 L 440.242188 1.859375 Z M 222.59375 501.097656 " fill-opacity="1" fill-rule="nonzero"/></g></g></g></g><g clip-path="url(#5e432ea511)"><path fill="#38b6ff" d="M 331.601562 467.976562 L 28.1875 467.976562 L 28.1875 36 L 331.601562 36 Z M 29.066406 467.097656 L 330.722656 467.097656 L 330.722656 36.878906 L 29.066406 36.878906 Z M 29.066406 467.097656 " fill-opacity="1" fill-rule="nonzero"/></g><g fill="#38b6ff" fill-opacity="1"><g transform="translate(44.874898, 95.039993)"><g><path d="M 22.417969 -22.417969 C 27.011719 -23.660156 30.054688 -27.449219 30.054688 -32.476562 C 30.054688 -38.8125 25.710938 -43.71875 17.324219 -43.71875 C 9.191406 -43.71875 4.535156 -38.8125 4.535156 -32.476562 C 4.535156 -27.449219 7.328125 -23.722656 11.859375 -22.355469 C 6.210938 -20.925781 2.484375 -16.765625 2.484375 -11.179688 C 2.484375 -3.105469 8.816406 0.929688 16.828125 0.929688 C 24.34375 0.929688 31.175781 -3.105469 31.175781 -11.179688 C 31.175781 -16.765625 28.007812 -20.925781 22.417969 -22.417969 Z M 7.140625 -32.476562 C 7.140625 -38.003906 10.992188 -41.667969 17.324219 -41.667969 C 23.660156 -41.667969 27.511719 -38.003906 27.511719 -32.476562 C 27.511719 -26.269531 22.667969 -23.289062 17.324219 -23.289062 C 11.984375 -23.289062 7.140625 -26.269531 7.140625 -32.476562 Z M 16.953125 -1.117188 C 10.804688 -1.117188 5.09375 -4.347656 5.09375 -11.117188 C 5.09375 -16.890625 9.316406 -21.238281 17.078125 -21.238281 C 24.839844 -21.238281 28.566406 -16.890625 28.566406 -11.117188 C 28.566406 -4.347656 22.789062 -1.117188 16.953125 -1.117188 Z M 16.953125 -1.117188 "/></g></g></g><g clip-path="url(#ece1549138)"><path fill="#ffffff" d="M 274.570312 143.222656 C 274.570312 144.082031 274.527344 144.9375 274.445312 145.792969 C 274.359375 146.648438 274.234375 147.5 274.066406 148.339844 C 273.898438 149.183594 273.6875 150.015625 273.441406 150.839844 C 273.191406 151.664062 272.902344 152.46875 272.570312 153.265625 C 272.242188 154.058594 271.875 154.835938 271.46875 155.59375 C 271.066406 156.351562 270.625 157.085938 270.148438 157.800781 C 269.667969 158.515625 269.15625 159.207031 268.613281 159.871094 C 268.066406 160.535156 267.488281 161.171875 266.882812 161.78125 C 266.273438 162.386719 265.636719 162.964844 264.972656 163.507812 C 264.308594 164.054688 263.621094 164.566406 262.90625 165.042969 C 262.191406 165.523438 261.453125 165.960938 260.695312 166.367188 C 259.9375 166.773438 259.160156 167.140625 258.367188 167.46875 C 257.574219 167.796875 256.765625 168.085938 255.941406 168.335938 C 255.121094 168.585938 254.285156 168.796875 253.445312 168.964844 C 252.601562 169.128906 251.75 169.257812 250.894531 169.339844 C 250.039062 169.425781 249.183594 169.46875 248.324219 169.46875 C 247.464844 169.46875 246.605469 169.425781 245.75 169.339844 C 244.894531 169.257812 244.046875 169.128906 243.203125 168.964844 C 242.359375 168.796875 241.527344 168.585938 240.703125 168.335938 C 239.882812 168.085938 239.074219 167.796875 238.277344 167.46875 C 237.484375 167.140625 236.707031 166.773438 235.949219 166.367188 C 235.191406 165.964844 234.457031 165.523438 233.742188 165.042969 C 233.027344 164.566406 232.335938 164.054688 231.671875 163.507812 C 231.007812 162.964844 230.371094 162.386719 229.765625 161.78125 C 229.15625 161.171875 228.578125 160.535156 228.035156 159.871094 C 227.488281 159.207031 226.976562 158.515625 226.5 157.800781 C 226.023438 157.085938 225.582031 156.351562 225.175781 155.59375 C 224.769531 154.835938 224.402344 154.058594 224.074219 153.265625 C 223.746094 152.46875 223.457031 151.664062 223.207031 150.839844 C 222.957031 150.015625 222.75 149.183594 222.582031 148.339844 C 222.414062 147.5 222.289062 146.648438 222.203125 145.792969 C 222.117188 144.9375 222.078125 144.082031 222.078125 143.222656 C 222.078125 142.359375 222.117188 141.503906 222.203125 140.648438 C 222.289062 139.792969 222.414062 138.941406 222.582031 138.101562 C 222.75 137.257812 222.957031 136.425781 223.207031 135.601562 C 223.457031 134.777344 223.746094 133.972656 224.074219 133.175781 C 224.402344 132.382812 224.769531 131.605469 225.175781 130.847656 C 225.582031 130.089844 226.023438 129.355469 226.5 128.640625 C 226.976562 127.925781 227.488281 127.234375 228.035156 126.570312 C 228.578125 125.90625 229.15625 125.269531 229.765625 124.660156 C 230.371094 124.054688 231.007812 123.476562 231.671875 122.933594 C 232.335938 122.386719 233.027344 121.875 233.742188 121.398438 C 234.457031 120.917969 235.191406 120.480469 235.949219 120.074219 C 236.707031 119.667969 237.484375 119.300781 238.277344 118.972656 C 239.074219 118.644531 239.882812 118.355469 240.703125 118.105469 C 241.527344 117.855469 242.359375 117.644531 243.203125 117.476562 C 244.046875 117.3125 244.894531 117.183594 245.75 117.101562 C 246.605469 117.015625 247.464844 116.972656 248.324219 116.972656 C 249.183594 116.972656 250.039062 117.015625 250.894531 117.101562 C 251.75 117.183594 252.601562 117.3125 253.445312 117.476562 C 254.285156 117.644531 255.121094 117.855469 255.941406 118.105469 C 256.765625 118.355469 257.574219 118.644531 258.367188 118.972656 C 259.160156 119.300781 259.9375 119.667969 260.695312 120.074219 C 261.453125 120.480469 262.191406 120.917969 262.90625 121.398438 C 263.621094 121.875 264.308594 122.386719 264.972656 122.933594 C 265.636719 123.476562 266.273438 124.054688 266.882812 124.660156 C 267.488281 125.269531 268.066406 125.90625 268.613281 126.570312 C 269.15625 127.234375 269.667969 127.925781 270.148438 128.640625 C 270.625 129.355469 271.066406 130.089844 271.46875 130.847656 C 271.875 131.605469 272.242188 132.382812 272.570312 133.175781 C 272.902344 133.972656 273.191406 134.777344 273.441406 135.601562 C 273.6875 136.425781 273.898438 137.257812 274.066406 138.101562 C 274.234375 138.941406 274.359375 139.792969 274.445312 140.648438 C 274.527344 141.503906 274.570312 142.359375 274.570312 143.222656 Z M 274.570312 143.222656 " fill-opacity="1" fill-rule="nonzero"/></g><g clip-path="url(#045c0e7c5f)"><path fill="#38b6ff" d="M 237.78125 135.230469 C 243.433594 137.078125 248.980469 139.886719 254.925781 139.773438 C 260.136719 139.671875 265.09375 137.28125 269.160156 134.023438 C 270.105469 133.269531 271.007812 132.46875 271.875 131.636719 C 271.335938 130.539062 270.726562 129.488281 270.039062 128.480469 C 269.355469 127.46875 268.605469 126.515625 267.785156 125.609375 C 266.964844 124.707031 266.089844 123.863281 265.152344 123.078125 C 264.21875 122.296875 263.230469 121.585938 262.195312 120.941406 C 261.160156 120.296875 260.085938 119.726562 258.96875 119.230469 C 257.855469 118.734375 256.710938 118.320312 255.539062 117.984375 C 254.367188 117.648438 253.175781 117.398438 251.96875 117.226562 C 250.761719 117.058594 249.546875 116.972656 248.328125 116.972656 C 236.78125 116.972656 226.984375 124.425781 223.464844 134.773438 C 227.808594 132.972656 233.164062 133.726562 237.78125 135.230469 Z M 237.78125 135.230469 " fill-opacity="1" fill-rule="nonzero"/></g><g clip-path="url(#802b63b41b)"><path fill="#38b6ff" d="M 246.425781 143.890625 C 241.589844 143.6875 236.339844 142.550781 232.210938 145.070312 C 228.46875 147.351562 226.859375 152.128906 227.148438 156.503906 C 227.210938 157.421875 227.335938 158.332031 227.527344 159.230469 C 228.75 160.824219 230.140625 162.257812 231.695312 163.53125 C 233.25 164.804688 234.929688 165.886719 236.734375 166.773438 C 238.535156 167.664062 240.417969 168.332031 242.375 168.789062 C 244.332031 169.242188 246.316406 169.46875 248.328125 169.46875 C 262.820312 169.46875 274.578125 157.714844 274.578125 143.21875 C 274.582031 139.777344 273.929688 136.464844 272.628906 133.28125 C 265.925781 140.3125 256.128906 144.292969 246.425781 143.890625 Z M 246.425781 143.890625 " fill-opacity="1" fill-rule="nonzero"/></g><g clip-path="url(#dd113426cc)"><path fill="#ffffff" d="M 274.570312 226.902344 C 274.570312 227.761719 274.527344 228.617188 274.445312 229.472656 C 274.359375 230.328125 274.234375 231.179688 274.066406 232.023438 C 273.898438 232.863281 273.6875 233.699219 273.441406 234.519531 C 273.191406 235.34375 272.902344 236.152344 272.570312 236.945312 C 272.242188 237.738281 271.875 238.515625 271.46875 239.273438 C 271.066406 240.03125 270.625 240.769531 270.148438 241.484375 C 269.667969 242.199219 269.15625 242.886719 268.613281 243.550781 C 268.066406 244.214844 267.488281 244.851562 266.882812 245.460938 C 266.273438 246.066406 265.636719 246.644531 264.972656 247.191406 C 264.308594 247.734375 263.621094 248.246094 262.90625 248.722656 C 262.191406 249.203125 261.453125 249.644531 260.695312 250.046875 C 259.9375 250.453125 259.160156 250.820312 258.367188 251.148438 C 257.574219 251.480469 256.765625 251.769531 255.941406 252.019531 C 255.121094 252.265625 254.285156 252.476562 253.445312 252.644531 C 252.601562 252.8125 251.75 252.9375 250.894531 253.019531 C 250.039062 253.105469 249.183594 253.148438 248.324219 253.148438 C 247.464844 253.148438 246.605469 253.105469 245.75 253.019531 C 244.894531 252.9375 244.046875 252.8125 243.203125 252.644531 C 242.359375 252.476562 241.527344 252.265625 240.703125 252.019531 C 239.882812 251.769531 239.074219 251.480469 238.277344 251.148438 C 237.484375 250.820312 236.707031 250.453125 235.949219 250.046875 C 235.191406 249.644531 234.457031 249.203125 233.742188 248.722656 C 233.027344 248.246094 232.335938 247.734375 231.671875 247.191406 C 231.007812 246.644531 230.371094 246.066406 229.765625 245.460938 C 229.15625 244.851562 228.578125 244.214844 228.035156 243.550781 C 227.488281 242.886719 226.976562 242.199219 226.5 241.484375 C 226.023438 240.769531 225.582031 240.03125 225.175781 239.273438 C 224.769531 238.515625 224.402344 237.738281 224.074219 236.945312 C 223.746094 236.152344 223.457031 235.34375 223.207031 234.519531 C 222.957031 233.699219 222.75 232.863281 222.582031 232.023438 C 222.414062 231.179688 222.289062 230.328125 222.203125 229.472656 C 222.117188 228.617188 222.078125 227.761719 222.078125 226.902344 C 222.078125 226.042969 222.117188 225.183594 222.203125 224.328125 C 222.289062 223.472656 222.414062 222.625 222.582031 221.78125 C 222.75 220.9375 222.957031 220.105469 223.207031 219.28125 C 223.457031 218.460938 223.746094 217.652344 224.074219 216.855469 C 224.402344 216.0625 224.769531 215.285156 225.175781 214.527344 C 225.582031 213.769531 226.023438 213.035156 226.5 212.320312 C 226.976562 211.605469 227.488281 210.914062 228.035156 210.25 C 228.578125 209.585938 229.15625 208.949219 229.765625 208.34375 C 230.371094 207.734375 231.007812 207.15625 231.671875 206.613281 C 232.335938 206.066406 233.027344 205.554688 233.742188 205.078125 C 234.457031 204.601562 235.191406 204.160156 235.949219 203.753906 C 236.707031 203.347656 237.484375 202.980469 238.277344 202.652344 C 239.074219 202.324219 239.882812 202.035156 240.703125 201.785156 C 241.527344 201.535156 242.359375 201.328125 243.203125 201.160156 C 244.046875 200.992188 244.894531 200.867188 245.75 200.78125 C 246.605469 200.695312 247.464844 200.65625 248.324219 200.65625 C 249.183594 200.65625 250.039062 200.695312 250.894531 200.78125 C 251.75 200.867188 252.601562 200.992188 253.445312 201.160156 C 254.285156 201.328125 255.121094 201.535156 255.941406 201.785156 C 256.765625 202.035156 257.574219 202.324219 258.367188 202.652344 C 259.160156 202.980469 259.9375 203.347656 260.695312 203.753906 C 261.453125 204.160156 262.191406 204.601562 262.90625 205.078125 C 263.621094 205.554688 264.308594 206.066406 264.972656 206.613281 C 265.636719 207.15625 266.273438 207.734375 266.882812 208.34375 C 267.488281 208.949219 268.066406 209.585938 268.613281 210.25 C 269.15625 210.914062 269.667969 211.605469 270.148438 212.320312 C 270.625 213.035156 271.066406 213.769531 271.46875 214.527344 C 271.875 215.285156 272.242188 216.0625 272.570312 216.855469 C 272.902344 217.652344 273.191406 218.460938 273.441406 219.28125 C 273.6875 220.105469 273.898438 220.9375 274.066406 221.78125 C 274.234375 222.625 274.359375 223.472656 274.445312 224.328125 C 274.527344 225.183594 274.570312 226.042969 274.570312 226.902344 Z M 274.570312 226.902344 " fill-opacity="1" fill-rule="nonzero"/></g><g clip-path="url(#1087b59671)"><path fill="#38b6ff" d="M 237.78125 218.914062 C 243.433594 220.757812 248.980469 223.566406 254.925781 223.453125 C 260.136719 223.351562 265.09375 220.960938 269.160156 217.707031 C 270.105469 216.953125 271.007812 216.148438 271.875 215.316406 C 271.335938 214.222656 270.726562 213.167969 270.039062 212.160156 C 269.355469 211.152344 268.605469 210.195312 267.785156 209.289062 C 266.964844 208.386719 266.089844 207.542969 265.152344 206.761719 C 264.21875 205.976562 263.230469 205.265625 262.195312 204.621094 C 261.160156 203.976562 260.085938 203.40625 258.96875 202.910156 C 257.855469 202.417969 256.710938 202 255.539062 201.667969 C 254.367188 201.332031 253.175781 201.078125 251.96875 200.910156 C 250.761719 200.738281 249.546875 200.65625 248.328125 200.65625 C 236.78125 200.65625 226.984375 208.105469 223.464844 218.453125 C 227.808594 216.652344 233.164062 217.40625 237.78125 218.914062 Z M 237.78125 218.914062 " fill-opacity="1" fill-rule="nonzero"/></g><g clip-path="url(#af6698bf96)"><path fill="#38b6ff" d="M 246.425781 227.570312 C 241.589844 227.367188 236.339844 226.230469 232.210938 228.75 C 228.46875 231.03125 226.859375 235.8125 227.148438 240.183594 C 227.210938 241.101562 227.335938 242.011719 227.527344 242.910156 C 228.75 244.503906 230.140625 245.9375 231.695312 247.214844 C 233.25 248.488281 234.929688 249.566406 236.734375 250.457031 C 238.535156 251.34375 240.417969 252.015625 242.375 252.46875 C 244.332031 252.921875 246.316406 253.148438 248.328125 253.148438 C 262.820312 253.148438 274.578125 241.394531 274.578125 226.898438 C 274.582031 223.457031 273.929688 220.144531 272.628906 216.960938 C 265.925781 223.992188 256.128906 227.976562 246.425781 227.570312 Z M 246.425781 227.570312 " fill-opacity="1" fill-rule="nonzero"/></g><g clip-path="url(#7b222f9d6c)"><path fill="#ffffff" d="M 274.570312 316.714844 C 274.570312 317.574219 274.527344 318.433594 274.445312 319.289062 C 274.359375 320.144531 274.234375 320.992188 274.066406 321.835938 C 273.898438 322.679688 273.6875 323.511719 273.441406 324.332031 C 273.191406 325.15625 272.902344 325.964844 272.570312 326.757812 C 272.242188 327.554688 271.875 328.328125 271.46875 329.085938 C 271.066406 329.84375 270.625 330.582031 270.148438 331.296875 C 269.667969 332.011719 269.15625 332.699219 268.613281 333.367188 C 268.066406 334.03125 267.488281 334.664062 266.882812 335.273438 C 266.273438 335.882812 265.636719 336.457031 264.972656 337.003906 C 264.308594 337.546875 263.621094 338.058594 262.90625 338.539062 C 262.191406 339.015625 261.453125 339.457031 260.695312 339.863281 C 259.9375 340.265625 259.160156 340.632812 258.367188 340.964844 C 257.574219 341.292969 256.765625 341.582031 255.941406 341.832031 C 255.121094 342.082031 254.285156 342.289062 253.445312 342.457031 C 252.601562 342.625 251.75 342.75 250.894531 342.835938 C 250.039062 342.917969 249.183594 342.960938 248.324219 342.960938 C 247.464844 342.960938 246.605469 342.917969 245.75 342.835938 C 244.894531 342.75 244.046875 342.625 243.203125 342.457031 C 242.359375 342.289062 241.527344 342.082031 240.703125 341.832031 C 239.882812 341.582031 239.074219 341.292969 238.277344 340.964844 C 237.484375 340.632812 236.707031 340.265625 235.949219 339.863281 C 235.191406 339.457031 234.457031 339.015625 233.742188 338.539062 C 233.027344 338.058594 232.335938 337.546875 231.671875 337.003906 C 231.007812 336.457031 230.371094 335.882812 229.765625 335.273438 C 229.15625 334.664062 228.578125 334.03125 228.035156 333.367188 C 227.488281 332.699219 226.976562 332.011719 226.5 331.296875 C 226.023438 330.582031 225.582031 329.84375 225.175781 329.085938 C 224.769531 328.328125 224.402344 327.554688 224.074219 326.757812 C 223.746094 325.964844 223.457031 325.15625 223.207031 324.332031 C 222.957031 323.511719 222.75 322.679688 222.582031 321.835938 C 222.414062 320.992188 222.289062 320.144531 222.203125 319.289062 C 222.117188 318.433594 222.078125 317.574219 222.078125 316.714844 C 222.078125 315.855469 222.117188 314.996094 222.203125 314.140625 C 222.289062 313.285156 222.414062 312.4375 222.582031 311.59375 C 222.75 310.75 222.957031 309.917969 223.207031 309.09375 C 223.457031 308.273438 223.746094 307.464844 224.074219 306.671875 C 224.402344 305.875 224.769531 305.101562 225.175781 304.34375 C 225.582031 303.582031 226.023438 302.847656 226.5 302.132812 C 226.976562 301.417969 227.488281 300.726562 228.035156 300.0625 C 228.578125 299.398438 229.15625 298.761719 229.765625 298.15625 C 230.371094 297.546875 231.007812 296.972656 231.671875 296.425781 C 232.335938 295.878906 233.027344 295.367188 233.742188 294.890625 C 234.457031 294.414062 235.191406 293.972656 235.949219 293.566406 C 236.707031 293.160156 237.484375 292.792969 238.277344 292.464844 C 239.074219 292.136719 239.882812 291.847656 240.703125 291.597656 C 241.527344 291.347656 242.359375 291.140625 243.203125 290.972656 C 244.046875 290.804688 244.894531 290.679688 245.75 290.59375 C 246.605469 290.511719 247.464844 290.46875 248.324219 290.46875 C 249.183594 290.46875 250.039062 290.511719 250.894531 290.59375 C 251.75 290.679688 252.601562 290.804688 253.445312 290.972656 C 254.285156 291.140625 255.121094 291.347656 255.941406 291.597656 C 256.765625 291.847656 257.574219 292.136719 258.367188 292.464844 C 259.160156 292.792969 259.9375 293.160156 260.695312 293.566406 C 261.453125 293.972656 262.191406 294.414062 262.90625 294.890625 C 263.621094 295.367188 264.308594 295.878906 264.972656 296.425781 C 265.636719 296.972656 266.273438 297.546875 266.882812 298.15625 C 267.488281 298.761719 268.066406 299.398438 268.613281 300.0625 C 269.15625 300.726562 269.667969 301.417969 270.148438 302.132812 C 270.625 302.847656 271.066406 303.582031 271.46875 304.34375 C 271.875 305.101562 272.242188 305.875 272.570312 306.671875 C 272.902344 307.464844 273.191406 308.273438 273.441406 309.09375 C 273.6875 309.917969 273.898438 310.75 274.066406 311.59375 C 274.234375 312.4375 274.359375 313.285156 274.445312 314.140625 C 274.527344 314.996094 274.570312 315.855469 274.570312 316.714844 Z M 274.570312 316.714844 " fill-opacity="1" fill-rule="nonzero"/></g><g clip-path="url(#2e40de8123)"><path fill="#38b6ff" d="M 237.78125 308.726562 C 243.433594 310.570312 248.980469 313.378906 254.925781 313.265625 C 260.136719 313.164062 265.09375 310.773438 269.160156 307.519531 C 270.105469 306.765625 271.007812 305.964844 271.875 305.128906 C 271.335938 304.035156 270.726562 302.984375 270.039062 301.972656 C 269.355469 300.964844 268.605469 300.007812 267.785156 299.101562 C 266.964844 298.199219 266.089844 297.355469 265.152344 296.574219 C 264.21875 295.792969 263.230469 295.078125 262.195312 294.433594 C 261.160156 293.789062 260.085938 293.21875 258.96875 292.726562 C 257.855469 292.230469 256.710938 291.816406 255.539062 291.480469 C 254.367188 291.144531 253.175781 290.890625 251.96875 290.722656 C 250.761719 290.554688 249.546875 290.46875 248.328125 290.46875 C 236.78125 290.46875 226.984375 297.917969 223.464844 308.269531 C 227.808594 306.464844 233.164062 307.21875 237.78125 308.726562 Z M 237.78125 308.726562 " fill-opacity="1" fill-rule="nonzero"/></g><g clip-path="url(#93640eaaca)"><path fill="#38b6ff" d="M 246.425781 317.382812 C 241.589844 317.179688 236.339844 316.042969 232.210938 318.566406 C 228.46875 320.84375 226.859375 325.625 227.148438 329.996094 C 227.210938 330.914062 227.335938 331.824219 227.527344 332.726562 C 228.75 334.320312 230.140625 335.753906 231.695312 337.027344 C 233.25 338.300781 234.929688 339.382812 236.734375 340.269531 C 238.535156 341.15625 240.417969 341.828125 242.375 342.28125 C 244.332031 342.738281 246.316406 342.964844 248.328125 342.960938 C 262.820312 342.960938 274.578125 331.210938 274.578125 316.710938 C 274.582031 313.269531 273.929688 309.960938 272.628906 306.773438 C 265.925781 313.804688 256.128906 317.789062 246.425781 317.382812 Z M 246.425781 317.382812 " fill-opacity="1" fill-rule="nonzero"/></g><g clip-path="url(#7f9663314d)"><path fill="#ffffff" d="M 274.570312 404.730469 C 274.570312 405.589844 274.527344 406.449219 274.445312 407.304688 C 274.359375 408.160156 274.234375 409.007812 274.066406 409.851562 C 273.898438 410.695312 273.6875 411.527344 273.441406 412.347656 C 273.191406 413.171875 272.902344 413.980469 272.570312 414.773438 C 272.242188 415.570312 271.875 416.34375 271.46875 417.101562 C 271.066406 417.859375 270.625 418.597656 270.148438 419.3125 C 269.667969 420.027344 269.15625 420.714844 268.613281 421.382812 C 268.066406 422.046875 267.488281 422.679688 266.882812 423.289062 C 266.273438 423.898438 265.636719 424.472656 264.972656 425.019531 C 264.308594 425.566406 263.621094 426.074219 262.90625 426.554688 C 262.191406 427.03125 261.453125 427.472656 260.695312 427.878906 C 259.9375 428.28125 259.160156 428.648438 258.367188 428.980469 C 257.574219 429.308594 256.765625 429.597656 255.941406 429.847656 C 255.121094 430.097656 254.285156 430.304688 253.445312 430.472656 C 252.601562 430.640625 251.75 430.765625 250.894531 430.851562 C 250.039062 430.933594 249.183594 430.976562 248.324219 430.976562 C 247.464844 430.976562 246.605469 430.933594 245.75 430.851562 C 244.894531 430.765625 244.046875 430.640625 243.203125 430.472656 C 242.359375 430.304688 241.527344 430.097656 240.703125 429.847656 C 239.882812 429.597656 239.074219 429.308594 238.277344 428.980469 C 237.484375 428.648438 236.707031 428.28125 235.949219 427.878906 C 235.191406 427.472656 234.457031 427.03125 233.742188 426.554688 C 233.027344 426.074219 232.335938 425.566406 231.671875 425.019531 C 231.007812 424.472656 230.371094 423.898438 229.765625 423.289062 C 229.15625 422.679688 228.578125 422.046875 228.035156 421.382812 C 227.488281 420.714844 226.976562 420.027344 226.5 419.3125 C 226.023438 418.597656 225.582031 417.859375 225.175781 417.101562 C 224.769531 416.34375 224.402344 415.570312 224.074219 414.773438 C 223.746094 413.980469 223.457031 413.171875 223.207031 412.347656 C 222.957031 411.527344 222.75 410.695312 222.582031 409.851562 C 222.414062 409.007812 222.289062 408.160156 222.203125 407.304688 C 222.117188 406.449219 222.078125 405.589844 222.078125 404.730469 C 222.078125 403.871094 222.117188 403.011719 222.203125 402.15625 C 222.289062 401.300781 222.414062 400.453125 222.582031 399.609375 C 222.75 398.765625 222.957031 397.933594 223.207031 397.109375 C 223.457031 396.289062 223.746094 395.480469 224.074219 394.6875 C 224.402344 393.890625 224.769531 393.117188 225.175781 392.359375 C 225.582031 391.601562 226.023438 390.863281 226.5 390.148438 C 226.976562 389.433594 227.488281 388.742188 228.035156 388.078125 C 228.578125 387.414062 229.15625 386.777344 229.765625 386.171875 C 230.371094 385.5625 231.007812 384.988281 231.671875 384.441406 C 232.335938 383.894531 233.027344 383.382812 233.742188 382.90625 C 234.457031 382.429688 235.191406 381.988281 235.949219 381.582031 C 236.707031 381.175781 237.484375 380.8125 238.277344 380.480469 C 239.074219 380.152344 239.882812 379.863281 240.703125 379.613281 C 241.527344 379.363281 242.359375 379.15625 243.203125 378.988281 C 244.046875 378.820312 244.894531 378.695312 245.75 378.609375 C 246.605469 378.527344 247.464844 378.484375 248.324219 378.484375 C 249.183594 378.484375 250.039062 378.527344 250.894531 378.609375 C 251.75 378.695312 252.601562 378.820312 253.445312 378.988281 C 254.285156 379.15625 255.121094 379.363281 255.941406 379.613281 C 256.765625 379.863281 257.574219 380.152344 258.367188 380.480469 C 259.160156 380.8125 259.9375 381.175781 260.695312 381.582031 C 261.453125 381.988281 262.191406 382.429688 262.90625 382.90625 C 263.621094 383.382812 264.308594 383.894531 264.972656 384.441406 C 265.636719 384.988281 266.273438 385.5625 266.882812 386.171875 C 267.488281 386.777344 268.066406 387.414062 268.613281 388.078125 C 269.15625 388.742188 269.667969 389.433594 270.148438 390.148438 C 270.625 390.863281 271.066406 391.601562 271.46875 392.359375 C 271.875 393.117188 272.242188 393.890625 272.570312 394.6875 C 272.902344 395.480469 273.191406 396.289062 273.441406 397.109375 C 273.6875 397.933594 273.898438 398.765625 274.066406 399.609375 C 274.234375 400.453125 274.359375 401.300781 274.445312 402.15625 C 274.527344 403.011719 274.570312 403.871094 274.570312 404.730469 Z M 274.570312 404.730469 " fill-opacity="1" fill-rule="nonzero"/></g><g clip-path="url(#565eaefa06)"><path fill="#38b6ff" d="M 237.78125 396.742188 C 243.433594 398.585938 248.980469 401.394531 254.925781 401.28125 C 260.136719 401.179688 265.09375 398.789062 269.160156 395.535156 C 270.105469 394.78125 271.007812 393.980469 271.875 393.144531 C 271.335938 392.050781 270.726562 391 270.039062 389.988281 C 269.355469 388.980469 268.605469 388.023438 267.785156 387.117188 C 266.964844 386.214844 266.089844 385.371094 265.152344 384.589844 C 264.21875 383.808594 263.230469 383.09375 262.195312 382.449219 C 261.160156 381.804688 260.085938 381.234375 258.96875 380.742188 C 257.855469 380.246094 256.710938 379.832031 255.539062 379.496094 C 254.367188 379.160156 253.175781 378.90625 251.96875 378.738281 C 250.761719 378.570312 249.546875 378.484375 248.328125 378.484375 C 236.78125 378.484375 226.984375 385.933594 223.464844 396.285156 C 227.808594 394.480469 233.164062 395.234375 237.78125 396.742188 Z M 237.78125 396.742188 " fill-opacity="1" fill-rule="nonzero"/></g><g clip-path="url(#7090d33094)"><path fill="#38b6ff" d="M 246.425781 405.398438 C 241.589844 405.195312 236.339844 404.058594 232.210938 406.582031 C 228.46875 408.859375 226.859375 413.640625 227.148438 418.011719 C 227.210938 418.929688 227.335938 419.839844 227.527344 420.742188 C 228.75 422.335938 230.140625 423.769531 231.695312 425.042969 C 233.25 426.316406 234.929688 427.398438 236.734375 428.285156 C 238.535156 429.171875 240.417969 429.84375 242.375 430.296875 C 244.332031 430.753906 246.316406 430.980469 248.328125 430.976562 C 262.820312 430.976562 274.578125 419.226562 274.578125 404.726562 C 274.582031 401.285156 273.929688 397.976562 272.628906 394.789062 C 265.925781 401.820312 256.128906 405.804688 246.425781 405.398438 Z M 246.425781 405.398438 " fill-opacity="1" fill-rule="nonzero"/></g><g clip-path="url(#47e6ca5a3b)"><path fill="#ffffff" d="M 137.96875 143.222656 C 137.96875 144.082031 137.925781 144.9375 137.839844 145.792969 C 137.757812 146.648438 137.632812 147.5 137.464844 148.339844 C 137.296875 149.183594 137.085938 150.015625 136.835938 150.839844 C 136.589844 151.664062 136.300781 152.46875 135.96875 153.265625 C 135.640625 154.058594 135.273438 154.835938 134.867188 155.59375 C 134.464844 156.351562 134.023438 157.085938 133.542969 157.800781 C 133.066406 158.515625 132.554688 159.207031 132.011719 159.871094 C 131.464844 160.535156 130.886719 161.171875 130.28125 161.78125 C 129.671875 162.386719 129.035156 162.964844 128.371094 163.507812 C 127.707031 164.054688 127.019531 164.566406 126.304688 165.042969 C 125.589844 165.523438 124.851562 165.960938 124.09375 166.367188 C 123.335938 166.773438 122.558594 167.140625 121.765625 167.46875 C 120.972656 167.796875 120.164062 168.085938 119.339844 168.335938 C 118.519531 168.585938 117.683594 168.796875 116.839844 168.964844 C 116 169.128906 115.148438 169.257812 114.292969 169.339844 C 113.4375 169.425781 112.582031 169.46875 111.722656 169.46875 C 110.863281 169.46875 110.003906 169.425781 109.148438 169.339844 C 108.292969 169.257812 107.445312 169.128906 106.601562 168.964844 C 105.757812 168.796875 104.925781 168.585938 104.101562 168.335938 C 103.28125 168.085938 102.472656 167.796875 101.675781 167.46875 C 100.882812 167.140625 100.105469 166.773438 99.347656 166.367188 C 98.589844 165.964844 97.855469 165.523438 97.140625 165.042969 C 96.425781 164.566406 95.734375 164.054688 95.070312 163.507812 C 94.40625 162.964844 93.769531 162.386719 93.164062 161.78125 C 92.554688 161.171875 91.976562 160.535156 91.433594 159.871094 C 90.886719 159.207031 90.375 158.515625 89.898438 157.800781 C 89.421875 157.085938 88.980469 156.351562 88.574219 155.59375 C 88.167969 154.835938 87.800781 154.058594 87.472656 153.265625 C 87.144531 152.46875 86.855469 151.664062 86.605469 150.839844 C 86.355469 150.015625 86.148438 149.183594 85.980469 148.339844 C 85.8125 147.5 85.683594 146.648438 85.601562 145.792969 C 85.515625 144.9375 85.476562 144.082031 85.476562 143.222656 C 85.476562 142.359375 85.515625 141.503906 85.601562 140.648438 C 85.683594 139.792969 85.8125 138.941406 85.980469 138.101562 C 86.148438 137.257812 86.355469 136.425781 86.605469 135.601562 C 86.855469 134.777344 87.144531 133.972656 87.472656 133.175781 C 87.800781 132.382812 88.167969 131.605469 88.574219 130.847656 C 88.980469 130.089844 89.421875 129.355469 89.898438 128.640625 C 90.375 127.925781 90.886719 127.234375 91.433594 126.570312 C 91.976562 125.90625 92.554688 125.269531 93.164062 124.660156 C 93.769531 124.054688 94.40625 123.476562 95.070312 122.933594 C 95.734375 122.386719 96.425781 121.875 97.140625 121.398438 C 97.855469 120.917969 98.589844 120.480469 99.347656 120.074219 C 100.105469 119.667969 100.882812 119.300781 101.675781 118.972656 C 102.472656 118.644531 103.28125 118.355469 104.101562 118.105469 C 104.925781 117.855469 105.757812 117.644531 106.601562 117.476562 C 107.445312 117.3125 108.292969 117.183594 109.148438 117.101562 C 110.003906 117.015625 110.863281 116.972656 111.722656 116.972656 C 112.582031 116.972656 113.4375 117.015625 114.292969 117.101562 C 115.148438 117.183594 116 117.3125 116.839844 117.476562 C 117.683594 117.644531 118.519531 117.855469 119.339844 118.105469 C 120.164062 118.355469 120.972656 118.644531 121.765625 118.972656 C 122.558594 119.300781 123.335938 119.667969 124.09375 120.074219 C 124.851562 120.480469 125.589844 120.917969 126.304688 121.398438 C 127.019531 121.875 127.707031 122.386719 128.371094 122.933594 C 129.035156 123.476562 129.671875 124.054688 130.28125 124.660156 C 130.886719 125.269531 131.464844 125.90625 132.011719 126.570312 C 132.554688 127.234375 133.066406 127.925781 133.542969 128.640625 C 134.023438 129.355469 134.464844 130.089844 134.867188 130.847656 C 135.273438 131.605469 135.640625 132.382812 135.96875 133.175781 C 136.300781 133.972656 136.589844 134.777344 136.835938 135.601562 C 137.085938 136.425781 137.296875 137.257812 137.464844 138.101562 C 137.632812 138.941406 137.757812 139.792969 137.839844 140.648438 C 137.925781 141.503906 137.96875 142.359375 137.96875 143.222656 Z M 137.96875 143.222656 " fill-opacity="1" fill-rule="nonzero"/></g><g clip-path="url(#1642f2bef2)"><path fill="#38b6ff" d="M 101.179688 135.230469 C 106.832031 137.078125 112.378906 139.886719 118.324219 139.773438 C 123.535156 139.671875 128.492188 137.28125 132.558594 134.023438 C 133.503906 133.269531 134.402344 132.46875 135.273438 131.636719 C 134.734375 130.539062 134.125 129.488281 133.4375 128.480469 C 132.753906 127.46875 132 126.515625 131.183594 125.609375 C 130.363281 124.707031 129.488281 123.863281 128.550781 123.078125 C 127.617188 122.296875 126.628906 121.585938 125.59375 120.941406 C 124.558594 120.296875 123.484375 119.726562 122.367188 119.230469 C 121.253906 118.734375 120.109375 118.320312 118.9375 117.984375 C 117.765625 117.648438 116.574219 117.398438 115.367188 117.226562 C 114.160156 117.058594 112.945312 116.972656 111.726562 116.972656 C 100.179688 116.972656 90.378906 124.425781 86.863281 134.773438 C 91.207031 132.972656 96.5625 133.726562 101.179688 135.230469 Z M 101.179688 135.230469 " fill-opacity="1" fill-rule="nonzero"/></g><g clip-path="url(#d9846c7ecc)"><path fill="#38b6ff" d="M 109.824219 143.890625 C 104.988281 143.6875 99.738281 142.550781 95.609375 145.070312 C 91.867188 147.351562 90.253906 152.128906 90.546875 156.503906 C 90.609375 157.421875 90.734375 158.332031 90.925781 159.230469 C 92.148438 160.824219 93.539062 162.257812 95.09375 163.53125 C 96.648438 164.804688 98.328125 165.886719 100.128906 166.773438 C 101.933594 167.664062 103.816406 168.332031 105.773438 168.789062 C 107.730469 169.242188 109.714844 169.46875 111.726562 169.46875 C 126.21875 169.46875 137.976562 157.714844 137.976562 143.21875 C 137.976562 139.777344 137.328125 136.464844 136.027344 133.28125 C 129.324219 140.3125 119.527344 144.292969 109.824219 143.890625 Z M 109.824219 143.890625 " fill-opacity="1" fill-rule="nonzero"/></g><g clip-path="url(#3aa572dc36)"><path fill="#ffffff" d="M 137.96875 226.902344 C 137.96875 227.761719 137.925781 228.617188 137.839844 229.472656 C 137.757812 230.328125 137.632812 231.179688 137.464844 232.023438 C 137.296875 232.863281 137.085938 233.699219 136.835938 234.519531 C 136.589844 235.34375 136.300781 236.152344 135.96875 236.945312 C 135.640625 237.738281 135.273438 238.515625 134.867188 239.273438 C 134.464844 240.03125 134.023438 240.769531 133.542969 241.484375 C 133.066406 242.199219 132.554688 242.886719 132.011719 243.550781 C 131.464844 244.214844 130.886719 244.851562 130.28125 245.460938 C 129.671875 246.066406 129.035156 246.644531 128.371094 247.191406 C 127.707031 247.734375 127.019531 248.246094 126.304688 248.722656 C 125.589844 249.203125 124.851562 249.644531 124.09375 250.046875 C 123.335938 250.453125 122.558594 250.820312 121.765625 251.148438 C 120.972656 251.480469 120.164062 251.769531 119.339844 252.019531 C 118.519531 252.265625 117.683594 252.476562 116.839844 252.644531 C 116 252.8125 115.148438 252.9375 114.292969 253.019531 C 113.4375 253.105469 112.582031 253.148438 111.722656 253.148438 C 110.863281 253.148438 110.003906 253.105469 109.148438 253.019531 C 108.292969 252.9375 107.445312 252.8125 106.601562 252.644531 C 105.757812 252.476562 104.925781 252.265625 104.101562 252.019531 C 103.28125 251.769531 102.472656 251.480469 101.675781 251.148438 C 100.882812 250.820312 100.105469 250.453125 99.347656 250.046875 C 98.589844 249.644531 97.855469 249.203125 97.140625 248.722656 C 96.425781 248.246094 95.734375 247.734375 95.070312 247.191406 C 94.40625 246.644531 93.769531 246.066406 93.164062 245.460938 C 92.554688 244.851562 91.976562 244.214844 91.433594 243.550781 C 90.886719 242.886719 90.375 242.199219 89.898438 241.484375 C 89.421875 240.769531 88.980469 240.03125 88.574219 239.273438 C 88.167969 238.515625 87.800781 237.738281 87.472656 236.945312 C 87.144531 236.152344 86.855469 235.34375 86.605469 234.519531 C 86.355469 233.699219 86.148438 232.863281 85.980469 232.023438 C 85.8125 231.179688 85.683594 230.328125 85.601562 229.472656 C 85.515625 228.617188 85.476562 227.761719 85.476562 226.902344 C 85.476562 226.042969 85.515625 225.183594 85.601562 224.328125 C 85.683594 223.472656 85.8125 222.625 85.980469 221.78125 C 86.148438 220.9375 86.355469 220.105469 86.605469 219.28125 C 86.855469 218.460938 87.144531 217.652344 87.472656 216.855469 C 87.800781 216.0625 88.167969 215.285156 88.574219 214.527344 C 88.980469 213.769531 89.421875 213.035156 89.898438 212.320312 C 90.375 211.605469 90.886719 210.914062 91.433594 210.25 C 91.976562 209.585938 92.554688 208.949219 93.164062 208.34375 C 93.769531 207.734375 94.40625 207.15625 95.070312 206.613281 C 95.734375 206.066406 96.425781 205.554688 97.140625 205.078125 C 97.855469 204.601562 98.589844 204.160156 99.347656 203.753906 C 100.105469 203.347656 100.882812 202.980469 101.675781 202.652344 C 102.472656 202.324219 103.28125 202.035156 104.101562 201.785156 C 104.925781 201.535156 105.757812 201.328125 106.601562 201.160156 C 107.445312 200.992188 108.292969 200.867188 109.148438 200.78125 C 110.003906 200.695312 110.863281 200.65625 111.722656 200.65625 C 112.582031 200.65625 113.4375 200.695312 114.292969 200.78125 C 115.148438 200.867188 116 200.992188 116.839844 201.160156 C 117.683594 201.328125 118.519531 201.535156 119.339844 201.785156 C 120.164062 202.035156 120.972656 202.324219 121.765625 202.652344 C 122.558594 202.980469 123.335938 203.347656 124.09375 203.753906 C 124.851562 204.160156 125.589844 204.601562 126.304688 205.078125 C 127.019531 205.554688 127.707031 206.066406 128.371094 206.613281 C 129.035156 207.15625 129.671875 207.734375 130.28125 208.34375 C 130.886719 208.949219 131.464844 209.585938 132.011719 210.25 C 132.554688 210.914062 133.066406 211.605469 133.542969 212.320312 C 134.023438 213.035156 134.464844 213.769531 134.867188 214.527344 C 135.273438 215.285156 135.640625 216.0625 135.96875 216.855469 C 136.300781 217.652344 136.589844 218.460938 136.835938 219.28125 C 137.085938 220.105469 137.296875 220.9375 137.464844 221.78125 C 137.632812 222.625 137.757812 223.472656 137.839844 224.328125 C 137.925781 225.183594 137.96875 226.042969 137.96875 226.902344 Z M 137.96875 226.902344 " fill-opacity="1" fill-rule="nonzero"/></g><g clip-path="url(#241cb4b5e1)"><path fill="#38b6ff" d="M 101.179688 218.914062 C 106.832031 220.757812 112.378906 223.566406 118.324219 223.453125 C 123.535156 223.351562 128.492188 220.960938 132.558594 217.707031 C 133.503906 216.953125 134.402344 216.148438 135.273438 215.316406 C 134.734375 214.222656 134.125 213.167969 133.4375 212.160156 C 132.753906 211.152344 132 210.195312 131.183594 209.289062 C 130.363281 208.386719 129.488281 207.542969 128.550781 206.761719 C 127.617188 205.976562 126.628906 205.265625 125.59375 204.621094 C 124.558594 203.976562 123.484375 203.40625 122.367188 202.910156 C 121.253906 202.417969 120.109375 202 118.9375 201.667969 C 117.765625 201.332031 116.574219 201.078125 115.367188 200.910156 C 114.160156 200.738281 112.945312 200.65625 111.726562 200.65625 C 100.179688 200.65625 90.378906 208.105469 86.863281 218.453125 C 91.207031 216.652344 96.5625 217.40625 101.179688 218.914062 Z M 101.179688 218.914062 " fill-opacity="1" fill-rule="nonzero"/></g><g clip-path="url(#68958b68ea)"><path fill="#38b6ff" d="M 109.824219 227.570312 C 104.988281 227.367188 99.738281 226.230469 95.609375 228.75 C 91.867188 231.03125 90.253906 235.8125 90.546875 240.183594 C 90.609375 241.101562 90.734375 242.011719 90.925781 242.910156 C 92.148438 244.503906 93.539062 245.9375 95.09375 247.214844 C 96.648438 248.488281 98.328125 249.566406 100.128906 250.457031 C 101.933594 251.34375 103.816406 252.015625 105.773438 252.46875 C 107.730469 252.921875 109.714844 253.148438 111.726562 253.148438 C 126.21875 253.148438 137.976562 241.394531 137.976562 226.898438 C 137.976562 223.457031 137.328125 220.144531 136.027344 216.960938 C 129.324219 223.992188 119.527344 227.976562 109.824219 227.570312 Z M 109.824219 227.570312 " fill-opacity="1" fill-rule="nonzero"/></g><g clip-path="url(#ef8772bdb3)"><path fill="#ffffff" d="M 137.96875 316.714844 C 137.96875 317.574219 137.925781 318.433594 137.839844 319.289062 C 137.757812 320.144531 137.632812 320.992188 137.464844 321.835938 C 137.296875 322.679688 137.085938 323.511719 136.835938 324.332031 C 136.589844 325.15625 136.300781 325.964844 135.96875 326.757812 C 135.640625 327.554688 135.273438 328.328125 134.867188 329.085938 C 134.464844 329.84375 134.023438 330.582031 133.542969 331.296875 C 133.066406 332.011719 132.554688 332.699219 132.011719 333.367188 C 131.464844 334.03125 130.886719 334.664062 130.28125 335.273438 C 129.671875 335.882812 129.035156 336.457031 128.371094 337.003906 C 127.707031 337.546875 127.019531 338.058594 126.304688 338.539062 C 125.589844 339.015625 124.851562 339.457031 124.09375 339.863281 C 123.335938 340.265625 122.558594 340.632812 121.765625 340.964844 C 120.972656 341.292969 120.164062 341.582031 119.339844 341.832031 C 118.519531 342.082031 117.683594 342.289062 116.839844 342.457031 C 116 342.625 115.148438 342.75 114.292969 342.835938 C 113.4375 342.917969 112.582031 342.960938 111.722656 342.960938 C 110.863281 342.960938 110.003906 342.917969 109.148438 342.835938 C 108.292969 342.75 107.445312 342.625 106.601562 342.457031 C 105.757812 342.289062 104.925781 342.082031 104.101562 341.832031 C 103.28125 341.582031 102.472656 341.292969 101.675781 340.964844 C 100.882812 340.632812 100.105469 340.265625 99.347656 339.863281 C 98.589844 339.457031 97.855469 339.015625 97.140625 338.539062 C 96.425781 338.058594 95.734375 337.546875 95.070312 337.003906 C 94.40625 336.457031 93.769531 335.882812 93.164062 335.273438 C 92.554688 334.664062 91.976562 334.03125 91.433594 333.367188 C 90.886719 332.699219 90.375 332.011719 89.898438 331.296875 C 89.421875 330.582031 88.980469 329.84375 88.574219 329.085938 C 88.167969 328.328125 87.800781 327.554688 87.472656 326.757812 C 87.144531 325.964844 86.855469 325.15625 86.605469 324.332031 C 86.355469 323.511719 86.148438 322.679688 85.980469 321.835938 C 85.8125 320.992188 85.683594 320.144531 85.601562 319.289062 C 85.515625 318.433594 85.476562 317.574219 85.476562 316.714844 C 85.476562 315.855469 85.515625 314.996094 85.601562 314.140625 C 85.683594 313.285156 85.8125 312.4375 85.980469 311.59375 C 86.148438 310.75 86.355469 309.917969 86.605469 309.09375 C 86.855469 308.273438 87.144531 307.464844 87.472656 306.671875 C 87.800781 305.875 88.167969 305.101562 88.574219 304.34375 C 88.980469 303.582031 89.421875 302.847656 89.898438 302.132812 C 90.375 301.417969 90.886719 300.726562 91.433594 300.0625 C 91.976562 299.398438 92.554688 298.761719 93.164062 298.15625 C 93.769531 297.546875 94.40625 296.972656 95.070312 296.425781 C 95.734375 295.878906 96.425781 295.367188 97.140625 294.890625 C 97.855469 294.414062 98.589844 293.972656 99.347656 293.566406 C 100.105469 293.160156 100.882812 292.792969 101.675781 292.464844 C 102.472656 292.136719 103.28125 291.847656 104.101562 291.597656 C 104.925781 291.347656 105.757812 291.140625 106.601562 290.972656 C 107.445312 290.804688 108.292969 290.679688 109.148438 290.59375 C 110.003906 290.511719 110.863281 290.46875 111.722656 290.46875 C 112.582031 290.46875 113.4375 290.511719 114.292969 290.59375 C 115.148438 290.679688 116 290.804688 116.839844 290.972656 C 117.683594 291.140625 118.519531 291.347656 119.339844 291.597656 C 120.164062 291.847656 120.972656 292.136719 121.765625 292.464844 C 122.558594 292.792969 123.335938 293.160156 124.09375 293.566406 C 124.851562 293.972656 125.589844 294.414062 126.304688 294.890625 C 127.019531 295.367188 127.707031 295.878906 128.371094 296.425781 C 129.035156 296.972656 129.671875 297.546875 130.28125 298.15625 C 130.886719 298.761719 131.464844 299.398438 132.011719 300.0625 C 132.554688 300.726562 133.066406 301.417969 133.542969 302.132812 C 134.023438 302.847656 134.464844 303.582031 134.867188 304.34375 C 135.273438 305.101562 135.640625 305.875 135.96875 306.671875 C 136.300781 307.464844 136.589844 308.273438 136.835938 309.09375 C 137.085938 309.917969 137.296875 310.75 137.464844 311.59375 C 137.632812 312.4375 137.757812 313.285156 137.839844 314.140625 C 137.925781 314.996094 137.96875 315.855469 137.96875 316.714844 Z M 137.96875 316.714844 " fill-opacity="1" fill-rule="nonzero"/></g><g clip-path="url(#2cd1c82a39)"><path fill="#38b6ff" d="M 101.179688 308.726562 C 106.832031 310.570312 112.378906 313.378906 118.324219 313.265625 C 123.535156 313.164062 128.492188 310.773438 132.558594 307.519531 C 133.503906 306.765625 134.402344 305.964844 135.273438 305.128906 C 134.734375 304.035156 134.125 302.984375 133.4375 301.972656 C 132.753906 300.964844 132 300.007812 131.183594 299.101562 C 130.363281 298.199219 129.488281 297.355469 128.550781 296.574219 C 127.617188 295.792969 126.628906 295.078125 125.59375 294.433594 C 124.558594 293.789062 123.484375 293.21875 122.367188 292.726562 C 121.253906 292.230469 120.109375 291.816406 118.9375 291.480469 C 117.765625 291.144531 116.574219 290.890625 115.367188 290.722656 C 114.160156 290.554688 112.945312 290.46875 111.726562 290.46875 C 100.179688 290.46875 90.378906 297.917969 86.863281 308.269531 C 91.207031 306.464844 96.5625 307.21875 101.179688 308.726562 Z M 101.179688 308.726562 " fill-opacity="1" fill-rule="nonzero"/></g><g clip-path="url(#0c695fe02d)"><path fill="#38b6ff" d="M 109.824219 317.382812 C 104.988281 317.179688 99.738281 316.042969 95.609375 318.566406 C 91.867188 320.84375 90.253906 325.625 90.546875 329.996094 C 90.609375 330.914062 90.734375 331.824219 90.925781 332.726562 C 92.148438 334.320312 93.539062 335.753906 95.09375 337.027344 C 96.648438 338.300781 98.328125 339.382812 100.128906 340.269531 C 101.933594 341.15625 103.816406 341.828125 105.773438 342.28125 C 107.730469 342.738281 109.714844 342.964844 111.726562 342.960938 C 126.21875 342.960938 137.976562 331.210938 137.976562 316.710938 C 137.976562 313.269531 137.328125 309.960938 136.027344 306.773438 C 129.324219 313.804688 119.527344 317.789062 109.824219 317.382812 Z M 109.824219 317.382812 " fill-opacity="1" fill-rule="nonzero"/></g><g clip-path="url(#a141d4a8cf)"><path fill="#ffffff" d="M 137.96875 404.730469 C 137.96875 405.589844 137.925781 406.449219 137.839844 407.304688 C 137.757812 408.160156 137.632812 409.007812 137.464844 409.851562 C 137.296875 410.695312 137.085938 411.527344 136.835938 412.347656 C 136.589844 413.171875 136.300781 413.980469 135.96875 414.773438 C 135.640625 415.570312 135.273438 416.34375 134.867188 417.101562 C 134.464844 417.859375 134.023438 418.597656 133.542969 419.3125 C 133.066406 420.027344 132.554688 420.714844 132.011719 421.382812 C 131.464844 422.046875 130.886719 422.679688 130.28125 423.289062 C 129.671875 423.898438 129.035156 424.472656 128.371094 425.019531 C 127.707031 425.566406 127.019531 426.074219 126.304688 426.554688 C 125.589844 427.03125 124.851562 427.472656 124.09375 427.878906 C 123.335938 428.28125 122.558594 428.648438 121.765625 428.980469 C 120.972656 429.308594 120.164062 429.597656 119.339844 429.847656 C 118.519531 430.097656 117.683594 430.304688 116.839844 430.472656 C 116 430.640625 115.148438 430.765625 114.292969 430.851562 C 113.4375 430.933594 112.582031 430.976562 111.722656 430.976562 C 110.863281 430.976562 110.003906 430.933594 109.148438 430.851562 C 108.292969 430.765625 107.445312 430.640625 106.601562 430.472656 C 105.757812 430.304688 104.925781 430.097656 104.101562 429.847656 C 103.28125 429.597656 102.472656 429.308594 101.675781 428.980469 C 100.882812 428.648438 100.105469 428.28125 99.347656 427.878906 C 98.589844 427.472656 97.855469 427.03125 97.140625 426.554688 C 96.425781 426.074219 95.734375 425.566406 95.070312 425.019531 C 94.40625 424.472656 93.769531 423.898438 93.164062 423.289062 C 92.554688 422.679688 91.976562 422.046875 91.433594 421.382812 C 90.886719 420.714844 90.375 420.027344 89.898438 419.3125 C 89.421875 418.597656 88.980469 417.859375 88.574219 417.101562 C 88.167969 416.34375 87.800781 415.570312 87.472656 414.773438 C 87.144531 413.980469 86.855469 413.171875 86.605469 412.347656 C 86.355469 411.527344 86.148438 410.695312 85.980469 409.851562 C 85.8125 409.007812 85.683594 408.160156 85.601562 407.304688 C 85.515625 406.449219 85.476562 405.589844 85.476562 404.730469 C 85.476562 403.871094 85.515625 403.011719 85.601562 402.15625 C 85.683594 401.300781 85.8125 400.453125 85.980469 399.609375 C 86.148438 398.765625 86.355469 397.933594 86.605469 397.109375 C 86.855469 396.289062 87.144531 395.480469 87.472656 394.6875 C 87.800781 393.890625 88.167969 393.117188 88.574219 392.359375 C 88.980469 391.601562 89.421875 390.863281 89.898438 390.148438 C 90.375 389.433594 90.886719 388.742188 91.433594 388.078125 C 91.976562 387.414062 92.554688 386.777344 93.164062 386.171875 C 93.769531 385.5625 94.40625 384.988281 95.070312 384.441406 C 95.734375 383.894531 96.425781 383.382812 97.140625 382.90625 C 97.855469 382.429688 98.589844 381.988281 99.347656 381.582031 C 100.105469 381.175781 100.882812 380.8125 101.675781 380.480469 C 102.472656 380.152344 103.28125 379.863281 104.101562 379.613281 C 104.925781 379.363281 105.757812 379.15625 106.601562 378.988281 C 107.445312 378.820312 108.292969 378.695312 109.148438 378.609375 C 110.003906 378.527344 110.863281 378.484375 111.722656 378.484375 C 112.582031 378.484375 113.4375 378.527344 114.292969 378.609375 C 115.148438 378.695312 116 378.820312 116.839844 378.988281 C 117.683594 379.15625 118.519531 379.363281 119.339844 379.613281 C 120.164062 379.863281 120.972656 380.152344 121.765625 380.480469 C 122.558594 380.8125 123.335938 381.175781 124.09375 381.582031 C 124.851562 381.988281 125.589844 382.429688 126.304688 382.90625 C 127.019531 383.382812 127.707031 383.894531 128.371094 384.441406 C 129.035156 384.988281 129.671875 385.5625 130.28125 386.171875 C 130.886719 386.777344 131.464844 387.414062 132.011719 388.078125 C 132.554688 388.742188 133.066406 389.433594 133.542969 390.148438 C 134.023438 390.863281 134.464844 391.601562 134.867188 392.359375 C 135.273438 393.117188 135.640625 393.890625 135.96875 394.6875 C 136.300781 395.480469 136.589844 396.289062 136.835938 397.109375 C 137.085938 397.933594 137.296875 398.765625 137.464844 399.609375 C 137.632812 400.453125 137.757812 401.300781 137.839844 402.15625 C 137.925781 403.011719 137.96875 403.871094 137.96875 404.730469 Z M 137.96875 404.730469 " fill-opacity="1" fill-rule="nonzero"/></g><g clip-path="url(#254ff50edc)"><path fill="#38b6ff" d="M 101.179688 396.742188 C 106.832031 398.585938 112.378906 401.394531 118.324219 401.28125 C 123.535156 401.179688 128.492188 398.789062 132.558594 395.535156 C 133.503906 394.78125 134.402344 393.980469 135.273438 393.144531 C 134.734375 392.050781 134.125 391 133.4375 389.988281 C 132.753906 388.980469 132 388.023438 131.183594 387.117188 C 130.363281 386.214844 129.488281 385.371094 128.550781 384.589844 C 127.617188 383.808594 126.628906 383.09375 125.59375 382.449219 C 124.558594 381.804688 123.484375 381.234375 122.367188 380.742188 C 121.253906 380.246094 120.109375 379.832031 118.9375 379.496094 C 117.765625 379.160156 116.574219 378.90625 115.367188 378.738281 C 114.160156 378.570312 112.945312 378.484375 111.726562 378.484375 C 100.179688 378.484375 90.378906 385.933594 86.863281 396.285156 C 91.207031 394.480469 96.5625 395.234375 101.179688 396.742188 Z M 101.179688 396.742188 " fill-opacity="1" fill-rule="nonzero"/></g><g clip-path="url(#d545a9b3bd)"><path fill="#38b6ff" d="M 109.824219 405.398438 C 104.988281 405.195312 99.738281 404.058594 95.609375 406.582031 C 91.867188 408.859375 90.253906 413.640625 90.546875 418.011719 C 90.609375 418.929688 90.734375 419.839844 90.925781 420.742188 C 92.148438 422.335938 93.539062 423.769531 95.09375 425.042969 C 96.648438 426.316406 98.328125 427.398438 100.128906 428.285156 C 101.933594 429.171875 103.816406 429.84375 105.773438 430.296875 C 107.730469 430.753906 109.714844 430.980469 111.726562 430.976562 C 126.21875 430.976562 137.976562 419.226562 137.976562 404.726562 C 137.976562 401.285156 137.328125 397.976562 136.027344 394.789062 C 129.324219 401.820312 119.527344 405.804688 109.824219 405.398438 Z M 109.824219 405.398438 " fill-opacity="1" fill-rule="nonzero"/></g></svg>