<svg xmlns="http://www.w3.org/2000/svg" xmlns:xlink="http://www.w3.org/1999/xlink" width="480" zoomAndPan="magnify" viewBox="0 0 360 503.999982" height="672" preserveAspectRatio="xMidYMid meet" version="1.0"><defs><filter x="0%" y="0%" width="100%" height="100%" id="531c8484e5"><feColorMatrix values="0 0 0 0 1 0 0 0 0 1 0 0 0 0 1 0 0 0 1 0" color-interpolation-filters="sRGB"/></filter><mask id="72c9697069"><g filter="url(#531c8484e5)"><rect x="-36" width="432" fill="#000000" y="-50.399998" height="604.799979" fill-opacity="0.1373"/></g></mask><clipPath id="d8c0a1d741"><path d="M 0 0 L 1 0 L 1 432.847656 L 0 432.847656 Z M 0 0 " clip-rule="nonzero"/></clipPath><clipPath id="d13b77ace0"><path d="M 0 0 L 18 0 L 18 432.847656 L 0 432.847656 Z M 0 0 " clip-rule="nonzero"/></clipPath><clipPath id="3c74f0cfa0"><path d="M 0 0 L 35 0 L 35 432.847656 L 0 432.847656 Z M 0 0 " clip-rule="nonzero"/></clipPath><clipPath id="e74a1b9df3"><path d="M 0 0 L 53 0 L 53 432.847656 L 0 432.847656 Z M 0 0 " clip-rule="nonzero"/></clipPath><clipPath id="4f5dea49f8"><path d="M 0 0 L 70 0 L 70 432.847656 L 0 432.847656 Z M 0 0 " clip-rule="nonzero"/></clipPath><clipPath id="76e23f9e47"><path d="M 0 0 L 88 0 L 88 432.847656 L 0 432.847656 Z M 0 0 " clip-rule="nonzero"/></clipPath><clipPath id="e5d1756ede"><path d="M 0 0 L 105 0 L 105 432.847656 L 0 432.847656 Z M 0 0 " clip-rule="nonzero"/></clipPath><clipPath id="ba4446687c"><path d="M 0 0 L 122 0 L 122 432.847656 L 0 432.847656 Z M 0 0 " clip-rule="nonzero"/></clipPath><clipPath id="375ed7775f"><path d="M 0 0 L 140 0 L 140 432.847656 L 0 432.847656 Z M 0 0 " clip-rule="nonzero"/></clipPath><clipPath id="caee9b4b84"><path d="M 0 0 L 157 0 L 157 432.847656 L 0 432.847656 Z M 0 0 " clip-rule="nonzero"/></clipPath><clipPath id="4f4b8801be"><path d="M 0 0 L 175 0 L 175 432.847656 L 0 432.847656 Z M 0 0 " clip-rule="nonzero"/></clipPath><clipPath id="e68b758c62"><path d="M 0 0 L 192 0 L 192 432.847656 L 0 432.847656 Z M 0 0 " clip-rule="nonzero"/></clipPath><clipPath id="2185d89e1b"><path d="M 0 0 L 208.722656 0 L 208.722656 432.847656 L 0 432.847656 Z M 0 0 " clip-rule="nonzero"/></clipPath><clipPath id="0ffee7e7bc"><rect x="0" width="209" y="0" height="434"/></clipPath><mask id="075f61e816"><g filter="url(#531c8484e5)"><rect x="-36" width="432" fill="#000000" y="-50.399998" height="604.799979" fill-opacity="0.1373"/></g></mask><clipPath id="bd870f2bf9"><path d="M 0 0.203125 L 197 0.203125 L 197 498 L 0 498 Z M 0 0.203125 " clip-rule="nonzero"/></clipPath><clipPath id="48d0c114c8"><path d="M 0 0.203125 L 214 0.203125 L 214 498 L 0 498 Z M 0 0.203125 " clip-rule="nonzero"/></clipPath><clipPath id="1d853e794b"><path d="M 12 0.203125 L 232 0.203125 L 232 498 L 12 498 Z M 12 0.203125 " clip-rule="nonzero"/></clipPath><clipPath id="be7e6ab581"><path d="M 29 0.203125 L 249 0.203125 L 249 498 L 29 498 Z M 29 0.203125 " clip-rule="nonzero"/></clipPath><clipPath id="6da9b97bff"><path d="M 47 0.203125 L 267 0.203125 L 267 498 L 47 498 Z M 47 0.203125 " clip-rule="nonzero"/></clipPath><clipPath id="ff99cc151d"><path d="M 64 0.203125 L 284 0.203125 L 284 498 L 64 498 Z M 64 0.203125 " clip-rule="nonzero"/></clipPath><clipPath id="9a0d23dd55"><path d="M 81 0.203125 L 301 0.203125 L 301 498 L 81 498 Z M 81 0.203125 " clip-rule="nonzero"/></clipPath><clipPath id="51c07d3e99"><path d="M 99 0.203125 L 319 0.203125 L 319 498 L 99 498 Z M 99 0.203125 " clip-rule="nonzero"/></clipPath><clipPath id="1b26367cf4"><path d="M 116 0.203125 L 336 0.203125 L 336 498 L 116 498 Z M 116 0.203125 " clip-rule="nonzero"/></clipPath><clipPath id="5c893c53e0"><path d="M 134 0.203125 L 354 0.203125 L 354 498 L 134 498 Z M 134 0.203125 " clip-rule="nonzero"/></clipPath><clipPath id="a4c5039e0d"><path d="M 151 0.203125 L 360 0.203125 L 360 498 L 151 498 Z M 151 0.203125 " clip-rule="nonzero"/></clipPath><clipPath id="409e8326b3"><path d="M 168 0.203125 L 360 0.203125 L 360 498 L 168 498 Z M 168 0.203125 " clip-rule="nonzero"/></clipPath><clipPath id="f5690d0f24"><path d="M 186 0.203125 L 360 0.203125 L 360 498 L 186 498 Z M 186 0.203125 " clip-rule="nonzero"/></clipPath><clipPath id="492631476f"><path d="M 203 0.203125 L 360 0.203125 L 360 498 L 203 498 Z M 203 0.203125 " clip-rule="nonzero"/></clipPath><clipPath id="5c655bcd98"><path d="M 221 0.203125 L 360 0.203125 L 360 498 L 221 498 Z M 221 0.203125 " clip-rule="nonzero"/></clipPath><clipPath id="05ee526bbf"><rect x="0" width="360" y="0" height="498"/></clipPath><mask id="2a45d8f94e"><g filter="url(#531c8484e5)"><rect x="-36" width="432" fill="#000000" y="-50.399998" height="604.799979" fill-opacity="0.1373"/></g></mask><clipPath id="8308d8352e"><path d="M 0.222656 1 L 122 1 L 122 501.648438 L 0.222656 501.648438 Z M 0.222656 1 " clip-rule="nonzero"/></clipPath><clipPath id="41d66023bf"><path d="M 17 1 L 122 1 L 122 501.648438 L 17 501.648438 Z M 17 1 " clip-rule="nonzero"/></clipPath><clipPath id="696b666e6c"><path d="M 35 1 L 122 1 L 122 501.648438 L 35 501.648438 Z M 35 1 " clip-rule="nonzero"/></clipPath><clipPath id="da2df976a3"><path d="M 52 1 L 122 1 L 122 501.648438 L 52 501.648438 Z M 52 1 " clip-rule="nonzero"/></clipPath><clipPath id="c489646978"><path d="M 70 1 L 122 1 L 122 501.648438 L 70 501.648438 Z M 70 1 " clip-rule="nonzero"/></clipPath><clipPath id="c7edf8ec18"><path d="M 87 1 L 122 1 L 122 501.648438 L 87 501.648438 Z M 87 1 " clip-rule="nonzero"/></clipPath><clipPath id="c54d3795dd"><path d="M 104 1 L 122 1 L 122 501.648438 L 104 501.648438 Z M 104 1 " clip-rule="nonzero"/></clipPath><clipPath id="cf975e82b2"><rect x="0" width="122" y="0" height="502"/></clipPath><clipPath id="bdbd0bdcad"><path d="M 28.015625 36 L 331.765625 36 L 331.765625 468 L 28.015625 468 Z M 28.015625 36 " clip-rule="nonzero"/></clipPath><clipPath id="de7e2d1c5c"><path d="M 243.585938 435 L 291.449219 435 L 291.449219 440.121094 L 243.585938 440.121094 Z M 243.585938 435 " clip-rule="nonzero"/></clipPath><clipPath id="a550d1737f"><path d="M 229.40625 396.4375 L 307.40625 396.4375 L 307.40625 436 L 229.40625 436 Z M 229.40625 396.4375 " clip-rule="nonzero"/></clipPath><clipPath id="b48a4cb816"><path d="M 121.628906 198.507812 L 238.628906 198.507812 L 238.628906 315.507812 L 121.628906 315.507812 Z M 121.628906 198.507812 " clip-rule="nonzero"/></clipPath><clipPath id="bdad283d35"><path d="M 124 198.507812 L 233 198.507812 L 233 250 L 124 250 Z M 124 198.507812 " clip-rule="nonzero"/></clipPath><clipPath id="00b0820454"><path d="M 132 234 L 238.628906 234 L 238.628906 315.507812 L 132 315.507812 Z M 132 234 " clip-rule="nonzero"/></clipPath></defs><rect x="-36" width="432" fill="#ffffff" y="-50.399998" height="604.799979" fill-opacity="1"/><rect x="-36" width="432" fill="#323232" y="-50.399998" height="604.799979" fill-opacity="1"/><g mask="url(#72c9697069)"><g transform="matrix(1, 0, 0, 1, 0, 0)"><g clip-path="url(#0ffee7e7bc)"><g clip-path="url(#d8c0a1d741)"><path fill="#000000" d="M -217.589844 432.296875 L -219.066406 431.664062 L -1.417969 -67.574219 L 0.0507812 -66.9375 Z M -217.589844 432.296875 " fill-opacity="1" fill-rule="nonzero"/></g><g clip-path="url(#d13b77ace0)"><path fill="#000000" d="M -200.175781 432.296875 L -201.652344 431.664062 L 15.992188 -67.574219 L 17.460938 -66.9375 Z M -200.175781 432.296875 " fill-opacity="1" fill-rule="nonzero"/></g><g clip-path="url(#3c74f0cfa0)"><path fill="#000000" d="M -182.765625 432.296875 L -184.242188 431.664062 L 33.40625 -67.574219 L 34.875 -66.9375 Z M -182.765625 432.296875 " fill-opacity="1" fill-rule="nonzero"/></g><g clip-path="url(#e74a1b9df3)"><path fill="#000000" d="M -165.359375 432.296875 L -166.828125 431.664062 L 50.816406 -67.574219 L 52.289062 -66.9375 Z M -165.359375 432.296875 " fill-opacity="1" fill-rule="nonzero"/></g><g clip-path="url(#4f5dea49f8)"><path fill="#000000" d="M -147.945312 432.296875 L -149.421875 431.664062 L 68.222656 -67.574219 L 69.699219 -66.9375 Z M -147.945312 432.296875 " fill-opacity="1" fill-rule="nonzero"/></g><g clip-path="url(#76e23f9e47)"><path fill="#000000" d="M -130.535156 432.296875 L -132.011719 431.664062 L 85.636719 -67.574219 L 87.113281 -66.9375 Z M -130.535156 432.296875 " fill-opacity="1" fill-rule="nonzero"/></g><g clip-path="url(#e5d1756ede)"><path fill="#000000" d="M -113.121094 432.296875 L -114.597656 431.664062 L 103.050781 -67.574219 L 104.523438 -66.9375 Z M -113.121094 432.296875 " fill-opacity="1" fill-rule="nonzero"/></g><g clip-path="url(#ba4446687c)"><path fill="#000000" d="M -95.707031 432.296875 L -97.183594 431.664062 L 120.460938 -67.574219 L 121.929688 -66.9375 Z M -95.707031 432.296875 " fill-opacity="1" fill-rule="nonzero"/></g><g clip-path="url(#375ed7775f)"><path fill="#000000" d="M -78.304688 432.296875 L -79.773438 431.664062 L 137.875 -67.574219 L 139.34375 -66.9375 Z M -78.304688 432.296875 " fill-opacity="1" fill-rule="nonzero"/></g><g clip-path="url(#caee9b4b84)"><path fill="#000000" d="M -60.890625 432.296875 L -62.359375 431.664062 L 155.28125 -67.574219 L 156.757812 -66.9375 Z M -60.890625 432.296875 " fill-opacity="1" fill-rule="nonzero"/></g><g clip-path="url(#4f4b8801be)"><path fill="#000000" d="M -43.476562 432.296875 L -44.949219 431.664062 L 172.691406 -67.574219 L 174.167969 -66.9375 Z M -43.476562 432.296875 " fill-opacity="1" fill-rule="nonzero"/></g><g clip-path="url(#e68b758c62)"><path fill="#000000" d="M -26.066406 432.296875 L -27.535156 431.664062 L 190.105469 -67.574219 L 191.582031 -66.9375 Z M -26.066406 432.296875 " fill-opacity="1" fill-rule="nonzero"/></g><g clip-path="url(#2185d89e1b)"><path fill="#000000" d="M -8.652344 432.296875 L -10.128906 431.664062 L 207.515625 -67.574219 L 208.992188 -66.9375 Z M -8.652344 432.296875 " fill-opacity="1" fill-rule="nonzero"/></g></g></g></g><g mask="url(#075f61e816)"><g transform="matrix(1, 0, 0, 1, 0, 6)"><g clip-path="url(#05ee526bbf)"><g clip-path="url(#bd870f2bf9)"><path fill="#000000" d="M -21.167969 500.652344 L -22.636719 500.015625 L 195.003906 0.78125 L 196.480469 1.414062 Z M -21.167969 500.652344 " fill-opacity="1" fill-rule="nonzero"/></g><g clip-path="url(#48d0c114c8)"><path fill="#000000" d="M -3.753906 500.652344 L -5.230469 500.015625 L 212.414062 0.78125 L 213.890625 1.414062 Z M -3.753906 500.652344 " fill-opacity="1" fill-rule="nonzero"/></g><g clip-path="url(#1d853e794b)"><path fill="#000000" d="M 13.65625 500.652344 L 12.183594 500.015625 L 229.828125 0.78125 L 231.296875 1.414062 Z M 13.65625 500.652344 " fill-opacity="1" fill-rule="nonzero"/></g><g clip-path="url(#be7e6ab581)"><path fill="#000000" d="M 31.070312 500.652344 L 29.59375 500.015625 L 247.242188 0.78125 L 248.710938 1.414062 Z M 31.070312 500.652344 " fill-opacity="1" fill-rule="nonzero"/></g><g clip-path="url(#6da9b97bff)"><path fill="#000000" d="M 48.484375 500.652344 L 47.007812 500.015625 L 264.652344 0.78125 L 266.125 1.414062 Z M 48.484375 500.652344 " fill-opacity="1" fill-rule="nonzero"/></g><g clip-path="url(#ff99cc151d)"><path fill="#000000" d="M 65.890625 500.652344 L 64.417969 500.015625 L 282.066406 0.78125 L 283.535156 1.414062 Z M 65.890625 500.652344 " fill-opacity="1" fill-rule="nonzero"/></g><g clip-path="url(#9a0d23dd55)"><path fill="#000000" d="M 83.300781 500.652344 L 81.824219 500.015625 L 299.472656 0.78125 L 300.949219 1.414062 Z M 83.300781 500.652344 " fill-opacity="1" fill-rule="nonzero"/></g><g clip-path="url(#51c07d3e99)"><path fill="#000000" d="M 100.714844 500.652344 L 99.238281 500.015625 L 316.882812 0.78125 L 318.359375 1.414062 Z M 100.714844 500.652344 " fill-opacity="1" fill-rule="nonzero"/></g><g clip-path="url(#1b26367cf4)"><path fill="#000000" d="M 118.125 500.652344 L 116.652344 500.015625 L 334.296875 0.78125 L 335.773438 1.414062 Z M 118.125 500.652344 " fill-opacity="1" fill-rule="nonzero"/></g><g clip-path="url(#5c893c53e0)"><path fill="#000000" d="M 135.539062 500.652344 L 134.0625 500.015625 L 351.710938 0.78125 L 353.179688 1.414062 Z M 135.539062 500.652344 " fill-opacity="1" fill-rule="nonzero"/></g><g clip-path="url(#a4c5039e0d)"><path fill="#000000" d="M 152.945312 500.652344 L 151.476562 500.015625 L 369.121094 0.78125 L 370.589844 1.414062 Z M 152.945312 500.652344 " fill-opacity="1" fill-rule="nonzero"/></g><g clip-path="url(#409e8326b3)"><path fill="#000000" d="M 170.359375 500.652344 L 168.886719 500.015625 L 386.527344 0.78125 L 388.003906 1.414062 Z M 170.359375 500.652344 " fill-opacity="1" fill-rule="nonzero"/></g><g clip-path="url(#f5690d0f24)"><path fill="#000000" d="M 187.769531 500.652344 L 186.300781 500.015625 L 403.941406 0.78125 L 405.417969 1.414062 Z M 187.769531 500.652344 " fill-opacity="1" fill-rule="nonzero"/></g><g clip-path="url(#492631476f)"><path fill="#000000" d="M 205.183594 500.652344 L 203.710938 500.015625 L 421.351562 0.78125 L 422.828125 1.414062 Z M 205.183594 500.652344 " fill-opacity="1" fill-rule="nonzero"/></g><g clip-path="url(#5c655bcd98)"><path fill="#000000" d="M 222.59375 500.652344 L 221.117188 500.015625 L 438.765625 0.78125 L 440.242188 1.414062 Z M 222.59375 500.652344 " fill-opacity="1" fill-rule="nonzero"/></g></g></g></g><g mask="url(#2a45d8f94e)"><g transform="matrix(1, 0, 0, 1, 238, 2)"><g clip-path="url(#cf975e82b2)"><g clip-path="url(#8308d8352e)"><path fill="#000000" d="M 1.832031 501.097656 L 0.363281 500.460938 L 218.003906 1.226562 L 219.480469 1.859375 Z M 1.832031 501.097656 " fill-opacity="1" fill-rule="nonzero"/></g><g clip-path="url(#41d66023bf)"><path fill="#000000" d="M 19.246094 501.097656 L 17.769531 500.460938 L 235.414062 1.226562 L 236.890625 1.859375 Z M 19.246094 501.097656 " fill-opacity="1" fill-rule="nonzero"/></g><g clip-path="url(#696b666e6c)"><path fill="#000000" d="M 36.65625 501.097656 L 35.183594 500.460938 L 252.828125 1.226562 L 254.296875 1.859375 Z M 36.65625 501.097656 " fill-opacity="1" fill-rule="nonzero"/></g><g clip-path="url(#da2df976a3)"><path fill="#000000" d="M 54.070312 501.097656 L 52.59375 500.460938 L 270.242188 1.226562 L 271.710938 1.859375 Z M 54.070312 501.097656 " fill-opacity="1" fill-rule="nonzero"/></g><g clip-path="url(#c489646978)"><path fill="#000000" d="M 71.484375 501.097656 L 70.007812 500.460938 L 287.652344 1.226562 L 289.125 1.859375 Z M 71.484375 501.097656 " fill-opacity="1" fill-rule="nonzero"/></g><g clip-path="url(#c7edf8ec18)"><path fill="#000000" d="M 88.890625 501.097656 L 87.417969 500.460938 L 305.066406 1.226562 L 306.535156 1.859375 Z M 88.890625 501.097656 " fill-opacity="1" fill-rule="nonzero"/></g><g clip-path="url(#c54d3795dd)"><path fill="#000000" d="M 106.300781 501.097656 L 104.824219 500.460938 L 322.472656 1.226562 L 323.949219 1.859375 Z M 106.300781 501.097656 " fill-opacity="1" fill-rule="nonzero"/></g></g></g></g><g clip-path="url(#bdbd0bdcad)"><path fill="#38b6ff" d="M 331.601562 467.976562 L 28.1875 467.976562 L 28.1875 36 L 331.601562 36 Z M 29.066406 467.097656 L 330.722656 467.097656 L 330.722656 36.878906 L 29.066406 36.878906 Z M 29.066406 467.097656 " fill-opacity="1" fill-rule="nonzero"/></g><g clip-path="url(#de7e2d1c5c)"><path fill="#38b6ff" d="M 291.257812 438.042969 L 290.75 440.121094 C 275.496094 436.375 259.5625 436.375 244.308594 440.121094 L 243.800781 438.042969 C 259.390625 434.207031 275.675781 434.207031 291.261719 438.042969 L 291.257812 438.042969 " fill-opacity="1" fill-rule="nonzero"/></g><g clip-path="url(#a550d1737f)"><path fill="#38b6ff" d="M 232.3125 409.113281 C 236.613281 414.957031 242.402344 419.546875 249.070312 422.402344 C 248.148438 417.855469 247.691406 413.21875 247.707031 408.574219 C 246.65625 408.816406 245.601562 408.15625 245.359375 407.105469 C 245.117188 406.046875 245.769531 405 246.828125 404.757812 C 247.878906 404.507812 248.933594 405.167969 249.175781 406.226562 C 249.390625 407.152344 248.898438 408.109375 248.011719 408.46875 C 250.59375 412.859375 253.816406 416.839844 257.582031 420.265625 C 262.027344 414.996094 265.59375 409.050781 268.15625 402.648438 C 266.4375 402.5 265.171875 400.992188 265.316406 399.28125 C 265.460938 397.566406 266.972656 396.296875 268.683594 396.445312 C 270.390625 396.589844 271.667969 398.097656 271.519531 399.808594 C 271.390625 401.316406 270.191406 402.515625 268.683594 402.648438 C 271.238281 409.050781 274.808594 414.996094 279.257812 420.265625 C 283.015625 416.839844 286.242188 412.859375 288.820312 408.46875 C 287.820312 408.054688 287.359375 406.902344 287.773438 405.90625 C 288.1875 404.910156 289.339844 404.445312 290.335938 404.863281 C 291.332031 405.277344 291.804688 406.425781 291.386719 407.421875 C 291.015625 408.308594 290.058594 408.792969 289.125 408.574219 C 289.136719 413.21875 288.679688 417.855469 287.753906 422.402344 C 294.429688 419.546875 300.210938 414.957031 304.515625 409.113281 C 303.570312 408.585938 303.230469 407.394531 303.75 406.445312 C 304.273438 405.503906 305.464844 405.160156 306.414062 405.6875 C 307.355469 406.210938 307.703125 407.402344 307.175781 408.34375 C 306.691406 409.222656 305.625 409.589844 304.703125 409.203125 L 293.078125 435.722656 C 276.875 431.734375 259.949219 431.734375 243.753906 435.722656 L 232.125 409.203125 C 231.128906 409.625 229.980469 409.152344 229.558594 408.15625 C 229.140625 407.160156 229.605469 406.019531 230.601562 405.59375 C 231.601562 405.171875 232.75 405.644531 233.164062 406.640625 C 233.558594 407.5625 233.1875 408.628906 232.3125 409.113281 " fill-opacity="1" fill-rule="nonzero"/></g><g clip-path="url(#b48a4cb816)"><path fill="#ffffff" d="M 238.613281 257 C 238.613281 258.914062 238.519531 260.824219 238.332031 262.730469 C 238.144531 264.636719 237.863281 266.53125 237.488281 268.410156 C 237.113281 270.289062 236.648438 272.144531 236.09375 273.976562 C 235.539062 275.8125 234.894531 277.613281 234.160156 279.382812 C 233.425781 281.152344 232.609375 282.882812 231.707031 284.570312 C 230.804688 286.261719 229.820312 287.902344 228.753906 289.496094 C 227.691406 291.089844 226.550781 292.625 225.335938 294.105469 C 224.121094 295.585938 222.835938 297.003906 221.480469 298.359375 C 220.125 299.714844 218.707031 301 217.226562 302.214844 C 215.746094 303.429688 214.210938 304.570312 212.617188 305.632812 C 211.023438 306.699219 209.382812 307.679688 207.695312 308.585938 C 206.003906 309.488281 204.273438 310.304688 202.503906 311.039062 C 200.734375 311.769531 198.933594 312.417969 197.101562 312.972656 C 195.265625 313.527344 193.410156 313.992188 191.53125 314.367188 C 189.652344 314.742188 187.761719 315.019531 185.855469 315.210938 C 183.945312 315.398438 182.035156 315.492188 180.121094 315.492188 C 178.203125 315.492188 176.292969 315.398438 174.386719 315.210938 C 172.480469 315.019531 170.589844 314.742188 168.710938 314.367188 C 166.832031 313.992188 164.972656 313.527344 163.140625 312.972656 C 161.308594 312.417969 159.507812 311.769531 157.738281 311.039062 C 155.964844 310.304688 154.238281 309.488281 152.546875 308.585938 C 150.859375 307.679688 149.214844 306.699219 147.625 305.632812 C 146.03125 304.570312 144.496094 303.429688 143.011719 302.214844 C 141.53125 301 140.113281 299.714844 138.761719 298.359375 C 137.40625 297.003906 136.121094 295.585938 134.90625 294.105469 C 133.691406 292.625 132.550781 291.089844 131.484375 289.496094 C 130.421875 287.902344 129.4375 286.261719 128.535156 284.570312 C 127.632812 282.882812 126.8125 281.152344 126.082031 279.382812 C 125.347656 277.613281 124.703125 275.8125 124.148438 273.976562 C 123.589844 272.144531 123.125 270.289062 122.753906 268.410156 C 122.378906 266.53125 122.097656 264.636719 121.910156 262.730469 C 121.722656 260.824219 121.628906 258.914062 121.628906 257 C 121.628906 255.082031 121.722656 253.171875 121.910156 251.265625 C 122.097656 249.359375 122.378906 247.464844 122.753906 245.585938 C 123.125 243.707031 123.589844 241.851562 124.148438 240.019531 C 124.703125 238.1875 125.347656 236.382812 126.082031 234.613281 C 126.8125 232.84375 127.632812 231.113281 128.535156 229.425781 C 129.4375 227.734375 130.421875 226.09375 131.484375 224.5 C 132.550781 222.910156 133.691406 221.371094 134.90625 219.890625 C 136.121094 218.410156 137.40625 216.992188 138.761719 215.636719 C 140.113281 214.285156 141.53125 213 143.011719 211.785156 C 144.496094 210.566406 146.03125 209.429688 147.625 208.363281 C 149.214844 207.300781 150.859375 206.316406 152.546875 205.414062 C 154.238281 204.511719 155.964844 203.691406 157.738281 202.957031 C 159.507812 202.226562 161.308594 201.582031 163.140625 201.023438 C 164.972656 200.46875 166.832031 200.003906 168.710938 199.628906 C 170.589844 199.257812 172.480469 198.976562 174.386719 198.789062 C 176.292969 198.601562 178.203125 198.507812 180.121094 198.507812 C 182.035156 198.507812 183.945312 198.601562 185.855469 198.789062 C 187.761719 198.976562 189.652344 199.257812 191.53125 199.628906 C 193.410156 200.003906 195.265625 200.46875 197.101562 201.023438 C 198.933594 201.582031 200.734375 202.226562 202.503906 202.957031 C 204.273438 203.691406 206.003906 204.511719 207.695312 205.414062 C 209.382812 206.316406 211.023438 207.300781 212.617188 208.363281 C 214.210938 209.429688 215.746094 210.566406 217.226562 211.785156 C 218.707031 213 220.125 214.285156 221.480469 215.636719 C 222.835938 216.992188 224.121094 218.410156 225.335938 219.890625 C 226.550781 221.371094 227.691406 222.910156 228.753906 224.5 C 229.820312 226.09375 230.804688 227.734375 231.707031 229.425781 C 232.609375 231.113281 233.425781 232.84375 234.160156 234.613281 C 234.894531 236.382812 235.539062 238.1875 236.09375 240.019531 C 236.648438 241.851562 237.113281 243.707031 237.488281 245.585938 C 237.863281 247.464844 238.144531 249.359375 238.332031 251.265625 C 238.519531 253.171875 238.613281 255.082031 238.613281 257 Z M 238.613281 257 " fill-opacity="1" fill-rule="nonzero"/></g><g clip-path="url(#bdad283d35)"><path fill="#38b6ff" d="M 156.625 239.195312 C 169.226562 243.304688 181.585938 249.566406 194.835938 249.3125 C 206.445312 249.089844 217.492188 243.761719 226.558594 236.503906 C 228.664062 234.824219 230.671875 233.039062 232.609375 231.179688 C 231.410156 228.742188 230.046875 226.394531 228.519531 224.148438 C 226.992188 221.898438 225.316406 219.765625 223.492188 217.75 C 221.667969 215.734375 219.714844 213.855469 217.628906 212.113281 C 215.542969 210.371094 213.34375 208.78125 211.039062 207.34375 C 208.730469 205.90625 206.332031 204.636719 203.847656 203.535156 C 201.363281 202.433594 198.816406 201.507812 196.203125 200.761719 C 193.589844 200.011719 190.933594 199.449219 188.242188 199.074219 C 185.550781 198.695312 182.847656 198.507812 180.128906 198.507812 C 154.402344 198.507812 132.5625 215.109375 124.722656 238.171875 C 134.402344 234.15625 146.339844 235.835938 156.625 239.195312 Z M 156.625 239.195312 " fill-opacity="1" fill-rule="nonzero"/></g><g clip-path="url(#00b0820454)"><path fill="#38b6ff" d="M 175.894531 258.488281 C 165.117188 258.039062 153.414062 255.503906 144.214844 261.121094 C 135.871094 266.203125 132.285156 276.855469 132.933594 286.601562 C 133.070312 288.644531 133.351562 290.671875 133.773438 292.679688 C 135.132812 294.449219 136.589844 296.136719 138.144531 297.738281 C 139.695312 299.339844 141.335938 300.851562 143.0625 302.265625 C 144.789062 303.679688 146.59375 304.992188 148.46875 306.199219 C 150.347656 307.40625 152.285156 308.503906 154.289062 309.492188 C 156.292969 310.476562 158.347656 311.34375 160.449219 312.09375 C 162.550781 312.84375 164.6875 313.472656 166.863281 313.976562 C 169.039062 314.480469 171.234375 314.863281 173.453125 315.113281 C 175.671875 315.367188 177.894531 315.492188 180.128906 315.492188 C 212.429688 315.492188 238.628906 289.300781 238.628906 256.992188 C 238.636719 249.324219 237.1875 241.941406 234.285156 234.847656 C 219.347656 250.515625 197.515625 259.390625 175.894531 258.488281 Z M 175.894531 258.488281 " fill-opacity="1" fill-rule="nonzero"/></g></svg>