<svg xmlns="http://www.w3.org/2000/svg" xmlns:xlink="http://www.w3.org/1999/xlink" width="480" zoomAndPan="magnify" viewBox="0 0 360 503.999982" height="672" preserveAspectRatio="xMidYMid meet" version="1.0"><defs><filter x="0%" y="0%" width="100%" height="100%" id="91caa5f9a6"><feColorMatrix values="0 0 0 0 1 0 0 0 0 1 0 0 0 0 1 0 0 0 1 0" color-interpolation-filters="sRGB"/></filter><mask id="87cf0f0ae9"><g filter="url(#91caa5f9a6)"><rect x="-36" width="432" fill="#000000" y="-50.399998" height="604.799979" fill-opacity="0.1373"/></g></mask><clipPath id="fde9977bf8"><path d="M 0 0 L 1 0 L 1 432.847656 L 0 432.847656 Z M 0 0 " clip-rule="nonzero"/></clipPath><clipPath id="4ac587b799"><path d="M 0 0 L 18 0 L 18 432.847656 L 0 432.847656 Z M 0 0 " clip-rule="nonzero"/></clipPath><clipPath id="d7b4bcdd9b"><path d="M 0 0 L 35 0 L 35 432.847656 L 0 432.847656 Z M 0 0 " clip-rule="nonzero"/></clipPath><clipPath id="78370a82a7"><path d="M 0 0 L 53 0 L 53 432.847656 L 0 432.847656 Z M 0 0 " clip-rule="nonzero"/></clipPath><clipPath id="f2b36f322f"><path d="M 0 0 L 70 0 L 70 432.847656 L 0 432.847656 Z M 0 0 " clip-rule="nonzero"/></clipPath><clipPath id="c93ace94da"><path d="M 0 0 L 88 0 L 88 432.847656 L 0 432.847656 Z M 0 0 " clip-rule="nonzero"/></clipPath><clipPath id="94bcde5ef9"><path d="M 0 0 L 105 0 L 105 432.847656 L 0 432.847656 Z M 0 0 " clip-rule="nonzero"/></clipPath><clipPath id="136f40ed09"><path d="M 0 0 L 122 0 L 122 432.847656 L 0 432.847656 Z M 0 0 " clip-rule="nonzero"/></clipPath><clipPath id="49ca463708"><path d="M 0 0 L 140 0 L 140 432.847656 L 0 432.847656 Z M 0 0 " clip-rule="nonzero"/></clipPath><clipPath id="305ad49343"><path d="M 0 0 L 157 0 L 157 432.847656 L 0 432.847656 Z M 0 0 " clip-rule="nonzero"/></clipPath><clipPath id="ad7dfd02e5"><path d="M 0 0 L 175 0 L 175 432.847656 L 0 432.847656 Z M 0 0 " clip-rule="nonzero"/></clipPath><clipPath id="59f084096f"><path d="M 0 0 L 192 0 L 192 432.847656 L 0 432.847656 Z M 0 0 " clip-rule="nonzero"/></clipPath><clipPath id="5696cbb8cd"><path d="M 0 0 L 208.722656 0 L 208.722656 432.847656 L 0 432.847656 Z M 0 0 " clip-rule="nonzero"/></clipPath><clipPath id="f1f3e35448"><rect x="0" width="209" y="0" height="434"/></clipPath><mask id="8ccd4db3ce"><g filter="url(#91caa5f9a6)"><rect x="-36" width="432" fill="#000000" y="-50.399998" height="604.799979" fill-opacity="0.1373"/></g></mask><clipPath id="fa16fc6237"><path d="M 0 0.203125 L 197 0.203125 L 197 498 L 0 498 Z M 0 0.203125 " clip-rule="nonzero"/></clipPath><clipPath id="d1016ffd32"><path d="M 0 0.203125 L 214 0.203125 L 214 498 L 0 498 Z M 0 0.203125 " clip-rule="nonzero"/></clipPath><clipPath id="2d6a0e2a34"><path d="M 12 0.203125 L 232 0.203125 L 232 498 L 12 498 Z M 12 0.203125 " clip-rule="nonzero"/></clipPath><clipPath id="6e0d2853f1"><path d="M 29 0.203125 L 249 0.203125 L 249 498 L 29 498 Z M 29 0.203125 " clip-rule="nonzero"/></clipPath><clipPath id="8fadb90c90"><path d="M 47 0.203125 L 267 0.203125 L 267 498 L 47 498 Z M 47 0.203125 " clip-rule="nonzero"/></clipPath><clipPath id="9846d0cc23"><path d="M 64 0.203125 L 284 0.203125 L 284 498 L 64 498 Z M 64 0.203125 " clip-rule="nonzero"/></clipPath><clipPath id="62b27ed203"><path d="M 81 0.203125 L 301 0.203125 L 301 498 L 81 498 Z M 81 0.203125 " clip-rule="nonzero"/></clipPath><clipPath id="18b67972f9"><path d="M 99 0.203125 L 319 0.203125 L 319 498 L 99 498 Z M 99 0.203125 " clip-rule="nonzero"/></clipPath><clipPath id="f071dd5c14"><path d="M 116 0.203125 L 336 0.203125 L 336 498 L 116 498 Z M 116 0.203125 " clip-rule="nonzero"/></clipPath><clipPath id="5439c19c9e"><path d="M 134 0.203125 L 354 0.203125 L 354 498 L 134 498 Z M 134 0.203125 " clip-rule="nonzero"/></clipPath><clipPath id="ab5fa07e52"><path d="M 151 0.203125 L 360 0.203125 L 360 498 L 151 498 Z M 151 0.203125 " clip-rule="nonzero"/></clipPath><clipPath id="6b49bb8108"><path d="M 168 0.203125 L 360 0.203125 L 360 498 L 168 498 Z M 168 0.203125 " clip-rule="nonzero"/></clipPath><clipPath id="bf85ec43a6"><path d="M 186 0.203125 L 360 0.203125 L 360 498 L 186 498 Z M 186 0.203125 " clip-rule="nonzero"/></clipPath><clipPath id="d15f77bc14"><path d="M 203 0.203125 L 360 0.203125 L 360 498 L 203 498 Z M 203 0.203125 " clip-rule="nonzero"/></clipPath><clipPath id="3cee33cf20"><path d="M 221 0.203125 L 360 0.203125 L 360 498 L 221 498 Z M 221 0.203125 " clip-rule="nonzero"/></clipPath><clipPath id="71c3c165f2"><rect x="0" width="360" y="0" height="498"/></clipPath><mask id="c5afc723bd"><g filter="url(#91caa5f9a6)"><rect x="-36" width="432" fill="#000000" y="-50.399998" height="604.799979" fill-opacity="0.1373"/></g></mask><clipPath id="18f3269ddc"><path d="M 0.222656 1 L 122 1 L 122 501.648438 L 0.222656 501.648438 Z M 0.222656 1 " clip-rule="nonzero"/></clipPath><clipPath id="cc5fd9cc58"><path d="M 17 1 L 122 1 L 122 501.648438 L 17 501.648438 Z M 17 1 " clip-rule="nonzero"/></clipPath><clipPath id="a8ea50ce0e"><path d="M 35 1 L 122 1 L 122 501.648438 L 35 501.648438 Z M 35 1 " clip-rule="nonzero"/></clipPath><clipPath id="f65d93b2f6"><path d="M 52 1 L 122 1 L 122 501.648438 L 52 501.648438 Z M 52 1 " clip-rule="nonzero"/></clipPath><clipPath id="2c8427434e"><path d="M 70 1 L 122 1 L 122 501.648438 L 70 501.648438 Z M 70 1 " clip-rule="nonzero"/></clipPath><clipPath id="f4c6ca6fa3"><path d="M 87 1 L 122 1 L 122 501.648438 L 87 501.648438 Z M 87 1 " clip-rule="nonzero"/></clipPath><clipPath id="27170b27e7"><path d="M 104 1 L 122 1 L 122 501.648438 L 104 501.648438 Z M 104 1 " clip-rule="nonzero"/></clipPath><clipPath id="f8796bcad6"><rect x="0" width="122" y="0" height="502"/></clipPath><clipPath id="373d9e4d25"><path d="M 28.015625 36 L 331.765625 36 L 331.765625 468 L 28.015625 468 Z M 28.015625 36 " clip-rule="nonzero"/></clipPath><clipPath id="a5f29a64ca"><path d="M 53.421875 104 L 101.285156 104 L 101.285156 109.089844 L 53.421875 109.089844 Z M 53.421875 104 " clip-rule="nonzero"/></clipPath><clipPath id="2ff0cd23b0"><path d="M 39.238281 65.40625 L 117.238281 65.40625 L 117.238281 105 L 39.238281 105 Z M 39.238281 65.40625 " clip-rule="nonzero"/></clipPath><clipPath id="f6ba8d04f8"><path d="M 126.359375 198.507812 L 243.359375 198.507812 L 243.359375 315.507812 L 126.359375 315.507812 Z M 126.359375 198.507812 " clip-rule="nonzero"/></clipPath><clipPath id="e2f5763d7c"><path d="M 129 198.507812 L 238 198.507812 L 238 250 L 129 250 Z M 129 198.507812 " clip-rule="nonzero"/></clipPath><clipPath id="39750e6849"><path d="M 137 234 L 243.359375 234 L 243.359375 315.507812 L 137 315.507812 Z M 137 234 " clip-rule="nonzero"/></clipPath></defs><rect x="-36" width="432" fill="#ffffff" y="-50.399998" height="604.799979" fill-opacity="1"/><rect x="-36" width="432" fill="#ffffff" y="-50.399998" height="604.799979" fill-opacity="1"/><rect x="-36" width="432" fill="#323232" y="-50.399998" height="604.799979" fill-opacity="1"/><g mask="url(#87cf0f0ae9)"><g transform="matrix(1, 0, 0, 1, 0, 0)"><g clip-path="url(#f1f3e35448)"><g clip-path="url(#fde9977bf8)"><path fill="#000000" d="M -217.589844 432.296875 L -219.066406 431.664062 L -1.417969 -67.574219 L 0.0507812 -66.9375 Z M -217.589844 432.296875 " fill-opacity="1" fill-rule="nonzero"/></g><g clip-path="url(#4ac587b799)"><path fill="#000000" d="M -200.175781 432.296875 L -201.652344 431.664062 L 15.992188 -67.574219 L 17.460938 -66.9375 Z M -200.175781 432.296875 " fill-opacity="1" fill-rule="nonzero"/></g><g clip-path="url(#d7b4bcdd9b)"><path fill="#000000" d="M -182.765625 432.296875 L -184.242188 431.664062 L 33.40625 -67.574219 L 34.875 -66.9375 Z M -182.765625 432.296875 " fill-opacity="1" fill-rule="nonzero"/></g><g clip-path="url(#78370a82a7)"><path fill="#000000" d="M -165.359375 432.296875 L -166.828125 431.664062 L 50.816406 -67.574219 L 52.289062 -66.9375 Z M -165.359375 432.296875 " fill-opacity="1" fill-rule="nonzero"/></g><g clip-path="url(#f2b36f322f)"><path fill="#000000" d="M -147.945312 432.296875 L -149.421875 431.664062 L 68.222656 -67.574219 L 69.699219 -66.9375 Z M -147.945312 432.296875 " fill-opacity="1" fill-rule="nonzero"/></g><g clip-path="url(#c93ace94da)"><path fill="#000000" d="M -130.535156 432.296875 L -132.011719 431.664062 L 85.636719 -67.574219 L 87.113281 -66.9375 Z M -130.535156 432.296875 " fill-opacity="1" fill-rule="nonzero"/></g><g clip-path="url(#94bcde5ef9)"><path fill="#000000" d="M -113.121094 432.296875 L -114.597656 431.664062 L 103.050781 -67.574219 L 104.523438 -66.9375 Z M -113.121094 432.296875 " fill-opacity="1" fill-rule="nonzero"/></g><g clip-path="url(#136f40ed09)"><path fill="#000000" d="M -95.707031 432.296875 L -97.183594 431.664062 L 120.460938 -67.574219 L 121.929688 -66.9375 Z M -95.707031 432.296875 " fill-opacity="1" fill-rule="nonzero"/></g><g clip-path="url(#49ca463708)"><path fill="#000000" d="M -78.304688 432.296875 L -79.773438 431.664062 L 137.875 -67.574219 L 139.34375 -66.9375 Z M -78.304688 432.296875 " fill-opacity="1" fill-rule="nonzero"/></g><g clip-path="url(#305ad49343)"><path fill="#000000" d="M -60.890625 432.296875 L -62.359375 431.664062 L 155.28125 -67.574219 L 156.757812 -66.9375 Z M -60.890625 432.296875 " fill-opacity="1" fill-rule="nonzero"/></g><g clip-path="url(#ad7dfd02e5)"><path fill="#000000" d="M -43.476562 432.296875 L -44.949219 431.664062 L 172.691406 -67.574219 L 174.167969 -66.9375 Z M -43.476562 432.296875 " fill-opacity="1" fill-rule="nonzero"/></g><g clip-path="url(#59f084096f)"><path fill="#000000" d="M -26.066406 432.296875 L -27.535156 431.664062 L 190.105469 -67.574219 L 191.582031 -66.9375 Z M -26.066406 432.296875 " fill-opacity="1" fill-rule="nonzero"/></g><g clip-path="url(#5696cbb8cd)"><path fill="#000000" d="M -8.652344 432.296875 L -10.128906 431.664062 L 207.515625 -67.574219 L 208.992188 -66.9375 Z M -8.652344 432.296875 " fill-opacity="1" fill-rule="nonzero"/></g></g></g></g><g mask="url(#8ccd4db3ce)"><g transform="matrix(1, 0, 0, 1, 0, 6)"><g clip-path="url(#71c3c165f2)"><g clip-path="url(#fa16fc6237)"><path fill="#000000" d="M -21.167969 500.652344 L -22.636719 500.015625 L 195.003906 0.78125 L 196.480469 1.414062 Z M -21.167969 500.652344 " fill-opacity="1" fill-rule="nonzero"/></g><g clip-path="url(#d1016ffd32)"><path fill="#000000" d="M -3.753906 500.652344 L -5.230469 500.015625 L 212.414062 0.78125 L 213.890625 1.414062 Z M -3.753906 500.652344 " fill-opacity="1" fill-rule="nonzero"/></g><g clip-path="url(#2d6a0e2a34)"><path fill="#000000" d="M 13.65625 500.652344 L 12.183594 500.015625 L 229.828125 0.78125 L 231.296875 1.414062 Z M 13.65625 500.652344 " fill-opacity="1" fill-rule="nonzero"/></g><g clip-path="url(#6e0d2853f1)"><path fill="#000000" d="M 31.070312 500.652344 L 29.59375 500.015625 L 247.242188 0.78125 L 248.710938 1.414062 Z M 31.070312 500.652344 " fill-opacity="1" fill-rule="nonzero"/></g><g clip-path="url(#8fadb90c90)"><path fill="#000000" d="M 48.484375 500.652344 L 47.007812 500.015625 L 264.652344 0.78125 L 266.125 1.414062 Z M 48.484375 500.652344 " fill-opacity="1" fill-rule="nonzero"/></g><g clip-path="url(#9846d0cc23)"><path fill="#000000" d="M 65.890625 500.652344 L 64.417969 500.015625 L 282.066406 0.78125 L 283.535156 1.414062 Z M 65.890625 500.652344 " fill-opacity="1" fill-rule="nonzero"/></g><g clip-path="url(#62b27ed203)"><path fill="#000000" d="M 83.300781 500.652344 L 81.824219 500.015625 L 299.472656 0.78125 L 300.949219 1.414062 Z M 83.300781 500.652344 " fill-opacity="1" fill-rule="nonzero"/></g><g clip-path="url(#18b67972f9)"><path fill="#000000" d="M 100.714844 500.652344 L 99.238281 500.015625 L 316.882812 0.78125 L 318.359375 1.414062 Z M 100.714844 500.652344 " fill-opacity="1" fill-rule="nonzero"/></g><g clip-path="url(#f071dd5c14)"><path fill="#000000" d="M 118.125 500.652344 L 116.652344 500.015625 L 334.296875 0.78125 L 335.773438 1.414062 Z M 118.125 500.652344 " fill-opacity="1" fill-rule="nonzero"/></g><g clip-path="url(#5439c19c9e)"><path fill="#000000" d="M 135.539062 500.652344 L 134.0625 500.015625 L 351.710938 0.78125 L 353.179688 1.414062 Z M 135.539062 500.652344 " fill-opacity="1" fill-rule="nonzero"/></g><g clip-path="url(#ab5fa07e52)"><path fill="#000000" d="M 152.945312 500.652344 L 151.476562 500.015625 L 369.121094 0.78125 L 370.589844 1.414062 Z M 152.945312 500.652344 " fill-opacity="1" fill-rule="nonzero"/></g><g clip-path="url(#6b49bb8108)"><path fill="#000000" d="M 170.359375 500.652344 L 168.886719 500.015625 L 386.527344 0.78125 L 388.003906 1.414062 Z M 170.359375 500.652344 " fill-opacity="1" fill-rule="nonzero"/></g><g clip-path="url(#bf85ec43a6)"><path fill="#000000" d="M 187.769531 500.652344 L 186.300781 500.015625 L 403.941406 0.78125 L 405.417969 1.414062 Z M 187.769531 500.652344 " fill-opacity="1" fill-rule="nonzero"/></g><g clip-path="url(#d15f77bc14)"><path fill="#000000" d="M 205.183594 500.652344 L 203.710938 500.015625 L 421.351562 0.78125 L 422.828125 1.414062 Z M 205.183594 500.652344 " fill-opacity="1" fill-rule="nonzero"/></g><g clip-path="url(#3cee33cf20)"><path fill="#000000" d="M 222.59375 500.652344 L 221.117188 500.015625 L 438.765625 0.78125 L 440.242188 1.414062 Z M 222.59375 500.652344 " fill-opacity="1" fill-rule="nonzero"/></g></g></g></g><g mask="url(#c5afc723bd)"><g transform="matrix(1, 0, 0, 1, 238, 2)"><g clip-path="url(#f8796bcad6)"><g clip-path="url(#18f3269ddc)"><path fill="#000000" d="M 1.832031 501.097656 L 0.363281 500.460938 L 218.003906 1.226562 L 219.480469 1.859375 Z M 1.832031 501.097656 " fill-opacity="1" fill-rule="nonzero"/></g><g clip-path="url(#cc5fd9cc58)"><path fill="#000000" d="M 19.246094 501.097656 L 17.769531 500.460938 L 235.414062 1.226562 L 236.890625 1.859375 Z M 19.246094 501.097656 " fill-opacity="1" fill-rule="nonzero"/></g><g clip-path="url(#a8ea50ce0e)"><path fill="#000000" d="M 36.65625 501.097656 L 35.183594 500.460938 L 252.828125 1.226562 L 254.296875 1.859375 Z M 36.65625 501.097656 " fill-opacity="1" fill-rule="nonzero"/></g><g clip-path="url(#f65d93b2f6)"><path fill="#000000" d="M 54.070312 501.097656 L 52.59375 500.460938 L 270.242188 1.226562 L 271.710938 1.859375 Z M 54.070312 501.097656 " fill-opacity="1" fill-rule="nonzero"/></g><g clip-path="url(#2c8427434e)"><path fill="#000000" d="M 71.484375 501.097656 L 70.007812 500.460938 L 287.652344 1.226562 L 289.125 1.859375 Z M 71.484375 501.097656 " fill-opacity="1" fill-rule="nonzero"/></g><g clip-path="url(#f4c6ca6fa3)"><path fill="#000000" d="M 88.890625 501.097656 L 87.417969 500.460938 L 305.066406 1.226562 L 306.535156 1.859375 Z M 88.890625 501.097656 " fill-opacity="1" fill-rule="nonzero"/></g><g clip-path="url(#27170b27e7)"><path fill="#000000" d="M 106.300781 501.097656 L 104.824219 500.460938 L 322.472656 1.226562 L 323.949219 1.859375 Z M 106.300781 501.097656 " fill-opacity="1" fill-rule="nonzero"/></g></g></g></g><g clip-path="url(#373d9e4d25)"><path fill="#38b6ff" d="M 331.601562 467.976562 L 28.1875 467.976562 L 28.1875 36 L 331.601562 36 Z M 29.066406 467.097656 L 330.722656 467.097656 L 330.722656 36.878906 L 29.066406 36.878906 Z M 29.066406 467.097656 " fill-opacity="1" fill-rule="nonzero"/></g><g clip-path="url(#a5f29a64ca)"><path fill="#38b6ff" d="M 101.089844 107.011719 L 100.585938 109.089844 C 85.332031 105.34375 69.394531 105.34375 54.140625 109.089844 L 53.636719 107.011719 C 69.222656 103.179688 85.511719 103.179688 101.097656 107.011719 L 101.089844 107.011719 " fill-opacity="1" fill-rule="nonzero"/></g><g clip-path="url(#2ff0cd23b0)"><path fill="#38b6ff" d="M 42.148438 78.082031 C 46.449219 83.925781 52.238281 88.515625 58.90625 91.375 C 57.984375 86.828125 57.527344 82.1875 57.542969 77.542969 C 56.488281 77.785156 55.4375 77.128906 55.195312 76.074219 C 54.953125 75.015625 55.601562 73.972656 56.660156 73.730469 C 57.714844 73.480469 58.765625 74.136719 59.007812 75.195312 C 59.222656 76.125 58.730469 77.078125 57.847656 77.4375 C 60.429688 81.828125 63.648438 85.808594 67.414062 89.234375 C 71.863281 83.96875 75.429688 78.019531 77.988281 71.617188 C 76.273438 71.472656 75.003906 69.960938 75.152344 68.253906 C 75.296875 66.535156 76.804688 65.269531 78.515625 65.414062 C 80.226562 65.558594 81.5 67.070312 81.355469 68.777344 C 81.222656 70.289062 80.027344 71.484375 78.515625 71.617188 C 81.070312 78.019531 84.644531 83.96875 89.089844 89.234375 C 92.851562 85.808594 96.078125 81.828125 98.652344 77.4375 C 97.65625 77.023438 97.191406 75.875 97.609375 74.878906 C 98.023438 73.882812 99.171875 73.417969 100.167969 73.832031 C 101.167969 74.246094 101.636719 75.398438 101.222656 76.394531 C 100.847656 77.28125 99.894531 77.765625 98.957031 77.542969 C 98.972656 82.1875 98.515625 86.828125 97.585938 91.375 C 104.261719 88.515625 110.042969 83.925781 114.351562 78.082031 C 113.402344 77.558594 113.0625 76.367188 113.582031 75.417969 C 114.109375 74.476562 115.300781 74.128906 116.25 74.65625 C 117.191406 75.183594 117.535156 76.375 117.011719 77.316406 C 116.527344 78.195312 115.460938 78.5625 114.539062 78.171875 L 102.910156 104.695312 C 86.707031 100.707031 69.785156 100.707031 53.585938 104.695312 L 41.960938 78.171875 C 40.964844 78.59375 39.8125 78.125 39.390625 77.128906 C 38.976562 76.132812 39.441406 74.988281 40.4375 74.566406 C 41.433594 74.144531 42.582031 74.613281 43 75.613281 C 43.394531 76.53125 43.019531 77.597656 42.148438 78.082031 " fill-opacity="1" fill-rule="nonzero"/></g><g clip-path="url(#f6ba8d04f8)"><path fill="#ffffff" d="M 243.34375 257 C 243.34375 258.914062 243.25 260.824219 243.0625 262.730469 C 242.875 264.636719 242.59375 266.53125 242.222656 268.410156 C 241.847656 270.289062 241.382812 272.144531 240.828125 273.976562 C 240.269531 275.8125 239.625 277.613281 238.894531 279.382812 C 238.160156 281.152344 237.34375 282.882812 236.4375 284.570312 C 235.535156 286.261719 234.550781 287.902344 233.488281 289.496094 C 232.421875 291.089844 231.285156 292.625 230.070312 294.105469 C 228.851562 295.585938 227.566406 297.003906 226.214844 298.359375 C 224.859375 299.714844 223.441406 301 221.960938 302.214844 C 220.480469 303.429688 218.941406 304.570312 217.351562 305.632812 C 215.757812 306.699219 214.117188 307.679688 212.425781 308.585938 C 210.738281 309.488281 209.007812 310.304688 207.238281 311.039062 C 205.46875 311.769531 203.664062 312.417969 201.832031 312.972656 C 200 313.527344 198.144531 313.992188 196.265625 314.367188 C 194.386719 314.742188 192.492188 315.019531 190.585938 315.210938 C 188.679688 315.398438 186.769531 315.492188 184.851562 315.492188 C 182.9375 315.492188 181.027344 315.398438 179.121094 315.210938 C 177.214844 315.019531 175.320312 314.742188 173.441406 314.367188 C 171.5625 313.992188 169.707031 313.527344 167.875 312.972656 C 166.039062 312.417969 164.238281 311.769531 162.46875 311.039062 C 160.699219 310.304688 158.96875 309.488281 157.28125 308.585938 C 155.589844 307.679688 153.949219 306.699219 152.355469 305.632812 C 150.765625 304.570312 149.226562 303.429688 147.746094 302.214844 C 146.265625 301 144.847656 299.714844 143.492188 298.359375 C 142.136719 297.003906 140.851562 295.585938 139.636719 294.105469 C 138.421875 292.625 137.28125 291.089844 136.21875 289.496094 C 135.15625 287.902344 134.171875 286.261719 133.269531 284.570312 C 132.363281 282.882812 131.546875 281.152344 130.8125 279.382812 C 130.082031 277.613281 129.4375 275.8125 128.878906 273.976562 C 128.324219 272.144531 127.859375 270.289062 127.484375 268.410156 C 127.109375 266.53125 126.832031 264.636719 126.644531 262.730469 C 126.453125 260.824219 126.359375 258.914062 126.359375 257 C 126.359375 255.082031 126.453125 253.171875 126.644531 251.265625 C 126.832031 249.359375 127.109375 247.464844 127.484375 245.585938 C 127.859375 243.707031 128.324219 241.851562 128.878906 240.019531 C 129.4375 238.1875 130.082031 236.382812 130.8125 234.613281 C 131.546875 232.84375 132.363281 231.113281 133.269531 229.425781 C 134.171875 227.734375 135.15625 226.09375 136.21875 224.5 C 137.28125 222.910156 138.421875 221.371094 139.636719 219.890625 C 140.851562 218.410156 142.136719 216.992188 143.492188 215.636719 C 144.847656 214.285156 146.265625 213 147.746094 211.785156 C 149.226562 210.566406 150.765625 209.429688 152.355469 208.363281 C 153.949219 207.300781 155.589844 206.316406 157.28125 205.414062 C 158.96875 204.511719 160.699219 203.691406 162.46875 202.957031 C 164.238281 202.226562 166.039062 201.582031 167.875 201.023438 C 169.707031 200.46875 171.5625 200.003906 173.441406 199.628906 C 175.320312 199.257812 177.214844 198.976562 179.121094 198.789062 C 181.027344 198.601562 182.9375 198.507812 184.851562 198.507812 C 186.769531 198.507812 188.679688 198.601562 190.585938 198.789062 C 192.492188 198.976562 194.386719 199.257812 196.265625 199.628906 C 198.144531 200.003906 200 200.46875 201.832031 201.023438 C 203.664062 201.582031 205.46875 202.226562 207.238281 202.957031 C 209.007812 203.691406 210.738281 204.511719 212.425781 205.414062 C 214.117188 206.316406 215.757812 207.300781 217.351562 208.363281 C 218.941406 209.429688 220.480469 210.566406 221.960938 211.785156 C 223.441406 213 224.859375 214.285156 226.214844 215.636719 C 227.566406 216.992188 228.851562 218.410156 230.070312 219.890625 C 231.285156 221.371094 232.421875 222.910156 233.488281 224.5 C 234.550781 226.09375 235.535156 227.734375 236.4375 229.425781 C 237.34375 231.113281 238.160156 232.84375 238.894531 234.613281 C 239.625 236.382812 240.269531 238.1875 240.828125 240.019531 C 241.382812 241.851562 241.847656 243.707031 242.222656 245.585938 C 242.59375 247.464844 242.875 249.359375 243.0625 251.265625 C 243.25 253.171875 243.34375 255.082031 243.34375 257 Z M 243.34375 257 " fill-opacity="1" fill-rule="nonzero"/></g><g clip-path="url(#e2f5763d7c)"><path fill="#38b6ff" d="M 161.359375 239.195312 C 173.957031 243.304688 186.316406 249.566406 199.566406 249.3125 C 211.179688 249.089844 222.226562 243.761719 231.292969 236.503906 C 233.394531 234.824219 235.402344 233.039062 237.34375 231.179688 C 236.140625 228.742188 234.777344 226.394531 233.253906 224.148438 C 231.726562 221.898438 230.050781 219.765625 228.226562 217.75 C 226.402344 215.734375 224.445312 213.855469 222.359375 212.113281 C 220.273438 210.371094 218.078125 208.78125 215.769531 207.34375 C 213.460938 205.90625 211.066406 204.636719 208.582031 203.535156 C 206.097656 202.433594 203.546875 201.507812 200.933594 200.761719 C 198.320312 200.011719 195.667969 199.449219 192.976562 199.074219 C 190.285156 198.695312 187.578125 198.507812 184.859375 198.507812 C 159.132812 198.507812 137.292969 215.109375 129.457031 238.171875 C 139.132812 234.15625 151.070312 235.835938 161.359375 239.195312 Z M 161.359375 239.195312 " fill-opacity="1" fill-rule="nonzero"/></g><g clip-path="url(#39750e6849)"><path fill="#38b6ff" d="M 180.625 258.488281 C 169.851562 258.039062 158.144531 255.503906 148.949219 261.121094 C 140.601562 266.203125 137.015625 276.855469 137.664062 286.601562 C 137.804688 288.644531 138.085938 290.671875 138.503906 292.679688 C 139.867188 294.449219 141.324219 296.136719 142.875 297.738281 C 144.429688 299.339844 146.070312 300.851562 147.796875 302.265625 C 149.523438 303.679688 151.324219 304.992188 153.203125 306.199219 C 155.078125 307.40625 157.019531 308.503906 159.023438 309.492188 C 161.027344 310.476562 163.078125 311.34375 165.179688 312.09375 C 167.285156 312.84375 169.421875 313.472656 171.597656 313.976562 C 173.769531 314.480469 175.96875 314.863281 178.183594 315.113281 C 180.402344 315.367188 182.628906 315.492188 184.859375 315.492188 C 217.164062 315.492188 243.359375 289.300781 243.359375 256.992188 C 243.371094 249.324219 241.921875 241.941406 239.019531 234.847656 C 224.082031 250.515625 202.25 259.390625 180.625 258.488281 Z M 180.625 258.488281 " fill-opacity="1" fill-rule="nonzero"/></g></svg>