<svg xmlns="http://www.w3.org/2000/svg" xmlns:xlink="http://www.w3.org/1999/xlink" width="480" zoomAndPan="magnify" viewBox="0 0 360 503.999982" height="672" preserveAspectRatio="xMidYMid meet" version="1.0"><defs><filter x="0%" y="0%" width="100%" height="100%" id="1f7ad87bf8"><feColorMatrix values="0 0 0 0 1 0 0 0 0 1 0 0 0 0 1 0 0 0 1 0" color-interpolation-filters="sRGB"/></filter><mask id="1aaca16b86"><g filter="url(#1f7ad87bf8)"><rect x="-36" width="432" fill="#000000" y="-50.399998" height="604.799979" fill-opacity="0.1373"/></g></mask><clipPath id="d408bd2215"><path d="M 0 0 L 1 0 L 1 432.847656 L 0 432.847656 Z M 0 0 " clip-rule="nonzero"/></clipPath><clipPath id="e394531d10"><path d="M 0 0 L 18 0 L 18 432.847656 L 0 432.847656 Z M 0 0 " clip-rule="nonzero"/></clipPath><clipPath id="29f8b9fdec"><path d="M 0 0 L 35 0 L 35 432.847656 L 0 432.847656 Z M 0 0 " clip-rule="nonzero"/></clipPath><clipPath id="54a81a7736"><path d="M 0 0 L 53 0 L 53 432.847656 L 0 432.847656 Z M 0 0 " clip-rule="nonzero"/></clipPath><clipPath id="5e0d425f06"><path d="M 0 0 L 70 0 L 70 432.847656 L 0 432.847656 Z M 0 0 " clip-rule="nonzero"/></clipPath><clipPath id="1da0a1ecaa"><path d="M 0 0 L 88 0 L 88 432.847656 L 0 432.847656 Z M 0 0 " clip-rule="nonzero"/></clipPath><clipPath id="f4426d4bba"><path d="M 0 0 L 105 0 L 105 432.847656 L 0 432.847656 Z M 0 0 " clip-rule="nonzero"/></clipPath><clipPath id="52505f81e8"><path d="M 0 0 L 122 0 L 122 432.847656 L 0 432.847656 Z M 0 0 " clip-rule="nonzero"/></clipPath><clipPath id="8c341790f7"><path d="M 0 0 L 140 0 L 140 432.847656 L 0 432.847656 Z M 0 0 " clip-rule="nonzero"/></clipPath><clipPath id="1f6273725e"><path d="M 0 0 L 157 0 L 157 432.847656 L 0 432.847656 Z M 0 0 " clip-rule="nonzero"/></clipPath><clipPath id="525e278c7b"><path d="M 0 0 L 175 0 L 175 432.847656 L 0 432.847656 Z M 0 0 " clip-rule="nonzero"/></clipPath><clipPath id="958d668263"><path d="M 0 0 L 192 0 L 192 432.847656 L 0 432.847656 Z M 0 0 " clip-rule="nonzero"/></clipPath><clipPath id="2a1f62853e"><path d="M 0 0 L 208.722656 0 L 208.722656 432.847656 L 0 432.847656 Z M 0 0 " clip-rule="nonzero"/></clipPath><clipPath id="cb7b3b1868"><rect x="0" width="209" y="0" height="434"/></clipPath><mask id="deac061f52"><g filter="url(#1f7ad87bf8)"><rect x="-36" width="432" fill="#000000" y="-50.399998" height="604.799979" fill-opacity="0.1373"/></g></mask><clipPath id="24ca47777f"><path d="M 0 0.203125 L 197 0.203125 L 197 498 L 0 498 Z M 0 0.203125 " clip-rule="nonzero"/></clipPath><clipPath id="821b05d884"><path d="M 0 0.203125 L 214 0.203125 L 214 498 L 0 498 Z M 0 0.203125 " clip-rule="nonzero"/></clipPath><clipPath id="24f1733589"><path d="M 12 0.203125 L 232 0.203125 L 232 498 L 12 498 Z M 12 0.203125 " clip-rule="nonzero"/></clipPath><clipPath id="b895109f88"><path d="M 29 0.203125 L 249 0.203125 L 249 498 L 29 498 Z M 29 0.203125 " clip-rule="nonzero"/></clipPath><clipPath id="02661c0031"><path d="M 47 0.203125 L 267 0.203125 L 267 498 L 47 498 Z M 47 0.203125 " clip-rule="nonzero"/></clipPath><clipPath id="6d2fc8de03"><path d="M 64 0.203125 L 284 0.203125 L 284 498 L 64 498 Z M 64 0.203125 " clip-rule="nonzero"/></clipPath><clipPath id="03bc52a496"><path d="M 81 0.203125 L 301 0.203125 L 301 498 L 81 498 Z M 81 0.203125 " clip-rule="nonzero"/></clipPath><clipPath id="8a45fe5471"><path d="M 99 0.203125 L 319 0.203125 L 319 498 L 99 498 Z M 99 0.203125 " clip-rule="nonzero"/></clipPath><clipPath id="1807cf4c3e"><path d="M 116 0.203125 L 336 0.203125 L 336 498 L 116 498 Z M 116 0.203125 " clip-rule="nonzero"/></clipPath><clipPath id="311982f6a9"><path d="M 134 0.203125 L 354 0.203125 L 354 498 L 134 498 Z M 134 0.203125 " clip-rule="nonzero"/></clipPath><clipPath id="ee1b8cf81c"><path d="M 151 0.203125 L 360 0.203125 L 360 498 L 151 498 Z M 151 0.203125 " clip-rule="nonzero"/></clipPath><clipPath id="6acc2c5fa6"><path d="M 168 0.203125 L 360 0.203125 L 360 498 L 168 498 Z M 168 0.203125 " clip-rule="nonzero"/></clipPath><clipPath id="6693355871"><path d="M 186 0.203125 L 360 0.203125 L 360 498 L 186 498 Z M 186 0.203125 " clip-rule="nonzero"/></clipPath><clipPath id="b440e16ff5"><path d="M 203 0.203125 L 360 0.203125 L 360 498 L 203 498 Z M 203 0.203125 " clip-rule="nonzero"/></clipPath><clipPath id="fabb8c7544"><path d="M 221 0.203125 L 360 0.203125 L 360 498 L 221 498 Z M 221 0.203125 " clip-rule="nonzero"/></clipPath><clipPath id="28ea64b066"><rect x="0" width="360" y="0" height="498"/></clipPath><mask id="ca67ede893"><g filter="url(#1f7ad87bf8)"><rect x="-36" width="432" fill="#000000" y="-50.399998" height="604.799979" fill-opacity="0.1373"/></g></mask><clipPath id="9796aecc2f"><path d="M 0.222656 1 L 122 1 L 122 501.648438 L 0.222656 501.648438 Z M 0.222656 1 " clip-rule="nonzero"/></clipPath><clipPath id="34e51aedc6"><path d="M 17 1 L 122 1 L 122 501.648438 L 17 501.648438 Z M 17 1 " clip-rule="nonzero"/></clipPath><clipPath id="319a789f5a"><path d="M 35 1 L 122 1 L 122 501.648438 L 35 501.648438 Z M 35 1 " clip-rule="nonzero"/></clipPath><clipPath id="ee382bec1d"><path d="M 52 1 L 122 1 L 122 501.648438 L 52 501.648438 Z M 52 1 " clip-rule="nonzero"/></clipPath><clipPath id="6e80eda1fb"><path d="M 70 1 L 122 1 L 122 501.648438 L 70 501.648438 Z M 70 1 " clip-rule="nonzero"/></clipPath><clipPath id="094826bce6"><path d="M 87 1 L 122 1 L 122 501.648438 L 87 501.648438 Z M 87 1 " clip-rule="nonzero"/></clipPath><clipPath id="350f7b5dea"><path d="M 104 1 L 122 1 L 122 501.648438 L 104 501.648438 Z M 104 1 " clip-rule="nonzero"/></clipPath><clipPath id="356d43f822"><rect x="0" width="122" y="0" height="502"/></clipPath><clipPath id="4f2ac6b747"><path d="M 28.015625 36 L 331.765625 36 L 331.765625 468 L 28.015625 468 Z M 28.015625 36 " clip-rule="nonzero"/></clipPath><clipPath id="74d86e3b3d"><path d="M 100.863281 177.742188 L 259.113281 177.742188 L 259.113281 335.992188 L 100.863281 335.992188 Z M 100.863281 177.742188 " clip-rule="nonzero"/></clipPath><clipPath id="0f0aa4daf8"><path d="M 105 177.742188 L 251 177.742188 L 251 247 L 105 247 Z M 105 177.742188 " clip-rule="nonzero"/></clipPath><clipPath id="98ed553936"><path d="M 116 226 L 259.113281 226 L 259.113281 335.992188 L 116 335.992188 Z M 116 226 " clip-rule="nonzero"/></clipPath></defs><rect x="-36" width="432" fill="#ffffff" y="-50.399998" height="604.799979" fill-opacity="1"/><rect x="-36" width="432" fill="#323232" y="-50.399998" height="604.799979" fill-opacity="1"/><g mask="url(#1aaca16b86)"><g transform="matrix(1, 0, 0, 1, 0, 0)"><g clip-path="url(#cb7b3b1868)"><g clip-path="url(#d408bd2215)"><path fill="#000000" d="M -217.589844 432.296875 L -219.066406 431.664062 L -1.417969 -67.574219 L 0.0507812 -66.9375 Z M -217.589844 432.296875 " fill-opacity="1" fill-rule="nonzero"/></g><g clip-path="url(#e394531d10)"><path fill="#000000" d="M -200.175781 432.296875 L -201.652344 431.664062 L 15.992188 -67.574219 L 17.460938 -66.9375 Z M -200.175781 432.296875 " fill-opacity="1" fill-rule="nonzero"/></g><g clip-path="url(#29f8b9fdec)"><path fill="#000000" d="M -182.765625 432.296875 L -184.242188 431.664062 L 33.40625 -67.574219 L 34.875 -66.9375 Z M -182.765625 432.296875 " fill-opacity="1" fill-rule="nonzero"/></g><g clip-path="url(#54a81a7736)"><path fill="#000000" d="M -165.359375 432.296875 L -166.828125 431.664062 L 50.816406 -67.574219 L 52.289062 -66.9375 Z M -165.359375 432.296875 " fill-opacity="1" fill-rule="nonzero"/></g><g clip-path="url(#5e0d425f06)"><path fill="#000000" d="M -147.945312 432.296875 L -149.421875 431.664062 L 68.222656 -67.574219 L 69.699219 -66.9375 Z M -147.945312 432.296875 " fill-opacity="1" fill-rule="nonzero"/></g><g clip-path="url(#1da0a1ecaa)"><path fill="#000000" d="M -130.535156 432.296875 L -132.011719 431.664062 L 85.636719 -67.574219 L 87.113281 -66.9375 Z M -130.535156 432.296875 " fill-opacity="1" fill-rule="nonzero"/></g><g clip-path="url(#f4426d4bba)"><path fill="#000000" d="M -113.121094 432.296875 L -114.597656 431.664062 L 103.050781 -67.574219 L 104.523438 -66.9375 Z M -113.121094 432.296875 " fill-opacity="1" fill-rule="nonzero"/></g><g clip-path="url(#52505f81e8)"><path fill="#000000" d="M -95.707031 432.296875 L -97.183594 431.664062 L 120.460938 -67.574219 L 121.929688 -66.9375 Z M -95.707031 432.296875 " fill-opacity="1" fill-rule="nonzero"/></g><g clip-path="url(#8c341790f7)"><path fill="#000000" d="M -78.304688 432.296875 L -79.773438 431.664062 L 137.875 -67.574219 L 139.34375 -66.9375 Z M -78.304688 432.296875 " fill-opacity="1" fill-rule="nonzero"/></g><g clip-path="url(#1f6273725e)"><path fill="#000000" d="M -60.890625 432.296875 L -62.359375 431.664062 L 155.28125 -67.574219 L 156.757812 -66.9375 Z M -60.890625 432.296875 " fill-opacity="1" fill-rule="nonzero"/></g><g clip-path="url(#525e278c7b)"><path fill="#000000" d="M -43.476562 432.296875 L -44.949219 431.664062 L 172.691406 -67.574219 L 174.167969 -66.9375 Z M -43.476562 432.296875 " fill-opacity="1" fill-rule="nonzero"/></g><g clip-path="url(#958d668263)"><path fill="#000000" d="M -26.066406 432.296875 L -27.535156 431.664062 L 190.105469 -67.574219 L 191.582031 -66.9375 Z M -26.066406 432.296875 " fill-opacity="1" fill-rule="nonzero"/></g><g clip-path="url(#2a1f62853e)"><path fill="#000000" d="M -8.652344 432.296875 L -10.128906 431.664062 L 207.515625 -67.574219 L 208.992188 -66.9375 Z M -8.652344 432.296875 " fill-opacity="1" fill-rule="nonzero"/></g></g></g></g><g mask="url(#deac061f52)"><g transform="matrix(1, 0, 0, 1, 0, 6)"><g clip-path="url(#28ea64b066)"><g clip-path="url(#24ca47777f)"><path fill="#000000" d="M -21.167969 500.652344 L -22.636719 500.015625 L 195.003906 0.78125 L 196.480469 1.414062 Z M -21.167969 500.652344 " fill-opacity="1" fill-rule="nonzero"/></g><g clip-path="url(#821b05d884)"><path fill="#000000" d="M -3.753906 500.652344 L -5.230469 500.015625 L 212.414062 0.78125 L 213.890625 1.414062 Z M -3.753906 500.652344 " fill-opacity="1" fill-rule="nonzero"/></g><g clip-path="url(#24f1733589)"><path fill="#000000" d="M 13.65625 500.652344 L 12.183594 500.015625 L 229.828125 0.78125 L 231.296875 1.414062 Z M 13.65625 500.652344 " fill-opacity="1" fill-rule="nonzero"/></g><g clip-path="url(#b895109f88)"><path fill="#000000" d="M 31.070312 500.652344 L 29.59375 500.015625 L 247.242188 0.78125 L 248.710938 1.414062 Z M 31.070312 500.652344 " fill-opacity="1" fill-rule="nonzero"/></g><g clip-path="url(#02661c0031)"><path fill="#000000" d="M 48.484375 500.652344 L 47.007812 500.015625 L 264.652344 0.78125 L 266.125 1.414062 Z M 48.484375 500.652344 " fill-opacity="1" fill-rule="nonzero"/></g><g clip-path="url(#6d2fc8de03)"><path fill="#000000" d="M 65.890625 500.652344 L 64.417969 500.015625 L 282.066406 0.78125 L 283.535156 1.414062 Z M 65.890625 500.652344 " fill-opacity="1" fill-rule="nonzero"/></g><g clip-path="url(#03bc52a496)"><path fill="#000000" d="M 83.300781 500.652344 L 81.824219 500.015625 L 299.472656 0.78125 L 300.949219 1.414062 Z M 83.300781 500.652344 " fill-opacity="1" fill-rule="nonzero"/></g><g clip-path="url(#8a45fe5471)"><path fill="#000000" d="M 100.714844 500.652344 L 99.238281 500.015625 L 316.882812 0.78125 L 318.359375 1.414062 Z M 100.714844 500.652344 " fill-opacity="1" fill-rule="nonzero"/></g><g clip-path="url(#1807cf4c3e)"><path fill="#000000" d="M 118.125 500.652344 L 116.652344 500.015625 L 334.296875 0.78125 L 335.773438 1.414062 Z M 118.125 500.652344 " fill-opacity="1" fill-rule="nonzero"/></g><g clip-path="url(#311982f6a9)"><path fill="#000000" d="M 135.539062 500.652344 L 134.0625 500.015625 L 351.710938 0.78125 L 353.179688 1.414062 Z M 135.539062 500.652344 " fill-opacity="1" fill-rule="nonzero"/></g><g clip-path="url(#ee1b8cf81c)"><path fill="#000000" d="M 152.945312 500.652344 L 151.476562 500.015625 L 369.121094 0.78125 L 370.589844 1.414062 Z M 152.945312 500.652344 " fill-opacity="1" fill-rule="nonzero"/></g><g clip-path="url(#6acc2c5fa6)"><path fill="#000000" d="M 170.359375 500.652344 L 168.886719 500.015625 L 386.527344 0.78125 L 388.003906 1.414062 Z M 170.359375 500.652344 " fill-opacity="1" fill-rule="nonzero"/></g><g clip-path="url(#6693355871)"><path fill="#000000" d="M 187.769531 500.652344 L 186.300781 500.015625 L 403.941406 0.78125 L 405.417969 1.414062 Z M 187.769531 500.652344 " fill-opacity="1" fill-rule="nonzero"/></g><g clip-path="url(#b440e16ff5)"><path fill="#000000" d="M 205.183594 500.652344 L 203.710938 500.015625 L 421.351562 0.78125 L 422.828125 1.414062 Z M 205.183594 500.652344 " fill-opacity="1" fill-rule="nonzero"/></g><g clip-path="url(#fabb8c7544)"><path fill="#000000" d="M 222.59375 500.652344 L 221.117188 500.015625 L 438.765625 0.78125 L 440.242188 1.414062 Z M 222.59375 500.652344 " fill-opacity="1" fill-rule="nonzero"/></g></g></g></g><g mask="url(#ca67ede893)"><g transform="matrix(1, 0, 0, 1, 238, 2)"><g clip-path="url(#356d43f822)"><g clip-path="url(#9796aecc2f)"><path fill="#000000" d="M 1.832031 501.097656 L 0.363281 500.460938 L 218.003906 1.226562 L 219.480469 1.859375 Z M 1.832031 501.097656 " fill-opacity="1" fill-rule="nonzero"/></g><g clip-path="url(#34e51aedc6)"><path fill="#000000" d="M 19.246094 501.097656 L 17.769531 500.460938 L 235.414062 1.226562 L 236.890625 1.859375 Z M 19.246094 501.097656 " fill-opacity="1" fill-rule="nonzero"/></g><g clip-path="url(#319a789f5a)"><path fill="#000000" d="M 36.65625 501.097656 L 35.183594 500.460938 L 252.828125 1.226562 L 254.296875 1.859375 Z M 36.65625 501.097656 " fill-opacity="1" fill-rule="nonzero"/></g><g clip-path="url(#ee382bec1d)"><path fill="#000000" d="M 54.070312 501.097656 L 52.59375 500.460938 L 270.242188 1.226562 L 271.710938 1.859375 Z M 54.070312 501.097656 " fill-opacity="1" fill-rule="nonzero"/></g><g clip-path="url(#6e80eda1fb)"><path fill="#000000" d="M 71.484375 501.097656 L 70.007812 500.460938 L 287.652344 1.226562 L 289.125 1.859375 Z M 71.484375 501.097656 " fill-opacity="1" fill-rule="nonzero"/></g><g clip-path="url(#094826bce6)"><path fill="#000000" d="M 88.890625 501.097656 L 87.417969 500.460938 L 305.066406 1.226562 L 306.535156 1.859375 Z M 88.890625 501.097656 " fill-opacity="1" fill-rule="nonzero"/></g><g clip-path="url(#350f7b5dea)"><path fill="#000000" d="M 106.300781 501.097656 L 104.824219 500.460938 L 322.472656 1.226562 L 323.949219 1.859375 Z M 106.300781 501.097656 " fill-opacity="1" fill-rule="nonzero"/></g></g></g></g><g clip-path="url(#4f2ac6b747)"><path fill="#38b6ff" d="M 331.601562 467.976562 L 28.1875 467.976562 L 28.1875 36 L 331.601562 36 Z M 29.066406 467.097656 L 330.722656 467.097656 L 330.722656 36.878906 L 29.066406 36.878906 Z M 29.066406 467.097656 " fill-opacity="1" fill-rule="nonzero"/></g><g clip-path="url(#74d86e3b3d)"><path fill="#ffffff" d="M 259.09375 256.855469 C 259.09375 258.152344 259.0625 259.445312 258.996094 260.738281 C 258.933594 262.03125 258.839844 263.324219 258.710938 264.609375 C 258.585938 265.898438 258.425781 267.183594 258.238281 268.464844 C 258.046875 269.746094 257.824219 271.019531 257.574219 272.289062 C 257.320312 273.5625 257.035156 274.824219 256.722656 276.078125 C 256.40625 277.335938 256.0625 278.582031 255.6875 279.820312 C 255.308594 281.0625 254.90625 282.289062 254.46875 283.507812 C 254.03125 284.726562 253.566406 285.9375 253.070312 287.132812 C 252.574219 288.328125 252.050781 289.511719 251.496094 290.683594 C 250.945312 291.851562 250.363281 293.007812 249.75 294.152344 C 249.140625 295.292969 248.503906 296.417969 247.835938 297.53125 C 247.171875 298.640625 246.480469 299.734375 245.757812 300.808594 C 245.039062 301.886719 244.296875 302.945312 243.523438 303.984375 C 242.753906 305.023438 241.957031 306.046875 241.132812 307.046875 C 240.3125 308.046875 239.46875 309.027344 238.597656 309.988281 C 237.730469 310.945312 236.835938 311.882812 235.921875 312.800781 C 235.003906 313.714844 234.066406 314.605469 233.109375 315.476562 C 232.148438 316.347656 231.167969 317.191406 230.167969 318.011719 C 229.167969 318.835938 228.148438 319.628906 227.105469 320.402344 C 226.066406 321.171875 225.007812 321.917969 223.933594 322.636719 C 222.855469 323.355469 221.761719 324.050781 220.652344 324.714844 C 219.539062 325.382812 218.414062 326.019531 217.273438 326.628906 C 216.128906 327.238281 214.976562 327.820312 213.804688 328.375 C 212.632812 328.929688 211.449219 329.453125 210.253906 329.949219 C 209.058594 330.445312 207.851562 330.910156 206.632812 331.347656 C 205.414062 331.78125 204.183594 332.1875 202.945312 332.5625 C 201.703125 332.941406 200.457031 333.285156 199.203125 333.601562 C 197.945312 333.914062 196.683594 334.199219 195.414062 334.449219 C 194.144531 334.703125 192.867188 334.925781 191.585938 335.113281 C 190.304688 335.304688 189.019531 335.464844 187.734375 335.589844 C 186.445312 335.71875 185.152344 335.8125 183.859375 335.875 C 182.566406 335.9375 181.273438 335.972656 179.976562 335.972656 C 178.683594 335.972656 177.390625 335.9375 176.097656 335.875 C 174.804688 335.8125 173.511719 335.71875 172.222656 335.589844 C 170.933594 335.464844 169.652344 335.304688 168.371094 335.113281 C 167.089844 334.925781 165.8125 334.703125 164.542969 334.449219 C 163.273438 334.199219 162.011719 333.914062 160.753906 333.601562 C 159.5 333.285156 158.25 332.941406 157.011719 332.5625 C 155.773438 332.1875 154.542969 331.78125 153.324219 331.347656 C 152.105469 330.910156 150.898438 330.445312 149.703125 329.949219 C 148.507812 329.453125 147.324219 328.929688 146.152344 328.375 C 144.980469 327.820312 143.824219 327.238281 142.683594 326.628906 C 141.542969 326.019531 140.414062 325.382812 139.304688 324.714844 C 138.195312 324.050781 137.101562 323.355469 136.023438 322.636719 C 134.949219 321.917969 133.890625 321.171875 132.851562 320.402344 C 131.808594 319.628906 130.789062 318.835938 129.789062 318.011719 C 128.789062 317.191406 127.808594 316.347656 126.847656 315.476562 C 125.890625 314.605469 124.953125 313.714844 124.035156 312.800781 C 123.121094 311.882812 122.226562 310.945312 121.359375 309.988281 C 120.488281 309.027344 119.644531 308.046875 118.820312 307.046875 C 118 306.046875 117.203125 305.023438 116.433594 303.984375 C 115.660156 302.945312 114.917969 301.886719 114.195312 300.808594 C 113.476562 299.734375 112.785156 298.640625 112.121094 297.53125 C 111.453125 296.417969 110.816406 295.292969 110.207031 294.152344 C 109.59375 293.007812 109.011719 291.851562 108.460938 290.683594 C 107.90625 289.511719 107.382812 288.328125 106.886719 287.132812 C 106.390625 285.9375 105.925781 284.726562 105.488281 283.507812 C 105.050781 282.289062 104.644531 281.0625 104.269531 279.820312 C 103.894531 278.582031 103.550781 277.335938 103.234375 276.078125 C 102.921875 274.824219 102.636719 273.5625 102.382812 272.289062 C 102.132812 271.019531 101.910156 269.746094 101.71875 268.464844 C 101.53125 267.183594 101.371094 265.898438 101.246094 264.609375 C 101.117188 263.324219 101.023438 262.03125 100.957031 260.738281 C 100.894531 259.445312 100.863281 258.152344 100.863281 256.855469 C 100.863281 255.5625 100.894531 254.269531 100.957031 252.972656 C 101.023438 251.679688 101.117188 250.390625 101.246094 249.101562 C 101.371094 247.8125 101.53125 246.527344 101.71875 245.246094 C 101.910156 243.96875 102.132812 242.691406 102.382812 241.421875 C 102.636719 240.152344 102.921875 238.890625 103.234375 237.632812 C 103.550781 236.378906 103.894531 235.128906 104.269531 233.890625 C 104.644531 232.652344 105.050781 231.421875 105.488281 230.203125 C 105.925781 228.984375 106.390625 227.777344 106.886719 226.582031 C 107.382812 225.382812 107.90625 224.199219 108.460938 223.03125 C 109.011719 221.859375 109.59375 220.703125 110.207031 219.5625 C 110.816406 218.421875 111.453125 217.292969 112.121094 216.183594 C 112.785156 215.074219 113.476562 213.980469 114.195312 212.902344 C 114.917969 211.824219 115.660156 210.769531 116.433594 209.726562 C 117.203125 208.6875 118 207.667969 118.820312 206.667969 C 119.644531 205.664062 120.488281 204.6875 121.359375 203.726562 C 122.226562 202.765625 123.121094 201.828125 124.035156 200.914062 C 124.953125 200 125.890625 199.105469 126.847656 198.238281 C 127.808594 197.367188 128.789062 196.519531 129.789062 195.699219 C 130.789062 194.878906 131.808594 194.082031 132.851562 193.3125 C 133.890625 192.539062 134.949219 191.792969 136.023438 191.074219 C 137.101562 190.355469 138.195312 189.664062 139.304688 188.996094 C 140.414062 188.332031 141.542969 187.695312 142.683594 187.082031 C 143.824219 186.472656 144.980469 185.890625 146.152344 185.335938 C 147.324219 184.785156 148.507812 184.257812 149.703125 183.765625 C 150.898438 183.269531 152.105469 182.800781 153.324219 182.367188 C 154.542969 181.929688 155.773438 181.523438 157.011719 181.148438 C 158.25 180.773438 159.5 180.425781 160.753906 180.113281 C 162.011719 179.796875 163.273438 179.515625 164.542969 179.261719 C 165.8125 179.007812 167.089844 178.789062 168.371094 178.597656 C 169.652344 178.40625 170.933594 178.25 172.222656 178.121094 C 173.511719 177.996094 174.804688 177.902344 176.097656 177.835938 C 177.390625 177.773438 178.683594 177.742188 179.976562 177.742188 C 181.273438 177.742188 182.566406 177.773438 183.859375 177.835938 C 185.152344 177.902344 186.445312 177.996094 187.734375 178.121094 C 189.019531 178.25 190.304688 178.40625 191.585938 178.597656 C 192.867188 178.789062 194.144531 179.007812 195.414062 179.261719 C 196.683594 179.515625 197.945312 179.796875 199.203125 180.113281 C 200.457031 180.425781 201.703125 180.773438 202.945312 181.148438 C 204.183594 181.523438 205.414062 181.929688 206.632812 182.367188 C 207.851562 182.800781 209.058594 183.269531 210.253906 183.765625 C 211.449219 184.257812 212.632812 184.785156 213.804688 185.335938 C 214.976562 185.890625 216.128906 186.472656 217.273438 187.082031 C 218.414062 187.695312 219.539062 188.332031 220.652344 188.996094 C 221.761719 189.664062 222.855469 190.355469 223.933594 191.074219 C 225.007812 191.792969 226.066406 192.539062 227.105469 193.3125 C 228.148438 194.082031 229.167969 194.878906 230.167969 195.699219 C 231.167969 196.519531 232.148438 197.367188 233.109375 198.238281 C 234.066406 199.105469 235.003906 200 235.921875 200.914062 C 236.835938 201.828125 237.730469 202.765625 238.597656 203.726562 C 239.46875 204.6875 240.3125 205.664062 241.132812 206.667969 C 241.957031 207.667969 242.753906 208.6875 243.523438 209.726562 C 244.296875 210.769531 245.039062 211.824219 245.757812 212.902344 C 246.480469 213.980469 247.171875 215.074219 247.835938 216.183594 C 248.503906 217.292969 249.140625 218.421875 249.75 219.5625 C 250.363281 220.703125 250.945312 221.859375 251.496094 223.03125 C 252.050781 224.199219 252.574219 225.382812 253.070312 226.582031 C 253.566406 227.777344 254.03125 228.984375 254.46875 230.203125 C 254.90625 231.421875 255.308594 232.652344 255.6875 233.890625 C 256.0625 235.128906 256.40625 236.378906 256.722656 237.632812 C 257.035156 238.890625 257.320312 240.152344 257.574219 241.421875 C 257.824219 242.691406 258.046875 243.96875 258.238281 245.246094 C 258.425781 246.527344 258.585938 247.8125 258.710938 249.101562 C 258.839844 250.390625 258.933594 251.679688 258.996094 252.972656 C 259.0625 254.269531 259.09375 255.5625 259.09375 256.855469 Z M 259.09375 256.855469 " fill-opacity="1" fill-rule="nonzero"/></g><g clip-path="url(#0f0aa4daf8)"><path fill="#38b6ff" d="M 148.199219 232.777344 C 165.242188 238.335938 181.957031 246.804688 199.878906 246.460938 C 215.585938 246.160156 230.527344 238.953125 242.792969 229.136719 C 245.636719 226.863281 248.351562 224.449219 250.972656 221.933594 C 250.164062 220.285156 249.296875 218.667969 248.371094 217.082031 C 247.449219 215.496094 246.472656 213.941406 245.441406 212.421875 C 244.410156 210.902344 243.328125 209.421875 242.191406 207.980469 C 241.058594 206.535156 239.875 205.132812 238.640625 203.769531 C 237.410156 202.410156 236.132812 201.09375 234.808594 199.820312 C 233.484375 198.546875 232.117188 197.324219 230.710938 196.144531 C 229.300781 194.96875 227.851562 193.84375 226.363281 192.765625 C 224.878906 191.6875 223.355469 190.664062 221.796875 189.695312 C 220.238281 188.726562 218.644531 187.808594 217.023438 186.949219 C 215.402344 186.089844 213.75 185.289062 212.074219 184.542969 C 210.394531 183.800781 208.691406 183.113281 206.964844 182.488281 C 205.238281 181.859375 203.496094 181.296875 201.730469 180.789062 C 199.964844 180.285156 198.183594 179.84375 196.386719 179.460938 C 194.589844 179.082031 192.785156 178.761719 190.964844 178.507812 C 189.148438 178.253906 187.320312 178.0625 185.492188 177.933594 C 183.660156 177.804688 181.824219 177.742188 179.988281 177.742188 C 145.191406 177.742188 115.652344 200.199219 105.050781 231.394531 C 118.140625 225.964844 134.285156 228.234375 148.199219 232.777344 Z M 148.199219 232.777344 " fill-opacity="1" fill-rule="nonzero"/></g><g clip-path="url(#98ed553936)"><path fill="#38b6ff" d="M 174.261719 258.871094 C 159.6875 258.261719 143.855469 254.835938 131.414062 262.433594 C 120.125 269.304688 115.277344 283.714844 116.152344 296.894531 C 116.34375 299.660156 116.722656 302.402344 117.289062 305.117188 C 119.128906 307.511719 121.101562 309.792969 123.203125 311.960938 C 125.304688 314.128906 127.523438 316.167969 129.855469 318.082031 C 132.191406 319.996094 134.628906 321.769531 137.167969 323.402344 C 139.707031 325.039062 142.332031 326.523438 145.039062 327.855469 C 147.75 329.1875 150.527344 330.363281 153.371094 331.378906 C 156.214844 332.390625 159.105469 333.242188 162.046875 333.925781 C 164.988281 334.605469 167.960938 335.121094 170.960938 335.460938 C 173.960938 335.804688 176.96875 335.972656 179.988281 335.972656 C 223.679688 335.972656 259.113281 300.546875 259.113281 256.847656 C 259.125 246.476562 257.167969 236.492188 253.238281 226.894531 C 233.035156 248.089844 203.507812 260.09375 174.261719 258.871094 Z M 174.261719 258.871094 " fill-opacity="1" fill-rule="nonzero"/></g></svg>