<svg xmlns="http://www.w3.org/2000/svg" xmlns:xlink="http://www.w3.org/1999/xlink" width="480" zoomAndPan="magnify" viewBox="0 0 360 503.999982" height="672" preserveAspectRatio="xMidYMid meet" version="1.0"><defs><filter x="0%" y="0%" width="100%" height="100%" id="af6f942f65"><feColorMatrix values="0 0 0 0 1 0 0 0 0 1 0 0 0 0 1 0 0 0 1 0" color-interpolation-filters="sRGB"/></filter><g/><mask id="288e4ea585"><g filter="url(#af6f942f65)"><rect x="-36" width="432" fill="#000000" y="-50.399998" height="604.799979" fill-opacity="0.1373"/></g></mask><clipPath id="8d4609955c"><path d="M 0 0 L 1 0 L 1 432.847656 L 0 432.847656 Z M 0 0 " clip-rule="nonzero"/></clipPath><clipPath id="78e9ce3d6f"><path d="M 0 0 L 18 0 L 18 432.847656 L 0 432.847656 Z M 0 0 " clip-rule="nonzero"/></clipPath><clipPath id="adeac2bdb7"><path d="M 0 0 L 35 0 L 35 432.847656 L 0 432.847656 Z M 0 0 " clip-rule="nonzero"/></clipPath><clipPath id="e14178e2e0"><path d="M 0 0 L 53 0 L 53 432.847656 L 0 432.847656 Z M 0 0 " clip-rule="nonzero"/></clipPath><clipPath id="8014e51e49"><path d="M 0 0 L 70 0 L 70 432.847656 L 0 432.847656 Z M 0 0 " clip-rule="nonzero"/></clipPath><clipPath id="40d43b9a15"><path d="M 0 0 L 88 0 L 88 432.847656 L 0 432.847656 Z M 0 0 " clip-rule="nonzero"/></clipPath><clipPath id="bc1952ba8d"><path d="M 0 0 L 105 0 L 105 432.847656 L 0 432.847656 Z M 0 0 " clip-rule="nonzero"/></clipPath><clipPath id="9fc48767e5"><path d="M 0 0 L 122 0 L 122 432.847656 L 0 432.847656 Z M 0 0 " clip-rule="nonzero"/></clipPath><clipPath id="49db1b40c3"><path d="M 0 0 L 140 0 L 140 432.847656 L 0 432.847656 Z M 0 0 " clip-rule="nonzero"/></clipPath><clipPath id="e95014b09c"><path d="M 0 0 L 157 0 L 157 432.847656 L 0 432.847656 Z M 0 0 " clip-rule="nonzero"/></clipPath><clipPath id="8d59ce336c"><path d="M 0 0 L 175 0 L 175 432.847656 L 0 432.847656 Z M 0 0 " clip-rule="nonzero"/></clipPath><clipPath id="966e226cea"><path d="M 0 0 L 192 0 L 192 432.847656 L 0 432.847656 Z M 0 0 " clip-rule="nonzero"/></clipPath><clipPath id="04b702238c"><path d="M 0 0 L 208.722656 0 L 208.722656 432.847656 L 0 432.847656 Z M 0 0 " clip-rule="nonzero"/></clipPath><clipPath id="70fed9cb5e"><rect x="0" width="209" y="0" height="434"/></clipPath><mask id="2abe6a055d"><g filter="url(#af6f942f65)"><rect x="-36" width="432" fill="#000000" y="-50.399998" height="604.799979" fill-opacity="0.1373"/></g></mask><clipPath id="2790bd4241"><path d="M 0 1 L 197 1 L 197 501.648438 L 0 501.648438 Z M 0 1 " clip-rule="nonzero"/></clipPath><clipPath id="797285937e"><path d="M 0 1 L 214 1 L 214 501.648438 L 0 501.648438 Z M 0 1 " clip-rule="nonzero"/></clipPath><clipPath id="245055dea7"><path d="M 12 1 L 232 1 L 232 501.648438 L 12 501.648438 Z M 12 1 " clip-rule="nonzero"/></clipPath><clipPath id="6eb4a2ae52"><path d="M 29 1 L 249 1 L 249 501.648438 L 29 501.648438 Z M 29 1 " clip-rule="nonzero"/></clipPath><clipPath id="9677e33bd0"><path d="M 47 1 L 267 1 L 267 501.648438 L 47 501.648438 Z M 47 1 " clip-rule="nonzero"/></clipPath><clipPath id="bf3aa76e7e"><path d="M 64 1 L 284 1 L 284 501.648438 L 64 501.648438 Z M 64 1 " clip-rule="nonzero"/></clipPath><clipPath id="bb906be505"><path d="M 81 1 L 301 1 L 301 501.648438 L 81 501.648438 Z M 81 1 " clip-rule="nonzero"/></clipPath><clipPath id="edc1341fc3"><path d="M 99 1 L 319 1 L 319 501.648438 L 99 501.648438 Z M 99 1 " clip-rule="nonzero"/></clipPath><clipPath id="b5e2dce487"><path d="M 116 1 L 336 1 L 336 501.648438 L 116 501.648438 Z M 116 1 " clip-rule="nonzero"/></clipPath><clipPath id="6bb80fc120"><path d="M 134 1 L 354 1 L 354 501.648438 L 134 501.648438 Z M 134 1 " clip-rule="nonzero"/></clipPath><clipPath id="8f1c016856"><path d="M 151 1 L 360 1 L 360 501.648438 L 151 501.648438 Z M 151 1 " clip-rule="nonzero"/></clipPath><clipPath id="19036454de"><path d="M 168 1 L 360 1 L 360 501.648438 L 168 501.648438 Z M 168 1 " clip-rule="nonzero"/></clipPath><clipPath id="be0f803579"><path d="M 186 1 L 360 1 L 360 501.648438 L 186 501.648438 Z M 186 1 " clip-rule="nonzero"/></clipPath><clipPath id="89afe022d1"><path d="M 203 1 L 360 1 L 360 501.648438 L 203 501.648438 Z M 203 1 " clip-rule="nonzero"/></clipPath><clipPath id="2aa12dba76"><path d="M 221 1 L 360 1 L 360 501.648438 L 221 501.648438 Z M 221 1 " clip-rule="nonzero"/></clipPath><clipPath id="a33d214c02"><rect x="0" width="360" y="0" height="502"/></clipPath><clipPath id="2248c578e0"><path d="M 28.015625 36 L 331.765625 36 L 331.765625 468 L 28.015625 468 Z M 28.015625 36 " clip-rule="nonzero"/></clipPath><mask id="86bc7d1f14"><g filter="url(#af6f942f65)"><rect x="-36" width="432" fill="#000000" y="-50.399998" height="604.799979" fill-opacity="0.1373"/></g></mask><clipPath id="22bdba3d4a"><path d="M 0.222656 1 L 122 1 L 122 501.648438 L 0.222656 501.648438 Z M 0.222656 1 " clip-rule="nonzero"/></clipPath><clipPath id="fc7c3cbc26"><path d="M 17 1 L 122 1 L 122 501.648438 L 17 501.648438 Z M 17 1 " clip-rule="nonzero"/></clipPath><clipPath id="c8bf217648"><path d="M 35 1 L 122 1 L 122 501.648438 L 35 501.648438 Z M 35 1 " clip-rule="nonzero"/></clipPath><clipPath id="6c008f1d20"><path d="M 52 1 L 122 1 L 122 501.648438 L 52 501.648438 Z M 52 1 " clip-rule="nonzero"/></clipPath><clipPath id="e3576c1e15"><path d="M 70 1 L 122 1 L 122 501.648438 L 70 501.648438 Z M 70 1 " clip-rule="nonzero"/></clipPath><clipPath id="65f4f67cae"><path d="M 87 1 L 122 1 L 122 501.648438 L 87 501.648438 Z M 87 1 " clip-rule="nonzero"/></clipPath><clipPath id="b8305d88af"><path d="M 104 1 L 122 1 L 122 501.648438 L 104 501.648438 Z M 104 1 " clip-rule="nonzero"/></clipPath><clipPath id="b16fdddc0a"><rect x="0" width="122" y="0" height="502"/></clipPath><clipPath id="9d8da23982"><path d="M 153.664062 116.972656 L 206.164062 116.972656 L 206.164062 169.472656 L 153.664062 169.472656 Z M 153.664062 116.972656 " clip-rule="nonzero"/></clipPath><clipPath id="e6d53b6f32"><path d="M 155 116.972656 L 204 116.972656 L 204 140 L 155 140 Z M 155 116.972656 " clip-rule="nonzero"/></clipPath><clipPath id="838dda3694"><path d="M 158 133 L 206.164062 133 L 206.164062 169.472656 L 158 169.472656 Z M 158 133 " clip-rule="nonzero"/></clipPath><clipPath id="2f73cd1bfc"><path d="M 222.078125 182.523438 L 274.578125 182.523438 L 274.578125 235.023438 L 222.078125 235.023438 Z M 222.078125 182.523438 " clip-rule="nonzero"/></clipPath><clipPath id="b46b34c7ec"><path d="M 223 182.523438 L 272 182.523438 L 272 206 L 223 206 Z M 223 182.523438 " clip-rule="nonzero"/></clipPath><clipPath id="aa236dda9b"><path d="M 227 198 L 274.578125 198 L 274.578125 235.023438 L 227 235.023438 Z M 227 198 " clip-rule="nonzero"/></clipPath><clipPath id="1faa2a7c36"><path d="M 87.078125 182.523438 L 139.578125 182.523438 L 139.578125 235.023438 L 87.078125 235.023438 Z M 87.078125 182.523438 " clip-rule="nonzero"/></clipPath><clipPath id="9a633be24d"><path d="M 88 182.523438 L 137 182.523438 L 137 206 L 88 206 Z M 88 182.523438 " clip-rule="nonzero"/></clipPath><clipPath id="d6cfd7a1e3"><path d="M 92 198 L 139.578125 198 L 139.578125 235.023438 L 92 235.023438 Z M 92 198 " clip-rule="nonzero"/></clipPath><clipPath id="adfed957f0"><path d="M 222.078125 247.945312 L 274.578125 247.945312 L 274.578125 300.445312 L 222.078125 300.445312 Z M 222.078125 247.945312 " clip-rule="nonzero"/></clipPath><clipPath id="1706798336"><path d="M 223 247.945312 L 272 247.945312 L 272 271 L 223 271 Z M 223 247.945312 " clip-rule="nonzero"/></clipPath><clipPath id="a13f8d565c"><path d="M 227 264 L 274.578125 264 L 274.578125 300.445312 L 227 300.445312 Z M 227 264 " clip-rule="nonzero"/></clipPath><clipPath id="12f466bf16"><path d="M 222.078125 313.363281 L 274.578125 313.363281 L 274.578125 365.863281 L 222.078125 365.863281 Z M 222.078125 313.363281 " clip-rule="nonzero"/></clipPath><clipPath id="bb665203a2"><path d="M 223 313.363281 L 272 313.363281 L 272 337 L 223 337 Z M 223 313.363281 " clip-rule="nonzero"/></clipPath><clipPath id="c62118ec29"><path d="M 227 329 L 274.578125 329 L 274.578125 365.863281 L 227 365.863281 Z M 227 329 " clip-rule="nonzero"/></clipPath><clipPath id="84cfe39773"><path d="M 222.078125 378.785156 L 274.578125 378.785156 L 274.578125 431.285156 L 222.078125 431.285156 Z M 222.078125 378.785156 " clip-rule="nonzero"/></clipPath><clipPath id="1a7fbe42b0"><path d="M 223 378.785156 L 272 378.785156 L 272 402 L 223 402 Z M 223 378.785156 " clip-rule="nonzero"/></clipPath><clipPath id="76487df704"><path d="M 227 395 L 274.578125 395 L 274.578125 431.285156 L 227 431.285156 Z M 227 395 " clip-rule="nonzero"/></clipPath><clipPath id="98b8587ad4"><path d="M 87.078125 247.945312 L 139.578125 247.945312 L 139.578125 300.445312 L 87.078125 300.445312 Z M 87.078125 247.945312 " clip-rule="nonzero"/></clipPath><clipPath id="4b325d9912"><path d="M 88 247.945312 L 137 247.945312 L 137 271 L 88 271 Z M 88 247.945312 " clip-rule="nonzero"/></clipPath><clipPath id="cb54ae3668"><path d="M 92 264 L 139.578125 264 L 139.578125 300.445312 L 92 300.445312 Z M 92 264 " clip-rule="nonzero"/></clipPath><clipPath id="f0bc9b3a47"><path d="M 87.078125 313.363281 L 139.578125 313.363281 L 139.578125 365.863281 L 87.078125 365.863281 Z M 87.078125 313.363281 " clip-rule="nonzero"/></clipPath><clipPath id="f1403ee1f0"><path d="M 88 313.363281 L 137 313.363281 L 137 337 L 88 337 Z M 88 313.363281 " clip-rule="nonzero"/></clipPath><clipPath id="557fae5e2e"><path d="M 92 329 L 139.578125 329 L 139.578125 365.863281 L 92 365.863281 Z M 92 329 " clip-rule="nonzero"/></clipPath><clipPath id="ec67e72c8f"><path d="M 87.078125 378.785156 L 139.578125 378.785156 L 139.578125 431.285156 L 87.078125 431.285156 Z M 87.078125 378.785156 " clip-rule="nonzero"/></clipPath><clipPath id="a3c9123ed8"><path d="M 88 378.785156 L 137 378.785156 L 137 402 L 88 402 Z M 88 378.785156 " clip-rule="nonzero"/></clipPath><clipPath id="b84d30d08a"><path d="M 92 395 L 139.578125 395 L 139.578125 431.285156 L 92 431.285156 Z M 92 395 " clip-rule="nonzero"/></clipPath></defs><rect x="-36" width="432" fill="#ffffff" y="-50.399998" height="604.799979" fill-opacity="1"/><rect x="-36" width="432" fill="#323232" y="-50.399998" height="604.799979" fill-opacity="1"/><g mask="url(#288e4ea585)"><g transform="matrix(1, 0, 0, 1, 0, 0)"><g clip-path="url(#70fed9cb5e)"><g clip-path="url(#8d4609955c)"><path fill="#000000" d="M -217.589844 432.296875 L -219.066406 431.664062 L -1.417969 -67.574219 L 0.0507812 -66.9375 Z M -217.589844 432.296875 " fill-opacity="1" fill-rule="nonzero"/></g><g clip-path="url(#78e9ce3d6f)"><path fill="#000000" d="M -200.175781 432.296875 L -201.652344 431.664062 L 15.992188 -67.574219 L 17.460938 -66.9375 Z M -200.175781 432.296875 " fill-opacity="1" fill-rule="nonzero"/></g><g clip-path="url(#adeac2bdb7)"><path fill="#000000" d="M -182.765625 432.296875 L -184.242188 431.664062 L 33.40625 -67.574219 L 34.875 -66.9375 Z M -182.765625 432.296875 " fill-opacity="1" fill-rule="nonzero"/></g><g clip-path="url(#e14178e2e0)"><path fill="#000000" d="M -165.359375 432.296875 L -166.828125 431.664062 L 50.816406 -67.574219 L 52.289062 -66.9375 Z M -165.359375 432.296875 " fill-opacity="1" fill-rule="nonzero"/></g><g clip-path="url(#8014e51e49)"><path fill="#000000" d="M -147.945312 432.296875 L -149.421875 431.664062 L 68.222656 -67.574219 L 69.699219 -66.9375 Z M -147.945312 432.296875 " fill-opacity="1" fill-rule="nonzero"/></g><g clip-path="url(#40d43b9a15)"><path fill="#000000" d="M -130.535156 432.296875 L -132.011719 431.664062 L 85.636719 -67.574219 L 87.113281 -66.9375 Z M -130.535156 432.296875 " fill-opacity="1" fill-rule="nonzero"/></g><g clip-path="url(#bc1952ba8d)"><path fill="#000000" d="M -113.121094 432.296875 L -114.597656 431.664062 L 103.050781 -67.574219 L 104.523438 -66.9375 Z M -113.121094 432.296875 " fill-opacity="1" fill-rule="nonzero"/></g><g clip-path="url(#9fc48767e5)"><path fill="#000000" d="M -95.707031 432.296875 L -97.183594 431.664062 L 120.460938 -67.574219 L 121.929688 -66.9375 Z M -95.707031 432.296875 " fill-opacity="1" fill-rule="nonzero"/></g><g clip-path="url(#49db1b40c3)"><path fill="#000000" d="M -78.304688 432.296875 L -79.773438 431.664062 L 137.875 -67.574219 L 139.34375 -66.9375 Z M -78.304688 432.296875 " fill-opacity="1" fill-rule="nonzero"/></g><g clip-path="url(#e95014b09c)"><path fill="#000000" d="M -60.890625 432.296875 L -62.359375 431.664062 L 155.28125 -67.574219 L 156.757812 -66.9375 Z M -60.890625 432.296875 " fill-opacity="1" fill-rule="nonzero"/></g><g clip-path="url(#8d59ce336c)"><path fill="#000000" d="M -43.476562 432.296875 L -44.949219 431.664062 L 172.691406 -67.574219 L 174.167969 -66.9375 Z M -43.476562 432.296875 " fill-opacity="1" fill-rule="nonzero"/></g><g clip-path="url(#966e226cea)"><path fill="#000000" d="M -26.066406 432.296875 L -27.535156 431.664062 L 190.105469 -67.574219 L 191.582031 -66.9375 Z M -26.066406 432.296875 " fill-opacity="1" fill-rule="nonzero"/></g><g clip-path="url(#04b702238c)"><path fill="#000000" d="M -8.652344 432.296875 L -10.128906 431.664062 L 207.515625 -67.574219 L 208.992188 -66.9375 Z M -8.652344 432.296875 " fill-opacity="1" fill-rule="nonzero"/></g></g></g></g><g mask="url(#2abe6a055d)"><g transform="matrix(1, 0, 0, 1, 0, 2)"><g clip-path="url(#a33d214c02)"><g clip-path="url(#2790bd4241)"><path fill="#000000" d="M -21.167969 501.097656 L -22.636719 500.460938 L 195.003906 1.226562 L 196.480469 1.859375 Z M -21.167969 501.097656 " fill-opacity="1" fill-rule="nonzero"/></g><g clip-path="url(#797285937e)"><path fill="#000000" d="M -3.753906 501.097656 L -5.230469 500.460938 L 212.414062 1.226562 L 213.890625 1.859375 Z M -3.753906 501.097656 " fill-opacity="1" fill-rule="nonzero"/></g><g clip-path="url(#245055dea7)"><path fill="#000000" d="M 13.65625 501.097656 L 12.183594 500.460938 L 229.828125 1.226562 L 231.296875 1.859375 Z M 13.65625 501.097656 " fill-opacity="1" fill-rule="nonzero"/></g><g clip-path="url(#6eb4a2ae52)"><path fill="#000000" d="M 31.070312 501.097656 L 29.59375 500.460938 L 247.242188 1.226562 L 248.710938 1.859375 Z M 31.070312 501.097656 " fill-opacity="1" fill-rule="nonzero"/></g><g clip-path="url(#9677e33bd0)"><path fill="#000000" d="M 48.484375 501.097656 L 47.007812 500.460938 L 264.652344 1.226562 L 266.125 1.859375 Z M 48.484375 501.097656 " fill-opacity="1" fill-rule="nonzero"/></g><g clip-path="url(#bf3aa76e7e)"><path fill="#000000" d="M 65.890625 501.097656 L 64.417969 500.460938 L 282.066406 1.226562 L 283.535156 1.859375 Z M 65.890625 501.097656 " fill-opacity="1" fill-rule="nonzero"/></g><g clip-path="url(#bb906be505)"><path fill="#000000" d="M 83.300781 501.097656 L 81.824219 500.460938 L 299.472656 1.226562 L 300.949219 1.859375 Z M 83.300781 501.097656 " fill-opacity="1" fill-rule="nonzero"/></g><g clip-path="url(#edc1341fc3)"><path fill="#000000" d="M 100.714844 501.097656 L 99.238281 500.460938 L 316.882812 1.226562 L 318.359375 1.859375 Z M 100.714844 501.097656 " fill-opacity="1" fill-rule="nonzero"/></g><g clip-path="url(#b5e2dce487)"><path fill="#000000" d="M 118.125 501.097656 L 116.652344 500.460938 L 334.296875 1.226562 L 335.773438 1.859375 Z M 118.125 501.097656 " fill-opacity="1" fill-rule="nonzero"/></g><g clip-path="url(#6bb80fc120)"><path fill="#000000" d="M 135.539062 501.097656 L 134.0625 500.460938 L 351.710938 1.226562 L 353.179688 1.859375 Z M 135.539062 501.097656 " fill-opacity="1" fill-rule="nonzero"/></g><g clip-path="url(#8f1c016856)"><path fill="#000000" d="M 152.945312 501.097656 L 151.476562 500.460938 L 369.121094 1.226562 L 370.589844 1.859375 Z M 152.945312 501.097656 " fill-opacity="1" fill-rule="nonzero"/></g><g clip-path="url(#19036454de)"><path fill="#000000" d="M 170.359375 501.097656 L 168.886719 500.460938 L 386.527344 1.226562 L 388.003906 1.859375 Z M 170.359375 501.097656 " fill-opacity="1" fill-rule="nonzero"/></g><g clip-path="url(#be0f803579)"><path fill="#000000" d="M 187.769531 501.097656 L 186.300781 500.460938 L 403.941406 1.226562 L 405.417969 1.859375 Z M 187.769531 501.097656 " fill-opacity="1" fill-rule="nonzero"/></g><g clip-path="url(#89afe022d1)"><path fill="#000000" d="M 205.183594 501.097656 L 203.710938 500.460938 L 421.351562 1.226562 L 422.828125 1.859375 Z M 205.183594 501.097656 " fill-opacity="1" fill-rule="nonzero"/></g><g clip-path="url(#2aa12dba76)"><path fill="#000000" d="M 222.59375 501.097656 L 221.117188 500.460938 L 438.765625 1.226562 L 440.242188 1.859375 Z M 222.59375 501.097656 " fill-opacity="1" fill-rule="nonzero"/></g></g></g></g><g clip-path="url(#2248c578e0)"><path fill="#38b6ff" d="M 331.601562 467.976562 L 28.1875 467.976562 L 28.1875 36 L 331.601562 36 Z M 29.066406 467.097656 L 330.722656 467.097656 L 330.722656 36.878906 L 29.066406 36.878906 Z M 29.066406 467.097656 " fill-opacity="1" fill-rule="nonzero"/></g><g fill="#38b6ff" fill-opacity="1"><g transform="translate(44.874898, 95.039993)"><g><path d="M 16.828125 -43.71875 C 8.320312 -43.71875 2.421875 -37.320312 2.421875 -29.0625 C 2.421875 -20.988281 7.328125 -14.28125 16.207031 -14.28125 C 20.679688 -14.28125 24.46875 -16.144531 27.074219 -19.746094 L 28.628906 -22.976562 C 28.195312 -5.835938 22.292969 -1.179688 15.773438 -1.179688 C 10.183594 -1.179688 6.832031 -4.097656 5.589844 -10.246094 L 5.464844 -10.867188 L 3.042969 -10.867188 L 3.105469 -10.246094 C 4.347656 -3.414062 8.136719 0.871094 15.648438 0.871094 C 24.902344 0.871094 31.050781 -6.894531 31.050781 -24.09375 C 31.050781 -38.066406 25.585938 -43.71875 16.828125 -43.71875 Z M 16.519531 -16.332031 C 9.316406 -16.332031 5.03125 -21.921875 5.03125 -29.25 C 5.03125 -36.203125 9.625 -41.667969 16.828125 -41.667969 C 24.09375 -41.667969 28.195312 -35.769531 28.195312 -28.378906 C 28.195312 -21.238281 22.976562 -16.332031 16.519531 -16.332031 Z M 16.519531 -16.332031 "/></g></g></g><g mask="url(#86bc7d1f14)"><g transform="matrix(1, 0, 0, 1, 238, 2)"><g clip-path="url(#b16fdddc0a)"><g clip-path="url(#22bdba3d4a)"><path fill="#000000" d="M 1.832031 501.097656 L 0.363281 500.460938 L 218.003906 1.226562 L 219.480469 1.859375 Z M 1.832031 501.097656 " fill-opacity="1" fill-rule="nonzero"/></g><g clip-path="url(#fc7c3cbc26)"><path fill="#000000" d="M 19.246094 501.097656 L 17.769531 500.460938 L 235.414062 1.226562 L 236.890625 1.859375 Z M 19.246094 501.097656 " fill-opacity="1" fill-rule="nonzero"/></g><g clip-path="url(#c8bf217648)"><path fill="#000000" d="M 36.65625 501.097656 L 35.183594 500.460938 L 252.828125 1.226562 L 254.296875 1.859375 Z M 36.65625 501.097656 " fill-opacity="1" fill-rule="nonzero"/></g><g clip-path="url(#6c008f1d20)"><path fill="#000000" d="M 54.070312 501.097656 L 52.59375 500.460938 L 270.242188 1.226562 L 271.710938 1.859375 Z M 54.070312 501.097656 " fill-opacity="1" fill-rule="nonzero"/></g><g clip-path="url(#e3576c1e15)"><path fill="#000000" d="M 71.484375 501.097656 L 70.007812 500.460938 L 287.652344 1.226562 L 289.125 1.859375 Z M 71.484375 501.097656 " fill-opacity="1" fill-rule="nonzero"/></g><g clip-path="url(#65f4f67cae)"><path fill="#000000" d="M 88.890625 501.097656 L 87.417969 500.460938 L 305.066406 1.226562 L 306.535156 1.859375 Z M 88.890625 501.097656 " fill-opacity="1" fill-rule="nonzero"/></g><g clip-path="url(#b8305d88af)"><path fill="#000000" d="M 106.300781 501.097656 L 104.824219 500.460938 L 322.472656 1.226562 L 323.949219 1.859375 Z M 106.300781 501.097656 " fill-opacity="1" fill-rule="nonzero"/></g></g></g></g><g clip-path="url(#9d8da23982)"><path fill="#ffffff" d="M 206.15625 143.222656 C 206.15625 144.082031 206.117188 144.9375 206.03125 145.792969 C 205.949219 146.648438 205.820312 147.5 205.652344 148.339844 C 205.484375 149.183594 205.277344 150.015625 205.027344 150.839844 C 204.777344 151.664062 204.488281 152.472656 204.160156 153.265625 C 203.832031 154.058594 203.464844 154.835938 203.058594 155.59375 C 202.652344 156.351562 202.210938 157.085938 201.734375 157.800781 C 201.257812 158.515625 200.746094 159.207031 200.199219 159.871094 C 199.65625 160.535156 199.078125 161.171875 198.472656 161.78125 C 197.863281 162.386719 197.226562 162.964844 196.5625 163.507812 C 195.898438 164.054688 195.207031 164.566406 194.492188 165.042969 C 193.777344 165.523438 193.042969 165.964844 192.285156 166.367188 C 191.527344 166.773438 190.75 167.140625 189.957031 167.46875 C 189.160156 167.796875 188.351562 168.085938 187.53125 168.335938 C 186.707031 168.585938 185.875 168.796875 185.03125 168.964844 C 184.1875 169.128906 183.339844 169.257812 182.484375 169.339844 C 181.628906 169.425781 180.769531 169.46875 179.910156 169.46875 C 179.050781 169.46875 178.195312 169.425781 177.339844 169.339844 C 176.484375 169.257812 175.632812 169.128906 174.792969 168.964844 C 173.949219 168.796875 173.117188 168.585938 172.292969 168.335938 C 171.46875 168.085938 170.660156 167.796875 169.867188 167.46875 C 169.074219 167.140625 168.296875 166.773438 167.539062 166.367188 C 166.78125 165.964844 166.042969 165.523438 165.328125 165.042969 C 164.613281 164.566406 163.925781 164.054688 163.261719 163.507812 C 162.597656 162.964844 161.960938 162.386719 161.351562 161.78125 C 160.746094 161.171875 160.167969 160.535156 159.621094 159.871094 C 159.078125 159.207031 158.566406 158.515625 158.089844 157.800781 C 157.609375 157.085938 157.167969 156.351562 156.765625 155.59375 C 156.359375 154.835938 155.992188 154.058594 155.664062 153.265625 C 155.335938 152.472656 155.042969 151.664062 154.796875 150.839844 C 154.546875 150.015625 154.335938 149.183594 154.167969 148.339844 C 154 147.5 153.875 146.648438 153.792969 145.792969 C 153.707031 144.9375 153.664062 144.082031 153.664062 143.222656 C 153.664062 142.359375 153.707031 141.503906 153.792969 140.648438 C 153.875 139.792969 154 138.945312 154.167969 138.101562 C 154.335938 137.257812 154.546875 136.425781 154.796875 135.601562 C 155.042969 134.777344 155.335938 133.972656 155.664062 133.175781 C 155.992188 132.382812 156.359375 131.605469 156.765625 130.847656 C 157.167969 130.089844 157.609375 129.355469 158.089844 128.640625 C 158.566406 127.925781 159.078125 127.234375 159.621094 126.570312 C 160.167969 125.90625 160.746094 125.269531 161.351562 124.660156 C 161.960938 124.054688 162.597656 123.476562 163.261719 122.933594 C 163.925781 122.386719 164.613281 121.875 165.328125 121.398438 C 166.042969 120.921875 166.78125 120.480469 167.539062 120.074219 C 168.296875 119.667969 169.074219 119.300781 169.867188 118.972656 C 170.660156 118.644531 171.46875 118.355469 172.292969 118.105469 C 173.117188 117.855469 173.949219 117.644531 174.792969 117.480469 C 175.632812 117.3125 176.484375 117.183594 177.339844 117.101562 C 178.195312 117.015625 179.050781 116.972656 179.910156 116.972656 C 180.769531 116.972656 181.628906 117.015625 182.484375 117.101562 C 183.339844 117.183594 184.1875 117.3125 185.03125 117.480469 C 185.875 117.644531 186.707031 117.855469 187.53125 118.105469 C 188.351562 118.355469 189.160156 118.644531 189.957031 118.972656 C 190.75 119.300781 191.527344 119.667969 192.285156 120.074219 C 193.042969 120.480469 193.777344 120.921875 194.492188 121.398438 C 195.207031 121.875 195.898438 122.386719 196.5625 122.933594 C 197.226562 123.476562 197.863281 124.054688 198.472656 124.660156 C 199.078125 125.269531 199.65625 125.90625 200.199219 126.570312 C 200.746094 127.234375 201.257812 127.925781 201.734375 128.640625 C 202.210938 129.355469 202.652344 130.089844 203.058594 130.847656 C 203.464844 131.605469 203.832031 132.382812 204.160156 133.175781 C 204.488281 133.972656 204.777344 134.777344 205.027344 135.601562 C 205.277344 136.425781 205.484375 137.257812 205.652344 138.101562 C 205.820312 138.945312 205.949219 139.792969 206.03125 140.648438 C 206.117188 141.503906 206.15625 142.359375 206.15625 143.222656 Z M 206.15625 143.222656 " fill-opacity="1" fill-rule="nonzero"/></g><g clip-path="url(#e6d53b6f32)"><path fill="#38b6ff" d="M 169.371094 135.230469 C 175.023438 137.078125 180.570312 139.886719 186.515625 139.773438 C 191.722656 139.671875 196.683594 137.28125 200.75 134.023438 C 201.695312 133.269531 202.59375 132.46875 203.464844 131.636719 C 202.925781 130.539062 202.3125 129.488281 201.628906 128.480469 C 200.945312 127.46875 200.191406 126.515625 199.375 125.609375 C 198.554688 124.707031 197.679688 123.863281 196.742188 123.078125 C 195.804688 122.296875 194.820312 121.585938 193.785156 120.941406 C 192.75 120.296875 191.675781 119.726562 190.558594 119.230469 C 189.445312 118.734375 188.300781 118.320312 187.128906 117.984375 C 185.953125 117.648438 184.765625 117.398438 183.554688 117.230469 C 182.347656 117.058594 181.136719 116.972656 179.914062 116.972656 C 168.371094 116.972656 158.570312 124.425781 155.054688 134.773438 C 159.398438 132.972656 164.753906 133.726562 169.371094 135.230469 Z M 169.371094 135.230469 " fill-opacity="1" fill-rule="nonzero"/></g><g clip-path="url(#838dda3694)"><path fill="#38b6ff" d="M 178.015625 143.890625 C 173.179688 143.6875 167.925781 142.550781 163.800781 145.070312 C 160.054688 147.351562 158.445312 152.132812 158.738281 156.503906 C 158.800781 157.421875 158.925781 158.332031 159.113281 159.230469 C 160.339844 160.824219 161.730469 162.257812 163.285156 163.53125 C 164.839844 164.804688 166.515625 165.886719 168.320312 166.773438 C 170.125 167.664062 172.003906 168.332031 173.964844 168.789062 C 175.921875 169.242188 177.90625 169.46875 179.914062 169.46875 C 194.410156 169.46875 206.164062 157.714844 206.164062 143.21875 C 206.167969 139.777344 205.519531 136.464844 204.214844 133.28125 C 197.515625 140.3125 187.71875 144.292969 178.015625 143.890625 Z M 178.015625 143.890625 " fill-opacity="1" fill-rule="nonzero"/></g><g clip-path="url(#2f73cd1bfc)"><path fill="#ffffff" d="M 274.570312 208.769531 C 274.570312 209.628906 274.527344 210.488281 274.445312 211.34375 C 274.359375 212.199219 274.234375 213.046875 274.066406 213.890625 C 273.898438 214.734375 273.6875 215.566406 273.441406 216.390625 C 273.191406 217.210938 272.902344 218.019531 272.570312 218.816406 C 272.242188 219.609375 271.875 220.386719 271.46875 221.144531 C 271.066406 221.902344 270.625 222.636719 270.148438 223.351562 C 269.667969 224.066406 269.15625 224.757812 268.613281 225.421875 C 268.066406 226.085938 267.488281 226.722656 266.882812 227.332031 C 266.273438 227.9375 265.636719 228.515625 264.972656 229.058594 C 264.308594 229.605469 263.621094 230.117188 262.90625 230.59375 C 262.191406 231.070312 261.453125 231.511719 260.695312 231.917969 C 259.9375 232.324219 259.160156 232.691406 258.367188 233.019531 C 257.574219 233.347656 256.765625 233.636719 255.941406 233.886719 C 255.121094 234.136719 254.285156 234.34375 253.445312 234.511719 C 252.601562 234.679688 251.75 234.808594 250.894531 234.890625 C 250.039062 234.976562 249.183594 235.019531 248.324219 235.019531 C 247.464844 235.019531 246.605469 234.976562 245.75 234.890625 C 244.894531 234.808594 244.046875 234.679688 243.203125 234.511719 C 242.359375 234.34375 241.527344 234.136719 240.703125 233.886719 C 239.882812 233.636719 239.074219 233.347656 238.277344 233.019531 C 237.484375 232.691406 236.707031 232.324219 235.949219 231.917969 C 235.191406 231.511719 234.457031 231.070312 233.742188 230.59375 C 233.027344 230.117188 232.335938 229.605469 231.671875 229.058594 C 231.007812 228.515625 230.371094 227.9375 229.765625 227.332031 C 229.15625 226.722656 228.578125 226.085938 228.035156 225.421875 C 227.488281 224.757812 226.976562 224.066406 226.5 223.351562 C 226.023438 222.636719 225.582031 221.902344 225.175781 221.144531 C 224.769531 220.386719 224.402344 219.609375 224.074219 218.816406 C 223.746094 218.019531 223.457031 217.210938 223.207031 216.390625 C 222.957031 215.566406 222.75 214.734375 222.582031 213.890625 C 222.414062 213.046875 222.289062 212.199219 222.203125 211.34375 C 222.117188 210.488281 222.078125 209.628906 222.078125 208.769531 C 222.078125 207.910156 222.117188 207.054688 222.203125 206.199219 C 222.289062 205.34375 222.414062 204.492188 222.582031 203.652344 C 222.75 202.808594 222.957031 201.976562 223.207031 201.152344 C 223.457031 200.328125 223.746094 199.519531 224.074219 198.726562 C 224.402344 197.933594 224.769531 197.15625 225.175781 196.398438 C 225.582031 195.640625 226.023438 194.902344 226.5 194.1875 C 226.976562 193.472656 227.488281 192.785156 228.035156 192.121094 C 228.578125 191.457031 229.15625 190.820312 229.765625 190.210938 C 230.371094 189.605469 231.007812 189.027344 231.671875 188.480469 C 232.335938 187.9375 233.027344 187.425781 233.742188 186.949219 C 234.457031 186.46875 235.191406 186.027344 235.949219 185.625 C 236.707031 185.21875 237.484375 184.851562 238.277344 184.523438 C 239.074219 184.195312 239.882812 183.902344 240.703125 183.65625 C 241.527344 183.40625 242.359375 183.195312 243.203125 183.027344 C 244.046875 182.859375 244.894531 182.734375 245.75 182.652344 C 246.605469 182.566406 247.464844 182.523438 248.324219 182.523438 C 249.183594 182.523438 250.039062 182.566406 250.894531 182.652344 C 251.75 182.734375 252.601562 182.859375 253.445312 183.027344 C 254.285156 183.195312 255.121094 183.40625 255.941406 183.65625 C 256.765625 183.902344 257.574219 184.195312 258.367188 184.523438 C 259.160156 184.851562 259.9375 185.21875 260.695312 185.625 C 261.453125 186.027344 262.191406 186.46875 262.90625 186.949219 C 263.621094 187.425781 264.308594 187.9375 264.972656 188.480469 C 265.636719 189.027344 266.273438 189.605469 266.882812 190.210938 C 267.488281 190.820312 268.066406 191.457031 268.613281 192.121094 C 269.15625 192.785156 269.667969 193.472656 270.148438 194.1875 C 270.625 194.902344 271.066406 195.640625 271.46875 196.398438 C 271.875 197.15625 272.242188 197.933594 272.570312 198.726562 C 272.902344 199.519531 273.191406 200.328125 273.441406 201.152344 C 273.6875 201.976562 273.898438 202.808594 274.066406 203.652344 C 274.234375 204.492188 274.359375 205.34375 274.445312 206.199219 C 274.527344 207.054688 274.570312 207.910156 274.570312 208.769531 Z M 274.570312 208.769531 " fill-opacity="1" fill-rule="nonzero"/></g><g clip-path="url(#b46b34c7ec)"><path fill="#38b6ff" d="M 237.78125 200.78125 C 243.433594 202.628906 248.980469 205.4375 254.925781 205.320312 C 260.136719 205.222656 265.09375 202.832031 269.160156 199.574219 C 270.105469 198.820312 271.007812 198.019531 271.875 197.1875 C 271.335938 196.089844 270.726562 195.039062 270.039062 194.03125 C 269.355469 193.019531 268.605469 192.0625 267.785156 191.160156 C 266.964844 190.253906 266.089844 189.414062 265.152344 188.628906 C 264.21875 187.847656 263.230469 187.136719 262.195312 186.492188 C 261.160156 185.84375 260.085938 185.277344 258.96875 184.78125 C 257.855469 184.285156 256.710938 183.871094 255.539062 183.535156 C 254.367188 183.199219 253.175781 182.949219 251.96875 182.777344 C 250.761719 182.609375 249.546875 182.523438 248.328125 182.523438 C 236.78125 182.523438 226.984375 189.976562 223.464844 200.324219 C 227.808594 198.523438 233.164062 199.273438 237.78125 200.78125 Z M 237.78125 200.78125 " fill-opacity="1" fill-rule="nonzero"/></g><g clip-path="url(#aa236dda9b)"><path fill="#38b6ff" d="M 246.425781 209.4375 C 241.589844 209.238281 236.339844 208.101562 232.210938 210.621094 C 228.46875 212.902344 226.859375 217.679688 227.148438 222.054688 C 227.210938 222.972656 227.335938 223.882812 227.527344 224.78125 C 228.75 226.375 230.140625 227.808594 231.695312 229.082031 C 233.25 230.355469 234.929688 231.4375 236.734375 232.324219 C 238.535156 233.210938 240.417969 233.882812 242.375 234.339844 C 244.332031 234.792969 246.316406 235.019531 248.328125 235.019531 C 262.820312 235.019531 274.578125 223.265625 274.578125 208.769531 C 274.582031 205.328125 273.929688 202.015625 272.628906 198.832031 C 265.925781 205.863281 256.128906 209.84375 246.425781 209.4375 Z M 246.425781 209.4375 " fill-opacity="1" fill-rule="nonzero"/></g><g clip-path="url(#1faa2a7c36)"><path fill="#ffffff" d="M 139.570312 208.769531 C 139.570312 209.628906 139.527344 210.488281 139.445312 211.34375 C 139.359375 212.199219 139.234375 213.046875 139.066406 213.890625 C 138.898438 214.734375 138.6875 215.566406 138.441406 216.390625 C 138.191406 217.210938 137.902344 218.019531 137.570312 218.816406 C 137.242188 219.609375 136.875 220.386719 136.46875 221.144531 C 136.066406 221.902344 135.625 222.636719 135.148438 223.351562 C 134.667969 224.066406 134.15625 224.757812 133.613281 225.421875 C 133.066406 226.085938 132.492188 226.722656 131.882812 227.332031 C 131.273438 227.9375 130.636719 228.515625 129.972656 229.058594 C 129.308594 229.605469 128.621094 230.117188 127.90625 230.59375 C 127.191406 231.070312 126.453125 231.511719 125.695312 231.917969 C 124.9375 232.324219 124.160156 232.691406 123.367188 233.019531 C 122.574219 233.347656 121.765625 233.636719 120.941406 233.886719 C 120.121094 234.136719 119.285156 234.34375 118.445312 234.511719 C 117.601562 234.679688 116.75 234.808594 115.894531 234.890625 C 115.039062 234.976562 114.183594 235.019531 113.324219 235.019531 C 112.464844 235.019531 111.605469 234.976562 110.75 234.890625 C 109.894531 234.808594 109.046875 234.679688 108.203125 234.511719 C 107.359375 234.34375 106.527344 234.136719 105.703125 233.886719 C 104.882812 233.636719 104.074219 233.347656 103.277344 233.019531 C 102.484375 232.691406 101.707031 232.324219 100.949219 231.917969 C 100.191406 231.511719 99.457031 231.070312 98.742188 230.59375 C 98.027344 230.117188 97.335938 229.605469 96.671875 229.058594 C 96.007812 228.515625 95.371094 227.9375 94.765625 227.332031 C 94.15625 226.722656 93.578125 226.085938 93.035156 225.421875 C 92.488281 224.757812 91.976562 224.066406 91.5 223.351562 C 91.023438 222.636719 90.582031 221.902344 90.175781 221.144531 C 89.769531 220.386719 89.402344 219.609375 89.074219 218.816406 C 88.746094 218.019531 88.457031 217.210938 88.207031 216.390625 C 87.957031 215.566406 87.75 214.734375 87.582031 213.890625 C 87.414062 213.046875 87.289062 212.199219 87.203125 211.34375 C 87.117188 210.488281 87.078125 209.628906 87.078125 208.769531 C 87.078125 207.910156 87.117188 207.054688 87.203125 206.199219 C 87.289062 205.34375 87.414062 204.492188 87.582031 203.652344 C 87.75 202.808594 87.957031 201.976562 88.207031 201.152344 C 88.457031 200.328125 88.746094 199.519531 89.074219 198.726562 C 89.402344 197.933594 89.769531 197.15625 90.175781 196.398438 C 90.582031 195.640625 91.023438 194.902344 91.5 194.1875 C 91.976562 193.472656 92.488281 192.785156 93.035156 192.121094 C 93.578125 191.457031 94.15625 190.820312 94.765625 190.210938 C 95.371094 189.605469 96.007812 189.027344 96.671875 188.480469 C 97.335938 187.9375 98.027344 187.425781 98.742188 186.949219 C 99.457031 186.46875 100.191406 186.027344 100.949219 185.625 C 101.707031 185.21875 102.484375 184.851562 103.277344 184.523438 C 104.074219 184.195312 104.882812 183.902344 105.703125 183.65625 C 106.527344 183.40625 107.359375 183.195312 108.203125 183.027344 C 109.046875 182.859375 109.894531 182.734375 110.75 182.652344 C 111.605469 182.566406 112.464844 182.523438 113.324219 182.523438 C 114.183594 182.523438 115.039062 182.566406 115.894531 182.652344 C 116.75 182.734375 117.601562 182.859375 118.445312 183.027344 C 119.285156 183.195312 120.121094 183.40625 120.941406 183.65625 C 121.765625 183.902344 122.574219 184.195312 123.367188 184.523438 C 124.160156 184.851562 124.9375 185.21875 125.695312 185.625 C 126.453125 186.027344 127.191406 186.46875 127.90625 186.949219 C 128.621094 187.425781 129.308594 187.9375 129.972656 188.480469 C 130.636719 189.027344 131.273438 189.605469 131.882812 190.210938 C 132.492188 190.820312 133.066406 191.457031 133.613281 192.121094 C 134.15625 192.785156 134.667969 193.472656 135.148438 194.1875 C 135.625 194.902344 136.066406 195.640625 136.46875 196.398438 C 136.875 197.15625 137.242188 197.933594 137.570312 198.726562 C 137.902344 199.519531 138.191406 200.328125 138.441406 201.152344 C 138.6875 201.976562 138.898438 202.808594 139.066406 203.652344 C 139.234375 204.492188 139.359375 205.34375 139.445312 206.199219 C 139.527344 207.054688 139.570312 207.910156 139.570312 208.769531 Z M 139.570312 208.769531 " fill-opacity="1" fill-rule="nonzero"/></g><g clip-path="url(#9a633be24d)"><path fill="#38b6ff" d="M 102.78125 200.78125 C 108.433594 202.628906 113.980469 205.4375 119.925781 205.320312 C 125.136719 205.222656 130.09375 202.832031 134.160156 199.574219 C 135.105469 198.820312 136.007812 198.019531 136.875 197.1875 C 136.335938 196.089844 135.726562 195.039062 135.039062 194.03125 C 134.355469 193.019531 133.605469 192.0625 132.785156 191.160156 C 131.964844 190.253906 131.089844 189.414062 130.152344 188.628906 C 129.21875 187.847656 128.230469 187.136719 127.195312 186.492188 C 126.160156 185.84375 125.085938 185.277344 123.96875 184.78125 C 122.855469 184.285156 121.710938 183.871094 120.539062 183.535156 C 119.367188 183.199219 118.175781 182.949219 116.96875 182.777344 C 115.761719 182.609375 114.546875 182.523438 113.328125 182.523438 C 101.78125 182.523438 91.984375 189.976562 88.464844 200.324219 C 92.808594 198.523438 98.164062 199.273438 102.78125 200.78125 Z M 102.78125 200.78125 " fill-opacity="1" fill-rule="nonzero"/></g><g clip-path="url(#d6cfd7a1e3)"><path fill="#38b6ff" d="M 111.425781 209.4375 C 106.589844 209.238281 101.339844 208.101562 97.210938 210.621094 C 93.46875 212.902344 91.859375 217.679688 92.148438 222.054688 C 92.210938 222.972656 92.335938 223.882812 92.527344 224.78125 C 93.75 226.375 95.140625 227.808594 96.695312 229.082031 C 98.25 230.355469 99.929688 231.4375 101.734375 232.324219 C 103.535156 233.210938 105.417969 233.882812 107.375 234.339844 C 109.332031 234.792969 111.316406 235.019531 113.328125 235.019531 C 127.820312 235.019531 139.578125 223.265625 139.578125 208.769531 C 139.582031 205.328125 138.929688 202.015625 137.628906 198.832031 C 130.925781 205.863281 121.128906 209.84375 111.425781 209.4375 Z M 111.425781 209.4375 " fill-opacity="1" fill-rule="nonzero"/></g><g clip-path="url(#adfed957f0)"><path fill="#ffffff" d="M 274.570312 274.191406 C 274.570312 275.050781 274.527344 275.90625 274.445312 276.761719 C 274.359375 277.617188 274.234375 278.46875 274.066406 279.3125 C 273.898438 280.15625 273.6875 280.988281 273.441406 281.808594 C 273.191406 282.632812 272.902344 283.441406 272.570312 284.234375 C 272.242188 285.027344 271.875 285.804688 271.46875 286.5625 C 271.066406 287.320312 270.625 288.058594 270.148438 288.773438 C 269.667969 289.488281 269.15625 290.175781 268.613281 290.839844 C 268.066406 291.507812 267.488281 292.140625 266.882812 292.75 C 266.273438 293.359375 265.636719 293.933594 264.972656 294.480469 C 264.308594 295.023438 263.621094 295.535156 262.90625 296.015625 C 262.191406 296.492188 261.453125 296.933594 260.695312 297.339844 C 259.9375 297.742188 259.160156 298.109375 258.367188 298.441406 C 257.574219 298.769531 256.765625 299.058594 255.941406 299.308594 C 255.121094 299.558594 254.285156 299.765625 253.445312 299.933594 C 252.601562 300.101562 251.75 300.226562 250.894531 300.3125 C 250.039062 300.394531 249.183594 300.4375 248.324219 300.4375 C 247.464844 300.4375 246.605469 300.394531 245.75 300.3125 C 244.894531 300.226562 244.046875 300.101562 243.203125 299.933594 C 242.359375 299.765625 241.527344 299.558594 240.703125 299.308594 C 239.882812 299.058594 239.074219 298.769531 238.277344 298.441406 C 237.484375 298.109375 236.707031 297.742188 235.949219 297.339844 C 235.191406 296.933594 234.457031 296.492188 233.742188 296.015625 C 233.027344 295.535156 232.335938 295.023438 231.671875 294.480469 C 231.007812 293.933594 230.371094 293.359375 229.765625 292.75 C 229.15625 292.140625 228.578125 291.507812 228.035156 290.839844 C 227.488281 290.175781 226.976562 289.488281 226.5 288.773438 C 226.023438 288.058594 225.582031 287.320312 225.175781 286.5625 C 224.769531 285.804688 224.402344 285.027344 224.074219 284.234375 C 223.746094 283.441406 223.457031 282.632812 223.207031 281.808594 C 222.957031 280.988281 222.75 280.15625 222.582031 279.3125 C 222.414062 278.46875 222.289062 277.617188 222.203125 276.761719 C 222.117188 275.90625 222.078125 275.050781 222.078125 274.191406 C 222.078125 273.332031 222.117188 272.472656 222.203125 271.617188 C 222.289062 270.761719 222.414062 269.914062 222.582031 269.070312 C 222.75 268.226562 222.957031 267.394531 223.207031 266.570312 C 223.457031 265.75 223.746094 264.941406 224.074219 264.148438 C 224.402344 263.351562 224.769531 262.578125 225.175781 261.820312 C 225.582031 261.058594 226.023438 260.324219 226.5 259.609375 C 226.976562 258.894531 227.488281 258.203125 228.035156 257.539062 C 228.578125 256.875 229.15625 256.238281 229.765625 255.632812 C 230.371094 255.023438 231.007812 254.449219 231.671875 253.902344 C 232.335938 253.355469 233.027344 252.84375 233.742188 252.367188 C 234.457031 251.890625 235.191406 251.449219 235.949219 251.042969 C 236.707031 250.636719 237.484375 250.269531 238.277344 249.941406 C 239.074219 249.613281 239.882812 249.324219 240.703125 249.074219 C 241.527344 248.824219 242.359375 248.617188 243.203125 248.449219 C 244.046875 248.28125 244.894531 248.15625 245.75 248.070312 C 246.605469 247.988281 247.464844 247.945312 248.324219 247.945312 C 249.183594 247.945312 250.039062 247.988281 250.894531 248.070312 C 251.75 248.15625 252.601562 248.28125 253.445312 248.449219 C 254.285156 248.617188 255.121094 248.824219 255.941406 249.074219 C 256.765625 249.324219 257.574219 249.613281 258.367188 249.941406 C 259.160156 250.269531 259.9375 250.636719 260.695312 251.042969 C 261.453125 251.449219 262.191406 251.890625 262.90625 252.367188 C 263.621094 252.84375 264.308594 253.355469 264.972656 253.902344 C 265.636719 254.449219 266.273438 255.023438 266.882812 255.632812 C 267.488281 256.238281 268.066406 256.875 268.613281 257.539062 C 269.15625 258.203125 269.667969 258.894531 270.148438 259.609375 C 270.625 260.324219 271.066406 261.058594 271.46875 261.820312 C 271.875 262.578125 272.242188 263.351562 272.570312 264.148438 C 272.902344 264.941406 273.191406 265.75 273.441406 266.570312 C 273.6875 267.394531 273.898438 268.226562 274.066406 269.070312 C 274.234375 269.914062 274.359375 270.761719 274.445312 271.617188 C 274.527344 272.472656 274.570312 273.332031 274.570312 274.191406 Z M 274.570312 274.191406 " fill-opacity="1" fill-rule="nonzero"/></g><g clip-path="url(#1706798336)"><path fill="#38b6ff" d="M 237.78125 266.203125 C 243.433594 268.046875 248.980469 270.855469 254.925781 270.742188 C 260.136719 270.640625 265.09375 268.25 269.160156 264.996094 C 270.105469 264.242188 271.007812 263.441406 271.875 262.605469 C 271.335938 261.511719 270.726562 260.460938 270.039062 259.449219 C 269.355469 258.441406 268.605469 257.484375 267.785156 256.578125 C 266.964844 255.675781 266.089844 254.832031 265.152344 254.050781 C 264.21875 253.269531 263.230469 252.554688 262.195312 251.910156 C 261.160156 251.265625 260.085938 250.695312 258.96875 250.199219 C 257.855469 249.707031 256.710938 249.292969 255.539062 248.957031 C 254.367188 248.621094 253.175781 248.367188 251.96875 248.199219 C 250.761719 248.03125 249.546875 247.945312 248.328125 247.945312 C 236.78125 247.945312 226.984375 255.394531 223.464844 265.742188 C 227.808594 263.941406 233.164062 264.695312 237.78125 266.203125 Z M 237.78125 266.203125 " fill-opacity="1" fill-rule="nonzero"/></g><g clip-path="url(#a13f8d565c)"><path fill="#38b6ff" d="M 246.425781 274.859375 C 241.589844 274.65625 236.339844 273.519531 232.210938 276.042969 C 228.46875 278.320312 226.859375 283.101562 227.148438 287.472656 C 227.210938 288.390625 227.335938 289.300781 227.527344 290.199219 C 228.75 291.796875 230.140625 293.230469 231.695312 294.503906 C 233.25 295.777344 234.929688 296.859375 236.734375 297.746094 C 238.535156 298.632812 240.417969 299.304688 242.375 299.757812 C 244.332031 300.214844 246.316406 300.4375 248.328125 300.4375 C 262.820312 300.4375 274.578125 288.6875 274.578125 274.1875 C 274.582031 270.746094 273.929688 267.433594 272.628906 264.25 C 265.925781 271.28125 256.128906 275.265625 246.425781 274.859375 Z M 246.425781 274.859375 " fill-opacity="1" fill-rule="nonzero"/></g><g clip-path="url(#12f466bf16)"><path fill="#ffffff" d="M 274.570312 339.609375 C 274.570312 340.46875 274.527344 341.328125 274.445312 342.183594 C 274.359375 343.039062 274.234375 343.886719 274.066406 344.730469 C 273.898438 345.574219 273.6875 346.40625 273.441406 347.230469 C 273.191406 348.050781 272.902344 348.859375 272.570312 349.65625 C 272.242188 350.449219 271.875 351.226562 271.46875 351.984375 C 271.066406 352.742188 270.625 353.476562 270.148438 354.191406 C 269.667969 354.90625 269.15625 355.597656 268.613281 356.261719 C 268.066406 356.925781 267.488281 357.5625 266.882812 358.171875 C 266.273438 358.777344 265.636719 359.355469 264.972656 359.898438 C 264.308594 360.445312 263.621094 360.957031 262.90625 361.433594 C 262.191406 361.910156 261.453125 362.351562 260.695312 362.757812 C 259.9375 363.164062 259.160156 363.53125 258.367188 363.859375 C 257.574219 364.1875 256.765625 364.476562 255.941406 364.726562 C 255.121094 364.976562 254.285156 365.183594 253.445312 365.351562 C 252.601562 365.519531 251.75 365.648438 250.894531 365.730469 C 250.039062 365.816406 249.183594 365.855469 248.324219 365.855469 C 247.464844 365.855469 246.605469 365.816406 245.75 365.730469 C 244.894531 365.648438 244.046875 365.519531 243.203125 365.351562 C 242.359375 365.183594 241.527344 364.976562 240.703125 364.726562 C 239.882812 364.476562 239.074219 364.1875 238.277344 363.859375 C 237.484375 363.53125 236.707031 363.164062 235.949219 362.757812 C 235.191406 362.351562 234.457031 361.910156 233.742188 361.433594 C 233.027344 360.957031 232.335938 360.445312 231.671875 359.898438 C 231.007812 359.355469 230.371094 358.777344 229.765625 358.171875 C 229.15625 357.5625 228.578125 356.925781 228.035156 356.261719 C 227.488281 355.597656 226.976562 354.90625 226.5 354.191406 C 226.023438 353.476562 225.582031 352.742188 225.175781 351.984375 C 224.769531 351.226562 224.402344 350.449219 224.074219 349.65625 C 223.746094 348.859375 223.457031 348.050781 223.207031 347.230469 C 222.957031 346.40625 222.75 345.574219 222.582031 344.730469 C 222.414062 343.886719 222.289062 343.039062 222.203125 342.183594 C 222.117188 341.328125 222.078125 340.46875 222.078125 339.609375 C 222.078125 338.75 222.117188 337.894531 222.203125 337.039062 C 222.289062 336.183594 222.414062 335.332031 222.582031 334.492188 C 222.75 333.648438 222.957031 332.8125 223.207031 331.992188 C 223.457031 331.167969 223.746094 330.359375 224.074219 329.566406 C 224.402344 328.773438 224.769531 327.996094 225.175781 327.238281 C 225.582031 326.480469 226.023438 325.742188 226.5 325.027344 C 226.976562 324.3125 227.488281 323.625 228.035156 322.960938 C 228.578125 322.296875 229.15625 321.660156 229.765625 321.050781 C 230.371094 320.445312 231.007812 319.867188 231.671875 319.320312 C 232.335938 318.777344 233.027344 318.265625 233.742188 317.789062 C 234.457031 317.308594 235.191406 316.867188 235.949219 316.464844 C 236.707031 316.058594 237.484375 315.691406 238.277344 315.363281 C 239.074219 315.035156 239.882812 314.742188 240.703125 314.496094 C 241.527344 314.246094 242.359375 314.035156 243.203125 313.867188 C 244.046875 313.699219 244.894531 313.574219 245.75 313.492188 C 246.605469 313.40625 247.464844 313.363281 248.324219 313.363281 C 249.183594 313.363281 250.039062 313.40625 250.894531 313.492188 C 251.75 313.574219 252.601562 313.699219 253.445312 313.867188 C 254.285156 314.035156 255.121094 314.246094 255.941406 314.496094 C 256.765625 314.742188 257.574219 315.035156 258.367188 315.363281 C 259.160156 315.691406 259.9375 316.058594 260.695312 316.464844 C 261.453125 316.867188 262.191406 317.308594 262.90625 317.789062 C 263.621094 318.265625 264.308594 318.777344 264.972656 319.320312 C 265.636719 319.867188 266.273438 320.445312 266.882812 321.050781 C 267.488281 321.660156 268.066406 322.296875 268.613281 322.960938 C 269.15625 323.625 269.667969 324.3125 270.148438 325.027344 C 270.625 325.742188 271.066406 326.480469 271.46875 327.238281 C 271.875 327.996094 272.242188 328.773438 272.570312 329.566406 C 272.902344 330.359375 273.191406 331.167969 273.441406 331.992188 C 273.6875 332.8125 273.898438 333.648438 274.066406 334.492188 C 274.234375 335.332031 274.359375 336.183594 274.445312 337.039062 C 274.527344 337.894531 274.570312 338.75 274.570312 339.609375 Z M 274.570312 339.609375 " fill-opacity="1" fill-rule="nonzero"/></g><g clip-path="url(#bb665203a2)"><path fill="#38b6ff" d="M 237.78125 331.621094 C 243.433594 333.464844 248.980469 336.277344 254.925781 336.160156 C 260.136719 336.0625 265.09375 333.671875 269.160156 330.414062 C 270.105469 329.660156 271.007812 328.859375 271.875 328.023438 C 271.335938 326.929688 270.726562 325.878906 270.039062 324.871094 C 269.355469 323.859375 268.605469 322.902344 267.785156 322 C 266.964844 321.09375 266.089844 320.253906 265.152344 319.46875 C 264.21875 318.6875 263.230469 317.976562 262.195312 317.328125 C 261.160156 316.683594 260.085938 316.117188 258.96875 315.621094 C 257.855469 315.125 256.710938 314.710938 255.539062 314.375 C 254.367188 314.039062 253.175781 313.789062 251.96875 313.617188 C 250.761719 313.449219 249.546875 313.363281 248.328125 313.363281 C 236.78125 313.363281 226.984375 320.816406 223.464844 331.164062 C 227.808594 329.363281 233.164062 330.113281 237.78125 331.621094 Z M 237.78125 331.621094 " fill-opacity="1" fill-rule="nonzero"/></g><g clip-path="url(#c62118ec29)"><path fill="#38b6ff" d="M 246.425781 340.277344 C 241.589844 340.078125 236.339844 338.941406 232.210938 341.460938 C 228.46875 343.742188 226.859375 348.519531 227.148438 352.894531 C 227.210938 353.8125 227.335938 354.722656 227.527344 355.621094 C 228.75 357.214844 230.140625 358.648438 231.695312 359.921875 C 233.25 361.195312 234.929688 362.277344 236.734375 363.164062 C 238.535156 364.050781 240.417969 364.722656 242.375 365.179688 C 244.332031 365.632812 246.316406 365.859375 248.328125 365.855469 C 262.820312 365.855469 274.578125 354.105469 274.578125 339.605469 C 274.582031 336.167969 273.929688 332.855469 272.628906 329.671875 C 265.925781 336.703125 256.128906 340.683594 246.425781 340.277344 Z M 246.425781 340.277344 " fill-opacity="1" fill-rule="nonzero"/></g><g clip-path="url(#84cfe39773)"><path fill="#ffffff" d="M 274.570312 405.03125 C 274.570312 405.890625 274.527344 406.746094 274.445312 407.601562 C 274.359375 408.457031 274.234375 409.308594 274.066406 410.152344 C 273.898438 410.996094 273.6875 411.828125 273.441406 412.648438 C 273.191406 413.472656 272.902344 414.28125 272.570312 415.074219 C 272.242188 415.867188 271.875 416.644531 271.46875 417.402344 C 271.066406 418.160156 270.625 418.898438 270.148438 419.613281 C 269.667969 420.328125 269.15625 421.015625 268.613281 421.679688 C 268.066406 422.347656 267.488281 422.980469 266.882812 423.589844 C 266.273438 424.199219 265.636719 424.773438 264.972656 425.320312 C 264.308594 425.863281 263.621094 426.375 262.90625 426.855469 C 262.191406 427.332031 261.453125 427.773438 260.695312 428.179688 C 259.9375 428.582031 259.160156 428.949219 258.367188 429.277344 C 257.574219 429.609375 256.765625 429.898438 255.941406 430.148438 C 255.121094 430.398438 254.285156 430.605469 253.445312 430.773438 C 252.601562 430.941406 251.75 431.066406 250.894531 431.152344 C 250.039062 431.234375 249.183594 431.277344 248.324219 431.277344 C 247.464844 431.277344 246.605469 431.234375 245.75 431.152344 C 244.894531 431.066406 244.046875 430.941406 243.203125 430.773438 C 242.359375 430.605469 241.527344 430.398438 240.703125 430.148438 C 239.882812 429.898438 239.074219 429.609375 238.277344 429.277344 C 237.484375 428.949219 236.707031 428.582031 235.949219 428.179688 C 235.191406 427.773438 234.457031 427.332031 233.742188 426.855469 C 233.027344 426.375 232.335938 425.863281 231.671875 425.320312 C 231.007812 424.773438 230.371094 424.199219 229.765625 423.589844 C 229.15625 422.980469 228.578125 422.347656 228.035156 421.679688 C 227.488281 421.015625 226.976562 420.328125 226.5 419.613281 C 226.023438 418.898438 225.582031 418.160156 225.175781 417.402344 C 224.769531 416.644531 224.402344 415.867188 224.074219 415.074219 C 223.746094 414.28125 223.457031 413.472656 223.207031 412.648438 C 222.957031 411.828125 222.75 410.996094 222.582031 410.152344 C 222.414062 409.308594 222.289062 408.457031 222.203125 407.601562 C 222.117188 406.746094 222.078125 405.890625 222.078125 405.03125 C 222.078125 404.171875 222.117188 403.3125 222.203125 402.457031 C 222.289062 401.601562 222.414062 400.753906 222.582031 399.910156 C 222.75 399.066406 222.957031 398.234375 223.207031 397.410156 C 223.457031 396.589844 223.746094 395.78125 224.074219 394.988281 C 224.402344 394.191406 224.769531 393.417969 225.175781 392.65625 C 225.582031 391.898438 226.023438 391.164062 226.5 390.449219 C 226.976562 389.734375 227.488281 389.042969 228.035156 388.378906 C 228.578125 387.714844 229.15625 387.078125 229.765625 386.472656 C 230.371094 385.863281 231.007812 385.285156 231.671875 384.742188 C 232.335938 384.195312 233.027344 383.683594 233.742188 383.207031 C 234.457031 382.730469 235.191406 382.289062 235.949219 381.882812 C 236.707031 381.476562 237.484375 381.109375 238.277344 380.78125 C 239.074219 380.453125 239.882812 380.164062 240.703125 379.914062 C 241.527344 379.664062 242.359375 379.457031 243.203125 379.289062 C 244.046875 379.121094 244.894531 378.996094 245.75 378.910156 C 246.605469 378.828125 247.464844 378.785156 248.324219 378.785156 C 249.183594 378.785156 250.039062 378.828125 250.894531 378.910156 C 251.75 378.996094 252.601562 379.121094 253.445312 379.289062 C 254.285156 379.457031 255.121094 379.664062 255.941406 379.914062 C 256.765625 380.164062 257.574219 380.453125 258.367188 380.78125 C 259.160156 381.109375 259.9375 381.476562 260.695312 381.882812 C 261.453125 382.289062 262.191406 382.730469 262.90625 383.207031 C 263.621094 383.683594 264.308594 384.195312 264.972656 384.742188 C 265.636719 385.285156 266.273438 385.863281 266.882812 386.472656 C 267.488281 387.078125 268.066406 387.714844 268.613281 388.378906 C 269.15625 389.042969 269.667969 389.734375 270.148438 390.449219 C 270.625 391.164062 271.066406 391.898438 271.46875 392.65625 C 271.875 393.417969 272.242188 394.191406 272.570312 394.988281 C 272.902344 395.78125 273.191406 396.589844 273.441406 397.410156 C 273.6875 398.234375 273.898438 399.066406 274.066406 399.910156 C 274.234375 400.753906 274.359375 401.601562 274.445312 402.457031 C 274.527344 403.3125 274.570312 404.171875 274.570312 405.03125 Z M 274.570312 405.03125 " fill-opacity="1" fill-rule="nonzero"/></g><g clip-path="url(#1a7fbe42b0)"><path fill="#38b6ff" d="M 237.78125 397.042969 C 243.433594 398.886719 248.980469 401.695312 254.925781 401.582031 C 260.136719 401.480469 265.09375 399.089844 269.160156 395.835938 C 270.105469 395.082031 271.007812 394.28125 271.875 393.445312 C 271.335938 392.351562 270.726562 391.300781 270.039062 390.289062 C 269.355469 389.28125 268.605469 388.324219 267.785156 387.417969 C 266.964844 386.515625 266.089844 385.671875 265.152344 384.890625 C 264.21875 384.109375 263.230469 383.394531 262.195312 382.75 C 261.160156 382.105469 260.085938 381.535156 258.96875 381.039062 C 257.855469 380.546875 256.710938 380.128906 255.539062 379.796875 C 254.367188 379.460938 253.175781 379.207031 251.96875 379.039062 C 250.761719 378.867188 249.546875 378.785156 248.328125 378.785156 C 236.78125 378.785156 226.984375 386.234375 223.464844 396.582031 C 227.808594 394.78125 233.164062 395.535156 237.78125 397.042969 Z M 237.78125 397.042969 " fill-opacity="1" fill-rule="nonzero"/></g><g clip-path="url(#76487df704)"><path fill="#38b6ff" d="M 246.425781 405.699219 C 241.589844 405.496094 236.339844 404.359375 232.210938 406.878906 C 228.46875 409.160156 226.859375 413.941406 227.148438 418.3125 C 227.210938 419.230469 227.335938 420.140625 227.527344 421.039062 C 228.75 422.632812 230.140625 424.070312 231.695312 425.34375 C 233.25 426.617188 234.929688 427.695312 236.734375 428.585938 C 238.535156 429.472656 240.417969 430.144531 242.375 430.597656 C 244.332031 431.054688 246.316406 431.277344 248.328125 431.277344 C 262.820312 431.277344 274.578125 419.527344 274.578125 405.027344 C 274.582031 401.585938 273.929688 398.273438 272.628906 395.089844 C 265.925781 402.121094 256.128906 406.105469 246.425781 405.699219 Z M 246.425781 405.699219 " fill-opacity="1" fill-rule="nonzero"/></g><g clip-path="url(#98b8587ad4)"><path fill="#ffffff" d="M 139.570312 274.191406 C 139.570312 275.050781 139.527344 275.90625 139.445312 276.761719 C 139.359375 277.617188 139.234375 278.46875 139.066406 279.3125 C 138.898438 280.15625 138.6875 280.988281 138.441406 281.808594 C 138.191406 282.632812 137.902344 283.441406 137.570312 284.234375 C 137.242188 285.027344 136.875 285.804688 136.46875 286.5625 C 136.066406 287.320312 135.625 288.058594 135.148438 288.773438 C 134.667969 289.488281 134.15625 290.175781 133.613281 290.839844 C 133.066406 291.507812 132.492188 292.140625 131.882812 292.75 C 131.273438 293.359375 130.636719 293.933594 129.972656 294.480469 C 129.308594 295.023438 128.621094 295.535156 127.90625 296.015625 C 127.191406 296.492188 126.453125 296.933594 125.695312 297.339844 C 124.9375 297.742188 124.160156 298.109375 123.367188 298.441406 C 122.574219 298.769531 121.765625 299.058594 120.941406 299.308594 C 120.121094 299.558594 119.285156 299.765625 118.445312 299.933594 C 117.601562 300.101562 116.75 300.226562 115.894531 300.3125 C 115.039062 300.394531 114.183594 300.4375 113.324219 300.4375 C 112.464844 300.4375 111.605469 300.394531 110.75 300.3125 C 109.894531 300.226562 109.046875 300.101562 108.203125 299.933594 C 107.359375 299.765625 106.527344 299.558594 105.703125 299.308594 C 104.882812 299.058594 104.074219 298.769531 103.277344 298.441406 C 102.484375 298.109375 101.707031 297.742188 100.949219 297.339844 C 100.191406 296.933594 99.457031 296.492188 98.742188 296.015625 C 98.027344 295.535156 97.335938 295.023438 96.671875 294.480469 C 96.007812 293.933594 95.371094 293.359375 94.765625 292.75 C 94.15625 292.140625 93.578125 291.507812 93.035156 290.839844 C 92.488281 290.175781 91.976562 289.488281 91.5 288.773438 C 91.023438 288.058594 90.582031 287.320312 90.175781 286.5625 C 89.769531 285.804688 89.402344 285.027344 89.074219 284.234375 C 88.746094 283.441406 88.457031 282.632812 88.207031 281.808594 C 87.957031 280.988281 87.75 280.15625 87.582031 279.3125 C 87.414062 278.46875 87.289062 277.617188 87.203125 276.761719 C 87.117188 275.90625 87.078125 275.050781 87.078125 274.191406 C 87.078125 273.332031 87.117188 272.472656 87.203125 271.617188 C 87.289062 270.761719 87.414062 269.914062 87.582031 269.070312 C 87.75 268.226562 87.957031 267.394531 88.207031 266.570312 C 88.457031 265.75 88.746094 264.941406 89.074219 264.148438 C 89.402344 263.351562 89.769531 262.578125 90.175781 261.820312 C 90.582031 261.058594 91.023438 260.324219 91.5 259.609375 C 91.976562 258.894531 92.488281 258.203125 93.035156 257.539062 C 93.578125 256.875 94.15625 256.238281 94.765625 255.632812 C 95.371094 255.023438 96.007812 254.449219 96.671875 253.902344 C 97.335938 253.355469 98.027344 252.84375 98.742188 252.367188 C 99.457031 251.890625 100.191406 251.449219 100.949219 251.042969 C 101.707031 250.636719 102.484375 250.269531 103.277344 249.941406 C 104.074219 249.613281 104.882812 249.324219 105.703125 249.074219 C 106.527344 248.824219 107.359375 248.617188 108.203125 248.449219 C 109.046875 248.28125 109.894531 248.15625 110.75 248.070312 C 111.605469 247.988281 112.464844 247.945312 113.324219 247.945312 C 114.183594 247.945312 115.039062 247.988281 115.894531 248.070312 C 116.75 248.15625 117.601562 248.28125 118.445312 248.449219 C 119.285156 248.617188 120.121094 248.824219 120.941406 249.074219 C 121.765625 249.324219 122.574219 249.613281 123.367188 249.941406 C 124.160156 250.269531 124.9375 250.636719 125.695312 251.042969 C 126.453125 251.449219 127.191406 251.890625 127.90625 252.367188 C 128.621094 252.84375 129.308594 253.355469 129.972656 253.902344 C 130.636719 254.449219 131.273438 255.023438 131.882812 255.632812 C 132.492188 256.238281 133.066406 256.875 133.613281 257.539062 C 134.15625 258.203125 134.667969 258.894531 135.148438 259.609375 C 135.625 260.324219 136.066406 261.058594 136.46875 261.820312 C 136.875 262.578125 137.242188 263.351562 137.570312 264.148438 C 137.902344 264.941406 138.191406 265.75 138.441406 266.570312 C 138.6875 267.394531 138.898438 268.226562 139.066406 269.070312 C 139.234375 269.914062 139.359375 270.761719 139.445312 271.617188 C 139.527344 272.472656 139.570312 273.332031 139.570312 274.191406 Z M 139.570312 274.191406 " fill-opacity="1" fill-rule="nonzero"/></g><g clip-path="url(#4b325d9912)"><path fill="#38b6ff" d="M 102.78125 266.203125 C 108.433594 268.046875 113.980469 270.855469 119.925781 270.742188 C 125.136719 270.640625 130.09375 268.25 134.160156 264.996094 C 135.105469 264.242188 136.007812 263.441406 136.875 262.605469 C 136.335938 261.511719 135.726562 260.460938 135.039062 259.449219 C 134.355469 258.441406 133.605469 257.484375 132.785156 256.578125 C 131.964844 255.675781 131.089844 254.832031 130.152344 254.050781 C 129.21875 253.269531 128.230469 252.554688 127.195312 251.910156 C 126.160156 251.265625 125.085938 250.695312 123.96875 250.199219 C 122.855469 249.707031 121.710938 249.292969 120.539062 248.957031 C 119.367188 248.621094 118.175781 248.367188 116.96875 248.199219 C 115.761719 248.03125 114.546875 247.945312 113.328125 247.945312 C 101.78125 247.945312 91.984375 255.394531 88.464844 265.742188 C 92.808594 263.941406 98.164062 264.695312 102.78125 266.203125 Z M 102.78125 266.203125 " fill-opacity="1" fill-rule="nonzero"/></g><g clip-path="url(#cb54ae3668)"><path fill="#38b6ff" d="M 111.425781 274.859375 C 106.589844 274.65625 101.339844 273.519531 97.210938 276.042969 C 93.46875 278.320312 91.859375 283.101562 92.148438 287.472656 C 92.210938 288.390625 92.335938 289.300781 92.527344 290.199219 C 93.75 291.796875 95.140625 293.230469 96.695312 294.503906 C 98.25 295.777344 99.929688 296.859375 101.734375 297.746094 C 103.535156 298.632812 105.417969 299.304688 107.375 299.757812 C 109.332031 300.214844 111.316406 300.4375 113.328125 300.4375 C 127.820312 300.4375 139.578125 288.6875 139.578125 274.1875 C 139.582031 270.746094 138.929688 267.433594 137.628906 264.25 C 130.925781 271.28125 121.128906 275.265625 111.425781 274.859375 Z M 111.425781 274.859375 " fill-opacity="1" fill-rule="nonzero"/></g><g clip-path="url(#f0bc9b3a47)"><path fill="#ffffff" d="M 139.570312 339.609375 C 139.570312 340.46875 139.527344 341.328125 139.445312 342.183594 C 139.359375 343.039062 139.234375 343.886719 139.066406 344.730469 C 138.898438 345.574219 138.6875 346.40625 138.441406 347.230469 C 138.191406 348.050781 137.902344 348.859375 137.570312 349.65625 C 137.242188 350.449219 136.875 351.226562 136.46875 351.984375 C 136.066406 352.742188 135.625 353.476562 135.148438 354.191406 C 134.667969 354.90625 134.15625 355.597656 133.613281 356.261719 C 133.066406 356.925781 132.492188 357.5625 131.882812 358.171875 C 131.273438 358.777344 130.636719 359.355469 129.972656 359.898438 C 129.308594 360.445312 128.621094 360.957031 127.90625 361.433594 C 127.191406 361.910156 126.453125 362.351562 125.695312 362.757812 C 124.9375 363.164062 124.160156 363.53125 123.367188 363.859375 C 122.574219 364.1875 121.765625 364.476562 120.941406 364.726562 C 120.121094 364.976562 119.285156 365.183594 118.445312 365.351562 C 117.601562 365.519531 116.75 365.648438 115.894531 365.730469 C 115.039062 365.816406 114.183594 365.855469 113.324219 365.855469 C 112.464844 365.855469 111.605469 365.816406 110.75 365.730469 C 109.894531 365.648438 109.046875 365.519531 108.203125 365.351562 C 107.359375 365.183594 106.527344 364.976562 105.703125 364.726562 C 104.882812 364.476562 104.074219 364.1875 103.277344 363.859375 C 102.484375 363.53125 101.707031 363.164062 100.949219 362.757812 C 100.191406 362.351562 99.457031 361.910156 98.742188 361.433594 C 98.027344 360.957031 97.335938 360.445312 96.671875 359.898438 C 96.007812 359.355469 95.371094 358.777344 94.765625 358.171875 C 94.15625 357.5625 93.578125 356.925781 93.035156 356.261719 C 92.488281 355.597656 91.976562 354.90625 91.5 354.191406 C 91.023438 353.476562 90.582031 352.742188 90.175781 351.984375 C 89.769531 351.226562 89.402344 350.449219 89.074219 349.65625 C 88.746094 348.859375 88.457031 348.050781 88.207031 347.230469 C 87.957031 346.40625 87.75 345.574219 87.582031 344.730469 C 87.414062 343.886719 87.289062 343.039062 87.203125 342.183594 C 87.117188 341.328125 87.078125 340.46875 87.078125 339.609375 C 87.078125 338.75 87.117188 337.894531 87.203125 337.039062 C 87.289062 336.183594 87.414062 335.332031 87.582031 334.492188 C 87.75 333.648438 87.957031 332.8125 88.207031 331.992188 C 88.457031 331.167969 88.746094 330.359375 89.074219 329.566406 C 89.402344 328.773438 89.769531 327.996094 90.175781 327.238281 C 90.582031 326.480469 91.023438 325.742188 91.5 325.027344 C 91.976562 324.3125 92.488281 323.625 93.035156 322.960938 C 93.578125 322.296875 94.15625 321.660156 94.765625 321.050781 C 95.371094 320.445312 96.007812 319.867188 96.671875 319.320312 C 97.335938 318.777344 98.027344 318.265625 98.742188 317.789062 C 99.457031 317.308594 100.191406 316.867188 100.949219 316.464844 C 101.707031 316.058594 102.484375 315.691406 103.277344 315.363281 C 104.074219 315.035156 104.882812 314.742188 105.703125 314.496094 C 106.527344 314.246094 107.359375 314.035156 108.203125 313.867188 C 109.046875 313.699219 109.894531 313.574219 110.75 313.492188 C 111.605469 313.40625 112.464844 313.363281 113.324219 313.363281 C 114.183594 313.363281 115.039062 313.40625 115.894531 313.492188 C 116.75 313.574219 117.601562 313.699219 118.445312 313.867188 C 119.285156 314.035156 120.121094 314.246094 120.941406 314.496094 C 121.765625 314.742188 122.574219 315.035156 123.367188 315.363281 C 124.160156 315.691406 124.9375 316.058594 125.695312 316.464844 C 126.453125 316.867188 127.191406 317.308594 127.90625 317.789062 C 128.621094 318.265625 129.308594 318.777344 129.972656 319.320312 C 130.636719 319.867188 131.273438 320.445312 131.882812 321.050781 C 132.492188 321.660156 133.066406 322.296875 133.613281 322.960938 C 134.15625 323.625 134.667969 324.3125 135.148438 325.027344 C 135.625 325.742188 136.066406 326.480469 136.46875 327.238281 C 136.875 327.996094 137.242188 328.773438 137.570312 329.566406 C 137.902344 330.359375 138.191406 331.167969 138.441406 331.992188 C 138.6875 332.8125 138.898438 333.648438 139.066406 334.492188 C 139.234375 335.332031 139.359375 336.183594 139.445312 337.039062 C 139.527344 337.894531 139.570312 338.75 139.570312 339.609375 Z M 139.570312 339.609375 " fill-opacity="1" fill-rule="nonzero"/></g><g clip-path="url(#f1403ee1f0)"><path fill="#38b6ff" d="M 102.78125 331.621094 C 108.433594 333.464844 113.980469 336.277344 119.925781 336.160156 C 125.136719 336.0625 130.09375 333.671875 134.160156 330.414062 C 135.105469 329.660156 136.007812 328.859375 136.875 328.023438 C 136.335938 326.929688 135.726562 325.878906 135.039062 324.871094 C 134.355469 323.859375 133.605469 322.902344 132.785156 322 C 131.964844 321.09375 131.089844 320.253906 130.152344 319.46875 C 129.21875 318.6875 128.230469 317.976562 127.195312 317.328125 C 126.160156 316.683594 125.085938 316.117188 123.96875 315.621094 C 122.855469 315.125 121.710938 314.710938 120.539062 314.375 C 119.367188 314.039062 118.175781 313.789062 116.96875 313.617188 C 115.761719 313.449219 114.546875 313.363281 113.328125 313.363281 C 101.78125 313.363281 91.984375 320.816406 88.464844 331.164062 C 92.808594 329.363281 98.164062 330.113281 102.78125 331.621094 Z M 102.78125 331.621094 " fill-opacity="1" fill-rule="nonzero"/></g><g clip-path="url(#557fae5e2e)"><path fill="#38b6ff" d="M 111.425781 340.277344 C 106.589844 340.078125 101.339844 338.941406 97.210938 341.460938 C 93.46875 343.742188 91.859375 348.519531 92.148438 352.894531 C 92.210938 353.8125 92.335938 354.722656 92.527344 355.621094 C 93.75 357.214844 95.140625 358.648438 96.695312 359.921875 C 98.25 361.195312 99.929688 362.277344 101.734375 363.164062 C 103.535156 364.050781 105.417969 364.722656 107.375 365.179688 C 109.332031 365.632812 111.316406 365.859375 113.328125 365.855469 C 127.820312 365.855469 139.578125 354.105469 139.578125 339.605469 C 139.582031 336.167969 138.929688 332.855469 137.628906 329.671875 C 130.925781 336.703125 121.128906 340.683594 111.425781 340.277344 Z M 111.425781 340.277344 " fill-opacity="1" fill-rule="nonzero"/></g><g clip-path="url(#ec67e72c8f)"><path fill="#ffffff" d="M 139.570312 405.03125 C 139.570312 405.890625 139.527344 406.746094 139.445312 407.601562 C 139.359375 408.457031 139.234375 409.308594 139.066406 410.152344 C 138.898438 410.996094 138.6875 411.828125 138.441406 412.648438 C 138.191406 413.472656 137.902344 414.28125 137.570312 415.074219 C 137.242188 415.867188 136.875 416.644531 136.46875 417.402344 C 136.066406 418.160156 135.625 418.898438 135.148438 419.613281 C 134.667969 420.328125 134.15625 421.015625 133.613281 421.679688 C 133.066406 422.347656 132.492188 422.980469 131.882812 423.589844 C 131.273438 424.199219 130.636719 424.773438 129.972656 425.320312 C 129.308594 425.863281 128.621094 426.375 127.90625 426.855469 C 127.191406 427.332031 126.453125 427.773438 125.695312 428.179688 C 124.9375 428.582031 124.160156 428.949219 123.367188 429.277344 C 122.574219 429.609375 121.765625 429.898438 120.941406 430.148438 C 120.121094 430.398438 119.285156 430.605469 118.445312 430.773438 C 117.601562 430.941406 116.75 431.066406 115.894531 431.152344 C 115.039062 431.234375 114.183594 431.277344 113.324219 431.277344 C 112.464844 431.277344 111.605469 431.234375 110.75 431.152344 C 109.894531 431.066406 109.046875 430.941406 108.203125 430.773438 C 107.359375 430.605469 106.527344 430.398438 105.703125 430.148438 C 104.882812 429.898438 104.074219 429.609375 103.277344 429.277344 C 102.484375 428.949219 101.707031 428.582031 100.949219 428.179688 C 100.191406 427.773438 99.457031 427.332031 98.742188 426.855469 C 98.027344 426.375 97.335938 425.863281 96.671875 425.320312 C 96.007812 424.773438 95.371094 424.199219 94.765625 423.589844 C 94.15625 422.980469 93.578125 422.347656 93.035156 421.679688 C 92.488281 421.015625 91.976562 420.328125 91.5 419.613281 C 91.023438 418.898438 90.582031 418.160156 90.175781 417.402344 C 89.769531 416.644531 89.402344 415.867188 89.074219 415.074219 C 88.746094 414.28125 88.457031 413.472656 88.207031 412.648438 C 87.957031 411.828125 87.75 410.996094 87.582031 410.152344 C 87.414062 409.308594 87.289062 408.457031 87.203125 407.601562 C 87.117188 406.746094 87.078125 405.890625 87.078125 405.03125 C 87.078125 404.171875 87.117188 403.3125 87.203125 402.457031 C 87.289062 401.601562 87.414062 400.753906 87.582031 399.910156 C 87.75 399.066406 87.957031 398.234375 88.207031 397.410156 C 88.457031 396.589844 88.746094 395.78125 89.074219 394.988281 C 89.402344 394.191406 89.769531 393.417969 90.175781 392.65625 C 90.582031 391.898438 91.023438 391.164062 91.5 390.449219 C 91.976562 389.734375 92.488281 389.042969 93.035156 388.378906 C 93.578125 387.714844 94.15625 387.078125 94.765625 386.472656 C 95.371094 385.863281 96.007812 385.285156 96.671875 384.742188 C 97.335938 384.195312 98.027344 383.683594 98.742188 383.207031 C 99.457031 382.730469 100.191406 382.289062 100.949219 381.882812 C 101.707031 381.476562 102.484375 381.109375 103.277344 380.78125 C 104.074219 380.453125 104.882812 380.164062 105.703125 379.914062 C 106.527344 379.664062 107.359375 379.457031 108.203125 379.289062 C 109.046875 379.121094 109.894531 378.996094 110.75 378.910156 C 111.605469 378.828125 112.464844 378.785156 113.324219 378.785156 C 114.183594 378.785156 115.039062 378.828125 115.894531 378.910156 C 116.75 378.996094 117.601562 379.121094 118.445312 379.289062 C 119.285156 379.457031 120.121094 379.664062 120.941406 379.914062 C 121.765625 380.164062 122.574219 380.453125 123.367188 380.78125 C 124.160156 381.109375 124.9375 381.476562 125.695312 381.882812 C 126.453125 382.289062 127.191406 382.730469 127.90625 383.207031 C 128.621094 383.683594 129.308594 384.195312 129.972656 384.742188 C 130.636719 385.285156 131.273438 385.863281 131.882812 386.472656 C 132.492188 387.078125 133.066406 387.714844 133.613281 388.378906 C 134.15625 389.042969 134.667969 389.734375 135.148438 390.449219 C 135.625 391.164062 136.066406 391.898438 136.46875 392.65625 C 136.875 393.417969 137.242188 394.191406 137.570312 394.988281 C 137.902344 395.78125 138.191406 396.589844 138.441406 397.410156 C 138.6875 398.234375 138.898438 399.066406 139.066406 399.910156 C 139.234375 400.753906 139.359375 401.601562 139.445312 402.457031 C 139.527344 403.3125 139.570312 404.171875 139.570312 405.03125 Z M 139.570312 405.03125 " fill-opacity="1" fill-rule="nonzero"/></g><g clip-path="url(#a3c9123ed8)"><path fill="#38b6ff" d="M 102.78125 397.042969 C 108.433594 398.886719 113.980469 401.695312 119.925781 401.582031 C 125.136719 401.480469 130.09375 399.089844 134.160156 395.835938 C 135.105469 395.082031 136.007812 394.28125 136.875 393.445312 C 136.335938 392.351562 135.726562 391.300781 135.039062 390.289062 C 134.355469 389.28125 133.605469 388.324219 132.785156 387.417969 C 131.964844 386.515625 131.089844 385.671875 130.152344 384.890625 C 129.21875 384.109375 128.230469 383.394531 127.195312 382.75 C 126.160156 382.105469 125.085938 381.535156 123.96875 381.039062 C 122.855469 380.546875 121.710938 380.128906 120.539062 379.796875 C 119.367188 379.460938 118.175781 379.207031 116.96875 379.039062 C 115.761719 378.867188 114.546875 378.785156 113.328125 378.785156 C 101.78125 378.785156 91.984375 386.234375 88.464844 396.582031 C 92.808594 394.78125 98.164062 395.535156 102.78125 397.042969 Z M 102.78125 397.042969 " fill-opacity="1" fill-rule="nonzero"/></g><g clip-path="url(#b84d30d08a)"><path fill="#38b6ff" d="M 111.425781 405.699219 C 106.589844 405.496094 101.339844 404.359375 97.210938 406.878906 C 93.46875 409.160156 91.859375 413.941406 92.148438 418.3125 C 92.210938 419.230469 92.335938 420.140625 92.527344 421.039062 C 93.75 422.632812 95.140625 424.070312 96.695312 425.34375 C 98.25 426.617188 99.929688 427.695312 101.734375 428.585938 C 103.535156 429.472656 105.417969 430.144531 107.375 430.597656 C 109.332031 431.054688 111.316406 431.277344 113.328125 431.277344 C 127.820312 431.277344 139.578125 419.527344 139.578125 405.027344 C 139.582031 401.585938 138.929688 398.273438 137.628906 395.089844 C 130.925781 402.121094 121.128906 406.105469 111.425781 405.699219 Z M 111.425781 405.699219 " fill-opacity="1" fill-rule="nonzero"/></g></svg>