<svg xmlns="http://www.w3.org/2000/svg" xmlns:xlink="http://www.w3.org/1999/xlink" width="480" zoomAndPan="magnify" viewBox="0 0 360 503.999982" height="672" preserveAspectRatio="xMidYMid meet" version="1.0"><defs><filter x="0%" y="0%" width="100%" height="100%" id="2b9907f12d"><feColorMatrix values="0 0 0 0 1 0 0 0 0 1 0 0 0 0 1 0 0 0 1 0" color-interpolation-filters="sRGB"/></filter><g/><mask id="a8d9d786c4"><g filter="url(#2b9907f12d)"><rect x="-36" width="432" fill="#000000" y="-50.399998" height="604.799979" fill-opacity="0.1373"/></g></mask><clipPath id="5b1a9d26db"><path d="M 0 0 L 1 0 L 1 432.847656 L 0 432.847656 Z M 0 0 " clip-rule="nonzero"/></clipPath><clipPath id="cf8e1c09f9"><path d="M 0 0 L 18 0 L 18 432.847656 L 0 432.847656 Z M 0 0 " clip-rule="nonzero"/></clipPath><clipPath id="cdaa078518"><path d="M 0 0 L 35 0 L 35 432.847656 L 0 432.847656 Z M 0 0 " clip-rule="nonzero"/></clipPath><clipPath id="274e85aabc"><path d="M 0 0 L 53 0 L 53 432.847656 L 0 432.847656 Z M 0 0 " clip-rule="nonzero"/></clipPath><clipPath id="379fe56a17"><path d="M 0 0 L 70 0 L 70 432.847656 L 0 432.847656 Z M 0 0 " clip-rule="nonzero"/></clipPath><clipPath id="f6132e13f0"><path d="M 0 0 L 88 0 L 88 432.847656 L 0 432.847656 Z M 0 0 " clip-rule="nonzero"/></clipPath><clipPath id="40b687381f"><path d="M 0 0 L 105 0 L 105 432.847656 L 0 432.847656 Z M 0 0 " clip-rule="nonzero"/></clipPath><clipPath id="03a115c0f8"><path d="M 0 0 L 122 0 L 122 432.847656 L 0 432.847656 Z M 0 0 " clip-rule="nonzero"/></clipPath><clipPath id="12261eafb2"><path d="M 0 0 L 140 0 L 140 432.847656 L 0 432.847656 Z M 0 0 " clip-rule="nonzero"/></clipPath><clipPath id="3a819a6b29"><path d="M 0 0 L 157 0 L 157 432.847656 L 0 432.847656 Z M 0 0 " clip-rule="nonzero"/></clipPath><clipPath id="0d668654ae"><path d="M 0 0 L 175 0 L 175 432.847656 L 0 432.847656 Z M 0 0 " clip-rule="nonzero"/></clipPath><clipPath id="4c8c41b26b"><path d="M 0 0 L 192 0 L 192 432.847656 L 0 432.847656 Z M 0 0 " clip-rule="nonzero"/></clipPath><clipPath id="aaae38bcfc"><path d="M 0 0 L 208.722656 0 L 208.722656 432.847656 L 0 432.847656 Z M 0 0 " clip-rule="nonzero"/></clipPath><clipPath id="18af766eba"><rect x="0" width="209" y="0" height="434"/></clipPath><mask id="3828313237"><g filter="url(#2b9907f12d)"><rect x="-36" width="432" fill="#000000" y="-50.399998" height="604.799979" fill-opacity="0.1373"/></g></mask><clipPath id="09b94b78c5"><path d="M 0 0.203125 L 197 0.203125 L 197 498 L 0 498 Z M 0 0.203125 " clip-rule="nonzero"/></clipPath><clipPath id="80bf766039"><path d="M 0 0.203125 L 214 0.203125 L 214 498 L 0 498 Z M 0 0.203125 " clip-rule="nonzero"/></clipPath><clipPath id="375eea9c53"><path d="M 12 0.203125 L 232 0.203125 L 232 498 L 12 498 Z M 12 0.203125 " clip-rule="nonzero"/></clipPath><clipPath id="d3a07e080e"><path d="M 29 0.203125 L 249 0.203125 L 249 498 L 29 498 Z M 29 0.203125 " clip-rule="nonzero"/></clipPath><clipPath id="58eb4dc574"><path d="M 47 0.203125 L 267 0.203125 L 267 498 L 47 498 Z M 47 0.203125 " clip-rule="nonzero"/></clipPath><clipPath id="0b38957f31"><path d="M 64 0.203125 L 284 0.203125 L 284 498 L 64 498 Z M 64 0.203125 " clip-rule="nonzero"/></clipPath><clipPath id="fe34d887d2"><path d="M 81 0.203125 L 301 0.203125 L 301 498 L 81 498 Z M 81 0.203125 " clip-rule="nonzero"/></clipPath><clipPath id="62b0620c99"><path d="M 99 0.203125 L 319 0.203125 L 319 498 L 99 498 Z M 99 0.203125 " clip-rule="nonzero"/></clipPath><clipPath id="54113f5c93"><path d="M 116 0.203125 L 336 0.203125 L 336 498 L 116 498 Z M 116 0.203125 " clip-rule="nonzero"/></clipPath><clipPath id="2b6e07476c"><path d="M 134 0.203125 L 354 0.203125 L 354 498 L 134 498 Z M 134 0.203125 " clip-rule="nonzero"/></clipPath><clipPath id="cab4745e0e"><path d="M 151 0.203125 L 360 0.203125 L 360 498 L 151 498 Z M 151 0.203125 " clip-rule="nonzero"/></clipPath><clipPath id="7b155789ee"><path d="M 168 0.203125 L 360 0.203125 L 360 498 L 168 498 Z M 168 0.203125 " clip-rule="nonzero"/></clipPath><clipPath id="19a4a68acc"><path d="M 186 0.203125 L 360 0.203125 L 360 498 L 186 498 Z M 186 0.203125 " clip-rule="nonzero"/></clipPath><clipPath id="8c1e45163e"><path d="M 203 0.203125 L 360 0.203125 L 360 498 L 203 498 Z M 203 0.203125 " clip-rule="nonzero"/></clipPath><clipPath id="64b3939b49"><path d="M 221 0.203125 L 360 0.203125 L 360 498 L 221 498 Z M 221 0.203125 " clip-rule="nonzero"/></clipPath><clipPath id="654e90a645"><rect x="0" width="360" y="0" height="498"/></clipPath><clipPath id="d6fe02d2f1"><path d="M 28.015625 36 L 331.765625 36 L 331.765625 468 L 28.015625 468 Z M 28.015625 36 " clip-rule="nonzero"/></clipPath><mask id="cbdfa7ec81"><g filter="url(#2b9907f12d)"><rect x="-36" width="432" fill="#000000" y="-50.399998" height="604.799979" fill-opacity="0.1373"/></g></mask><clipPath id="2fca1241fc"><path d="M 0.222656 1 L 122 1 L 122 501.648438 L 0.222656 501.648438 Z M 0.222656 1 " clip-rule="nonzero"/></clipPath><clipPath id="ae0d4d3271"><path d="M 17 1 L 122 1 L 122 501.648438 L 17 501.648438 Z M 17 1 " clip-rule="nonzero"/></clipPath><clipPath id="32610ed221"><path d="M 35 1 L 122 1 L 122 501.648438 L 35 501.648438 Z M 35 1 " clip-rule="nonzero"/></clipPath><clipPath id="1a5f7df6ab"><path d="M 52 1 L 122 1 L 122 501.648438 L 52 501.648438 Z M 52 1 " clip-rule="nonzero"/></clipPath><clipPath id="e7b6224502"><path d="M 70 1 L 122 1 L 122 501.648438 L 70 501.648438 Z M 70 1 " clip-rule="nonzero"/></clipPath><clipPath id="9cefccbdc6"><path d="M 87 1 L 122 1 L 122 501.648438 L 87 501.648438 Z M 87 1 " clip-rule="nonzero"/></clipPath><clipPath id="5139d549e5"><path d="M 104 1 L 122 1 L 122 501.648438 L 104 501.648438 Z M 104 1 " clip-rule="nonzero"/></clipPath><clipPath id="1c9fcf1116"><rect x="0" width="122" y="0" height="502"/></clipPath><clipPath id="ff8b537dcc"><path d="M 87.078125 116.972656 L 139.578125 116.972656 L 139.578125 169.472656 L 87.078125 169.472656 Z M 87.078125 116.972656 " clip-rule="nonzero"/></clipPath><clipPath id="03a5310960"><path d="M 88 116.972656 L 137 116.972656 L 137 140 L 88 140 Z M 88 116.972656 " clip-rule="nonzero"/></clipPath><clipPath id="4b47486265"><path d="M 92 133 L 139.578125 133 L 139.578125 169.472656 L 92 169.472656 Z M 92 133 " clip-rule="nonzero"/></clipPath><clipPath id="a8ba22f065"><path d="M 87.078125 182.460938 L 139.578125 182.460938 L 139.578125 234.960938 L 87.078125 234.960938 Z M 87.078125 182.460938 " clip-rule="nonzero"/></clipPath><clipPath id="7065b4fd6e"><path d="M 88 182.460938 L 137 182.460938 L 137 206 L 88 206 Z M 88 182.460938 " clip-rule="nonzero"/></clipPath><clipPath id="b44b74ed18"><path d="M 92 198 L 139.578125 198 L 139.578125 234.960938 L 92 234.960938 Z M 92 198 " clip-rule="nonzero"/></clipPath><clipPath id="7ba60c692d"><path d="M 87.078125 247.945312 L 139.578125 247.945312 L 139.578125 300.445312 L 87.078125 300.445312 Z M 87.078125 247.945312 " clip-rule="nonzero"/></clipPath><clipPath id="f230f697ac"><path d="M 88 247.945312 L 137 247.945312 L 137 271 L 88 271 Z M 88 247.945312 " clip-rule="nonzero"/></clipPath><clipPath id="00627415e7"><path d="M 92 264 L 139.578125 264 L 139.578125 300.445312 L 92 300.445312 Z M 92 264 " clip-rule="nonzero"/></clipPath><clipPath id="5a96e84dcf"><path d="M 87.078125 313.363281 L 139.578125 313.363281 L 139.578125 365.863281 L 87.078125 365.863281 Z M 87.078125 313.363281 " clip-rule="nonzero"/></clipPath><clipPath id="f6dbd0a600"><path d="M 88 313.363281 L 137 313.363281 L 137 337 L 88 337 Z M 88 313.363281 " clip-rule="nonzero"/></clipPath><clipPath id="71f92059ed"><path d="M 92 329 L 139.578125 329 L 139.578125 365.863281 L 92 365.863281 Z M 92 329 " clip-rule="nonzero"/></clipPath><clipPath id="6488672791"><path d="M 87.078125 378.785156 L 139.578125 378.785156 L 139.578125 431.285156 L 87.078125 431.285156 Z M 87.078125 378.785156 " clip-rule="nonzero"/></clipPath><clipPath id="3e2601b56a"><path d="M 88 378.785156 L 137 378.785156 L 137 402 L 88 402 Z M 88 378.785156 " clip-rule="nonzero"/></clipPath><clipPath id="359446783b"><path d="M 92 395 L 139.578125 395 L 139.578125 431.285156 L 92 431.285156 Z M 92 395 " clip-rule="nonzero"/></clipPath><clipPath id="28a913076d"><path d="M 222.078125 117.105469 L 274.578125 117.105469 L 274.578125 169.605469 L 222.078125 169.605469 Z M 222.078125 117.105469 " clip-rule="nonzero"/></clipPath><clipPath id="3ab3c7ecf0"><path d="M 223 117.105469 L 272 117.105469 L 272 140 L 223 140 Z M 223 117.105469 " clip-rule="nonzero"/></clipPath><clipPath id="1553001cf8"><path d="M 227 133 L 274.578125 133 L 274.578125 169.605469 L 227 169.605469 Z M 227 133 " clip-rule="nonzero"/></clipPath><clipPath id="cd02431266"><path d="M 222.078125 247.945312 L 274.578125 247.945312 L 274.578125 300.445312 L 222.078125 300.445312 Z M 222.078125 247.945312 " clip-rule="nonzero"/></clipPath><clipPath id="8c9c235e4a"><path d="M 223 247.945312 L 272 247.945312 L 272 271 L 223 271 Z M 223 247.945312 " clip-rule="nonzero"/></clipPath><clipPath id="b2921021a3"><path d="M 227 264 L 274.578125 264 L 274.578125 300.445312 L 227 300.445312 Z M 227 264 " clip-rule="nonzero"/></clipPath><clipPath id="967274ede5"><path d="M 222.078125 182.460938 L 274.578125 182.460938 L 274.578125 234.960938 L 222.078125 234.960938 Z M 222.078125 182.460938 " clip-rule="nonzero"/></clipPath><clipPath id="0683c49d7c"><path d="M 223 182.460938 L 272 182.460938 L 272 206 L 223 206 Z M 223 182.460938 " clip-rule="nonzero"/></clipPath><clipPath id="06adb09017"><path d="M 227 198 L 274.578125 198 L 274.578125 234.960938 L 227 234.960938 Z M 227 198 " clip-rule="nonzero"/></clipPath><clipPath id="ee71fdb5bf"><path d="M 222.078125 313.363281 L 274.578125 313.363281 L 274.578125 365.863281 L 222.078125 365.863281 Z M 222.078125 313.363281 " clip-rule="nonzero"/></clipPath><clipPath id="449e7ea54d"><path d="M 223 313.363281 L 272 313.363281 L 272 337 L 223 337 Z M 223 313.363281 " clip-rule="nonzero"/></clipPath><clipPath id="d64f760691"><path d="M 227 329 L 274.578125 329 L 274.578125 365.863281 L 227 365.863281 Z M 227 329 " clip-rule="nonzero"/></clipPath><clipPath id="88298260f2"><path d="M 222.078125 378.785156 L 274.578125 378.785156 L 274.578125 431.285156 L 222.078125 431.285156 Z M 222.078125 378.785156 " clip-rule="nonzero"/></clipPath><clipPath id="90c290a904"><path d="M 223 378.785156 L 272 378.785156 L 272 402 L 223 402 Z M 223 378.785156 " clip-rule="nonzero"/></clipPath><clipPath id="e4d99b9693"><path d="M 227 395 L 274.578125 395 L 274.578125 431.285156 L 227 431.285156 Z M 227 395 " clip-rule="nonzero"/></clipPath></defs><rect x="-36" width="432" fill="#ffffff" y="-50.399998" height="604.799979" fill-opacity="1"/><rect x="-36" width="432" fill="#323232" y="-50.399998" height="604.799979" fill-opacity="1"/><g mask="url(#a8d9d786c4)"><g transform="matrix(1, 0, 0, 1, 0, 0)"><g clip-path="url(#18af766eba)"><g clip-path="url(#5b1a9d26db)"><path fill="#000000" d="M -217.589844 432.296875 L -219.066406 431.664062 L -1.417969 -67.574219 L 0.0507812 -66.9375 Z M -217.589844 432.296875 " fill-opacity="1" fill-rule="nonzero"/></g><g clip-path="url(#cf8e1c09f9)"><path fill="#000000" d="M -200.175781 432.296875 L -201.652344 431.664062 L 15.992188 -67.574219 L 17.460938 -66.9375 Z M -200.175781 432.296875 " fill-opacity="1" fill-rule="nonzero"/></g><g clip-path="url(#cdaa078518)"><path fill="#000000" d="M -182.765625 432.296875 L -184.242188 431.664062 L 33.40625 -67.574219 L 34.875 -66.9375 Z M -182.765625 432.296875 " fill-opacity="1" fill-rule="nonzero"/></g><g clip-path="url(#274e85aabc)"><path fill="#000000" d="M -165.359375 432.296875 L -166.828125 431.664062 L 50.816406 -67.574219 L 52.289062 -66.9375 Z M -165.359375 432.296875 " fill-opacity="1" fill-rule="nonzero"/></g><g clip-path="url(#379fe56a17)"><path fill="#000000" d="M -147.945312 432.296875 L -149.421875 431.664062 L 68.222656 -67.574219 L 69.699219 -66.9375 Z M -147.945312 432.296875 " fill-opacity="1" fill-rule="nonzero"/></g><g clip-path="url(#f6132e13f0)"><path fill="#000000" d="M -130.535156 432.296875 L -132.011719 431.664062 L 85.636719 -67.574219 L 87.113281 -66.9375 Z M -130.535156 432.296875 " fill-opacity="1" fill-rule="nonzero"/></g><g clip-path="url(#40b687381f)"><path fill="#000000" d="M -113.121094 432.296875 L -114.597656 431.664062 L 103.050781 -67.574219 L 104.523438 -66.9375 Z M -113.121094 432.296875 " fill-opacity="1" fill-rule="nonzero"/></g><g clip-path="url(#03a115c0f8)"><path fill="#000000" d="M -95.707031 432.296875 L -97.183594 431.664062 L 120.460938 -67.574219 L 121.929688 -66.9375 Z M -95.707031 432.296875 " fill-opacity="1" fill-rule="nonzero"/></g><g clip-path="url(#12261eafb2)"><path fill="#000000" d="M -78.304688 432.296875 L -79.773438 431.664062 L 137.875 -67.574219 L 139.34375 -66.9375 Z M -78.304688 432.296875 " fill-opacity="1" fill-rule="nonzero"/></g><g clip-path="url(#3a819a6b29)"><path fill="#000000" d="M -60.890625 432.296875 L -62.359375 431.664062 L 155.28125 -67.574219 L 156.757812 -66.9375 Z M -60.890625 432.296875 " fill-opacity="1" fill-rule="nonzero"/></g><g clip-path="url(#0d668654ae)"><path fill="#000000" d="M -43.476562 432.296875 L -44.949219 431.664062 L 172.691406 -67.574219 L 174.167969 -66.9375 Z M -43.476562 432.296875 " fill-opacity="1" fill-rule="nonzero"/></g><g clip-path="url(#4c8c41b26b)"><path fill="#000000" d="M -26.066406 432.296875 L -27.535156 431.664062 L 190.105469 -67.574219 L 191.582031 -66.9375 Z M -26.066406 432.296875 " fill-opacity="1" fill-rule="nonzero"/></g><g clip-path="url(#aaae38bcfc)"><path fill="#000000" d="M -8.652344 432.296875 L -10.128906 431.664062 L 207.515625 -67.574219 L 208.992188 -66.9375 Z M -8.652344 432.296875 " fill-opacity="1" fill-rule="nonzero"/></g></g></g></g><g mask="url(#3828313237)"><g transform="matrix(1, 0, 0, 1, 0, 6)"><g clip-path="url(#654e90a645)"><g clip-path="url(#09b94b78c5)"><path fill="#000000" d="M -21.167969 500.652344 L -22.636719 500.015625 L 195.003906 0.78125 L 196.480469 1.414062 Z M -21.167969 500.652344 " fill-opacity="1" fill-rule="nonzero"/></g><g clip-path="url(#80bf766039)"><path fill="#000000" d="M -3.753906 500.652344 L -5.230469 500.015625 L 212.414062 0.78125 L 213.890625 1.414062 Z M -3.753906 500.652344 " fill-opacity="1" fill-rule="nonzero"/></g><g clip-path="url(#375eea9c53)"><path fill="#000000" d="M 13.65625 500.652344 L 12.183594 500.015625 L 229.828125 0.78125 L 231.296875 1.414062 Z M 13.65625 500.652344 " fill-opacity="1" fill-rule="nonzero"/></g><g clip-path="url(#d3a07e080e)"><path fill="#000000" d="M 31.070312 500.652344 L 29.59375 500.015625 L 247.242188 0.78125 L 248.710938 1.414062 Z M 31.070312 500.652344 " fill-opacity="1" fill-rule="nonzero"/></g><g clip-path="url(#58eb4dc574)"><path fill="#000000" d="M 48.484375 500.652344 L 47.007812 500.015625 L 264.652344 0.78125 L 266.125 1.414062 Z M 48.484375 500.652344 " fill-opacity="1" fill-rule="nonzero"/></g><g clip-path="url(#0b38957f31)"><path fill="#000000" d="M 65.890625 500.652344 L 64.417969 500.015625 L 282.066406 0.78125 L 283.535156 1.414062 Z M 65.890625 500.652344 " fill-opacity="1" fill-rule="nonzero"/></g><g clip-path="url(#fe34d887d2)"><path fill="#000000" d="M 83.300781 500.652344 L 81.824219 500.015625 L 299.472656 0.78125 L 300.949219 1.414062 Z M 83.300781 500.652344 " fill-opacity="1" fill-rule="nonzero"/></g><g clip-path="url(#62b0620c99)"><path fill="#000000" d="M 100.714844 500.652344 L 99.238281 500.015625 L 316.882812 0.78125 L 318.359375 1.414062 Z M 100.714844 500.652344 " fill-opacity="1" fill-rule="nonzero"/></g><g clip-path="url(#54113f5c93)"><path fill="#000000" d="M 118.125 500.652344 L 116.652344 500.015625 L 334.296875 0.78125 L 335.773438 1.414062 Z M 118.125 500.652344 " fill-opacity="1" fill-rule="nonzero"/></g><g clip-path="url(#2b6e07476c)"><path fill="#000000" d="M 135.539062 500.652344 L 134.0625 500.015625 L 351.710938 0.78125 L 353.179688 1.414062 Z M 135.539062 500.652344 " fill-opacity="1" fill-rule="nonzero"/></g><g clip-path="url(#cab4745e0e)"><path fill="#000000" d="M 152.945312 500.652344 L 151.476562 500.015625 L 369.121094 0.78125 L 370.589844 1.414062 Z M 152.945312 500.652344 " fill-opacity="1" fill-rule="nonzero"/></g><g clip-path="url(#7b155789ee)"><path fill="#000000" d="M 170.359375 500.652344 L 168.886719 500.015625 L 386.527344 0.78125 L 388.003906 1.414062 Z M 170.359375 500.652344 " fill-opacity="1" fill-rule="nonzero"/></g><g clip-path="url(#19a4a68acc)"><path fill="#000000" d="M 187.769531 500.652344 L 186.300781 500.015625 L 403.941406 0.78125 L 405.417969 1.414062 Z M 187.769531 500.652344 " fill-opacity="1" fill-rule="nonzero"/></g><g clip-path="url(#8c1e45163e)"><path fill="#000000" d="M 205.183594 500.652344 L 203.710938 500.015625 L 421.351562 0.78125 L 422.828125 1.414062 Z M 205.183594 500.652344 " fill-opacity="1" fill-rule="nonzero"/></g><g clip-path="url(#64b3939b49)"><path fill="#000000" d="M 222.59375 500.652344 L 221.117188 500.015625 L 438.765625 0.78125 L 440.242188 1.414062 Z M 222.59375 500.652344 " fill-opacity="1" fill-rule="nonzero"/></g></g></g></g><g clip-path="url(#d6fe02d2f1)"><path fill="#38b6ff" d="M 331.601562 467.976562 L 28.1875 467.976562 L 28.1875 36 L 331.601562 36 Z M 29.066406 467.097656 L 330.722656 467.097656 L 330.722656 36.878906 L 29.066406 36.878906 Z M 29.066406 467.097656 " fill-opacity="1" fill-rule="nonzero"/></g><g fill="#38b6ff" fill-opacity="1"><g transform="translate(28.014549, 95.039993)"><g><path d="M 22.542969 -42.847656 L 21.175781 -42.847656 C 20.308594 -42.847656 19.625 -42.664062 18.070312 -41.730469 L 8.382812 -35.644531 L 8.382812 -33.097656 L 20.183594 -40.304688 L 20.183594 0 L 22.542969 0 Z M 22.542969 -42.847656 "/></g></g></g><g fill="#38b6ff" fill-opacity="1"><g transform="translate(61.733545, 95.039993)"><g><path d="M 16.828125 -43.71875 C 6.210938 -43.71875 2.296875 -34.402344 2.296875 -21.425781 C 2.296875 -8.570312 6.210938 0.871094 16.828125 0.871094 C 27.511719 0.871094 31.359375 -8.507812 31.359375 -21.425781 C 31.359375 -34.339844 27.511719 -43.71875 16.828125 -43.71875 Z M 16.828125 -1.179688 C 8.011719 -1.179688 4.90625 -9.8125 4.90625 -21.425781 C 4.90625 -33.160156 8.011719 -41.667969 16.828125 -41.667969 C 25.710938 -41.667969 28.753906 -33.097656 28.753906 -21.425781 C 28.753906 -9.75 25.710938 -1.179688 16.828125 -1.179688 Z M 16.828125 -1.179688 "/></g></g></g><g mask="url(#cbdfa7ec81)"><g transform="matrix(1, 0, 0, 1, 238, 2)"><g clip-path="url(#1c9fcf1116)"><g clip-path="url(#2fca1241fc)"><path fill="#000000" d="M 1.832031 501.097656 L 0.363281 500.460938 L 218.003906 1.226562 L 219.480469 1.859375 Z M 1.832031 501.097656 " fill-opacity="1" fill-rule="nonzero"/></g><g clip-path="url(#ae0d4d3271)"><path fill="#000000" d="M 19.246094 501.097656 L 17.769531 500.460938 L 235.414062 1.226562 L 236.890625 1.859375 Z M 19.246094 501.097656 " fill-opacity="1" fill-rule="nonzero"/></g><g clip-path="url(#32610ed221)"><path fill="#000000" d="M 36.65625 501.097656 L 35.183594 500.460938 L 252.828125 1.226562 L 254.296875 1.859375 Z M 36.65625 501.097656 " fill-opacity="1" fill-rule="nonzero"/></g><g clip-path="url(#1a5f7df6ab)"><path fill="#000000" d="M 54.070312 501.097656 L 52.59375 500.460938 L 270.242188 1.226562 L 271.710938 1.859375 Z M 54.070312 501.097656 " fill-opacity="1" fill-rule="nonzero"/></g><g clip-path="url(#e7b6224502)"><path fill="#000000" d="M 71.484375 501.097656 L 70.007812 500.460938 L 287.652344 1.226562 L 289.125 1.859375 Z M 71.484375 501.097656 " fill-opacity="1" fill-rule="nonzero"/></g><g clip-path="url(#9cefccbdc6)"><path fill="#000000" d="M 88.890625 501.097656 L 87.417969 500.460938 L 305.066406 1.226562 L 306.535156 1.859375 Z M 88.890625 501.097656 " fill-opacity="1" fill-rule="nonzero"/></g><g clip-path="url(#5139d549e5)"><path fill="#000000" d="M 106.300781 501.097656 L 104.824219 500.460938 L 322.472656 1.226562 L 323.949219 1.859375 Z M 106.300781 501.097656 " fill-opacity="1" fill-rule="nonzero"/></g></g></g></g><g clip-path="url(#ff8b537dcc)"><path fill="#ffffff" d="M 139.570312 143.222656 C 139.570312 144.082031 139.527344 144.9375 139.445312 145.792969 C 139.359375 146.648438 139.234375 147.5 139.066406 148.339844 C 138.898438 149.183594 138.6875 150.015625 138.441406 150.839844 C 138.191406 151.664062 137.902344 152.472656 137.570312 153.265625 C 137.242188 154.058594 136.875 154.835938 136.46875 155.59375 C 136.066406 156.351562 135.625 157.085938 135.148438 157.800781 C 134.667969 158.515625 134.15625 159.207031 133.613281 159.871094 C 133.066406 160.535156 132.492188 161.171875 131.882812 161.78125 C 131.273438 162.386719 130.636719 162.964844 129.972656 163.507812 C 129.308594 164.054688 128.621094 164.566406 127.90625 165.042969 C 127.191406 165.523438 126.453125 165.964844 125.695312 166.367188 C 124.9375 166.773438 124.160156 167.140625 123.367188 167.46875 C 122.574219 167.796875 121.765625 168.085938 120.941406 168.335938 C 120.121094 168.585938 119.285156 168.796875 118.445312 168.964844 C 117.601562 169.128906 116.75 169.257812 115.894531 169.339844 C 115.039062 169.425781 114.183594 169.46875 113.324219 169.46875 C 112.464844 169.46875 111.605469 169.425781 110.75 169.339844 C 109.894531 169.257812 109.046875 169.128906 108.203125 168.964844 C 107.359375 168.796875 106.527344 168.585938 105.703125 168.335938 C 104.882812 168.085938 104.074219 167.796875 103.277344 167.46875 C 102.484375 167.140625 101.707031 166.773438 100.949219 166.367188 C 100.191406 165.964844 99.457031 165.523438 98.742188 165.042969 C 98.027344 164.566406 97.335938 164.054688 96.671875 163.507812 C 96.007812 162.964844 95.371094 162.386719 94.765625 161.78125 C 94.15625 161.171875 93.578125 160.535156 93.035156 159.871094 C 92.488281 159.207031 91.976562 158.515625 91.5 157.800781 C 91.023438 157.085938 90.582031 156.351562 90.175781 155.59375 C 89.769531 154.835938 89.402344 154.058594 89.074219 153.265625 C 88.746094 152.472656 88.457031 151.664062 88.207031 150.839844 C 87.957031 150.015625 87.75 149.183594 87.582031 148.339844 C 87.414062 147.5 87.289062 146.648438 87.203125 145.792969 C 87.117188 144.9375 87.078125 144.082031 87.078125 143.222656 C 87.078125 142.359375 87.117188 141.503906 87.203125 140.648438 C 87.289062 139.792969 87.414062 138.945312 87.582031 138.101562 C 87.75 137.257812 87.957031 136.425781 88.207031 135.601562 C 88.457031 134.777344 88.746094 133.972656 89.074219 133.175781 C 89.402344 132.382812 89.769531 131.605469 90.175781 130.847656 C 90.582031 130.089844 91.023438 129.355469 91.5 128.640625 C 91.976562 127.925781 92.488281 127.234375 93.035156 126.570312 C 93.578125 125.90625 94.15625 125.269531 94.765625 124.660156 C 95.371094 124.054688 96.007812 123.476562 96.671875 122.933594 C 97.335938 122.386719 98.027344 121.875 98.742188 121.398438 C 99.457031 120.921875 100.191406 120.480469 100.949219 120.074219 C 101.707031 119.667969 102.484375 119.300781 103.277344 118.972656 C 104.074219 118.644531 104.882812 118.355469 105.703125 118.105469 C 106.527344 117.855469 107.359375 117.644531 108.203125 117.480469 C 109.046875 117.3125 109.894531 117.183594 110.75 117.101562 C 111.605469 117.015625 112.464844 116.972656 113.324219 116.972656 C 114.183594 116.972656 115.039062 117.015625 115.894531 117.101562 C 116.75 117.183594 117.601562 117.3125 118.445312 117.480469 C 119.285156 117.644531 120.121094 117.855469 120.941406 118.105469 C 121.765625 118.355469 122.574219 118.644531 123.367188 118.972656 C 124.160156 119.300781 124.9375 119.667969 125.695312 120.074219 C 126.453125 120.480469 127.191406 120.921875 127.90625 121.398438 C 128.621094 121.875 129.308594 122.386719 129.972656 122.933594 C 130.636719 123.476562 131.273438 124.054688 131.882812 124.660156 C 132.492188 125.269531 133.066406 125.90625 133.613281 126.570312 C 134.15625 127.234375 134.667969 127.925781 135.148438 128.640625 C 135.625 129.355469 136.066406 130.089844 136.46875 130.847656 C 136.875 131.605469 137.242188 132.382812 137.570312 133.175781 C 137.902344 133.972656 138.191406 134.777344 138.441406 135.601562 C 138.6875 136.425781 138.898438 137.257812 139.066406 138.101562 C 139.234375 138.945312 139.359375 139.792969 139.445312 140.648438 C 139.527344 141.503906 139.570312 142.359375 139.570312 143.222656 Z M 139.570312 143.222656 " fill-opacity="1" fill-rule="nonzero"/></g><g clip-path="url(#03a5310960)"><path fill="#38b6ff" d="M 102.78125 135.230469 C 108.433594 137.078125 113.980469 139.886719 119.925781 139.773438 C 125.136719 139.671875 130.09375 137.28125 134.160156 134.023438 C 135.105469 133.269531 136.007812 132.46875 136.875 131.636719 C 136.335938 130.539062 135.726562 129.488281 135.039062 128.480469 C 134.355469 127.46875 133.605469 126.515625 132.785156 125.609375 C 131.964844 124.707031 131.089844 123.863281 130.152344 123.078125 C 129.21875 122.296875 128.230469 121.585938 127.195312 120.941406 C 126.160156 120.296875 125.085938 119.726562 123.96875 119.230469 C 122.855469 118.734375 121.710938 118.320312 120.539062 117.984375 C 119.367188 117.648438 118.175781 117.398438 116.96875 117.230469 C 115.761719 117.058594 114.546875 116.972656 113.328125 116.972656 C 101.78125 116.972656 91.984375 124.425781 88.464844 134.773438 C 92.808594 132.972656 98.164062 133.726562 102.78125 135.230469 Z M 102.78125 135.230469 " fill-opacity="1" fill-rule="nonzero"/></g><g clip-path="url(#4b47486265)"><path fill="#38b6ff" d="M 111.425781 143.890625 C 106.589844 143.6875 101.339844 142.550781 97.210938 145.070312 C 93.46875 147.351562 91.859375 152.132812 92.148438 156.503906 C 92.210938 157.421875 92.335938 158.332031 92.527344 159.230469 C 93.75 160.824219 95.140625 162.257812 96.695312 163.53125 C 98.25 164.804688 99.929688 165.886719 101.734375 166.773438 C 103.535156 167.664062 105.417969 168.332031 107.375 168.789062 C 109.332031 169.242188 111.316406 169.46875 113.328125 169.46875 C 127.820312 169.46875 139.578125 157.714844 139.578125 143.21875 C 139.582031 139.777344 138.929688 136.464844 137.628906 133.28125 C 130.925781 140.3125 121.128906 144.292969 111.425781 143.890625 Z M 111.425781 143.890625 " fill-opacity="1" fill-rule="nonzero"/></g><g clip-path="url(#a8ba22f065)"><path fill="#ffffff" d="M 139.570312 208.707031 C 139.570312 209.566406 139.527344 210.421875 139.445312 211.277344 C 139.359375 212.132812 139.234375 212.984375 139.066406 213.828125 C 138.898438 214.667969 138.6875 215.503906 138.441406 216.324219 C 138.191406 217.148438 137.902344 217.957031 137.570312 218.75 C 137.242188 219.542969 136.875 220.320312 136.46875 221.078125 C 136.066406 221.835938 135.625 222.574219 135.148438 223.289062 C 134.667969 224.003906 134.15625 224.691406 133.613281 225.355469 C 133.066406 226.019531 132.492188 226.65625 131.882812 227.265625 C 131.273438 227.871094 130.636719 228.449219 129.972656 228.996094 C 129.308594 229.539062 128.621094 230.050781 127.90625 230.527344 C 127.191406 231.007812 126.453125 231.449219 125.695312 231.851562 C 124.9375 232.257812 124.160156 232.625 123.367188 232.953125 C 122.574219 233.285156 121.765625 233.574219 120.941406 233.820312 C 120.121094 234.070312 119.285156 234.28125 118.445312 234.449219 C 117.601562 234.617188 116.75 234.742188 115.894531 234.824219 C 115.039062 234.910156 114.183594 234.953125 113.324219 234.953125 C 112.464844 234.953125 111.605469 234.910156 110.75 234.824219 C 109.894531 234.742188 109.046875 234.617188 108.203125 234.449219 C 107.359375 234.28125 106.527344 234.070312 105.703125 233.820312 C 104.882812 233.574219 104.074219 233.285156 103.277344 232.953125 C 102.484375 232.625 101.707031 232.257812 100.949219 231.851562 C 100.191406 231.449219 99.457031 231.007812 98.742188 230.527344 C 98.027344 230.050781 97.335938 229.539062 96.671875 228.996094 C 96.007812 228.449219 95.371094 227.871094 94.765625 227.265625 C 94.15625 226.65625 93.578125 226.019531 93.035156 225.355469 C 92.488281 224.691406 91.976562 224.003906 91.5 223.289062 C 91.023438 222.574219 90.582031 221.835938 90.175781 221.078125 C 89.769531 220.320312 89.402344 219.542969 89.074219 218.75 C 88.746094 217.957031 88.457031 217.148438 88.207031 216.324219 C 87.957031 215.503906 87.75 214.667969 87.582031 213.828125 C 87.414062 212.984375 87.289062 212.132812 87.203125 211.277344 C 87.117188 210.421875 87.078125 209.566406 87.078125 208.707031 C 87.078125 207.847656 87.117188 206.988281 87.203125 206.132812 C 87.289062 205.277344 87.414062 204.429688 87.582031 203.585938 C 87.75 202.742188 87.957031 201.910156 88.207031 201.085938 C 88.457031 200.265625 88.746094 199.457031 89.074219 198.660156 C 89.402344 197.867188 89.769531 197.089844 90.175781 196.332031 C 90.582031 195.574219 91.023438 194.839844 91.5 194.125 C 91.976562 193.410156 92.488281 192.71875 93.035156 192.054688 C 93.578125 191.390625 94.15625 190.753906 94.765625 190.148438 C 95.371094 189.539062 96.007812 188.960938 96.671875 188.417969 C 97.335938 187.871094 98.027344 187.359375 98.742188 186.882812 C 99.457031 186.40625 100.191406 185.964844 100.949219 185.558594 C 101.707031 185.152344 102.484375 184.785156 103.277344 184.457031 C 104.074219 184.128906 104.882812 183.839844 105.703125 183.589844 C 106.527344 183.339844 107.359375 183.132812 108.203125 182.964844 C 109.046875 182.796875 109.894531 182.671875 110.75 182.585938 C 111.605469 182.5 112.464844 182.460938 113.324219 182.460938 C 114.183594 182.460938 115.039062 182.5 115.894531 182.585938 C 116.75 182.671875 117.601562 182.796875 118.445312 182.964844 C 119.285156 183.132812 120.121094 183.339844 120.941406 183.589844 C 121.765625 183.839844 122.574219 184.128906 123.367188 184.457031 C 124.160156 184.785156 124.9375 185.152344 125.695312 185.558594 C 126.453125 185.964844 127.191406 186.40625 127.90625 186.882812 C 128.621094 187.359375 129.308594 187.871094 129.972656 188.417969 C 130.636719 188.960938 131.273438 189.539062 131.882812 190.148438 C 132.492188 190.753906 133.066406 191.390625 133.613281 192.054688 C 134.15625 192.71875 134.667969 193.410156 135.148438 194.125 C 135.625 194.839844 136.066406 195.574219 136.46875 196.332031 C 136.875 197.089844 137.242188 197.867188 137.570312 198.660156 C 137.902344 199.457031 138.191406 200.265625 138.441406 201.085938 C 138.6875 201.910156 138.898438 202.742188 139.066406 203.585938 C 139.234375 204.429688 139.359375 205.277344 139.445312 206.132812 C 139.527344 206.988281 139.570312 207.847656 139.570312 208.707031 Z M 139.570312 208.707031 " fill-opacity="1" fill-rule="nonzero"/></g><g clip-path="url(#7065b4fd6e)"><path fill="#38b6ff" d="M 102.78125 200.71875 C 108.433594 202.5625 113.980469 205.371094 119.925781 205.257812 C 125.136719 205.15625 130.09375 202.765625 134.160156 199.511719 C 135.105469 198.757812 136.007812 197.953125 136.875 197.121094 C 136.335938 196.027344 135.726562 194.972656 135.039062 193.964844 C 134.355469 192.957031 133.605469 192 132.785156 191.09375 C 131.964844 190.191406 131.089844 189.347656 130.152344 188.566406 C 129.21875 187.78125 128.230469 187.070312 127.195312 186.425781 C 126.160156 185.78125 125.085938 185.210938 123.96875 184.714844 C 122.855469 184.222656 121.710938 183.804688 120.539062 183.472656 C 119.367188 183.136719 118.175781 182.882812 116.96875 182.714844 C 115.761719 182.542969 114.546875 182.460938 113.328125 182.460938 C 101.78125 182.460938 91.984375 189.910156 88.464844 200.257812 C 92.808594 198.457031 98.164062 199.210938 102.78125 200.71875 Z M 102.78125 200.71875 " fill-opacity="1" fill-rule="nonzero"/></g><g clip-path="url(#b44b74ed18)"><path fill="#38b6ff" d="M 111.425781 209.375 C 106.589844 209.171875 101.339844 208.035156 97.210938 210.554688 C 93.46875 212.835938 91.859375 217.617188 92.148438 221.988281 C 92.210938 222.90625 92.335938 223.816406 92.527344 224.714844 C 93.75 226.308594 95.140625 227.742188 96.695312 229.019531 C 98.25 230.292969 99.929688 231.371094 101.734375 232.261719 C 103.535156 233.148438 105.417969 233.820312 107.375 234.273438 C 109.332031 234.726562 111.316406 234.953125 113.328125 234.953125 C 127.820312 234.953125 139.578125 223.199219 139.578125 208.703125 C 139.582031 205.261719 138.929688 201.949219 137.628906 198.765625 C 130.925781 205.796875 121.128906 209.78125 111.425781 209.375 Z M 111.425781 209.375 " fill-opacity="1" fill-rule="nonzero"/></g><g clip-path="url(#7ba60c692d)"><path fill="#ffffff" d="M 139.570312 274.191406 C 139.570312 275.050781 139.527344 275.90625 139.445312 276.761719 C 139.359375 277.617188 139.234375 278.46875 139.066406 279.3125 C 138.898438 280.15625 138.6875 280.988281 138.441406 281.808594 C 138.191406 282.632812 137.902344 283.441406 137.570312 284.234375 C 137.242188 285.027344 136.875 285.804688 136.46875 286.5625 C 136.066406 287.320312 135.625 288.058594 135.148438 288.773438 C 134.667969 289.488281 134.15625 290.175781 133.613281 290.839844 C 133.066406 291.507812 132.492188 292.140625 131.882812 292.75 C 131.273438 293.359375 130.636719 293.933594 129.972656 294.480469 C 129.308594 295.023438 128.621094 295.535156 127.90625 296.015625 C 127.191406 296.492188 126.453125 296.933594 125.695312 297.339844 C 124.9375 297.742188 124.160156 298.109375 123.367188 298.441406 C 122.574219 298.769531 121.765625 299.058594 120.941406 299.308594 C 120.121094 299.558594 119.285156 299.765625 118.445312 299.933594 C 117.601562 300.101562 116.75 300.226562 115.894531 300.3125 C 115.039062 300.394531 114.183594 300.4375 113.324219 300.4375 C 112.464844 300.4375 111.605469 300.394531 110.75 300.3125 C 109.894531 300.226562 109.046875 300.101562 108.203125 299.933594 C 107.359375 299.765625 106.527344 299.558594 105.703125 299.308594 C 104.882812 299.058594 104.074219 298.769531 103.277344 298.441406 C 102.484375 298.109375 101.707031 297.742188 100.949219 297.339844 C 100.191406 296.933594 99.457031 296.492188 98.742188 296.015625 C 98.027344 295.535156 97.335938 295.023438 96.671875 294.480469 C 96.007812 293.933594 95.371094 293.359375 94.765625 292.75 C 94.15625 292.140625 93.578125 291.507812 93.035156 290.839844 C 92.488281 290.175781 91.976562 289.488281 91.5 288.773438 C 91.023438 288.058594 90.582031 287.320312 90.175781 286.5625 C 89.769531 285.804688 89.402344 285.027344 89.074219 284.234375 C 88.746094 283.441406 88.457031 282.632812 88.207031 281.808594 C 87.957031 280.988281 87.75 280.15625 87.582031 279.3125 C 87.414062 278.46875 87.289062 277.617188 87.203125 276.761719 C 87.117188 275.90625 87.078125 275.050781 87.078125 274.191406 C 87.078125 273.332031 87.117188 272.472656 87.203125 271.617188 C 87.289062 270.761719 87.414062 269.914062 87.582031 269.070312 C 87.75 268.226562 87.957031 267.394531 88.207031 266.570312 C 88.457031 265.75 88.746094 264.941406 89.074219 264.148438 C 89.402344 263.351562 89.769531 262.578125 90.175781 261.820312 C 90.582031 261.058594 91.023438 260.324219 91.5 259.609375 C 91.976562 258.894531 92.488281 258.203125 93.035156 257.539062 C 93.578125 256.875 94.15625 256.238281 94.765625 255.632812 C 95.371094 255.023438 96.007812 254.449219 96.671875 253.902344 C 97.335938 253.355469 98.027344 252.84375 98.742188 252.367188 C 99.457031 251.890625 100.191406 251.449219 100.949219 251.042969 C 101.707031 250.636719 102.484375 250.269531 103.277344 249.941406 C 104.074219 249.613281 104.882812 249.324219 105.703125 249.074219 C 106.527344 248.824219 107.359375 248.617188 108.203125 248.449219 C 109.046875 248.28125 109.894531 248.15625 110.75 248.070312 C 111.605469 247.988281 112.464844 247.945312 113.324219 247.945312 C 114.183594 247.945312 115.039062 247.988281 115.894531 248.070312 C 116.75 248.15625 117.601562 248.28125 118.445312 248.449219 C 119.285156 248.617188 120.121094 248.824219 120.941406 249.074219 C 121.765625 249.324219 122.574219 249.613281 123.367188 249.941406 C 124.160156 250.269531 124.9375 250.636719 125.695312 251.042969 C 126.453125 251.449219 127.191406 251.890625 127.90625 252.367188 C 128.621094 252.84375 129.308594 253.355469 129.972656 253.902344 C 130.636719 254.449219 131.273438 255.023438 131.882812 255.632812 C 132.492188 256.238281 133.066406 256.875 133.613281 257.539062 C 134.15625 258.203125 134.667969 258.894531 135.148438 259.609375 C 135.625 260.324219 136.066406 261.058594 136.46875 261.820312 C 136.875 262.578125 137.242188 263.351562 137.570312 264.148438 C 137.902344 264.941406 138.191406 265.75 138.441406 266.570312 C 138.6875 267.394531 138.898438 268.226562 139.066406 269.070312 C 139.234375 269.914062 139.359375 270.761719 139.445312 271.617188 C 139.527344 272.472656 139.570312 273.332031 139.570312 274.191406 Z M 139.570312 274.191406 " fill-opacity="1" fill-rule="nonzero"/></g><g clip-path="url(#f230f697ac)"><path fill="#38b6ff" d="M 102.78125 266.203125 C 108.433594 268.046875 113.980469 270.855469 119.925781 270.742188 C 125.136719 270.640625 130.09375 268.25 134.160156 264.996094 C 135.105469 264.242188 136.007812 263.441406 136.875 262.605469 C 136.335938 261.511719 135.726562 260.460938 135.039062 259.449219 C 134.355469 258.441406 133.605469 257.484375 132.785156 256.578125 C 131.964844 255.675781 131.089844 254.832031 130.152344 254.050781 C 129.21875 253.269531 128.230469 252.554688 127.195312 251.910156 C 126.160156 251.265625 125.085938 250.695312 123.96875 250.199219 C 122.855469 249.707031 121.710938 249.292969 120.539062 248.957031 C 119.367188 248.621094 118.175781 248.367188 116.96875 248.199219 C 115.761719 248.03125 114.546875 247.945312 113.328125 247.945312 C 101.78125 247.945312 91.984375 255.394531 88.464844 265.742188 C 92.808594 263.941406 98.164062 264.695312 102.78125 266.203125 Z M 102.78125 266.203125 " fill-opacity="1" fill-rule="nonzero"/></g><g clip-path="url(#00627415e7)"><path fill="#38b6ff" d="M 111.425781 274.859375 C 106.589844 274.65625 101.339844 273.519531 97.210938 276.042969 C 93.46875 278.320312 91.859375 283.101562 92.148438 287.472656 C 92.210938 288.390625 92.335938 289.300781 92.527344 290.199219 C 93.75 291.796875 95.140625 293.230469 96.695312 294.503906 C 98.25 295.777344 99.929688 296.859375 101.734375 297.746094 C 103.535156 298.632812 105.417969 299.304688 107.375 299.757812 C 109.332031 300.214844 111.316406 300.4375 113.328125 300.4375 C 127.820312 300.4375 139.578125 288.6875 139.578125 274.1875 C 139.582031 270.746094 138.929688 267.433594 137.628906 264.25 C 130.925781 271.28125 121.128906 275.265625 111.425781 274.859375 Z M 111.425781 274.859375 " fill-opacity="1" fill-rule="nonzero"/></g><g clip-path="url(#5a96e84dcf)"><path fill="#ffffff" d="M 139.570312 339.609375 C 139.570312 340.46875 139.527344 341.328125 139.445312 342.183594 C 139.359375 343.039062 139.234375 343.886719 139.066406 344.730469 C 138.898438 345.574219 138.6875 346.40625 138.441406 347.230469 C 138.191406 348.050781 137.902344 348.859375 137.570312 349.65625 C 137.242188 350.449219 136.875 351.226562 136.46875 351.984375 C 136.066406 352.742188 135.625 353.476562 135.148438 354.191406 C 134.667969 354.90625 134.15625 355.597656 133.613281 356.261719 C 133.066406 356.925781 132.492188 357.5625 131.882812 358.171875 C 131.273438 358.777344 130.636719 359.355469 129.972656 359.898438 C 129.308594 360.445312 128.621094 360.957031 127.90625 361.433594 C 127.191406 361.910156 126.453125 362.351562 125.695312 362.757812 C 124.9375 363.164062 124.160156 363.53125 123.367188 363.859375 C 122.574219 364.1875 121.765625 364.476562 120.941406 364.726562 C 120.121094 364.976562 119.285156 365.183594 118.445312 365.351562 C 117.601562 365.519531 116.75 365.648438 115.894531 365.730469 C 115.039062 365.816406 114.183594 365.855469 113.324219 365.855469 C 112.464844 365.855469 111.605469 365.816406 110.75 365.730469 C 109.894531 365.648438 109.046875 365.519531 108.203125 365.351562 C 107.359375 365.183594 106.527344 364.976562 105.703125 364.726562 C 104.882812 364.476562 104.074219 364.1875 103.277344 363.859375 C 102.484375 363.53125 101.707031 363.164062 100.949219 362.757812 C 100.191406 362.351562 99.457031 361.910156 98.742188 361.433594 C 98.027344 360.957031 97.335938 360.445312 96.671875 359.898438 C 96.007812 359.355469 95.371094 358.777344 94.765625 358.171875 C 94.15625 357.5625 93.578125 356.925781 93.035156 356.261719 C 92.488281 355.597656 91.976562 354.90625 91.5 354.191406 C 91.023438 353.476562 90.582031 352.742188 90.175781 351.984375 C 89.769531 351.226562 89.402344 350.449219 89.074219 349.65625 C 88.746094 348.859375 88.457031 348.050781 88.207031 347.230469 C 87.957031 346.40625 87.75 345.574219 87.582031 344.730469 C 87.414062 343.886719 87.289062 343.039062 87.203125 342.183594 C 87.117188 341.328125 87.078125 340.46875 87.078125 339.609375 C 87.078125 338.75 87.117188 337.894531 87.203125 337.039062 C 87.289062 336.183594 87.414062 335.332031 87.582031 334.492188 C 87.75 333.648438 87.957031 332.8125 88.207031 331.992188 C 88.457031 331.167969 88.746094 330.359375 89.074219 329.566406 C 89.402344 328.773438 89.769531 327.996094 90.175781 327.238281 C 90.582031 326.480469 91.023438 325.742188 91.5 325.027344 C 91.976562 324.3125 92.488281 323.625 93.035156 322.960938 C 93.578125 322.296875 94.15625 321.660156 94.765625 321.050781 C 95.371094 320.445312 96.007812 319.867188 96.671875 319.320312 C 97.335938 318.777344 98.027344 318.265625 98.742188 317.789062 C 99.457031 317.308594 100.191406 316.867188 100.949219 316.464844 C 101.707031 316.058594 102.484375 315.691406 103.277344 315.363281 C 104.074219 315.035156 104.882812 314.742188 105.703125 314.496094 C 106.527344 314.246094 107.359375 314.035156 108.203125 313.867188 C 109.046875 313.699219 109.894531 313.574219 110.75 313.492188 C 111.605469 313.40625 112.464844 313.363281 113.324219 313.363281 C 114.183594 313.363281 115.039062 313.40625 115.894531 313.492188 C 116.75 313.574219 117.601562 313.699219 118.445312 313.867188 C 119.285156 314.035156 120.121094 314.246094 120.941406 314.496094 C 121.765625 314.742188 122.574219 315.035156 123.367188 315.363281 C 124.160156 315.691406 124.9375 316.058594 125.695312 316.464844 C 126.453125 316.867188 127.191406 317.308594 127.90625 317.789062 C 128.621094 318.265625 129.308594 318.777344 129.972656 319.320312 C 130.636719 319.867188 131.273438 320.445312 131.882812 321.050781 C 132.492188 321.660156 133.066406 322.296875 133.613281 322.960938 C 134.15625 323.625 134.667969 324.3125 135.148438 325.027344 C 135.625 325.742188 136.066406 326.480469 136.46875 327.238281 C 136.875 327.996094 137.242188 328.773438 137.570312 329.566406 C 137.902344 330.359375 138.191406 331.167969 138.441406 331.992188 C 138.6875 332.8125 138.898438 333.648438 139.066406 334.492188 C 139.234375 335.332031 139.359375 336.183594 139.445312 337.039062 C 139.527344 337.894531 139.570312 338.75 139.570312 339.609375 Z M 139.570312 339.609375 " fill-opacity="1" fill-rule="nonzero"/></g><g clip-path="url(#f6dbd0a600)"><path fill="#38b6ff" d="M 102.78125 331.621094 C 108.433594 333.464844 113.980469 336.277344 119.925781 336.160156 C 125.136719 336.0625 130.09375 333.671875 134.160156 330.414062 C 135.105469 329.660156 136.007812 328.859375 136.875 328.023438 C 136.335938 326.929688 135.726562 325.878906 135.039062 324.871094 C 134.355469 323.859375 133.605469 322.902344 132.785156 322 C 131.964844 321.09375 131.089844 320.253906 130.152344 319.46875 C 129.21875 318.6875 128.230469 317.976562 127.195312 317.328125 C 126.160156 316.683594 125.085938 316.117188 123.96875 315.621094 C 122.855469 315.125 121.710938 314.710938 120.539062 314.375 C 119.367188 314.039062 118.175781 313.789062 116.96875 313.617188 C 115.761719 313.449219 114.546875 313.363281 113.328125 313.363281 C 101.78125 313.363281 91.984375 320.816406 88.464844 331.164062 C 92.808594 329.363281 98.164062 330.113281 102.78125 331.621094 Z M 102.78125 331.621094 " fill-opacity="1" fill-rule="nonzero"/></g><g clip-path="url(#71f92059ed)"><path fill="#38b6ff" d="M 111.425781 340.277344 C 106.589844 340.078125 101.339844 338.941406 97.210938 341.460938 C 93.46875 343.742188 91.859375 348.519531 92.148438 352.894531 C 92.210938 353.8125 92.335938 354.722656 92.527344 355.621094 C 93.75 357.214844 95.140625 358.648438 96.695312 359.921875 C 98.25 361.195312 99.929688 362.277344 101.734375 363.164062 C 103.535156 364.050781 105.417969 364.722656 107.375 365.179688 C 109.332031 365.632812 111.316406 365.859375 113.328125 365.855469 C 127.820312 365.855469 139.578125 354.105469 139.578125 339.605469 C 139.582031 336.167969 138.929688 332.855469 137.628906 329.671875 C 130.925781 336.703125 121.128906 340.683594 111.425781 340.277344 Z M 111.425781 340.277344 " fill-opacity="1" fill-rule="nonzero"/></g><g clip-path="url(#6488672791)"><path fill="#ffffff" d="M 139.570312 405.03125 C 139.570312 405.890625 139.527344 406.746094 139.445312 407.601562 C 139.359375 408.457031 139.234375 409.308594 139.066406 410.152344 C 138.898438 410.996094 138.6875 411.828125 138.441406 412.648438 C 138.191406 413.472656 137.902344 414.28125 137.570312 415.074219 C 137.242188 415.867188 136.875 416.644531 136.46875 417.402344 C 136.066406 418.160156 135.625 418.898438 135.148438 419.613281 C 134.667969 420.328125 134.15625 421.015625 133.613281 421.679688 C 133.066406 422.347656 132.492188 422.980469 131.882812 423.589844 C 131.273438 424.199219 130.636719 424.773438 129.972656 425.320312 C 129.308594 425.863281 128.621094 426.375 127.90625 426.855469 C 127.191406 427.332031 126.453125 427.773438 125.695312 428.179688 C 124.9375 428.582031 124.160156 428.949219 123.367188 429.277344 C 122.574219 429.609375 121.765625 429.898438 120.941406 430.148438 C 120.121094 430.398438 119.285156 430.605469 118.445312 430.773438 C 117.601562 430.941406 116.75 431.066406 115.894531 431.152344 C 115.039062 431.234375 114.183594 431.277344 113.324219 431.277344 C 112.464844 431.277344 111.605469 431.234375 110.75 431.152344 C 109.894531 431.066406 109.046875 430.941406 108.203125 430.773438 C 107.359375 430.605469 106.527344 430.398438 105.703125 430.148438 C 104.882812 429.898438 104.074219 429.609375 103.277344 429.277344 C 102.484375 428.949219 101.707031 428.582031 100.949219 428.179688 C 100.191406 427.773438 99.457031 427.332031 98.742188 426.855469 C 98.027344 426.375 97.335938 425.863281 96.671875 425.320312 C 96.007812 424.773438 95.371094 424.199219 94.765625 423.589844 C 94.15625 422.980469 93.578125 422.347656 93.035156 421.679688 C 92.488281 421.015625 91.976562 420.328125 91.5 419.613281 C 91.023438 418.898438 90.582031 418.160156 90.175781 417.402344 C 89.769531 416.644531 89.402344 415.867188 89.074219 415.074219 C 88.746094 414.28125 88.457031 413.472656 88.207031 412.648438 C 87.957031 411.828125 87.75 410.996094 87.582031 410.152344 C 87.414062 409.308594 87.289062 408.457031 87.203125 407.601562 C 87.117188 406.746094 87.078125 405.890625 87.078125 405.03125 C 87.078125 404.171875 87.117188 403.3125 87.203125 402.457031 C 87.289062 401.601562 87.414062 400.753906 87.582031 399.910156 C 87.75 399.066406 87.957031 398.234375 88.207031 397.410156 C 88.457031 396.589844 88.746094 395.78125 89.074219 394.988281 C 89.402344 394.191406 89.769531 393.417969 90.175781 392.65625 C 90.582031 391.898438 91.023438 391.164062 91.5 390.449219 C 91.976562 389.734375 92.488281 389.042969 93.035156 388.378906 C 93.578125 387.714844 94.15625 387.078125 94.765625 386.472656 C 95.371094 385.863281 96.007812 385.285156 96.671875 384.742188 C 97.335938 384.195312 98.027344 383.683594 98.742188 383.207031 C 99.457031 382.730469 100.191406 382.289062 100.949219 381.882812 C 101.707031 381.476562 102.484375 381.109375 103.277344 380.78125 C 104.074219 380.453125 104.882812 380.164062 105.703125 379.914062 C 106.527344 379.664062 107.359375 379.457031 108.203125 379.289062 C 109.046875 379.121094 109.894531 378.996094 110.75 378.910156 C 111.605469 378.828125 112.464844 378.785156 113.324219 378.785156 C 114.183594 378.785156 115.039062 378.828125 115.894531 378.910156 C 116.75 378.996094 117.601562 379.121094 118.445312 379.289062 C 119.285156 379.457031 120.121094 379.664062 120.941406 379.914062 C 121.765625 380.164062 122.574219 380.453125 123.367188 380.78125 C 124.160156 381.109375 124.9375 381.476562 125.695312 381.882812 C 126.453125 382.289062 127.191406 382.730469 127.90625 383.207031 C 128.621094 383.683594 129.308594 384.195312 129.972656 384.742188 C 130.636719 385.285156 131.273438 385.863281 131.882812 386.472656 C 132.492188 387.078125 133.066406 387.714844 133.613281 388.378906 C 134.15625 389.042969 134.667969 389.734375 135.148438 390.449219 C 135.625 391.164062 136.066406 391.898438 136.46875 392.65625 C 136.875 393.417969 137.242188 394.191406 137.570312 394.988281 C 137.902344 395.78125 138.191406 396.589844 138.441406 397.410156 C 138.6875 398.234375 138.898438 399.066406 139.066406 399.910156 C 139.234375 400.753906 139.359375 401.601562 139.445312 402.457031 C 139.527344 403.3125 139.570312 404.171875 139.570312 405.03125 Z M 139.570312 405.03125 " fill-opacity="1" fill-rule="nonzero"/></g><g clip-path="url(#3e2601b56a)"><path fill="#38b6ff" d="M 102.78125 397.042969 C 108.433594 398.886719 113.980469 401.695312 119.925781 401.582031 C 125.136719 401.480469 130.09375 399.089844 134.160156 395.835938 C 135.105469 395.082031 136.007812 394.28125 136.875 393.445312 C 136.335938 392.351562 135.726562 391.300781 135.039062 390.289062 C 134.355469 389.28125 133.605469 388.324219 132.785156 387.417969 C 131.964844 386.515625 131.089844 385.671875 130.152344 384.890625 C 129.21875 384.109375 128.230469 383.394531 127.195312 382.75 C 126.160156 382.105469 125.085938 381.535156 123.96875 381.039062 C 122.855469 380.546875 121.710938 380.128906 120.539062 379.796875 C 119.367188 379.460938 118.175781 379.207031 116.96875 379.039062 C 115.761719 378.867188 114.546875 378.785156 113.328125 378.785156 C 101.78125 378.785156 91.984375 386.234375 88.464844 396.582031 C 92.808594 394.78125 98.164062 395.535156 102.78125 397.042969 Z M 102.78125 397.042969 " fill-opacity="1" fill-rule="nonzero"/></g><g clip-path="url(#359446783b)"><path fill="#38b6ff" d="M 111.425781 405.699219 C 106.589844 405.496094 101.339844 404.359375 97.210938 406.878906 C 93.46875 409.160156 91.859375 413.941406 92.148438 418.3125 C 92.210938 419.230469 92.335938 420.140625 92.527344 421.039062 C 93.75 422.632812 95.140625 424.070312 96.695312 425.34375 C 98.25 426.617188 99.929688 427.695312 101.734375 428.585938 C 103.535156 429.472656 105.417969 430.144531 107.375 430.597656 C 109.332031 431.054688 111.316406 431.277344 113.328125 431.277344 C 127.820312 431.277344 139.578125 419.527344 139.578125 405.027344 C 139.582031 401.585938 138.929688 398.273438 137.628906 395.089844 C 130.925781 402.121094 121.128906 406.105469 111.425781 405.699219 Z M 111.425781 405.699219 " fill-opacity="1" fill-rule="nonzero"/></g><g clip-path="url(#28a913076d)"><path fill="#ffffff" d="M 274.570312 143.351562 C 274.570312 144.210938 274.527344 145.070312 274.445312 145.925781 C 274.359375 146.78125 274.234375 147.628906 274.066406 148.472656 C 273.898438 149.316406 273.6875 150.148438 273.441406 150.96875 C 273.191406 151.792969 272.902344 152.601562 272.570312 153.394531 C 272.242188 154.191406 271.875 154.964844 271.46875 155.722656 C 271.066406 156.480469 270.625 157.21875 270.148438 157.933594 C 269.667969 158.648438 269.15625 159.335938 268.613281 160.003906 C 268.066406 160.667969 267.488281 161.300781 266.882812 161.910156 C 266.273438 162.519531 265.636719 163.09375 264.972656 163.640625 C 264.308594 164.183594 263.621094 164.695312 262.90625 165.175781 C 262.191406 165.652344 261.453125 166.09375 260.695312 166.5 C 259.9375 166.902344 259.160156 167.269531 258.367188 167.601562 C 257.574219 167.929688 256.765625 168.21875 255.941406 168.46875 C 255.121094 168.71875 254.285156 168.925781 253.445312 169.09375 C 252.601562 169.261719 251.75 169.386719 250.894531 169.472656 C 250.039062 169.554688 249.183594 169.597656 248.324219 169.597656 C 247.464844 169.597656 246.605469 169.554688 245.75 169.472656 C 244.894531 169.386719 244.046875 169.261719 243.203125 169.09375 C 242.359375 168.925781 241.527344 168.71875 240.703125 168.46875 C 239.882812 168.21875 239.074219 167.929688 238.277344 167.601562 C 237.484375 167.269531 236.707031 166.902344 235.949219 166.5 C 235.191406 166.09375 234.457031 165.652344 233.742188 165.175781 C 233.027344 164.695312 232.335938 164.183594 231.671875 163.640625 C 231.007812 163.09375 230.371094 162.519531 229.765625 161.910156 C 229.15625 161.300781 228.578125 160.667969 228.035156 160.003906 C 227.488281 159.335938 226.976562 158.648438 226.5 157.933594 C 226.023438 157.21875 225.582031 156.480469 225.175781 155.722656 C 224.769531 154.964844 224.402344 154.191406 224.074219 153.394531 C 223.746094 152.601562 223.457031 151.792969 223.207031 150.96875 C 222.957031 150.148438 222.75 149.316406 222.582031 148.472656 C 222.414062 147.628906 222.289062 146.78125 222.203125 145.925781 C 222.117188 145.070312 222.078125 144.210938 222.078125 143.351562 C 222.078125 142.492188 222.117188 141.632812 222.203125 140.777344 C 222.289062 139.921875 222.414062 139.074219 222.582031 138.230469 C 222.75 137.386719 222.957031 136.554688 223.207031 135.730469 C 223.457031 134.910156 223.746094 134.101562 224.074219 133.308594 C 224.402344 132.511719 224.769531 131.738281 225.175781 130.980469 C 225.582031 130.21875 226.023438 129.484375 226.5 128.769531 C 226.976562 128.054688 227.488281 127.363281 228.035156 126.699219 C 228.578125 126.035156 229.15625 125.398438 229.765625 124.792969 C 230.371094 124.183594 231.007812 123.609375 231.671875 123.0625 C 232.335938 122.515625 233.027344 122.003906 233.742188 121.527344 C 234.457031 121.050781 235.191406 120.609375 235.949219 120.203125 C 236.707031 119.796875 237.484375 119.429688 238.277344 119.101562 C 239.074219 118.773438 239.882812 118.484375 240.703125 118.234375 C 241.527344 117.984375 242.359375 117.777344 243.203125 117.609375 C 244.046875 117.441406 244.894531 117.316406 245.75 117.230469 C 246.605469 117.148438 247.464844 117.105469 248.324219 117.105469 C 249.183594 117.105469 250.039062 117.148438 250.894531 117.230469 C 251.75 117.316406 252.601562 117.441406 253.445312 117.609375 C 254.285156 117.777344 255.121094 117.984375 255.941406 118.234375 C 256.765625 118.484375 257.574219 118.773438 258.367188 119.101562 C 259.160156 119.429688 259.9375 119.796875 260.695312 120.203125 C 261.453125 120.609375 262.191406 121.050781 262.90625 121.527344 C 263.621094 122.003906 264.308594 122.515625 264.972656 123.0625 C 265.636719 123.609375 266.273438 124.183594 266.882812 124.792969 C 267.488281 125.398438 268.066406 126.035156 268.613281 126.699219 C 269.15625 127.363281 269.667969 128.054688 270.148438 128.769531 C 270.625 129.484375 271.066406 130.21875 271.46875 130.980469 C 271.875 131.738281 272.242188 132.511719 272.570312 133.308594 C 272.902344 134.101562 273.191406 134.910156 273.441406 135.730469 C 273.6875 136.554688 273.898438 137.386719 274.066406 138.230469 C 274.234375 139.074219 274.359375 139.921875 274.445312 140.777344 C 274.527344 141.632812 274.570312 142.492188 274.570312 143.351562 Z M 274.570312 143.351562 " fill-opacity="1" fill-rule="nonzero"/></g><g clip-path="url(#3ab3c7ecf0)"><path fill="#38b6ff" d="M 237.78125 135.363281 C 243.433594 137.207031 248.980469 140.015625 254.925781 139.902344 C 260.136719 139.800781 265.09375 137.410156 269.160156 134.15625 C 270.105469 133.402344 271.007812 132.601562 271.875 131.765625 C 271.335938 130.671875 270.726562 129.621094 270.039062 128.609375 C 269.355469 127.601562 268.605469 126.644531 267.785156 125.738281 C 266.964844 124.835938 266.089844 123.992188 265.152344 123.210938 C 264.21875 122.429688 263.230469 121.714844 262.195312 121.070312 C 261.160156 120.425781 260.085938 119.855469 258.96875 119.363281 C 257.855469 118.867188 256.710938 118.453125 255.539062 118.117188 C 254.367188 117.78125 253.175781 117.527344 251.96875 117.359375 C 250.761719 117.191406 249.546875 117.105469 248.328125 117.105469 C 236.78125 117.105469 226.984375 124.554688 223.464844 134.90625 C 227.808594 133.101562 233.164062 133.855469 237.78125 135.363281 Z M 237.78125 135.363281 " fill-opacity="1" fill-rule="nonzero"/></g><g clip-path="url(#1553001cf8)"><path fill="#38b6ff" d="M 246.425781 144.019531 C 241.589844 143.816406 236.339844 142.679688 232.210938 145.203125 C 228.46875 147.480469 226.859375 152.261719 227.148438 156.632812 C 227.210938 157.550781 227.335938 158.460938 227.527344 159.363281 C 228.75 160.957031 230.140625 162.390625 231.695312 163.664062 C 233.25 164.9375 234.929688 166.019531 236.734375 166.90625 C 238.535156 167.792969 240.417969 168.464844 242.375 168.917969 C 244.332031 169.375 246.316406 169.601562 248.328125 169.597656 C 262.820312 169.597656 274.578125 157.847656 274.578125 143.347656 C 274.582031 139.90625 273.929688 136.597656 272.628906 133.410156 C 265.925781 140.441406 256.128906 144.425781 246.425781 144.019531 Z M 246.425781 144.019531 " fill-opacity="1" fill-rule="nonzero"/></g><g clip-path="url(#cd02431266)"><path fill="#ffffff" d="M 274.570312 274.191406 C 274.570312 275.050781 274.527344 275.90625 274.445312 276.761719 C 274.359375 277.617188 274.234375 278.46875 274.066406 279.3125 C 273.898438 280.15625 273.6875 280.988281 273.441406 281.808594 C 273.191406 282.632812 272.902344 283.441406 272.570312 284.234375 C 272.242188 285.027344 271.875 285.804688 271.46875 286.5625 C 271.066406 287.320312 270.625 288.058594 270.148438 288.773438 C 269.667969 289.488281 269.15625 290.175781 268.613281 290.839844 C 268.066406 291.507812 267.488281 292.140625 266.882812 292.75 C 266.273438 293.359375 265.636719 293.933594 264.972656 294.480469 C 264.308594 295.023438 263.621094 295.535156 262.90625 296.015625 C 262.191406 296.492188 261.453125 296.933594 260.695312 297.339844 C 259.9375 297.742188 259.160156 298.109375 258.367188 298.441406 C 257.574219 298.769531 256.765625 299.058594 255.941406 299.308594 C 255.121094 299.558594 254.285156 299.765625 253.445312 299.933594 C 252.601562 300.101562 251.75 300.226562 250.894531 300.3125 C 250.039062 300.394531 249.183594 300.4375 248.324219 300.4375 C 247.464844 300.4375 246.605469 300.394531 245.75 300.3125 C 244.894531 300.226562 244.046875 300.101562 243.203125 299.933594 C 242.359375 299.765625 241.527344 299.558594 240.703125 299.308594 C 239.882812 299.058594 239.074219 298.769531 238.277344 298.441406 C 237.484375 298.109375 236.707031 297.742188 235.949219 297.339844 C 235.191406 296.933594 234.457031 296.492188 233.742188 296.015625 C 233.027344 295.535156 232.335938 295.023438 231.671875 294.480469 C 231.007812 293.933594 230.371094 293.359375 229.765625 292.75 C 229.15625 292.140625 228.578125 291.507812 228.035156 290.839844 C 227.488281 290.175781 226.976562 289.488281 226.5 288.773438 C 226.023438 288.058594 225.582031 287.320312 225.175781 286.5625 C 224.769531 285.804688 224.402344 285.027344 224.074219 284.234375 C 223.746094 283.441406 223.457031 282.632812 223.207031 281.808594 C 222.957031 280.988281 222.75 280.15625 222.582031 279.3125 C 222.414062 278.46875 222.289062 277.617188 222.203125 276.761719 C 222.117188 275.90625 222.078125 275.050781 222.078125 274.191406 C 222.078125 273.332031 222.117188 272.472656 222.203125 271.617188 C 222.289062 270.761719 222.414062 269.914062 222.582031 269.070312 C 222.75 268.226562 222.957031 267.394531 223.207031 266.570312 C 223.457031 265.75 223.746094 264.941406 224.074219 264.148438 C 224.402344 263.351562 224.769531 262.578125 225.175781 261.820312 C 225.582031 261.058594 226.023438 260.324219 226.5 259.609375 C 226.976562 258.894531 227.488281 258.203125 228.035156 257.539062 C 228.578125 256.875 229.15625 256.238281 229.765625 255.632812 C 230.371094 255.023438 231.007812 254.449219 231.671875 253.902344 C 232.335938 253.355469 233.027344 252.84375 233.742188 252.367188 C 234.457031 251.890625 235.191406 251.449219 235.949219 251.042969 C 236.707031 250.636719 237.484375 250.269531 238.277344 249.941406 C 239.074219 249.613281 239.882812 249.324219 240.703125 249.074219 C 241.527344 248.824219 242.359375 248.617188 243.203125 248.449219 C 244.046875 248.28125 244.894531 248.15625 245.75 248.070312 C 246.605469 247.988281 247.464844 247.945312 248.324219 247.945312 C 249.183594 247.945312 250.039062 247.988281 250.894531 248.070312 C 251.75 248.15625 252.601562 248.28125 253.445312 248.449219 C 254.285156 248.617188 255.121094 248.824219 255.941406 249.074219 C 256.765625 249.324219 257.574219 249.613281 258.367188 249.941406 C 259.160156 250.269531 259.9375 250.636719 260.695312 251.042969 C 261.453125 251.449219 262.191406 251.890625 262.90625 252.367188 C 263.621094 252.84375 264.308594 253.355469 264.972656 253.902344 C 265.636719 254.449219 266.273438 255.023438 266.882812 255.632812 C 267.488281 256.238281 268.066406 256.875 268.613281 257.539062 C 269.15625 258.203125 269.667969 258.894531 270.148438 259.609375 C 270.625 260.324219 271.066406 261.058594 271.46875 261.820312 C 271.875 262.578125 272.242188 263.351562 272.570312 264.148438 C 272.902344 264.941406 273.191406 265.75 273.441406 266.570312 C 273.6875 267.394531 273.898438 268.226562 274.066406 269.070312 C 274.234375 269.914062 274.359375 270.761719 274.445312 271.617188 C 274.527344 272.472656 274.570312 273.332031 274.570312 274.191406 Z M 274.570312 274.191406 " fill-opacity="1" fill-rule="nonzero"/></g><g clip-path="url(#8c9c235e4a)"><path fill="#38b6ff" d="M 237.78125 266.203125 C 243.433594 268.046875 248.980469 270.855469 254.925781 270.742188 C 260.136719 270.640625 265.09375 268.25 269.160156 264.996094 C 270.105469 264.242188 271.007812 263.441406 271.875 262.605469 C 271.335938 261.511719 270.726562 260.460938 270.039062 259.449219 C 269.355469 258.441406 268.605469 257.484375 267.785156 256.578125 C 266.964844 255.675781 266.089844 254.832031 265.152344 254.050781 C 264.21875 253.269531 263.230469 252.554688 262.195312 251.910156 C 261.160156 251.265625 260.085938 250.695312 258.96875 250.199219 C 257.855469 249.707031 256.710938 249.292969 255.539062 248.957031 C 254.367188 248.621094 253.175781 248.367188 251.96875 248.199219 C 250.761719 248.03125 249.546875 247.945312 248.328125 247.945312 C 236.78125 247.945312 226.984375 255.394531 223.464844 265.742188 C 227.808594 263.941406 233.164062 264.695312 237.78125 266.203125 Z M 237.78125 266.203125 " fill-opacity="1" fill-rule="nonzero"/></g><g clip-path="url(#b2921021a3)"><path fill="#38b6ff" d="M 246.425781 274.859375 C 241.589844 274.65625 236.339844 273.519531 232.210938 276.042969 C 228.46875 278.320312 226.859375 283.101562 227.148438 287.472656 C 227.210938 288.390625 227.335938 289.300781 227.527344 290.199219 C 228.75 291.796875 230.140625 293.230469 231.695312 294.503906 C 233.25 295.777344 234.929688 296.859375 236.734375 297.746094 C 238.535156 298.632812 240.417969 299.304688 242.375 299.757812 C 244.332031 300.214844 246.316406 300.4375 248.328125 300.4375 C 262.820312 300.4375 274.578125 288.6875 274.578125 274.1875 C 274.582031 270.746094 273.929688 267.433594 272.628906 264.25 C 265.925781 271.28125 256.128906 275.265625 246.425781 274.859375 Z M 246.425781 274.859375 " fill-opacity="1" fill-rule="nonzero"/></g><g clip-path="url(#967274ede5)"><path fill="#ffffff" d="M 274.570312 208.707031 C 274.570312 209.566406 274.527344 210.421875 274.445312 211.277344 C 274.359375 212.132812 274.234375 212.984375 274.066406 213.828125 C 273.898438 214.667969 273.6875 215.503906 273.441406 216.324219 C 273.191406 217.148438 272.902344 217.957031 272.570312 218.75 C 272.242188 219.542969 271.875 220.320312 271.46875 221.078125 C 271.066406 221.835938 270.625 222.574219 270.148438 223.289062 C 269.667969 224.003906 269.15625 224.691406 268.613281 225.355469 C 268.066406 226.019531 267.488281 226.65625 266.882812 227.265625 C 266.273438 227.871094 265.636719 228.449219 264.972656 228.996094 C 264.308594 229.539062 263.621094 230.050781 262.90625 230.527344 C 262.191406 231.007812 261.453125 231.449219 260.695312 231.851562 C 259.9375 232.257812 259.160156 232.625 258.367188 232.953125 C 257.574219 233.285156 256.765625 233.574219 255.941406 233.820312 C 255.121094 234.070312 254.285156 234.28125 253.445312 234.449219 C 252.601562 234.617188 251.75 234.742188 250.894531 234.824219 C 250.039062 234.910156 249.183594 234.953125 248.324219 234.953125 C 247.464844 234.953125 246.605469 234.910156 245.75 234.824219 C 244.894531 234.742188 244.046875 234.617188 243.203125 234.449219 C 242.359375 234.28125 241.527344 234.070312 240.703125 233.820312 C 239.882812 233.574219 239.074219 233.285156 238.277344 232.953125 C 237.484375 232.625 236.707031 232.257812 235.949219 231.851562 C 235.191406 231.449219 234.457031 231.007812 233.742188 230.527344 C 233.027344 230.050781 232.335938 229.539062 231.671875 228.996094 C 231.007812 228.449219 230.371094 227.871094 229.765625 227.265625 C 229.15625 226.65625 228.578125 226.019531 228.035156 225.355469 C 227.488281 224.691406 226.976562 224.003906 226.5 223.289062 C 226.023438 222.574219 225.582031 221.835938 225.175781 221.078125 C 224.769531 220.320312 224.402344 219.542969 224.074219 218.75 C 223.746094 217.957031 223.457031 217.148438 223.207031 216.324219 C 222.957031 215.503906 222.75 214.667969 222.582031 213.828125 C 222.414062 212.984375 222.289062 212.132812 222.203125 211.277344 C 222.117188 210.421875 222.078125 209.566406 222.078125 208.707031 C 222.078125 207.847656 222.117188 206.988281 222.203125 206.132812 C 222.289062 205.277344 222.414062 204.429688 222.582031 203.585938 C 222.75 202.742188 222.957031 201.910156 223.207031 201.085938 C 223.457031 200.265625 223.746094 199.457031 224.074219 198.660156 C 224.402344 197.867188 224.769531 197.089844 225.175781 196.332031 C 225.582031 195.574219 226.023438 194.839844 226.5 194.125 C 226.976562 193.410156 227.488281 192.71875 228.035156 192.054688 C 228.578125 191.390625 229.15625 190.753906 229.765625 190.148438 C 230.371094 189.539062 231.007812 188.960938 231.671875 188.417969 C 232.335938 187.871094 233.027344 187.359375 233.742188 186.882812 C 234.457031 186.40625 235.191406 185.964844 235.949219 185.558594 C 236.707031 185.152344 237.484375 184.785156 238.277344 184.457031 C 239.074219 184.128906 239.882812 183.839844 240.703125 183.589844 C 241.527344 183.339844 242.359375 183.132812 243.203125 182.964844 C 244.046875 182.796875 244.894531 182.671875 245.75 182.585938 C 246.605469 182.5 247.464844 182.460938 248.324219 182.460938 C 249.183594 182.460938 250.039062 182.5 250.894531 182.585938 C 251.75 182.671875 252.601562 182.796875 253.445312 182.964844 C 254.285156 183.132812 255.121094 183.339844 255.941406 183.589844 C 256.765625 183.839844 257.574219 184.128906 258.367188 184.457031 C 259.160156 184.785156 259.9375 185.152344 260.695312 185.558594 C 261.453125 185.964844 262.191406 186.40625 262.90625 186.882812 C 263.621094 187.359375 264.308594 187.871094 264.972656 188.417969 C 265.636719 188.960938 266.273438 189.539062 266.882812 190.148438 C 267.488281 190.753906 268.066406 191.390625 268.613281 192.054688 C 269.15625 192.71875 269.667969 193.410156 270.148438 194.125 C 270.625 194.839844 271.066406 195.574219 271.46875 196.332031 C 271.875 197.089844 272.242188 197.867188 272.570312 198.660156 C 272.902344 199.457031 273.191406 200.265625 273.441406 201.085938 C 273.6875 201.910156 273.898438 202.742188 274.066406 203.585938 C 274.234375 204.429688 274.359375 205.277344 274.445312 206.132812 C 274.527344 206.988281 274.570312 207.847656 274.570312 208.707031 Z M 274.570312 208.707031 " fill-opacity="1" fill-rule="nonzero"/></g><g clip-path="url(#0683c49d7c)"><path fill="#38b6ff" d="M 237.78125 200.71875 C 243.433594 202.5625 248.980469 205.371094 254.925781 205.257812 C 260.136719 205.15625 265.09375 202.765625 269.160156 199.511719 C 270.105469 198.757812 271.007812 197.953125 271.875 197.121094 C 271.335938 196.027344 270.726562 194.972656 270.039062 193.964844 C 269.355469 192.957031 268.605469 192 267.785156 191.09375 C 266.964844 190.191406 266.089844 189.347656 265.152344 188.566406 C 264.21875 187.78125 263.230469 187.070312 262.195312 186.425781 C 261.160156 185.78125 260.085938 185.210938 258.96875 184.714844 C 257.855469 184.222656 256.710938 183.804688 255.539062 183.472656 C 254.367188 183.136719 253.175781 182.882812 251.96875 182.714844 C 250.761719 182.542969 249.546875 182.460938 248.328125 182.460938 C 236.78125 182.460938 226.984375 189.910156 223.464844 200.257812 C 227.808594 198.457031 233.164062 199.210938 237.78125 200.71875 Z M 237.78125 200.71875 " fill-opacity="1" fill-rule="nonzero"/></g><g clip-path="url(#06adb09017)"><path fill="#38b6ff" d="M 246.425781 209.375 C 241.589844 209.171875 236.339844 208.035156 232.210938 210.554688 C 228.46875 212.835938 226.859375 217.617188 227.148438 221.988281 C 227.210938 222.90625 227.335938 223.816406 227.527344 224.714844 C 228.75 226.308594 230.140625 227.742188 231.695312 229.019531 C 233.25 230.292969 234.929688 231.371094 236.734375 232.261719 C 238.535156 233.148438 240.417969 233.820312 242.375 234.273438 C 244.332031 234.726562 246.316406 234.953125 248.328125 234.953125 C 262.820312 234.953125 274.578125 223.199219 274.578125 208.703125 C 274.582031 205.261719 273.929688 201.949219 272.628906 198.765625 C 265.925781 205.796875 256.128906 209.78125 246.425781 209.375 Z M 246.425781 209.375 " fill-opacity="1" fill-rule="nonzero"/></g><g clip-path="url(#ee71fdb5bf)"><path fill="#ffffff" d="M 274.570312 339.609375 C 274.570312 340.46875 274.527344 341.328125 274.445312 342.183594 C 274.359375 343.039062 274.234375 343.886719 274.066406 344.730469 C 273.898438 345.574219 273.6875 346.40625 273.441406 347.230469 C 273.191406 348.050781 272.902344 348.859375 272.570312 349.65625 C 272.242188 350.449219 271.875 351.226562 271.46875 351.984375 C 271.066406 352.742188 270.625 353.476562 270.148438 354.191406 C 269.667969 354.90625 269.15625 355.597656 268.613281 356.261719 C 268.066406 356.925781 267.488281 357.5625 266.882812 358.171875 C 266.273438 358.777344 265.636719 359.355469 264.972656 359.898438 C 264.308594 360.445312 263.621094 360.957031 262.90625 361.433594 C 262.191406 361.910156 261.453125 362.351562 260.695312 362.757812 C 259.9375 363.164062 259.160156 363.53125 258.367188 363.859375 C 257.574219 364.1875 256.765625 364.476562 255.941406 364.726562 C 255.121094 364.976562 254.285156 365.183594 253.445312 365.351562 C 252.601562 365.519531 251.75 365.648438 250.894531 365.730469 C 250.039062 365.816406 249.183594 365.855469 248.324219 365.855469 C 247.464844 365.855469 246.605469 365.816406 245.75 365.730469 C 244.894531 365.648438 244.046875 365.519531 243.203125 365.351562 C 242.359375 365.183594 241.527344 364.976562 240.703125 364.726562 C 239.882812 364.476562 239.074219 364.1875 238.277344 363.859375 C 237.484375 363.53125 236.707031 363.164062 235.949219 362.757812 C 235.191406 362.351562 234.457031 361.910156 233.742188 361.433594 C 233.027344 360.957031 232.335938 360.445312 231.671875 359.898438 C 231.007812 359.355469 230.371094 358.777344 229.765625 358.171875 C 229.15625 357.5625 228.578125 356.925781 228.035156 356.261719 C 227.488281 355.597656 226.976562 354.90625 226.5 354.191406 C 226.023438 353.476562 225.582031 352.742188 225.175781 351.984375 C 224.769531 351.226562 224.402344 350.449219 224.074219 349.65625 C 223.746094 348.859375 223.457031 348.050781 223.207031 347.230469 C 222.957031 346.40625 222.75 345.574219 222.582031 344.730469 C 222.414062 343.886719 222.289062 343.039062 222.203125 342.183594 C 222.117188 341.328125 222.078125 340.46875 222.078125 339.609375 C 222.078125 338.75 222.117188 337.894531 222.203125 337.039062 C 222.289062 336.183594 222.414062 335.332031 222.582031 334.492188 C 222.75 333.648438 222.957031 332.8125 223.207031 331.992188 C 223.457031 331.167969 223.746094 330.359375 224.074219 329.566406 C 224.402344 328.773438 224.769531 327.996094 225.175781 327.238281 C 225.582031 326.480469 226.023438 325.742188 226.5 325.027344 C 226.976562 324.3125 227.488281 323.625 228.035156 322.960938 C 228.578125 322.296875 229.15625 321.660156 229.765625 321.050781 C 230.371094 320.445312 231.007812 319.867188 231.671875 319.320312 C 232.335938 318.777344 233.027344 318.265625 233.742188 317.789062 C 234.457031 317.308594 235.191406 316.867188 235.949219 316.464844 C 236.707031 316.058594 237.484375 315.691406 238.277344 315.363281 C 239.074219 315.035156 239.882812 314.742188 240.703125 314.496094 C 241.527344 314.246094 242.359375 314.035156 243.203125 313.867188 C 244.046875 313.699219 244.894531 313.574219 245.75 313.492188 C 246.605469 313.40625 247.464844 313.363281 248.324219 313.363281 C 249.183594 313.363281 250.039062 313.40625 250.894531 313.492188 C 251.75 313.574219 252.601562 313.699219 253.445312 313.867188 C 254.285156 314.035156 255.121094 314.246094 255.941406 314.496094 C 256.765625 314.742188 257.574219 315.035156 258.367188 315.363281 C 259.160156 315.691406 259.9375 316.058594 260.695312 316.464844 C 261.453125 316.867188 262.191406 317.308594 262.90625 317.789062 C 263.621094 318.265625 264.308594 318.777344 264.972656 319.320312 C 265.636719 319.867188 266.273438 320.445312 266.882812 321.050781 C 267.488281 321.660156 268.066406 322.296875 268.613281 322.960938 C 269.15625 323.625 269.667969 324.3125 270.148438 325.027344 C 270.625 325.742188 271.066406 326.480469 271.46875 327.238281 C 271.875 327.996094 272.242188 328.773438 272.570312 329.566406 C 272.902344 330.359375 273.191406 331.167969 273.441406 331.992188 C 273.6875 332.8125 273.898438 333.648438 274.066406 334.492188 C 274.234375 335.332031 274.359375 336.183594 274.445312 337.039062 C 274.527344 337.894531 274.570312 338.75 274.570312 339.609375 Z M 274.570312 339.609375 " fill-opacity="1" fill-rule="nonzero"/></g><g clip-path="url(#449e7ea54d)"><path fill="#38b6ff" d="M 237.78125 331.621094 C 243.433594 333.464844 248.980469 336.277344 254.925781 336.160156 C 260.136719 336.0625 265.09375 333.671875 269.160156 330.414062 C 270.105469 329.660156 271.007812 328.859375 271.875 328.023438 C 271.335938 326.929688 270.726562 325.878906 270.039062 324.871094 C 269.355469 323.859375 268.605469 322.902344 267.785156 322 C 266.964844 321.09375 266.089844 320.253906 265.152344 319.46875 C 264.21875 318.6875 263.230469 317.976562 262.195312 317.328125 C 261.160156 316.683594 260.085938 316.117188 258.96875 315.621094 C 257.855469 315.125 256.710938 314.710938 255.539062 314.375 C 254.367188 314.039062 253.175781 313.789062 251.96875 313.617188 C 250.761719 313.449219 249.546875 313.363281 248.328125 313.363281 C 236.78125 313.363281 226.984375 320.816406 223.464844 331.164062 C 227.808594 329.363281 233.164062 330.113281 237.78125 331.621094 Z M 237.78125 331.621094 " fill-opacity="1" fill-rule="nonzero"/></g><g clip-path="url(#d64f760691)"><path fill="#38b6ff" d="M 246.425781 340.277344 C 241.589844 340.078125 236.339844 338.941406 232.210938 341.460938 C 228.46875 343.742188 226.859375 348.519531 227.148438 352.894531 C 227.210938 353.8125 227.335938 354.722656 227.527344 355.621094 C 228.75 357.214844 230.140625 358.648438 231.695312 359.921875 C 233.25 361.195312 234.929688 362.277344 236.734375 363.164062 C 238.535156 364.050781 240.417969 364.722656 242.375 365.179688 C 244.332031 365.632812 246.316406 365.859375 248.328125 365.855469 C 262.820312 365.855469 274.578125 354.105469 274.578125 339.605469 C 274.582031 336.167969 273.929688 332.855469 272.628906 329.671875 C 265.925781 336.703125 256.128906 340.683594 246.425781 340.277344 Z M 246.425781 340.277344 " fill-opacity="1" fill-rule="nonzero"/></g><g clip-path="url(#88298260f2)"><path fill="#ffffff" d="M 274.570312 405.03125 C 274.570312 405.890625 274.527344 406.746094 274.445312 407.601562 C 274.359375 408.457031 274.234375 409.308594 274.066406 410.152344 C 273.898438 410.996094 273.6875 411.828125 273.441406 412.648438 C 273.191406 413.472656 272.902344 414.28125 272.570312 415.074219 C 272.242188 415.867188 271.875 416.644531 271.46875 417.402344 C 271.066406 418.160156 270.625 418.898438 270.148438 419.613281 C 269.667969 420.328125 269.15625 421.015625 268.613281 421.679688 C 268.066406 422.347656 267.488281 422.980469 266.882812 423.589844 C 266.273438 424.199219 265.636719 424.773438 264.972656 425.320312 C 264.308594 425.863281 263.621094 426.375 262.90625 426.855469 C 262.191406 427.332031 261.453125 427.773438 260.695312 428.179688 C 259.9375 428.582031 259.160156 428.949219 258.367188 429.277344 C 257.574219 429.609375 256.765625 429.898438 255.941406 430.148438 C 255.121094 430.398438 254.285156 430.605469 253.445312 430.773438 C 252.601562 430.941406 251.75 431.066406 250.894531 431.152344 C 250.039062 431.234375 249.183594 431.277344 248.324219 431.277344 C 247.464844 431.277344 246.605469 431.234375 245.75 431.152344 C 244.894531 431.066406 244.046875 430.941406 243.203125 430.773438 C 242.359375 430.605469 241.527344 430.398438 240.703125 430.148438 C 239.882812 429.898438 239.074219 429.609375 238.277344 429.277344 C 237.484375 428.949219 236.707031 428.582031 235.949219 428.179688 C 235.191406 427.773438 234.457031 427.332031 233.742188 426.855469 C 233.027344 426.375 232.335938 425.863281 231.671875 425.320312 C 231.007812 424.773438 230.371094 424.199219 229.765625 423.589844 C 229.15625 422.980469 228.578125 422.347656 228.035156 421.679688 C 227.488281 421.015625 226.976562 420.328125 226.5 419.613281 C 226.023438 418.898438 225.582031 418.160156 225.175781 417.402344 C 224.769531 416.644531 224.402344 415.867188 224.074219 415.074219 C 223.746094 414.28125 223.457031 413.472656 223.207031 412.648438 C 222.957031 411.828125 222.75 410.996094 222.582031 410.152344 C 222.414062 409.308594 222.289062 408.457031 222.203125 407.601562 C 222.117188 406.746094 222.078125 405.890625 222.078125 405.03125 C 222.078125 404.171875 222.117188 403.3125 222.203125 402.457031 C 222.289062 401.601562 222.414062 400.753906 222.582031 399.910156 C 222.75 399.066406 222.957031 398.234375 223.207031 397.410156 C 223.457031 396.589844 223.746094 395.78125 224.074219 394.988281 C 224.402344 394.191406 224.769531 393.417969 225.175781 392.65625 C 225.582031 391.898438 226.023438 391.164062 226.5 390.449219 C 226.976562 389.734375 227.488281 389.042969 228.035156 388.378906 C 228.578125 387.714844 229.15625 387.078125 229.765625 386.472656 C 230.371094 385.863281 231.007812 385.285156 231.671875 384.742188 C 232.335938 384.195312 233.027344 383.683594 233.742188 383.207031 C 234.457031 382.730469 235.191406 382.289062 235.949219 381.882812 C 236.707031 381.476562 237.484375 381.109375 238.277344 380.78125 C 239.074219 380.453125 239.882812 380.164062 240.703125 379.914062 C 241.527344 379.664062 242.359375 379.457031 243.203125 379.289062 C 244.046875 379.121094 244.894531 378.996094 245.75 378.910156 C 246.605469 378.828125 247.464844 378.785156 248.324219 378.785156 C 249.183594 378.785156 250.039062 378.828125 250.894531 378.910156 C 251.75 378.996094 252.601562 379.121094 253.445312 379.289062 C 254.285156 379.457031 255.121094 379.664062 255.941406 379.914062 C 256.765625 380.164062 257.574219 380.453125 258.367188 380.78125 C 259.160156 381.109375 259.9375 381.476562 260.695312 381.882812 C 261.453125 382.289062 262.191406 382.730469 262.90625 383.207031 C 263.621094 383.683594 264.308594 384.195312 264.972656 384.742188 C 265.636719 385.285156 266.273438 385.863281 266.882812 386.472656 C 267.488281 387.078125 268.066406 387.714844 268.613281 388.378906 C 269.15625 389.042969 269.667969 389.734375 270.148438 390.449219 C 270.625 391.164062 271.066406 391.898438 271.46875 392.65625 C 271.875 393.417969 272.242188 394.191406 272.570312 394.988281 C 272.902344 395.78125 273.191406 396.589844 273.441406 397.410156 C 273.6875 398.234375 273.898438 399.066406 274.066406 399.910156 C 274.234375 400.753906 274.359375 401.601562 274.445312 402.457031 C 274.527344 403.3125 274.570312 404.171875 274.570312 405.03125 Z M 274.570312 405.03125 " fill-opacity="1" fill-rule="nonzero"/></g><g clip-path="url(#90c290a904)"><path fill="#38b6ff" d="M 237.78125 397.042969 C 243.433594 398.886719 248.980469 401.695312 254.925781 401.582031 C 260.136719 401.480469 265.09375 399.089844 269.160156 395.835938 C 270.105469 395.082031 271.007812 394.28125 271.875 393.445312 C 271.335938 392.351562 270.726562 391.300781 270.039062 390.289062 C 269.355469 389.28125 268.605469 388.324219 267.785156 387.417969 C 266.964844 386.515625 266.089844 385.671875 265.152344 384.890625 C 264.21875 384.109375 263.230469 383.394531 262.195312 382.75 C 261.160156 382.105469 260.085938 381.535156 258.96875 381.039062 C 257.855469 380.546875 256.710938 380.128906 255.539062 379.796875 C 254.367188 379.460938 253.175781 379.207031 251.96875 379.039062 C 250.761719 378.867188 249.546875 378.785156 248.328125 378.785156 C 236.78125 378.785156 226.984375 386.234375 223.464844 396.582031 C 227.808594 394.78125 233.164062 395.535156 237.78125 397.042969 Z M 237.78125 397.042969 " fill-opacity="1" fill-rule="nonzero"/></g><g clip-path="url(#e4d99b9693)"><path fill="#38b6ff" d="M 246.425781 405.699219 C 241.589844 405.496094 236.339844 404.359375 232.210938 406.878906 C 228.46875 409.160156 226.859375 413.941406 227.148438 418.3125 C 227.210938 419.230469 227.335938 420.140625 227.527344 421.039062 C 228.75 422.632812 230.140625 424.070312 231.695312 425.34375 C 233.25 426.617188 234.929688 427.695312 236.734375 428.585938 C 238.535156 429.472656 240.417969 430.144531 242.375 430.597656 C 244.332031 431.054688 246.316406 431.277344 248.328125 431.277344 C 262.820312 431.277344 274.578125 419.527344 274.578125 405.027344 C 274.582031 401.585938 273.929688 398.273438 272.628906 395.089844 C 265.925781 402.121094 256.128906 406.105469 246.425781 405.699219 Z M 246.425781 405.699219 " fill-opacity="1" fill-rule="nonzero"/></g></svg>