<svg xmlns="http://www.w3.org/2000/svg" xmlns:xlink="http://www.w3.org/1999/xlink" width="480" zoomAndPan="magnify" viewBox="0 0 360 503.999982" height="672" preserveAspectRatio="xMidYMid meet" version="1.0"><defs><filter x="0%" y="0%" width="100%" height="100%" id="dc0eb3de56"><feColorMatrix values="0 0 0 0 1 0 0 0 0 1 0 0 0 0 1 0 0 0 1 0" color-interpolation-filters="sRGB"/></filter><mask id="3cc10197be"><g filter="url(#dc0eb3de56)"><rect x="-36" width="432" fill="#000000" y="-50.399998" height="604.799979" fill-opacity="0.1373"/></g></mask><clipPath id="de9811823f"><path d="M 0 0 L 1 0 L 1 432.847656 L 0 432.847656 Z M 0 0 " clip-rule="nonzero"/></clipPath><clipPath id="3762e01256"><path d="M 0 0 L 18 0 L 18 432.847656 L 0 432.847656 Z M 0 0 " clip-rule="nonzero"/></clipPath><clipPath id="8219e1f804"><path d="M 0 0 L 35 0 L 35 432.847656 L 0 432.847656 Z M 0 0 " clip-rule="nonzero"/></clipPath><clipPath id="ac9a17f45a"><path d="M 0 0 L 53 0 L 53 432.847656 L 0 432.847656 Z M 0 0 " clip-rule="nonzero"/></clipPath><clipPath id="6bd514b696"><path d="M 0 0 L 70 0 L 70 432.847656 L 0 432.847656 Z M 0 0 " clip-rule="nonzero"/></clipPath><clipPath id="9bec39f492"><path d="M 0 0 L 88 0 L 88 432.847656 L 0 432.847656 Z M 0 0 " clip-rule="nonzero"/></clipPath><clipPath id="6a62a828da"><path d="M 0 0 L 105 0 L 105 432.847656 L 0 432.847656 Z M 0 0 " clip-rule="nonzero"/></clipPath><clipPath id="3bfdac6a55"><path d="M 0 0 L 122 0 L 122 432.847656 L 0 432.847656 Z M 0 0 " clip-rule="nonzero"/></clipPath><clipPath id="36dbc6c112"><path d="M 0 0 L 140 0 L 140 432.847656 L 0 432.847656 Z M 0 0 " clip-rule="nonzero"/></clipPath><clipPath id="549b5dd6a7"><path d="M 0 0 L 157 0 L 157 432.847656 L 0 432.847656 Z M 0 0 " clip-rule="nonzero"/></clipPath><clipPath id="db1cde6c19"><path d="M 0 0 L 175 0 L 175 432.847656 L 0 432.847656 Z M 0 0 " clip-rule="nonzero"/></clipPath><clipPath id="39706d5192"><path d="M 0 0 L 192 0 L 192 432.847656 L 0 432.847656 Z M 0 0 " clip-rule="nonzero"/></clipPath><clipPath id="d9e2b76571"><path d="M 0 0 L 208.722656 0 L 208.722656 432.847656 L 0 432.847656 Z M 0 0 " clip-rule="nonzero"/></clipPath><clipPath id="03ff52ef35"><rect x="0" width="209" y="0" height="434"/></clipPath><mask id="590b7b8498"><g filter="url(#dc0eb3de56)"><rect x="-36" width="432" fill="#000000" y="-50.399998" height="604.799979" fill-opacity="0.1373"/></g></mask><clipPath id="05f4316aeb"><path d="M 0 0.203125 L 197 0.203125 L 197 498 L 0 498 Z M 0 0.203125 " clip-rule="nonzero"/></clipPath><clipPath id="176ad32822"><path d="M 0 0.203125 L 214 0.203125 L 214 498 L 0 498 Z M 0 0.203125 " clip-rule="nonzero"/></clipPath><clipPath id="c5f9c30f35"><path d="M 12 0.203125 L 232 0.203125 L 232 498 L 12 498 Z M 12 0.203125 " clip-rule="nonzero"/></clipPath><clipPath id="45da57c841"><path d="M 29 0.203125 L 249 0.203125 L 249 498 L 29 498 Z M 29 0.203125 " clip-rule="nonzero"/></clipPath><clipPath id="ae7faa8a58"><path d="M 47 0.203125 L 267 0.203125 L 267 498 L 47 498 Z M 47 0.203125 " clip-rule="nonzero"/></clipPath><clipPath id="f0938506c6"><path d="M 64 0.203125 L 284 0.203125 L 284 498 L 64 498 Z M 64 0.203125 " clip-rule="nonzero"/></clipPath><clipPath id="3f14c705d7"><path d="M 81 0.203125 L 301 0.203125 L 301 498 L 81 498 Z M 81 0.203125 " clip-rule="nonzero"/></clipPath><clipPath id="23df75eb50"><path d="M 99 0.203125 L 319 0.203125 L 319 498 L 99 498 Z M 99 0.203125 " clip-rule="nonzero"/></clipPath><clipPath id="024255316d"><path d="M 116 0.203125 L 336 0.203125 L 336 498 L 116 498 Z M 116 0.203125 " clip-rule="nonzero"/></clipPath><clipPath id="14bb091af5"><path d="M 134 0.203125 L 354 0.203125 L 354 498 L 134 498 Z M 134 0.203125 " clip-rule="nonzero"/></clipPath><clipPath id="3b6faa24fa"><path d="M 151 0.203125 L 360 0.203125 L 360 498 L 151 498 Z M 151 0.203125 " clip-rule="nonzero"/></clipPath><clipPath id="b9e4053fea"><path d="M 168 0.203125 L 360 0.203125 L 360 498 L 168 498 Z M 168 0.203125 " clip-rule="nonzero"/></clipPath><clipPath id="2e36e0c82a"><path d="M 186 0.203125 L 360 0.203125 L 360 498 L 186 498 Z M 186 0.203125 " clip-rule="nonzero"/></clipPath><clipPath id="b18cc9fc8b"><path d="M 203 0.203125 L 360 0.203125 L 360 498 L 203 498 Z M 203 0.203125 " clip-rule="nonzero"/></clipPath><clipPath id="c7af6b9fcf"><path d="M 221 0.203125 L 360 0.203125 L 360 498 L 221 498 Z M 221 0.203125 " clip-rule="nonzero"/></clipPath><clipPath id="feeb7a47dd"><rect x="0" width="360" y="0" height="498"/></clipPath><mask id="5a0198360e"><g filter="url(#dc0eb3de56)"><rect x="-36" width="432" fill="#000000" y="-50.399998" height="604.799979" fill-opacity="0.1373"/></g></mask><clipPath id="3968bc31b5"><path d="M 0.222656 1 L 122 1 L 122 501.648438 L 0.222656 501.648438 Z M 0.222656 1 " clip-rule="nonzero"/></clipPath><clipPath id="38b86a7c00"><path d="M 17 1 L 122 1 L 122 501.648438 L 17 501.648438 Z M 17 1 " clip-rule="nonzero"/></clipPath><clipPath id="280226d2ee"><path d="M 35 1 L 122 1 L 122 501.648438 L 35 501.648438 Z M 35 1 " clip-rule="nonzero"/></clipPath><clipPath id="4221261c48"><path d="M 52 1 L 122 1 L 122 501.648438 L 52 501.648438 Z M 52 1 " clip-rule="nonzero"/></clipPath><clipPath id="6bb90d4054"><path d="M 70 1 L 122 1 L 122 501.648438 L 70 501.648438 Z M 70 1 " clip-rule="nonzero"/></clipPath><clipPath id="ce6cc9dac7"><path d="M 87 1 L 122 1 L 122 501.648438 L 87 501.648438 Z M 87 1 " clip-rule="nonzero"/></clipPath><clipPath id="852277b806"><path d="M 104 1 L 122 1 L 122 501.648438 L 104 501.648438 Z M 104 1 " clip-rule="nonzero"/></clipPath><clipPath id="12836f3022"><rect x="0" width="122" y="0" height="502"/></clipPath><clipPath id="ee5384a0ac"><path d="M 28.015625 36 L 331.765625 36 L 331.765625 468 L 28.015625 468 Z M 28.015625 36 " clip-rule="nonzero"/></clipPath><clipPath id="e0895f3003"><path d="M 126.242188 249 L 229.792969 249 L 229.792969 260.570312 L 126.242188 260.570312 Z M 126.242188 249 " clip-rule="nonzero"/></clipPath><clipPath id="76bb8e6687"><path d="M 95.558594 165.804688 L 264.308594 165.804688 L 264.308594 252 L 95.558594 252 Z M 95.558594 165.804688 " clip-rule="nonzero"/></clipPath><clipPath id="2737babf20"><path d="M 221.164062 87.394531 L 273.664062 87.394531 L 273.664062 139.894531 L 221.164062 139.894531 Z M 221.164062 87.394531 " clip-rule="nonzero"/></clipPath><clipPath id="ab7d5b3b35"><path d="M 222 87.394531 L 271 87.394531 L 271 111 L 222 111 Z M 222 87.394531 " clip-rule="nonzero"/></clipPath><clipPath id="b00a863165"><path d="M 226 103 L 273.664062 103 L 273.664062 139.894531 L 226 139.894531 Z M 226 103 " clip-rule="nonzero"/></clipPath><clipPath id="0b368141ae"><path d="M 86.164062 87.394531 L 138.664062 87.394531 L 138.664062 139.894531 L 86.164062 139.894531 Z M 86.164062 87.394531 " clip-rule="nonzero"/></clipPath><clipPath id="8a9cc98ef1"><path d="M 87 87.394531 L 136 87.394531 L 136 111 L 87 111 Z M 87 87.394531 " clip-rule="nonzero"/></clipPath><clipPath id="1d1badc7b3"><path d="M 91 103 L 138.664062 103 L 138.664062 139.894531 L 91 139.894531 Z M 91 103 " clip-rule="nonzero"/></clipPath><clipPath id="334bf5c23f"><path d="M 105.714844 274.316406 L 254.214844 274.316406 L 254.214844 422.816406 L 105.714844 422.816406 Z M 105.714844 274.316406 " clip-rule="nonzero"/></clipPath><clipPath id="70014e4b16"><path d="M 109 274.316406 L 247 274.316406 L 247 339 L 109 339 Z M 109 274.316406 " clip-rule="nonzero"/></clipPath><clipPath id="7623e64663"><path d="M 119 320 L 254.214844 320 L 254.214844 422.816406 L 119 422.816406 Z M 119 320 " clip-rule="nonzero"/></clipPath></defs><rect x="-36" width="432" fill="#ffffff" y="-50.399998" height="604.799979" fill-opacity="1"/><rect x="-36" width="432" fill="#323232" y="-50.399998" height="604.799979" fill-opacity="1"/><g mask="url(#3cc10197be)"><g transform="matrix(1, 0, 0, 1, 0, 0)"><g clip-path="url(#03ff52ef35)"><g clip-path="url(#de9811823f)"><path fill="#000000" d="M -217.589844 432.296875 L -219.066406 431.664062 L -1.417969 -67.574219 L 0.0507812 -66.9375 Z M -217.589844 432.296875 " fill-opacity="1" fill-rule="nonzero"/></g><g clip-path="url(#3762e01256)"><path fill="#000000" d="M -200.175781 432.296875 L -201.652344 431.664062 L 15.992188 -67.574219 L 17.460938 -66.9375 Z M -200.175781 432.296875 " fill-opacity="1" fill-rule="nonzero"/></g><g clip-path="url(#8219e1f804)"><path fill="#000000" d="M -182.765625 432.296875 L -184.242188 431.664062 L 33.40625 -67.574219 L 34.875 -66.9375 Z M -182.765625 432.296875 " fill-opacity="1" fill-rule="nonzero"/></g><g clip-path="url(#ac9a17f45a)"><path fill="#000000" d="M -165.359375 432.296875 L -166.828125 431.664062 L 50.816406 -67.574219 L 52.289062 -66.9375 Z M -165.359375 432.296875 " fill-opacity="1" fill-rule="nonzero"/></g><g clip-path="url(#6bd514b696)"><path fill="#000000" d="M -147.945312 432.296875 L -149.421875 431.664062 L 68.222656 -67.574219 L 69.699219 -66.9375 Z M -147.945312 432.296875 " fill-opacity="1" fill-rule="nonzero"/></g><g clip-path="url(#9bec39f492)"><path fill="#000000" d="M -130.535156 432.296875 L -132.011719 431.664062 L 85.636719 -67.574219 L 87.113281 -66.9375 Z M -130.535156 432.296875 " fill-opacity="1" fill-rule="nonzero"/></g><g clip-path="url(#6a62a828da)"><path fill="#000000" d="M -113.121094 432.296875 L -114.597656 431.664062 L 103.050781 -67.574219 L 104.523438 -66.9375 Z M -113.121094 432.296875 " fill-opacity="1" fill-rule="nonzero"/></g><g clip-path="url(#3bfdac6a55)"><path fill="#000000" d="M -95.707031 432.296875 L -97.183594 431.664062 L 120.460938 -67.574219 L 121.929688 -66.9375 Z M -95.707031 432.296875 " fill-opacity="1" fill-rule="nonzero"/></g><g clip-path="url(#36dbc6c112)"><path fill="#000000" d="M -78.304688 432.296875 L -79.773438 431.664062 L 137.875 -67.574219 L 139.34375 -66.9375 Z M -78.304688 432.296875 " fill-opacity="1" fill-rule="nonzero"/></g><g clip-path="url(#549b5dd6a7)"><path fill="#000000" d="M -60.890625 432.296875 L -62.359375 431.664062 L 155.28125 -67.574219 L 156.757812 -66.9375 Z M -60.890625 432.296875 " fill-opacity="1" fill-rule="nonzero"/></g><g clip-path="url(#db1cde6c19)"><path fill="#000000" d="M -43.476562 432.296875 L -44.949219 431.664062 L 172.691406 -67.574219 L 174.167969 -66.9375 Z M -43.476562 432.296875 " fill-opacity="1" fill-rule="nonzero"/></g><g clip-path="url(#39706d5192)"><path fill="#000000" d="M -26.066406 432.296875 L -27.535156 431.664062 L 190.105469 -67.574219 L 191.582031 -66.9375 Z M -26.066406 432.296875 " fill-opacity="1" fill-rule="nonzero"/></g><g clip-path="url(#d9e2b76571)"><path fill="#000000" d="M -8.652344 432.296875 L -10.128906 431.664062 L 207.515625 -67.574219 L 208.992188 -66.9375 Z M -8.652344 432.296875 " fill-opacity="1" fill-rule="nonzero"/></g></g></g></g><g mask="url(#590b7b8498)"><g transform="matrix(1, 0, 0, 1, 0, 6)"><g clip-path="url(#feeb7a47dd)"><g clip-path="url(#05f4316aeb)"><path fill="#000000" d="M -21.167969 500.652344 L -22.636719 500.015625 L 195.003906 0.78125 L 196.480469 1.414062 Z M -21.167969 500.652344 " fill-opacity="1" fill-rule="nonzero"/></g><g clip-path="url(#176ad32822)"><path fill="#000000" d="M -3.753906 500.652344 L -5.230469 500.015625 L 212.414062 0.78125 L 213.890625 1.414062 Z M -3.753906 500.652344 " fill-opacity="1" fill-rule="nonzero"/></g><g clip-path="url(#c5f9c30f35)"><path fill="#000000" d="M 13.65625 500.652344 L 12.183594 500.015625 L 229.828125 0.78125 L 231.296875 1.414062 Z M 13.65625 500.652344 " fill-opacity="1" fill-rule="nonzero"/></g><g clip-path="url(#45da57c841)"><path fill="#000000" d="M 31.070312 500.652344 L 29.59375 500.015625 L 247.242188 0.78125 L 248.710938 1.414062 Z M 31.070312 500.652344 " fill-opacity="1" fill-rule="nonzero"/></g><g clip-path="url(#ae7faa8a58)"><path fill="#000000" d="M 48.484375 500.652344 L 47.007812 500.015625 L 264.652344 0.78125 L 266.125 1.414062 Z M 48.484375 500.652344 " fill-opacity="1" fill-rule="nonzero"/></g><g clip-path="url(#f0938506c6)"><path fill="#000000" d="M 65.890625 500.652344 L 64.417969 500.015625 L 282.066406 0.78125 L 283.535156 1.414062 Z M 65.890625 500.652344 " fill-opacity="1" fill-rule="nonzero"/></g><g clip-path="url(#3f14c705d7)"><path fill="#000000" d="M 83.300781 500.652344 L 81.824219 500.015625 L 299.472656 0.78125 L 300.949219 1.414062 Z M 83.300781 500.652344 " fill-opacity="1" fill-rule="nonzero"/></g><g clip-path="url(#23df75eb50)"><path fill="#000000" d="M 100.714844 500.652344 L 99.238281 500.015625 L 316.882812 0.78125 L 318.359375 1.414062 Z M 100.714844 500.652344 " fill-opacity="1" fill-rule="nonzero"/></g><g clip-path="url(#024255316d)"><path fill="#000000" d="M 118.125 500.652344 L 116.652344 500.015625 L 334.296875 0.78125 L 335.773438 1.414062 Z M 118.125 500.652344 " fill-opacity="1" fill-rule="nonzero"/></g><g clip-path="url(#14bb091af5)"><path fill="#000000" d="M 135.539062 500.652344 L 134.0625 500.015625 L 351.710938 0.78125 L 353.179688 1.414062 Z M 135.539062 500.652344 " fill-opacity="1" fill-rule="nonzero"/></g><g clip-path="url(#3b6faa24fa)"><path fill="#000000" d="M 152.945312 500.652344 L 151.476562 500.015625 L 369.121094 0.78125 L 370.589844 1.414062 Z M 152.945312 500.652344 " fill-opacity="1" fill-rule="nonzero"/></g><g clip-path="url(#b9e4053fea)"><path fill="#000000" d="M 170.359375 500.652344 L 168.886719 500.015625 L 386.527344 0.78125 L 388.003906 1.414062 Z M 170.359375 500.652344 " fill-opacity="1" fill-rule="nonzero"/></g><g clip-path="url(#2e36e0c82a)"><path fill="#000000" d="M 187.769531 500.652344 L 186.300781 500.015625 L 403.941406 0.78125 L 405.417969 1.414062 Z M 187.769531 500.652344 " fill-opacity="1" fill-rule="nonzero"/></g><g clip-path="url(#b18cc9fc8b)"><path fill="#000000" d="M 205.183594 500.652344 L 203.710938 500.015625 L 421.351562 0.78125 L 422.828125 1.414062 Z M 205.183594 500.652344 " fill-opacity="1" fill-rule="nonzero"/></g><g clip-path="url(#c7af6b9fcf)"><path fill="#000000" d="M 222.59375 500.652344 L 221.117188 500.015625 L 438.765625 0.78125 L 440.242188 1.414062 Z M 222.59375 500.652344 " fill-opacity="1" fill-rule="nonzero"/></g></g></g></g><g mask="url(#5a0198360e)"><g transform="matrix(1, 0, 0, 1, 238, 2)"><g clip-path="url(#12836f3022)"><g clip-path="url(#3968bc31b5)"><path fill="#000000" d="M 1.832031 501.097656 L 0.363281 500.460938 L 218.003906 1.226562 L 219.480469 1.859375 Z M 1.832031 501.097656 " fill-opacity="1" fill-rule="nonzero"/></g><g clip-path="url(#38b86a7c00)"><path fill="#000000" d="M 19.246094 501.097656 L 17.769531 500.460938 L 235.414062 1.226562 L 236.890625 1.859375 Z M 19.246094 501.097656 " fill-opacity="1" fill-rule="nonzero"/></g><g clip-path="url(#280226d2ee)"><path fill="#000000" d="M 36.65625 501.097656 L 35.183594 500.460938 L 252.828125 1.226562 L 254.296875 1.859375 Z M 36.65625 501.097656 " fill-opacity="1" fill-rule="nonzero"/></g><g clip-path="url(#4221261c48)"><path fill="#000000" d="M 54.070312 501.097656 L 52.59375 500.460938 L 270.242188 1.226562 L 271.710938 1.859375 Z M 54.070312 501.097656 " fill-opacity="1" fill-rule="nonzero"/></g><g clip-path="url(#6bb90d4054)"><path fill="#000000" d="M 71.484375 501.097656 L 70.007812 500.460938 L 287.652344 1.226562 L 289.125 1.859375 Z M 71.484375 501.097656 " fill-opacity="1" fill-rule="nonzero"/></g><g clip-path="url(#ce6cc9dac7)"><path fill="#000000" d="M 88.890625 501.097656 L 87.417969 500.460938 L 305.066406 1.226562 L 306.535156 1.859375 Z M 88.890625 501.097656 " fill-opacity="1" fill-rule="nonzero"/></g><g clip-path="url(#852277b806)"><path fill="#000000" d="M 106.300781 501.097656 L 104.824219 500.460938 L 322.472656 1.226562 L 323.949219 1.859375 Z M 106.300781 501.097656 " fill-opacity="1" fill-rule="nonzero"/></g></g></g></g><g clip-path="url(#ee5384a0ac)"><path fill="#38b6ff" d="M 331.601562 467.976562 L 28.1875 467.976562 L 28.1875 36 L 331.601562 36 Z M 29.066406 467.097656 L 330.722656 467.097656 L 330.722656 36.878906 L 29.066406 36.878906 Z M 29.066406 467.097656 " fill-opacity="1" fill-rule="nonzero"/></g><g clip-path="url(#e0895f3003)"><path fill="#38b6ff" d="M 229.371094 256.066406 L 228.277344 260.570312 C 195.273438 252.445312 160.804688 252.445312 127.800781 260.570312 L 126.707031 256.066406 C 160.429688 247.746094 195.664062 247.746094 229.386719 256.066406 L 229.371094 256.066406 " fill-opacity="1" fill-rule="nonzero"/></g><g clip-path="url(#76bb8e6687)"><path fill="#38b6ff" d="M 101.851562 193.304688 C 111.15625 205.976562 123.679688 215.9375 138.105469 222.136719 C 136.113281 212.269531 135.125 202.207031 135.15625 192.132812 C 132.878906 192.65625 130.601562 191.230469 130.074219 188.949219 C 129.550781 186.648438 130.960938 184.382812 133.253906 183.855469 C 135.53125 183.316406 137.804688 184.742188 138.332031 187.039062 C 138.796875 189.050781 137.730469 191.125 135.8125 191.90625 C 141.402344 201.429688 148.367188 210.0625 156.519531 217.496094 C 166.136719 206.070312 173.851562 193.167969 179.394531 179.277344 C 175.679688 178.960938 172.9375 175.6875 173.253906 171.976562 C 173.566406 168.253906 176.832031 165.503906 180.535156 165.820312 C 184.234375 166.132812 186.992188 169.410156 186.675781 173.117188 C 186.390625 176.390625 183.800781 178.992188 180.535156 179.277344 C 186.0625 193.167969 193.792969 206.070312 203.410156 217.496094 C 211.542969 210.0625 218.527344 201.429688 224.097656 191.90625 C 221.941406 191.003906 220.9375 188.511719 221.835938 186.347656 C 222.734375 184.1875 225.222656 183.179688 227.378906 184.082031 C 229.539062 184.984375 230.554688 187.476562 229.65625 189.636719 C 228.847656 191.5625 226.78125 192.613281 224.757812 192.132812 C 224.789062 202.207031 223.800781 212.269531 221.792969 222.136719 C 236.234375 215.9375 248.742188 205.976562 258.0625 193.304688 C 256.007812 192.160156 255.273438 189.578125 256.398438 187.519531 C 257.539062 185.476562 260.113281 184.726562 262.167969 185.867188 C 264.203125 187.011719 264.953125 189.59375 263.816406 191.636719 C 262.765625 193.542969 260.457031 194.339844 258.464844 193.5 L 233.3125 251.035156 C 198.257812 242.382812 161.640625 242.382812 126.601562 251.035156 L 101.445312 193.5 C 99.289062 194.414062 96.800781 193.394531 95.886719 191.230469 C 94.988281 189.066406 95.992188 186.589844 98.152344 185.671875 C 100.308594 184.757812 102.796875 185.777344 103.695312 187.941406 C 104.546875 189.9375 103.738281 192.25 101.851562 193.304688 " fill-opacity="1" fill-rule="nonzero"/></g><g clip-path="url(#2737babf20)"><path fill="#ffffff" d="M 273.65625 113.640625 C 273.65625 114.5 273.617188 115.355469 273.53125 116.210938 C 273.449219 117.066406 273.320312 117.917969 273.152344 118.761719 C 272.984375 119.601562 272.777344 120.4375 272.527344 121.257812 C 272.277344 122.082031 271.988281 122.890625 271.660156 123.683594 C 271.332031 124.476562 270.964844 125.253906 270.558594 126.011719 C 270.152344 126.769531 269.710938 127.507812 269.234375 128.222656 C 268.757812 128.9375 268.246094 129.625 267.699219 130.289062 C 267.15625 130.953125 266.578125 131.589844 265.972656 132.199219 C 265.363281 132.804688 264.726562 133.382812 264.0625 133.929688 C 263.398438 134.472656 262.707031 134.984375 261.992188 135.460938 C 261.277344 135.941406 260.542969 136.382812 259.785156 136.785156 C 259.027344 137.191406 258.25 137.558594 257.457031 137.886719 C 256.660156 138.21875 255.851562 138.507812 255.03125 138.753906 C 254.207031 139.003906 253.375 139.214844 252.53125 139.382812 C 251.6875 139.550781 250.839844 139.675781 249.984375 139.757812 C 249.128906 139.84375 248.269531 139.886719 247.410156 139.886719 C 246.550781 139.886719 245.695312 139.84375 244.839844 139.757812 C 243.984375 139.675781 243.132812 139.550781 242.292969 139.382812 C 241.449219 139.214844 240.617188 139.003906 239.792969 138.753906 C 238.96875 138.507812 238.160156 138.21875 237.367188 137.886719 C 236.574219 137.558594 235.796875 137.191406 235.039062 136.785156 C 234.28125 136.382812 233.542969 135.941406 232.828125 135.460938 C 232.113281 134.984375 231.425781 134.472656 230.761719 133.929688 C 230.097656 133.382812 229.460938 132.804688 228.851562 132.199219 C 228.246094 131.589844 227.667969 130.953125 227.121094 130.289062 C 226.578125 129.625 226.066406 128.9375 225.589844 128.222656 C 225.109375 127.507812 224.667969 126.769531 224.265625 126.011719 C 223.859375 125.253906 223.492188 124.476562 223.164062 123.683594 C 222.835938 122.890625 222.542969 122.082031 222.296875 121.257812 C 222.046875 120.4375 221.835938 119.601562 221.667969 118.761719 C 221.5 117.917969 221.375 117.066406 221.292969 116.210938 C 221.207031 115.355469 221.164062 114.5 221.164062 113.640625 C 221.164062 112.78125 221.207031 111.921875 221.292969 111.066406 C 221.375 110.210938 221.5 109.363281 221.667969 108.519531 C 221.835938 107.675781 222.046875 106.84375 222.296875 106.019531 C 222.542969 105.199219 222.835938 104.390625 223.164062 103.59375 C 223.492188 102.800781 223.859375 102.023438 224.265625 101.265625 C 224.667969 100.507812 225.109375 99.773438 225.589844 99.058594 C 226.066406 98.34375 226.578125 97.652344 227.121094 96.988281 C 227.667969 96.324219 228.246094 95.6875 228.851562 95.082031 C 229.460938 94.472656 230.097656 93.894531 230.761719 93.351562 C 231.425781 92.804688 232.113281 92.292969 232.828125 91.816406 C 233.542969 91.339844 234.28125 90.898438 235.039062 90.492188 C 235.796875 90.085938 236.574219 89.71875 237.367188 89.390625 C 238.160156 89.0625 238.96875 88.773438 239.792969 88.523438 C 240.617188 88.273438 241.449219 88.066406 242.292969 87.898438 C 243.132812 87.730469 243.984375 87.601562 244.839844 87.519531 C 245.695312 87.433594 246.550781 87.394531 247.410156 87.394531 C 248.269531 87.394531 249.128906 87.433594 249.984375 87.519531 C 250.839844 87.601562 251.6875 87.730469 252.53125 87.898438 C 253.375 88.066406 254.207031 88.273438 255.03125 88.523438 C 255.851562 88.773438 256.660156 89.0625 257.457031 89.390625 C 258.25 89.71875 259.027344 90.085938 259.785156 90.492188 C 260.542969 90.898438 261.277344 91.339844 261.992188 91.816406 C 262.707031 92.292969 263.398438 92.804688 264.0625 93.351562 C 264.726562 93.894531 265.363281 94.472656 265.972656 95.082031 C 266.578125 95.6875 267.15625 96.324219 267.699219 96.988281 C 268.246094 97.652344 268.757812 98.34375 269.234375 99.058594 C 269.710938 99.773438 270.152344 100.507812 270.558594 101.265625 C 270.964844 102.023438 271.332031 102.800781 271.660156 103.59375 C 271.988281 104.390625 272.277344 105.199219 272.527344 106.019531 C 272.777344 106.84375 272.984375 107.675781 273.152344 108.519531 C 273.320312 109.363281 273.449219 110.210938 273.53125 111.066406 C 273.617188 111.921875 273.65625 112.78125 273.65625 113.640625 Z M 273.65625 113.640625 " fill-opacity="1" fill-rule="nonzero"/></g><g clip-path="url(#ab7d5b3b35)"><path fill="#38b6ff" d="M 236.871094 105.652344 C 242.523438 107.496094 248.070312 110.304688 254.015625 110.191406 C 259.222656 110.089844 264.183594 107.699219 268.25 104.445312 C 269.195312 103.691406 270.09375 102.886719 270.964844 102.054688 C 270.425781 100.960938 269.8125 99.90625 269.128906 98.898438 C 268.445312 97.890625 267.691406 96.933594 266.875 96.027344 C 266.054688 95.125 265.179688 94.28125 264.242188 93.5 C 263.304688 92.714844 262.320312 92.003906 261.285156 91.359375 C 260.25 90.714844 259.175781 90.144531 258.058594 89.648438 C 256.945312 89.15625 255.800781 88.738281 254.628906 88.402344 C 253.453125 88.070312 252.265625 87.816406 251.054688 87.648438 C 249.847656 87.476562 248.636719 87.394531 247.414062 87.394531 C 235.871094 87.394531 226.070312 94.84375 222.554688 105.191406 C 226.898438 103.390625 232.253906 104.144531 236.871094 105.652344 Z M 236.871094 105.652344 " fill-opacity="1" fill-rule="nonzero"/></g><g clip-path="url(#b00a863165)"><path fill="#38b6ff" d="M 245.515625 114.308594 C 240.679688 114.105469 235.425781 112.96875 231.300781 115.488281 C 227.554688 117.769531 225.945312 122.550781 226.238281 126.921875 C 226.300781 127.839844 226.425781 128.75 226.613281 129.648438 C 227.839844 131.242188 229.230469 132.675781 230.785156 133.953125 C 232.339844 135.226562 234.015625 136.304688 235.820312 137.195312 C 237.625 138.082031 239.503906 138.753906 241.464844 139.207031 C 243.421875 139.660156 245.40625 139.886719 247.414062 139.886719 C 261.910156 139.886719 273.664062 128.132812 273.664062 113.636719 C 273.667969 110.195312 273.019531 106.882812 271.714844 103.699219 C 265.015625 110.730469 255.21875 114.714844 245.515625 114.308594 Z M 245.515625 114.308594 " fill-opacity="1" fill-rule="nonzero"/></g><g clip-path="url(#0b368141ae)"><path fill="#ffffff" d="M 138.65625 113.640625 C 138.65625 114.5 138.617188 115.355469 138.53125 116.210938 C 138.449219 117.066406 138.320312 117.917969 138.152344 118.761719 C 137.984375 119.601562 137.777344 120.4375 137.527344 121.257812 C 137.277344 122.082031 136.988281 122.890625 136.660156 123.683594 C 136.332031 124.476562 135.964844 125.253906 135.558594 126.011719 C 135.152344 126.769531 134.710938 127.507812 134.234375 128.222656 C 133.757812 128.9375 133.246094 129.625 132.699219 130.289062 C 132.15625 130.953125 131.578125 131.589844 130.972656 132.199219 C 130.363281 132.804688 129.726562 133.382812 129.0625 133.929688 C 128.398438 134.472656 127.707031 134.984375 126.992188 135.460938 C 126.277344 135.941406 125.542969 136.382812 124.785156 136.785156 C 124.027344 137.191406 123.25 137.558594 122.457031 137.886719 C 121.660156 138.21875 120.851562 138.507812 120.03125 138.753906 C 119.207031 139.003906 118.375 139.214844 117.53125 139.382812 C 116.6875 139.550781 115.839844 139.675781 114.984375 139.757812 C 114.128906 139.84375 113.269531 139.886719 112.410156 139.886719 C 111.550781 139.886719 110.695312 139.84375 109.839844 139.757812 C 108.984375 139.675781 108.132812 139.550781 107.292969 139.382812 C 106.449219 139.214844 105.617188 139.003906 104.792969 138.753906 C 103.96875 138.507812 103.160156 138.21875 102.367188 137.886719 C 101.574219 137.558594 100.796875 137.191406 100.039062 136.785156 C 99.28125 136.382812 98.542969 135.941406 97.828125 135.460938 C 97.113281 134.984375 96.425781 134.472656 95.761719 133.929688 C 95.097656 133.382812 94.460938 132.804688 93.851562 132.199219 C 93.246094 131.589844 92.667969 130.953125 92.121094 130.289062 C 91.578125 129.625 91.066406 128.9375 90.589844 128.222656 C 90.109375 127.507812 89.667969 126.769531 89.265625 126.011719 C 88.859375 125.253906 88.492188 124.476562 88.164062 123.683594 C 87.835938 122.890625 87.542969 122.082031 87.296875 121.257812 C 87.046875 120.4375 86.835938 119.601562 86.667969 118.761719 C 86.5 117.917969 86.375 117.066406 86.292969 116.210938 C 86.207031 115.355469 86.164062 114.5 86.164062 113.640625 C 86.164062 112.78125 86.207031 111.921875 86.292969 111.066406 C 86.375 110.210938 86.5 109.363281 86.667969 108.519531 C 86.835938 107.675781 87.046875 106.84375 87.296875 106.019531 C 87.542969 105.199219 87.835938 104.390625 88.164062 103.59375 C 88.492188 102.800781 88.859375 102.023438 89.265625 101.265625 C 89.667969 100.507812 90.109375 99.773438 90.589844 99.058594 C 91.066406 98.34375 91.578125 97.652344 92.121094 96.988281 C 92.667969 96.324219 93.246094 95.6875 93.851562 95.082031 C 94.460938 94.472656 95.097656 93.894531 95.761719 93.351562 C 96.425781 92.804688 97.113281 92.292969 97.828125 91.816406 C 98.542969 91.339844 99.28125 90.898438 100.039062 90.492188 C 100.796875 90.085938 101.574219 89.71875 102.367188 89.390625 C 103.160156 89.0625 103.96875 88.773438 104.792969 88.523438 C 105.617188 88.273438 106.449219 88.066406 107.292969 87.898438 C 108.132812 87.730469 108.984375 87.601562 109.839844 87.519531 C 110.695312 87.433594 111.550781 87.394531 112.410156 87.394531 C 113.269531 87.394531 114.128906 87.433594 114.984375 87.519531 C 115.839844 87.601562 116.6875 87.730469 117.53125 87.898438 C 118.375 88.066406 119.207031 88.273438 120.03125 88.523438 C 120.851562 88.773438 121.660156 89.0625 122.457031 89.390625 C 123.25 89.71875 124.027344 90.085938 124.785156 90.492188 C 125.542969 90.898438 126.277344 91.339844 126.992188 91.816406 C 127.707031 92.292969 128.398438 92.804688 129.0625 93.351562 C 129.726562 93.894531 130.363281 94.472656 130.972656 95.082031 C 131.578125 95.6875 132.15625 96.324219 132.699219 96.988281 C 133.246094 97.652344 133.757812 98.34375 134.234375 99.058594 C 134.710938 99.773438 135.152344 100.507812 135.558594 101.265625 C 135.964844 102.023438 136.332031 102.800781 136.660156 103.59375 C 136.988281 104.390625 137.277344 105.199219 137.527344 106.019531 C 137.777344 106.84375 137.984375 107.675781 138.152344 108.519531 C 138.320312 109.363281 138.449219 110.210938 138.53125 111.066406 C 138.617188 111.921875 138.65625 112.78125 138.65625 113.640625 Z M 138.65625 113.640625 " fill-opacity="1" fill-rule="nonzero"/></g><g clip-path="url(#8a9cc98ef1)"><path fill="#38b6ff" d="M 101.871094 105.652344 C 107.523438 107.496094 113.070312 110.304688 119.015625 110.191406 C 124.222656 110.089844 129.183594 107.699219 133.25 104.445312 C 134.195312 103.691406 135.09375 102.886719 135.964844 102.054688 C 135.425781 100.960938 134.8125 99.90625 134.128906 98.898438 C 133.445312 97.890625 132.691406 96.933594 131.875 96.027344 C 131.054688 95.125 130.179688 94.28125 129.242188 93.5 C 128.304688 92.714844 127.320312 92.003906 126.285156 91.359375 C 125.25 90.714844 124.175781 90.144531 123.058594 89.648438 C 121.945312 89.15625 120.800781 88.738281 119.628906 88.402344 C 118.453125 88.070312 117.265625 87.816406 116.054688 87.648438 C 114.847656 87.476562 113.636719 87.394531 112.414062 87.394531 C 100.871094 87.394531 91.070312 94.84375 87.554688 105.191406 C 91.898438 103.390625 97.253906 104.144531 101.871094 105.652344 Z M 101.871094 105.652344 " fill-opacity="1" fill-rule="nonzero"/></g><g clip-path="url(#1d1badc7b3)"><path fill="#38b6ff" d="M 110.515625 114.308594 C 105.679688 114.105469 100.425781 112.96875 96.300781 115.488281 C 92.554688 117.769531 90.945312 122.550781 91.238281 126.921875 C 91.300781 127.839844 91.425781 128.75 91.613281 129.648438 C 92.839844 131.242188 94.230469 132.675781 95.785156 133.953125 C 97.339844 135.226562 99.015625 136.304688 100.820312 137.195312 C 102.625 138.082031 104.503906 138.753906 106.464844 139.207031 C 108.421875 139.660156 110.40625 139.886719 112.414062 139.886719 C 126.910156 139.886719 138.664062 128.132812 138.664062 113.636719 C 138.667969 110.195312 138.019531 106.882812 136.714844 103.699219 C 130.015625 110.730469 120.21875 114.714844 110.515625 114.308594 Z M 110.515625 114.308594 " fill-opacity="1" fill-rule="nonzero"/></g><g clip-path="url(#334bf5c23f)"><path fill="#ffffff" d="M 254.195312 348.558594 C 254.195312 349.773438 254.164062 350.984375 254.105469 352.199219 C 254.046875 353.414062 253.957031 354.625 253.839844 355.832031 C 253.71875 357.042969 253.570312 358.25 253.390625 359.449219 C 253.214844 360.652344 253.007812 361.847656 252.769531 363.039062 C 252.53125 364.230469 252.265625 365.417969 251.96875 366.597656 C 251.675781 367.773438 251.351562 368.945312 251 370.109375 C 250.644531 371.269531 250.265625 372.421875 249.855469 373.566406 C 249.445312 374.710938 249.007812 375.84375 248.542969 376.96875 C 248.078125 378.089844 247.585938 379.199219 247.066406 380.296875 C 246.546875 381.398438 246.003906 382.480469 245.429688 383.554688 C 244.855469 384.625 244.257812 385.683594 243.632812 386.722656 C 243.007812 387.765625 242.359375 388.792969 241.683594 389.800781 C 241.007812 390.8125 240.308594 391.804688 239.585938 392.78125 C 238.863281 393.757812 238.113281 394.714844 237.34375 395.65625 C 236.574219 396.59375 235.78125 397.511719 234.964844 398.414062 C 234.148438 399.3125 233.308594 400.195312 232.449219 401.054688 C 231.59375 401.910156 230.710938 402.75 229.8125 403.566406 C 228.910156 404.382812 227.992188 405.175781 227.050781 405.945312 C 226.113281 406.714844 225.15625 407.464844 224.179688 408.1875 C 223.203125 408.910156 222.210938 409.609375 221.199219 410.285156 C 220.191406 410.960938 219.164062 411.609375 218.121094 412.234375 C 217.082031 412.859375 216.023438 413.457031 214.953125 414.03125 C 213.878906 414.605469 212.796875 415.148438 211.695312 415.667969 C 210.597656 416.1875 209.488281 416.679688 208.367188 417.144531 C 207.242188 417.609375 206.109375 418.046875 204.964844 418.457031 C 203.820312 418.867188 202.667969 419.246094 201.507812 419.601562 C 200.34375 419.953125 199.171875 420.277344 197.992188 420.574219 C 196.816406 420.867188 195.628906 421.132812 194.4375 421.371094 C 193.246094 421.609375 192.050781 421.816406 190.847656 421.992188 C 189.648438 422.171875 188.441406 422.320312 187.230469 422.441406 C 186.023438 422.558594 184.8125 422.648438 183.597656 422.707031 C 182.382812 422.765625 181.171875 422.796875 179.957031 422.796875 C 178.738281 422.796875 177.527344 422.765625 176.3125 422.707031 C 175.097656 422.648438 173.886719 422.558594 172.679688 422.441406 C 171.46875 422.320312 170.265625 422.171875 169.0625 421.992188 C 167.859375 421.816406 166.664062 421.609375 165.472656 421.371094 C 164.28125 421.132812 163.09375 420.867188 161.917969 420.574219 C 160.738281 420.277344 159.566406 419.953125 158.40625 419.601562 C 157.242188 419.246094 156.089844 418.867188 154.945312 418.457031 C 153.800781 418.046875 152.667969 417.609375 151.542969 417.144531 C 150.421875 416.679688 149.3125 416.1875 148.214844 415.667969 C 147.113281 415.148438 146.03125 414.605469 144.957031 414.03125 C 143.886719 413.457031 142.832031 412.859375 141.789062 412.234375 C 140.746094 411.609375 139.71875 410.960938 138.710938 410.285156 C 137.699219 409.609375 136.707031 408.910156 135.730469 408.1875 C 134.753906 407.464844 133.796875 406.714844 132.859375 405.945312 C 131.917969 405.175781 131 404.382812 130.097656 403.566406 C 129.199219 402.75 128.320312 401.910156 127.460938 401.054688 C 126.601562 400.195312 125.761719 399.3125 124.945312 398.414062 C 124.128906 397.511719 123.335938 396.59375 122.566406 395.65625 C 121.796875 394.714844 121.046875 393.757812 120.324219 392.78125 C 119.601562 391.804688 118.902344 390.8125 118.226562 389.800781 C 117.550781 388.792969 116.902344 387.765625 116.277344 386.722656 C 115.652344 385.683594 115.054688 384.625 114.480469 383.554688 C 113.910156 382.480469 113.363281 381.398438 112.84375 380.296875 C 112.324219 379.199219 111.832031 378.089844 111.367188 376.96875 C 110.902344 375.84375 110.464844 374.710938 110.054688 373.566406 C 109.644531 372.421875 109.265625 371.269531 108.910156 370.109375 C 108.558594 368.945312 108.234375 367.773438 107.941406 366.597656 C 107.644531 365.417969 107.378906 364.230469 107.140625 363.039062 C 106.90625 361.847656 106.695312 360.652344 106.519531 359.449219 C 106.339844 358.25 106.191406 357.042969 106.074219 355.832031 C 105.953125 354.625 105.863281 353.414062 105.804688 352.199219 C 105.746094 350.984375 105.714844 349.773438 105.714844 348.558594 C 105.714844 347.34375 105.746094 346.128906 105.804688 344.914062 C 105.863281 343.699219 105.953125 342.488281 106.074219 341.28125 C 106.191406 340.070312 106.339844 338.867188 106.519531 337.664062 C 106.695312 336.460938 106.90625 335.265625 107.140625 334.074219 C 107.378906 332.882812 107.644531 331.695312 107.941406 330.519531 C 108.234375 329.339844 108.558594 328.167969 108.910156 327.007812 C 109.265625 325.84375 109.644531 324.691406 110.054688 323.546875 C 110.464844 322.402344 110.902344 321.269531 111.367188 320.144531 C 111.832031 319.023438 112.324219 317.914062 112.84375 316.816406 C 113.363281 315.71875 113.910156 314.632812 114.480469 313.558594 C 115.054688 312.488281 115.652344 311.433594 116.277344 310.390625 C 116.902344 309.347656 117.550781 308.320312 118.226562 307.3125 C 118.902344 306.300781 119.601562 305.308594 120.324219 304.332031 C 121.046875 303.355469 121.796875 302.398438 122.566406 301.460938 C 123.335938 300.519531 124.128906 299.601562 124.945312 298.699219 C 125.761719 297.800781 126.601562 296.921875 127.460938 296.0625 C 128.320312 295.203125 129.199219 294.363281 130.097656 293.546875 C 131 292.734375 131.917969 291.9375 132.859375 291.167969 C 133.796875 290.398438 134.753906 289.652344 135.730469 288.925781 C 136.707031 288.203125 137.699219 287.503906 138.710938 286.828125 C 139.71875 286.152344 140.746094 285.503906 141.789062 284.878906 C 142.832031 284.253906 143.886719 283.65625 144.957031 283.082031 C 146.03125 282.511719 147.113281 281.964844 148.214844 281.445312 C 149.3125 280.925781 150.421875 280.433594 151.542969 279.96875 C 152.667969 279.503906 153.800781 279.066406 154.945312 278.65625 C 156.089844 278.246094 157.242188 277.867188 158.40625 277.511719 C 159.566406 277.160156 160.738281 276.835938 161.917969 276.542969 C 163.09375 276.246094 164.28125 275.980469 165.472656 275.742188 C 166.664062 275.507812 167.859375 275.296875 169.0625 275.121094 C 170.265625 274.941406 171.46875 274.792969 172.679688 274.675781 C 173.886719 274.554688 175.097656 274.464844 176.3125 274.40625 C 177.527344 274.347656 178.738281 274.316406 179.957031 274.316406 C 181.171875 274.316406 182.382812 274.347656 183.597656 274.40625 C 184.8125 274.464844 186.023438 274.554688 187.230469 274.675781 C 188.441406 274.792969 189.648438 274.941406 190.847656 275.121094 C 192.050781 275.296875 193.246094 275.507812 194.4375 275.742188 C 195.628906 275.980469 196.816406 276.246094 197.992188 276.542969 C 199.171875 276.835938 200.34375 277.160156 201.507812 277.511719 C 202.667969 277.867188 203.820312 278.246094 204.964844 278.65625 C 206.109375 279.066406 207.242188 279.503906 208.367188 279.96875 C 209.488281 280.433594 210.597656 280.925781 211.695312 281.445312 C 212.796875 281.964844 213.878906 282.511719 214.953125 283.082031 C 216.023438 283.65625 217.082031 284.253906 218.121094 284.878906 C 219.164062 285.503906 220.191406 286.152344 221.199219 286.828125 C 222.210938 287.503906 223.203125 288.203125 224.179688 288.925781 C 225.15625 289.652344 226.113281 290.398438 227.050781 291.167969 C 227.992188 291.9375 228.910156 292.734375 229.8125 293.546875 C 230.710938 294.363281 231.59375 295.203125 232.449219 296.0625 C 233.308594 296.921875 234.148438 297.800781 234.964844 298.699219 C 235.78125 299.601562 236.574219 300.519531 237.34375 301.460938 C 238.113281 302.398438 238.863281 303.355469 239.585938 304.332031 C 240.308594 305.308594 241.007812 306.300781 241.683594 307.3125 C 242.359375 308.320312 243.007812 309.347656 243.632812 310.390625 C 244.257812 311.433594 244.855469 312.488281 245.429688 313.558594 C 246.003906 314.632812 246.546875 315.71875 247.066406 316.816406 C 247.585938 317.914062 248.078125 319.023438 248.542969 320.144531 C 249.007812 321.269531 249.445312 322.402344 249.855469 323.546875 C 250.265625 324.691406 250.644531 325.84375 251 327.007812 C 251.351562 328.167969 251.675781 329.339844 251.96875 330.519531 C 252.265625 331.695312 252.53125 332.882812 252.769531 334.074219 C 253.007812 335.265625 253.214844 336.460938 253.390625 337.664062 C 253.570312 338.867188 253.71875 340.070312 253.839844 341.28125 C 253.957031 342.488281 254.046875 343.699219 254.105469 344.914062 C 254.164062 346.128906 254.195312 347.34375 254.195312 348.558594 Z M 254.195312 348.558594 " fill-opacity="1" fill-rule="nonzero"/></g><g clip-path="url(#70014e4b16)"><path fill="#38b6ff" d="M 150.136719 325.960938 C 166.125 331.179688 181.8125 339.125 198.632812 338.800781 C 213.367188 338.519531 227.390625 331.753906 238.898438 322.546875 C 241.566406 320.414062 244.113281 318.148438 246.574219 315.785156 C 245.816406 314.242188 245 312.722656 244.136719 311.234375 C 243.269531 309.746094 242.351562 308.285156 241.382812 306.859375 C 240.417969 305.4375 239.398438 304.046875 238.335938 302.691406 C 237.269531 301.335938 236.160156 300.019531 235.003906 298.742188 C 233.847656 297.464844 232.648438 296.230469 231.40625 295.035156 C 230.164062 293.839844 228.882812 292.691406 227.558594 291.585938 C 226.238281 290.484375 224.878906 289.425781 223.484375 288.414062 C 222.085938 287.40625 220.660156 286.445312 219.195312 285.535156 C 217.734375 284.625 216.242188 283.765625 214.71875 282.957031 C 213.195312 282.152344 211.648438 281.398438 210.070312 280.699219 C 208.496094 280 206.898438 279.355469 205.28125 278.769531 C 203.660156 278.183594 202.023438 277.652344 200.367188 277.175781 C 198.710938 276.703125 197.039062 276.289062 195.351562 275.929688 C 193.667969 275.574219 191.972656 275.277344 190.265625 275.035156 C 188.558594 274.796875 186.847656 274.617188 185.128906 274.496094 C 183.410156 274.378906 181.6875 274.316406 179.964844 274.316406 C 147.3125 274.316406 119.59375 295.390625 109.644531 324.664062 C 121.925781 319.566406 137.078125 321.699219 150.136719 325.960938 Z M 150.136719 325.960938 " fill-opacity="1" fill-rule="nonzero"/></g><g clip-path="url(#7623e64663)"><path fill="#38b6ff" d="M 174.589844 350.445312 C 160.914062 349.875 146.054688 346.660156 134.382812 353.789062 C 123.792969 360.238281 119.238281 373.761719 120.0625 386.128906 C 120.238281 388.726562 120.597656 391.296875 121.128906 393.84375 C 122.855469 396.089844 124.703125 398.230469 126.675781 400.265625 C 128.648438 402.300781 130.730469 404.214844 132.921875 406.011719 C 135.113281 407.804688 137.402344 409.472656 139.78125 411.003906 C 142.164062 412.539062 144.628906 413.929688 147.171875 415.179688 C 149.710938 416.433594 152.316406 417.535156 154.988281 418.488281 C 157.65625 419.4375 160.371094 420.234375 163.128906 420.875 C 165.890625 421.515625 168.675781 422 171.492188 422.320312 C 174.308594 422.640625 177.132812 422.800781 179.964844 422.796875 C 220.964844 422.796875 254.214844 389.554688 254.214844 348.546875 C 254.226562 338.816406 252.386719 329.449219 248.703125 320.441406 C 229.746094 340.332031 202.035156 351.59375 174.589844 350.445312 Z M 174.589844 350.445312 " fill-opacity="1" fill-rule="nonzero"/></g></svg>