<svg xmlns="http://www.w3.org/2000/svg" xmlns:xlink="http://www.w3.org/1999/xlink" width="480" zoomAndPan="magnify" viewBox="0 0 360 503.999982" height="672" preserveAspectRatio="xMidYMid meet" version="1.0"><defs><filter x="0%" y="0%" width="100%" height="100%" id="b8e21c6a26"><feColorMatrix values="0 0 0 0 1 0 0 0 0 1 0 0 0 0 1 0 0 0 1 0" color-interpolation-filters="sRGB"/></filter><g/><mask id="2937aaf88b"><g filter="url(#b8e21c6a26)"><rect x="-36" width="432" fill="#000000" y="-50.399998" height="604.799979" fill-opacity="0.1373"/></g></mask><clipPath id="6214dbe2ab"><path d="M 0 0 L 1 0 L 1 432.847656 L 0 432.847656 Z M 0 0 " clip-rule="nonzero"/></clipPath><clipPath id="13629388d1"><path d="M 0 0 L 18 0 L 18 432.847656 L 0 432.847656 Z M 0 0 " clip-rule="nonzero"/></clipPath><clipPath id="e545ce92bd"><path d="M 0 0 L 35 0 L 35 432.847656 L 0 432.847656 Z M 0 0 " clip-rule="nonzero"/></clipPath><clipPath id="fb2d045f1c"><path d="M 0 0 L 53 0 L 53 432.847656 L 0 432.847656 Z M 0 0 " clip-rule="nonzero"/></clipPath><clipPath id="1fe7a4cf9a"><path d="M 0 0 L 70 0 L 70 432.847656 L 0 432.847656 Z M 0 0 " clip-rule="nonzero"/></clipPath><clipPath id="87346d58c4"><path d="M 0 0 L 88 0 L 88 432.847656 L 0 432.847656 Z M 0 0 " clip-rule="nonzero"/></clipPath><clipPath id="9690719adc"><path d="M 0 0 L 105 0 L 105 432.847656 L 0 432.847656 Z M 0 0 " clip-rule="nonzero"/></clipPath><clipPath id="8e39e31034"><path d="M 0 0 L 122 0 L 122 432.847656 L 0 432.847656 Z M 0 0 " clip-rule="nonzero"/></clipPath><clipPath id="56d3a10462"><path d="M 0 0 L 140 0 L 140 432.847656 L 0 432.847656 Z M 0 0 " clip-rule="nonzero"/></clipPath><clipPath id="12670bb591"><path d="M 0 0 L 157 0 L 157 432.847656 L 0 432.847656 Z M 0 0 " clip-rule="nonzero"/></clipPath><clipPath id="eb607c70f3"><path d="M 0 0 L 175 0 L 175 432.847656 L 0 432.847656 Z M 0 0 " clip-rule="nonzero"/></clipPath><clipPath id="48e1afa3d0"><path d="M 0 0 L 192 0 L 192 432.847656 L 0 432.847656 Z M 0 0 " clip-rule="nonzero"/></clipPath><clipPath id="ed4efd9292"><path d="M 0 0 L 208.722656 0 L 208.722656 432.847656 L 0 432.847656 Z M 0 0 " clip-rule="nonzero"/></clipPath><clipPath id="77faa706ad"><rect x="0" width="209" y="0" height="434"/></clipPath><mask id="131a0e06ec"><g filter="url(#b8e21c6a26)"><rect x="-36" width="432" fill="#000000" y="-50.399998" height="604.799979" fill-opacity="0.1373"/></g></mask><clipPath id="dad51a6f15"><path d="M 0.222656 1 L 122 1 L 122 501.648438 L 0.222656 501.648438 Z M 0.222656 1 " clip-rule="nonzero"/></clipPath><clipPath id="79b2432c9f"><path d="M 17 1 L 122 1 L 122 501.648438 L 17 501.648438 Z M 17 1 " clip-rule="nonzero"/></clipPath><clipPath id="8dc782cf45"><path d="M 35 1 L 122 1 L 122 501.648438 L 35 501.648438 Z M 35 1 " clip-rule="nonzero"/></clipPath><clipPath id="be404ce04c"><path d="M 52 1 L 122 1 L 122 501.648438 L 52 501.648438 Z M 52 1 " clip-rule="nonzero"/></clipPath><clipPath id="2ce7a030d2"><path d="M 70 1 L 122 1 L 122 501.648438 L 70 501.648438 Z M 70 1 " clip-rule="nonzero"/></clipPath><clipPath id="757739a53b"><path d="M 87 1 L 122 1 L 122 501.648438 L 87 501.648438 Z M 87 1 " clip-rule="nonzero"/></clipPath><clipPath id="081545c85a"><path d="M 104 1 L 122 1 L 122 501.648438 L 104 501.648438 Z M 104 1 " clip-rule="nonzero"/></clipPath><clipPath id="dd3492cfd9"><rect x="0" width="122" y="0" height="502"/></clipPath><mask id="c452395ed9"><g filter="url(#b8e21c6a26)"><rect x="-36" width="432" fill="#000000" y="-50.399998" height="604.799979" fill-opacity="0.1373"/></g></mask><clipPath id="5b5acfe25b"><path d="M 0 1 L 197 1 L 197 501.648438 L 0 501.648438 Z M 0 1 " clip-rule="nonzero"/></clipPath><clipPath id="1acb2d0e78"><path d="M 0 1 L 214 1 L 214 501.648438 L 0 501.648438 Z M 0 1 " clip-rule="nonzero"/></clipPath><clipPath id="ee1d9f6069"><path d="M 12 1 L 232 1 L 232 501.648438 L 12 501.648438 Z M 12 1 " clip-rule="nonzero"/></clipPath><clipPath id="4ee21f4151"><path d="M 29 1 L 249 1 L 249 501.648438 L 29 501.648438 Z M 29 1 " clip-rule="nonzero"/></clipPath><clipPath id="6e031cf950"><path d="M 47 1 L 267 1 L 267 501.648438 L 47 501.648438 Z M 47 1 " clip-rule="nonzero"/></clipPath><clipPath id="95f7cfb0b3"><path d="M 64 1 L 284 1 L 284 501.648438 L 64 501.648438 Z M 64 1 " clip-rule="nonzero"/></clipPath><clipPath id="b2a4cb6c44"><path d="M 81 1 L 301 1 L 301 501.648438 L 81 501.648438 Z M 81 1 " clip-rule="nonzero"/></clipPath><clipPath id="6cb52468aa"><path d="M 99 1 L 319 1 L 319 501.648438 L 99 501.648438 Z M 99 1 " clip-rule="nonzero"/></clipPath><clipPath id="fe2725bbbb"><path d="M 116 1 L 336 1 L 336 501.648438 L 116 501.648438 Z M 116 1 " clip-rule="nonzero"/></clipPath><clipPath id="8f5ea785ff"><path d="M 134 1 L 354 1 L 354 501.648438 L 134 501.648438 Z M 134 1 " clip-rule="nonzero"/></clipPath><clipPath id="fa79133a60"><path d="M 151 1 L 360 1 L 360 501.648438 L 151 501.648438 Z M 151 1 " clip-rule="nonzero"/></clipPath><clipPath id="47e716448c"><path d="M 168 1 L 360 1 L 360 501.648438 L 168 501.648438 Z M 168 1 " clip-rule="nonzero"/></clipPath><clipPath id="b52fc8b567"><path d="M 186 1 L 360 1 L 360 501.648438 L 186 501.648438 Z M 186 1 " clip-rule="nonzero"/></clipPath><clipPath id="0ddd80fd4b"><path d="M 203 1 L 360 1 L 360 501.648438 L 203 501.648438 Z M 203 1 " clip-rule="nonzero"/></clipPath><clipPath id="37c76a8559"><path d="M 221 1 L 360 1 L 360 501.648438 L 221 501.648438 Z M 221 1 " clip-rule="nonzero"/></clipPath><clipPath id="7c76008823"><rect x="0" width="360" y="0" height="502"/></clipPath><clipPath id="941fc35b3f"><path d="M 28.015625 36 L 331.765625 36 L 331.765625 468 L 28.015625 468 Z M 28.015625 36 " clip-rule="nonzero"/></clipPath><clipPath id="8c9216a144"><path d="M 222.078125 200.65625 L 274.578125 200.65625 L 274.578125 253.15625 L 222.078125 253.15625 Z M 222.078125 200.65625 " clip-rule="nonzero"/></clipPath><clipPath id="c6f2feb534"><path d="M 223 200.65625 L 272 200.65625 L 272 224 L 223 224 Z M 223 200.65625 " clip-rule="nonzero"/></clipPath><clipPath id="550247545f"><path d="M 227 216 L 274.578125 216 L 274.578125 253.15625 L 227 253.15625 Z M 227 216 " clip-rule="nonzero"/></clipPath><clipPath id="32d257edb1"><path d="M 222.078125 290.167969 L 274.578125 290.167969 L 274.578125 342.667969 L 222.078125 342.667969 Z M 222.078125 290.167969 " clip-rule="nonzero"/></clipPath><clipPath id="6661599b74"><path d="M 223 290.167969 L 272 290.167969 L 272 313 L 223 313 Z M 223 290.167969 " clip-rule="nonzero"/></clipPath><clipPath id="fe2d0e90a4"><path d="M 227 306 L 274.578125 306 L 274.578125 342.667969 L 227 342.667969 Z M 227 306 " clip-rule="nonzero"/></clipPath><clipPath id="714df7a9d2"><path d="M 222.078125 378.386719 L 274.578125 378.386719 L 274.578125 430.886719 L 222.078125 430.886719 Z M 222.078125 378.386719 " clip-rule="nonzero"/></clipPath><clipPath id="b5aba0c0da"><path d="M 223 378.386719 L 272 378.386719 L 272 402 L 223 402 Z M 223 378.386719 " clip-rule="nonzero"/></clipPath><clipPath id="39ac5324b2"><path d="M 227 394 L 274.578125 394 L 274.578125 430.886719 L 227 430.886719 Z M 227 394 " clip-rule="nonzero"/></clipPath><clipPath id="539b162f4d"><path d="M 153.664062 116.972656 L 206.164062 116.972656 L 206.164062 169.472656 L 153.664062 169.472656 Z M 153.664062 116.972656 " clip-rule="nonzero"/></clipPath><clipPath id="3168df7590"><path d="M 155 116.972656 L 204 116.972656 L 204 140 L 155 140 Z M 155 116.972656 " clip-rule="nonzero"/></clipPath><clipPath id="21f7b918a4"><path d="M 158 133 L 206.164062 133 L 206.164062 169.472656 L 158 169.472656 Z M 158 133 " clip-rule="nonzero"/></clipPath><clipPath id="c9aef1a7c2"><path d="M 85.476562 200.65625 L 137.976562 200.65625 L 137.976562 253.15625 L 85.476562 253.15625 Z M 85.476562 200.65625 " clip-rule="nonzero"/></clipPath><clipPath id="aa076a2039"><path d="M 86 200.65625 L 136 200.65625 L 136 224 L 86 224 Z M 86 200.65625 " clip-rule="nonzero"/></clipPath><clipPath id="61d8cbc6c7"><path d="M 90 216 L 137.976562 216 L 137.976562 253.15625 L 90 253.15625 Z M 90 216 " clip-rule="nonzero"/></clipPath><clipPath id="c8eca5c85f"><path d="M 85.476562 290.167969 L 137.976562 290.167969 L 137.976562 342.667969 L 85.476562 342.667969 Z M 85.476562 290.167969 " clip-rule="nonzero"/></clipPath><clipPath id="671963f4de"><path d="M 86 290.167969 L 136 290.167969 L 136 313 L 86 313 Z M 86 290.167969 " clip-rule="nonzero"/></clipPath><clipPath id="dd1b5cee1b"><path d="M 90 306 L 137.976562 306 L 137.976562 342.667969 L 90 342.667969 Z M 90 306 " clip-rule="nonzero"/></clipPath><clipPath id="8fbd59bbf0"><path d="M 85.476562 378.386719 L 137.976562 378.386719 L 137.976562 430.886719 L 85.476562 430.886719 Z M 85.476562 378.386719 " clip-rule="nonzero"/></clipPath><clipPath id="aa2c803ecd"><path d="M 86 378.386719 L 136 378.386719 L 136 402 L 86 402 Z M 86 378.386719 " clip-rule="nonzero"/></clipPath><clipPath id="c095824c19"><path d="M 90 394 L 137.976562 394 L 137.976562 430.886719 L 90 430.886719 Z M 90 394 " clip-rule="nonzero"/></clipPath></defs><rect x="-36" width="432" fill="#ffffff" y="-50.399998" height="604.799979" fill-opacity="1"/><rect x="-36" width="432" fill="#ffffff" y="-50.399998" height="604.799979" fill-opacity="1"/><rect x="-36" width="432" fill="#323232" y="-50.399998" height="604.799979" fill-opacity="1"/><g mask="url(#2937aaf88b)"><g transform="matrix(1, 0, 0, 1, 0, 0)"><g clip-path="url(#77faa706ad)"><g clip-path="url(#6214dbe2ab)"><path fill="#000000" d="M -217.589844 432.296875 L -219.066406 431.664062 L -1.417969 -67.574219 L 0.0507812 -66.9375 Z M -217.589844 432.296875 " fill-opacity="1" fill-rule="nonzero"/></g><g clip-path="url(#13629388d1)"><path fill="#000000" d="M -200.175781 432.296875 L -201.652344 431.664062 L 15.992188 -67.574219 L 17.460938 -66.9375 Z M -200.175781 432.296875 " fill-opacity="1" fill-rule="nonzero"/></g><g clip-path="url(#e545ce92bd)"><path fill="#000000" d="M -182.765625 432.296875 L -184.242188 431.664062 L 33.40625 -67.574219 L 34.875 -66.9375 Z M -182.765625 432.296875 " fill-opacity="1" fill-rule="nonzero"/></g><g clip-path="url(#fb2d045f1c)"><path fill="#000000" d="M -165.359375 432.296875 L -166.828125 431.664062 L 50.816406 -67.574219 L 52.289062 -66.9375 Z M -165.359375 432.296875 " fill-opacity="1" fill-rule="nonzero"/></g><g clip-path="url(#1fe7a4cf9a)"><path fill="#000000" d="M -147.945312 432.296875 L -149.421875 431.664062 L 68.222656 -67.574219 L 69.699219 -66.9375 Z M -147.945312 432.296875 " fill-opacity="1" fill-rule="nonzero"/></g><g clip-path="url(#87346d58c4)"><path fill="#000000" d="M -130.535156 432.296875 L -132.011719 431.664062 L 85.636719 -67.574219 L 87.113281 -66.9375 Z M -130.535156 432.296875 " fill-opacity="1" fill-rule="nonzero"/></g><g clip-path="url(#9690719adc)"><path fill="#000000" d="M -113.121094 432.296875 L -114.597656 431.664062 L 103.050781 -67.574219 L 104.523438 -66.9375 Z M -113.121094 432.296875 " fill-opacity="1" fill-rule="nonzero"/></g><g clip-path="url(#8e39e31034)"><path fill="#000000" d="M -95.707031 432.296875 L -97.183594 431.664062 L 120.460938 -67.574219 L 121.929688 -66.9375 Z M -95.707031 432.296875 " fill-opacity="1" fill-rule="nonzero"/></g><g clip-path="url(#56d3a10462)"><path fill="#000000" d="M -78.304688 432.296875 L -79.773438 431.664062 L 137.875 -67.574219 L 139.34375 -66.9375 Z M -78.304688 432.296875 " fill-opacity="1" fill-rule="nonzero"/></g><g clip-path="url(#12670bb591)"><path fill="#000000" d="M -60.890625 432.296875 L -62.359375 431.664062 L 155.28125 -67.574219 L 156.757812 -66.9375 Z M -60.890625 432.296875 " fill-opacity="1" fill-rule="nonzero"/></g><g clip-path="url(#eb607c70f3)"><path fill="#000000" d="M -43.476562 432.296875 L -44.949219 431.664062 L 172.691406 -67.574219 L 174.167969 -66.9375 Z M -43.476562 432.296875 " fill-opacity="1" fill-rule="nonzero"/></g><g clip-path="url(#48e1afa3d0)"><path fill="#000000" d="M -26.066406 432.296875 L -27.535156 431.664062 L 190.105469 -67.574219 L 191.582031 -66.9375 Z M -26.066406 432.296875 " fill-opacity="1" fill-rule="nonzero"/></g><g clip-path="url(#ed4efd9292)"><path fill="#000000" d="M -8.652344 432.296875 L -10.128906 431.664062 L 207.515625 -67.574219 L 208.992188 -66.9375 Z M -8.652344 432.296875 " fill-opacity="1" fill-rule="nonzero"/></g></g></g></g><g mask="url(#131a0e06ec)"><g transform="matrix(1, 0, 0, 1, 238, 2)"><g clip-path="url(#dd3492cfd9)"><g clip-path="url(#dad51a6f15)"><path fill="#000000" d="M 1.832031 501.097656 L 0.363281 500.460938 L 218.003906 1.226562 L 219.480469 1.859375 Z M 1.832031 501.097656 " fill-opacity="1" fill-rule="nonzero"/></g><g clip-path="url(#79b2432c9f)"><path fill="#000000" d="M 19.246094 501.097656 L 17.769531 500.460938 L 235.414062 1.226562 L 236.890625 1.859375 Z M 19.246094 501.097656 " fill-opacity="1" fill-rule="nonzero"/></g><g clip-path="url(#8dc782cf45)"><path fill="#000000" d="M 36.65625 501.097656 L 35.183594 500.460938 L 252.828125 1.226562 L 254.296875 1.859375 Z M 36.65625 501.097656 " fill-opacity="1" fill-rule="nonzero"/></g><g clip-path="url(#be404ce04c)"><path fill="#000000" d="M 54.070312 501.097656 L 52.59375 500.460938 L 270.242188 1.226562 L 271.710938 1.859375 Z M 54.070312 501.097656 " fill-opacity="1" fill-rule="nonzero"/></g><g clip-path="url(#2ce7a030d2)"><path fill="#000000" d="M 71.484375 501.097656 L 70.007812 500.460938 L 287.652344 1.226562 L 289.125 1.859375 Z M 71.484375 501.097656 " fill-opacity="1" fill-rule="nonzero"/></g><g clip-path="url(#757739a53b)"><path fill="#000000" d="M 88.890625 501.097656 L 87.417969 500.460938 L 305.066406 1.226562 L 306.535156 1.859375 Z M 88.890625 501.097656 " fill-opacity="1" fill-rule="nonzero"/></g><g clip-path="url(#081545c85a)"><path fill="#000000" d="M 106.300781 501.097656 L 104.824219 500.460938 L 322.472656 1.226562 L 323.949219 1.859375 Z M 106.300781 501.097656 " fill-opacity="1" fill-rule="nonzero"/></g></g></g></g><g mask="url(#c452395ed9)"><g transform="matrix(1, 0, 0, 1, 0, 2)"><g clip-path="url(#7c76008823)"><g clip-path="url(#5b5acfe25b)"><path fill="#000000" d="M -21.167969 501.097656 L -22.636719 500.460938 L 195.003906 1.226562 L 196.480469 1.859375 Z M -21.167969 501.097656 " fill-opacity="1" fill-rule="nonzero"/></g><g clip-path="url(#1acb2d0e78)"><path fill="#000000" d="M -3.753906 501.097656 L -5.230469 500.460938 L 212.414062 1.226562 L 213.890625 1.859375 Z M -3.753906 501.097656 " fill-opacity="1" fill-rule="nonzero"/></g><g clip-path="url(#ee1d9f6069)"><path fill="#000000" d="M 13.65625 501.097656 L 12.183594 500.460938 L 229.828125 1.226562 L 231.296875 1.859375 Z M 13.65625 501.097656 " fill-opacity="1" fill-rule="nonzero"/></g><g clip-path="url(#4ee21f4151)"><path fill="#000000" d="M 31.070312 501.097656 L 29.59375 500.460938 L 247.242188 1.226562 L 248.710938 1.859375 Z M 31.070312 501.097656 " fill-opacity="1" fill-rule="nonzero"/></g><g clip-path="url(#6e031cf950)"><path fill="#000000" d="M 48.484375 501.097656 L 47.007812 500.460938 L 264.652344 1.226562 L 266.125 1.859375 Z M 48.484375 501.097656 " fill-opacity="1" fill-rule="nonzero"/></g><g clip-path="url(#95f7cfb0b3)"><path fill="#000000" d="M 65.890625 501.097656 L 64.417969 500.460938 L 282.066406 1.226562 L 283.535156 1.859375 Z M 65.890625 501.097656 " fill-opacity="1" fill-rule="nonzero"/></g><g clip-path="url(#b2a4cb6c44)"><path fill="#000000" d="M 83.300781 501.097656 L 81.824219 500.460938 L 299.472656 1.226562 L 300.949219 1.859375 Z M 83.300781 501.097656 " fill-opacity="1" fill-rule="nonzero"/></g><g clip-path="url(#6cb52468aa)"><path fill="#000000" d="M 100.714844 501.097656 L 99.238281 500.460938 L 316.882812 1.226562 L 318.359375 1.859375 Z M 100.714844 501.097656 " fill-opacity="1" fill-rule="nonzero"/></g><g clip-path="url(#fe2725bbbb)"><path fill="#000000" d="M 118.125 501.097656 L 116.652344 500.460938 L 334.296875 1.226562 L 335.773438 1.859375 Z M 118.125 501.097656 " fill-opacity="1" fill-rule="nonzero"/></g><g clip-path="url(#8f5ea785ff)"><path fill="#000000" d="M 135.539062 501.097656 L 134.0625 500.460938 L 351.710938 1.226562 L 353.179688 1.859375 Z M 135.539062 501.097656 " fill-opacity="1" fill-rule="nonzero"/></g><g clip-path="url(#fa79133a60)"><path fill="#000000" d="M 152.945312 501.097656 L 151.476562 500.460938 L 369.121094 1.226562 L 370.589844 1.859375 Z M 152.945312 501.097656 " fill-opacity="1" fill-rule="nonzero"/></g><g clip-path="url(#47e716448c)"><path fill="#000000" d="M 170.359375 501.097656 L 168.886719 500.460938 L 386.527344 1.226562 L 388.003906 1.859375 Z M 170.359375 501.097656 " fill-opacity="1" fill-rule="nonzero"/></g><g clip-path="url(#b52fc8b567)"><path fill="#000000" d="M 187.769531 501.097656 L 186.300781 500.460938 L 403.941406 1.226562 L 405.417969 1.859375 Z M 187.769531 501.097656 " fill-opacity="1" fill-rule="nonzero"/></g><g clip-path="url(#0ddd80fd4b)"><path fill="#000000" d="M 205.183594 501.097656 L 203.710938 500.460938 L 421.351562 1.226562 L 422.828125 1.859375 Z M 205.183594 501.097656 " fill-opacity="1" fill-rule="nonzero"/></g><g clip-path="url(#37c76a8559)"><path fill="#000000" d="M 222.59375 501.097656 L 221.117188 500.460938 L 438.765625 1.226562 L 440.242188 1.859375 Z M 222.59375 501.097656 " fill-opacity="1" fill-rule="nonzero"/></g></g></g></g><g clip-path="url(#941fc35b3f)"><path fill="#38b6ff" d="M 331.601562 467.976562 L 28.1875 467.976562 L 28.1875 36 L 331.601562 36 Z M 29.066406 467.097656 L 330.722656 467.097656 L 330.722656 36.878906 L 29.066406 36.878906 Z M 29.066406 467.097656 " fill-opacity="1" fill-rule="nonzero"/></g><g fill="#38b6ff" fill-opacity="1"><g transform="translate(44.874898, 95.039993)"><g><path d="M 31.484375 -42.847656 L 2.855469 -42.847656 L 2.855469 -40.800781 L 28.441406 -40.800781 L 6.582031 0 L 9.191406 0 L 31.484375 -41.730469 Z M 31.484375 -42.847656 "/></g></g></g><g clip-path="url(#8c9216a144)"><path fill="#ffffff" d="M 274.570312 226.902344 C 274.570312 227.761719 274.527344 228.617188 274.445312 229.472656 C 274.359375 230.328125 274.234375 231.179688 274.066406 232.023438 C 273.898438 232.863281 273.6875 233.699219 273.441406 234.519531 C 273.191406 235.34375 272.902344 236.152344 272.570312 236.945312 C 272.242188 237.738281 271.875 238.515625 271.46875 239.273438 C 271.066406 240.03125 270.625 240.769531 270.148438 241.484375 C 269.667969 242.199219 269.15625 242.886719 268.613281 243.550781 C 268.066406 244.214844 267.488281 244.851562 266.882812 245.460938 C 266.273438 246.066406 265.636719 246.644531 264.972656 247.191406 C 264.308594 247.734375 263.621094 248.246094 262.90625 248.722656 C 262.191406 249.203125 261.453125 249.644531 260.695312 250.046875 C 259.9375 250.453125 259.160156 250.820312 258.367188 251.148438 C 257.574219 251.480469 256.765625 251.769531 255.941406 252.019531 C 255.121094 252.265625 254.285156 252.476562 253.445312 252.644531 C 252.601562 252.8125 251.75 252.9375 250.894531 253.019531 C 250.039062 253.105469 249.183594 253.148438 248.324219 253.148438 C 247.464844 253.148438 246.605469 253.105469 245.75 253.019531 C 244.894531 252.9375 244.046875 252.8125 243.203125 252.644531 C 242.359375 252.476562 241.527344 252.265625 240.703125 252.019531 C 239.882812 251.769531 239.074219 251.480469 238.277344 251.148438 C 237.484375 250.820312 236.707031 250.453125 235.949219 250.046875 C 235.191406 249.644531 234.457031 249.203125 233.742188 248.722656 C 233.027344 248.246094 232.335938 247.734375 231.671875 247.191406 C 231.007812 246.644531 230.371094 246.066406 229.765625 245.460938 C 229.15625 244.851562 228.578125 244.214844 228.035156 243.550781 C 227.488281 242.886719 226.976562 242.199219 226.5 241.484375 C 226.023438 240.769531 225.582031 240.03125 225.175781 239.273438 C 224.769531 238.515625 224.402344 237.738281 224.074219 236.945312 C 223.746094 236.152344 223.457031 235.34375 223.207031 234.519531 C 222.957031 233.699219 222.75 232.863281 222.582031 232.023438 C 222.414062 231.179688 222.289062 230.328125 222.203125 229.472656 C 222.117188 228.617188 222.078125 227.761719 222.078125 226.902344 C 222.078125 226.042969 222.117188 225.183594 222.203125 224.328125 C 222.289062 223.472656 222.414062 222.625 222.582031 221.78125 C 222.75 220.9375 222.957031 220.105469 223.207031 219.28125 C 223.457031 218.460938 223.746094 217.652344 224.074219 216.855469 C 224.402344 216.0625 224.769531 215.285156 225.175781 214.527344 C 225.582031 213.769531 226.023438 213.035156 226.5 212.320312 C 226.976562 211.605469 227.488281 210.914062 228.035156 210.25 C 228.578125 209.585938 229.15625 208.949219 229.765625 208.34375 C 230.371094 207.734375 231.007812 207.15625 231.671875 206.613281 C 232.335938 206.066406 233.027344 205.554688 233.742188 205.078125 C 234.457031 204.601562 235.191406 204.160156 235.949219 203.753906 C 236.707031 203.347656 237.484375 202.980469 238.277344 202.652344 C 239.074219 202.324219 239.882812 202.035156 240.703125 201.785156 C 241.527344 201.535156 242.359375 201.328125 243.203125 201.160156 C 244.046875 200.992188 244.894531 200.867188 245.75 200.78125 C 246.605469 200.695312 247.464844 200.65625 248.324219 200.65625 C 249.183594 200.65625 250.039062 200.695312 250.894531 200.78125 C 251.75 200.867188 252.601562 200.992188 253.445312 201.160156 C 254.285156 201.328125 255.121094 201.535156 255.941406 201.785156 C 256.765625 202.035156 257.574219 202.324219 258.367188 202.652344 C 259.160156 202.980469 259.9375 203.347656 260.695312 203.753906 C 261.453125 204.160156 262.191406 204.601562 262.90625 205.078125 C 263.621094 205.554688 264.308594 206.066406 264.972656 206.613281 C 265.636719 207.15625 266.273438 207.734375 266.882812 208.34375 C 267.488281 208.949219 268.066406 209.585938 268.613281 210.25 C 269.15625 210.914062 269.667969 211.605469 270.148438 212.320312 C 270.625 213.035156 271.066406 213.769531 271.46875 214.527344 C 271.875 215.285156 272.242188 216.0625 272.570312 216.855469 C 272.902344 217.652344 273.191406 218.460938 273.441406 219.28125 C 273.6875 220.105469 273.898438 220.9375 274.066406 221.78125 C 274.234375 222.625 274.359375 223.472656 274.445312 224.328125 C 274.527344 225.183594 274.570312 226.042969 274.570312 226.902344 Z M 274.570312 226.902344 " fill-opacity="1" fill-rule="nonzero"/></g><g clip-path="url(#c6f2feb534)"><path fill="#38b6ff" d="M 237.78125 218.914062 C 243.433594 220.757812 248.980469 223.566406 254.925781 223.453125 C 260.136719 223.351562 265.09375 220.960938 269.160156 217.707031 C 270.105469 216.953125 271.007812 216.148438 271.875 215.316406 C 271.335938 214.222656 270.726562 213.167969 270.039062 212.160156 C 269.355469 211.152344 268.605469 210.195312 267.785156 209.289062 C 266.964844 208.386719 266.089844 207.542969 265.152344 206.761719 C 264.21875 205.976562 263.230469 205.265625 262.195312 204.621094 C 261.160156 203.976562 260.085938 203.40625 258.96875 202.910156 C 257.855469 202.417969 256.710938 202 255.539062 201.667969 C 254.367188 201.332031 253.175781 201.078125 251.96875 200.910156 C 250.761719 200.738281 249.546875 200.65625 248.328125 200.65625 C 236.78125 200.65625 226.984375 208.105469 223.464844 218.453125 C 227.808594 216.652344 233.164062 217.40625 237.78125 218.914062 Z M 237.78125 218.914062 " fill-opacity="1" fill-rule="nonzero"/></g><g clip-path="url(#550247545f)"><path fill="#38b6ff" d="M 246.425781 227.570312 C 241.589844 227.367188 236.339844 226.230469 232.210938 228.75 C 228.46875 231.03125 226.859375 235.8125 227.148438 240.183594 C 227.210938 241.101562 227.335938 242.011719 227.527344 242.910156 C 228.75 244.503906 230.140625 245.9375 231.695312 247.214844 C 233.25 248.488281 234.929688 249.566406 236.734375 250.457031 C 238.535156 251.34375 240.417969 252.015625 242.375 252.46875 C 244.332031 252.921875 246.316406 253.148438 248.328125 253.148438 C 262.820312 253.148438 274.578125 241.394531 274.578125 226.898438 C 274.582031 223.457031 273.929688 220.144531 272.628906 216.960938 C 265.925781 223.992188 256.128906 227.976562 246.425781 227.570312 Z M 246.425781 227.570312 " fill-opacity="1" fill-rule="nonzero"/></g><g clip-path="url(#32d257edb1)"><path fill="#ffffff" d="M 274.570312 316.414062 C 274.570312 317.273438 274.527344 318.132812 274.445312 318.988281 C 274.359375 319.84375 274.234375 320.691406 274.066406 321.535156 C 273.898438 322.378906 273.6875 323.210938 273.441406 324.03125 C 273.191406 324.855469 272.902344 325.664062 272.570312 326.457031 C 272.242188 327.253906 271.875 328.027344 271.46875 328.785156 C 271.066406 329.542969 270.625 330.28125 270.148438 330.996094 C 269.667969 331.710938 269.15625 332.398438 268.613281 333.066406 C 268.066406 333.730469 267.488281 334.367188 266.882812 334.972656 C 266.273438 335.582031 265.636719 336.15625 264.972656 336.703125 C 264.308594 337.25 263.621094 337.761719 262.90625 338.238281 C 262.191406 338.714844 261.453125 339.15625 260.695312 339.5625 C 259.9375 339.96875 259.160156 340.332031 258.367188 340.664062 C 257.574219 340.992188 256.765625 341.28125 255.941406 341.53125 C 255.121094 341.78125 254.285156 341.988281 253.445312 342.15625 C 252.601562 342.324219 251.75 342.449219 250.894531 342.535156 C 250.039062 342.617188 249.183594 342.660156 248.324219 342.660156 C 247.464844 342.660156 246.605469 342.617188 245.75 342.535156 C 244.894531 342.449219 244.046875 342.324219 243.203125 342.15625 C 242.359375 341.988281 241.527344 341.78125 240.703125 341.53125 C 239.882812 341.28125 239.074219 340.992188 238.277344 340.664062 C 237.484375 340.332031 236.707031 339.96875 235.949219 339.5625 C 235.191406 339.15625 234.457031 338.714844 233.742188 338.238281 C 233.027344 337.761719 232.335938 337.25 231.671875 336.703125 C 231.007812 336.15625 230.371094 335.582031 229.765625 334.972656 C 229.15625 334.367188 228.578125 333.730469 228.035156 333.066406 C 227.488281 332.398438 226.976562 331.710938 226.5 330.996094 C 226.023438 330.28125 225.582031 329.542969 225.175781 328.785156 C 224.769531 328.027344 224.402344 327.253906 224.074219 326.457031 C 223.746094 325.664062 223.457031 324.855469 223.207031 324.03125 C 222.957031 323.210938 222.75 322.378906 222.582031 321.535156 C 222.414062 320.691406 222.289062 319.84375 222.203125 318.988281 C 222.117188 318.132812 222.078125 317.273438 222.078125 316.414062 C 222.078125 315.554688 222.117188 314.695312 222.203125 313.839844 C 222.289062 312.984375 222.414062 312.136719 222.582031 311.292969 C 222.75 310.449219 222.957031 309.617188 223.207031 308.796875 C 223.457031 307.972656 223.746094 307.164062 224.074219 306.371094 C 224.402344 305.574219 224.769531 304.800781 225.175781 304.042969 C 225.582031 303.285156 226.023438 302.546875 226.5 301.832031 C 226.976562 301.117188 227.488281 300.429688 228.035156 299.761719 C 228.578125 299.097656 229.15625 298.464844 229.765625 297.855469 C 230.371094 297.246094 231.007812 296.671875 231.671875 296.125 C 232.335938 295.578125 233.027344 295.070312 233.742188 294.589844 C 234.457031 294.113281 235.191406 293.671875 235.949219 293.265625 C 236.707031 292.863281 237.484375 292.496094 238.277344 292.164062 C 239.074219 291.835938 239.882812 291.546875 240.703125 291.296875 C 241.527344 291.046875 242.359375 290.839844 243.203125 290.671875 C 244.046875 290.503906 244.894531 290.378906 245.75 290.292969 C 246.605469 290.210938 247.464844 290.167969 248.324219 290.167969 C 249.183594 290.167969 250.039062 290.210938 250.894531 290.292969 C 251.75 290.378906 252.601562 290.503906 253.445312 290.671875 C 254.285156 290.839844 255.121094 291.046875 255.941406 291.296875 C 256.765625 291.546875 257.574219 291.835938 258.367188 292.164062 C 259.160156 292.496094 259.9375 292.863281 260.695312 293.265625 C 261.453125 293.671875 262.191406 294.113281 262.90625 294.589844 C 263.621094 295.070312 264.308594 295.578125 264.972656 296.125 C 265.636719 296.671875 266.273438 297.246094 266.882812 297.855469 C 267.488281 298.464844 268.066406 299.097656 268.613281 299.761719 C 269.15625 300.429688 269.667969 301.117188 270.148438 301.832031 C 270.625 302.546875 271.066406 303.285156 271.46875 304.042969 C 271.875 304.800781 272.242188 305.574219 272.570312 306.371094 C 272.902344 307.164062 273.191406 307.972656 273.441406 308.796875 C 273.6875 309.617188 273.898438 310.449219 274.066406 311.292969 C 274.234375 312.136719 274.359375 312.984375 274.445312 313.839844 C 274.527344 314.695312 274.570312 315.554688 274.570312 316.414062 Z M 274.570312 316.414062 " fill-opacity="1" fill-rule="nonzero"/></g><g clip-path="url(#6661599b74)"><path fill="#38b6ff" d="M 237.78125 308.425781 C 243.433594 310.269531 248.980469 313.078125 254.925781 312.964844 C 260.136719 312.867188 265.09375 310.472656 269.160156 307.21875 C 270.105469 306.464844 271.007812 305.664062 271.875 304.828125 C 271.335938 303.734375 270.726562 302.683594 270.039062 301.671875 C 269.355469 300.664062 268.605469 299.707031 267.785156 298.804688 C 266.964844 297.898438 266.089844 297.054688 265.152344 296.273438 C 264.21875 295.492188 263.230469 294.777344 262.195312 294.132812 C 261.160156 293.488281 260.085938 292.917969 258.96875 292.425781 C 257.855469 291.929688 256.710938 291.515625 255.539062 291.179688 C 254.367188 290.84375 253.175781 290.589844 251.96875 290.421875 C 250.761719 290.253906 249.546875 290.167969 248.328125 290.167969 C 236.78125 290.167969 226.984375 297.617188 223.464844 307.96875 C 227.808594 306.164062 233.164062 306.917969 237.78125 308.425781 Z M 237.78125 308.425781 " fill-opacity="1" fill-rule="nonzero"/></g><g clip-path="url(#fe2d0e90a4)"><path fill="#38b6ff" d="M 246.425781 317.082031 C 241.589844 316.878906 236.339844 315.742188 232.210938 318.265625 C 228.46875 320.542969 226.859375 325.324219 227.148438 329.699219 C 227.210938 330.613281 227.335938 331.523438 227.527344 332.425781 C 228.75 334.019531 230.140625 335.453125 231.695312 336.726562 C 233.25 338 234.929688 339.082031 236.734375 339.96875 C 238.535156 340.855469 240.417969 341.527344 242.375 341.980469 C 244.332031 342.4375 246.316406 342.664062 248.328125 342.660156 C 262.820312 342.660156 274.578125 330.910156 274.578125 316.410156 C 274.582031 312.96875 273.929688 309.660156 272.628906 306.476562 C 265.925781 313.507812 256.128906 317.488281 246.425781 317.082031 Z M 246.425781 317.082031 " fill-opacity="1" fill-rule="nonzero"/></g><g clip-path="url(#714df7a9d2)"><path fill="#ffffff" d="M 274.570312 404.632812 C 274.570312 405.492188 274.527344 406.351562 274.445312 407.207031 C 274.359375 408.0625 274.234375 408.910156 274.066406 409.753906 C 273.898438 410.597656 273.6875 411.429688 273.441406 412.253906 C 273.191406 413.074219 272.902344 413.882812 272.570312 414.679688 C 272.242188 415.472656 271.875 416.25 271.46875 417.007812 C 271.066406 417.765625 270.625 418.5 270.148438 419.214844 C 269.667969 419.929688 269.15625 420.621094 268.613281 421.285156 C 268.066406 421.949219 267.488281 422.585938 266.882812 423.195312 C 266.273438 423.800781 265.636719 424.378906 264.972656 424.921875 C 264.308594 425.46875 263.621094 425.980469 262.90625 426.457031 C 262.191406 426.933594 261.453125 427.375 260.695312 427.78125 C 259.9375 428.1875 259.160156 428.554688 258.367188 428.882812 C 257.574219 429.210938 256.765625 429.5 255.941406 429.75 C 255.121094 430 254.285156 430.210938 253.445312 430.375 C 252.601562 430.542969 251.75 430.671875 250.894531 430.753906 C 250.039062 430.839844 249.183594 430.882812 248.324219 430.882812 C 247.464844 430.882812 246.605469 430.839844 245.75 430.753906 C 244.894531 430.671875 244.046875 430.542969 243.203125 430.375 C 242.359375 430.210938 241.527344 430 240.703125 429.75 C 239.882812 429.5 239.074219 429.210938 238.277344 428.882812 C 237.484375 428.554688 236.707031 428.1875 235.949219 427.78125 C 235.191406 427.375 234.457031 426.933594 233.742188 426.457031 C 233.027344 425.980469 232.335938 425.46875 231.671875 424.921875 C 231.007812 424.378906 230.371094 423.800781 229.765625 423.195312 C 229.15625 422.585938 228.578125 421.949219 228.035156 421.285156 C 227.488281 420.621094 226.976562 419.929688 226.5 419.214844 C 226.023438 418.5 225.582031 417.765625 225.175781 417.007812 C 224.769531 416.25 224.402344 415.472656 224.074219 414.679688 C 223.746094 413.882812 223.457031 413.074219 223.207031 412.253906 C 222.957031 411.429688 222.75 410.597656 222.582031 409.753906 C 222.414062 408.910156 222.289062 408.0625 222.203125 407.207031 C 222.117188 406.351562 222.078125 405.492188 222.078125 404.632812 C 222.078125 403.773438 222.117188 402.917969 222.203125 402.0625 C 222.289062 401.207031 222.414062 400.355469 222.582031 399.515625 C 222.75 398.671875 222.957031 397.839844 223.207031 397.015625 C 223.457031 396.191406 223.746094 395.382812 224.074219 394.589844 C 224.402344 393.796875 224.769531 393.019531 225.175781 392.261719 C 225.582031 391.503906 226.023438 390.765625 226.5 390.050781 C 226.976562 389.339844 227.488281 388.648438 228.035156 387.984375 C 228.578125 387.320312 229.15625 386.683594 229.765625 386.074219 C 230.371094 385.46875 231.007812 384.890625 231.671875 384.34375 C 232.335938 383.800781 233.027344 383.289062 233.742188 382.8125 C 234.457031 382.332031 235.191406 381.890625 235.949219 381.488281 C 236.707031 381.082031 237.484375 380.714844 238.277344 380.386719 C 239.074219 380.058594 239.882812 379.769531 240.703125 379.519531 C 241.527344 379.269531 242.359375 379.058594 243.203125 378.890625 C 244.046875 378.722656 244.894531 378.597656 245.75 378.515625 C 246.605469 378.429688 247.464844 378.386719 248.324219 378.386719 C 249.183594 378.386719 250.039062 378.429688 250.894531 378.515625 C 251.75 378.597656 252.601562 378.722656 253.445312 378.890625 C 254.285156 379.058594 255.121094 379.269531 255.941406 379.519531 C 256.765625 379.769531 257.574219 380.058594 258.367188 380.386719 C 259.160156 380.714844 259.9375 381.082031 260.695312 381.488281 C 261.453125 381.890625 262.191406 382.332031 262.90625 382.8125 C 263.621094 383.289062 264.308594 383.800781 264.972656 384.34375 C 265.636719 384.890625 266.273438 385.46875 266.882812 386.074219 C 267.488281 386.683594 268.066406 387.320312 268.613281 387.984375 C 269.15625 388.648438 269.667969 389.339844 270.148438 390.050781 C 270.625 390.765625 271.066406 391.503906 271.46875 392.261719 C 271.875 393.019531 272.242188 393.796875 272.570312 394.589844 C 272.902344 395.382812 273.191406 396.191406 273.441406 397.015625 C 273.6875 397.839844 273.898438 398.671875 274.066406 399.515625 C 274.234375 400.355469 274.359375 401.207031 274.445312 402.0625 C 274.527344 402.917969 274.570312 403.773438 274.570312 404.632812 Z M 274.570312 404.632812 " fill-opacity="1" fill-rule="nonzero"/></g><g clip-path="url(#b5aba0c0da)"><path fill="#38b6ff" d="M 237.78125 396.644531 C 243.433594 398.492188 248.980469 401.300781 254.925781 401.183594 C 260.136719 401.085938 265.09375 398.695312 269.160156 395.4375 C 270.105469 394.683594 271.007812 393.882812 271.875 393.050781 C 271.335938 391.953125 270.726562 390.902344 270.039062 389.894531 C 269.355469 388.882812 268.605469 387.925781 267.785156 387.023438 C 266.964844 386.117188 266.089844 385.277344 265.152344 384.492188 C 264.21875 383.710938 263.230469 383 262.195312 382.355469 C 261.160156 381.707031 260.085938 381.140625 258.96875 380.644531 C 257.855469 380.148438 256.710938 379.734375 255.539062 379.398438 C 254.367188 379.0625 253.175781 378.8125 251.96875 378.640625 C 250.761719 378.472656 249.546875 378.386719 248.328125 378.386719 C 236.78125 378.386719 226.984375 385.839844 223.464844 396.1875 C 227.808594 394.386719 233.164062 395.136719 237.78125 396.644531 Z M 237.78125 396.644531 " fill-opacity="1" fill-rule="nonzero"/></g><g clip-path="url(#39ac5324b2)"><path fill="#38b6ff" d="M 246.425781 405.304688 C 241.589844 405.101562 236.339844 403.964844 232.210938 406.484375 C 228.46875 408.765625 226.859375 413.542969 227.148438 417.917969 C 227.210938 418.835938 227.335938 419.746094 227.527344 420.644531 C 228.75 422.238281 230.140625 423.671875 231.695312 424.945312 C 233.25 426.21875 234.929688 427.300781 236.734375 428.1875 C 238.535156 429.074219 240.417969 429.746094 242.375 430.203125 C 244.332031 430.65625 246.316406 430.882812 248.328125 430.882812 C 262.820312 430.882812 274.578125 419.128906 274.578125 404.632812 C 274.582031 401.191406 273.929688 397.878906 272.628906 394.695312 C 265.925781 401.726562 256.128906 405.707031 246.425781 405.304688 Z M 246.425781 405.304688 " fill-opacity="1" fill-rule="nonzero"/></g><g clip-path="url(#539b162f4d)"><path fill="#ffffff" d="M 206.15625 143.222656 C 206.15625 144.082031 206.117188 144.9375 206.03125 145.792969 C 205.949219 146.648438 205.820312 147.5 205.652344 148.339844 C 205.484375 149.183594 205.277344 150.015625 205.027344 150.839844 C 204.777344 151.664062 204.488281 152.46875 204.160156 153.265625 C 203.832031 154.058594 203.464844 154.835938 203.058594 155.59375 C 202.652344 156.351562 202.210938 157.085938 201.734375 157.800781 C 201.257812 158.515625 200.746094 159.207031 200.199219 159.871094 C 199.65625 160.535156 199.078125 161.171875 198.472656 161.78125 C 197.863281 162.386719 197.226562 162.964844 196.5625 163.507812 C 195.898438 164.054688 195.207031 164.566406 194.492188 165.042969 C 193.777344 165.523438 193.042969 165.964844 192.285156 166.367188 C 191.527344 166.773438 190.75 167.140625 189.957031 167.46875 C 189.160156 167.796875 188.351562 168.085938 187.53125 168.335938 C 186.707031 168.585938 185.875 168.796875 185.03125 168.964844 C 184.1875 169.128906 183.339844 169.257812 182.484375 169.339844 C 181.628906 169.425781 180.769531 169.46875 179.910156 169.46875 C 179.050781 169.46875 178.195312 169.425781 177.339844 169.339844 C 176.484375 169.257812 175.632812 169.128906 174.792969 168.964844 C 173.949219 168.796875 173.117188 168.585938 172.292969 168.335938 C 171.46875 168.085938 170.660156 167.796875 169.867188 167.46875 C 169.074219 167.140625 168.296875 166.773438 167.539062 166.367188 C 166.78125 165.964844 166.042969 165.523438 165.328125 165.042969 C 164.613281 164.566406 163.925781 164.054688 163.261719 163.507812 C 162.597656 162.964844 161.960938 162.386719 161.351562 161.78125 C 160.746094 161.171875 160.167969 160.535156 159.621094 159.871094 C 159.078125 159.207031 158.566406 158.515625 158.089844 157.800781 C 157.609375 157.085938 157.167969 156.351562 156.765625 155.59375 C 156.359375 154.835938 155.992188 154.058594 155.664062 153.265625 C 155.335938 152.46875 155.042969 151.664062 154.796875 150.839844 C 154.546875 150.015625 154.335938 149.183594 154.167969 148.339844 C 154 147.5 153.875 146.648438 153.792969 145.792969 C 153.707031 144.9375 153.664062 144.082031 153.664062 143.222656 C 153.664062 142.359375 153.707031 141.503906 153.792969 140.648438 C 153.875 139.792969 154 138.945312 154.167969 138.101562 C 154.335938 137.257812 154.546875 136.425781 154.796875 135.601562 C 155.042969 134.777344 155.335938 133.972656 155.664062 133.175781 C 155.992188 132.382812 156.359375 131.605469 156.765625 130.847656 C 157.167969 130.089844 157.609375 129.355469 158.089844 128.640625 C 158.566406 127.925781 159.078125 127.234375 159.621094 126.570312 C 160.167969 125.90625 160.746094 125.269531 161.351562 124.660156 C 161.960938 124.054688 162.597656 123.476562 163.261719 122.933594 C 163.925781 122.386719 164.613281 121.875 165.328125 121.398438 C 166.042969 120.921875 166.78125 120.480469 167.539062 120.074219 C 168.296875 119.667969 169.074219 119.300781 169.867188 118.972656 C 170.660156 118.644531 171.46875 118.355469 172.292969 118.105469 C 173.117188 117.855469 173.949219 117.644531 174.792969 117.476562 C 175.632812 117.3125 176.484375 117.183594 177.339844 117.101562 C 178.195312 117.015625 179.050781 116.972656 179.910156 116.972656 C 180.769531 116.972656 181.628906 117.015625 182.484375 117.101562 C 183.339844 117.183594 184.1875 117.3125 185.03125 117.476562 C 185.875 117.644531 186.707031 117.855469 187.53125 118.105469 C 188.351562 118.355469 189.160156 118.644531 189.957031 118.972656 C 190.75 119.300781 191.527344 119.667969 192.285156 120.074219 C 193.042969 120.480469 193.777344 120.921875 194.492188 121.398438 C 195.207031 121.875 195.898438 122.386719 196.5625 122.933594 C 197.226562 123.476562 197.863281 124.054688 198.472656 124.660156 C 199.078125 125.269531 199.65625 125.90625 200.199219 126.570312 C 200.746094 127.234375 201.257812 127.925781 201.734375 128.640625 C 202.210938 129.355469 202.652344 130.089844 203.058594 130.847656 C 203.464844 131.605469 203.832031 132.382812 204.160156 133.175781 C 204.488281 133.972656 204.777344 134.777344 205.027344 135.601562 C 205.277344 136.425781 205.484375 137.257812 205.652344 138.101562 C 205.820312 138.945312 205.949219 139.792969 206.03125 140.648438 C 206.117188 141.503906 206.15625 142.359375 206.15625 143.222656 Z M 206.15625 143.222656 " fill-opacity="1" fill-rule="nonzero"/></g><g clip-path="url(#3168df7590)"><path fill="#38b6ff" d="M 169.371094 135.230469 C 175.023438 137.078125 180.570312 139.886719 186.515625 139.773438 C 191.722656 139.671875 196.683594 137.28125 200.75 134.023438 C 201.695312 133.269531 202.59375 132.46875 203.464844 131.636719 C 202.925781 130.539062 202.3125 129.488281 201.628906 128.480469 C 200.945312 127.46875 200.191406 126.515625 199.375 125.609375 C 198.554688 124.707031 197.679688 123.863281 196.742188 123.078125 C 195.804688 122.296875 194.820312 121.585938 193.785156 120.941406 C 192.75 120.296875 191.675781 119.726562 190.558594 119.230469 C 189.445312 118.734375 188.300781 118.320312 187.128906 117.984375 C 185.953125 117.648438 184.765625 117.398438 183.554688 117.230469 C 182.347656 117.058594 181.136719 116.972656 179.914062 116.972656 C 168.371094 116.972656 158.570312 124.425781 155.054688 134.773438 C 159.398438 132.972656 164.753906 133.726562 169.371094 135.230469 Z M 169.371094 135.230469 " fill-opacity="1" fill-rule="nonzero"/></g><g clip-path="url(#21f7b918a4)"><path fill="#38b6ff" d="M 178.015625 143.890625 C 173.179688 143.6875 167.925781 142.550781 163.800781 145.070312 C 160.054688 147.351562 158.445312 152.128906 158.738281 156.503906 C 158.800781 157.421875 158.925781 158.332031 159.113281 159.230469 C 160.339844 160.824219 161.730469 162.257812 163.285156 163.53125 C 164.839844 164.804688 166.515625 165.886719 168.320312 166.773438 C 170.125 167.664062 172.003906 168.332031 173.964844 168.789062 C 175.921875 169.242188 177.90625 169.46875 179.914062 169.46875 C 194.410156 169.46875 206.164062 157.714844 206.164062 143.21875 C 206.167969 139.777344 205.519531 136.464844 204.214844 133.28125 C 197.515625 140.3125 187.71875 144.292969 178.015625 143.890625 Z M 178.015625 143.890625 " fill-opacity="1" fill-rule="nonzero"/></g><g clip-path="url(#c9aef1a7c2)"><path fill="#ffffff" d="M 137.96875 226.902344 C 137.96875 227.761719 137.925781 228.617188 137.839844 229.472656 C 137.757812 230.328125 137.632812 231.179688 137.464844 232.023438 C 137.296875 232.863281 137.085938 233.699219 136.835938 234.519531 C 136.589844 235.34375 136.300781 236.152344 135.96875 236.945312 C 135.640625 237.738281 135.273438 238.515625 134.867188 239.273438 C 134.464844 240.03125 134.023438 240.769531 133.542969 241.484375 C 133.066406 242.199219 132.554688 242.886719 132.011719 243.550781 C 131.464844 244.214844 130.886719 244.851562 130.28125 245.460938 C 129.671875 246.066406 129.035156 246.644531 128.371094 247.191406 C 127.707031 247.734375 127.019531 248.246094 126.304688 248.722656 C 125.589844 249.203125 124.851562 249.644531 124.09375 250.046875 C 123.335938 250.453125 122.558594 250.820312 121.765625 251.148438 C 120.972656 251.480469 120.164062 251.769531 119.339844 252.019531 C 118.519531 252.265625 117.683594 252.476562 116.839844 252.644531 C 116 252.8125 115.148438 252.9375 114.292969 253.019531 C 113.4375 253.105469 112.582031 253.148438 111.722656 253.148438 C 110.863281 253.148438 110.003906 253.105469 109.148438 253.019531 C 108.292969 252.9375 107.445312 252.8125 106.601562 252.644531 C 105.757812 252.476562 104.925781 252.265625 104.101562 252.019531 C 103.28125 251.769531 102.472656 251.480469 101.675781 251.148438 C 100.882812 250.820312 100.105469 250.453125 99.347656 250.046875 C 98.589844 249.644531 97.855469 249.203125 97.140625 248.722656 C 96.425781 248.246094 95.734375 247.734375 95.070312 247.191406 C 94.40625 246.644531 93.769531 246.066406 93.164062 245.460938 C 92.554688 244.851562 91.976562 244.214844 91.433594 243.550781 C 90.886719 242.886719 90.375 242.199219 89.898438 241.484375 C 89.421875 240.769531 88.980469 240.03125 88.574219 239.273438 C 88.167969 238.515625 87.800781 237.738281 87.472656 236.945312 C 87.144531 236.152344 86.855469 235.34375 86.605469 234.519531 C 86.355469 233.699219 86.148438 232.863281 85.980469 232.023438 C 85.8125 231.179688 85.683594 230.328125 85.601562 229.472656 C 85.515625 228.617188 85.476562 227.761719 85.476562 226.902344 C 85.476562 226.042969 85.515625 225.183594 85.601562 224.328125 C 85.683594 223.472656 85.8125 222.625 85.980469 221.78125 C 86.148438 220.9375 86.355469 220.105469 86.605469 219.28125 C 86.855469 218.460938 87.144531 217.652344 87.472656 216.855469 C 87.800781 216.0625 88.167969 215.285156 88.574219 214.527344 C 88.980469 213.769531 89.421875 213.035156 89.898438 212.320312 C 90.375 211.605469 90.886719 210.914062 91.433594 210.25 C 91.976562 209.585938 92.554688 208.949219 93.164062 208.34375 C 93.769531 207.734375 94.40625 207.15625 95.070312 206.613281 C 95.734375 206.066406 96.425781 205.554688 97.140625 205.078125 C 97.855469 204.601562 98.589844 204.160156 99.347656 203.753906 C 100.105469 203.347656 100.882812 202.980469 101.675781 202.652344 C 102.472656 202.324219 103.28125 202.035156 104.101562 201.785156 C 104.925781 201.535156 105.757812 201.328125 106.601562 201.160156 C 107.445312 200.992188 108.292969 200.867188 109.148438 200.78125 C 110.003906 200.695312 110.863281 200.65625 111.722656 200.65625 C 112.582031 200.65625 113.4375 200.695312 114.292969 200.78125 C 115.148438 200.867188 116 200.992188 116.839844 201.160156 C 117.683594 201.328125 118.519531 201.535156 119.339844 201.785156 C 120.164062 202.035156 120.972656 202.324219 121.765625 202.652344 C 122.558594 202.980469 123.335938 203.347656 124.09375 203.753906 C 124.851562 204.160156 125.589844 204.601562 126.304688 205.078125 C 127.019531 205.554688 127.707031 206.066406 128.371094 206.613281 C 129.035156 207.15625 129.671875 207.734375 130.28125 208.34375 C 130.886719 208.949219 131.464844 209.585938 132.011719 210.25 C 132.554688 210.914062 133.066406 211.605469 133.542969 212.320312 C 134.023438 213.035156 134.464844 213.769531 134.867188 214.527344 C 135.273438 215.285156 135.640625 216.0625 135.96875 216.855469 C 136.300781 217.652344 136.589844 218.460938 136.835938 219.28125 C 137.085938 220.105469 137.296875 220.9375 137.464844 221.78125 C 137.632812 222.625 137.757812 223.472656 137.839844 224.328125 C 137.925781 225.183594 137.96875 226.042969 137.96875 226.902344 Z M 137.96875 226.902344 " fill-opacity="1" fill-rule="nonzero"/></g><g clip-path="url(#aa076a2039)"><path fill="#38b6ff" d="M 101.179688 218.914062 C 106.832031 220.757812 112.378906 223.566406 118.324219 223.453125 C 123.535156 223.351562 128.492188 220.960938 132.558594 217.707031 C 133.503906 216.953125 134.402344 216.148438 135.273438 215.316406 C 134.734375 214.222656 134.125 213.167969 133.4375 212.160156 C 132.753906 211.152344 132 210.195312 131.183594 209.289062 C 130.363281 208.386719 129.488281 207.542969 128.550781 206.761719 C 127.617188 205.976562 126.628906 205.265625 125.59375 204.621094 C 124.558594 203.976562 123.484375 203.40625 122.367188 202.910156 C 121.253906 202.417969 120.109375 202 118.9375 201.667969 C 117.765625 201.332031 116.574219 201.078125 115.367188 200.910156 C 114.160156 200.738281 112.945312 200.65625 111.726562 200.65625 C 100.179688 200.65625 90.378906 208.105469 86.863281 218.453125 C 91.207031 216.652344 96.5625 217.40625 101.179688 218.914062 Z M 101.179688 218.914062 " fill-opacity="1" fill-rule="nonzero"/></g><g clip-path="url(#61d8cbc6c7)"><path fill="#38b6ff" d="M 109.824219 227.570312 C 104.988281 227.367188 99.738281 226.230469 95.609375 228.75 C 91.867188 231.03125 90.253906 235.8125 90.546875 240.183594 C 90.609375 241.101562 90.734375 242.011719 90.925781 242.910156 C 92.148438 244.503906 93.539062 245.9375 95.09375 247.214844 C 96.648438 248.488281 98.328125 249.566406 100.128906 250.457031 C 101.933594 251.34375 103.816406 252.015625 105.773438 252.46875 C 107.730469 252.921875 109.714844 253.148438 111.726562 253.148438 C 126.21875 253.148438 137.976562 241.394531 137.976562 226.898438 C 137.976562 223.457031 137.328125 220.144531 136.027344 216.960938 C 129.324219 223.992188 119.527344 227.976562 109.824219 227.570312 Z M 109.824219 227.570312 " fill-opacity="1" fill-rule="nonzero"/></g><g clip-path="url(#c8eca5c85f)"><path fill="#ffffff" d="M 137.96875 316.414062 C 137.96875 317.273438 137.925781 318.132812 137.839844 318.988281 C 137.757812 319.84375 137.632812 320.691406 137.464844 321.535156 C 137.296875 322.378906 137.085938 323.210938 136.835938 324.03125 C 136.589844 324.855469 136.300781 325.664062 135.96875 326.457031 C 135.640625 327.253906 135.273438 328.027344 134.867188 328.785156 C 134.464844 329.542969 134.023438 330.28125 133.542969 330.996094 C 133.066406 331.710938 132.554688 332.398438 132.011719 333.066406 C 131.464844 333.730469 130.886719 334.367188 130.28125 334.972656 C 129.671875 335.582031 129.035156 336.15625 128.371094 336.703125 C 127.707031 337.25 127.019531 337.761719 126.304688 338.238281 C 125.589844 338.714844 124.851562 339.15625 124.09375 339.5625 C 123.335938 339.96875 122.558594 340.332031 121.765625 340.664062 C 120.972656 340.992188 120.164062 341.28125 119.339844 341.53125 C 118.519531 341.78125 117.683594 341.988281 116.839844 342.15625 C 116 342.324219 115.148438 342.449219 114.292969 342.535156 C 113.4375 342.617188 112.582031 342.660156 111.722656 342.660156 C 110.863281 342.660156 110.003906 342.617188 109.148438 342.535156 C 108.292969 342.449219 107.445312 342.324219 106.601562 342.15625 C 105.757812 341.988281 104.925781 341.78125 104.101562 341.53125 C 103.28125 341.28125 102.472656 340.992188 101.675781 340.664062 C 100.882812 340.332031 100.105469 339.96875 99.347656 339.5625 C 98.589844 339.15625 97.855469 338.714844 97.140625 338.238281 C 96.425781 337.761719 95.734375 337.25 95.070312 336.703125 C 94.40625 336.15625 93.769531 335.582031 93.164062 334.972656 C 92.554688 334.367188 91.976562 333.730469 91.433594 333.066406 C 90.886719 332.398438 90.375 331.710938 89.898438 330.996094 C 89.421875 330.28125 88.980469 329.542969 88.574219 328.785156 C 88.167969 328.027344 87.800781 327.253906 87.472656 326.457031 C 87.144531 325.664062 86.855469 324.855469 86.605469 324.03125 C 86.355469 323.210938 86.148438 322.378906 85.980469 321.535156 C 85.8125 320.691406 85.683594 319.84375 85.601562 318.988281 C 85.515625 318.132812 85.476562 317.273438 85.476562 316.414062 C 85.476562 315.554688 85.515625 314.695312 85.601562 313.839844 C 85.683594 312.984375 85.8125 312.136719 85.980469 311.292969 C 86.148438 310.449219 86.355469 309.617188 86.605469 308.796875 C 86.855469 307.972656 87.144531 307.164062 87.472656 306.371094 C 87.800781 305.574219 88.167969 304.800781 88.574219 304.042969 C 88.980469 303.285156 89.421875 302.546875 89.898438 301.832031 C 90.375 301.117188 90.886719 300.429688 91.433594 299.761719 C 91.976562 299.097656 92.554688 298.464844 93.164062 297.855469 C 93.769531 297.246094 94.40625 296.671875 95.070312 296.125 C 95.734375 295.578125 96.425781 295.070312 97.140625 294.589844 C 97.855469 294.113281 98.589844 293.671875 99.347656 293.265625 C 100.105469 292.863281 100.882812 292.496094 101.675781 292.164062 C 102.472656 291.835938 103.28125 291.546875 104.101562 291.296875 C 104.925781 291.046875 105.757812 290.839844 106.601562 290.671875 C 107.445312 290.503906 108.292969 290.378906 109.148438 290.292969 C 110.003906 290.210938 110.863281 290.167969 111.722656 290.167969 C 112.582031 290.167969 113.4375 290.210938 114.292969 290.292969 C 115.148438 290.378906 116 290.503906 116.839844 290.671875 C 117.683594 290.839844 118.519531 291.046875 119.339844 291.296875 C 120.164062 291.546875 120.972656 291.835938 121.765625 292.164062 C 122.558594 292.496094 123.335938 292.863281 124.09375 293.265625 C 124.851562 293.671875 125.589844 294.113281 126.304688 294.589844 C 127.019531 295.070312 127.707031 295.578125 128.371094 296.125 C 129.035156 296.671875 129.671875 297.246094 130.28125 297.855469 C 130.886719 298.464844 131.464844 299.097656 132.011719 299.761719 C 132.554688 300.429688 133.066406 301.117188 133.542969 301.832031 C 134.023438 302.546875 134.464844 303.285156 134.867188 304.042969 C 135.273438 304.800781 135.640625 305.574219 135.96875 306.371094 C 136.300781 307.164062 136.589844 307.972656 136.835938 308.796875 C 137.085938 309.617188 137.296875 310.449219 137.464844 311.292969 C 137.632812 312.136719 137.757812 312.984375 137.839844 313.839844 C 137.925781 314.695312 137.96875 315.554688 137.96875 316.414062 Z M 137.96875 316.414062 " fill-opacity="1" fill-rule="nonzero"/></g><g clip-path="url(#671963f4de)"><path fill="#38b6ff" d="M 101.179688 308.425781 C 106.832031 310.269531 112.378906 313.078125 118.324219 312.964844 C 123.535156 312.867188 128.492188 310.472656 132.558594 307.21875 C 133.503906 306.464844 134.402344 305.664062 135.273438 304.828125 C 134.734375 303.734375 134.125 302.683594 133.4375 301.671875 C 132.753906 300.664062 132 299.707031 131.183594 298.804688 C 130.363281 297.898438 129.488281 297.054688 128.550781 296.273438 C 127.617188 295.492188 126.628906 294.777344 125.59375 294.132812 C 124.558594 293.488281 123.484375 292.917969 122.367188 292.425781 C 121.253906 291.929688 120.109375 291.515625 118.9375 291.179688 C 117.765625 290.84375 116.574219 290.589844 115.367188 290.421875 C 114.160156 290.253906 112.945312 290.167969 111.726562 290.167969 C 100.179688 290.167969 90.378906 297.617188 86.863281 307.96875 C 91.207031 306.164062 96.5625 306.917969 101.179688 308.425781 Z M 101.179688 308.425781 " fill-opacity="1" fill-rule="nonzero"/></g><g clip-path="url(#dd1b5cee1b)"><path fill="#38b6ff" d="M 109.824219 317.082031 C 104.988281 316.878906 99.738281 315.742188 95.609375 318.265625 C 91.867188 320.542969 90.253906 325.324219 90.546875 329.699219 C 90.609375 330.613281 90.734375 331.523438 90.925781 332.425781 C 92.148438 334.019531 93.539062 335.453125 95.09375 336.726562 C 96.648438 338 98.328125 339.082031 100.128906 339.96875 C 101.933594 340.855469 103.816406 341.527344 105.773438 341.980469 C 107.730469 342.4375 109.714844 342.664062 111.726562 342.660156 C 126.21875 342.660156 137.976562 330.910156 137.976562 316.410156 C 137.976562 312.96875 137.328125 309.660156 136.027344 306.476562 C 129.324219 313.507812 119.527344 317.488281 109.824219 317.082031 Z M 109.824219 317.082031 " fill-opacity="1" fill-rule="nonzero"/></g><g clip-path="url(#8fbd59bbf0)"><path fill="#ffffff" d="M 137.96875 404.632812 C 137.96875 405.492188 137.925781 406.351562 137.839844 407.207031 C 137.757812 408.0625 137.632812 408.910156 137.464844 409.753906 C 137.296875 410.597656 137.085938 411.429688 136.835938 412.253906 C 136.589844 413.074219 136.300781 413.882812 135.96875 414.679688 C 135.640625 415.472656 135.273438 416.25 134.867188 417.007812 C 134.464844 417.765625 134.023438 418.5 133.542969 419.214844 C 133.066406 419.929688 132.554688 420.621094 132.011719 421.285156 C 131.464844 421.949219 130.886719 422.585938 130.28125 423.195312 C 129.671875 423.800781 129.035156 424.378906 128.371094 424.921875 C 127.707031 425.46875 127.019531 425.980469 126.304688 426.457031 C 125.589844 426.933594 124.851562 427.375 124.09375 427.78125 C 123.335938 428.1875 122.558594 428.554688 121.765625 428.882812 C 120.972656 429.210938 120.164062 429.5 119.339844 429.75 C 118.519531 430 117.683594 430.210938 116.839844 430.375 C 116 430.542969 115.148438 430.671875 114.292969 430.753906 C 113.4375 430.839844 112.582031 430.882812 111.722656 430.882812 C 110.863281 430.882812 110.003906 430.839844 109.148438 430.753906 C 108.292969 430.671875 107.445312 430.542969 106.601562 430.375 C 105.757812 430.210938 104.925781 430 104.101562 429.75 C 103.28125 429.5 102.472656 429.210938 101.675781 428.882812 C 100.882812 428.554688 100.105469 428.1875 99.347656 427.78125 C 98.589844 427.375 97.855469 426.933594 97.140625 426.457031 C 96.425781 425.980469 95.734375 425.46875 95.070312 424.921875 C 94.40625 424.378906 93.769531 423.800781 93.164062 423.195312 C 92.554688 422.585938 91.976562 421.949219 91.433594 421.285156 C 90.886719 420.621094 90.375 419.929688 89.898438 419.214844 C 89.421875 418.5 88.980469 417.765625 88.574219 417.007812 C 88.167969 416.25 87.800781 415.472656 87.472656 414.679688 C 87.144531 413.882812 86.855469 413.074219 86.605469 412.253906 C 86.355469 411.429688 86.148438 410.597656 85.980469 409.753906 C 85.8125 408.910156 85.683594 408.0625 85.601562 407.207031 C 85.515625 406.351562 85.476562 405.492188 85.476562 404.632812 C 85.476562 403.773438 85.515625 402.917969 85.601562 402.0625 C 85.683594 401.207031 85.8125 400.355469 85.980469 399.515625 C 86.148438 398.671875 86.355469 397.839844 86.605469 397.015625 C 86.855469 396.191406 87.144531 395.382812 87.472656 394.589844 C 87.800781 393.796875 88.167969 393.019531 88.574219 392.261719 C 88.980469 391.503906 89.421875 390.765625 89.898438 390.050781 C 90.375 389.339844 90.886719 388.648438 91.433594 387.984375 C 91.976562 387.320312 92.554688 386.683594 93.164062 386.074219 C 93.769531 385.46875 94.40625 384.890625 95.070312 384.34375 C 95.734375 383.800781 96.425781 383.289062 97.140625 382.8125 C 97.855469 382.332031 98.589844 381.890625 99.347656 381.488281 C 100.105469 381.082031 100.882812 380.714844 101.675781 380.386719 C 102.472656 380.058594 103.28125 379.769531 104.101562 379.519531 C 104.925781 379.269531 105.757812 379.058594 106.601562 378.890625 C 107.445312 378.722656 108.292969 378.597656 109.148438 378.515625 C 110.003906 378.429688 110.863281 378.386719 111.722656 378.386719 C 112.582031 378.386719 113.4375 378.429688 114.292969 378.515625 C 115.148438 378.597656 116 378.722656 116.839844 378.890625 C 117.683594 379.058594 118.519531 379.269531 119.339844 379.519531 C 120.164062 379.769531 120.972656 380.058594 121.765625 380.386719 C 122.558594 380.714844 123.335938 381.082031 124.09375 381.488281 C 124.851562 381.890625 125.589844 382.332031 126.304688 382.8125 C 127.019531 383.289062 127.707031 383.800781 128.371094 384.34375 C 129.035156 384.890625 129.671875 385.46875 130.28125 386.074219 C 130.886719 386.683594 131.464844 387.320312 132.011719 387.984375 C 132.554688 388.648438 133.066406 389.339844 133.542969 390.050781 C 134.023438 390.765625 134.464844 391.503906 134.867188 392.261719 C 135.273438 393.019531 135.640625 393.796875 135.96875 394.589844 C 136.300781 395.382812 136.589844 396.191406 136.835938 397.015625 C 137.085938 397.839844 137.296875 398.671875 137.464844 399.515625 C 137.632812 400.355469 137.757812 401.207031 137.839844 402.0625 C 137.925781 402.917969 137.96875 403.773438 137.96875 404.632812 Z M 137.96875 404.632812 " fill-opacity="1" fill-rule="nonzero"/></g><g clip-path="url(#aa2c803ecd)"><path fill="#38b6ff" d="M 101.179688 396.644531 C 106.832031 398.492188 112.378906 401.300781 118.324219 401.183594 C 123.535156 401.085938 128.492188 398.695312 132.558594 395.4375 C 133.503906 394.683594 134.402344 393.882812 135.273438 393.050781 C 134.734375 391.953125 134.125 390.902344 133.4375 389.894531 C 132.753906 388.882812 132 387.925781 131.183594 387.023438 C 130.363281 386.117188 129.488281 385.277344 128.550781 384.492188 C 127.617188 383.710938 126.628906 383 125.59375 382.355469 C 124.558594 381.707031 123.484375 381.140625 122.367188 380.644531 C 121.253906 380.148438 120.109375 379.734375 118.9375 379.398438 C 117.765625 379.0625 116.574219 378.8125 115.367188 378.640625 C 114.160156 378.472656 112.945312 378.386719 111.726562 378.386719 C 100.179688 378.386719 90.378906 385.839844 86.863281 396.1875 C 91.207031 394.386719 96.5625 395.136719 101.179688 396.644531 Z M 101.179688 396.644531 " fill-opacity="1" fill-rule="nonzero"/></g><g clip-path="url(#c095824c19)"><path fill="#38b6ff" d="M 109.824219 405.304688 C 104.988281 405.101562 99.738281 403.964844 95.609375 406.484375 C 91.867188 408.765625 90.253906 413.542969 90.546875 417.917969 C 90.609375 418.835938 90.734375 419.746094 90.925781 420.644531 C 92.148438 422.238281 93.539062 423.671875 95.09375 424.945312 C 96.648438 426.21875 98.328125 427.300781 100.128906 428.1875 C 101.933594 429.074219 103.816406 429.746094 105.773438 430.203125 C 107.730469 430.65625 109.714844 430.882812 111.726562 430.882812 C 126.21875 430.882812 137.976562 419.128906 137.976562 404.632812 C 137.976562 401.191406 137.328125 397.878906 136.027344 394.695312 C 129.324219 401.726562 119.527344 405.707031 109.824219 405.304688 Z M 109.824219 405.304688 " fill-opacity="1" fill-rule="nonzero"/></g></svg>